<svg width="228" height="241" fill="none" xmlns="http://www.w3.org/2000/svg"><path d="M226.97 237.403a.5.5 0 00.107-.699l-2.662-3.628a.501.501 0 00-.806.592l2.366 3.225-3.224 2.367a.5.5 0 10.591.806l3.628-2.663zM.177 1.051l.105 1.02.994-.103L1.172.95l-.995.102zm.317 3.052c.071.675.143 1.348.216 2.02l.994-.109c-.073-.67-.145-1.342-.216-2.016l-.994.105zM.93 8.13c.073.667.148 1.332.223 1.995l.994-.113-.224-1.993-.993.11zm.451 3.978l.232 1.972.993-.118a736.78 736.78 0 01-.232-1.969l-.993.115zm.467 3.931c.083.675.165 1.347.249 2.017l.992-.124-.248-2.013-.993.12zm.504 4.04c.086.672.172 1.342.26 2.01l.99-.13c-.086-.666-.173-1.335-.258-2.006l-.992.126zm.523 4.008c.089.663.178 1.325.269 1.984l.99-.135c-.09-.659-.18-1.32-.268-1.982l-.99.133zm.542 3.956c.091.655.184 1.308.277 1.96l.99-.143c-.093-.65-.186-1.301-.277-1.956l-.99.14zm.564 3.94l.3 2.022.989-.148-.3-2.018-.989.145zm.605 4.03c.102.667.206 1.332.31 1.994l.988-.155c-.104-.661-.207-1.325-.31-1.99l-.988.151zm.625 3.975l.32 1.967.987-.163-.32-1.963-.987.159zm.646 3.92c.11.659.222 1.315.335 1.97l.986-.17a518.8 518.8 0 01-.335-1.966l-.986.166zm.687 3.983c.118.669.237 1.335.357 2l.984-.179a452.52 452.52 0 01-.357-1.995l-.984.174zm.72 3.984c.121.659.244 1.316.368 1.97l.983-.186a478 478 0 01-.368-1.966l-.984.182zm.743 3.926c.125.65.252 1.296.38 1.941l.98-.194c-.127-.644-.253-1.29-.379-1.938l-.981.19zm.776 3.918c.136.669.273 1.335.41 1.999l.98-.204c-.138-.662-.274-1.326-.41-1.994l-.98.2zm.827 3.982c.14.658.282 1.314.424 1.967l.977-.212c-.142-.652-.283-1.306-.422-1.963l-.979.208zm.854 3.92c.144.648.29 1.294.436 1.937l.975-.222a400.28 400.28 0 01-.435-1.933l-.976.218zm.882 3.869c.155.666.312 1.33.47 1.99l.973-.232c-.158-.659-.314-1.32-.47-1.986l-.973.228zm.948 3.966c.16.655.322 1.308.485 1.958l.97-.243c-.162-.648-.324-1.3-.484-1.953l-.971.238zm.978 3.9c.165.645.332 1.287.5 1.927l.967-.254a315.59 315.59 0 01-.499-1.921l-.968.248zm1.008 3.837c.177.66.356 1.316.536 1.97l.964-.266a336.41 336.41 0 01-.535-1.964l-.965.26zm1.082 3.928c.183.65.368 1.297.554 1.942l.961-.278a315.14 315.14 0 01-.553-1.936l-.962.272zm1.117 3.866c.19.639.38 1.274.572 1.907l.957-.29c-.191-.63-.381-1.264-.57-1.901l-.959.284zm1.152 3.798c.203.653.407 1.303.613 1.95l.953-.303c-.205-.645-.409-1.293-.611-1.944l-.955.297zm1.236 3.883c.21.642.42 1.28.632 1.916l.949-.317a290.52 290.52 0 01-.63-1.909l-.951.31zm1.274 3.813c.216.63.433 1.256.652 1.88l.943-.331c-.218-.622-.434-1.246-.649-1.873l-.946.324zm1.32 3.762c.23.642.463 1.281.698 1.917l.938-.346c-.233-.633-.465-1.269-.695-1.909l-.941.338zm1.406 3.815c.238.629.477 1.256.719 1.879l.932-.361c-.24-.621-.479-1.245-.716-1.872l-.935.354zm1.448 3.739c.245.617.492 1.231.74 1.842l.927-.377a200.23 200.23 0 01-.737-1.834l-.93.369zm1.514 3.718c.261.627.525 1.251.79 1.871l.92-.394c-.265-.617-.527-1.238-.787-1.862l-.923.385zm1.593 3.722c.27.614.54 1.224.814 1.831l.912-.41c-.272-.605-.542-1.212-.81-1.823l-.916.402zm1.64 3.643c.282.611.566 1.219.853 1.824l.904-.428c-.285-.602-.568-1.207-.849-1.815l-.908.419zm1.732 3.657c.295.607.593 1.211.892 1.812l.895-.446a196.45 196.45 0 01-.888-1.804l-.899.438zm1.797 3.604c.304.594.61 1.185.919 1.772l.885-.465c-.307-.584-.611-1.172-.914-1.763l-.89.456zm1.861 3.545c.322.598.647 1.192.973 1.783l.876-.484a170.9 170.9 0 01-.968-1.773l-.88.474zm1.96 3.546c.332.584.666 1.164 1.002 1.742l.864-.504a191.26 191.26 0 01-.996-1.732l-.87.494zm2.018 3.463c.345.577.692 1.15 1.041 1.72l.853-.524c-.348-.566-.693-1.136-1.036-1.709l-.858.513zm2.113 3.442c.36.571.721 1.138 1.086 1.701l.84-.543a168.13 168.13 0 01-1.08-1.691l-.846.533zm2.188 3.382c.37.556.743 1.11 1.118 1.66l.826-.564c-.373-.546-.743-1.096-1.11-1.65l-.834.554zm2.264 3.318c.388.553.779 1.103 1.172 1.65l.811-.584c-.39-.543-.779-1.09-1.164-1.64l-.819.574zm2.36 3.279c.399.54.8 1.076 1.205 1.609l.796-.605c-.401-.529-.8-1.062-1.197-1.598l-.804.594zm2.426 3.197c.415.532.833 1.06 1.253 1.585l.78-.625a162.51 162.51 0 01-1.244-1.575l-.789.615zm2.526 3.153c.427.52.857 1.036 1.29 1.548l.764-.645c-.43-.509-.858-1.022-1.282-1.538l-.772.635zm2.598 3.075c.439.506.881 1.009 1.326 1.508l.747-.665a145.49 145.49 0 01-1.318-1.499l-.755.656zm2.68 3.007c.454.496.912.988 1.372 1.477l.728-.685c-.457-.486-.911-.975-1.362-1.468l-.738.676zm2.762 2.935a147 147 0 001.408 1.438l.71-.705c-.47-.472-.936-.948-1.399-1.428l-.719.695zm2.836 2.857c.48.47.962.937 1.448 1.401l.69-.723a157.26 157.26 0 01-1.437-1.392l-.7.714zm2.915 2.783c.492.457.987.911 1.485 1.362l.671-.742c-.495-.448-.987-.899-1.475-1.353l-.681.733zm2.99 2.705c.502.443 1.008.882 1.517 1.319l.65-.759c-.505-.434-1.007-.871-1.507-1.311l-.66.751zm3.052 2.619c.515.431 1.034.858 1.555 1.282l.631-.776c-.518-.421-1.033-.846-1.545-1.273l-.64.767zm3.129 2.545c.526.418 1.056.832 1.59 1.243l.61-.791c-.53-.409-1.056-.821-1.58-1.235l-.62.783zm3.185 2.459c.535.402 1.074.802 1.615 1.198l.591-.807c-.538-.394-1.073-.791-1.605-1.191l-.6.8zm3.25 2.379c.547.391 1.099.779 1.653 1.164l.57-.821a156.73 156.73 0 01-1.643-1.157l-.58.814zm3.313 2.303c.552.374 1.108.745 1.666 1.114l.55-.835c-.554-.366-1.106-.735-1.655-1.107l-.561.828zm3.351 2.212c.565.363 1.133.724 1.704 1.082l.531-.847a180.5 180.5 0 01-1.694-1.076l-.541.841zm3.427 2.149c.57.348 1.142.693 1.718 1.036l.511-.859c-.572-.341-1.141-.685-1.707-1.031l-.522.854zm3.444 2.052c.578.336 1.16.67 1.744 1.001l.493-.87c-.581-.33-1.16-.662-1.735-.996l-.502.865zm3.507 1.988c.591.327 1.185.651 1.783.973l.474-.881c-.594-.32-1.185-.642-1.773-.967l-.484.875zm3.547 1.913c.589.309 1.181.617 1.776.922l.457-.889c-.592-.304-1.181-.61-1.767-.919l-.466.886zm3.57 1.832c.601.301 1.205.6 1.812.897l.439-.898c-.604-.296-1.205-.593-1.803-.893l-.448.894zm3.643 1.781c.599.286 1.201.57 1.806.852l.422-.906c-.602-.281-1.201-.564-1.798-.848l-.43.902zm3.621 1.688c.608.277 1.219.552 1.833.825l.407-.914c-.612-.272-1.22-.545-1.825-.821l-.415.91zm3.684 1.638c.62.269 1.243.536 1.868.802l.391-.921c-.623-.264-1.243-.53-1.861-.798l-.398.917zm3.715 1.576c.612.254 1.228.506 1.846.756l.375-.927c-.616-.249-1.228-.5-1.838-.753l-.383.924zm3.709 1.502c.623.247 1.25.493 1.879.736l.361-.932c-.627-.243-1.251-.487-1.872-.733l-.368.929zm3.776 1.463c.627.237 1.257.472 1.889.707l.347-.938a295.03 295.03 0 01-1.882-.705l-.354.936zm3.757 1.39c.625.227 1.253.452 1.884.675l.334-.942a293.77 293.77 0 01-1.877-.673l-.341.94zm3.785 1.341c.636.221 1.275.44 1.916.658l.321-.947c-.639-.217-1.276-.436-1.91-.656l-.327.945zm3.849 1.306c.627.208 1.256.415 1.888.62l.309-.951a378.01 378.01 0 01-1.882-.618l-.315.949zm3.786 1.231c.635.202 1.273.403 1.913.602l.298-.954c-.639-.199-1.275-.4-1.908-.601l-.303.953zm3.842 1.197c.646.197 1.294.393 1.945.588l.286-.958c-.649-.194-1.295-.389-1.939-.586l-.292.956zm3.887 1.163c.632.185 1.268.369 1.905.552l.276-.961c-.636-.182-1.269-.366-1.9-.551l-.281.96zm3.825 1.098c.643.181 1.288.361 1.935.54l.266-.964c-.645-.178-1.289-.358-1.93-.538l-.271.962zm3.885 1.073c.652.176 1.307.351 1.964.526l.257-.967c-.656-.174-1.309-.349-1.96-.525l-.261.966zm3.916 1.039c.638.166 1.278.331 1.921.495l.248-.969c-.642-.164-1.281-.328-1.918-.494l-.251.968zm3.857.985c.647.162 1.297.323 1.949.483l.239-.971a615.85 615.85 0 01-1.945-.482l-.243.97zm3.912.962c.657.158 1.316.316 1.977.473l.231-.973a642.28 642.28 0 01-1.973-.472l-.235.972zm3.947.935c.642.149 1.286.298 1.932.445l.223-.974c-.645-.148-1.288-.296-1.928-.445l-.227.974zm3.877.886c.65.146 1.303.291 1.957.436l.216-.977c-.654-.144-1.305-.289-1.954-.435l-.219.976zm3.929.867c.659.142 1.32.285 1.984.426l.208-.978c-.662-.141-1.323-.283-1.981-.426l-.211.978zm3.981.848c.645.134 1.291.269 1.939.402l.202-.979-1.936-.402-.205.979zm3.888.8c.652.132 1.306.263 1.962.394l.195-.981-1.958-.393-.199.98zm3.935.783c.66.13 1.323.258 1.987.386l.189-.982c-.663-.127-1.324-.256-1.983-.385l-.193.981zm3.986.768c.658.125 1.319.249 1.981.373l.184-.983c-.662-.123-1.321-.247-1.979-.372l-.186.982zm3.93.734l1.961.358.178-.985c-.655-.118-1.307-.237-1.958-.357l-.181.984zm3.933.712l1.985.351.172-.985c-.662-.117-1.323-.233-1.981-.351l-.176.985zm3.981.698c.667.116 1.336.231 2.008.345l.167-.986-2.005-.344-.17.985zm3.984.679l1.957.326.163-.986a795.4 795.4 0 01-1.954-.326l-.166.986zm3.924.65c.658.107 1.317.214 1.979.32l.159-.987-1.977-.32-.161.987zm3.969.638l2.001.316.154-.988-1.999-.315-.156.987zm4.013.629l1.009.155.152-.988-1.008-.155-.153.988z" fill="#fff"/></svg>