<svg width="498" height="526" fill="none" xmlns="http://www.w3.org/2000/svg"><path d="M230.259 429.204c23.26 29.789 53.324 26.908 90.262 34.881 46.829 10.109 99.441 43.645 122.658 1.733 15.216-27.469-6.896-48.585-8.818-79.93-4.179-68.16-17.225-101.207-28.11-168.623-10.254-63.505 80.302-159.91 28.11-197.5-70.406-50.707-109.95 49.631-189.61 84-44.497 19.199-225.037 7.029-230.339 55.21-2.196 19.962.599 67.671 47.016 101.093s76.545 15.218 125.541 67.624c36.384 38.918 24.413 77.336 43.29 101.512z" fill="url(#paint0_linear)"/><defs><linearGradient id="paint0_linear" x1="329.648" y1="265.559" x2="507.297" y2="83.31" gradientUnits="userSpaceOnUse"><stop stop-color="#fff" stop-opacity=".03"/><stop offset="1" stop-color="#fff" stop-opacity="0"/></linearGradient></defs></svg>