<svg xmlns="http://www.w3.org/2000/svg" width="23" height="28"><path fill="#fff" d="M20.052 7.94A12.101 12.101 0 0123 15.888c0 6.58-5.149 11.915-11.5 11.915S0 22.467 0 15.887C0 9.984 4.146 5.097 9.583 4.15V1.324H8.306a.65.65 0 01-.64-.662.65.65 0 01.64-.662h6.388a.65.65 0 01.64.662.65.65 0 01-.64.662h-1.277v2.823a11.322 11.322 0 015.753 2.88l1.488-1.542a.609.609 0 01.882 0 .663.663 0 010 .914zM12.14 1.325h-1.28v2.682c.213-.013.423-.034.639-.034.216 0 .426.019.639.03zm-.64 3.971c-5.645 0-10.222 4.741-10.222 10.591S5.855 26.478 11.5 26.478c5.646 0 10.222-4.741 10.222-10.591S17.146 5.296 11.5 5.296zm0 13.239c-1.411 0-2.556-1.186-2.556-2.648 0-.496.14-.955.37-1.351l-3.382-3.503a.664.664 0 010-.914.609.609 0 01.882 0l3.382 3.503a2.463 2.463 0 011.304-.383c1.411 0 2.556 1.186 2.556 2.648 0 1.462-1.145 2.648-2.556 2.648zm0-3.972c-.705 0-1.278.593-1.278 1.324 0 .73.573 1.324 1.278 1.324.705 0 1.278-.593 1.278-1.324 0-.73-.573-1.324-1.278-1.324z"/></svg>