<svg width="52" height="56" fill="none" xmlns="http://www.w3.org/2000/svg"><path d="M39.075 23.64c-1.116 0-2.03 1.146-2.03 2.55v4.408c0 .46-.3.844-.671.844-.378 0-.683-.384-.683-.844v-9.505c0-1.411-.905-2.55-2.03-2.55-1.116 0-2.027 1.138-2.027 2.55v7.8c0 .467-.306.844-.674.844-.378 0-.683-.377-.683-.844V3.786c0-1.404-.906-2.548-2.03-2.548-1.122 0-2.028 1.144-2.028 2.548v25.107c0 .467-.304.844-.681.844-.37 0-.674-.377-.674-.844v-21.7c0-1.412-.912-2.55-2.03-2.55-1.122 0-2.028 1.137-2.028 2.55v30.202l-2.745-4.718c-.812-1.567-2.4-2.098-3.562-1.192-1.158.918-1.443 2.93-.642 4.498 0 0 4.422 8.403 6.307 12 1.884 3.602 4.939 6.417 10.65 6.417 9.453 0 10.299-9.166 10.299-11.906V26.19c0-1.404-.913-2.548-2.038-2.548z" stroke="#fff" stroke-width="1.5" stroke-miterlimit="10"/><path fill-rule="evenodd" clip-rule="evenodd" d="M50.896 5.612c.282.532.004 1.332-.559.818-2.115.997-4.328 1.166-6.474 1.892-.371-.271-.215-.654-.25-.998 1.71-.52 3.453-.783 5.158-1.35-2.92-.895-5.95-1.105-8.831-.542-.418.082-.989.268-1.255.22-.089.17-.144.119-.336.203-.386-.158-.527-.69-.426-1.09.68-.19 1.37-.262 2.06-.35.685-.085 1.38-.235 2.08-.177.21-.173.466.06.678-.099.073.13.276-.029.25.167 1.74-.317 3.847.291 5.723.628-1.194-.838-2.922-1.803-4.218-2.872-.226-.244-.182-.968.008-1.05.229-.1 1.051.474 1.43.704 1.717 1.049 3.775 2.225 4.962 3.896zm-50.784 0c-.283.532-.005 1.332.558.818 2.115.997 4.328 1.166 6.474 1.892.372-.271.215-.654.25-.998-1.71-.52-3.453-.783-5.158-1.35 2.92-.895 5.95-1.105 8.832-.542.418.082.989.268 1.255.22.088.17.144.119.336.203.385-.158.527-.69.425-1.09-.679-.19-1.37-.262-2.06-.35-.684-.085-1.38-.235-2.08-.177-.209-.173-.466.06-.678-.099-.072.13-.275-.029-.25.167-1.74-.317-3.847.291-5.722.628 1.193-.838 2.921-1.803 4.217-2.872.226-.244.182-.968-.007-1.05-.23-.1-1.052.474-1.43.704C3.356 2.765 1.298 3.941.112 5.612z" fill="#fff"/></svg>