<svg width="21" height="21" fill="none" xmlns="http://www.w3.org/2000/svg"><path d="M9.77 19.555H3.262a2.278 2.278 0 01-1.596-.656A2.234 2.234 0 011 17.319V3.24a2.23 2.23 0 01.664-1.582c.424-.42.998-.657 1.598-.658h13.963m2.262 2.24v14.07c0 .594-.238 1.164-.662 1.585-.424.42-1 .658-1.6.66h-4.397" stroke="#DF2C2C" stroke-width="1.5" stroke-linecap="round" stroke-linejoin="round"/><path d="M19.511 2.112c.27 0 .489-.216.489-.484a.486.486 0 00-.489-.483.486.486 0 00-.488.483c0 .268.219.484.488.484z" fill="#DF2C2C"/><path d="M9.77 19.554v-6.043H7.62v-2.874h2.15V7.864c0-.77.308-1.508.858-2.053a2.946 2.946 0 012.073-.85h3.044v2.734h-2.228a.725.725 0 00-.67.452.706.706 0 00-.048.278v2.197h2.931v2.903h-2.931v6.029" stroke="#DF2C2C" stroke-width="1.5" stroke-linecap="round" stroke-linejoin="round"/></svg>