<svg width="20" height="20" fill="none" xmlns="http://www.w3.org/2000/svg"><path d="M13.878 1.616c1.19 0 2.332.469 3.174 1.302a4.422 4.422 0 011.315 3.143v7.678a4.42 4.42 0 01-1.315 3.142 4.513 4.513 0 01-3.174 1.302H6.122a4.513 4.513 0 01-3.174-1.302 4.422 4.422 0 01-1.315-3.143V6.062c0-1.179.473-2.31 1.315-3.143a4.513 4.513 0 013.174-1.302h7.756zm0-1.616H6.122A6.172 6.172 0 001.8 1.78 6.049 6.049 0 000 6.062v7.678a6.049 6.049 0 001.799 4.28 6.173 6.173 0 004.323 1.78h7.756a6.172 6.172 0 004.323-1.78A6.048 6.048 0 0020 13.739V6.06a6.048 6.048 0 00-1.799-4.28A6.172 6.172 0 0013.878 0z" fill="#DF2C2C"/><path d="M15.335 3.433c-.232 0-.458.068-.65.195a1.147 1.147 0 00-.177 1.781 1.173 1.173 0 001.274.25 1.15 1.15 0 000-2.14 1.18 1.18 0 00-.447-.086zm-5.28 2.924c.714 0 1.412.209 2.005.601a3.581 3.581 0 011.33 1.604 3.542 3.542 0 01-.782 3.895 3.64 3.64 0 01-3.933.774 3.6 3.6 0 01-1.619-1.317 3.549 3.549 0 01-.607-1.986 3.56 3.56 0 011.058-2.523 3.63 3.63 0 012.548-1.048zm0-1.617a5.277 5.277 0 00-2.909.88A5.201 5.201 0 005.22 7.952a5.143 5.143 0 00-.293 2.998 5.175 5.175 0 001.437 2.655 5.257 5.257 0 002.684 1.417 5.295 5.295 0 003.027-.298 5.23 5.23 0 002.35-1.913 5.154 5.154 0 00-.658-6.555 5.245 5.245 0 00-1.704-1.124 5.285 5.285 0 00-2.008-.392z" fill="#DF2C2C"/></svg>