<svg width="22" height="16" fill="none" xmlns="http://www.w3.org/2000/svg"><path d="M19.525 1H2.475C1.662 1 1 1.696 1 2.552v11.746c0 .855.662 1.552 1.475 1.552h17.05c.813 0 1.475-.697 1.475-1.552V2.552C21 1.696 20.338 1 19.525 1zm-6.303 7.425l6.528-4.664v9.328l-6.528-4.664zm6.303-6.188c.044 0 .09.027.129.067L11 8.487 2.346 2.304c.04-.04.085-.067.13-.067h17.049zM2.25 13.088V3.761l6.527 4.664-6.527 4.663zm.225 1.524c-.044 0-.09-.027-.129-.066l7.5-5.358.789.564c.018.013.04.019.06.03.019.01.037.02.057.028.08.035.163.059.247.059H11s0 0 0 0a.627.627 0 00.305-.087c.02-.011.042-.017.06-.03l.79-.564 7.499 5.358c-.04.04-.085.066-.13.066H2.476z" fill="#DF2C2C" stroke="#DF2C2C" stroke-width=".2"/></svg>