<svg width="22" height="22" fill="none" xmlns="http://www.w3.org/2000/svg"><path d="M20.684 15.019c-.53-.865-1.93-1.247-2.718-1.398-1.437-.275-3.29-.254-4.187.412-.295.22-.443.674-.477 1.472a8.349 8.349 0 00-.007.305 12.992 12.992 0 01-4.135-2.556l-.527-.52A12.73 12.73 0 016.04 8.67c.099 0 .203-.002.31-.007.81-.033 1.27-.178 1.492-.468.674-.88.698-2.697.423-4.107-.152-.782-.54-2.172-1.424-2.697-.88-.523-2.24-.397-2.783-.318-1.122.162-2.055.554-2.497 1.05-.384.43-.52 1.663-.56 2.172a16.655 16.655 0 004.54 11.199l.011.014.803.793c.003.004.007.015.012.018 3.092 2.817 7.115 4.376 11.33 4.483h.006c.011 0 .022-.014.034-.015.516-.04 1.766-.186 2.204-.564.503-.435.902-1.354 1.067-2.46.08-.536.208-1.876-.324-2.744zm-.533 2.619c-.13.869-.443 1.648-.78 1.939-.15.123-.933.28-1.681.34A16.327 16.327 0 016.96 15.68l-.791-.778a15.8 15.8 0 01-4.303-10.56c.06-.735.22-1.504.345-1.653.296-.332 1.088-.64 1.972-.768.927-.134 1.775-.055 2.213.205.422.25.813 1.065 1.02 2.125.27 1.39.16 2.852-.255 3.413-.168.117-.929.18-1.643.137a.435.435 0 00-.422.124.426.426 0 00-.063.517 13.552 13.552 0 002.802 4.701.432.432 0 00.052.067c.128.135.26.268.393.398.133.132.268.261.406.388.02.02.043.036.067.05a13.859 13.859 0 004.774 2.758.432.432 0 00.523-.064l.02-.021.006-.007a.423.423 0 00.097-.389c-.043-.7.02-1.447.138-1.613.575-.412 2.07-.519 3.49-.247 1.069.204 1.89.588 2.143 1 .263.43.342 1.264.207 2.175z" fill="#DF2C2C" stroke="#DF2C2C" stroke-width=".5"/></svg>