<svg width="16" height="20" fill="none" xmlns="http://www.w3.org/2000/svg"><path d="M7.855 16.256a.753.753 0 01-.364-.094 11.43 11.43 0 01-4.297-4.167 11.284 11.284 0 01-1.577-5.991c.04-1.847.737-3.405 2.016-4.503C4.76.533 6.26 0 7.855 0c1.596 0 3.095.533 4.223 1.501 1.28 1.098 1.976 2.655 2.016 4.502a11.283 11.283 0 01-1.578 5.992 11.43 11.43 0 01-4.297 4.167.753.753 0 01-.364.094zm0-14.778c-1.236 0-2.388.404-3.244 1.14-.952.816-1.471 1.998-1.502 3.417v.215a9.813 9.813 0 001.27 4.816 9.933 9.933 0 003.479 3.594 9.932 9.932 0 003.478-3.594 9.813 9.813 0 001.27-4.816c0-.072 0-.144-.003-.215-.03-1.419-.55-2.6-1.502-3.418-.858-.735-2.008-1.14-3.246-1.14z" fill="#DF2C2C"/><path d="M7.87 9.825c-.71 0-1.403-.208-1.993-.599a3.562 3.562 0 01-1.322-1.595 3.523 3.523 0 01.778-3.873 3.62 3.62 0 013.91-.77 3.581 3.581 0 011.611 1.308 3.53 3.53 0 01.605 1.975 3.54 3.54 0 01-1.052 2.512 3.61 3.61 0 01-2.536 1.042zm0-5.63c-.414 0-.82.122-1.164.35a2.08 2.08 0 00-.772.932A2.057 2.057 0 006.39 7.74a2.115 2.115 0 002.284.45c.383-.158.71-.424.94-.766a2.062 2.062 0 00-.261-2.62 2.108 2.108 0 00-1.481-.608zm-.015 15.61c-2.013 0-3.918-.397-5.362-1.118C.884 17.884 0 16.76 0 15.519c0-1.645 1.555-3.066 4.16-3.8a.753.753 0 01.559.073.732.732 0 01.285.995.745.745 0 01-.438.353c-1.868.527-3.075 1.46-3.075 2.38 0 1.33 2.612 2.807 6.362 2.807s6.364-1.478 6.364-2.808c0-.918-1.207-1.852-3.075-2.379a.749.749 0 01-.447-.351.732.732 0 01.288-1.005.754.754 0 01.568-.065c2.604.734 4.159 2.155 4.159 3.8 0 1.241-.885 2.365-2.493 3.168-1.444.72-3.349 1.118-5.362 1.118z" fill="#DF2C2C"/></svg>