<svg width="284" height="240" fill="none" xmlns="http://www.w3.org/2000/svg"><g clip-path="url(#clip0)"><path opacity=".18" d="M95.027 6.901C79.382 15.298 67.996 30.656 62.92 47.666c-2.999 10.066-3.938 20.696-7.354 30.622-9.743 28.257-37.81 46.64-49.778 74.028-6.667 15.246-7.823 33.03-2.199 48.675 5.624 15.645 18.175 28.935 33.82 34.437 9.613 3.39 19.991 3.894 30.152 4.216 19.122.608 38.323.678 57.106-2.712 8.952-1.608 17.766-4.007 26.797-5.05 17.47-2.025 35.306 1.052 52.673-1.738 12.09-1.965 23.546-6.728 34.498-12.221 8.213-4.12 16.297-8.692 23.076-14.95 17.932-16.445 24.572-43.121 19.757-66.971-4.815-23.851-19.991-44.807-39.018-59.974-8.387-6.65-17.514-12.282-26.301-18.383a294.032 294.032 0 01-32.16-25.885C159.834 9.38 128.674-11.134 95.027 6.901z" fill="#DF2C2C"/><path d="M101.573 203.92h66.232l-11.725-42.112h-44.615l-9.892 42.112z" fill="#DF2C2C"/><path d="M101.573 203.92h66.232l-11.725-42.112h-44.615l-9.892 42.112z" fill="url(#paint0_linear)"/><path d="M233.846 49.266v108.648a11.875 11.875 0 01-7.341 10.98 11.89 11.89 0 01-4.549.902H50.378a11.871 11.871 0 01-11.882-11.882V49.266a11.882 11.882 0 0111.882-11.882H221.99a11.88 11.88 0 0111.856 11.882z" fill="#DF2C2C"/><path d="M233.846 49.266v95.245H38.496V49.266a11.9 11.9 0 0111.89-11.891H222a11.892 11.892 0 0111.847 11.89z" fill="#473F47"/><path d="M230.943 51.534v89.796H41.46V51.534A11.473 11.473 0 0152.968 40.13h166.45a11.473 11.473 0 0111.525 11.404z" fill="#fff"/><path opacity=".18" d="M230.943 51.534v89.796H41.46V51.534A11.473 11.473 0 0152.968 40.13H219.41a11.475 11.475 0 0111.534 11.404z" fill="#DF2C2C"/><path d="M229.326 97.992H41.443v44.016h187.883V97.992z" fill="#fff"/><path d="M222.634 83.946h-52.099v52.673h52.099V83.946z" fill="url(#paint1_linear)"/><path d="M230.943 51.534v16.584H41.46V51.534A11.473 11.473 0 0152.968 40.13H219.41a11.475 11.475 0 0111.534 11.404z" fill="#DF2C2C"/><path d="M230.943 51.534v16.584H41.46V51.534A11.473 11.473 0 0152.968 40.13H219.41a11.475 11.475 0 0111.534 11.404z" fill="url(#paint2_linear)"/><path d="M226.163 80.782h-52.1v52.673h52.1V80.782z" fill="#fff"/><path opacity=".18" d="M223.442 84.754h-46.658v45.52h46.658v-45.52z" fill="#DF2C2C"/><path d="M215.124 97.697a4.224 4.224 0 100-8.448 4.224 4.224 0 000 8.448z" fill="#DF2C2C"/><path d="M176.784 110.282l11.421-8.405 14.515 8.405h3.06l-10.526-6.197 8.596-6.562 20.722 12.142v20.609h-47.788v-19.992z" fill="url(#paint3_linear)"/><path d="M234.168 121.008a6.485 6.485 0 013.207 3.068 2.325 2.325 0 01-.165 2.443 2.19 2.19 0 01-1.738.626 7.025 7.025 0 01-2.721-.774c-.765-.339-1.521-.713-2.277-1.078a3.55 3.55 0 01-1.217-.825 3.103 3.103 0 01-.487-2.234c.052-.756.33-2.669 1.33-2.747.676.119 1.33.342 1.938.661.728.241 1.439.528 2.13.86z" fill="#FFBAAA"/><path d="M230.761 119.279a29.982 29.982 0 01-.305 6.883 14.538 14.538 0 01-5.215-2.564 10.362 10.362 0 01-1.982-1.59 6.38 6.38 0 01-1.382-3.077c-.304-1.739-1.851-5.98.305-4.955 2.155 1.026 6.397 4.112 8.579 5.303z" fill="#DF2C2C"/><path d="M214.724 175.063a44.363 44.363 0 004.85 6.397 99.102 99.102 0 008.883 8.197c1.539 1.321 3.077 2.659 4.555 4.059 1.225 1.156 2.79 1.955 3.094 3.763.183 1.061 0 2.338.8 3.06a1.98 1.98 0 002.155.122 4.572 4.572 0 001.608-1.6c.176-.235.309-.5.391-.782a2.048 2.048 0 000-.947c-.33-1.487-1.477-2.608-2.485-3.755a24.571 24.571 0 01-2.426-3.26 18.475 18.475 0 00-2.103-2.486l-5.893-6.64c-2.121-2.39-4.294-4.868-5.215-7.901a12.732 12.732 0 00-1.252-3.416c-1.512-2.208-5.041-2.538-7.353-1.495-2.929 1.304-.782 4.876.391 6.684z" fill="#FFBAAA"/><path d="M226.893 170.7s1.529 13.35 0 20.573a57.356 57.356 0 00-1.191 13.525 1.68 1.68 0 01-.722 2.199 4.747 4.747 0 01-2.485.539l-3.477.13a1.414 1.414 0 01-1.165-.304c-.452-.495 0-1.33.617-1.625.617-.296 1.33-.313 1.912-.67 1.096-.66 1.235-2.164 1.261-3.476l.087-5.598c.13-8.04.26-16.123-.965-24.068a2.591 2.591 0 010-1.095c.174-.661.817-1.069 1.408-1.417a5.776 5.776 0 012.112-.869 1.98 1.98 0 011.991.869m-18.436-47.901a.982.982 0 00-.365-.217c-.782-.226-2.356.869-3.051 1.165a16.657 16.657 0 01-7.188 1.391 32.078 32.078 0 01-6.588-1.522c-2.764-.773-5.589-1.277-8.31-2.173a16.61 16.61 0 01-7.292-4.345c-.452.321-.131 1.208-.609 1.486s-.869-.278-1.382-.322c-1.842-.156-.686 4.529-.408 5.302.045.181.138.346.269.478.163.115.35.19.548.218 6.571 1.39 12.333 5.467 18.913 6.84 3.274.664 6.65.649 9.918-.043a19.127 19.127 0 008.639-4.007c.218-.174.461-.461.313-.696a.581.581 0 00-.321-.226 4.95 4.95 0 01-2.017-1.39c-.417-.539-.591-1.487-1.069-1.939zm5.007-13.307a2.52 2.52 0 001.877 1.278.87.87 0 01.574.122.715.715 0 01.139.599l-.209 2.608c-.038.212-.008.432.087.626.159.19.381.316.626.356.956.261 2.138.461 2.807-.261.32-.42.51-.925.548-1.451.513-3.008.999-6.085.539-9.092-.278-1.825-1.008-3.737-2.608-4.694-1.816-1.095-6.501-1.434-6.301 1.626.196 1.226.326 2.462.391 3.703a7.458 7.458 0 001.53 4.58z" fill="#FFBAAA"/><path d="M210.83 97.47c-.113.453-.191.93-.287 1.4l-.113.6a.365.365 0 000 .191.292.292 0 00.191.122l1.634.539a.521.521 0 00.357 0 .529.529 0 00.217-.174l.678-.774.078.783a.278.278 0 00.07.182.255.255 0 00.139.061l3.077.721.191-.452a25.95 25.95 0 01-.104 9.049 12.94 12.94 0 007.596-.087c.341-.087.658-.247.931-.47.309-.321.525-.721.625-1.156a14.068 14.068 0 00-1.356-11.3 5.6 5.6 0 00-4.745-3.102 12.935 12.935 0 00-5.937.4 5.372 5.372 0 00-2.364 1.555 4.459 4.459 0 00-.878 1.913z" fill="#FB682D"/><path d="M213.855 140.765c.2 6.528-2.173 12.664-3.955 18.94-.782 2.729-1.651 5.536-1.365 8.352a2.13 2.13 0 000 .226c8.605 2.478 18.045 3.712 26.372.409a71.044 71.044 0 01-1.409-13.36 24.369 24.369 0 00-.365-5.284c-.669-2.964-2.607-5.485-4.589-7.823a8.271 8.271 0 01-1.86-2.807 7.678 7.678 0 01-.113-3.086c.361-3.369.439-6.762.235-10.143a24.542 24.542 0 00-2.33-8.831 12.046 12.046 0 00-2.303-3.416 5.919 5.919 0 00-3.651-1.739 3.934 3.934 0 00-3.572 1.661c-2.095 3.233-5.589 3.954-8.127 6.849a1 1 0 00-.287.53c.008.218.084.428.218.6l2.685 4.259c.27.456.584.884.939 1.277.322.331.704.6 1.017.93a6.838 6.838 0 011.469 3.573 57.38 57.38 0 01.991 8.883zm2.607 65.754l.87-.278a8.084 8.084 0 012.155-.478.667.667 0 01.374.052c.147.094.262.23.33.391.116.248.292.464.513.626a1.738 1.738 0 001.46 0 6.613 6.613 0 001.469-.53c.461-.261.869-.617 1.321-.87a.962.962 0 01.87-.069c.139.082.258.195.347.33.188.208.332.45.426.713a2.19 2.19 0 010 .791 1.378 1.378 0 01-.2.669 1.37 1.37 0 01-1.095.4l-4.242.269c-1.329.087-2.668.166-3.998.148a8.689 8.689 0 01-2.173-.234c-.095 0-.208-.061-.243-.166a.325.325 0 010-.2 3.68 3.68 0 012.286-1.738m23.233-10.604c-.113.426 0 .869-.104 1.321a2.61 2.61 0 01-.539.869l-1.034 1.278c-.112.156-.25.292-.409.4a1.729 1.729 0 01-1.391-.044.45.45 0 00-.391 0 .51.51 0 00-.13.244l-.591 2.06a10.096 10.096 0 00-.4 2.607c.082.106.19.19.313.244.947.478 2.555-1.652 3.355-2.338a7.115 7.115 0 001.738-2.651c.226-.522.444-1.043.644-1.574a4.83 4.83 0 00.478-1.529.787.787 0 00-.426-.713c-.261-.104-.982-.635-1.113-.174z" fill="#DF2C2C"/><path d="M208.509 168.057a4.527 4.527 0 003.781-.373c1.973-1.235 2.756-3.703 3.121-5.989.782-5.033.321-10.5 2.964-14.837.808-1.321 1.938-2.66 1.738-4.207-.2-1.547-1.677-2.712-2.547-4.085a11.125 11.125 0 01-1.295-5.111c-.304-3.32-.591-6.649-.869-9.97 0 .87-3.677 2.608-5.015 3.903.321.33.704.6 1.017.93a6.835 6.835 0 011.469 3.573c.548 2.928.868 5.895.956 8.874.2 6.528-2.173 12.664-3.955 18.94-.782 2.711-1.651 5.536-1.365 8.352z" fill="url(#paint4_linear)"/><path d="M79.948 68.24A12.117 12.117 0 1167.83 56.124 12.08 12.08 0 0179.948 68.24z" fill="#fff"/><path d="M76.593 76.61a12.116 12.116 0 01-15.698 1.565l.591-2.138a3.537 3.537 0 013.399-2.608h1.364l5.094.096a5.702 5.702 0 014.05 1.738l1.2 1.347z" fill="#DF2C2C"/><path d="M62.816 71.421l9.179-.408s.869-7.728-2.53-9.344c-3.146-1.512-5.632-.191-6.362 2.503-.73 2.695-.287 7.25-.287 7.25z" fill="#FB682D"/><path d="M66.25 71.152v2.338a3.48 3.48 0 000 .67 2.172 2.172 0 001.208 1.285c.209.124.444.199.686.218a.782.782 0 00.66-.252c.117-.168.192-.362.218-.565a2.83 2.83 0 00.165-1.408c-.139-.392-.217-.817-.33-1.226l-.409-1.556-2.199.496z" fill="#FFBAAA"/><path d="M66.319 71.969s.87 1.808 1.86 1.608c.99-.2.6-1.739.6-1.739l-2.46.13z" fill="url(#paint5_linear)"/><path d="M70.195 69.5c-.134.677-.4 1.32-.782 1.895a2.303 2.303 0 01-1.738 1.008 2.364 2.364 0 01-1.373-.434c-1.548-.991-2.2-2.947-2.304-4.79a4.946 4.946 0 011.287-4.033 3.546 3.546 0 014.928.609c1.026 1.486.374 4.172-.017 5.745z" fill="#FFBAAA"/><path d="M64.007 64.38l-.235 2.608h.87l.338-1.634.192 1.634h1.608l.139-1.677.226 1.512h1.677V65.25l.47 1.634h1.564s.921-3.06-1.182-4.137c-2.103-1.078-4.998-.609-5.667 1.634z" fill="#FB682D"/><path d="M88.257 86.223H52.881a.913.913 0 00-.912.913v.13c0 .504.408.913.912.913h35.376a.913.913 0 00.913-.913v-.13a.913.913 0 00-.913-.913zm-11.664 4.72H52.716a.747.747 0 00-.747.748v.46c0 .413.334.748.747.748h23.877a.747.747 0 00.747-.748v-.46a.747.747 0 00-.747-.748zm29.039 0H82.486a.739.739 0 00-.739.739v.478c0 .408.33.739.739.739h23.146a.74.74 0 00.739-.739v-.478a.739.739 0 00-.739-.739zm26.832 0h-23.146a.739.739 0 00-.739.739v.478a.74.74 0 00.739.739h23.146a.74.74 0 00.739-.739v-.478a.739.739 0 00-.739-.739z" fill="#DF2C2C"/><path opacity=".18" d="M147.84 107.119H84.433v8.996h63.407v-8.996zm0 15.741H84.433v8.996h63.407v-8.996z" fill="#DF2C2C"/></g><defs><linearGradient id="paint0_linear" x1="138.505" y1="152.508" x2="131.386" y2="248.457" gradientUnits="userSpaceOnUse"><stop offset=".01"/><stop offset=".08" stop-opacity=".69"/><stop offset=".21" stop-opacity=".32"/><stop offset="1" stop-opacity="0"/></linearGradient><linearGradient id="paint1_linear" x1="362.216" y1="27.805" x2="1" y2="207.675" gradientUnits="userSpaceOnUse"><stop offset=".01"/><stop offset=".13" stop-opacity=".69"/><stop offset=".25" stop-opacity=".32"/><stop offset="1" stop-opacity="0"/></linearGradient><linearGradient id="paint2_linear" x1="38525.4" y1="1804.21" x2="38490.4" y2="6512.5" gradientUnits="userSpaceOnUse"><stop offset=".01"/><stop offset=".13" stop-opacity=".69"/><stop offset=".25" stop-opacity=".32"/><stop offset="1" stop-opacity="0"/></linearGradient><linearGradient id="paint3_linear" x1="10387.1" y1="6614.97" x2="11448.6" y2="1161.25" gradientUnits="userSpaceOnUse"><stop offset=".01"/><stop offset=".13" stop-opacity=".69"/><stop offset=".25" stop-opacity=".32"/><stop offset="1" stop-opacity="0"/></linearGradient><linearGradient id="paint4_linear" x1="-2771.44" y1="9017.49" x2="-4485.62" y2="9116.2" gradientUnits="userSpaceOnUse"><stop offset=".01"/><stop offset=".13" stop-opacity=".69"/><stop offset=".25" stop-opacity=".32"/><stop offset="1" stop-opacity="0"/></linearGradient><linearGradient id="paint5_linear" x1="370.427" y1="284.47" x2="377.789" y2="312.497" gradientUnits="userSpaceOnUse"><stop offset=".01"/><stop offset=".13" stop-opacity=".69"/><stop offset=".25" stop-opacity=".32"/><stop offset="1" stop-opacity="0"/></linearGradient><clipPath id="clip0"><path fill="#fff" d="M0 0h283.025v240H0z"/></clipPath></defs></svg>