<svg xmlns="http://www.w3.org/2000/svg" width="283" height="240"><defs><linearGradient id="a" x1="138.5" x2="131.38" y1="152.51" y2="248.45" gradientUnits="userSpaceOnUse"><stop offset=".01"/><stop offset=".08" stop-opacity=".69"/><stop offset=".21" stop-opacity=".32"/><stop offset="1" stop-opacity="0"/></linearGradient><linearGradient id="b" x1="362.22" x2=".99" y1="27.81" y2="207.67" gradientUnits="userSpaceOnUse"><stop offset=".01"/><stop offset=".13" stop-opacity=".69"/><stop offset=".25" stop-opacity=".32"/><stop offset="1" stop-opacity="0"/></linearGradient><linearGradient id="c" x1="38524.85" x2="36925.64" y1="1804.34" y2="6501.34" gradientUnits="userSpaceOnUse"><stop offset=".01"/><stop offset=".13" stop-opacity=".69"/><stop offset=".25" stop-opacity=".32"/><stop offset="1" stop-opacity="0"/></linearGradient><linearGradient id="d" x1="10387.59" x2="12558.21" y1="6614.77" y2="1377.06" gradientUnits="userSpaceOnUse"><stop offset=".01"/><stop offset=".13" stop-opacity=".69"/><stop offset=".25" stop-opacity=".32"/><stop offset="1" stop-opacity="0"/></linearGradient><linearGradient id="e" x1="-2770.68" x2="-4410.08" y1="9017.12" y2="10406.99" gradientUnits="userSpaceOnUse"><stop offset=".01"/><stop offset=".13" stop-opacity=".69"/><stop offset=".25" stop-opacity=".32"/><stop offset="1" stop-opacity="0"/></linearGradient><linearGradient id="f" x1="370.92" x2="385.32" y1="284.01" y2="310.14" gradientUnits="userSpaceOnUse"><stop offset=".01"/><stop offset=".13" stop-opacity=".69"/><stop offset=".25" stop-opacity=".32"/><stop offset="1" stop-opacity="0"/></linearGradient></defs><path fill="#df2c2c" d="M95.023 6.9c-15.645 8.397-27.031 23.755-32.107 40.765-3 10.066-3.938 20.696-7.354 30.622-9.743 28.257-37.81 46.641-49.778 74.029-6.667 15.245-7.823 33.029-2.2 48.674 5.624 15.646 18.176 28.935 33.82 34.437 9.614 3.39 19.992 3.894 30.153 4.216 19.122.608 38.322.678 57.106-2.712 8.952-1.608 17.766-4.007 26.797-5.05 17.47-2.025 35.306 1.052 52.672-1.738 12.091-1.965 23.547-6.728 34.498-12.221 8.214-4.12 16.298-8.692 23.077-14.95 17.932-16.445 24.572-43.121 19.757-66.971-4.815-23.851-19.991-44.807-39.018-59.974-8.388-6.65-17.514-12.282-26.301-18.383a293.925 293.925 0 01-32.16-25.885C159.83 9.378 128.67-11.135 95.023 6.901z" opacity=".18"/><path fill="#df2c2c" d="M101.57 203.922h66.232l-11.725-42.112H111.46z"/><path fill="url(#a)" d="M101.57 203.922h66.232l-11.725-42.112H111.46z"/><path fill="#df2c2c" d="M233.85 49.262V157.91a11.894 11.894 0 01-3.483 8.405 11.9 11.9 0 01-8.408 3.477H50.382A11.87 11.87 0 0138.5 157.91V49.262A11.882 11.882 0 0150.382 37.38h171.612a11.882 11.882 0 0111.856 11.882z"/><path fill="#473f47" d="M233.85 49.27v95.246H38.5V49.271A11.9 11.9 0 0150.39 37.38h171.613a11.892 11.892 0 0111.847 11.89z"/><path fill="#fff" d="M230.943 51.534v89.796H41.46V51.534A11.473 11.473 0 0152.968 40.13h166.449a11.473 11.473 0 0111.526 11.404z"/><path fill="#df2c2c" d="M230.943 51.534v89.796H41.46V51.534A11.473 11.473 0 0152.968 40.13h166.441a11.471 11.471 0 0111.534 11.404z" opacity=".18"/><path fill="#fff" d="M229.324 97.99H41.44v44.016h187.884z"/><path fill="url(#b)" d="M222.63 83.95h-52.1v52.673h52.1z"/><path fill="#df2c2c" d="M230.943 51.534v16.584H41.46V51.534A11.473 11.473 0 0152.968 40.13h166.441a11.471 11.471 0 0111.534 11.404z"/><path fill="url(#c)" d="M230.943 51.534v16.584H41.46V51.534A11.473 11.473 0 0152.968 40.13h166.441a11.471 11.471 0 0111.534 11.404z"/><path fill="#fff" d="M226.16 80.78h-52.1v52.673h52.1z"/><path fill="#df2c2c" d="M223.438 84.75H176.78v45.52h46.658z" opacity=".18"/><path fill="#df2c2c" d="M215.124 97.698a4.224 4.224 0 100-8.448 4.224 4.224 0 000 8.448z"/><path fill="url(#d)" d="M176.78 110.28l11.421-8.405 14.516 8.405h3.06l-10.527-6.198 8.596-6.562 20.722 12.143v20.608H176.78z"/><path fill="#ffbaaa" d="M234.169 121.011a6.484 6.484 0 013.207 3.068 2.32 2.32 0 01-.165 2.443 2.19 2.19 0 01-1.739.626 7.032 7.032 0 01-2.72-.774c-.765-.339-1.521-.713-2.277-1.078a3.555 3.555 0 01-1.217-.826 3.103 3.103 0 01-.487-2.233c.052-.757.33-2.669 1.33-2.747a6.65 6.65 0 011.938.66c.728.242 1.439.53 2.13.861z"/><path fill="#df2c2c" d="M230.765 119.28a29.935 29.935 0 01-.304 6.884 14.55 14.55 0 01-5.215-2.564 10.338 10.338 0 01-1.982-1.59 6.371 6.371 0 01-1.382-3.078c-.304-1.738-1.852-5.98.304-4.954 2.156 1.025 6.397 4.111 8.579 5.302z"/><path fill="#ffbaaa" d="M214.724 175.063a44.388 44.388 0 004.85 6.397 99.1 99.1 0 008.883 8.197c1.539 1.32 3.077 2.66 4.555 4.059 1.225 1.156 2.79 1.955 3.094 3.763.183 1.06 0 2.339.8 3.06a1.973 1.973 0 002.155.122 4.572 4.572 0 001.608-1.6c.177-.235.31-.5.391-.782a2.052 2.052 0 000-.947c-.33-1.487-1.477-2.608-2.485-3.755a24.572 24.572 0 01-2.425-3.26 18.5 18.5 0 00-2.104-2.485l-5.893-6.641c-2.12-2.39-4.294-4.868-5.215-7.901a12.75 12.75 0 00-1.252-3.416c-1.512-2.208-5.04-2.538-7.353-1.495-2.93 1.304-.782 4.876.391 6.684z"/><path fill="#ffbaaa" d="M226.893 170.704s1.53 13.35 0 20.573a57.367 57.367 0 00-1.19 13.525 1.677 1.677 0 01-.722 2.199 4.746 4.746 0 01-2.486.539l-3.477.13a1.427 1.427 0 01-1.165-.304c-.452-.496 0-1.33.617-1.626.618-.295 1.33-.312 1.913-.669 1.095-.66 1.234-2.164 1.26-3.476l.087-5.598c.13-8.04.26-16.124-.965-24.068a2.608 2.608 0 010-1.095c.174-.66.817-1.07 1.408-1.417a5.78 5.78 0 012.112-.869 1.982 1.982 0 011.99.87m-18.438-47.906a.974.974 0 00-.365-.217c-.782-.226-2.356.869-3.05 1.164a16.654 16.654 0 01-7.19 1.391 32.049 32.049 0 01-6.588-1.521c-2.764-.774-5.588-1.278-8.309-2.173a16.619 16.619 0 01-7.292-4.346c-.452.322-.13 1.208-.609 1.486-.478.278-.87-.278-1.382-.321-1.843-.157-.687 4.528-.408 5.302.045.18.138.345.269.478.163.115.35.19.548.217 6.57 1.39 12.333 5.467 18.913 6.84 3.274.664 6.65.65 9.918-.043a19.123 19.123 0 008.64-4.007c.217-.174.46-.46.312-.695a.574.574 0 00-.321-.226 4.954 4.954 0 01-2.017-1.39c-.417-.54-.591-1.487-1.069-1.94zm5.01-13.309a2.529 2.529 0 001.878 1.277.87.87 0 01.573.122.713.713 0 01.14.6l-.21 2.607c-.038.213-.007.432.088.626.159.19.38.317.625.357.957.26 2.139.46 2.808-.261.32-.42.51-.925.547-1.452.513-3.007 1-6.084.54-9.091-.279-1.826-1.009-3.738-2.608-4.694-1.817-1.095-6.502-1.434-6.302 1.625a34.87 34.87 0 01.391 3.703 7.458 7.458 0 001.53 4.58z"/><path fill="#fb682d" d="M210.833 97.473c-.113.452-.191.93-.287 1.4l-.113.6a.356.356 0 000 .19.295.295 0 00.191.122l1.634.54a.513.513 0 00.357 0 .521.521 0 00.217-.175l.678-.773.078.782c0 .067.025.132.07.183a.252.252 0 00.139.06l3.077.722.191-.452c.495 2.999.46 6.061-.104 9.048 2.484.732 5.13.702 7.596-.087.34-.087.658-.247.93-.47.31-.32.526-.72.626-1.155a14.071 14.071 0 00-1.356-11.3 5.606 5.606 0 00-4.745-3.103 12.933 12.933 0 00-5.937.4 5.372 5.372 0 00-2.364 1.556 4.45 4.45 0 00-.878 1.912z"/><path fill="#df2c2c" d="M213.859 140.767c.2 6.528-2.173 12.664-3.955 18.94-.782 2.729-1.652 5.536-1.365 8.352a2.13 2.13 0 000 .226c8.605 2.478 18.044 3.712 26.371.409a71.053 71.053 0 01-1.408-13.36 24.43 24.43 0 00-.365-5.284c-.67-2.964-2.607-5.485-4.59-7.823a8.257 8.257 0 01-1.86-2.807 7.674 7.674 0 01-.112-3.086c.36-3.369.439-6.762.234-10.143a24.546 24.546 0 00-2.329-8.831 12.062 12.062 0 00-2.303-3.416 5.92 5.92 0 00-3.65-1.738 3.937 3.937 0 00-3.573 1.66c-2.095 3.233-5.59 3.954-8.127 6.849a1 1 0 00-.287.53c.007.218.083.428.217.6l2.686 4.259c.27.456.584.884.939 1.278.321.33.704.6 1.017.93a6.832 6.832 0 011.469 3.572c.56 2.93.892 5.9.99 8.883zm2.603 65.753l.87-.279a8.127 8.127 0 012.155-.478.678.678 0 01.374.052.87.87 0 01.33.391c.116.249.292.464.513.626a1.738 1.738 0 001.46 0 6.58 6.58 0 001.469-.53c.46-.26.869-.617 1.321-.87a.956.956 0 01.87-.069c.139.082.258.195.347.33.187.208.332.45.426.713a2.2 2.2 0 010 .791 1.373 1.373 0 01-.2.67 1.38 1.38 0 01-1.095.4l-4.242.269c-1.33.087-2.668.165-3.998.147a8.692 8.692 0 01-2.173-.234c-.096 0-.209-.061-.244-.165a.33.33 0 010-.2 3.677 3.677 0 012.286-1.739m23.239-10.6c-.114.426 0 .87-.105 1.322-.12.322-.304.617-.54.869l-1.033 1.277a1.62 1.62 0 01-.409.4 1.738 1.738 0 01-1.39-.043.443.443 0 00-.392 0 .513.513 0 00-.13.243l-.591 2.06a10.091 10.091 0 00-.4 2.608.8.8 0 00.313.243c.947.478 2.555-1.651 3.355-2.338a7.119 7.119 0 001.738-2.651 35.55 35.55 0 00.644-1.573c.243-.48.405-.997.478-1.53a.782.782 0 00-.426-.713c-.261-.104-.983-.634-1.113-.174z"/><path fill="url(#e)" d="M208.506 168.062a4.538 4.538 0 003.781-.374c1.973-1.234 2.755-3.703 3.12-5.988.783-5.033.322-10.5 2.964-14.838.809-1.32 1.939-2.66 1.739-4.206-.2-1.548-1.678-2.712-2.547-4.086a11.117 11.117 0 01-1.295-5.11c-.304-3.32-.591-6.65-.87-9.97 0 .87-3.676 2.608-5.015 3.903.322.33.705.6 1.017.93a6.832 6.832 0 011.47 3.572c.548 2.929.868 5.896.955 8.874.2 6.528-2.173 12.665-3.954 18.94-.783 2.712-1.652 5.537-1.365 8.353z"/><path fill="#fff" d="M79.943 68.237A12.117 12.117 0 1167.826 56.12a12.082 12.082 0 0112.117 12.116z"/><path fill="#df2c2c" d="M76.597 76.611A12.116 12.116 0 0160.9 78.176l.591-2.138a3.537 3.537 0 013.399-2.608h1.364l5.094.096a5.702 5.702 0 014.05 1.738z"/><path fill="#fb682d" d="M62.813 71.419l9.179-.409s.87-7.727-2.53-9.343c-3.146-1.513-5.632-.192-6.362 2.503-.73 2.694-.287 7.249-.287 7.249z"/><path fill="#ffbaaa" d="M66.246 71.155v2.339a3.477 3.477 0 000 .669 2.173 2.173 0 001.208 1.286c.21.124.444.199.687.218a.782.782 0 00.66-.253c.117-.168.192-.362.218-.565.174-.447.23-.932.165-1.408-.14-.39-.217-.817-.33-1.225l-.409-1.556z"/><path fill="url(#f)" d="M66.32 71.97s.87 1.808 1.86 1.608c.99-.2.6-1.738.6-1.738z"/><path fill="#ffbaaa" d="M70.191 69.503c-.134.676-.4 1.32-.782 1.895a2.303 2.303 0 01-1.738 1.008 2.364 2.364 0 01-1.374-.435c-1.547-.99-2.199-2.946-2.303-4.789a4.946 4.946 0 011.286-4.033 3.546 3.546 0 014.929.608c1.025 1.487.373 4.173-.018 5.746z"/><path fill="#fb682d" d="M64.005 64.378l-.235 2.608h.87l.338-1.635.191 1.635h1.608l.14-1.678.225 1.512h1.678v-1.573l.47 1.634h1.564s.921-3.06-1.182-4.137c-2.104-1.078-4.998-.609-5.667 1.634z"/><path fill="#df2c2c" d="M88.259 86.22H52.883a.913.913 0 00-.913.913v.13c0 .504.409.913.913.913h35.376a.913.913 0 00.912-.913v-.13a.913.913 0 00-.912-.913zm-11.665 4.72H52.718a.748.748 0 00-.748.748v.46c0 .413.335.748.748.748h23.876a.748.748 0 00.748-.748v-.46a.748.748 0 00-.748-.748zm29.041 0H82.49a.739.739 0 00-.739.739v.478c0 .408.33.739.739.739h23.146a.74.74 0 00.74-.74v-.477a.739.739 0 00-.74-.739zm26.83 0H109.32a.739.739 0 00-.739.739v.478c0 .408.33.739.739.739h23.146a.74.74 0 00.74-.74v-.477a.739.739 0 00-.74-.739z"/><path fill="#df2c2c" d="M147.837 107.12H84.43v8.996h63.407zm0 15.74H84.43v8.996h63.407z" opacity=".18"/></svg>