<svg width="324" height="274" fill="none" xmlns="http://www.w3.org/2000/svg"><g clip-path="url(#clip0)"><path d="M108.491 7.879c-17.862 9.586-30.862 27.12-36.657 46.54-3.423 11.491-4.495 23.627-8.395 34.96-11.124 32.26-43.166 53.247-56.83 84.516-7.611 17.405-8.931 37.708-2.51 55.57 6.42 17.861 20.749 33.034 38.61 39.315 10.976 3.87 22.824 4.446 34.424 4.813 21.831.695 43.752.774 65.196-3.096 10.221-1.836 20.283-4.574 30.593-5.765 19.946-2.312 40.308 1.2 60.135-1.985 13.803-2.243 26.882-7.681 39.385-13.952 9.377-4.704 18.606-9.923 26.346-17.068 20.472-18.775 28.053-49.229 22.556-76.458-5.498-27.23-22.824-51.155-44.546-68.47-9.576-7.592-19.995-14.022-30.027-20.988a335.669 335.669 0 01-36.716-29.552c-27.577-25.552-63.152-48.97-101.564-28.38z" fill="#E5E5E5"/><path d="M115.963 232.809h75.615l-13.387-48.078h-50.936l-11.292 48.078z" fill="#DF2C2C"/><path d="M115.963 232.809h75.615l-13.387-48.078h-50.936l-11.292 48.078z" fill="url(#paint0_linear)"/><path d="M266.974 56.245v124.04a13.577 13.577 0 01-3.976 9.596 13.585 13.585 0 01-9.599 3.969H57.515a13.547 13.547 0 01-9.595-3.97 13.559 13.559 0 01-3.97-9.595V56.245A13.565 13.565 0 0157.515 42.68h195.924a13.566 13.566 0 0113.535 13.565z" fill="#DF2C2C"/><path d="M266.974 56.245v108.738H43.95V56.245A13.585 13.585 0 0157.525 42.67h195.924a13.574 13.574 0 0113.525 13.575z" fill="#473F47"/><path d="M263.66 58.835v102.517H47.334V58.835a13.099 13.099 0 0113.138-13.02h190.03a13.098 13.098 0 0113.158 13.02z" fill="#fff"/><path opacity=".18" d="M263.66 58.835v102.517H47.334V58.835a13.099 13.099 0 0113.138-13.02h190.02a13.099 13.099 0 0113.168 13.02z" fill="#DF2C2C"/><path d="M261.814 111.874h-214.5v50.252h214.5v-50.252z" fill="#fff"/><path d="M254.173 95.838h-59.479v60.135h59.479V95.838z" fill="url(#paint1_linear)"/><path d="M263.66 58.835v18.933H47.334V58.835a13.099 13.099 0 0113.138-13.02h190.02a13.099 13.099 0 0113.168 13.02z" fill="#DF2C2C"/><path d="M263.66 58.835v18.933H47.334V58.835a13.099 13.099 0 0113.138-13.02h190.02a13.099 13.099 0 0113.168 13.02z" fill="url(#paint2_linear)"/><path d="M258.202 92.226h-59.48v60.135h59.48V92.226z" fill="#fff"/><path opacity=".18" d="M255.096 96.761h-53.268v51.968h53.268V96.761z" fill="#DF2C2C"/><path d="M245.6 111.537a4.822 4.822 0 100-9.645 4.822 4.822 0 000 9.645z" fill="#DF2C2C"/><path d="M201.828 125.906l13.04-9.596 16.571 9.596h3.493l-12.017-7.075 9.814-7.492 23.657 13.862v23.528h-54.558v-22.823z" fill="url(#paint3_linear)"/><path d="M267.342 138.151a7.404 7.404 0 013.661 3.503 2.645 2.645 0 01-.188 2.788 2.492 2.492 0 01-1.985.715 8.044 8.044 0 01-3.106-.883c-.873-.387-1.737-.814-2.6-1.231a4.06 4.06 0 01-1.389-.942 3.546 3.546 0 01-.556-2.551c.06-.863.377-3.046 1.518-3.135.773.135 1.519.39 2.213.754.831.275 1.643.603 2.432.982z" fill="#FFBAAA"/><path d="M263.452 136.176c.187 2.625.07 5.262-.348 7.86a16.63 16.63 0 01-5.954-2.928 11.783 11.783 0 01-2.262-1.816 7.274 7.274 0 01-1.578-3.513c-.347-1.984-2.114-6.827.347-5.656 2.461 1.171 7.304 4.694 9.795 6.053z" fill="#DF2C2C"/><path d="M245.143 199.864a50.786 50.786 0 005.537 7.303 113.075 113.075 0 0010.142 9.358c1.756 1.508 3.513 3.036 5.2 4.634 1.399 1.32 3.185 2.233 3.532 4.297.209 1.21 0 2.669.913 3.493.353.259.773.411 1.21.436.437.024.872-.079 1.251-.297a5.221 5.221 0 001.836-1.826c.201-.269.352-.571.447-.893a2.354 2.354 0 000-1.082c-.378-1.697-1.687-2.977-2.838-4.287a28.082 28.082 0 01-2.769-3.721 21.128 21.128 0 00-2.401-2.838l-6.728-7.581c-2.422-2.729-4.902-5.557-5.954-9.021a14.593 14.593 0 00-1.429-3.9c-1.727-2.52-5.756-2.897-8.395-1.706-3.344 1.488-.893 5.567.446 7.631z" fill="#FFBAAA"/><path d="M259.036 194.882s1.746 15.242 0 23.488a65.517 65.517 0 00-1.36 15.441 1.914 1.914 0 01-.823 2.511 5.424 5.424 0 01-2.838.615l-3.97.149a1.636 1.636 0 01-1.329-.348c-.516-.565 0-1.518.704-1.855.705-.338 1.518-.358 2.183-.764 1.251-.755 1.409-2.471 1.439-3.97l.099-6.39c.149-9.179.298-18.408-1.101-27.478a2.96 2.96 0 010-1.25c.198-.754.933-1.221 1.607-1.617a6.6 6.6 0 012.412-.993 2.262 2.262 0 012.272.993m-21.047-54.687a1.1 1.1 0 00-.417-.248c-.893-.258-2.689.992-3.483 1.329a19.005 19.005 0 01-8.206 1.588 36.55 36.55 0 01-7.522-1.737c-3.156-.883-6.381-1.458-9.487-2.48a18.977 18.977 0 01-8.325-4.962c-.516.367-.149 1.379-.695 1.697-.546.317-.992-.318-1.578-.367-2.103-.179-.784 5.17-.466 6.053.052.206.158.394.308.546.185.131.4.216.625.248 7.502 1.587 14.081 6.241 21.593 7.809 3.737.758 7.591.741 11.322-.049a21.843 21.843 0 009.864-4.575c.248-.198.526-.526.357-.794a.656.656 0 00-.367-.258 5.657 5.657 0 01-2.302-1.587c-.477-.616-.675-1.697-1.221-2.213zM243 123.534a2.894 2.894 0 002.143 1.459.99.99 0 01.655.139.808.808 0 01.159.685l-.238 2.976a1.16 1.16 0 00.099.715c.182.217.435.361.715.407 1.091.297 2.441.526 3.205-.298.365-.48.582-1.056.625-1.657.585-3.434 1.141-6.946.615-10.38-.317-2.084-1.151-4.267-2.977-5.358-2.074-1.251-7.422-1.638-7.194 1.855.224 1.401.373 2.812.446 4.228a8.514 8.514 0 001.747 5.229z" fill="#FFBAAA"/><path d="M240.698 111.279c-.129.516-.219 1.062-.328 1.598l-.129.684a.407.407 0 000 .219.358.358 0 00.095.091.35.35 0 00.123.048l1.866.615a.593.593 0 00.407 0 .596.596 0 00.248-.199l.774-.883.089.893a.322.322 0 00.08.209c.044.039.1.063.158.069l3.513.824.219-.516a29.65 29.65 0 01-.119 10.33c2.835.836 5.857.801 8.672-.099.389-.1.751-.283 1.062-.536.353-.368.6-.824.715-1.32a16.068 16.068 0 00-1.548-12.9 6.406 6.406 0 00-5.418-3.543 14.774 14.774 0 00-6.778.457 6.131 6.131 0 00-2.699 1.776 5.07 5.07 0 00-1.002 2.183z" fill="#FB682D"/><path d="M244.151 160.707c.228 7.452-2.481 14.458-4.515 21.622-.893 3.116-1.886 6.321-1.558 9.537a2.22 2.22 0 000 .258c9.824 2.828 20.601 4.237 30.107.466a81.153 81.153 0 01-1.608-15.252 27.848 27.848 0 00-.416-6.033c-.764-3.384-2.977-6.262-5.24-8.931a9.438 9.438 0 01-2.123-3.205 8.751 8.751 0 01-.129-3.523 69.56 69.56 0 00.268-11.581 28.017 28.017 0 00-2.66-10.082 13.748 13.748 0 00-2.63-3.899 6.753 6.753 0 00-4.167-1.985 4.494 4.494 0 00-4.079 1.895c-2.391 3.692-6.38 4.515-9.278 7.82a1.135 1.135 0 00-.327.605c.008.249.095.488.248.685l3.066 4.862c.308.521.667 1.01 1.072 1.459.367.377.803.685 1.161 1.062a7.805 7.805 0 011.677 4.078 65.56 65.56 0 011.131 10.142zm2.977 75.069l.992-.318a9.32 9.32 0 012.461-.546.774.774 0 01.427.06.992.992 0 01.377.446c.132.284.333.53.585.715a1.987 1.987 0 001.668 0 7.57 7.57 0 001.677-.605c.525-.298.992-.705 1.508-.993a1.092 1.092 0 01.992-.079c.16.093.296.222.397.377.214.237.379.513.486.814.055.298.055.604 0 .903-.009.27-.087.533-.228.764a1.57 1.57 0 01-1.25.456l-4.843.308c-1.518.099-3.046.188-4.564.169a9.958 9.958 0 01-2.481-.268c-.109 0-.238-.07-.278-.189a.37.37 0 010-.228 4.21 4.21 0 012.61-1.985m26.525-12.106c-.129.486 0 .992-.12 1.508a2.965 2.965 0 01-.615.993l-1.181 1.458a1.857 1.857 0 01-.466.457 2.004 2.004 0 01-.799.141 1.998 1.998 0 01-.789-.191.507.507 0 00-.446 0 .58.58 0 00-.149.278l-.675 2.352a11.5 11.5 0 00-.456 2.977.912.912 0 00.357.278c1.081.545 2.917-1.886 3.83-2.67a8.128 8.128 0 001.985-3.026c.258-.596.506-1.191.734-1.796a5.504 5.504 0 00.546-1.747.897.897 0 00-.486-.814c-.298-.119-1.122-.724-1.27-.198z" fill="#DF2C2C"/><path d="M238.048 191.866a5.193 5.193 0 004.317-.427c2.252-1.409 3.145-4.227 3.562-6.837.893-5.746.367-11.988 3.384-16.939.923-1.509 2.213-3.037 1.985-4.803-.229-1.766-1.916-3.096-2.908-4.664a12.686 12.686 0 01-1.478-5.835c-.348-3.791-.675-7.591-.993-11.382 0 .993-4.197 2.977-5.725 4.456.367.377.803.684 1.161 1.062a7.802 7.802 0 011.677 4.078 65.526 65.526 0 011.091 10.132c.228 7.452-2.481 14.458-4.515 21.622-.893 3.096-1.885 6.321-1.558 9.537z" fill="url(#paint4_linear)"/><path d="M91.274 77.907A13.833 13.833 0 1177.44 64.074a13.793 13.793 0 0113.833 13.833z" fill="#fff"/><path d="M87.443 87.463a13.833 13.833 0 01-17.92 1.787l.674-2.442a4.039 4.039 0 013.88-2.977h1.558l5.815.11a6.511 6.511 0 014.624 1.984l1.37 1.538z" fill="#DF2C2C"/><path d="M71.715 81.54l10.48-.467s.991-8.822-2.889-10.668c-3.592-1.726-6.43-.218-7.263 2.858-.834 3.076-.328 8.276-.328 8.276z" fill="#FB682D"/><path d="M75.635 81.231v2.67a3.9 3.9 0 000 .764 2.481 2.481 0 001.38 1.469c.238.141.506.226.783.248a.893.893 0 00.754-.288c.133-.192.218-.413.248-.645a3.225 3.225 0 00.189-1.608c-.159-.446-.248-.932-.377-1.399l-.467-1.776-2.51.566z" fill="#FFBAAA"/><path d="M75.714 82.164s.993 2.064 2.124 1.836c1.131-.228.684-1.985.684-1.985l-2.808.15z" fill="url(#paint5_linear)"/><path d="M80.14 79.346a6.025 6.025 0 01-.893 2.163 2.632 2.632 0 01-1.985 1.151 2.7 2.7 0 01-1.568-.496c-1.766-1.131-2.51-3.364-2.63-5.467a5.647 5.647 0 011.47-4.605 4.049 4.049 0 015.626.695c1.17 1.697.427 4.763-.02 6.56z" fill="#FFBAAA"/><path d="M73.075 73.501l-.268 2.977h.992l.387-1.865.218 1.865h1.836l.159-1.915.258 1.727h1.915v-1.796l.536 1.865h1.786s1.052-3.493-1.35-4.723c-2.4-1.23-5.705-.695-6.47 1.865z" fill="#FB682D"/><path d="M100.76 98.438H60.373c-.576 0-1.042.467-1.042 1.042v.15c0 .575.466 1.041 1.042 1.041h40.387c.576 0 1.042-.466 1.042-1.042v-.149c0-.575-.466-1.042-1.042-1.042zm-13.317 5.389H60.184a.853.853 0 00-.853.853v.526c0 .471.382.853.853.853h27.26a.853.853 0 00.853-.853v-.526a.853.853 0 00-.854-.853zm33.154 0H94.171a.843.843 0 00-.843.843v.546c0 .466.377.843.843.843h26.426a.842.842 0 00.843-.843v-.546a.842.842 0 00-.843-.843zm30.633 0h-26.426a.843.843 0 00-.843.843v.546c0 .466.378.843.843.843h26.426a.842.842 0 00.843-.843v-.546a.842.842 0 00-.843-.843z" fill="#DF2C2C"/><path opacity=".18" d="M168.784 122.294h-72.39v10.27h72.39v-10.27zm0 17.971h-72.39v10.27h72.39v-10.27z" fill="#DF2C2C"/></g><defs><linearGradient id="paint0_linear" x1="158.127" y1="174.113" x2="149.999" y2="283.655" gradientUnits="userSpaceOnUse"><stop offset=".01"/><stop offset=".08" stop-opacity=".69"/><stop offset=".21" stop-opacity=".32"/><stop offset="1" stop-opacity="0"/></linearGradient><linearGradient id="paint1_linear" x1="413.53" y1="31.744" x2="1.141" y2="237.096" gradientUnits="userSpaceOnUse"><stop offset=".01"/><stop offset=".13" stop-opacity=".69"/><stop offset=".25" stop-opacity=".32"/><stop offset="1" stop-opacity="0"/></linearGradient><linearGradient id="paint2_linear" x1="43983.2" y1="2059.81" x2="43943.3" y2="7435.11" gradientUnits="userSpaceOnUse"><stop offset=".01"/><stop offset=".13" stop-opacity=".69"/><stop offset=".25" stop-opacity=".32"/><stop offset="1" stop-opacity="0"/></linearGradient><linearGradient id="paint3_linear" x1="11858.7" y1="7552.09" x2="13070.5" y2="1325.76" gradientUnits="userSpaceOnUse"><stop offset=".01"/><stop offset=".13" stop-opacity=".69"/><stop offset=".25" stop-opacity=".32"/><stop offset="1" stop-opacity="0"/></linearGradient><linearGradient id="paint4_linear" x1="-3164.06" y1="10295" x2="-5121.08" y2="10407.7" gradientUnits="userSpaceOnUse"><stop offset=".01"/><stop offset=".13" stop-opacity=".69"/><stop offset=".25" stop-opacity=".32"/><stop offset="1" stop-opacity="0"/></linearGradient><linearGradient id="paint5_linear" x1="422.904" y1="324.77" x2="431.308" y2="356.768" gradientUnits="userSpaceOnUse"><stop offset=".01"/><stop offset=".13" stop-opacity=".69"/><stop offset=".25" stop-opacity=".32"/><stop offset="1" stop-opacity="0"/></linearGradient><clipPath id="clip0"><path fill="#fff" d="M0 0h323.12v274H0z"/></clipPath></defs></svg>