<svg xmlns="http://www.w3.org/2000/svg" width="324" height="274"><defs><linearGradient id="a" x1="158.12" x2="149.99" y1="174.11" y2="283.66" gradientUnits="userSpaceOnUse"><stop offset=".01"/><stop offset=".08" stop-opacity=".69"/><stop offset=".21" stop-opacity=".32"/><stop offset="1" stop-opacity="0"/></linearGradient><linearGradient id="b" x1="413.53" x2="1.14" y1="31.75" y2="237.09" gradientUnits="userSpaceOnUse"><stop offset=".01"/><stop offset=".13" stop-opacity=".69"/><stop offset=".25" stop-opacity=".32"/><stop offset="1" stop-opacity="0"/></linearGradient><linearGradient id="c" x1="43983.95" x2="42158.13" y1="2059.63" y2="7421.16" gradientUnits="userSpaceOnUse"><stop offset=".01"/><stop offset=".13" stop-opacity=".69"/><stop offset=".25" stop-opacity=".32"/><stop offset="1" stop-opacity="0"/></linearGradient><linearGradient id="d" x1="11859.12" x2="14337.24" y1="7551.95" y2="1572.17" gradientUnits="userSpaceOnUse"><stop offset=".01"/><stop offset=".13" stop-opacity=".69"/><stop offset=".25" stop-opacity=".32"/><stop offset="1" stop-opacity="0"/></linearGradient><linearGradient id="e" x1="-3164.55" x2="-5036.96" y1="10294.64" y2="11881.42" gradientUnits="userSpaceOnUse"><stop offset=".01"/><stop offset=".13" stop-opacity=".69"/><stop offset=".25" stop-opacity=".32"/><stop offset="1" stop-opacity="0"/></linearGradient><linearGradient id="f" x1="423.48" x2="439.92" y1="324.5" y2="354.36" gradientUnits="userSpaceOnUse"><stop offset=".01"/><stop offset=".13" stop-opacity=".69"/><stop offset=".25" stop-opacity=".32"/><stop offset="1" stop-opacity="0"/></linearGradient></defs><path fill="#e5e5e5" d="M108.486 7.878c-17.861 9.586-30.86 27.12-36.656 46.54-3.423 11.491-4.495 23.627-8.395 34.96-11.124 32.26-43.166 53.248-56.83 84.516-7.611 17.405-8.931 37.708-2.51 55.57 6.42 17.862 20.749 33.034 38.61 39.316 10.975 3.87 22.824 4.445 34.424 4.812 21.831.695 43.751.774 65.196-3.096 10.22-1.836 20.283-4.574 30.593-5.765 19.946-2.312 40.308 1.201 60.135-1.985 13.803-2.242 26.882-7.68 39.385-13.952 9.377-4.703 18.606-9.923 26.346-17.068 20.472-18.775 28.053-49.229 22.555-76.458-5.497-27.23-22.823-51.154-44.545-68.47-9.576-7.592-19.995-14.022-30.028-20.988a335.752 335.752 0 01-36.715-29.551c-27.577-25.553-63.152-48.972-101.565-28.38z"/><path fill="#df2c2c" d="M115.96 232.808h75.615l-13.386-48.078h-50.936z"/><path fill="url(#a)" d="M115.96 232.808h75.615l-13.386-48.078h-50.936z"/><path fill="#df2c2c" d="M266.974 56.245v124.04a13.573 13.573 0 01-3.976 9.596 13.562 13.562 0 01-9.599 3.969H57.515a13.549 13.549 0 01-13.565-13.565V56.245A13.565 13.565 0 0157.515 42.68h195.924a13.566 13.566 0 0113.535 13.565z"/><path fill="#473f47" d="M266.974 56.245v108.739H43.95V56.245A13.585 13.585 0 0157.525 42.67h195.924a13.575 13.575 0 0113.525 13.575z"/><path fill="#fff" d="M263.656 58.84v102.516H47.33V58.839A13.099 13.099 0 0160.468 45.82h190.03a13.099 13.099 0 0113.158 13.02z"/><path fill="#df2c2c" d="M263.656 58.84v102.516H47.33V58.84a13.099 13.099 0 0113.138-13.02h190.02a13.099 13.099 0 0113.168 13.02z" opacity=".18"/><path fill="#fff" d="M261.81 111.87H47.31v50.251h214.5z"/><path fill="url(#b)" d="M254.17 95.84h-59.48v60.135h59.48z"/><path fill="#df2c2c" d="M263.656 58.84v18.933H47.33V58.84a13.099 13.099 0 0113.138-13.02h190.02a13.099 13.099 0 0113.168 13.02z"/><path fill="url(#c)" d="M263.656 58.84v18.933H47.33V58.84a13.099 13.099 0 0113.138-13.02h190.02a13.099 13.099 0 0113.168 13.02z"/><path fill="#fff" d="M258.2 92.23h-59.48v60.135h59.48z"/><path fill="#df2c2c" d="M255.098 96.76H201.83v51.968h53.268z" opacity=".18"/><path fill="#df2c2c" d="M245.603 111.535a4.823 4.823 0 100-9.645 4.823 4.823 0 000 9.645z"/><path fill="url(#d)" d="M201.83 125.907l13.04-9.595 16.57 9.595h3.494l-12.017-7.075 9.814-7.492 23.657 13.863v23.528H201.83z"/><path fill="#ffbaaa" d="M267.34 138.147a7.403 7.403 0 013.66 3.502 2.65 2.65 0 01-.188 2.789 2.5 2.5 0 01-1.984.714 8.028 8.028 0 01-3.106-.883c-.874-.387-1.737-.814-2.6-1.23a4.059 4.059 0 01-1.39-.943 3.543 3.543 0 01-.555-2.55c.06-.864.377-3.047 1.518-3.136.772.136 1.519.39 2.213.754.83.276 1.642.604 2.431.983z"/><path fill="#df2c2c" d="M263.45 136.173c.187 2.625.07 5.262-.348 7.86a16.61 16.61 0 01-5.953-2.928 11.796 11.796 0 01-2.263-1.816 7.274 7.274 0 01-1.578-3.513c-.347-1.984-2.113-6.827.348-5.656 2.46 1.171 7.303 4.694 9.794 6.053z"/><path fill="#ffbaaa" d="M245.138 199.86a50.673 50.673 0 005.537 7.304 113.118 113.118 0 0010.142 9.358c1.756 1.508 3.513 3.036 5.2 4.634 1.399 1.32 3.185 2.233 3.532 4.297.209 1.21 0 2.669.913 3.493a2.252 2.252 0 002.461.138 5.22 5.22 0 001.836-1.825 2.8 2.8 0 00.447-.893 2.342 2.342 0 000-1.082c-.378-1.697-1.687-2.977-2.838-4.287a28.052 28.052 0 01-2.769-3.721 21.129 21.129 0 00-2.401-2.838l-6.728-7.582c-2.422-2.728-4.902-5.557-5.954-9.02a14.554 14.554 0 00-1.43-3.9c-1.726-2.52-5.755-2.897-8.394-1.706-3.344 1.488-.893 5.567.446 7.63z"/><path fill="#ffbaaa" d="M259.04 194.883s1.746 15.242 0 23.488a65.493 65.493 0 00-1.36 15.44 1.915 1.915 0 01-.824 2.511 5.418 5.418 0 01-2.838.616l-3.969.148a1.63 1.63 0 01-1.33-.347c-.516-.566 0-1.518.705-1.856.704-.337 1.518-.357 2.183-.764 1.25-.754 1.409-2.47 1.439-3.969l.099-6.39c.149-9.18.298-18.408-1.101-27.478a2.977 2.977 0 010-1.25c.198-.754.932-1.22 1.607-1.618a6.599 6.599 0 012.411-.992 2.263 2.263 0 012.273.992M237.28 138.73a1.111 1.111 0 00-.417-.248c-.893-.258-2.69.992-3.483 1.33a19.013 19.013 0 01-8.207 1.587 36.587 36.587 0 01-7.522-1.737c-3.155-.883-6.38-1.458-9.486-2.48a18.973 18.973 0 01-8.326-4.962c-.516.367-.149 1.38-.694 1.697-.546.317-.993-.318-1.578-.367-2.104-.179-.784 5.17-.466 6.053.051.206.158.394.307.546.186.13.4.216.625.248 7.502 1.587 14.081 6.241 21.593 7.81 3.738.757 7.592.74 11.323-.05a21.831 21.831 0 009.863-4.575c.248-.198.526-.526.357-.794a.655.655 0 00-.367-.258 5.656 5.656 0 01-2.302-1.587c-.476-.616-.675-1.697-1.22-2.213zm5.72-15.193a2.888 2.888 0 002.144 1.46.982.982 0 01.654.138.813.813 0 01.16.685l-.239 2.977a1.15 1.15 0 00.1.714c.181.217.435.361.714.407 1.091.298 2.44.526 3.205-.298a3.1 3.1 0 00.625-1.657c.586-3.433 1.141-6.946.615-10.38-.317-2.083-1.15-4.266-2.977-5.358-2.074-1.25-7.422-1.637-7.194 1.856.224 1.4.373 2.81.447 4.227a8.514 8.514 0 001.746 5.23z"/><path fill="#fb682d" d="M240.701 111.276c-.129.516-.218 1.062-.327 1.598l-.13.684a.407.407 0 000 .219.338.338 0 00.22.139l1.865.615a.586.586 0 00.407 0 .595.595 0 00.248-.199l.774-.883.089.893c0 .077.029.151.08.209.044.039.1.063.158.07l3.513.823.218-.516a29.62 29.62 0 01-.119 10.33c2.836.836 5.857.801 8.673-.1a2.76 2.76 0 001.062-.535c.353-.367.6-.824.714-1.32a16.065 16.065 0 00-1.548-12.9 6.4 6.4 0 00-5.418-3.543 14.766 14.766 0 00-6.777.457 6.133 6.133 0 00-2.7 1.776 5.08 5.08 0 00-1.002 2.183z"/><path fill="#df2c2c" d="M244.155 160.705c.229 7.453-2.48 14.459-4.515 21.623-.893 3.116-1.885 6.321-1.558 9.536a2.261 2.261 0 000 .258c9.824 2.829 20.601 4.238 30.107.467a81.124 81.124 0 01-1.607-15.252 27.9 27.9 0 00-.417-6.033c-.764-3.384-2.977-6.262-5.24-8.931a9.427 9.427 0 01-2.123-3.206 8.762 8.762 0 01-.129-3.522c.412-3.846.501-7.72.268-11.58a28.026 28.026 0 00-2.66-10.083 13.774 13.774 0 00-2.63-3.9 6.758 6.758 0 00-4.167-1.984 4.495 4.495 0 00-4.078 1.895c-2.392 3.692-6.38 4.515-9.279 7.82a1.141 1.141 0 00-.327.605c.008.249.095.488.248.685l3.066 4.862c.308.52.667 1.01 1.072 1.459.367.377.804.684 1.161 1.062a7.8 7.8 0 011.677 4.078 65.495 65.495 0 011.131 10.141zm2.977 75.068l.992-.317a9.278 9.278 0 012.46-.546.776.776 0 01.428.06.993.993 0 01.377.446c.132.284.333.53.585.715a1.985 1.985 0 001.667 0 7.513 7.513 0 001.677-.606c.526-.298.993-.704 1.509-.992a1.091 1.091 0 01.992-.08 1.2 1.2 0 01.397.378c.214.236.379.513.486.813a2.51 2.51 0 010 .903c-.009.27-.087.534-.228.764a1.577 1.577 0 01-1.25.457l-4.843.307c-1.518.1-3.046.19-4.565.17a9.923 9.923 0 01-2.48-.269c-.11 0-.239-.07-.278-.188a.377.377 0 010-.229 4.198 4.198 0 012.61-1.984m26.518-12.103c-.13.486 0 .992-.12 1.508a2.977 2.977 0 01-.614.992l-1.181 1.459a1.855 1.855 0 01-.467.456 1.984 1.984 0 01-1.587-.05.506.506 0 00-.447 0 .585.585 0 00-.149.279l-.675 2.352a11.521 11.521 0 00-.456 2.977.913.913 0 00.357.277c1.082.546 2.918-1.885 3.83-2.669a8.127 8.127 0 001.985-3.027c.258-.595.506-1.19.735-1.796a5.507 5.507 0 00.545-1.746.893.893 0 00-.486-.814c-.298-.119-1.121-.724-1.27-.198z"/><path fill="url(#e)" d="M238.044 191.866a5.18 5.18 0 004.317-.426c2.252-1.41 3.145-4.228 3.562-6.838.893-5.745.367-11.987 3.384-16.939.923-1.508 2.213-3.036 1.985-4.802-.229-1.767-1.916-3.096-2.908-4.664a12.693 12.693 0 01-1.479-5.835c-.347-3.79-.674-7.591-.992-11.382 0 .992-4.197 2.977-5.726 4.456.368.377.804.684 1.161 1.061a7.8 7.8 0 011.677 4.079 65.492 65.492 0 011.092 10.131c.228 7.453-2.48 14.459-4.515 21.623-.893 3.096-1.885 6.321-1.558 9.536z"/><path fill="#fff" d="M91.276 77.903A13.833 13.833 0 1177.443 64.07a13.793 13.793 0 0113.833 13.833z"/><path fill="#df2c2c" d="M87.441 87.462a13.833 13.833 0 01-17.921 1.786l.675-2.441a4.039 4.039 0 013.88-2.977h1.558l5.815.11a6.51 6.51 0 014.624 1.984z"/><path fill="#fb682d" d="M71.712 81.54l10.48-.466s.991-8.822-2.889-10.667c-3.592-1.727-6.43-.219-7.263 2.858-.834 3.076-.328 8.275-.328 8.275z"/><path fill="#ffbaaa" d="M75.638 81.236v2.669a3.97 3.97 0 000 .764 2.48 2.48 0 001.38 1.469c.239.141.507.226.784.248a.893.893 0 00.754-.288c.133-.192.218-.413.248-.645a3.225 3.225 0 00.188-1.608c-.158-.446-.248-.932-.377-1.399l-.466-1.776z"/><path fill="url(#f)" d="M75.71 82.169s.992 2.064 2.124 1.836c1.13-.229.684-1.985.684-1.985z"/><path fill="#ffbaaa" d="M80.135 79.346a6.024 6.024 0 01-.893 2.163 2.63 2.63 0 01-1.984 1.152 2.699 2.699 0 01-1.568-.497c-1.766-1.13-2.51-3.364-2.63-5.467a5.646 5.646 0 011.469-4.605 4.049 4.049 0 015.626.695c1.171 1.697.427 4.763-.02 6.56z"/><path fill="#fb682d" d="M73.078 73.498l-.268 2.977h.992l.387-1.866.219 1.866h1.835l.16-1.915.257 1.726h1.915V74.49l.536 1.866h1.786s1.052-3.493-1.35-4.724c-2.4-1.23-5.705-.694-6.47 1.866z"/><path fill="#df2c2c" d="M100.76 98.44H60.372c-.576 0-1.042.466-1.042 1.042v.149c0 .575.466 1.042 1.042 1.042h40.388c.575 0 1.041-.467 1.041-1.042v-.15c0-.575-.466-1.041-1.042-1.041zm-13.318 5.39H60.183a.853.853 0 00-.853.853v.526c0 .472.382.854.853.854h27.26a.853.853 0 00.853-.854v-.526a.853.853 0 00-.854-.853zm33.157 0H94.173a.843.843 0 00-.843.843v.546c0 .466.378.844.843.844H120.6a.843.843 0 00.844-.844v-.546a.843.843 0 00-.844-.843zm30.63 0h-26.426a.843.843 0 00-.843.843v.546c0 .466.378.844.843.844h26.426a.844.844 0 00.844-.844v-.546a.844.844 0 00-.844-.843z"/><path fill="#df2c2c" d="M168.78 122.29H96.39v10.27h72.39zm0 17.97H96.39v10.27h72.39z" opacity=".18"/></svg>