<svg xmlns="http://www.w3.org/2000/svg" width="263" height="240"><defs><linearGradient id="a" x1="166.73" x2="157.18" y1="148.92" y2="277.77" gradientUnits="userSpaceOnUse"><stop offset=".01"/><stop offset=".08" stop-opacity=".69"/><stop offset=".21" stop-opacity=".32"/><stop offset="1" stop-opacity="0"/></linearGradient></defs><path fill="#df2c2c" d="M54.468 52.905a210.67 210.67 0 00-7.989 26.097c-5.178 20.982-19.565 37.341-31.023 55.326C5.978 149.146-1.74 166.317.342 183.794c2.302 19.221 16.485 35.563 33.63 44.522 18.871 9.907 45.139 15.935 65.229 8.23 33.241-12.769 69.595-12.583 103.699-22.828 15.757-4.725 31.768-10.788 43.345-22.49a56.547 56.547 0 002.827-76.409c-13.287-15.631-31.329-22.828-42.228-41.067-9.614-16.071-15.707-34.36-27.994-48.772a71.174 71.174 0 00-104.969-3.523 92.202 92.202 0 00-19.413 31.448z" opacity=".18"/><path fill="#df2c2c" d="M143.779 27.84H77.331c-7.412 0-13.421 6.013-13.421 13.43v153.649c0 7.417 6.009 13.429 13.421 13.429h66.448c7.412 0 13.421-6.012 13.421-13.429V41.269c0-7.417-6.008-13.429-13.421-13.429z"/><path fill="#473f47" d="M142.403 30.11H78.715c-7.16 0-12.965 5.808-12.965 12.972v149.721c0 7.164 5.804 12.972 12.964 12.972h63.69c7.16 0 12.964-5.808 12.964-12.972V43.083c0-7.165-5.805-12.973-12.965-12.973z"/><path fill="#fff" d="M152.913 44.568v144.979a12.4 12.4 0 01-3.719 8.72 12.383 12.383 0 01-8.789 3.541h-59.66a12.687 12.687 0 01-6.229-1.694 12.218 12.218 0 01-6.296-10.635V44.569a12.417 12.417 0 013.723-8.733 12.402 12.402 0 018.802-3.545H90.9v1.795a5.895 5.895 0 003.69 5.402 6.04 6.04 0 002.284.44h27.774a5.988 5.988 0 005.577-3.638c.31-.724.473-1.502.482-2.289v-1.693h9.766c3.203-.011 6.29 1.2 8.631 3.386a12.126 12.126 0 013.809 8.874z"/><path fill="#df2c2c" d="M152.915 44.57v144.978a12.4 12.4 0 01-3.718 8.72 12.383 12.383 0 01-8.79 3.541h-59.66a12.686 12.686 0 01-6.228-1.693 12.154 12.154 0 01-3.859-8.857V46.348a12.402 12.402 0 017.773-11.37 12.392 12.392 0 014.752-.891H90.8a5.895 5.895 0 003.79 5.402 6.128 6.128 0 004.672 2.219h27.774a5.988 5.988 0 005.597-3.646c.31-.727.473-1.508.48-2.299V34.07h9.765c2.176.025 4.308.608 6.194 1.693a12.125 12.125 0 013.842 8.807z"/><path fill="#473f47" d="M96.01 161.418a16.57 16.57 0 011.49-6.773l-10.155-5.555a27.786 27.786 0 00-2.945 12.329 28.088 28.088 0 005.919 17.243 28.06 28.06 0 0015.254 9.97l2.048-11.481a16.469 16.469 0 01-8.39-5.956 16.484 16.484 0 01-3.22-9.776z"/><path fill="#fff" d="M136.496 175.832a28.15 28.15 0 01-13.37 11.5 28.131 28.131 0 01-17.586 1.285l2.048-11.481a16.51 16.51 0 0018.617-6.876z" opacity=".73"/><path fill="#fff" d="M140.53 161.423a28.022 28.022 0 01-4.028 14.412l-10.155-5.572a16.467 16.467 0 00-5.825-23.548 16.444 16.444 0 00-22.947 7.833l-10.155-5.555a28.07 28.07 0 0113.18-12.788 28.047 28.047 0 0133.786 7.908 28.088 28.088 0 016.145 17.31z"/><path fill="#fff" d="M144.781 65.17H77.013a3.504 3.504 0 00-3.503 3.506v47.281a3.505 3.505 0 003.503 3.506h67.768a3.505 3.505 0 003.504-3.506v-47.28a3.505 3.505 0 00-3.504-3.506z" opacity=".73"/><path fill="#fff" d="M76.96 87.89l11.932-11.11 16.434 19.831 14.387-12.6 5.957 5.132 13.37-17.883 6.788 8.196v35.885H76.96z"/><path fill="#df2c2c" d="M105.29 97.125L88.854 77.312 77.211 88.15l-.491-.525 12.203-11.363 16.451 19.83 14.335-12.549 5.907 5.081 13.405-17.934 7.074 8.535-.558.474-6.482-7.84-13.32 17.815-6.026-5.165z"/><path fill="#df2c2c" d="M88.77 78.31a1.49 1.49 0 10-.001-2.98 1.49 1.49 0 000 2.98zM105.58 98a1.49 1.49 0 10-.001-2.98 1.49 1.49 0 000 2.98zm14.13-12.5a1.49 1.49 0 10-.001-2.98 1.49 1.49 0 000 2.98zm5.96 5.13a1.49 1.49 0 10-.001-2.98 1.49 1.49 0 000 2.98zm13.37-17.88a1.49 1.49 0 10-.001-2.98 1.49 1.49 0 000 2.98zm6.79 8.2a1.49 1.49 0 10-.001-2.98 1.49 1.49 0 000 2.98z"/><path fill="#fff" d="M81.405 106.27H39.093a5.875 5.875 0 00-5.873 5.876v42.337a5.875 5.875 0 005.873 5.877h42.312a5.875 5.875 0 005.873-5.877v-42.337a5.875 5.875 0 00-5.873-5.876z"/><path fill="#df2c2c" d="M59.319 147.125c8.637 0 15.638-7.005 15.638-15.647S67.956 115.83 59.32 115.83s-15.639 7.006-15.639 15.648 7.002 15.647 15.639 15.647z"/><path fill="#473f47" d="M59.31 113.04v19.12l16.806-12.143s-7.65-8.535-16.806-6.977z"/><path fill="url(#a)" d="M178.81 199.527l19.616 1.524a5.345 5.345 0 012.657.677 3.574 3.574 0 011.134 3.997 7.874 7.874 0 01-2.69 3.489c-7.11 5.808-17.112 6.028-26.302 5.978l-43.345-.271a11.843 11.843 0 01-4.925-.728 4.063 4.063 0 01-2.573-3.912 5.167 5.167 0 012.742-3.387 34.987 34.987 0 0112.558-3.997 36452.26 36452.26 0 0119.836-3.387"/><path fill="#a0685b" d="M166.259 203.422a6.676 6.676 0 01-.559 2.947 4.977 4.977 0 01-2.132 1.998 8.458 8.458 0 01-6.262.61 1.21 1.21 0 01-.728-.424 1.17 1.17 0 01-.136-.626 4.725 4.725 0 011.693-2.947 10.278 10.278 0 002.268-2.59c.948-1.948.237-7.097 3.893-6.284 2.995.695 2.048 5.165 1.963 7.316z"/><path fill="#df2c2c" d="M166.761 206.922s.508 1.27-.118 2.016c-.626.745-7.193 4.826-11.61 1.54-4.418-3.285 5.99-3.708 5.99-3.708z"/><path fill="#fff" d="M166.509 203.948a.947.947 0 00-1.185.305 3.892 3.892 0 01-3.436 1.202c-1.438-.355-2.014-2.015-2.725-2.015-.71 0-4.536 3.235-4.756 4.64-.22 1.406 1.693 2.422 3.893 2.557 2.2.136 7.04-1.354 7.972-2.49a4.626 4.626 0 00.237-4.199z"/><path fill="#a0685b" d="M178.81 205.449a6.676 6.676 0 01-.559 2.946 4.876 4.876 0 01-2.132 1.999 8.458 8.458 0 01-6.263.61 1.22 1.22 0 01-.728-.424 1.135 1.135 0 01-.135-.627 4.725 4.725 0 011.693-2.946 10.278 10.278 0 002.268-2.591c.947-1.948.236-7.096 3.892-6.266 2.962.643 1.964 5.114 1.964 7.299z"/><path fill="#df2c2c" d="M179.283 208.922s.507 1.27-.119 2.016c-.626.745-7.193 4.826-11.61 1.54-4.418-3.285 5.974-3.708 5.974-3.708z"/><path fill="#fff" d="M179.033 205.94a.947.947 0 00-1.184.305 3.858 3.858 0 01-3.52 1.27c-1.44-.355-2.015-2.015-2.726-2.015-.71 0-4.536 3.235-4.756 4.64-.22 1.406 1.693 2.422 3.893 2.557 2.2.136 7.04-1.354 7.972-2.49a4.625 4.625 0 00.321-4.267z"/><path fill="#473f47" d="M181.38 151.484s.695 37.528-2.098 50.06l-7.04.863-4.892-51.397z"/><path fill="#473f47" d="M159.604 147.38s-3.385 20.322.71 52.752l7.042.88 4.891-51.447z"/><path fill="#fff" d="M151.34 131.231c0 1.355.525 2.54 1.693 2.93h.305c2.166.44 5.077-1.22 6.99-2.659a28.798 28.798 0 002.352-1.914V115.16l-10.527 10.787a16.79 16.79 0 00-.813 5.284z"/><path fill="#fff" d="M160.191 131.552v2.033c0 3.759.863 7.62-.254 11.295a4.168 4.168 0 00-.305 2.506 3.124 3.124 0 001.574 1.508 31.484 31.484 0 0010.832 2.879c2.793.389 6.77 1.219 9.36-.288a4.725 4.725 0 001.828-3.032 56.797 56.797 0 001.692-11.854c0-.525 0-1.033.102-1.558.214-3.59.288-7.18.22-10.77 0-2.592-.254-5.42-1.946-7.384a18.613 18.613 0 00-9.952-4.962 11.84 11.84 0 00-3.284-.17 13.4 13.4 0 00-4.417 1.508 7.363 7.363 0 00-3.927 3.133 22.126 22.126 0 00-1.845 5.927 21.672 21.672 0 00-.101 5.825c.101.966.338 1.897.44 2.846-.017.203-.017.372-.017.558z"/><path fill="#020202" d="M175.528 152.756c1.083.321 3.588-.678 4.417-.813.491-.102.948-.339 1.439-.457 2.488-.627 2.776-7.587 3.013-9.467a129.961 129.961 0 001.692-15.072 16.42 16.42 0 00-.66-5.673 6.54 6.54 0 00-3.707-4.132c-3.165-1.152-4.112 8.874-4.552 10.957l-2.37 11.312a25.892 25.892 0 00-.66 4.234c.058 1.742.42 3.461 1.066 5.08.288.982-.507 2.88-.118 3.607a.627.627 0 00.44.424z" opacity=".1"/><path fill="#a0685b" d="M167.9 108.928c.399.43.94.7 1.522.762a8.6 8.6 0 001.473 0h.288a.237.237 0 01.287.254c.085.98.085 1.967 0 2.947v.542a1.034 1.034 0 000 .559.998.998 0 00.593.39c.432.14.883.214 1.337.22a5.921 5.921 0 002.708-.949c-.075-1.698.016-3.4.27-5.08.505-2.102.755-4.257.745-6.419a4.337 4.337 0 00-.897-2.354 4.265 4.265 0 00-3.199-1.151 8.137 8.137 0 00-4.383 1.202 1.693 1.693 0 00-.66 1.304 42.296 42.296 0 00-.39 2.557 31.837 31.837 0 00-.186 2.947 3.48 3.48 0 00.491 2.27z"/><path fill="#473f47" d="M169.623 100.301l.237.085c.207.094.432.146.66.152a.626.626 0 00.558-.305.44.44 0 00.136.44c.128.107.278.182.44.22.267.102.545.17.83.204.277.022.553-.056.778-.22.186.237.49.355.677.592.247.296.436.635.558 1a3.49 3.49 0 010 2.235c.423.153.508-.593.83-.914.321-.322 1.049.118 1.1.643a3.253 3.253 0 01-.457 1.49c-.271.61-.711 4.133.863 2.896.286-.272.49-.617.592-.999l.897-2.49a.676.676 0 00.745-.355.712.712 0 00-.203-.813.846.846 0 001.27-1.016.948.948 0 00.812-.931.965.965 0 00-.863-.881 1.152 1.152 0 00-.78-2.168 1.965 1.965 0 00-.66-2.37 2.69 2.69 0 00-1.692-.644h-.44c-.084 0-.118-.288-.169-.356a1.134 1.134 0 00-1.309-.466 1.198 1.198 0 00-.519.33 1.897 1.897 0 00-1.27-1.303 1.37 1.37 0 00-1.573.728 3.266 3.266 0 00-1.185-.711 1.556 1.556 0 00-.779-.102 1.49 1.49 0 00-1.049 1.22c-.118 0-.254 0-.39-.085a.592.592 0 00-.693.44.762.762 0 00.321.796.999.999 0 00-.49.457c-.085.204 0 .508.27.508a.762.762 0 00.61 1.372.508.508 0 00-.406.356 1.17 1.17 0 000 .542.186.186 0 000 .135.186.186 0 00.152 0c.355 0 .778 0 .965-.237 0 .152.135.271.287.322z"/><path fill="#7d443c" d="M170.895 109.652h.287a.237.237 0 01.288.254c.085.98.085 1.966 0 2.947a3.944 3.944 0 002.725-4.183c-1.09.448-2.225.777-3.385.982z"/><path fill="#fff" d="M142.56 127.554a20.722 20.722 0 005.077 5.08 10.15 10.15 0 004.756 1.694c.218.044.443.044.66 0a1.79 1.79 0 00.914-.626 5.268 5.268 0 001.219-3.015c.118-2.879-3.013-4.572-3.013-4.572s-7.21-2.439-7.988-2.066c-.457.203-.897 1.202-1.202 2.083-.305.88-.423 1.422-.423 1.422z"/><path fill="#020202" d="M142.56 127.55a20.722 20.722 0 005.077 5.08 10.151 10.151 0 004.756 1.693c.218.044.443.044.66 0h.305c2.167.44 5.078-1.22 6.99-2.659l-.677-4.335a17.096 17.096 0 01-4.468 3.387 6.225 6.225 0 01-3.825.711 3.79 3.79 0 01-1.033-.304 33.628 33.628 0 01-7.328-4.793c-.288.525-.457 1.22-.457 1.22z" opacity=".1"/><path fill="#fff" d="M189.725 132.211c1.1 2.49 1.577 5.21 1.388 7.926-.474 3.251-2.64 5.978-4.722 8.467-1.693.254-3.774.22-4.367-1.338a3.914 3.914 0 01-.101-1.54l.237-3.388a12.471 12.471 0 00-.237-4.487 19.7 19.7 0 00-2.522-4.454 17.23 17.23 0 01-2.539-7.841c-.186-2.625 1.794-11.058 5.636-8.467 1.591 1.033 3.013 5.368 3.859 7.112a93.312 93.312 0 013.368 8.01z"/><path fill="#a0685b" d="M181.042 150.935a.847.847 0 00-.135.44c0 .153.186.305.339.237.389 1.203-.424 2.473-.424 3.743a1.05 1.05 0 000 .322.847.847 0 00.288.355 1.54 1.54 0 001.439.085 3.859 3.859 0 001.201-.898 6.029 6.029 0 001.693-2.438c.121-.438.2-.886.237-1.338l.406-3.387c-2.556-.728-3.893.914-5.044 2.879zM143 121.289a1.27 1.27 0 00-.373-.593.44.44 0 00-.61 0 1.135 1.135 0 00-.118.406.779.779 0 01-.761.474 2.267 2.267 0 01-.931-.22 22.874 22.874 0 00-2.59-.796.998.998 0 00-.626 0 .88.88 0 00-.44.542 3.389 3.389 0 00.541 3.184 5.331 5.331 0 002.793 1.829 12.89 12.89 0 003.385.491c.28.045.568.01.83-.101 1.303-.813-.745-4.336-1.1-5.216z"/></svg>