<svg xmlns="http://www.w3.org/2000/svg" width="300" height="274"><defs><linearGradient id="a" x1="190.35" x2="179.45" y1="170.02" y2="317.1" gradientUnits="userSpaceOnUse"><stop offset=".01"/><stop offset=".08" stop-opacity=".69"/><stop offset=".21" stop-opacity=".32"/><stop offset="1" stop-opacity="0"/></linearGradient></defs><path fill="#e5e5e5" d="M62.184 60.401a240.512 240.512 0 00-9.12 29.794c-5.913 23.955-22.337 42.631-35.418 63.164C6.825 170.276-1.986 189.881.39 209.833c2.628 21.944 18.82 40.601 38.395 50.829 21.544 11.31 51.533 18.193 74.469 9.396 37.95-14.578 79.455-14.365 118.39-26.062 17.99-5.394 36.269-12.316 49.486-25.675a64.558 64.558 0 0018.59-42.989 64.56 64.56 0 00-15.363-44.246c-15.169-17.845-35.767-26.062-48.21-46.885-10.976-18.347-17.932-39.228-31.96-55.681a81.294 81.294 0 00-26.532-20.415 81.249 81.249 0 00-93.307 16.393 105.264 105.264 0 00-22.164 35.903z"/><path fill="#df2c2c" d="M164.144 31.78H88.283c-8.463 0-15.323 6.864-15.323 15.332v175.416c0 8.468 6.86 15.332 15.323 15.332h75.86c8.463 0 15.324-6.864 15.324-15.332V47.112c0-8.468-6.86-15.332-15.323-15.332z"/><path fill="#473f47" d="M162.583 34.38H89.87c-8.174 0-14.801 6.63-14.801 14.81v170.93c0 8.179 6.627 14.81 14.801 14.81h72.712c8.174 0 14.801-6.631 14.801-14.81V49.19c0-8.18-6.627-14.81-14.801-14.81z"/><path fill="#fff" d="M174.58 50.888v165.517a14.159 14.159 0 01-4.244 9.956 14.142 14.142 0 01-10.035 4.042H92.19a14.496 14.496 0 01-7.111-1.933 13.941 13.941 0 01-7.188-12.142V50.888a14.179 14.179 0 014.25-9.97 14.16 14.16 0 0110.049-4.047h11.593v2.049a6.731 6.731 0 004.213 6.168 6.895 6.895 0 002.608.502h31.709a6.837 6.837 0 006.367-4.153c.353-.827.54-1.715.55-2.614V36.89h11.15a14.371 14.371 0 019.854 3.867 13.843 13.843 0 014.348 10.13z"/><path fill="#df2c2c" d="M174.578 50.887v165.518a14.157 14.157 0 01-4.245 9.955 14.142 14.142 0 01-10.034 4.042H92.186a14.475 14.475 0 01-7.11-1.933 13.885 13.885 0 01-4.406-10.112V52.917a14.16 14.16 0 014.252-9.962 14.144 14.144 0 0110.047-4.036h8.695a6.73 6.73 0 004.328 6.168 6.996 6.996 0 005.333 2.533h31.709a6.837 6.837 0 006.39-4.163c.353-.83.54-1.722.547-2.624V38.9h11.149a14.54 14.54 0 017.072 1.933 13.843 13.843 0 014.386 10.054z"/><path fill="#473f47" d="M109.615 184.295a18.928 18.928 0 011.7-7.733l-11.593-6.342a31.723 31.723 0 00-3.362 14.075 32.068 32.068 0 006.757 19.686 32.036 32.036 0 0017.416 11.384l2.338-13.109a18.801 18.801 0 01-9.579-6.8 18.819 18.819 0 01-3.677-11.16z"/><path fill="#fff" d="M155.841 200.74a32.139 32.139 0 01-15.265 13.13 32.116 32.116 0 01-20.076 1.468l2.338-13.108a18.849 18.849 0 0021.255-7.85z" opacity=".73"/><path fill="#fff" d="M160.435 184.29a31.992 31.992 0 01-4.6 16.452l-11.593-6.36a18.798 18.798 0 00-14.047-29.114 18.773 18.773 0 00-14.309 4.884 18.793 18.793 0 00-4.492 6.288L99.8 170.098a32.045 32.045 0 0115.048-14.6 32.02 32.02 0 0138.572 9.028 32.067 32.067 0 017.015 19.763z"/><path fill="#fff" d="M165.288 74.4H87.92a4 4 0 00-4 4.002v53.98a4 4 0 004 4.003h77.368a4 4 0 004-4.003v-53.98a4 4 0 00-4-4.002z" opacity=".73"/><path fill="#fff" d="M87.86 100.346l13.623-12.683 18.762 22.64 16.424-14.385 6.802 5.859 15.265-20.417 7.748 9.358v40.968H87.86z"/><path fill="#df2c2c" d="M120.207 110.88l-18.763-22.62-13.294 12.373-.56-.6 13.932-12.972 18.781 22.64 16.367-14.327 6.743 5.8L158.717 80.7l8.077 9.744-.638.542-7.4-8.952-15.208 20.34-6.878-5.897z"/><path fill="#df2c2c" d="M101.35 89.403a1.7 1.7 0 100-3.402 1.7 1.7 0 000 3.402zm19.18 22.48a1.7 1.7 0 100-3.402 1.7 1.7 0 000 3.402zm16.14-14.27a1.7 1.7 0 100-3.402 1.7 1.7 0 000 3.402zm6.8 5.86a1.7 1.7 0 100-3.402 1.7 1.7 0 000 3.402zm15.27-20.41a1.7 1.7 0 100-3.402 1.7 1.7 0 000 3.402zm7.74 9.35a1.7 1.7 0 100-3.402 1.7 1.7 0 000 3.402z"/><path fill="#fff" d="M92.942 121.32H44.635a6.707 6.707 0 00-6.705 6.709v48.335a6.707 6.707 0 006.705 6.708h48.307a6.707 6.707 0 006.705-6.708v-48.335a6.707 6.707 0 00-6.705-6.709z"/><path fill="#df2c2c" d="M67.724 167.969c9.86 0 17.854-7.998 17.854-17.864 0-9.867-7.993-17.865-17.854-17.865-9.86 0-17.854 7.998-17.854 17.864 0 9.867 7.994 17.865 17.854 17.865z"/><path fill="#473f47" d="M67.71 129.057v21.828l19.187-13.863s-8.733-9.744-19.187-7.965z"/><path fill="url(#a)" d="M204.144 227.79l22.395 1.74a6.103 6.103 0 013.034.773 4.08 4.08 0 011.295 4.563 8.989 8.989 0 01-3.073 3.982c-8.115 6.632-19.535 6.883-30.027 6.825l-49.486-.31a13.519 13.519 0 01-5.623-.83 4.637 4.637 0 01-2.937-4.467 5.898 5.898 0 013.13-3.866 39.943 39.943 0 0114.338-4.563 40515.04 40515.04 0 0122.646-3.867"/><path fill="#a0685b" d="M189.81 232.24a7.622 7.622 0 01-.638 3.365 5.682 5.682 0 01-2.434 2.281 9.657 9.657 0 01-7.15.696 1.391 1.391 0 01-.83-.483 1.334 1.334 0 01-.155-.715 5.395 5.395 0 011.932-3.365 11.734 11.734 0 002.59-2.958c1.081-2.223.27-8.1 4.444-7.172 3.42.792 2.338 5.896 2.241 8.352z"/><path fill="#df2c2c" d="M190.388 236.244s.58 1.45-.136 2.3c-.715.851-8.212 5.51-13.255 1.76-5.043-3.75 6.84-4.234 6.84-4.234z"/><path fill="#fff" d="M190.095 232.84a1.082 1.082 0 00-1.352.348 4.445 4.445 0 01-3.923 1.373c-1.642-.406-2.299-2.301-3.11-2.301-.812 0-5.18 3.693-5.43 5.298-.251 1.604 1.932 2.764 4.444 2.919 2.512.155 8.038-1.547 9.1-2.842a5.28 5.28 0 00.272-4.795z"/><path fill="#a0685b" d="M204.14 234.555a7.622 7.622 0 01-.637 3.365 5.566 5.566 0 01-2.435 2.28 9.657 9.657 0 01-7.149.697 1.391 1.391 0 01-.83-.484 1.296 1.296 0 01-.156-.715 5.395 5.395 0 011.933-3.364 11.734 11.734 0 002.589-2.958c1.082-2.223.27-8.1 4.444-7.154 3.382.735 2.242 5.84 2.242 8.333z"/><path fill="#df2c2c" d="M204.69 238.524s.579 1.45-.136 2.3c-.715.851-8.212 5.51-13.255 1.76-5.044-3.75 6.82-4.234 6.82-4.234z"/><path fill="#fff" d="M204.392 235.123a1.082 1.082 0 00-1.352.348 4.405 4.405 0 01-4.02 1.45c-1.642-.406-2.299-2.301-3.11-2.301-.812 0-5.18 3.693-5.43 5.297-.251 1.605 1.932 2.765 4.444 2.92 2.512.155 8.038-1.547 9.1-2.842a5.281 5.281 0 00.368-4.872z"/><path fill="#473f47" d="M207.078 172.941s.793 42.844-2.396 57.151l-8.038.986-5.584-58.678z"/><path fill="#473f47" d="M182.21 168.26s-3.864 23.2.812 60.225l8.038 1.005 5.584-58.736z"/><path fill="#fff" d="M172.78 149.818c0 1.547.6 2.9 1.933 3.345h.348c2.473.502 5.796-1.392 7.98-3.036.933-.68 1.83-1.41 2.686-2.185V131.47l-12.019 12.316a19.17 19.17 0 00-.927 6.032z"/><path fill="#fff" d="M182.89 150.183v2.32c0 4.293.986 8.7-.29 12.896a4.759 4.759 0 00-.347 2.862 3.556 3.556 0 001.797 1.72 35.942 35.942 0 0012.366 3.287c3.189.445 7.73 1.392 10.686-.329a5.395 5.395 0 002.087-3.46 64.847 64.847 0 001.932-13.534c0-.6 0-1.18.116-1.779.245-4.099.328-8.197.251-12.296 0-2.958-.29-6.187-2.222-8.43a21.25 21.25 0 00-11.362-5.665 13.518 13.518 0 00-3.748-.193 15.298 15.298 0 00-5.044 1.72 8.406 8.406 0 00-4.483 3.578 25.26 25.26 0 00-2.106 6.766 24.742 24.742 0 00-.116 6.651c.116 1.102.387 2.166.503 3.248-.02.232-.02.426-.02.638z"/><path fill="#020202" d="M200.394 174.394c1.237.367 4.097-.773 5.044-.928.56-.116 1.082-.387 1.642-.522 2.84-.715 3.169-8.662 3.44-10.808a148.358 148.358 0 001.932-17.207 18.744 18.744 0 00-.754-6.477 7.465 7.465 0 00-4.231-4.717c-3.614-1.315-4.696 10.13-5.198 12.509l-2.705 12.915a29.557 29.557 0 00-.754 4.833c.067 1.99.479 3.952 1.217 5.8.329 1.122-.58 3.287-.135 4.119a.715.715 0 00.502.483z" opacity=".1"/><path fill="#a0685b" d="M191.683 124.356c.456.49 1.073.799 1.739.87a9.81 9.81 0 001.68 0h.33a.27.27 0 01.328.29c.096 1.12.096 2.245 0 3.364v.619a1.18 1.18 0 000 .638c.163.226.404.384.676.444.493.16 1.008.245 1.527.252a6.761 6.761 0 003.091-1.083 29.97 29.97 0 01.31-5.8c.576-2.4.861-4.86.85-7.328a4.95 4.95 0 00-1.025-2.687 4.868 4.868 0 00-3.652-1.315 9.29 9.29 0 00-5.004 1.373 1.933 1.933 0 00-.754 1.489 48.282 48.282 0 00-.444 2.919 36.074 36.074 0 00-.213 3.364 3.965 3.965 0 00.56 2.59z"/><path fill="#473f47" d="M193.656 114.517l.27.096c.238.109.494.168.754.174a.715.715 0 00.638-.348.503.503 0 00.155.503c.146.121.317.207.502.251.305.116.623.194.947.232.316.025.632-.064.889-.25.212.27.56.405.772.676.282.337.499.724.638 1.14.28.828.28 1.725 0 2.553.483.174.58-.677.947-1.044.367-.368 1.198.135 1.256.734a3.713 3.713 0 01-.522 1.702c-.309.696-.811 4.717.986 3.306.326-.31.56-.705.676-1.14l1.024-2.843a.773.773 0 00.85-.406.812.812 0 00-.232-.928.965.965 0 001.45-1.16 1.082 1.082 0 00.927-1.063 1.102 1.102 0 00-.985-1.006 1.314 1.314 0 00-.89-2.475 2.244 2.244 0 00-.753-2.706 3.071 3.071 0 00-1.932-.735h-.503c-.096 0-.135-.329-.193-.406a1.294 1.294 0 00-1.494-.532 1.353 1.353 0 00-.593.377 2.166 2.166 0 00-1.449-1.488 1.564 1.564 0 00-1.797.83 3.729 3.729 0 00-1.352-.811 1.777 1.777 0 00-.89-.116 1.7 1.7 0 00-1.197 1.392c-.135 0-.29 0-.445-.097a.676.676 0 00-.792.503.87.87 0 00.367.909 1.14 1.14 0 00-.56.522c-.097.232 0 .58.31.58a.87.87 0 00.695 1.566.58.58 0 00-.464.406 1.335 1.335 0 000 .618.213.213 0 000 .155.212.212 0 00.174 0c.406 0 .889 0 1.101-.27 0 .173.155.309.329.367z"/><path fill="#7d443c" d="M195.097 125.191h.328a.27.27 0 01.329.29c.096 1.12.096 2.245 0 3.364a4.502 4.502 0 003.11-4.775c-1.244.511-2.54.887-3.864 1.121z"/><path fill="#fff" d="M162.76 145.626a23.658 23.658 0 005.797 5.8 11.589 11.589 0 005.43 1.934c.248.05.504.05.753 0 .415-.123.78-.373 1.043-.716a6.014 6.014 0 001.392-3.44c.135-3.288-3.44-5.221-3.44-5.221s-8.231-2.784-9.12-2.359c-.522.232-1.024 1.373-1.372 2.378a15.956 15.956 0 00-.483 1.624z"/><path fill="#020202" d="M162.76 145.622a23.658 23.658 0 005.797 5.8 11.59 11.59 0 005.43 1.934c.248.05.504.05.753 0h.348c2.473.502 5.797-1.392 7.98-3.036l-.773-4.95a19.517 19.517 0 01-5.1 3.867 7.108 7.108 0 01-4.368.813 4.327 4.327 0 01-1.179-.348 38.392 38.392 0 01-8.366-5.472c-.329.6-.522 1.392-.522 1.392z" opacity=".1"/><path fill="#fff" d="M216.609 150.943a19.091 19.091 0 011.584 9.048c-.54 3.712-3.014 6.825-5.39 9.667-1.933.29-4.31.252-4.986-1.527a4.469 4.469 0 01-.116-1.76l.27-3.866c.222-1.71.13-3.447-.27-5.124a22.49 22.49 0 00-2.879-5.085 19.67 19.67 0 01-2.898-8.951c-.213-2.997 2.048-12.625 6.434-9.667 1.817 1.18 3.44 6.129 4.406 8.12a106.502 106.502 0 013.845 9.145z"/><path fill="#a0685b" d="M206.695 172.328a.967.967 0 00-.154.502c0 .174.212.348.386.271.445 1.373-.483 2.823-.483 4.273a1.2 1.2 0 000 .367.96.96 0 00.329.406 1.758 1.758 0 001.642.097c.52-.249.986-.597 1.372-1.025a6.883 6.883 0 001.932-2.784c.139-.5.23-1.01.27-1.527l.465-3.867c-2.918-.831-4.445 1.044-5.759 3.287zm-43.437-33.859a1.45 1.45 0 00-.425-.677.502.502 0 00-.695 0 1.3 1.3 0 00-.136.464.89.89 0 01-.87.542 2.588 2.588 0 01-1.062-.252 26.112 26.112 0 00-2.956-.908 1.14 1.14 0 00-.715 0 1.005 1.005 0 00-.503.618 3.869 3.869 0 00.619 3.635 6.086 6.086 0 003.188 2.088 14.69 14.69 0 003.865.56c.32.052.648.012.946-.115 1.488-.928-.85-4.95-1.256-5.955z"/></svg>