<svg xmlns="http://www.w3.org/2000/svg" width="309" height="240"><defs><linearGradient id="a" x1="169.46" x2="197.33" y1="143.47" y2="404.55" gradientUnits="userSpaceOnUse"><stop offset=".01"/><stop offset=".08" stop-opacity=".69"/><stop offset=".21" stop-opacity=".32"/><stop offset="1" stop-opacity="0"/></linearGradient><linearGradient id="b" x1="11717.77" x2="10276.59" y1="4776.73" y2="8964.18" gradientUnits="userSpaceOnUse"><stop offset=".01"/><stop offset=".08" stop-opacity=".69"/><stop offset=".21" stop-opacity=".32"/><stop offset="1" stop-opacity="0"/></linearGradient><linearGradient id="c" x1="-34461.92" x2="-34460.95" y1="105.77" y2="114.3" gradientUnits="userSpaceOnUse"><stop offset="0" stop-color="#fff"/><stop offset="1" stop-color="#cbcbcb"/></linearGradient><linearGradient id="d" x1="-5196.19" x2="-5197.71" y1="713.62" y2="728.63" gradientUnits="userSpaceOnUse"><stop offset="0" stop-color="#fff"/><stop offset="1" stop-color="#cbcbcb"/></linearGradient><linearGradient id="e" x1="70.33" x2="-32.26" y1="134.84" y2="222.23" gradientUnits="userSpaceOnUse"><stop offset=".01"/><stop offset=".13" stop-opacity=".69"/><stop offset=".25" stop-opacity=".32"/><stop offset="1" stop-opacity="0"/></linearGradient><linearGradient id="f" x1="-277.65" x2="4768.18" y1="22495.15" y2="8987.37" gradientUnits="userSpaceOnUse"><stop offset=".01"/><stop offset=".13" stop-opacity=".69"/><stop offset=".25" stop-opacity=".32"/><stop offset="1" stop-opacity="0"/></linearGradient><linearGradient id="g" x1="1083.84" x2="1257.04" y1="2756.56" y2="2412.23" gradientUnits="userSpaceOnUse"><stop offset=".01"/><stop offset=".08" stop-opacity=".69"/><stop offset=".21" stop-opacity=".32"/><stop offset="1" stop-opacity="0"/></linearGradient><linearGradient id="h" x1="13358.87" x2="17343.53" y1="1659.98" y2="4691.58" gradientUnits="userSpaceOnUse"><stop offset=".01"/><stop offset=".08" stop-opacity=".69"/><stop offset=".21" stop-opacity=".32"/><stop offset="1" stop-opacity="0"/></linearGradient><linearGradient id="i" x1="6387.16" x2="4222.44" y1="5616.8" y2="6064.13" gradientUnits="userSpaceOnUse"><stop offset=".01"/><stop offset=".08" stop-opacity=".69"/><stop offset=".21" stop-opacity=".32"/><stop offset="1" stop-opacity="0"/></linearGradient><linearGradient id="j" x1="13358.87" x2="17343.53" y1="1963.14" y2="4992.08" gradientUnits="userSpaceOnUse"><stop offset=".01"/><stop offset=".08" stop-opacity=".69"/><stop offset=".21" stop-opacity=".32"/><stop offset="1" stop-opacity="0"/></linearGradient><linearGradient id="k" x1="1268.2" x2="2107.62" y1="4604.2" y2="5302.54" gradientUnits="userSpaceOnUse"><stop offset=".01"/><stop offset=".08" stop-opacity=".69"/><stop offset=".21" stop-opacity=".32"/><stop offset="1" stop-opacity="0"/></linearGradient><linearGradient id="l" x1="4219.4" x2="5469.55" y1="3244.43" y2="2257.98" gradientUnits="userSpaceOnUse"><stop offset=".01"/><stop offset=".08" stop-opacity=".69"/><stop offset=".21" stop-opacity=".32"/><stop offset="1" stop-opacity="0"/></linearGradient><linearGradient id="m" x1="-65257.61" x2="-67110.35" y1="10336.92" y2="12812.12" gradientUnits="userSpaceOnUse"><stop offset=".01"/><stop offset=".08" stop-opacity=".69"/><stop offset=".21" stop-opacity=".32"/><stop offset="1" stop-opacity="0"/></linearGradient><linearGradient id="n" x1="-15797.62" x2="-15527.54" y1="9874.25" y2="11733.8" gradientUnits="userSpaceOnUse"><stop offset=".01"/><stop offset=".08" stop-opacity=".69"/><stop offset=".21" stop-opacity=".32"/><stop offset="1" stop-opacity="0"/></linearGradient><linearGradient id="o" x1="-60146.29" x2="-59920.85" y1="2255.21" y2="1842.9" gradientUnits="userSpaceOnUse"><stop offset=".01"/><stop offset=".08" stop-opacity=".69"/><stop offset=".21" stop-opacity=".32"/><stop offset="1" stop-opacity="0"/></linearGradient><linearGradient id="p" x1="-38602.7" x2="-38380.84" y1="2920.5" y2="3476.48" gradientUnits="userSpaceOnUse"><stop offset=".01"/><stop offset=".08" stop-opacity=".69"/><stop offset=".21" stop-opacity=".32"/><stop offset="1" stop-opacity="0"/></linearGradient><linearGradient id="q" x1="-12421.5" x2="-12575.26" y1="8873.07" y2="9148.51" gradientUnits="userSpaceOnUse"><stop offset=".01"/><stop offset=".08" stop-opacity=".69"/><stop offset=".21" stop-opacity=".32"/><stop offset="1" stop-opacity="0"/></linearGradient><linearGradient id="r" x1="-59991.25" x2="-58763.56" y1="5283.22" y2="6342.26" gradientUnits="userSpaceOnUse"><stop offset=".01"/><stop offset=".08" stop-opacity=".69"/><stop offset=".21" stop-opacity=".32"/><stop offset="1" stop-opacity="0"/></linearGradient></defs><path fill="#df2c2c" d="M135.79 34.741c-17.347 14.47-31.265 32.857-49.704 45.867C69.045 92.64 48.484 99.863 33.82 114.69a67.55 67.55 0 00.082 95.061c17.53 17.674 43.46 24.327 68.306 25.643 24.847 1.316 49.786-1.959 74.643-.622 23.52 1.265 46.939 6.653 70.408 4.857 23.47-1.796 48.357-12.847 57.643-34.49 10.265-23.949-1.5-50.898-9.612-75.663a267.706 267.706 0 01-12.082-57.663C280.392 42.486 275.218 1.76 238.31.138A152.224 152.224 0 00135.79 34.74z" opacity=".18"/><path fill="url(#a)" d="M241.688 208.535c-55.724 7.143-112.183 1.653-168.367 1.816-4.082 0-9.643 1.694-9 5.704 32.653 7.714 66.561 8.316 100.133 8.888l61.092 1.02c13.969.235 27.949.47 41.836-.316 5.194-.296 10.521-.776 15.204-3.061 13.153-6.429 6.633-14.888-4.714-16.327-11.99-1.51-24.255.745-36.184 2.276z"/><path fill="#df2c2c" d="M160.37 52.93c0-6.541 5.796-11.858 12.939-11.868l69.143-.102c7.143-.02 12.938 5.276 12.938 11.816v151.235c0 6.531-5.795 11.857-12.938 11.857l-69.143.102c-7.143.01-12.939-5.275-12.939-11.816zm6.592 150.908c0 4.03 3.571 7.285 7.98 7.285l67.183-.112c4.408-.01 7.98-3.275 7.98-7.306V52.94c0-4.031-3.572-7.286-7.98-7.286h-10.061v.898a4.919 4.919 0 01-5.102 4.673l-37.174.062a4.898 4.898 0 01-5.102-4.664v-.898h-9.745c-4.408 0-7.98 3.276-7.98 7.306z"/><path fill="#fff" d="M157.11 56.03c0-6.531 5.796-11.848 12.939-11.858l69.153-.112c7.143-.01 12.939 5.286 12.939 11.826v151.225c0 6.541-5.796 11.857-12.94 11.857l-69.152.112c-7.143.011-12.939-5.275-12.939-11.816zm6.653 150.948c0 4.031 3.561 7.286 7.97 7.286l67.132-.143c4.398-.01 7.97-3.285 7.97-7.306V56.091c0-4.031-3.572-7.286-7.97-7.286h-10.071v.888a4.919 4.919 0 01-5.102 4.683h-37.164a4.888 4.888 0 01-5.102-4.653v-.898h-9.745c-4.408.01-7.969 3.235-7.969 7.317z"/><path fill="#df2c2c" d="M163.71 56.098v150.836c0 4.082 3.561 7.296 7.97 7.286l67.193-.102c4.398 0 7.97-3.286 7.97-7.306V56.006c0-4.082-3.572-7.296-7.97-7.286h-10.071v.888a4.918 4.918 0 01-5.102 4.683h-37.163a4.888 4.888 0 01-5.102-4.653v-.898h-9.705c-4.459.092-8.02 3.368-8.02 7.358z"/><path fill="#fff" d="M237.093 95.16H177.45v14.571h59.643zm0-21.51H177.45v14.571h59.643z" opacity=".28"/><path fill="url(#b)" d="M207.57 103.13v.929l31.51 22.918s.582 5.398 1.429 6.04a21.939 21.939 0 004.153 1.633v3.582l7.52 5.214 2.378.817v-7.551l-10.286-8.164-3.214-3.673-1.245 1.02z"/><path fill="url(#c)" d="M200.06 51.071l12.765-.02V50.01l-12.765.02z"/><path fill="url(#d)" d="M196.688 49.12c-.767 0-1.388.571-1.388 1.276 0 .704.621 1.275 1.388 1.275.766 0 1.388-.571 1.388-1.275 0-.705-.622-1.276-1.388-1.276z" transform="rotate(179.44 197 50.5)"/><path fill="#df2c2c" d="M0 137.24c.061 2.561 1.337 4.918 2.592 7.143 5.735 10.133 12.173 20.122 21.071 27.643 13.061 11.06 30.184 15.826 46.715 20.296-1.48-.725-3.266-8.337-3.919-10.01-1.275-3.286-2.47-6.592-3.704-9.888-1.939-5.215-6.02-9.408-9.99-13.266a79.203 79.203 0 00-31.857-18.694A75.266 75.266 0 000 137.24z"/><path fill="url(#e)" d="M0 137.24c.061 2.561 1.337 4.918 2.592 7.143 5.735 10.133 12.173 20.122 21.071 27.643 13.061 11.06 30.184 15.826 46.715 20.296-1.48-.725-3.266-8.337-3.919-10.01-1.275-3.286-2.47-6.592-3.704-9.888-1.939-5.215-6.02-9.408-9.99-13.266a79.203 79.203 0 00-31.857-18.694A75.266 75.266 0 000 137.24z"/><path fill="#df2c2c" d="M64.67 142.915c-1.346-9.428-2.734-19-6.53-27.735-3.796-8.734-10.377-16.693-19.306-20.02-.252 13.51-.51 27.02-.775 40.53-.143 7.807-.276 15.756 1.959 23.235 3.918 13.092 17.55 28.47 30.694 32.796 1.949-6.296-1.317-15.826-2.245-22.367z"/><path fill="url(#f)" d="M64.67 142.915c-1.346-9.428-2.734-19-6.53-27.735-3.796-8.734-10.377-16.693-19.306-20.02-.252 13.51-.51 27.02-.775 40.53-.143 7.807-.276 15.756 1.959 23.235 3.918 13.092 17.55 28.47 30.694 32.796 1.949-6.296-1.317-15.826-2.245-22.367z"/><path fill="#ffbbab" d="M115.518 123.677c-.46 0-.745-.49-.857-.939a2.04 2.04 0 00-.551-1.225c-.184-.142-.45-.234-.52-.459a.623.623 0 010-.306 3.633 3.633 0 011.938-2.408c.49.429 1.235.418 1.704.867a5.735 5.735 0 011.122 1.898l4.572 10.857 1.428 3.388a8.44 8.44 0 01.909 3.48 2.908 2.908 0 01-1.898 2.806 2.693 2.693 0 01-2.255-.53 5.214 5.214 0 01-1.45-1.899c-1.183-2.387-1.357-5.102-1.714-7.785-.357-2.684-.612-5.786-2.428-7.745z"/><path fill="#ffbbab" d="M115.084 132.208a1.02 1.02 0 00-.806-.215.847.847 0 00-.378.276 4.816 4.816 0 00-1.02 4.234c.107.64.397 1.237.837 1.715.485.424 1.05.747 1.663.949l4.918 1.959c.372.188.79.265 1.204.224a1.694 1.694 0 001.02-.816 3.95 3.95 0 00.409-3.347c-.918-2.867-5.49-3.592-7.847-4.98z"/><path fill="#df2c2c" d="M109.94 125.61l3.908 3.714 2.847 2.704c.643.613 1.46 1.164 1.725 2.041a5.5 5.5 0 01-.327 3.715 16.397 16.397 0 00-1.337 3.887c0-.49-1.56-1.622-1.908-1.898-.755-.592-1.55-1.112-2.306-1.694-.755-.581-1.694-1.183-1.96-1.938a6.898 6.898 0 01-.07-1.47l-.5-7.857z"/><path fill="url(#g)" d="M109.94 125.61l3.908 3.714 2.847 2.704c.643.613 1.46 1.164 1.725 2.041a5.5 5.5 0 01-.327 3.715 16.397 16.397 0 00-1.337 3.887c0-.49-1.56-1.622-1.908-1.898-.755-.592-1.55-1.112-2.306-1.694-.755-.581-1.694-1.183-1.96-1.938a6.898 6.898 0 01-.07-1.47l-.5-7.857z"/><path fill="#df2c2c" d="M165.873 173.567a9.98 9.98 0 00-2.938 7.082 9.845 9.845 0 00.857 4.081 10 10 0 006.592 5.654v2.295H49.71a11.99 11.99 0 010-23.969h120.674v2.296a9.985 9.985 0 00-4.511 2.561z"/><path fill="url(#h)" d="M170.391 190.343v2.296H49.717a11.96 11.96 0 01-11.357-8.163c4.582.806 33.602 5.428 49.755-3.786l75.684 4.082a9.997 9.997 0 006.592 5.571z"/><path fill="#fff" d="M165.875 173.569a10.02 10.02 0 004.51 16.775v.337H98.14a10.02 10.02 0 110-20.041h72.245v.327a9.98 9.98 0 00-4.51 2.602z"/><path fill="#ffbbab" d="M151.869 187.288c.43.185.899.269 1.367.245l7.143.173c.193.01.386-.01.572-.061a1.122 1.122 0 00.602-1.153 2.918 2.918 0 00-2.419-2.419 20.847 20.847 0 00-3.663-.224 3.204 3.204 0 01-2.561-1.286c-.562-.704-1.235-1.428-2.164-.755-1.459 1.112-.265 4.735 1.123 5.48z"/><path fill="#473f47" d="M116.04 154.977s19.949-.622 24.908 1.46c4.96 2.081 12.663 26.04 12.663 26.04l-4.163 1.592s-7.082-14.918-9.408-16.255c-2.327-1.337-27.255-6.235-27.255-6.235s-1.908-1.459 3.255-6.602z"/><path fill="url(#i)" d="M116.04 154.977s19.949-.622 24.908 1.46c4.96 2.081 12.663 26.04 12.663 26.04l-4.163 1.592s-7.082-14.918-9.408-16.255c-2.327-1.337-27.255-6.235-27.255-6.235s-1.908-1.459 3.255-6.602z"/><path fill="#df2c2c" d="M165.873 197.527a9.989 9.989 0 00-2.939 7.143 9.84 9.84 0 00.857 4.03 9.974 9.974 0 006.592 5.653v2.296H49.71a11.98 11.98 0 010-23.959h120.673v2.286a10.07 10.07 0 00-4.51 2.55z"/><path fill="url(#j)" d="M170.391 214.263v2.296H49.717a11.96 11.96 0 01-11.357-8.163c4.582.806 33.602 5.428 49.755-3.776l75.684 4.03a9.959 9.959 0 006.592 5.613z"/><path fill="#fff" d="M165.875 197.53a10.02 10.02 0 004.51 16.734v.337H98.14a10.02 10.02 0 110-20.041h72.245v.327a10.072 10.072 0 00-4.51 2.642z"/><path fill="#ffbbab" d="M146.399 194.281c.391 0 .78.061 1.153.184a1.02 1.02 0 01.694.857 1.163 1.163 0 01-.592.929c-.327.204-.694.326-1.02.54a6.347 6.347 0 01-.868.613c-.55.16-1.138.135-1.673-.072a22.132 22.132 0 00-7.643-.48 3.076 3.076 0 01-.755 0 2.224 2.224 0 01-1.52-1.53 10.888 10.888 0 01-.45-4.836 1.08 1.08 0 01.133-.51.888.888 0 01.378-.297c2.428-1.204 3.755 1.194 5.53 2.358a13.52 13.52 0 006.633 2.244z"/><path fill="#473f47" d="M102.51 156.228s-.602 9.061 7.49 11.796c5.612 1.888 12.061 1.54 17.867 1.02 1.02-.092 2.143-.336 3.184-.326 2.04 0 1.622 1.347 1.602 3.061 0 4.34-.037 8.677-.112 13.01a15.306 15.306 0 00.949 6.694l5.97-1.592c-.161-6.28.2-12.564 1.08-18.785.389-2.694.97-6.062-.836-8.358a13.908 13.908 0 00-6.663-4.316l-16.164-5.102z"/><path fill="#ffbbab" d="M114.154 114.626c.296.5.909.796 1.113 1.358.204.56-.225 1.347-.47 2.04-.326.929-.224 1.97-.55 2.909a1.12 1.12 0 01-.327.53 1.348 1.348 0 01-.5.194c-.691.143-1.4.184-2.102.123a.612.612 0 00-.408 0 .582.582 0 00-.184.357c-.407 1.769-.38 3.61.082 5.367.153.571.316 1.286-.113 1.694-.148.144-.336.24-.54.275-1.337.327-2.623-.663-3.531-1.694a15.645 15.645 0 01-2.04-3.06 2.908 2.908 0 01-.358-1.021c-.025-.428.03-.858.163-1.265.38-1.463.612-2.96.694-4.47.102-1.928 0-3.939.694-5.724a3.061 3.061 0 011.173-1.5 3.878 3.878 0 012.041-.337 5.5 5.5 0 013.898 1.275c.317.337.888 2.327 1.265 2.95z"/><path fill="#df2c2c" d="M116.046 154.982a8.237 8.237 0 01-3.123 1.705c-.816.285-1.653.55-2.5.816-1.2.361-2.373.808-3.51 1.337-1.204.398-2.102.694-2.786.898a19.51 19.51 0 01-1.877.56c.062-.034.127-.065.194-.091 0 0-.409-1.806-1.02-4.337-1.021-4.653-2.736-11.724-3.562-14.367a15.01 15.01 0 01-.296-5.102c.418-5.612 2.643-12.939 6.724-12.47 0 0 5.776 2.99 7.52 5.317 1.593 2.153 3.715 3.775 3.736 6.684.05 4.081-1.653 7.908-1.327 12.132.006.616.16 1.222.449 1.765.49.766 1.46 1.133 1.939 1.898a2.755 2.755 0 01-.561 3.255z"/><path fill="url(#k)" d="M109.657 154.17a4.53 4.53 0 01.766 3.327 2.04 2.04 0 01-.613 1.02 3.715 3.715 0 01-1.663.695 21.27 21.27 0 01-4.02.52h-1.44a7.429 7.429 0 00-1.234-3.888c-1.02-4.653-2.735-11.724-3.561-14.367a15.01 15.01 0 01-.296-5.102 12.55 12.55 0 001.694-2.816c.306-.796.816-1.664 1.673-1.725.857-.061 1.357.572 1.827 1.163 2.918 3.725 5.05 8.327 7.612 12.327.132.17.207.377.214.592a.908.908 0 01-.398.54c-1.102.919-2.275 2.041-2.398 3.45-.122 1.408 1 2.928 1.837 4.265z"/><path fill="#ffbbab" d="M106.734 149.633c.185.552.461 1.069.816 1.53a5.173 5.173 0 003.5 1.45c1.499.154 3.004.232 4.51.234 1.02 0 2.633-.49 3.49.327.204.204.357.449.572.642.564.434 1.27.642 1.98.582a15.306 15.306 0 004.57-.612.346.346 0 00.245-.561 8.532 8.532 0 00-1.326-2.48 3.163 3.163 0 00-2.439-1.214c-.488.056-.97.159-1.439.306a10.19 10.19 0 01-4.265-.286 12.48 12.48 0 01-4.582-1.571 3.582 3.582 0 01-.928-1.164 19.53 19.53 0 01-1.53-3.806c-.154-.51-.378-1.092-.888-1.265a1.46 1.46 0 00-1.102.194 5.48 5.48 0 00-2.776 2.867c-.378 1.306 1.071 3.551 1.592 4.827z"/><path fill="#df2c2c" d="M106.547 131.507s3.643 9.857 4.358 10.582c.714.724-7.02 5.102-7.02 5.102s-5.042-9.592-4.807-13.745c.235-4.153 4.622-5.857 7.47-1.939z"/><path fill="#fc682d" d="M112.3 111.519a3.99 3.99 0 01-1.276 2.469c-.683.643-1.53 1.071-2.234 1.694a2.775 2.775 0 00-1.123 2.429 1.264 1.264 0 00-1.53.5 1.02 1.02 0 00.163 1.02 1.266 1.266 0 001.02.428 3.99 3.99 0 00-1.806 1.45c-1.132 1.683-2.449 2.948-2.04 5.193.306 1.5 1.112 2.857 1.54 4.327a9.001 9.001 0 01-9.183 11.5c-2.715-.153-5.541-1.918-5.98-4.602-.49-3.061 2.122-5.765 2.418-8.837.153-1.663-.377-3.377 0-5 .562-2.245 2.715-3.633 4.347-5.265 3.5-3.52 3.52-9.337 9.041-10.817 2.571-.622 6.898.133 6.643 3.51z"/><path fill="#df2c2c" d="M123.114 153.148l6.438-16.378h17.02l-8.56 19.674-26.072-.98.837-1.582z"/><path fill="url(#l)" d="M123.114 153.148l6.438-16.378h17.02l-8.56 19.674-26.072-.98.837-1.582z"/><path fill="#df2c2c" d="M159.49 183.655a2.5 2.5 0 00-2.46.327c-.346.347-.52.826-.867 1.173a2.786 2.786 0 01-1.734.592c-.997.073-1.998.018-2.98-.163a1.02 1.02 0 00-.49 0 .684.684 0 00-.418.663c.02.278.096.549.224.796.145.405.403.76.745 1.02.344.175.727.256 1.112.235a55.55 55.55 0 007.929-.184 2.857 2.857 0 001.796-.694c1.47-1.51-1.714-3.398-2.857-3.765zm-16.531 9.18h-1.02a1.163 1.163 0 00-.378 0c-.24.1-.442.272-.582.49-.337.429-.643 1.02-1.153 1.235-.466.19-.958.31-1.46.357a11.05 11.05 0 01-3.377-.235 1.02 1.02 0 00-.49 0 .673.673 0 00-.418.664c.02.277.096.548.225.796a2.194 2.194 0 002.214 1.602h4.163c1.286 0 2.572 0 3.857-.051a10.43 10.43 0 002.572-.368 2.796 2.796 0 001.48-.928 1.347 1.347 0 000-1.643 2.041 2.041 0 00-.919-.5l-2.704-.939a9.61 9.61 0 00-1.582-.449z"/><path fill="#ffbbab" d="M248.124 125.698h-.072a4.081 4.081 0 01-.846-.837 9.5 9.5 0 00-2.643-2.295c-.419-.245-1.02-.44-1.347-.072-.113.123-.164.296-.286.408-.286.266-.745.092-1.071-.112-.327-.204-.745-.429-1.082-.224a.796.796 0 00-.306.663 3.54 3.54 0 00.55 1.663c.489.979 1.048 1.92 1.674 2.816a1.694 1.694 0 001.541.858 5.737 5.737 0 012.776.714c.16.153.363.256.581.296.623.06.837-1.857.939-2.296.051-.214.327-.929.225-1.143-.103-.214-.43-.327-.633-.439z"/><path fill="#df2c2c" d="M264.41 163.412l.99 49h6.643l1.918-38.939 4.184 38.939 7.612 1.275 1.745-51.877z"/><path fill="url(#m)" d="M264.41 163.412l.99 49h6.643l1.918-38.939 4.184 38.939 7.612 1.275 1.745-51.877z"/><path fill="url(#n)" d="M281.2 211.647v-45.419l6.296-4.418-2.122 50.602z"/><path fill="#df2c2c" d="M246.33 131.33l.143.123c1.418 1.225 12.571 10.827 14.286 10.266a52.509 52.509 0 006.653-3.602l.56-.337v-13.49l-7 8.347-12.377-7.296z"/><path fill="url(#o)" d="M246.47 131.454c1.418 1.224 12.571 10.826 14.286 10.265a52.499 52.499 0 006.653-3.602c.07-.548.093-1.101.071-1.653 0-1.194.418-4.082-1.418-3.388-1.49.571-2.572 2.5-4.082 3.225-.472.423-1.057.7-1.684.795-1.02.062-1.836-.765-2.55-1.49a30.347 30.347 0 00-8.623-6.203.867.867 0 00-.46-.123.837.837 0 00-.458.306c-.572.633-1.153 1.255-1.735 1.868z"/><path fill="#df2c2c" d="M282.571 120.06a58.39 58.39 0 015.174 2.929c3.55 2.275 2.918 3.326 2.265 7.255a154.73 154.73 0 00-2.04 25.408 22.227 22.227 0 01-.44 6.122c-.367 1.266-1.214 2.327-1.316 3.663-5.48.756-18.02 3.572-21.775-2.04-3.592-5.388 2.877-24.49 1.673-33.041-1.204-8.551 9.816-9.46 9.816-9.46z"/><path fill="url(#p)" d="M275.022 159.339l9.928 6.704 1.623-2.041a36.542 36.542 0 001.326-10.612c-.234-5.347 0-3.439 0-3.439l-13.969 8.837z"/><path fill="#ffbbab" d="M270.073 111.779a11.71 11.71 0 00.102 1.694 10.673 10.673 0 001.357 3.296c.164.357.408.671.714.918a2.765 2.765 0 002.04.163c.162-.035.33-.035.49 0 .388.153.44.684.419 1.102l-.112 1.95a1.25 1.25 0 00.132.775c.135.163.317.28.52.336a4.183 4.183 0 004.195-.949c.271-.252.493-.553.653-.887.131-.326.214-.67.245-1.02.234-1.868 0-3.756.173-5.623.242-1.543.287-3.11.133-4.663a5.101 5.101 0 00-3-3.796 7.633 7.633 0 00-4.929.112c-.778.219-1.544.477-2.296.775a1.52 1.52 0 00-.887.643c-.296.602 0 1.47 0 2.113.071 1.03.05 2.05.05 3.06z"/><path fill="#963637" d="M283.162 104.792c-1.47-2.204-4.898-2.244-7.286-2.56a1.949 1.949 0 01-.959-.317.643.643 0 01-.122-.918l-1.817 1.02v-1.347c-.623.493-1.28.94-1.969 1.337v-1.204a5.102 5.102 0 00-1.776 5.418c.582 2.04 3.664 2.255 5.388 2.163.475-.04.953-.04 1.429 0a2.04 2.04 0 011.245.613 4.49 4.49 0 01.622 2.132.265.265 0 00.051.123c.03.004.062.004.092 0 .53.06 1.02-.562 1.51-.347a.776.776 0 01.398.663c.038.326-.008.656-.133.96a1.02 1.02 0 00-.122.377.775.775 0 00.061.255l.337.928c.087.343.293.643.582.847a1.378 1.378 0 001.275-.255c.266-.135.5-.326.684-.561a1.98 1.98 0 00.245-.673 31.07 31.07 0 00.55-7.02 3.937 3.937 0 00-.285-1.634z"/><path fill="#fff" d="M280.838 119.17s1.52 1.02 1.48 2.214c-.041 1.194-8.286 24.388-8.286 24.388s-.184-22.235 0-23.265a16.97 16.97 0 011.112-2.919s3.296 2.388 5.694-.418z"/><path fill="#212741" d="M278.144 121.27l.55 1.796-.928.786-.449 12.602-3.275 9.316-.082-9.47 2.816-12.51-1.03-1.765 1.357-.755z"/><path fill="#df2c2c" d="M272.04 154.056a21.622 21.622 0 003.286 3.337l.755.602c.274.238.61.394.97.45.247-.006.49-.065.714-.174 4.8-1.869 9.503-3.977 14.091-6.316 1.929-1.02 4.031-2.276 4.44-4.398a6.724 6.724 0 00-.052-2.215 64.165 64.165 0 00-4.173-15.622c-.582-1.419-1.296-4.153-2.817-5.102l-.183-.092-.215-.102c-2.04-.735-3.816 1.306-4.377 3.061a13.815 13.815 0 00.235 7.612 46.235 46.235 0 011.744 7.5 2.04 2.04 0 01-.102 1.02 2.347 2.347 0 01-.785.797z"/><path fill="#212741" d="M272.043 212.41l-.358 3.613-2.275.418-1.02-.898-1.756 1.378h-6.826s-1.735-2.99 2.04-4.01l3.766-1.021zm13.329 0l-.357 3.613-2.276.418-1.02-.898-1.735 1.378h-6.826s-1.735-2.99 2.04-4.01l3.766-1.021z"/><path fill="url(#q)" d="M273.964 173.47l-3.051-2.48-2.153 40.898 3.286.52z"/><path fill="url(#r)" d="M275.33 157.4l.755.602c.275.238.61.393.97.449.247-.006.491-.065.714-.174 4.8-1.868 9.503-3.976 14.092-6.316 1.928-1.02 4.03-2.275 4.438-4.398a6.724 6.724 0 00-.05-2.214 64.165 64.165 0 00-4.174-15.623c-.582-1.418-1.296-4.153-2.816-5.102l-.184-.092-.214-.102a4.572 4.572 0 00-4.378 3.062s7.265 14.857 6.95 17.102c-.317 2.245-15.562 9.47-15.562 9.47z"/><path fill="#ffbbab" d="M268.673 155.301c-.398.1-.77.285-1.091.541a1.092 1.092 0 00-.347 1.102c.12.23.26.448.418.653.194.347.224.786.398 1.143.351.544.894.938 1.52 1.102 1.817.653 4.03.745 5.5-.51 1.02-.908 3.204-4.674.847-5.245a9.235 9.235 0 00-2.98.306 26.439 26.439 0 00-4.265.908z"/><path fill="#fff" d="M207.876 102.8l-.306.337 44.245 27.132.326-.734z"/><path fill="#ffbbab" d="M240.49 123.452a1.374 1.374 0 01.153-.97 1.163 1.163 0 01.939-.377c.168-.014.338.003.5.05.367.133.582.5.816.817a1.6 1.6 0 00.255.265c.13.086.271.155.419.204.209.065.408.158.592.276.283.215.519.486.694.796.171.247.318.51.438.786.134.358.193.74.174 1.122a.571.571 0 01-.092.367.54.54 0 01-.367.174 2.53 2.53 0 01-1.592-.408c-.48-.286-.908-.664-1.357-1.02a3.061 3.061 0 01-1.572-2.082z"/></svg>