<svg xmlns="http://www.w3.org/2000/svg" width="353" height="274"><defs><linearGradient id="a" x1="193.47" x2="225.28" y1="163.8" y2="461.81" gradientUnits="userSpaceOnUse"><stop offset=".01"/><stop offset=".08" stop-opacity=".69"/><stop offset=".21" stop-opacity=".32"/><stop offset="1" stop-opacity="0"/></linearGradient><linearGradient id="b" x1="13378.55" x2="11733.1" y1="5453.8" y2="10234.8" gradientUnits="userSpaceOnUse"><stop offset=".01"/><stop offset=".08" stop-opacity=".69"/><stop offset=".21" stop-opacity=".32"/><stop offset="1" stop-opacity="0"/></linearGradient><linearGradient id="c" x1="-39319.37" x2="-39318.26" y1="120.74" y2="130.48" gradientUnits="userSpaceOnUse"><stop offset="0" stop-color="#fff"/><stop offset="1" stop-color="#cbcbcb"/></linearGradient><linearGradient id="d" x1="-5924.89" x2="-5926.61" y1="814.4" y2="831.52" gradientUnits="userSpaceOnUse"><stop offset="0" stop-color="#fff"/><stop offset="1" stop-color="#cbcbcb"/></linearGradient><linearGradient id="e" x1="80.29" x2="-36.83" y1="153.95" y2="253.71" gradientUnits="userSpaceOnUse"><stop offset=".01"/><stop offset=".13" stop-opacity=".69"/><stop offset=".25" stop-opacity=".32"/><stop offset="1" stop-opacity="0"/></linearGradient><linearGradient id="f" x1="-316.95" x2="5443.44" y1="25682.12" y2="10260.64" gradientUnits="userSpaceOnUse"><stop offset=".01"/><stop offset=".13" stop-opacity=".69"/><stop offset=".25" stop-opacity=".32"/><stop offset="1" stop-opacity="0"/></linearGradient><linearGradient id="g" x1="1237.74" x2="1435.54" y1="3147.87" y2="2754.66" gradientUnits="userSpaceOnUse"><stop offset=".01"/><stop offset=".08" stop-opacity=".69"/><stop offset=".21" stop-opacity=".32"/><stop offset="1" stop-opacity="0"/></linearGradient><linearGradient id="h" x1="15250.94" x2="19799.97" y1="1894.79" y2="5355.12" gradientUnits="userSpaceOnUse"><stop offset=".01"/><stop offset=".08" stop-opacity=".69"/><stop offset=".21" stop-opacity=".32"/><stop offset="1" stop-opacity="0"/></linearGradient><linearGradient id="i" x1="7291.64" x2="4820.38" y1="6411.81" y2="6922.45" gradientUnits="userSpaceOnUse"><stop offset=".01"/><stop offset=".08" stop-opacity=".69"/><stop offset=".21" stop-opacity=".32"/><stop offset="1" stop-opacity="0"/></linearGradient><linearGradient id="j" x1="15250.94" x2="19799.97" y1="2241.04" y2="5698.69" gradientUnits="userSpaceOnUse"><stop offset=".01"/><stop offset=".08" stop-opacity=".69"/><stop offset=".21" stop-opacity=".32"/><stop offset="1" stop-opacity="0"/></linearGradient><linearGradient id="k" x1="1447.08" x2="2404.86" y1="5256.07" y2="6053.27" gradientUnits="userSpaceOnUse"><stop offset=".01"/><stop offset=".08" stop-opacity=".69"/><stop offset=".21" stop-opacity=".32"/><stop offset="1" stop-opacity="0"/></linearGradient><linearGradient id="l" x1="4817.64" x2="6245.03" y1="3704.6" y2="2578.23" gradientUnits="userSpaceOnUse"><stop offset=".01"/><stop offset=".08" stop-opacity=".69"/><stop offset=".21" stop-opacity=".32"/><stop offset="1" stop-opacity="0"/></linearGradient><linearGradient id="m" x1="-74499.36" x2="-76614.49" y1="11801.38" y2="14627.25" gradientUnits="userSpaceOnUse"><stop offset=".01"/><stop offset=".08" stop-opacity=".69"/><stop offset=".21" stop-opacity=".32"/><stop offset="1" stop-opacity="0"/></linearGradient><linearGradient id="n" x1="-18029.24" x2="-17721" y1="11273.42" y2="13396.47" gradientUnits="userSpaceOnUse"><stop offset=".01"/><stop offset=".08" stop-opacity=".69"/><stop offset=".21" stop-opacity=".32"/><stop offset="1" stop-opacity="0"/></linearGradient><linearGradient id="o" x1="-68661.04" x2="-68403.68" y1="2575.51" y2="2104.64" gradientUnits="userSpaceOnUse"><stop offset=".01"/><stop offset=".08" stop-opacity=".69"/><stop offset=".21" stop-opacity=".32"/><stop offset="1" stop-opacity="0"/></linearGradient><linearGradient id="p" x1="-44070.03" x2="-43816.74" y1="3334.87" y2="3969.75" gradientUnits="userSpaceOnUse"><stop offset=".01"/><stop offset=".08" stop-opacity=".69"/><stop offset=".21" stop-opacity=".32"/><stop offset="1" stop-opacity="0"/></linearGradient><linearGradient id="q" x1="-14189.35" x2="-14364.99" y1="10130.54" y2="10445.01" gradientUnits="userSpaceOnUse"><stop offset=".01"/><stop offset=".08" stop-opacity=".69"/><stop offset=".21" stop-opacity=".32"/><stop offset="1" stop-opacity="0"/></linearGradient><linearGradient id="r" x1="-68488.1" x2="-67086.53" y1="6031.75" y2="7240.84" gradientUnits="userSpaceOnUse"><stop offset=".01"/><stop offset=".08" stop-opacity=".69"/><stop offset=".21" stop-opacity=".32"/><stop offset="1" stop-opacity="0"/></linearGradient></defs><path fill="#e5e5e5" d="M155.019 39.669c-19.804 16.519-35.694 37.511-56.745 52.365-19.455 13.735-42.929 21.983-59.67 38.91a77.118 77.118 0 00.094 108.528c20.014 20.177 49.615 27.773 77.982 29.275 28.367 1.503 56.839-2.236 85.218-.71 26.852 1.444 53.588 7.595 80.382 5.545 26.795-2.05 55.208-14.667 65.809-39.376 11.72-27.342-1.712-58.108-10.974-86.382a305.702 305.702 0 01-13.793-65.832C320.107 48.51 314.2 2.017 272.064.164A173.793 173.793 0 00155.019 39.67z"/><path fill="url(#a)" d="M275.923 238.068c-63.619 8.154-128.077 1.887-192.22 2.073-4.66 0-11.009 1.934-10.275 6.513 37.28 8.807 75.991 9.494 114.318 10.146l69.747 1.165c15.948.268 31.908.536 47.764-.36 5.929-.339 12.01-.886 17.358-3.496 15.016-7.339 7.572-16.996-5.383-18.64-13.688-1.723-27.691.851-41.309 2.599z"/><path fill="#df2c2c" d="M183.09 60.425c0-7.467 6.617-13.537 14.772-13.548l78.938-.117c8.155-.023 14.772 6.023 14.772 13.49v172.66c0 7.456-6.617 13.537-14.772 13.537l-78.938.116c-8.155.012-14.772-6.022-14.772-13.49zm7.526 172.287c0 4.602 4.077 8.318 9.11 8.318l76.701-.128c5.033-.012 9.11-3.74 9.11-8.342V60.437c0-4.602-4.077-8.318-9.11-8.318H264.94v1.025a5.615 5.615 0 01-5.824 5.336l-42.44.07a5.592 5.592 0 01-5.825-5.324V52.2h-11.125c-5.033 0-9.11 3.74-9.11 8.342z"/><path fill="#fff" d="M179.37 63.965c0-7.456 6.617-13.525 14.772-13.537l78.95-.128c8.154-.012 14.771 6.035 14.771 13.502V236.45c0 7.467-6.617 13.537-14.771 13.537l-78.95.128c-8.155.012-14.772-6.023-14.772-13.49zm7.596 172.333c0 4.602 4.065 8.318 9.098 8.318l76.643-.163c5.021-.011 9.098-3.751 9.098-8.341V64.035c0-4.602-4.077-8.318-9.098-8.318H261.21v1.014a5.615 5.615 0 01-5.825 5.347h-42.428a5.58 5.58 0 01-5.825-5.312V55.74h-11.125c-5.033.012-9.099 3.693-9.099 8.353z"/><path fill="#df2c2c" d="M186.91 64.053v172.205c0 4.66 4.066 8.33 9.098 8.318l76.713-.117c5.021 0 9.099-3.751 9.099-8.341V63.948c0-4.66-4.078-8.33-9.099-8.318h-11.498v1.014a5.615 5.615 0 01-5.825 5.347H212.97a5.58 5.58 0 01-5.824-5.312v-1.026h-11.08c-5.09.105-9.156 3.845-9.156 8.4z"/><path fill="#fff" d="M270.682 108.64H202.59v16.636h68.092zm0-24.55H202.59v16.636h68.092z" opacity=".28"/><path fill="url(#b)" d="M236.98 117.74v1.06l35.974 26.165s.664 6.163 1.631 6.897a25.054 25.054 0 004.742 1.864v4.089l8.585 5.953 2.715.932v-8.621l-11.743-9.32-3.67-4.194-1.421 1.165z"/><path fill="url(#c)" d="M228.4 58.302l14.574-.024V57.09l-14.574.023z"/><path fill="url(#d)" d="M224.554 56.08c-.875 0-1.584.652-1.584 1.456 0 .804.71 1.456 1.584 1.456.875 0 1.585-.652 1.585-1.456 0-.804-.71-1.456-1.585-1.456z" transform="rotate(179.44 225 57.5)"/><path fill="#df2c2c" d="M0 156.69c.07 2.924 1.526 5.615 2.959 8.155 6.547 11.568 13.898 22.973 24.057 31.559 14.911 12.628 34.46 18.068 53.332 23.17-1.69-.826-3.728-9.517-4.474-11.427-1.456-3.752-2.819-7.526-4.229-11.289-2.213-5.953-6.873-10.741-11.405-15.145a90.425 90.425 0 00-36.37-21.342A85.929 85.929 0 000 156.69z"/><path fill="url(#e)" d="M0 156.69c.07 2.924 1.526 5.615 2.959 8.155 6.547 11.568 13.898 22.973 24.057 31.559 14.911 12.628 34.46 18.068 53.332 23.17-1.69-.826-3.728-9.517-4.474-11.427-1.456-3.752-2.819-7.526-4.229-11.289-2.213-5.953-6.873-10.741-11.405-15.145a90.425 90.425 0 00-36.37-21.342A85.929 85.929 0 000 156.69z"/><path fill="#df2c2c" d="M73.84 163.16c-1.537-10.764-3.122-21.691-7.455-31.663-4.334-9.973-11.848-19.06-22.041-22.857-.288 15.424-.583 30.848-.886 46.272-.163 8.912-.314 17.987 2.237 26.527 4.473 14.946 20.037 32.502 35.042 37.442 2.225-7.188-1.503-18.069-2.563-25.536z"/><path fill="url(#f)" d="M73.84 163.16c-1.537-10.764-3.122-21.691-7.455-31.663-4.334-9.973-11.848-19.06-22.041-22.857-.288 15.424-.583 30.848-.886 46.272-.163 8.912-.314 17.987 2.237 26.527 4.473 14.946 20.037 32.502 35.042 37.442 2.225-7.188-1.503-18.069-2.563-25.536z"/><path fill="#ffbbab" d="M131.884 141.193c-.525 0-.85-.56-.979-1.072a2.33 2.33 0 00-.629-1.398c-.21-.163-.513-.268-.594-.524a.71.71 0 010-.35 4.147 4.147 0 012.213-2.749c.56.49 1.41.478 1.946.99a6.547 6.547 0 011.281 2.167l5.22 12.395 1.63 3.868a9.633 9.633 0 011.037 3.973 3.32 3.32 0 01-2.167 3.203 3.076 3.076 0 01-2.574-.606 5.953 5.953 0 01-1.655-2.166c-1.351-2.726-1.549-5.825-1.957-8.89-.408-3.063-.699-6.604-2.772-8.841z"/><path fill="#ffbbab" d="M131.385 150.93a1.165 1.165 0 00-.92-.245.967.967 0 00-.432.315 5.499 5.499 0 00-1.165 4.834c.122.731.454 1.412.956 1.957.553.485 1.2.854 1.898 1.084l5.616 2.237c.424.214.901.303 1.374.256a1.932 1.932 0 001.165-.932 4.509 4.509 0 00.466-3.821c-1.048-3.274-6.267-4.1-8.958-5.685z"/><path fill="#df2c2c" d="M125.51 143.41l4.462 4.24 3.25 3.088c.734.699 1.666 1.328 1.969 2.33a6.28 6.28 0 01-.373 4.24 18.723 18.723 0 00-1.526 4.439c0-.56-1.782-1.853-2.179-2.167-.862-.676-1.77-1.27-2.632-1.934-.862-.664-1.934-1.352-2.237-2.214a7.876 7.876 0 01-.082-1.677l-.57-8.97z"/><path fill="url(#g)" d="M125.51 143.41l4.462 4.24 3.25 3.088c.734.699 1.666 1.328 1.969 2.33a6.28 6.28 0 01-.373 4.24 18.723 18.723 0 00-1.526 4.439c0-.56-1.782-1.853-2.179-2.167-.862-.676-1.77-1.27-2.632-1.934-.862-.664-1.934-1.352-2.237-2.214a7.876 7.876 0 01-.082-1.677l-.57-8.97z"/><path fill="#df2c2c" d="M189.379 198.165a11.39 11.39 0 00-3.355 8.085c-.01 1.605.323 3.194.978 4.66a11.422 11.422 0 007.526 6.454v2.621H56.759a13.688 13.688 0 010-27.365h137.769v2.621a11.39 11.39 0 00-5.149 2.924z"/><path fill="url(#h)" d="M194.525 217.31v2.622H56.756a13.653 13.653 0 01-12.966-9.32c5.23.92 38.362 6.198 56.804-4.322l86.405 4.66a11.413 11.413 0 007.526 6.36z"/><path fill="#fff" d="M189.38 198.163a11.44 11.44 0 005.15 19.153v.384h-82.48a11.44 11.44 0 110-22.88h82.48v.373a11.393 11.393 0 00-5.15 2.97z"/><path fill="#ffbbab" d="M173.382 213.822a3.495 3.495 0 001.561.28l8.155.198c.22.012.44-.012.652-.07a1.281 1.281 0 00.688-1.317 3.332 3.332 0 00-2.761-2.76 23.8 23.8 0 00-4.182-.257 3.658 3.658 0 01-2.924-1.468c-.641-.804-1.41-1.63-2.47-.862-1.666 1.27-.303 5.405 1.281 6.256z"/><path fill="#473f47" d="M132.48 176.94s22.775-.711 28.437 1.665c5.661 2.377 14.457 29.73 14.457 29.73l-4.753 1.818s-8.085-17.032-10.741-18.558c-2.656-1.526-31.117-7.118-31.117-7.118s-2.178-1.666 3.717-7.537z"/><path fill="url(#i)" d="M132.48 176.94s22.775-.711 28.437 1.665c5.661 2.377 14.457 29.73 14.457 29.73l-4.753 1.818s-8.085-17.032-10.741-18.558c-2.656-1.526-31.117-7.118-31.117-7.118s-2.178-1.666 3.717-7.537z"/><path fill="#df2c2c" d="M189.376 225.512a11.41 11.41 0 00-3.355 8.155 11.244 11.244 0 00.979 4.601 11.38 11.38 0 007.526 6.454v2.621H56.756a13.677 13.677 0 010-27.353h137.77v2.61a11.501 11.501 0 00-5.15 2.912z"/><path fill="url(#j)" d="M194.525 244.619v2.621H56.756a13.654 13.654 0 01-12.966-9.32c5.23.92 38.362 6.198 56.804-4.31l86.405 4.602a11.38 11.38 0 007.526 6.407z"/><path fill="#fff" d="M189.38 225.51a11.44 11.44 0 005.15 19.106V245h-82.48a11.44 11.44 0 010-22.88h82.48v.373a11.498 11.498 0 00-5.15 3.017z"/><path fill="#ffbbab" d="M167.138 221.81c.447-.001.891.07 1.316.21a1.165 1.165 0 01.792.978 1.328 1.328 0 01-.675 1.06c-.373.233-.793.373-1.165.618-.31.26-.642.494-.99.699-.63.182-1.3.154-1.911-.082a25.268 25.268 0 00-8.726-.547 3.565 3.565 0 01-.862 0 2.54 2.54 0 01-1.736-1.748 12.43 12.43 0 01-.512-5.522c.001-.203.053-.403.151-.582.11-.15.26-.267.431-.338 2.773-1.375 4.287 1.363 6.314 2.691a15.436 15.436 0 007.573 2.563z"/><path fill="#473f47" d="M117.032 178.358s-.688 10.345 8.55 13.467c6.408 2.156 13.77 1.76 20.399 1.166 1.165-.105 2.446-.385 3.635-.373 2.33 0 1.852 1.537 1.829 3.495 0 4.955-.043 9.906-.128 14.853a17.474 17.474 0 001.083 7.642l6.815-1.817c-.183-7.171.23-14.345 1.235-21.447.443-3.076 1.107-6.92-.955-9.541a15.878 15.878 0 00-7.608-4.928l-18.453-5.825z"/><path fill="#ffbbab" d="M130.322 130.858c.338.57 1.037.909 1.27 1.55.233.64-.257 1.537-.536 2.33-.373 1.06-.257 2.248-.63 3.32a1.27 1.27 0 01-.372.605 1.536 1.536 0 01-.57.222 8.28 8.28 0 01-2.4.14.699.699 0 00-.467 0 .664.664 0 00-.21.407 12.815 12.815 0 00.094 6.128c.175.652.36 1.468-.128 1.934-.17.165-.385.275-.618.314-1.526.373-2.994-.757-4.03-1.934a17.855 17.855 0 01-2.33-3.494 3.32 3.32 0 01-.408-1.165 3.914 3.914 0 01.186-1.445c.433-1.67.698-3.38.792-5.103.117-2.201 0-4.496.793-6.535a3.495 3.495 0 011.34-1.713 4.427 4.427 0 012.33-.384 6.28 6.28 0 014.45 1.456c.36.385 1.013 2.656 1.444 3.367z"/><path fill="#df2c2c" d="M132.477 176.934a9.4 9.4 0 01-3.565 1.946c-.932.326-1.887.629-2.854.932-1.37.412-2.71.922-4.007 1.526-1.375.454-2.4.792-3.18 1.025-.704.25-1.42.463-2.144.64.07-.04.145-.074.221-.104 0 0-.466-2.062-1.165-4.951-1.165-5.312-3.122-13.385-4.066-16.403a17.137 17.137 0 01-.337-5.825c.477-6.407 3.017-14.771 7.677-14.235 0 0 6.593 3.413 8.586 6.069 1.817 2.458 4.24 4.31 4.263 7.63.058 4.66-1.887 9.029-1.514 13.852a4.38 4.38 0 00.512 2.015c.56.874 1.666 1.294 2.214 2.167a3.145 3.145 0 01-.64 3.716z"/><path fill="url(#k)" d="M125.19 176.016a5.173 5.173 0 01.873 3.798 2.33 2.33 0 01-.699 1.165 4.24 4.24 0 01-1.899.792 24.273 24.273 0 01-4.59.594h-1.642a8.48 8.48 0 00-1.41-4.439c-1.165-5.312-3.122-13.385-4.066-16.402a17.136 17.136 0 01-.337-5.825 14.33 14.33 0 001.933-3.216c.35-.908.932-1.898 1.91-1.968.98-.07 1.55.652 2.086 1.328 3.332 4.252 5.767 9.506 8.69 14.073.152.193.237.43.245.675a1.04 1.04 0 01-.454.618c-1.258 1.048-2.598 2.33-2.738 3.937-.14 1.608 1.142 3.344 2.097 4.87z"/><path fill="#ffbbab" d="M121.858 170.835a6 6 0 00.932 1.748 5.907 5.907 0 003.996 1.654c1.71.176 3.43.266 5.15.268 1.164 0 3.005-.56 3.983.372.233.233.408.513.653.734.644.496 1.45.732 2.26.665a17.472 17.472 0 005.219-.7.396.396 0 00.28-.64 9.74 9.74 0 00-1.515-2.831 3.611 3.611 0 00-2.784-1.386 8.969 8.969 0 00-1.643.35 11.65 11.65 0 01-4.87-.327 14.247 14.247 0 01-5.23-1.794 4.089 4.089 0 01-1.06-1.328 22.297 22.297 0 01-1.748-4.346c-.175-.582-.43-1.246-1.013-1.444a1.666 1.666 0 00-1.259.221 6.256 6.256 0 00-3.168 3.274c-.431 1.491 1.223 4.054 1.817 5.51z"/><path fill="#df2c2c" d="M121.647 150.14s4.159 11.254 4.974 12.08c.816.828-8.015 5.825-8.015 5.825s-5.755-10.95-5.487-15.692c.268-4.741 5.277-6.687 8.528-2.213z"/><path fill="#fc682d" d="M128.209 127.324a4.555 4.555 0 01-1.456 2.82c-.78.733-1.748 1.222-2.552 1.933a3.17 3.17 0 00-1.281 2.773 1.444 1.444 0 00-1.747.57 1.164 1.164 0 00.186 1.166 1.445 1.445 0 001.165.489 4.554 4.554 0 00-2.062 1.654c-1.293 1.922-2.796 3.367-2.33 5.93.35 1.712 1.27 3.262 1.759 4.94a10.275 10.275 0 01-10.485 13.128c-3.098-.174-6.325-2.19-6.826-5.254-.56-3.495 2.423-6.582 2.76-10.088.175-1.9-.43-3.856 0-5.709.641-2.562 3.1-4.147 4.963-6.01 3.996-4.02 4.02-10.66 10.322-12.35 2.936-.71 7.875.152 7.584 4.008z"/><path fill="#df2c2c" d="M140.556 174.838l7.351-18.698h19.432l-9.774 22.46-29.765-1.118.955-1.805z"/><path fill="url(#l)" d="M140.556 174.838l7.351-18.698h19.432l-9.774 22.46-29.765-1.118.955-1.805z"/><path fill="#df2c2c" d="M182.088 209.671a2.854 2.854 0 00-2.808.373c-.396.396-.594.944-.99 1.34a3.18 3.18 0 01-1.98.675 13.329 13.329 0 01-3.402-.186 1.165 1.165 0 00-.56 0 .78.78 0 00-.477.757c.022.317.11.627.256.909.165.462.46.867.85 1.165.393.2.83.292 1.27.268a63.42 63.42 0 009.052-.21 3.262 3.262 0 002.05-.792c1.678-1.724-1.957-3.88-3.261-4.299zm-18.872 10.487h-1.164a1.328 1.328 0 00-.431 0c-.274.114-.505.31-.665.559-.384.49-.733 1.165-1.316 1.41a5.825 5.825 0 01-1.666.407 12.59 12.59 0 01-3.856-.268 1.165 1.165 0 00-.559 0 .769.769 0 00-.478.757c.023.318.11.627.257.91a2.505 2.505 0 002.528 1.828h4.753c1.468 0 2.935 0 4.403-.058a11.905 11.905 0 002.936-.42 3.191 3.191 0 001.69-1.06 1.538 1.538 0 000-1.875 2.33 2.33 0 00-1.05-.571l-3.087-1.072a10.973 10.973 0 00-1.805-.512z"/><path fill="#ffbbab" d="M283.278 143.501h-.081a4.66 4.66 0 01-.967-.955 10.846 10.846 0 00-3.018-2.621c-.477-.28-1.165-.501-1.537-.082-.128.14-.187.338-.327.466-.326.303-.85.105-1.223-.128-.373-.233-.85-.49-1.235-.256a.909.909 0 00-.35.757c.048.675.264 1.328.63 1.899a25.408 25.408 0 001.91 3.215 1.934 1.934 0 001.76.979 6.548 6.548 0 013.168.815 1.3 1.3 0 00.664.338c.711.07.956-2.12 1.072-2.621.058-.245.373-1.06.256-1.305-.116-.245-.489-.373-.722-.501z"/><path fill="#df2c2c" d="M301.87 186.559l1.13 55.942h7.584l2.19-44.456 4.777 44.456 8.69 1.456 1.992-59.227z"/><path fill="url(#m)" d="M301.87 186.559l1.13 55.942h7.584l2.19-44.456 4.777 44.456 8.69 1.456 1.992-59.227z"/><path fill="url(#n)" d="M321.04 241.627v-51.853l7.188-5.044-2.423 57.77z"/><path fill="#df2c2c" d="M281.22 149.928l.163.14c1.62 1.398 14.353 12.36 16.31 11.72a59.941 59.941 0 007.595-4.113l.64-.384V141.89l-7.99 9.53-14.132-8.33z"/><path fill="url(#o)" d="M281.39 150.072c1.62 1.397 14.352 12.36 16.31 11.72a59.942 59.942 0 007.595-4.113c.08-.626.107-1.257.082-1.888 0-1.363.477-4.66-1.62-3.867-1.7.652-2.935 2.854-4.66 3.681a3.728 3.728 0 01-1.922.909c-1.165.07-2.097-.874-2.912-1.701a34.647 34.647 0 00-9.844-7.083.99.99 0 00-.524-.14.955.955 0 00-.525.35c-.652.722-1.316 1.433-1.98 2.132z"/><path fill="#df2c2c" d="M322.606 137.07a66.88 66.88 0 015.906 3.343c4.054 2.598 3.332 3.798 2.586 8.283a176.65 176.65 0 00-2.33 29.008 25.377 25.377 0 01-.5 6.99c-.42 1.444-1.387 2.656-1.503 4.182-6.256.862-20.574 4.077-24.86-2.33-4.101-6.15 3.284-27.96 1.91-37.722-1.375-9.762 11.207-10.799 11.207-10.799z"/><path fill="url(#p)" d="M313.987 181.906l11.335 7.653 1.852-2.33a41.718 41.718 0 001.514-12.115c-.268-6.105 0-3.926 0-3.926l-15.948 10.088z"/><path fill="#ffbbab" d="M308.328 127.609a13.6 13.6 0 00.117 1.934 12.186 12.186 0 001.55 3.762c.186.408.465.767.815 1.049a3.157 3.157 0 002.33.186c.184-.04.375-.04.559 0 .443.175.5.78.478 1.258l-.129 2.226c-.046.303.007.614.152.885.153.187.36.321.594.384a4.777 4.777 0 004.788-1.083c.31-.288.563-.632.745-1.014.15-.372.245-.765.28-1.165.268-2.131 0-4.287.198-6.419.277-1.76.328-3.55.152-5.323a5.826 5.826 0 00-3.425-4.334 8.714 8.714 0 00-5.627.128c-.889.25-1.764.545-2.621.885-.418.11-.779.372-1.014.734-.338.688 0 1.678 0 2.412.082 1.177.058 2.341.058 3.495z"/><path fill="#963637" d="M323.283 119.646c-1.678-2.516-5.592-2.562-8.318-2.924a2.225 2.225 0 01-1.095-.36.734.734 0 01-.14-1.05l-2.074 1.166v-1.538a18.639 18.639 0 01-2.248 1.526v-1.375a5.825 5.825 0 00-2.027 6.186c.664 2.33 4.182 2.575 6.15 2.47a9.53 9.53 0 011.632 0 2.33 2.33 0 011.421.7c.437.738.682 1.576.71 2.434.008.05.028.099.059.14a.37.37 0 00.105 0c.606.07 1.165-.641 1.724-.396a.887.887 0 01.454.757c.044.372-.008.749-.151 1.095-.075.133-.122.28-.14.43.007.101.03.2.07.292l.384 1.06c.1.391.335.734.664.967a1.572 1.572 0 001.457-.291 2.33 2.33 0 00.78-.64c.14-.238.234-.498.28-.77a35.44 35.44 0 00.629-8.015 4.495 4.495 0 00-.326-1.864z"/><path fill="#fff" d="M320.624 136.06s1.735 1.165 1.689 2.528c-.047 1.363-9.46 27.843-9.46 27.843s-.21-25.385 0-26.562c.32-1.147.745-2.262 1.27-3.331 0 0 3.763 2.726 6.5-.478z"/><path fill="#212741" d="M317.546 138.44l.63 2.05-1.06.897-.513 14.388-3.74 10.636-.093-10.811 3.215-14.283-1.176-2.015 1.55-.862z"/><path fill="#df2c2c" d="M310.58 175.886a24.69 24.69 0 003.751 3.81l.862.687a2.2 2.2 0 001.107.513c.283-.007.561-.074.815-.198 5.48-2.134 10.85-4.54 16.089-7.212 2.201-1.164 4.601-2.597 5.067-5.02a7.69 7.69 0 00-.058-2.528 73.257 73.257 0 00-4.765-17.836c-.664-1.62-1.48-4.742-3.215-5.825l-.21-.105-.244-.116c-2.33-.84-4.357 1.49-4.998 3.495a15.774 15.774 0 00.268 8.69 52.783 52.783 0 011.992 8.563c.06.392.02.793-.117 1.165a2.68 2.68 0 01-.897.908z"/><path fill="#212741" d="M310.582 242.504l-.408 4.124-2.597.478-1.165-1.025-2.004 1.572h-7.794s-1.98-3.413 2.33-4.578l4.299-1.165zm15.217 0l-.408 4.124-2.598.478-1.165-1.025-1.98 1.572h-7.794s-1.98-3.413 2.33-4.578l4.299-1.165z"/><path fill="url(#q)" d="M312.771 198.04l-3.483-2.83-2.458 46.692 3.751.594z"/><path fill="url(#r)" d="M314.33 179.7l.862.688c.313.271.697.45 1.107.512.283-.006.561-.073.815-.198a176.01 176.01 0 0016.089-7.21c2.201-1.166 4.601-2.599 5.067-5.022.12-.84.1-1.694-.058-2.528a73.252 73.252 0 00-4.765-17.835c-.664-1.62-1.48-4.742-3.215-5.825l-.21-.105-.244-.117a5.219 5.219 0 00-4.998 3.495s8.294 16.962 7.933 19.525c-.36 2.563-17.766 10.811-17.766 10.811z"/><path fill="#ffbbab" d="M306.732 177.306c-.455.114-.88.325-1.246.617a1.247 1.247 0 00-.396 1.258c.137.262.296.512.477.746.222.396.256.897.455 1.305a2.959 2.959 0 001.735 1.258c2.074.745 4.602.85 6.28-.583 1.164-1.037 3.657-5.335.966-5.988a10.543 10.543 0 00-3.401.35c-1.65.21-3.278.557-4.87 1.037z"/><path fill="#fff" d="M237.33 117.36l-.35.384 50.513 30.977.373-.839z"/><path fill="#ffbbab" d="M274.554 140.933a1.561 1.561 0 01.175-1.107 1.328 1.328 0 011.072-.43c.192-.017.386.003.57.058.42.151.665.57.933.932.085.112.182.213.291.303.148.098.309.176.478.233.238.073.465.179.675.314.323.246.593.555.792.909.197.281.364.582.501.897.153.409.22.845.198 1.281a.652.652 0 01-.104.42.617.617 0 01-.42.198 2.89 2.89 0 01-1.817-.466c-.548-.327-1.037-.758-1.55-1.165a3.495 3.495 0 01-1.794-2.377z"/></svg>