<svg width="238" height="240" fill="none" xmlns="http://www.w3.org/2000/svg"><g clip-path="url(#clip0)"><path opacity=".18" d="M78.015 219.951a180.566 180.566 0 0082.269 20.05c10.669 0 21.49-.962 31.502-4.644 25.821-9.534 42.859-38.547 38.62-65.743-1.5-9.646-5.355-19.001-5.109-28.761.259-10.27 5.009-19.797 8.028-29.61a89.882 89.882 0 003.616-34.082c-1.493-17.184-8.625-34.62-22.518-44.87-5.58-4.126-12.002-6.933-18.365-9.706L166.806 9.793c-17.25-7.523-37.877-14.888-53.919-5.055-14.537 8.91-18.942 28.529-32.27 39.144-16.547 13.203-44.333 10.741-55.14 28.934-9.01 15.18.092 35.322-5.713 51.988-1.938 5.553-5.427 10.39-8.579 15.353-10.177 16.102-20.925 51.166 4.585 59.824 7.57 2.567 16.586.624 24.442 2.388 13.653 3.065 25.536 11.253 37.803 17.582z" fill="#DF2C2C"/><path d="M20.76 182.405s17.787-5.162 15.87-21.987c-1.918-16.825 2.361-47.769 12.366-47.106 10.005.664 60.103 0 60.103 0v38.302H76.212s2.295 12.805-3.636 21.795c-5.931 8.989-8.983 7.649-8.983 7.649l-42.833 1.347z" fill="#DF2C2C"/><path d="M20.76 182.405s17.787-5.162 15.87-21.987c-1.918-16.825 2.361-47.769 12.366-47.106 10.005.664 60.103 0 60.103 0v38.302H76.212s2.295 12.805-3.636 21.795c-5.931 8.989-8.983 7.649-8.983 7.649l-42.833 1.347z" fill="url(#paint0_linear)"/><path d="M96.096 99.618h79.515s8.791 2.104 9.746 13.767v104.203l-59.081.956a14.15 14.15 0 01-1.698.033 18.15 18.15 0 01-17.416-18.199v-90.051s-1.121-9.368-11.066-10.709z" fill="#DF2C2C"/><path d="M96.096 99.618h79.515s8.791 2.104 9.746 13.767v104.203l-59.081.956c-.689.052-1.381.052-2.07 0a18.122 18.122 0 01-17.044-18.159v-90.058s-1.121-9.368-11.066-10.709z" fill="url(#paint1_linear)"/><path d="M129.939 192.987s-9.103-.902-9.196 11.445c-.093 12.347 8.174 9.952 8.174 9.952l1.751-.1s11.001-7.59 5.063-15.963c0-.019-2.435-4.909-5.792-5.334z" fill="url(#paint2_linear)"/><path d="M130.914 194.739s-8.187-.83-8.273 10.297c-.087 11.126 7.357 8.943 7.357 8.943l1.573-.086s9.899-6.834 4.558-14.371c0-.033-2.196-4.425-5.215-4.783z" fill="url(#paint3_linear)"/><path d="M129.939 192.987h77.518s5.673 2.037 5.102 11.412c-.57 9.374-10.516 14.145-10.516 14.145h-75.74s7.65-4.492 7.749-13.27c.1-8.777-4.113-12.287-4.113-12.287z" fill="#DF2C2C"/><path d="M129.939 192.987h77.518s5.673 2.037 5.102 11.412c-.57 9.374-10.516 14.145-10.516 14.145h-75.74s7.65-4.492 7.749-13.27c.1-8.777-4.113-12.287-4.113-12.287z" fill="url(#paint4_linear)"/><path d="M48.996 113.319s5.48.511 4.97 9.05c-.511 8.538-1.274 29.703 8.923 29.703 10.198 0 17.084-1.659 17.463-7.524.378-5.865.663-31.607.663-31.607l-32.019.378z" fill="#DF2C2C"/><path d="M96.096 99.618s-13.933-.444-15.107 13.323c-1.175 13.767-.664 31.607-.664 31.607s-2.037 7.298-12.745 7.65h39.695l-.06-41.871s-1.433-9.627-11.12-10.709z" fill="#DF2C2C"/><path d="M96.096 99.618s-13.933-.444-15.107 13.323c-1.175 13.767-.664 31.607-.664 31.607s-2.037 7.298-12.745 7.65h39.695l-.06-41.871s-1.433-9.627-11.12-10.709z" fill="url(#paint5_linear)"/><path d="M132.068 27.766c-2.713.663-4.478 3.423-4.996 6.17-.517 2.747-.059 5.566.18 8.353.252 2.992.238 5.971.258 9.003 0 1.327.034 2.753.704 3.921.849 1.473 2.541 2.243 4.193 2.654 2.726.664 5.566.544 8.366.425 1.095-.047 2.276-.126 3.098-.843a4.141 4.141 0 001.148-2.163c.479-2.1.726-4.248.736-6.402l.478-10.503c.173-3.742.04-8.711-3.981-10.549-1.147-.524-2.408-.352-3.629-.305-2.103.08-4.458-.299-6.555.239z" fill="#DF2C2C"/><path d="M131.737 52.705c-.83.664 0 2.946 1.327 3.318.809.218-3.981.311-4.485-.365a5.77 5.77 0 01-1.022-2.707c-.12-2.966.206-5.971.086-8.97a11.71 11.71 0 01.285-3.908c.591-1.944 2.13-3.443 2.959-5.308.909 1.082.79 2.654.704 4.074a33.265 33.265 0 00.232 6.356 5.88 5.88 0 00.471 1.87c.829 1.706 3.317 2.13 3.821 3.982.637 2.375-3.012 2.076-4.378 1.658z" fill="url(#paint6_linear)"/><path d="M136.096 28.735l.504 1.267c.212.53.511 1.128 1.068 1.247.29.032.583-.014.849-.133a2.654 2.654 0 001.526-1.214c.165-.421.229-.876.186-1.327-.053-1.605-.219-7.557-2.574-7.258-1.891.259-2.097 6.077-1.559 7.418z" fill="url(#paint7_linear)"/><path d="M138.166 28.761c.391.425.995.803 1.512.55.518-.252.611-.822.664-1.326.053-.505.086-1.009.093-1.513a1.089 1.089 0 00-.724-1.161c-.577-.365-2.959-1.904-3.005-.305a5.709 5.709 0 001.46 3.755z" fill="url(#paint8_linear)"/><path d="M145.026 17.595a40.594 40.594 0 01-1.327 5.447 8.963 8.963 0 01-.962 2.223 3.498 3.498 0 01-1.858 1.48 3.555 3.555 0 01-2.979-.664 5.255 5.255 0 01-1.778-2.19 7.248 7.248 0 01-.511-2.176 10.225 10.225 0 01.995-5.719 4.764 4.764 0 011.188-1.533 4.36 4.36 0 013.45-.762c1.191.245 2.331.694 3.37 1.326.929.531.564 1.699.412 2.568z" fill="url(#paint9_linear)"/><path d="M144.853 12.665c.339.278.642.597.903.95l1.393 1.724c.214.22.362.496.424.796.013.266-.059.528-.205.75a2.802 2.802 0 01-2.183 1.327 5.592 5.592 0 01-2.853-.876 1.117 1.117 0 01-1.181.445c-.444-.073-.856-.279-1.327-.339a2.187 2.187 0 00-2.03.936c-.126.186-.345.424-.517.279a.32.32 0 01-.077-.106.346.346 0 01-.03-.127c-.073-.371-.265-.83-.663-.81a.554.554 0 00-.471.492c-.014.243.022.487.106.716l.325 1.055c.01.042.01.085 0 .126 0 .113-.192.106-.312.12-.265 0-.431.298-.511.55a1.816 1.816 0 01-.318.73.215.215 0 01-.106.06.22.22 0 01-.12-.053 2.06 2.06 0 01-.57-1.52 58.086 58.086 0 01-.146-2.441 4.583 4.583 0 01.192-1.904c.214-.479.493-.925.83-1.327a5.934 5.934 0 011.061-1.208 4.545 4.545 0 012.136-.776 17.62 17.62 0 013.391-.272 4.847 4.847 0 012.859.703z" fill="#3E3E54"/><path d="M149.531 35.024c.856 2.654.829 5.527.783 8.333a19.276 19.276 0 01-.226 3.092 5.553 5.553 0 01-.975 2.395 3.112 3.112 0 01-2.19 1.267 1.842 1.842 0 01-1.028-.219c-.803-.47-.922-1.559-.955-2.488l-.385-10.92c-.06-1.666-3.105-6.317-2.813-7.962.318-1.785 4.319 1.367 5.274 2.309a10.33 10.33 0 012.515 4.193z" fill="#DF2C2C"/><path d="M149.172 38.534c0-.246 0-.55-.219-.664a.43.43 0 00-.418.053 1.286 1.286 0 00-.404.996c-.073.79-.153 1.579-.226 2.368-.04.465-.312 1.287.398 1.168 1.029-.173.816-3.152.869-3.921z" fill="#3E3E54"/><path d="M147.335 41.214a2.302 2.302 0 00-1.699 1.082.571.571 0 00-.053.132.28.28 0 00.053.173 1.204 1.204 0 00.902.444 12.58 12.58 0 002.289.16.8.8 0 00.452-.107.757.757 0 00.232-.404c.146-.478.431-1.407-.193-1.54a7.052 7.052 0 00-.962.08 8.721 8.721 0 00-1.021-.02z" fill="url(#paint10_linear)"/><path d="M122.8 37.499c-1.128 1.46-2.316 3.151-2.03 4.97.237 1.07.8 2.041 1.612 2.779 2.528 2.594 6.037 3.914 9.434 5.162.143.073.306.099.465.073a.712.712 0 00.338-.24c1.101-1.293.305-3.317-.896-4.544-1.2-1.227-2.786-2.083-3.562-3.596a.756.756 0 01-.12-.458.901.901 0 01.319-.457c1.89-1.719 3.622-3.809 4.106-6.317.312-1.632-.617-6.973-3.224-5.486-1.254.71-2.256 2.693-3.125 3.821L122.8 37.5z" fill="#DF2C2C"/><path d="M128.021 58.199l3.477 38.713-4.538 2.488 8.625-.438 1.021-32.51 3.517-.152 2.786 32.967 8.937.584-4.691-3.364.246-40.471-18.305-.047c-1.075.014-1.174 1.142-1.075 2.23z" fill="#3E3E54"/><path d="M139.393 43.118a1.636 1.636 0 011.911-1.075c3.335 0 6.67.135 10.005.405a1.69 1.69 0 011.181.418c.139.242.216.516.222.795.005.28-.06.556-.189.804a91.05 91.05 0 01-5.102 11.557c-.064.15-.154.287-.266.405a1.465 1.465 0 01-1.015.299 95.262 95.262 0 01-11.756-.292c-.226 0-.498-.066-.591-.279-.219-.497.863-1.99 1.075-2.547.438-1.155.849-2.323 1.327-3.47a75.639 75.639 0 013.198-7.02z" fill="#fff"/><path d="M134.994 46.946c.531-.112 1.228-.112 1.44.385.126.299.033.717.305.896a.61.61 0 00.345.073c.425 0 .843-.1 1.261-.08a1.25 1.25 0 011.081.538 1.42 1.42 0 01-.119 1.327 4.487 4.487 0 01-.75 1.074 2.611 2.611 0 01-.829.617 2.67 2.67 0 01-.916.2 6.74 6.74 0 01-3.808-.817 3.01 3.01 0 01-1.506-1.552c-.73-2.09 2.176-2.395 3.496-2.66z" fill="url(#paint11_linear)"/><path d="M175.061 112.045h-49.713a1.91 1.91 0 100 3.822h49.713a1.91 1.91 0 000-3.822z" fill="url(#paint12_linear)"/><path d="M175.061 120.458h-49.713a1.91 1.91 0 100 3.821h49.713a1.91 1.91 0 100-3.821z" fill="url(#paint13_linear)"/><path d="M175.061 128.87h-49.713a1.91 1.91 0 100 3.822h49.713a1.91 1.91 0 000-3.822z" fill="url(#paint14_linear)"/><path d="M175.061 137.283h-49.713a1.91 1.91 0 100 3.822h49.713a1.91 1.91 0 000-3.822z" fill="url(#paint15_linear)"/><path d="M175.061 145.696h-49.713a1.91 1.91 0 100 3.821h49.713a1.91 1.91 0 100-3.821z" fill="url(#paint16_linear)"/><path d="M175.061 154.109h-49.713a1.91 1.91 0 100 3.821h49.713a1.91 1.91 0 000-3.821z" fill="url(#paint17_linear)"/><path d="M175.061 162.521h-49.713a1.91 1.91 0 100 3.822h49.713a1.91 1.91 0 000-3.822z" fill="url(#paint18_linear)"/><path d="M134.53 171.06h-5.865v17.336h5.865V171.06z" fill="url(#paint19_linear)"/><path d="M142.69 176.354h-5.865v12.042h5.865v-12.042z" fill="url(#paint20_linear)"/><path d="M158.62 171.816h-5.865v16.58h5.865v-16.58z" fill="url(#paint21_linear)"/><path d="M150.718 180.746h-5.865v7.65h5.865v-7.65z" fill="url(#paint22_linear)"/><path d="M171.617 175.226h-6.88v13.296h6.88v-13.296z" fill="url(#paint23_linear)"/><path d="M178.504 175.26h-6.88v13.269h6.88V175.26z" fill="url(#paint24_linear)"/><path d="M178.504 171.571h-13.767v3.569h13.767v-3.569z" fill="url(#paint25_linear)"/><path d="M107.746 204.478c.418 2.409 3.602 10.861 11.584 12.951 3.675.962 7.961 1.898 11.478.458a8.116 8.116 0 002.813-1.798 5.76 5.76 0 00.099-7.544 10.89 10.89 0 00-2.654-1.944c-2.826-1.652-6.276-4.359-9.679-4.438-3.404-.08-10.417 1.201-13.641 2.315z" fill="url(#paint26_linear)"/></g><defs><linearGradient id="paint0_linear" x1="20.76" y1="147.859" x2="109.099" y2="147.859" gradientUnits="userSpaceOnUse"><stop stop-opacity="0"/><stop offset=".99"/></linearGradient><linearGradient id="paint1_linear" x1="96.109" y1="158.414" x2="234.54" y2="160.166" gradientUnits="userSpaceOnUse"><stop offset=".02" stop-color="#fff" stop-opacity="0"/><stop offset=".32" stop-color="#fff" stop-opacity=".39"/><stop offset=".68" stop-color="#fff" stop-opacity=".68"/><stop offset="1" stop-color="#fff"/></linearGradient><linearGradient id="paint2_linear" x1="5314.75" y1="8070.55" x2="2703.07" y2="6470.73" gradientUnits="userSpaceOnUse"><stop stop-opacity="0"/><stop offset=".99"/></linearGradient><linearGradient id="paint3_linear" x1="4717.61" y1="7191.97" x2="2603.42" y2="5896.46" gradientUnits="userSpaceOnUse"><stop stop-opacity="0"/><stop offset=".99"/></linearGradient><linearGradient id="paint4_linear" x1="27437.5" y1="7083.02" x2="27151.9" y2="9994.76" gradientUnits="userSpaceOnUse"><stop stop-opacity="0"/><stop offset=".99"/></linearGradient><linearGradient id="paint5_linear" x1="5990.44" y1="10208.3" x2="8362.21" y2="10208.3" gradientUnits="userSpaceOnUse"><stop stop-opacity="0"/><stop offset=".99"/></linearGradient><linearGradient id="paint6_linear" x1="2289.26" y1="1534.72" x2="2072.82" y2="1559" gradientUnits="userSpaceOnUse"><stop stop-opacity="0"/><stop offset=".99"/></linearGradient><linearGradient id="paint7_linear" x1="135.837" y1="26.3" x2="140.229" y2="26.3" gradientUnits="userSpaceOnUse"><stop stop-color="#E5C5D5"/><stop offset=".42" stop-color="#EAD4D1"/><stop offset="1" stop-color="#F0E9CB"/></linearGradient><linearGradient id="paint8_linear" x1="1095.27" y1="272.85" x2="1089.93" y2="191.06" gradientUnits="userSpaceOnUse"><stop stop-opacity="0"/><stop offset=".99"/></linearGradient><linearGradient id="paint9_linear" x1="2572.01" y1="449.852" x2="2713.08" y2="449.852" gradientUnits="userSpaceOnUse"><stop stop-color="#E5C5D5"/><stop offset=".42" stop-color="#EAD4D1"/><stop offset="1" stop-color="#F0E9CB"/></linearGradient><linearGradient id="paint10_linear" x1="1244.89" y1="176.763" x2="1270.48" y2="176.763" gradientUnits="userSpaceOnUse"><stop stop-color="#E5C5D5"/><stop offset=".42" stop-color="#EAD4D1"/><stop offset="1" stop-color="#F0E9CB"/></linearGradient><linearGradient id="paint11_linear" x1="2131.95" y1="440.46" x2="2232.26" y2="440.46" gradientUnits="userSpaceOnUse"><stop stop-color="#E5C5D5"/><stop offset=".42" stop-color="#EAD4D1"/><stop offset="1" stop-color="#F0E9CB"/></linearGradient><linearGradient id="paint12_linear" x1="12341.1" y1="695.784" x2="12337.7" y2="1193.17" gradientUnits="userSpaceOnUse"><stop offset=".02" stop-color="#fff" stop-opacity="0"/><stop offset=".32" stop-color="#fff" stop-opacity=".39"/><stop offset=".68" stop-color="#fff" stop-opacity=".68"/><stop offset="1" stop-color="#fff"/></linearGradient><linearGradient id="paint13_linear" x1="12405.3" y1="704.659" x2="12401.9" y2="1202.01" gradientUnits="userSpaceOnUse"><stop offset=".02" stop-color="#fff" stop-opacity="0"/><stop offset=".32" stop-color="#fff" stop-opacity=".39"/><stop offset=".68" stop-color="#fff" stop-opacity=".68"/><stop offset="1" stop-color="#fff"/></linearGradient><linearGradient id="paint14_linear" x1="12469.6" y1="713.489" x2="12466.2" y2="1210.87" gradientUnits="userSpaceOnUse"><stop offset=".02" stop-color="#fff" stop-opacity="0"/><stop offset=".32" stop-color="#fff" stop-opacity=".39"/><stop offset=".68" stop-color="#fff" stop-opacity=".68"/><stop offset="1" stop-color="#fff"/></linearGradient><linearGradient id="paint15_linear" x1="12533.8" y1="722.357" x2="12530.4" y2="1219.7" gradientUnits="userSpaceOnUse"><stop offset=".02" stop-color="#fff" stop-opacity="0"/><stop offset=".32" stop-color="#fff" stop-opacity=".39"/><stop offset=".68" stop-color="#fff" stop-opacity=".68"/><stop offset="1" stop-color="#fff"/></linearGradient><linearGradient id="paint16_linear" x1="12598.1" y1="731.193" x2="12594.7" y2="1228.58" gradientUnits="userSpaceOnUse"><stop offset=".02" stop-color="#fff" stop-opacity="0"/><stop offset=".32" stop-color="#fff" stop-opacity=".39"/><stop offset=".68" stop-color="#fff" stop-opacity=".68"/><stop offset="1" stop-color="#fff"/></linearGradient><linearGradient id="paint17_linear" x1="12662.3" y1="740.062" x2="12658.9" y2="1237.4" gradientUnits="userSpaceOnUse"><stop offset=".02" stop-color="#fff" stop-opacity="0"/><stop offset=".32" stop-color="#fff" stop-opacity=".39"/><stop offset=".68" stop-color="#fff" stop-opacity=".68"/><stop offset="1" stop-color="#fff"/></linearGradient><linearGradient id="paint18_linear" x1="12726.5" y1="748.895" x2="12723.2" y2="1246.27" gradientUnits="userSpaceOnUse"><stop offset=".02" stop-color="#fff" stop-opacity="0"/><stop offset=".32" stop-color="#fff" stop-opacity=".39"/><stop offset=".68" stop-color="#fff" stop-opacity=".68"/><stop offset="1" stop-color="#fff"/></linearGradient><linearGradient id="paint19_linear" x1="1299.73" y1="4493.32" x2="1227" y2="4896.43" gradientUnits="userSpaceOnUse"><stop offset=".02" stop-color="#fff" stop-opacity="0"/><stop offset=".32" stop-color="#fff" stop-opacity=".39"/><stop offset=".68" stop-color="#fff" stop-opacity=".68"/><stop offset="1" stop-color="#fff"/></linearGradient><linearGradient id="paint20_linear" x1="1381.21" y1="3187.89" x2="1345.3" y2="3472.49" gradientUnits="userSpaceOnUse"><stop offset=".02" stop-color="#fff" stop-opacity="0"/><stop offset=".32" stop-color="#fff" stop-opacity=".39"/><stop offset=".68" stop-color="#fff" stop-opacity=".68"/><stop offset="1" stop-color="#fff"/></linearGradient><linearGradient id="paint21_linear" x1="1536.19" y1="4342.48" x2="1469.49" y2="4728.87" gradientUnits="userSpaceOnUse"><stop offset=".02" stop-color="#fff" stop-opacity="0"/><stop offset=".32" stop-color="#fff" stop-opacity=".39"/><stop offset=".68" stop-color="#fff" stop-opacity=".68"/><stop offset="1" stop-color="#fff"/></linearGradient><linearGradient id="paint22_linear" x1="1461.13" y1="2099.59" x2="1446.5" y2="2282.09" gradientUnits="userSpaceOnUse"><stop offset=".02" stop-color="#fff" stop-opacity="0"/><stop offset=".32" stop-color="#fff" stop-opacity=".39"/><stop offset=".68" stop-color="#fff" stop-opacity=".68"/><stop offset="1" stop-color="#fff"/></linearGradient><linearGradient id="paint23_linear" x1="1907.8" y1="3605.13" x2="1915.25" y2="4042.07" gradientUnits="userSpaceOnUse"><stop offset=".02" stop-color="#fff" stop-opacity="0"/><stop offset=".32" stop-color="#fff" stop-opacity=".39"/><stop offset=".68" stop-color="#fff" stop-opacity=".68"/><stop offset="1" stop-color="#fff"/></linearGradient><linearGradient id="paint24_linear" x1="1986.8" y1="3648.61" x2="1990.63" y2="4398.17" gradientUnits="userSpaceOnUse"><stop offset=".02" stop-color="#fff" stop-opacity="0"/><stop offset=".32" stop-color="#fff" stop-opacity=".39"/><stop offset=".68" stop-color="#fff" stop-opacity=".68"/><stop offset="1" stop-color="#fff"/></linearGradient><linearGradient id="paint25_linear" x1="3718.35" y1="1077.92" x2="3719.58" y2="1141.6" gradientUnits="userSpaceOnUse"><stop offset=".02" stop-color="#fff" stop-opacity="0"/><stop offset=".32" stop-color="#fff" stop-opacity=".39"/><stop offset=".68" stop-color="#fff" stop-opacity=".68"/><stop offset="1" stop-color="#fff"/></linearGradient><linearGradient id="paint26_linear" x1="6669.99" y1="5081.96" x2="6191.34" y2="6805.28" gradientUnits="userSpaceOnUse"><stop stop-opacity="0"/><stop offset=".99"/></linearGradient><clipPath id="clip0"><path fill="#fff" d="M0 0h237.306v240H0z"/></clipPath></defs></svg>