<svg xmlns="http://www.w3.org/2000/svg" width="238" height="240"><defs><linearGradient id="a" x1="20.76" x2="109.1" y1="147.86" y2="147.86" gradientUnits="userSpaceOnUse"><stop offset="0" stop-opacity="0"/><stop offset=".99"/></linearGradient><linearGradient id="b" x1="96.11" x2="234.54" y1="158.41" y2="160.17" gradientUnits="userSpaceOnUse"><stop offset=".02" stop-color="#fff" stop-opacity="0"/><stop offset=".32" stop-color="#fff" stop-opacity=".39"/><stop offset=".68" stop-color="#fff" stop-opacity=".68"/><stop offset="1" stop-color="#fff"/></linearGradient><linearGradient id="c" x1="5315.58" x2="3103.75" y1="8071.14" y2="5817.83" gradientUnits="userSpaceOnUse"><stop offset="0" stop-opacity="0"/><stop offset=".99"/></linearGradient><linearGradient id="d" x1="4717.48" x2="2926.87" y1="7192.82" y2="5369.12" gradientUnits="userSpaceOnUse"><stop offset="0" stop-opacity="0"/><stop offset=".99"/></linearGradient><linearGradient id="e" x1="27438.53" x2="24475.85" y1="7083.97" y2="9733.52" gradientUnits="userSpaceOnUse"><stop offset="0" stop-opacity="0"/><stop offset=".99"/></linearGradient><linearGradient id="f" x1="5989.72" x2="8361.2" y1="10208.13" y2="10208.13" gradientUnits="userSpaceOnUse"><stop offset="0" stop-opacity="0"/><stop offset=".99"/></linearGradient><linearGradient id="g" x1="2289.41" x2="2085.9" y1="1534.81" y2="1674.47" gradientUnits="userSpaceOnUse"><stop offset="0" stop-opacity="0"/><stop offset=".99"/></linearGradient><linearGradient id="h" x1="135.84" x2="140.23" y1="26.3" y2="26.3" gradientUnits="userSpaceOnUse"><stop offset="0" stop-color="#e5c5d5"/><stop offset=".42" stop-color="#ead4d1"/><stop offset="1" stop-color="#f0e9cb"/></linearGradient><linearGradient id="i" x1="1096.09" x2="1093.21" y1="272.86" y2="190.91" gradientUnits="userSpaceOnUse"><stop offset="0" stop-opacity="0"/><stop offset=".99"/></linearGradient><linearGradient id="j" x1="2571.32" x2="2712.36" y1="449.87" y2="449.87" gradientUnits="userSpaceOnUse"><stop offset="0" stop-color="#e5c5d5"/><stop offset=".42" stop-color="#ead4d1"/><stop offset="1" stop-color="#f0e9cb"/></linearGradient><linearGradient id="k" x1="1244.55" x2="1270.13" y1="176.55" y2="176.55" gradientUnits="userSpaceOnUse"><stop offset="0" stop-color="#e5c5d5"/><stop offset=".42" stop-color="#ead4d1"/><stop offset="1" stop-color="#f0e9cb"/></linearGradient><linearGradient id="l" x1="2130.82" x2="2231.06" y1="440.26" y2="440.26" gradientUnits="userSpaceOnUse"><stop offset="0" stop-color="#e5c5d5"/><stop offset=".42" stop-color="#ead4d1"/><stop offset="1" stop-color="#f0e9cb"/></linearGradient><linearGradient id="m" x1="12340.06" x2="11680.03" y1="695.56" y2="1188.26" gradientUnits="userSpaceOnUse"><stop offset=".02" stop-color="#fff" stop-opacity="0"/><stop offset=".32" stop-color="#fff" stop-opacity=".39"/><stop offset=".68" stop-color="#fff" stop-opacity=".68"/><stop offset="1" stop-color="#fff"/></linearGradient><linearGradient id="n" x1="12404.29" x2="11744.27" y1="704.42" y2="1197.09" gradientUnits="userSpaceOnUse"><stop offset=".02" stop-color="#fff" stop-opacity="0"/><stop offset=".32" stop-color="#fff" stop-opacity=".39"/><stop offset=".68" stop-color="#fff" stop-opacity=".68"/><stop offset="1" stop-color="#fff"/></linearGradient><linearGradient id="o" x1="12468.53" x2="11808.5" y1="713.25" y2="1205.96" gradientUnits="userSpaceOnUse"><stop offset=".02" stop-color="#fff" stop-opacity="0"/><stop offset=".32" stop-color="#fff" stop-opacity=".39"/><stop offset=".68" stop-color="#fff" stop-opacity=".68"/><stop offset="1" stop-color="#fff"/></linearGradient><linearGradient id="p" x1="12532.76" x2="11872.74" y1="722.12" y2="1214.79" gradientUnits="userSpaceOnUse"><stop offset=".02" stop-color="#fff" stop-opacity="0"/><stop offset=".32" stop-color="#fff" stop-opacity=".39"/><stop offset=".68" stop-color="#fff" stop-opacity=".68"/><stop offset="1" stop-color="#fff"/></linearGradient><linearGradient id="q" x1="12597" x2="11936.98" y1="730.96" y2="1223.67" gradientUnits="userSpaceOnUse"><stop offset=".02" stop-color="#fff" stop-opacity="0"/><stop offset=".32" stop-color="#fff" stop-opacity=".39"/><stop offset=".68" stop-color="#fff" stop-opacity=".68"/><stop offset="1" stop-color="#fff"/></linearGradient><linearGradient id="r" x1="12661.24" x2="12001.75" y1="739.83" y2="1232.5" gradientUnits="userSpaceOnUse"><stop offset=".02" stop-color="#fff" stop-opacity="0"/><stop offset=".32" stop-color="#fff" stop-opacity=".39"/><stop offset=".68" stop-color="#fff" stop-opacity=".68"/><stop offset="1" stop-color="#fff"/></linearGradient><linearGradient id="s" x1="12725.47" x2="12065.98" y1="748.66" y2="1241.36" gradientUnits="userSpaceOnUse"><stop offset=".02" stop-color="#fff" stop-opacity="0"/><stop offset=".32" stop-color="#fff" stop-opacity=".39"/><stop offset=".68" stop-color="#fff" stop-opacity=".68"/><stop offset="1" stop-color="#fff"/></linearGradient><linearGradient id="t" x1="1298.73" x2="1290.17" y1="4494.27" y2="4909.04" gradientUnits="userSpaceOnUse"><stop offset=".02" stop-color="#fff" stop-opacity="0"/><stop offset=".32" stop-color="#fff" stop-opacity=".39"/><stop offset=".68" stop-color="#fff" stop-opacity=".68"/><stop offset="1" stop-color="#fff"/></linearGradient><linearGradient id="u" x1="1382.27" x2="1373.64" y1="3187.43" y2="3475.43" gradientUnits="userSpaceOnUse"><stop offset=".02" stop-color="#fff" stop-opacity="0"/><stop offset=".32" stop-color="#fff" stop-opacity=".39"/><stop offset=".68" stop-color="#fff" stop-opacity=".68"/><stop offset="1" stop-color="#fff"/></linearGradient><linearGradient id="v" x1="1537.38" x2="1528.81" y1="4342.52" y2="4738.95" gradientUnits="userSpaceOnUse"><stop offset=".02" stop-color="#fff" stop-opacity="0"/><stop offset=".32" stop-color="#fff" stop-opacity=".39"/><stop offset=".68" stop-color="#fff" stop-opacity=".68"/><stop offset="1" stop-color="#fff"/></linearGradient><linearGradient id="w" x1="1460.01" x2="1451.4" y1="2099.68" y2="2282.66" gradientUnits="userSpaceOnUse"><stop offset=".02" stop-color="#fff" stop-opacity="0"/><stop offset=".32" stop-color="#fff" stop-opacity=".39"/><stop offset=".68" stop-color="#fff" stop-opacity=".68"/><stop offset="1" stop-color="#fff"/></linearGradient><linearGradient id="x" x1="1907.79" x2="1909.78" y1="3606.23" y2="4043.4" gradientUnits="userSpaceOnUse"><stop offset=".02" stop-color="#fff" stop-opacity="0"/><stop offset=".32" stop-color="#fff" stop-opacity=".39"/><stop offset=".68" stop-color="#fff" stop-opacity=".68"/><stop offset="1" stop-color="#fff"/></linearGradient><linearGradient id="y" x1="1986.77" x2="1987.8" y1="3648.82" y2="4398.44" gradientUnits="userSpaceOnUse"><stop offset=".02" stop-color="#fff" stop-opacity="0"/><stop offset=".32" stop-color="#fff" stop-opacity=".39"/><stop offset=".68" stop-color="#fff" stop-opacity=".68"/><stop offset="1" stop-color="#fff"/></linearGradient><linearGradient id="z" x1="3719.19" x2="3737.37" y1="1078.06" y2="1141.43" gradientUnits="userSpaceOnUse"><stop offset=".02" stop-color="#fff" stop-opacity="0"/><stop offset=".32" stop-color="#fff" stop-opacity=".39"/><stop offset=".68" stop-color="#fff" stop-opacity=".68"/><stop offset="1" stop-color="#fff"/></linearGradient><linearGradient id="A" x1="6669.41" x2="5498.32" y1="5082.22" y2="6613.27" gradientUnits="userSpaceOnUse"><stop offset="0" stop-opacity="0"/><stop offset=".99"/></linearGradient></defs><path fill="#df2c2c" d="M78.018 219.949a180.576 180.576 0 0082.269 20.05c10.668 0 21.489-.962 31.501-4.645 25.822-9.534 42.86-38.547 38.62-65.742-1.499-9.647-5.354-19.001-5.109-28.761.259-10.27 5.009-19.798 8.028-29.61a89.885 89.885 0 003.616-34.082c-1.493-17.184-8.625-34.62-22.518-44.87-5.579-4.127-12.002-6.933-18.364-9.706L166.809 9.79c-17.25-7.523-37.877-14.888-53.92-5.055-14.536 8.91-18.941 28.528-32.27 39.144-16.547 13.203-44.333 10.741-55.14 28.933-9.01 15.18.092 35.323-5.713 51.989-1.937 5.553-5.427 10.39-8.578 15.352-10.178 16.103-20.926 51.166 4.584 59.825 7.57 2.567 16.587.623 24.442 2.388 13.654 3.065 25.536 11.252 37.804 17.582z" opacity=".18"/><path fill="#df2c2c" d="M20.76 182.403s17.787-5.161 15.87-21.987c-1.917-16.825 2.362-47.769 12.367-47.105 10.005.663 60.103 0 60.103 0v38.301H76.212s2.296 12.805-3.636 21.795c-5.931 8.99-8.983 7.65-8.983 7.65z"/><path fill="url(#a)" d="M20.76 182.403s17.787-5.161 15.87-21.987c-1.917-16.825 2.362-47.769 12.367-47.105 10.005.663 60.103 0 60.103 0v38.301H76.212s2.296 12.805-3.636 21.795c-5.931 8.99-8.983 7.65-8.983 7.65z"/><path fill="#df2c2c" d="M96.1 99.62h79.516s8.79 2.103 9.746 13.767V217.59l-59.081.955c-.565.046-1.132.057-1.699.033a18.149 18.149 0 01-17.415-18.198v-90.052S106.045 100.96 96.1 99.62z"/><path fill="url(#b)" d="M96.1 99.62h79.516s8.79 2.103 9.746 13.767V217.59l-59.081.955c-.69.052-1.381.052-2.07 0a18.121 18.121 0 01-17.044-18.159v-90.058S106.045 100.96 96.1 99.62z"/><path fill="url(#c)" d="M129.936 192.985s-9.102-.903-9.195 11.444c-.093 12.347 8.174 9.952 8.174 9.952l1.751-.1s11-7.59 5.062-15.962c0-.02-2.434-4.91-5.792-5.334z"/><path fill="url(#d)" d="M130.914 194.734s-8.187-.83-8.273 10.297c-.087 11.126 7.358 8.943 7.358 8.943l1.572-.086s9.899-6.834 4.558-14.37c0-.034-2.196-4.426-5.215-4.784z"/><path fill="#df2c2c" d="M129.936 192.99h77.518s5.673 2.037 5.102 11.412c-.57 9.374-10.515 14.145-10.515 14.145H126.3s7.65-4.492 7.75-13.27c.099-8.777-4.114-12.287-4.114-12.287z"/><path fill="url(#e)" d="M129.936 192.99h77.518s5.673 2.037 5.102 11.412c-.57 9.374-10.515 14.145-10.515 14.145H126.3s7.65-4.492 7.75-13.27c.099-8.777-4.114-12.287-4.114-12.287z"/><path fill="#df2c2c" d="M49 113.318s5.48.511 4.97 9.05c-.512 8.538-1.275 29.703 8.923 29.703 10.197 0 17.084-1.659 17.462-7.524.378-5.865.664-31.607.664-31.607z"/><path fill="#df2c2c" d="M96.096 99.622s-13.933-.445-15.108 13.322c-1.174 13.767-.663 31.607-.663 31.607s-2.037 7.298-12.745 7.65h39.695l-.06-41.871s-1.433-9.627-11.12-10.708z"/><path fill="url(#f)" d="M96.096 99.622s-13.933-.445-15.108 13.322c-1.174 13.767-.663 31.607-.663 31.607s-2.037 7.298-12.745 7.65h39.695l-.06-41.871s-1.433-9.627-11.12-10.708z"/><path fill="#df2c2c" d="M132.072 27.763c-2.713.664-4.478 3.424-4.995 6.17-.518 2.747-.06 5.567.179 8.353.252 2.993.239 5.972.259 9.004 0 1.327.033 2.753.703 3.92.849 1.473 2.54 2.243 4.193 2.654 2.727.664 5.566.545 8.366.425 1.095-.046 2.276-.126 3.098-.843a4.139 4.139 0 001.148-2.162c.48-2.101.727-4.248.737-6.403l.477-10.502c.173-3.742.04-8.712-3.98-10.55-1.148-.523-2.409-.351-3.63-.305-2.103.08-4.458-.298-6.555.24z"/><path fill="url(#g)" d="M131.737 52.71c-.83.663 0 2.946 1.327 3.317.809.22-3.981.312-4.485-.365a5.779 5.779 0 01-1.022-2.707c-.12-2.965.206-5.97.086-8.97a11.704 11.704 0 01.285-3.907c.59-1.944 2.13-3.444 2.96-5.308.908 1.081.789 2.654.703 4.074a33.306 33.306 0 00.232 6.356 5.9 5.9 0 00.47 1.87c.83 1.706 3.318 2.13 3.822 3.981.637 2.376-3.012 2.077-4.378 1.659z"/><path fill="url(#h)" d="M136.098 28.738l.504 1.268c.212.53.51 1.127 1.068 1.247.29.032.583-.014.85-.133a2.654 2.654 0 001.525-1.214 2.89 2.89 0 00.186-1.327c-.053-1.605-.219-7.557-2.574-7.258-1.891.259-2.097 6.077-1.56 7.417z"/><path fill="url(#i)" d="M138.17 28.758c.391.424.995.803 1.512.55.518-.252.61-.822.664-1.326.053-.505.086-1.009.093-1.513a1.088 1.088 0 00-.724-1.161c-.577-.365-2.959-1.904-3.005-.305a5.712 5.712 0 001.46 3.755z"/><path fill="url(#j)" d="M145.023 17.591a40.473 40.473 0 01-1.327 5.447 8.943 8.943 0 01-.962 2.223 3.496 3.496 0 01-1.858 1.48 3.555 3.555 0 01-2.979-.664 5.255 5.255 0 01-1.778-2.19 7.231 7.231 0 01-.51-2.176 10.224 10.224 0 01.994-5.719 4.757 4.757 0 011.188-1.532 4.359 4.359 0 013.45-.763c1.191.246 2.331.694 3.37 1.327.93.53.564 1.698.412 2.567z"/><path fill="#3e3e54" d="M144.857 12.664c.338.278.642.597.902.949l1.393 1.725c.215.22.362.496.425.796a1.26 1.26 0 01-.206.75 2.8 2.8 0 01-2.183 1.327 5.593 5.593 0 01-2.852-.876 1.121 1.121 0 01-1.181.445c-.445-.073-.856-.28-1.327-.339a2.19 2.19 0 00-2.03.936c-.126.185-.345.424-.518.278a.332.332 0 01-.106-.232c-.073-.371-.265-.83-.664-.81a.55.55 0 00-.47.492c-.015.243.021.487.106.716l.325 1.055c.01.041.01.085 0 .126 0 .113-.193.106-.312.12-.266 0-.431.298-.511.55-.051.264-.16.513-.319.73a.212.212 0 01-.106.06.219.219 0 01-.12-.053 2.063 2.063 0 01-.57-1.52 59.503 59.503 0 01-.146-2.441 4.591 4.591 0 01.193-1.904c.214-.479.493-.925.83-1.327a5.97 5.97 0 011.06-1.208 4.545 4.545 0 012.137-.776c1.119-.2 2.254-.29 3.39-.272a4.85 4.85 0 012.86.703z"/><path fill="#df2c2c" d="M149.529 35.02c.856 2.653.829 5.526.783 8.333a19.24 19.24 0 01-.226 3.091 5.56 5.56 0 01-.975 2.395 3.104 3.104 0 01-2.19 1.268 1.844 1.844 0 01-1.028-.22c-.803-.47-.922-1.558-.955-2.487l-.385-10.92c-.06-1.666-3.105-6.317-2.813-7.962.318-1.785 4.319 1.366 5.274 2.308a10.323 10.323 0 012.515 4.194z"/><path fill="#3e3e54" d="M149.171 38.535c0-.246 0-.55-.219-.664a.431.431 0 00-.418.053 1.28 1.28 0 00-.404.996c-.073.79-.153 1.579-.226 2.368-.04.465-.312 1.287.398 1.168 1.029-.173.816-3.151.87-3.921z"/><path fill="url(#k)" d="M147.332 41.21a2.296 2.296 0 00-1.699 1.081.558.558 0 00-.053.133.279.279 0 00.053.172 1.2 1.2 0 00.903.445c.756.123 1.522.176 2.288.16a.796.796 0 00.452-.107.75.75 0 00.232-.405c.146-.477.431-1.406-.193-1.539a7.047 7.047 0 00-.962.08 8.724 8.724 0 00-1.021-.02z"/><path fill="#df2c2c" d="M122.803 37.502c-1.128 1.46-2.315 3.152-2.03 4.97a5.308 5.308 0 001.612 2.78c2.528 2.594 6.038 3.914 9.435 5.161a.75.75 0 00.464.073.71.71 0 00.338-.239c1.102-1.293.305-3.317-.895-4.544-1.201-1.228-2.787-2.084-3.563-3.596a.756.756 0 01-.12-.458.903.903 0 01.319-.458c1.89-1.718 3.622-3.808 4.107-6.316.312-1.632-.617-6.973-3.225-5.487-1.254.71-2.255 2.694-3.125 3.822z"/><path fill="#3e3e54" d="M128.022 58.2l3.476 38.712-4.538 2.488 8.625-.438 1.022-32.51 3.516-.152 2.787 32.967 8.936.584-4.69-3.363.245-40.472-18.305-.046c-1.074.013-1.174 1.141-1.074 2.23z"/><path fill="#fff" d="M139.389 43.114a1.639 1.639 0 011.91-1.074c3.335 0 6.67.135 10.005.404.433-.017.856.132 1.181.418a1.658 1.658 0 01.034 1.6 90.896 90.896 0 01-5.102 11.557 1.38 1.38 0 01-.266.404 1.46 1.46 0 01-1.015.299 95.231 95.231 0 01-11.756-.292c-.226 0-.498-.066-.59-.279-.22-.497.862-1.99 1.074-2.547.438-1.155.85-2.322 1.327-3.47a75.776 75.776 0 013.198-7.02z"/><path fill="url(#l)" d="M134.992 46.951c.531-.113 1.228-.113 1.44.385.126.298.033.716.305.896a.61.61 0 00.345.072c.425 0 .843-.099 1.26-.08a1.254 1.254 0 011.082.538 1.426 1.426 0 01-.12 1.327 4.465 4.465 0 01-.749 1.075 2.607 2.607 0 01-.83.617c-.29.12-.6.188-.915.2a6.74 6.74 0 01-3.808-.817 3.012 3.012 0 01-1.506-1.553c-.73-2.09 2.176-2.395 3.496-2.66z"/><path fill="url(#m)" d="M175.064 112.05H125.35a1.91 1.91 0 100 3.822h49.713a1.91 1.91 0 100-3.822z"/><path fill="url(#n)" d="M175.064 120.46H125.35a1.91 1.91 0 000 3.822h49.713a1.91 1.91 0 100-3.822z"/><path fill="url(#o)" d="M175.064 128.87H125.35a1.91 1.91 0 100 3.822h49.713a1.91 1.91 0 100-3.822z"/><path fill="url(#p)" d="M175.064 137.28H125.35a1.91 1.91 0 100 3.822h49.713a1.91 1.91 0 100-3.822z"/><path fill="url(#q)" d="M175.064 145.7H125.35a1.91 1.91 0 100 3.822h49.713a1.91 1.91 0 100-3.822z"/><path fill="url(#r)" d="M175.064 154.11H125.35a1.91 1.91 0 100 3.822h49.713a1.91 1.91 0 100-3.822z"/><path fill="url(#s)" d="M175.064 162.52H125.35a1.91 1.91 0 100 3.822h49.713a1.91 1.91 0 100-3.822z"/><path fill="url(#t)" d="M134.525 171.06h-5.865v17.336h5.865z"/><path fill="url(#u)" d="M142.695 176.35h-5.865v12.042h5.865z"/><path fill="url(#v)" d="M158.625 171.82h-5.865v16.58h5.865z"/><path fill="url(#w)" d="M150.715 180.75h-5.865v7.65h5.865z"/><path fill="url(#x)" d="M171.62 175.23h-6.88v13.296h6.88z"/><path fill="url(#y)" d="M178.5 175.26h-6.88v13.27h6.88z"/><path fill="url(#z)" d="M178.507 171.57H164.74v3.57h13.767z"/><path fill="url(#A)" d="M107.75 204.479c.418 2.408 3.603 10.86 11.584 12.95 3.676.963 7.962 1.898 11.478.459a8.101 8.101 0 002.813-1.798 5.76 5.76 0 00.1-7.544 10.876 10.876 0 00-2.654-1.944c-2.827-1.652-6.277-4.359-9.68-4.438-3.404-.08-10.417 1.2-13.641 2.315z"/></svg>