<svg width="271" height="274" fill="none" xmlns="http://www.w3.org/2000/svg"><g clip-path="url(#clip0)"><path d="M89.068 251.11a206.154 206.154 0 0093.924 22.891c12.18 0 24.534-1.099 35.963-5.303 29.48-10.884 48.932-44.007 44.092-75.055-1.712-11.014-6.113-21.694-5.833-32.836.296-11.725 5.719-22.602 9.165-33.805a102.623 102.623 0 004.129-38.91c-1.705-19.618-9.847-39.524-25.708-51.226-6.37-4.712-13.703-7.916-20.967-11.082l-33.396-14.603c-19.693-8.59-43.242-16.998-61.557-5.772-16.596 10.172-21.626 32.57-36.843 44.69C73.147 65.171 41.424 62.36 29.085 83.13c-10.286 17.33.107 40.326-6.521 59.353-2.212 6.34-6.196 11.862-9.794 17.528-11.62 18.383-23.89 58.414 5.234 68.299 8.642 2.931 18.936.712 27.904 2.727 15.589 3.499 29.155 12.846 43.16 20.072z" fill="#E5E5E5"/><path d="M23.7 208.246s20.308-5.893 18.119-25.102c-2.19-19.209 2.696-54.537 14.119-53.779 11.422.757 68.617 0 68.617 0v43.727H87.008s2.621 14.619-4.15 24.883c-6.772 10.263-10.256 8.733-10.256 8.733L23.7 208.246z" fill="#DF2C2C"/><path d="M23.7 208.246s20.308-5.893 18.119-25.102c-2.19-19.209 2.696-54.537 14.119-53.779 11.422.757 68.617 0 68.617 0v43.727H87.008s2.621 14.619-4.15 24.883c-6.772 10.263-10.256 8.733-10.256 8.733L23.7 208.246z" fill="url(#paint0_linear)"/><path d="M109.709 113.731h90.78s10.037 2.401 11.127 15.717v118.965l-67.451 1.091c-.644.052-1.292.065-1.939.038a20.725 20.725 0 01-19.883-20.777V125.956s-1.28-10.695-12.634-12.225z" fill="#DF2C2C"/><path d="M109.709 113.731h90.78s10.037 2.401 11.127 15.717v118.965l-67.451 1.091c-.786.059-1.576.059-2.363 0a20.687 20.687 0 01-19.459-20.731V125.956s-1.28-10.695-12.634-12.225z" fill="url(#paint1_linear)"/><path d="M148.347 220.327s-10.393-1.03-10.499 13.066c-.106 14.096 9.332 11.362 9.332 11.362l2-.114s12.558-8.665 5.779-18.224c0-.023-2.78-5.605-6.612-6.09z" fill="url(#paint2_linear)"/><path d="M149.46 222.327s-9.347-.947-9.445 11.755c-.099 12.703 8.4 10.211 8.4 10.211l1.795-.099s11.301-7.801 5.204-16.406c0-.038-2.508-5.052-5.954-5.461z" fill="url(#paint3_linear)"/><path d="M148.347 220.327h88.5s6.476 2.325 5.825 13.028c-.652 10.703-12.006 16.149-12.006 16.149h-86.47s8.733-5.128 8.847-15.149c.113-10.021-4.696-14.028-4.696-14.028z" fill="#DF2C2C"/><path d="M148.347 220.327h88.5s6.476 2.325 5.825 13.028c-.652 10.703-12.006 16.149-12.006 16.149h-86.47s8.733-5.128 8.847-15.149c.113-10.021-4.696-14.028-4.696-14.028z" fill="url(#paint4_linear)"/><path d="M55.938 129.373s6.256.583 5.673 10.331c-.583 9.749-1.454 33.911 10.188 33.911 11.642 0 19.504-1.893 19.936-8.589.431-6.696.757-36.085.757-36.085l-36.554.432z" fill="#DF2C2C"/><path d="M109.709 113.731s-15.906-.507-17.247 15.21c-1.34 15.717-.758 36.085-.758 36.085s-2.325 8.332-14.55 8.733h45.318l-.068-47.803s-1.636-10.99-12.695-12.225z" fill="#DF2C2C"/><path d="M109.709 113.731s-15.906-.507-17.247 15.21c-1.34 15.717-.758 36.085-.758 36.085s-2.325 8.332-14.55 8.733h45.318l-.068-47.803s-1.636-10.99-12.695-12.225z" fill="url(#paint5_linear)"/><path d="M150.778 31.7c-3.098.757-5.113 3.908-5.704 7.044-.59 3.135-.068 6.355.205 9.536.288 3.416.273 6.817.295 10.279 0 1.514.038 3.143.803 4.476.97 1.681 2.901 2.56 4.787 3.03 3.113.757 6.355.62 9.552.485 1.25-.053 2.598-.144 3.537-.962a4.718 4.718 0 001.31-2.47c.548-2.398.83-4.85.841-7.31l.546-11.99c.197-4.271.045-9.945-4.545-12.043-1.311-.598-2.75-.401-4.143-.348-2.401.09-5.09-.341-7.484.272z" fill="#DF2C2C"/><path d="M150.399 60.172c-.947.757 0 3.363 1.515 3.787.924.25-4.545.356-5.12-.417a6.6 6.6 0 01-1.167-3.09c-.136-3.386.235-6.817.099-10.24a13.32 13.32 0 01.326-4.462c.674-2.22 2.431-3.931 3.378-6.06 1.037 1.235.901 3.03.803 4.651a37.938 37.938 0 00.265 7.256 6.7 6.7 0 00.538 2.137c.946 1.946 3.787 2.431 4.362 4.544.728 2.712-3.438 2.371-4.999 1.894z" fill="url(#paint6_linear)"/><path d="M155.376 32.805l.575 1.447c.243.606.584 1.287 1.22 1.424.331.036.666-.016.969-.152a3.031 3.031 0 001.743-1.386c.188-.481.261-1 .212-1.515-.061-1.833-.25-8.627-2.939-8.286-2.159.295-2.394 6.938-1.78 8.468z" fill="url(#paint7_linear)"/><path d="M157.739 32.835c.447.485 1.136.917 1.727.63.591-.289.697-.94.757-1.516.061-.575.099-1.151.106-1.727a1.242 1.242 0 00-.825-1.325c-.659-.417-3.378-2.174-3.431-.349a6.518 6.518 0 001.666 4.287z" fill="url(#paint8_linear)"/><path d="M165.571 20.088a46.276 46.276 0 01-1.515 6.218 10.214 10.214 0 01-1.098 2.538 3.993 3.993 0 01-2.121 1.689 4.06 4.06 0 01-3.401-.758 5.997 5.997 0 01-2.03-2.5 8.242 8.242 0 01-.583-2.484 11.67 11.67 0 011.136-6.529 5.435 5.435 0 011.356-1.75 4.975 4.975 0 013.939-.87c1.359.28 2.661.793 3.847 1.514 1.061.606.644 1.94.47 2.932z" fill="url(#paint9_linear)"/><path d="M165.374 14.46a6.04 6.04 0 011.03 1.083l1.591 1.97c.245.25.413.565.485.908.013.303-.069.603-.235.856a3.204 3.204 0 01-2.492 1.515 6.385 6.385 0 01-3.257-1 1.283 1.283 0 01-1.348.508c-.508-.084-.978-.319-1.515-.387a2.5 2.5 0 00-2.318 1.068c-.144.212-.394.485-.591.318a.377.377 0 01-.121-.265c-.084-.424-.303-.946-.758-.924a.626.626 0 00-.537.56 2.02 2.02 0 00.121.819l.371 1.204a.318.318 0 010 .144c0 .129-.22.121-.356.137-.303 0-.492.34-.583.628a2.078 2.078 0 01-.364.833.243.243 0 01-.121.069.247.247 0 01-.136-.061 2.346 2.346 0 01-.652-1.735 66.007 66.007 0 01-.166-2.787 5.231 5.231 0 01.219-2.174 6.512 6.512 0 01.947-1.515c.34-.512.748-.976 1.212-1.378a5.189 5.189 0 012.439-.887 20.113 20.113 0 013.87-.31 5.537 5.537 0 013.265.803z" fill="#3E3E54"/><path d="M170.714 39.986c.977 3.03.947 6.31.894 9.513a21.951 21.951 0 01-.258 3.53 6.345 6.345 0 01-1.113 2.734 3.544 3.544 0 01-2.5 1.447 2.107 2.107 0 01-1.174-.25c-.916-.538-1.053-1.78-1.09-2.84l-.44-12.468c-.068-1.901-3.545-7.21-3.211-9.09.363-2.037 4.931 1.561 6.021 2.637a11.783 11.783 0 012.871 4.787z" fill="#DF2C2C"/><path d="M170.305 43.993c0-.28 0-.629-.25-.758a.492.492 0 00-.477.06 1.46 1.46 0 00-.462 1.137c-.083.901-.174 1.803-.258 2.704-.045.53-.356 1.47.455 1.333 1.174-.197.931-3.598.992-4.476z" fill="#3E3E54"/><path d="M168.207 47.053a2.618 2.618 0 00-1.939 1.234.638.638 0 00-.061.152c-.002.07.019.14.061.197a1.372 1.372 0 001.03.507c.864.14 1.738.201 2.613.182.18.012.359-.03.515-.121a.85.85 0 00.265-.462c.167-.545.493-1.606-.219-1.757a8.059 8.059 0 00-1.099.09 9.948 9.948 0 00-1.166-.022z" fill="url(#paint10_linear)"/><path d="M140.196 42.811c-1.287 1.666-2.643 3.598-2.317 5.673a6.052 6.052 0 001.84 3.174c2.886 2.962 6.893 4.469 10.771 5.893a.855.855 0 00.53.083.814.814 0 00.387-.272c1.257-1.477.348-3.788-1.023-5.189-1.371-1.401-3.181-2.378-4.067-4.105a.863.863 0 01-.137-.523c.063-.208.191-.391.364-.523 2.159-1.961 4.136-4.347 4.688-7.21.356-1.864-.704-7.961-3.681-6.265-1.431.81-2.575 3.076-3.567 4.363l-3.788 4.901z" fill="#DF2C2C"/><path d="M146.158 66.444l3.969 44.197-5.181 2.84 9.847-.5 1.166-37.115 4.014-.174 3.182 37.638 10.203.666-5.356-3.84.281-46.205-20.898-.053c-1.227.016-1.341 1.303-1.227 2.545z" fill="#473F47"/><path d="M159.14 49.227A1.872 1.872 0 01161.322 48c3.807 0 7.615.154 11.422.462.494-.02.977.15 1.348.477a1.895 1.895 0 01.038 1.825 103.645 103.645 0 01-5.825 13.195c-.073.17-.175.327-.303.462-.33.254-.743.375-1.158.341-4.477.165-8.96.054-13.423-.333-.257 0-.568-.076-.674-.319-.25-.568.985-2.272 1.227-2.908.5-1.318.97-2.651 1.515-3.962a86.572 86.572 0 013.651-8.013z" fill="#fff"/><path d="M154.118 53.597c.606-.129 1.402-.129 1.644.44.144.34.038.818.348 1.022a.7.7 0 00.394.083c.485 0 .962-.113 1.439-.09a1.435 1.435 0 011.235.613 1.635 1.635 0 01-.136 1.515 5.117 5.117 0 01-.856 1.227 2.978 2.978 0 01-.947.704 3.028 3.028 0 01-1.045.228 7.695 7.695 0 01-4.348-.932 3.437 3.437 0 01-1.719-1.772c-.834-2.386 2.484-2.735 3.991-3.038z" fill="url(#paint11_linear)"/><path d="M199.861 127.918h-56.756a2.181 2.181 0 000 4.363h56.756a2.181 2.181 0 000-4.363z" fill="url(#paint12_linear)"/><path d="M199.861 137.523h-56.756a2.18 2.18 0 100 4.363h56.756a2.181 2.181 0 000-4.363z" fill="url(#paint13_linear)"/><path d="M199.861 147.127h-56.756a2.181 2.181 0 000 4.363h56.756a2.181 2.181 0 000-4.363z" fill="url(#paint14_linear)"/><path d="M199.861 156.732h-56.756a2.18 2.18 0 100 4.362h56.756a2.18 2.18 0 100-4.362z" fill="url(#paint15_linear)"/><path d="M199.861 166.336h-56.756a2.181 2.181 0 000 4.363h56.756a2.181 2.181 0 000-4.363z" fill="url(#paint16_linear)"/><path d="M199.861 175.941h-56.756a2.18 2.18 0 100 4.362h56.756a2.18 2.18 0 100-4.362z" fill="url(#paint17_linear)"/><path d="M199.861 185.545h-56.756a2.181 2.181 0 000 4.363h56.756a2.181 2.181 0 000-4.363z" fill="url(#paint18_linear)"/><path d="M153.588 195.293h-6.696v19.793h6.696v-19.793z" fill="url(#paint19_linear)"/><path d="M162.905 201.338h-6.696v13.747h6.696v-13.747z" fill="url(#paint20_linear)"/><path d="M181.091 196.157h-6.696v18.929h6.696v-18.929z" fill="url(#paint21_linear)"/><path d="M172.07 206.352h-6.696v8.734h6.696v-8.734z" fill="url(#paint22_linear)"/><path d="M195.93 200.05h-7.855v15.179h7.855V200.05z" fill="url(#paint23_linear)"/><path d="M203.792 200.088h-7.855v15.149h7.855v-15.149z" fill="url(#paint24_linear)"/><path d="M203.792 195.877h-15.717v4.075h15.717v-4.075z" fill="url(#paint25_linear)"/><path d="M123.01 233.446c.477 2.75 4.113 12.4 13.225 14.786 4.196 1.098 9.089 2.166 13.104.522a9.247 9.247 0 003.211-2.053 6.572 6.572 0 00.114-8.612 12.405 12.405 0 00-3.03-2.219c-3.226-1.886-7.165-4.976-11.051-5.067-3.886-.091-11.892 1.371-15.573 2.643z" fill="url(#paint26_linear)"/></g><defs><linearGradient id="paint0_linear" x1="23.701" y1="168.805" x2="124.555" y2="168.805" gradientUnits="userSpaceOnUse"><stop stop-opacity="0"/><stop offset=".99"/></linearGradient><linearGradient id="paint1_linear" x1="109.724" y1="180.856" x2="267.766" y2="182.856" gradientUnits="userSpaceOnUse"><stop offset=".021" stop-color="#fff" stop-opacity="0"/><stop offset=".32" stop-color="#fff" stop-opacity=".39"/><stop offset=".849" stop-color="#fff" stop-opacity=".68"/><stop offset=".906" stop-color="#fff"/></linearGradient><linearGradient id="paint2_linear" x1="6067.67" y1="9213.88" x2="3086" y2="7387.41" gradientUnits="userSpaceOnUse"><stop stop-opacity="0"/><stop offset=".99"/></linearGradient><linearGradient id="paint3_linear" x1="5385.94" y1="8210.83" x2="2972.24" y2="6731.79" gradientUnits="userSpaceOnUse"><stop stop-opacity="0"/><stop offset=".99"/></linearGradient><linearGradient id="paint4_linear" x1="31324.5" y1="8086.44" x2="30998.5" y2="11410.7" gradientUnits="userSpaceOnUse"><stop stop-opacity="0"/><stop offset=".99"/></linearGradient><linearGradient id="paint5_linear" x1="6839.09" y1="11654.5" x2="9546.85" y2="11654.5" gradientUnits="userSpaceOnUse"><stop stop-opacity="0"/><stop offset=".99"/></linearGradient><linearGradient id="paint6_linear" x1="2613.57" y1="1752.14" x2="2366.47" y2="1779.85" gradientUnits="userSpaceOnUse"><stop stop-opacity="0"/><stop offset=".99"/></linearGradient><linearGradient id="paint7_linear" x1="155.08" y1="30.025" x2="160.095" y2="30.025" gradientUnits="userSpaceOnUse"><stop stop-color="#E5C5D5"/><stop offset=".42" stop-color="#EAD4D1"/><stop offset="1" stop-color="#F0E9CB"/></linearGradient><linearGradient id="paint8_linear" x1="1250.44" y1="311.504" x2="1244.34" y2="218.127" gradientUnits="userSpaceOnUse"><stop stop-opacity="0"/><stop offset=".99"/></linearGradient><linearGradient id="paint9_linear" x1="2936.38" y1="513.581" x2="3097.44" y2="513.581" gradientUnits="userSpaceOnUse"><stop stop-color="#E5C5D5"/><stop offset=".42" stop-color="#EAD4D1"/><stop offset="1" stop-color="#F0E9CB"/></linearGradient><linearGradient id="paint10_linear" x1="1421.25" y1="201.804" x2="1450.47" y2="201.804" gradientUnits="userSpaceOnUse"><stop stop-color="#E5C5D5"/><stop offset=".42" stop-color="#EAD4D1"/><stop offset="1" stop-color="#F0E9CB"/></linearGradient><linearGradient id="paint11_linear" x1="2433.98" y1="502.859" x2="2548.49" y2="502.859" gradientUnits="userSpaceOnUse"><stop stop-color="#E5C5D5"/><stop offset=".42" stop-color="#EAD4D1"/><stop offset="1" stop-color="#F0E9CB"/></linearGradient><linearGradient id="paint12_linear" x1="14089.4" y1="794.352" x2="14085.5" y2="1362.2" gradientUnits="userSpaceOnUse"><stop offset=".02" stop-color="#fff" stop-opacity="0"/><stop offset=".32" stop-color="#fff" stop-opacity=".39"/><stop offset=".68" stop-color="#fff" stop-opacity=".68"/><stop offset="1" stop-color="#fff"/></linearGradient><linearGradient id="paint13_linear" x1="14162.8" y1="804.484" x2="14158.9" y2="1372.29" gradientUnits="userSpaceOnUse"><stop offset=".02" stop-color="#fff" stop-opacity="0"/><stop offset=".32" stop-color="#fff" stop-opacity=".39"/><stop offset=".68" stop-color="#fff" stop-opacity=".68"/><stop offset="1" stop-color="#fff"/></linearGradient><linearGradient id="paint14_linear" x1="14236.1" y1="814.566" x2="14232.2" y2="1382.41" gradientUnits="userSpaceOnUse"><stop offset=".02" stop-color="#fff" stop-opacity="0"/><stop offset=".32" stop-color="#fff" stop-opacity=".39"/><stop offset=".68" stop-color="#fff" stop-opacity=".68"/><stop offset="1" stop-color="#fff"/></linearGradient><linearGradient id="paint15_linear" x1="14309.4" y1="824.694" x2="14305.6" y2="1392.5" gradientUnits="userSpaceOnUse"><stop offset=".02" stop-color="#fff" stop-opacity="0"/><stop offset=".32" stop-color="#fff" stop-opacity=".39"/><stop offset=".68" stop-color="#fff" stop-opacity=".68"/><stop offset="1" stop-color="#fff"/></linearGradient><linearGradient id="paint16_linear" x1="14382.8" y1="834.778" x2="14378.9" y2="1402.62" gradientUnits="userSpaceOnUse"><stop offset=".02" stop-color="#fff" stop-opacity="0"/><stop offset=".32" stop-color="#fff" stop-opacity=".39"/><stop offset=".68" stop-color="#fff" stop-opacity=".68"/><stop offset="1" stop-color="#fff"/></linearGradient><linearGradient id="paint17_linear" x1="14456.1" y1="844.906" x2="14452.3" y2="1412.7" gradientUnits="userSpaceOnUse"><stop offset=".02" stop-color="#fff" stop-opacity="0"/><stop offset=".32" stop-color="#fff" stop-opacity=".39"/><stop offset=".68" stop-color="#fff" stop-opacity=".68"/><stop offset="1" stop-color="#fff"/></linearGradient><linearGradient id="paint18_linear" x1="14529.5" y1="854.988" x2="14525.6" y2="1422.82" gradientUnits="userSpaceOnUse"><stop offset=".02" stop-color="#fff" stop-opacity="0"/><stop offset=".32" stop-color="#fff" stop-opacity=".39"/><stop offset=".68" stop-color="#fff" stop-opacity=".68"/><stop offset="1" stop-color="#fff"/></linearGradient><linearGradient id="paint19_linear" x1="1483.86" y1="5129.88" x2="1400.83" y2="5590.09" gradientUnits="userSpaceOnUse"><stop offset=".02" stop-color="#fff" stop-opacity="0"/><stop offset=".32" stop-color="#fff" stop-opacity=".39"/><stop offset=".68" stop-color="#fff" stop-opacity=".68"/><stop offset="1" stop-color="#fff"/></linearGradient><linearGradient id="paint20_linear" x1="1576.87" y1="3639.51" x2="1535.88" y2="3964.42" gradientUnits="userSpaceOnUse"><stop offset=".02" stop-color="#fff" stop-opacity="0"/><stop offset=".32" stop-color="#fff" stop-opacity=".39"/><stop offset=".68" stop-color="#fff" stop-opacity=".68"/><stop offset="1" stop-color="#fff"/></linearGradient><linearGradient id="paint21_linear" x1="1753.82" y1="4957.66" x2="1677.67" y2="5398.79" gradientUnits="userSpaceOnUse"><stop offset=".02" stop-color="#fff" stop-opacity="0"/><stop offset=".32" stop-color="#fff" stop-opacity=".39"/><stop offset=".68" stop-color="#fff" stop-opacity=".68"/><stop offset="1" stop-color="#fff"/></linearGradient><linearGradient id="paint22_linear" x1="1668.12" y1="2397.04" x2="1651.42" y2="2605.39" gradientUnits="userSpaceOnUse"><stop offset=".02" stop-color="#fff" stop-opacity="0"/><stop offset=".32" stop-color="#fff" stop-opacity=".39"/><stop offset=".68" stop-color="#fff" stop-opacity=".68"/><stop offset="1" stop-color="#fff"/></linearGradient><linearGradient id="paint23_linear" x1="2178.07" y1="4115.86" x2="2186.58" y2="4614.69" gradientUnits="userSpaceOnUse"><stop offset=".02" stop-color="#fff" stop-opacity="0"/><stop offset=".32" stop-color="#fff" stop-opacity=".39"/><stop offset=".68" stop-color="#fff" stop-opacity=".68"/><stop offset="1" stop-color="#fff"/></linearGradient><linearGradient id="paint24_linear" x1="2268.25" y1="4165.49" x2="2272.63" y2="5021.25" gradientUnits="userSpaceOnUse"><stop offset=".02" stop-color="#fff" stop-opacity="0"/><stop offset=".32" stop-color="#fff" stop-opacity=".39"/><stop offset=".68" stop-color="#fff" stop-opacity=".68"/><stop offset="1" stop-color="#fff"/></linearGradient><linearGradient id="paint25_linear" x1="4245.12" y1="1230.63" x2="4246.52" y2="1303.33" gradientUnits="userSpaceOnUse"><stop offset=".02" stop-color="#fff" stop-opacity="0"/><stop offset=".32" stop-color="#fff" stop-opacity=".39"/><stop offset=".68" stop-color="#fff" stop-opacity=".68"/><stop offset="1" stop-color="#fff"/></linearGradient><linearGradient id="paint26_linear" x1="7614.9" y1="5801.9" x2="7068.45" y2="7769.36" gradientUnits="userSpaceOnUse"><stop stop-opacity="0"/><stop offset=".99"/></linearGradient><clipPath id="clip0"><path fill="#fff" d="M0 0h270.925v274H0z"/></clipPath></defs></svg>