<svg xmlns="http://www.w3.org/2000/svg" width="271" height="274"><defs><linearGradient id="a" x1="23.7" x2="124.55" y1="168.8" y2="168.8" gradientUnits="userSpaceOnUse"><stop offset="0" stop-opacity="0"/><stop offset=".99"/></linearGradient><linearGradient id="b" x1="109.73" x2="267.77" y1="180.86" y2="182.86" gradientUnits="userSpaceOnUse"><stop offset=".02" stop-color="#fff" stop-opacity="0"/><stop offset=".32" stop-color="#fff" stop-opacity=".39"/><stop offset=".85" stop-color="#fff" stop-opacity=".68"/><stop offset=".91" stop-color="#fff"/></linearGradient><linearGradient id="c" x1="6067.73" x2="3542.93" y1="9214.55" y2="6642.02" gradientUnits="userSpaceOnUse"><stop offset="0" stop-opacity="0"/><stop offset=".99"/></linearGradient><linearGradient id="d" x1="5387.34" x2="3342.45" y1="8210.88" y2="6129.07" gradientUnits="userSpaceOnUse"><stop offset="0" stop-opacity="0"/><stop offset=".99"/></linearGradient><linearGradient id="e" x1="31323.81" x2="27941.62" y1="8087.26" y2="11112.06" gradientUnits="userSpaceOnUse"><stop offset="0" stop-opacity="0"/><stop offset=".99"/></linearGradient><linearGradient id="f" x1="6839.35" x2="9547.22" y1="11654.5" y2="11654.5" gradientUnits="userSpaceOnUse"><stop offset="0" stop-opacity="0"/><stop offset=".99"/></linearGradient><linearGradient id="g" x1="2614.54" x2="2382.12" y1="1751.92" y2="1911.34" gradientUnits="userSpaceOnUse"><stop offset="0" stop-opacity="0"/><stop offset=".99"/></linearGradient><linearGradient id="h" x1="155.08" x2="160.1" y1="30.02" y2="30.02" gradientUnits="userSpaceOnUse"><stop offset="0" stop-color="#e5c5d5"/><stop offset=".42" stop-color="#ead4d1"/><stop offset="1" stop-color="#f0e9cb"/></linearGradient><linearGradient id="i" x1="1251.41" x2="1248.12" y1="311.4" y2="217.87" gradientUnits="userSpaceOnUse"><stop offset="0" stop-opacity="0"/><stop offset=".99"/></linearGradient><linearGradient id="j" x1="2935.25" x2="3096.25" y1="513.51" y2="513.51" gradientUnits="userSpaceOnUse"><stop offset="0" stop-color="#e5c5d5"/><stop offset=".42" stop-color="#ead4d1"/><stop offset="1" stop-color="#f0e9cb"/></linearGradient><linearGradient id="k" x1="1422.56" x2="1451.8" y1="201.54" y2="201.54" gradientUnits="userSpaceOnUse"><stop offset="0" stop-color="#e5c5d5"/><stop offset=".42" stop-color="#ead4d1"/><stop offset="1" stop-color="#f0e9cb"/></linearGradient><linearGradient id="l" x1="2434.01" x2="2548.53" y1="503.09" y2="503.09" gradientUnits="userSpaceOnUse"><stop offset="0" stop-color="#e5c5d5"/><stop offset=".42" stop-color="#ead4d1"/><stop offset="1" stop-color="#f0e9cb"/></linearGradient><linearGradient id="m" x1="14089.73" x2="13336.12" y1="793.91" y2="1356.26" gradientUnits="userSpaceOnUse"><stop offset=".02" stop-color="#fff" stop-opacity="0"/><stop offset=".32" stop-color="#fff" stop-opacity=".39"/><stop offset=".68" stop-color="#fff" stop-opacity=".68"/><stop offset="1" stop-color="#fff"/></linearGradient><linearGradient id="n" x1="14163.07" x2="13409.46" y1="804.03" y2="1366.34" gradientUnits="userSpaceOnUse"><stop offset=".02" stop-color="#fff" stop-opacity="0"/><stop offset=".32" stop-color="#fff" stop-opacity=".39"/><stop offset=".68" stop-color="#fff" stop-opacity=".68"/><stop offset="1" stop-color="#fff"/></linearGradient><linearGradient id="o" x1="14236.42" x2="13482.81" y1="814.12" y2="1376.48" gradientUnits="userSpaceOnUse"><stop offset=".02" stop-color="#fff" stop-opacity="0"/><stop offset=".32" stop-color="#fff" stop-opacity=".39"/><stop offset=".68" stop-color="#fff" stop-opacity=".68"/><stop offset="1" stop-color="#fff"/></linearGradient><linearGradient id="p" x1="14309.76" x2="13556.15" y1="824.25" y2="1386.56" gradientUnits="userSpaceOnUse"><stop offset=".02" stop-color="#fff" stop-opacity="0"/><stop offset=".32" stop-color="#fff" stop-opacity=".39"/><stop offset=".68" stop-color="#fff" stop-opacity=".68"/><stop offset="1" stop-color="#fff"/></linearGradient><linearGradient id="q" x1="14383.1" x2="13629.49" y1="834.34" y2="1396.69" gradientUnits="userSpaceOnUse"><stop offset=".02" stop-color="#fff" stop-opacity="0"/><stop offset=".32" stop-color="#fff" stop-opacity=".39"/><stop offset=".68" stop-color="#fff" stop-opacity=".68"/><stop offset="1" stop-color="#fff"/></linearGradient><linearGradient id="r" x1="14456.45" x2="13703.45" y1="844.46" y2="1406.77" gradientUnits="userSpaceOnUse"><stop offset=".02" stop-color="#fff" stop-opacity="0"/><stop offset=".32" stop-color="#fff" stop-opacity=".39"/><stop offset=".68" stop-color="#fff" stop-opacity=".68"/><stop offset="1" stop-color="#fff"/></linearGradient><linearGradient id="s" x1="14529.79" x2="13776.79" y1="854.54" y2="1416.89" gradientUnits="userSpaceOnUse"><stop offset=".02" stop-color="#fff" stop-opacity="0"/><stop offset=".32" stop-color="#fff" stop-opacity=".39"/><stop offset=".68" stop-color="#fff" stop-opacity=".68"/><stop offset="1" stop-color="#fff"/></linearGradient><linearGradient id="t" x1="1484.68" x2="1474.9" y1="5129.33" y2="5602.71" gradientUnits="userSpaceOnUse"><stop offset=".02" stop-color="#fff" stop-opacity="0"/><stop offset=".32" stop-color="#fff" stop-opacity=".39"/><stop offset=".68" stop-color="#fff" stop-opacity=".68"/><stop offset="1" stop-color="#fff"/></linearGradient><linearGradient id="u" x1="1577.75" x2="1567.9" y1="3640.08" y2="3968.98" gradientUnits="userSpaceOnUse"><stop offset=".02" stop-color="#fff" stop-opacity="0"/><stop offset=".32" stop-color="#fff" stop-opacity=".39"/><stop offset=".68" stop-color="#fff" stop-opacity=".68"/><stop offset="1" stop-color="#fff"/></linearGradient><linearGradient id="v" x1="1754.8" x2="1745.01" y1="4958" y2="5410.62" gradientUnits="userSpaceOnUse"><stop offset=".02" stop-color="#fff" stop-opacity="0"/><stop offset=".32" stop-color="#fff" stop-opacity=".39"/><stop offset=".68" stop-color="#fff" stop-opacity=".68"/><stop offset="1" stop-color="#fff"/></linearGradient><linearGradient id="w" x1="1669.05" x2="1659.2" y1="2396.18" y2="2605" gradientUnits="userSpaceOnUse"><stop offset=".02" stop-color="#fff" stop-opacity="0"/><stop offset=".32" stop-color="#fff" stop-opacity=".39"/><stop offset=".68" stop-color="#fff" stop-opacity=".68"/><stop offset="1" stop-color="#fff"/></linearGradient><linearGradient id="x" x1="2176.87" x2="2179.14" y1="4116.03" y2="4615" gradientUnits="userSpaceOnUse"><stop offset=".02" stop-color="#fff" stop-opacity="0"/><stop offset=".32" stop-color="#fff" stop-opacity=".39"/><stop offset=".68" stop-color="#fff" stop-opacity=".68"/><stop offset="1" stop-color="#fff"/></linearGradient><linearGradient id="y" x1="2267.01" x2="2268.18" y1="4165.75" y2="5021.58" gradientUnits="userSpaceOnUse"><stop offset=".02" stop-color="#fff" stop-opacity="0"/><stop offset=".32" stop-color="#fff" stop-opacity=".39"/><stop offset=".68" stop-color="#fff" stop-opacity=".68"/><stop offset="1" stop-color="#fff"/></linearGradient><linearGradient id="z" x1="4245.87" x2="4266.62" y1="1231.87" y2="1304.29" gradientUnits="userSpaceOnUse"><stop offset=".02" stop-color="#fff" stop-opacity="0"/><stop offset=".32" stop-color="#fff" stop-opacity=".39"/><stop offset=".68" stop-color="#fff" stop-opacity=".68"/><stop offset="1" stop-color="#fff"/></linearGradient><linearGradient id="A" x1="7613.82" x2="6276.9" y1="5801.24" y2="7548.89" gradientUnits="userSpaceOnUse"><stop offset="0" stop-opacity="0"/><stop offset=".99"/></linearGradient></defs><path fill="#e5e5e5" d="M89.07 251.108a206.14 206.14 0 0093.924 22.89c12.18 0 24.534-1.098 35.964-5.302 29.48-10.884 48.931-44.008 44.091-75.056-1.712-11.013-6.112-21.693-5.832-32.835.295-11.725 5.718-22.602 9.165-33.805a102.603 102.603 0 004.128-38.91c-1.704-19.618-9.847-39.524-25.708-51.227-6.37-4.71-13.702-7.915-20.966-11.081L190.44 11.178c-19.694-8.59-43.243-16.997-61.558-5.771-16.596 10.172-21.625 32.57-36.842 44.69-18.891 15.072-50.613 12.262-62.952 33.031-10.286 17.331.106 40.327-6.522 59.354-2.211 6.34-6.196 11.862-9.793 17.528-11.62 18.383-23.89 58.414 5.234 68.299 8.642 2.931 18.936.712 27.904 2.727 15.588 3.499 29.154 12.846 43.16 20.072z"/><path fill="#df2c2c" d="M23.7 208.243s20.307-5.893 18.118-25.102 2.697-54.536 14.12-53.779c11.421.757 68.616 0 68.616 0v43.728H87.008s2.62 14.618-4.151 24.882c-6.772 10.263-10.256 8.733-10.256 8.733z"/><path fill="url(#a)" d="M23.7 208.243s20.307-5.893 18.118-25.102 2.697-54.536 14.12-53.779c11.421.757 68.616 0 68.616 0v43.728H87.008s2.62 14.618-4.151 24.882c-6.772 10.263-10.256 8.733-10.256 8.733z"/><path fill="#df2c2c" d="M109.71 113.73h90.78s10.037 2.401 11.127 15.717v118.965l-67.45 1.091a15.9 15.9 0 01-1.94.038 20.725 20.725 0 01-19.883-20.777V125.955s-1.28-10.695-12.634-12.225z"/><path fill="url(#b)" d="M109.71 113.73h90.78s10.037 2.401 11.127 15.717v118.965l-67.45 1.091c-.787.059-1.577.059-2.364 0a20.687 20.687 0 01-19.459-20.731V125.955s-1.28-10.695-12.634-12.225z"/><path fill="url(#c)" d="M148.35 220.327s-10.393-1.03-10.5 13.066c-.105 14.096 9.333 11.361 9.333 11.361l2-.113s12.558-8.665 5.779-18.224c0-.023-2.78-5.605-6.613-6.09z"/><path fill="url(#d)" d="M149.456 222.326s-9.347-.947-9.445 11.756c-.099 12.702 8.4 10.21 8.4 10.21l1.795-.099s11.301-7.801 5.204-16.406c0-.038-2.507-5.052-5.954-5.461z"/><path fill="#df2c2c" d="M148.35 220.33h88.501s6.477 2.325 5.825 13.028c-.651 10.703-12.005 16.149-12.005 16.149H144.2s8.733-5.128 8.847-15.149c.114-10.021-4.696-14.028-4.696-14.028z"/><path fill="url(#e)" d="M148.35 220.33h88.501s6.477 2.325 5.825 13.028c-.651 10.703-12.005 16.149-12.005 16.149H144.2s8.733-5.128 8.847-15.149c.114-10.021-4.696-14.028-4.696-14.028z"/><path fill="#df2c2c" d="M55.94 129.372s6.257.583 5.673 10.331c-.583 9.749-1.454 33.911 10.188 33.911 11.642 0 19.504-1.893 19.936-8.59.432-6.695.758-36.084.758-36.084z"/><path fill="#df2c2c" d="M109.705 113.732s-15.906-.508-17.247 15.21c-1.34 15.717-.757 36.084-.757 36.084s-2.326 8.332-14.551 8.734h45.318l-.068-47.803s-1.636-10.99-12.695-12.225z"/><path fill="url(#f)" d="M109.705 113.732s-15.906-.508-17.247 15.21c-1.34 15.717-.757 36.084-.757 36.084s-2.326 8.332-14.551 8.734h45.318l-.068-47.803s-1.636-10.99-12.695-12.225z"/><path fill="#df2c2c" d="M150.774 31.696c-3.098.758-5.113 3.909-5.704 7.045-.59 3.135-.068 6.355.205 9.536.288 3.416.272 6.817.295 10.278 0 1.515.038 3.144.803 4.477.97 1.682 2.901 2.56 4.787 3.03 3.113.757 6.355.62 9.552.485 1.25-.053 2.598-.144 3.537-.962a4.726 4.726 0 001.31-2.47c.547-2.398.83-4.85.841-7.31l.545-11.99c.197-4.272.046-9.945-4.544-12.043-1.31-.598-2.75-.401-4.144-.348-2.4.09-5.09-.341-7.483.272z"/><path fill="url(#g)" d="M150.403 60.172c-.947.757 0 3.363 1.514 3.787.925.25-4.544.356-5.12-.417a6.597 6.597 0 01-1.166-3.09c-.137-3.386.234-6.817.098-10.241a13.339 13.339 0 01.326-4.461c.674-2.22 2.431-3.932 3.378-6.06 1.038 1.235.901 3.03.803 4.65a38.024 38.024 0 00.265 7.257 6.71 6.71 0 00.538 2.136c.947 1.947 3.787 2.432 4.363 4.545.727 2.712-3.44 2.37-5 1.894z"/><path fill="url(#h)" d="M155.374 32.8l.576 1.447c.242.606.583 1.288 1.22 1.424.33.037.665-.015.969-.151a3.03 3.03 0 001.742-1.386c.189-.482.261-1 .212-1.515-.06-1.833-.25-8.627-2.939-8.287-2.159.296-2.393 6.939-1.78 8.469z"/><path fill="url(#i)" d="M157.736 32.83c.447.486 1.137.917 1.727.63.591-.288.697-.94.758-1.515.06-.576.098-1.152.106-1.727a1.242 1.242 0 00-.826-1.326c-.659-.417-3.378-2.174-3.431-.348a6.522 6.522 0 001.666 4.287z"/><path fill="url(#j)" d="M165.566 20.085a46.22 46.22 0 01-1.515 6.219 10.21 10.21 0 01-1.098 2.537 3.991 3.991 0 01-2.121 1.69 4.06 4.06 0 01-3.4-.758 6 6 0 01-2.03-2.5 8.256 8.256 0 01-.584-2.484c-.26-2.24.134-4.508 1.136-6.53a5.431 5.431 0 011.356-1.75 4.976 4.976 0 013.939-.87c1.36.28 2.661.793 3.847 1.515 1.06.606.644 1.939.47 2.931z"/><path fill="#3e3e54" d="M165.374 14.455a6.06 6.06 0 011.03 1.084l1.59 1.969c.245.25.414.566.485.909a1.44 1.44 0 01-.234.856 3.197 3.197 0 01-2.492 1.515 6.386 6.386 0 01-3.257-1 1.28 1.28 0 01-1.349.507c-.507-.083-.977-.318-1.515-.386a2.5 2.5 0 00-2.317 1.068c-.144.212-.394.485-.591.318a.379.379 0 01-.121-.265c-.084-.424-.303-.947-.758-.924a.629.629 0 00-.538.56 2.03 2.03 0 00.122.819l.37 1.204a.31.31 0 010 .144c0 .129-.219.121-.355.136-.303 0-.493.341-.584.629a2.076 2.076 0 01-.363.833.243.243 0 01-.121.068.25.25 0 01-.137-.06 2.356 2.356 0 01-.651-1.735 67.951 67.951 0 01-.167-2.787 5.241 5.241 0 01.22-2.174 6.499 6.499 0 01.947-1.515c.34-.512.747-.976 1.212-1.379a5.189 5.189 0 012.439-.886 20.117 20.117 0 013.87-.31 5.537 5.537 0 013.265.802z"/><path fill="#df2c2c" d="M170.715 39.987c.977 3.03.947 6.31.894 9.513a21.964 21.964 0 01-.258 3.53 6.347 6.347 0 01-1.113 2.734 3.545 3.545 0 01-2.5 1.447 2.106 2.106 0 01-1.174-.25c-.916-.537-1.053-1.78-1.09-2.84l-.44-12.468c-.068-1.901-3.545-7.21-3.211-9.09.363-2.037 4.93 1.561 6.021 2.637a11.786 11.786 0 012.871 4.787z"/><path fill="#3e3e54" d="M170.303 43.993c0-.28 0-.628-.25-.757a.492.492 0 00-.477.06 1.462 1.462 0 00-.462 1.137c-.084.901-.175 1.802-.258 2.704-.045.53-.356 1.47.455 1.333 1.174-.197.931-3.598.992-4.477z"/><path fill="url(#k)" d="M168.21 47.048a2.62 2.62 0 00-1.94 1.235.636.636 0 00-.06.151.33.33 0 00.06.197 1.371 1.371 0 001.03.508c.865.14 1.74.2 2.614.182.18.011.36-.031.515-.122a.856.856 0 00.265-.462c.167-.545.493-1.606-.22-1.757a8.043 8.043 0 00-1.098.09 9.959 9.959 0 00-1.166-.022z"/><path fill="#df2c2c" d="M140.197 42.809c-1.288 1.666-2.644 3.597-2.318 5.673a6.06 6.06 0 001.84 3.174c2.887 2.961 6.893 4.469 10.772 5.893a.86.86 0 00.53.083.81.81 0 00.386-.273c1.258-1.477.349-3.787-1.022-5.188-1.371-1.402-3.182-2.379-4.068-4.106a.863.863 0 01-.136-.522 1.03 1.03 0 01.363-.523c2.159-1.962 4.136-4.348 4.689-7.211.356-1.863-.704-7.96-3.681-6.264-1.432.81-2.576 3.075-3.568 4.363z"/><path fill="#473f47" d="M146.162 66.445l3.969 44.197-5.181 2.84 9.847-.5 1.166-37.114 4.015-.174 3.181 37.637 10.203.667-5.355-3.84.28-46.205-20.898-.053c-1.227.015-1.34 1.303-1.227 2.545z"/><path fill="#fff" d="M159.136 49.222a1.87 1.87 0 012.182-1.227c3.807 0 7.615.154 11.422.462.494-.02.977.151 1.348.477a1.893 1.893 0 01.038 1.826 103.763 103.763 0 01-5.825 13.195c-.073.17-.175.327-.303.462a1.67 1.67 0 01-1.159.34c-4.476.166-8.959.055-13.422-.333-.257 0-.568-.075-.674-.318-.25-.568.985-2.272 1.227-2.908.5-1.318.97-2.652 1.515-3.962a86.512 86.512 0 013.651-8.014z"/><path fill="url(#l)" d="M154.114 53.6c.606-.13 1.401-.13 1.644.439.144.34.038.818.348 1.023.12.065.257.094.394.083.485 0 .962-.114 1.44-.091a1.431 1.431 0 011.234.614 1.628 1.628 0 01-.137 1.514 5.098 5.098 0 01-.856 1.227 2.977 2.977 0 01-.946.705 3.03 3.03 0 01-1.046.227 7.696 7.696 0 01-4.347-.932 3.439 3.439 0 01-1.72-1.772c-.833-2.386 2.485-2.734 3.992-3.037z"/><path fill="url(#m)" d="M199.857 127.92h-56.756a2.181 2.181 0 100 4.363h56.756a2.181 2.181 0 000-4.363z"/><path fill="url(#n)" d="M199.857 137.52h-56.756a2.181 2.181 0 000 4.363h56.756a2.181 2.181 0 000-4.363z"/><path fill="url(#o)" d="M199.857 147.13h-56.756a2.181 2.181 0 100 4.363h56.756a2.181 2.181 0 000-4.363z"/><path fill="url(#p)" d="M199.857 156.73h-56.756a2.181 2.181 0 000 4.363h56.756a2.181 2.181 0 100-4.363z"/><path fill="url(#q)" d="M199.857 166.34h-56.756a2.181 2.181 0 100 4.363h56.756a2.181 2.181 0 000-4.363z"/><path fill="url(#r)" d="M199.857 175.94h-56.756a2.181 2.181 0 000 4.363h56.756a2.181 2.181 0 100-4.363z"/><path fill="url(#s)" d="M199.857 185.54h-56.756a2.181 2.181 0 100 4.363h56.756a2.181 2.181 0 100-4.363z"/><path fill="url(#t)" d="M153.586 195.29h-6.696v19.792h6.696z"/><path fill="url(#u)" d="M162.906 201.34h-6.696v13.748h6.696z"/><path fill="url(#v)" d="M181.096 196.16H174.4v18.929h6.696z"/><path fill="url(#w)" d="M172.066 206.35h-6.696v8.733h6.696z"/><path fill="url(#x)" d="M195.925 200.05h-7.855v15.18h7.855z"/><path fill="url(#y)" d="M203.795 200.09h-7.855v15.149h7.855z"/><path fill="url(#z)" d="M203.787 195.88H188.07v4.075h15.717z"/><path fill="url(#A)" d="M123.01 233.448c.477 2.75 4.113 12.399 13.225 14.785 4.196 1.098 9.09 2.166 13.104.523a9.249 9.249 0 003.212-2.053 6.574 6.574 0 00.113-8.612 12.416 12.416 0 00-3.03-2.22c-3.226-1.886-7.165-4.976-11.05-5.067-3.886-.09-11.893 1.371-15.574 2.644z"/></svg>