<svg xmlns="http://www.w3.org/2000/svg" width="303" height="240"><defs><linearGradient id="a" x1="197.09" x2="241.48" y1="63.47" y2="63.47" gradientUnits="userSpaceOnUse"><stop offset=".01"/><stop offset=".08" stop-opacity=".69"/><stop offset=".21" stop-opacity=".32"/><stop offset="1" stop-opacity="0"/></linearGradient><linearGradient id="b" x1="-4816.72" x2="-2246.34" y1="5799.39" y2="14570.25" gradientUnits="userSpaceOnUse"><stop offset=".01"/><stop offset=".08" stop-opacity=".69"/><stop offset=".21" stop-opacity=".32"/><stop offset="1" stop-opacity="0"/></linearGradient><linearGradient id="c" x1="-2080.47" x2="-768.39" y1="55.57" y2="738.01" gradientUnits="userSpaceOnUse"><stop offset=".01"/><stop offset=".08" stop-opacity=".69"/><stop offset=".21" stop-opacity=".32"/><stop offset="1" stop-opacity="0"/></linearGradient><linearGradient id="d" x1="-2472.58" x2="-1967.26" y1="4667.78" y2="4323.97" gradientUnits="userSpaceOnUse"><stop offset=".01"/><stop offset=".08" stop-opacity=".69"/><stop offset=".21" stop-opacity=".32"/><stop offset="1" stop-opacity="0"/></linearGradient><linearGradient id="e" x1="-4459.76" x2="-4538.21" y1="496.34" y2="1090.39" gradientUnits="userSpaceOnUse"><stop offset=".01"/><stop offset=".08" stop-opacity=".69"/><stop offset=".21" stop-opacity=".32"/><stop offset="1" stop-opacity="0"/></linearGradient><linearGradient id="f" x1="-5618.01" x2="-5740.77" y1="653.92" y2="1419.78" gradientUnits="userSpaceOnUse"><stop offset=".01"/><stop offset=".08" stop-opacity=".69"/><stop offset=".21" stop-opacity=".32"/><stop offset="1" stop-opacity="0"/></linearGradient><linearGradient id="g" x1="6442.19" x2="6618.84" y1="13.57" y2="212.19" gradientUnits="userSpaceOnUse"><stop offset=".01"/><stop offset=".08" stop-opacity=".69"/><stop offset=".21" stop-opacity=".32"/><stop offset="1" stop-opacity="0"/></linearGradient><linearGradient id="h" x1="127.74" x2="93.11" y1="191.15" y2="207.78" gradientUnits="userSpaceOnUse"><stop offset=".01"/><stop offset=".13" stop-opacity=".69"/><stop offset=".25" stop-opacity=".32"/><stop offset="1" stop-opacity="0"/></linearGradient><linearGradient id="i" x1="-6197.05" x2="-5871.76" y1="25695.47" y2="25177.15" gradientUnits="userSpaceOnUse"><stop offset=".01"/><stop offset=".13" stop-opacity=".69"/><stop offset=".25" stop-opacity=".32"/><stop offset="1" stop-opacity="0"/></linearGradient></defs><path fill="#df2c2c" d="M51.032 233.327a65.179 65.179 0 01-30-13.298C10.797 211.97-.345 201.11-.002 187.631c.362-14.284 5.702-28.045 11.484-40.92 7.817-17.387 18.697-35.722 15.816-55.084-2.881-19.362.987-42.531 11.182-58.932C54.598 6.865 82.805.6 111.012-.005c18.636-.382 37.817.726 54.802 8.402 17.851 8.06 32.236 22.969 50.369 29.88 12.089 4.553 25.306 5.46 37.132 10.577 14.89 6.467 26.374 19.281 33.808 33.707 7.435 14.426 11.223 30.443 14.104 46.34 4.714 26.877-6.488 60.443-22.626 82.444-10.759 14.628-28.771 31.572-47.287 28.026-94.271-17.891-76.158 10.86-180.282-6.044z" opacity=".18"/><path fill="#df2c2c" d="M178.31 42.79l63.163 8.402-44.385 4.714zm18.78 13.125l3.365 19.825 5.38-16.46 35.64-8.08z"/><path fill="url(#a)" d="M197.09 55.915l3.365 19.825 5.38-16.46 35.64-8.08z"/><path fill="#df2c2c" d="M219.269 77.432L205.83 59.28l35.641-8.079z"/><path fill="#fff" d="M200.45 75.73l12.915-6.306-7.536-10.154z"/><path fill="#df2c2c" d="M200.45 75.73l12.915-6.306-7.536-10.154z" opacity=".59"/><path fill="#df2c2c" d="M189.794 77.653l-.584-2.64a17.133 17.133 0 002.015-.523l.927 2.518c-.771.266-1.559.482-2.358.645zm-81.841 122.836a105.367 105.367 0 01-4.292-1.491l.927-2.518c1.35.504 2.76.987 4.19 1.451zm-12.694-5.016c-1.41-.685-2.78-1.391-4.03-2.015l1.27-2.438a64.324 64.324 0 003.909 2.015zm108.798-1.652h-4.533v-2.7l4.453.121zm9.067-.162l-.141-2.679c1.511 0 3.002-.182 4.432-.323l.222 2.68c-1.41.141-2.922.242-4.473.322zm-22.606-.624l-4.493-.464.302-2.679c1.491.181 2.962.322 4.433.463zm36.266-.967l-.463-2.64a87.072 87.072 0 004.331-.886l.605 2.619c-1.511.423-3.022.725-4.554.987zm13.237-3.546l-.947-2.499a58.118 58.118 0 004.03-1.712l1.168 2.418a40.737 40.737 0 01-4.332 1.873zm-156.367-.363a37.128 37.128 0 01-3.425-3.143l2.015-1.854c1 1.039 2.063 2.015 3.183 2.922zm168.516-6.246l-1.652-2.135a24.128 24.128 0 002.015-1.733l1.148-1.128 1.874 1.914-1.249 1.188c-.625.726-1.451 1.37-2.216 1.975zm-177.3-4.594a23.306 23.306 0 01-1.612-4.432l2.62-.584c.299 1.389.752 2.74 1.35 4.029zm50.168-.644l-4.332-1.773 1.088-2.458c1.35.584 2.72 1.168 4.03 1.732zm136.541-4.735l.072-.101.029.02zm-2.095-1.632a32.659 32.659 0 002.236-3.667l2.378 1.229a35.09 35.09 0 01-2.447 3.969zm-146.897.786c-1.37-.665-2.72-1.35-4.03-2.015l1.209-2.236c1.31.685 2.64 1.37 4.03 2.014zm-12.029-6.266a104.3 104.3 0 01-3.868-2.357l1.43-2.277c1.23.786 2.519 1.571 3.808 2.337zm-24.781-.786l-2.64-.504c.31-1.535.742-3.044 1.29-4.513l2.518.927a27.282 27.282 0 00-1.128 3.989zm191-4.997l-2.679-.282c.076-.669.117-1.341.12-2.014a17.849 17.849 0 00-.12-2.015l2.679-.282c.081.783.121 1.57.121 2.357.006.713-.021 1.425-.08 2.136zm-177.602-1.652a128.684 128.684 0 01-3.627-2.74l1.652-2.115c1.149.906 2.338 1.793 3.546 2.68zm-10.396-6.668a62.655 62.655 0 012.76-3.688l2.015 1.693a94.667 94.667 0 00-2.539 3.485zm-.101-2.015a81.456 81.456 0 01-3.244-3.204l2.015-1.873c1.007 1.047 2.015 2.014 3.143 3.122zm182.921-2.156a30.833 30.833 0 00-2.276-3.627l2.176-1.591a35.49 35.49 0 012.478 4.03zm-173.774-6.246a104.385 104.385 0 013.425-3.022l1.713 2.015c-1.149 1.047-2.257 2.035-3.305 3.022zm-18.314-1.853a55.116 55.116 0 01-2.6-3.788l2.277-1.43a50 50 0 002.478 3.606zm183.949-2.015a53.562 53.562 0 00-3.345-2.821l1.652-2.015c1.249.967 2.418 2.015 3.506 2.962zm-154.917-4.634a176.235 176.235 0 013.788-2.519l1.45 2.277c-1.208.786-2.558 1.612-3.767 2.458zm144.299-3.244a87.188 87.188 0 00-3.828-2.236l1.309-2.358c1.35.746 2.68 1.531 3.929 2.297zm-131.464-1.491l-1.27-2.357c1.31-.726 2.68-1.43 4.03-2.015l1.209 2.418c-1.33.524-2.7 1.229-3.97 1.934zm-48.677-.524a46.824 46.824 0 01-1.471-4.392l2.599-.705a39.49 39.49 0 001.37 4.03zm168.395-4.21l-4.03-1.794 1.048-2.478c1.39.604 2.8 1.209 4.15 1.833zm-107.69-1.028l-1.048-2.478c1.37-.585 2.8-1.169 4.19-1.713l.988 2.498c-1.37.464-2.8 1.048-4.13 1.632zm95.319-4.03a208.75 208.75 0 00-4.231-1.43l.826-2.559c1.451.463 2.901.967 4.291 1.45zm-83.654-3.364a179.8 179.8 0 014.352-1.35l.766 2.579c-1.35.483-2.861.926-4.271 1.33zm70.86-.645c-1.43-.363-2.901-.725-4.332-1.048l.605-2.62c1.45.323 2.941.686 4.412 1.069zm-146.051-.383v-4.594l2.68.121v4.352zm88.912 0l-.604-2.458c1.47-.343 2.961-.665 4.432-.967l.524 2.64c-1.45.18-2.922.503-4.352.825zm44.083-2.337l-1.652-.121-2.7-.322.282-2.68 2.801.342 1.713.262zm-30.947 0l-.362-2.66c1.511-.201 3.022-.362 4.513-.503l.262 2.66c-1.471.12-2.942.382-4.413.483zm13.278-3.727h4.533v2.7c-1.572-.081-3.062-.061-4.533-.041zM61.069 99.227a46.72 46.72 0 011.209-4.453l2.558.846a40.032 40.032 0 00-1.148 4.191zm7.253-11.525l.001-.002.04.022zm-2.277-1.33a45.67 45.67 0 012.539-3.868l2.176 1.592a38.905 38.905 0 00-2.437 3.604zm114.46-7.978a39.88 39.88 0 01-4.614-.504l.443-2.66a38.77 38.77 0 004.312.484zm-105.736-2.78c1.128-1.008 2.317-2.015 3.566-2.942l1.612 2.156c-1.168.907-2.317 1.833-3.364 2.8zm92.277-.343a41.59 41.59 0 01-4.171-2.015l1.29-2.357a43.39 43.39 0 003.908 1.874zm-80.954-7.515c1.33-.685 2.72-1.37 4.03-2.015L91.21 68.2c-1.25.645-2.6 1.29-3.848 1.934zm69.127.363a22 22 0 00-3.647-2.015l1.129-2.438a25.51 25.51 0 014.03 2.357zm-56.414-5.52c1.43-.424 2.922-.827 4.413-1.21l.624 2.62c-1.43.342-2.86.745-4.25 1.168zm44.507.704a62.86 62.86 0 00-4.312-.846l.423-2.64c1.552.243 3.063.545 4.513.887zm-30.665-.967l-.383-2.66a111.35 111.35 0 014.533-.523l.242 2.68c-1.571.241-3.042.241-4.392.503zm17.67-.785c-1.451 0-2.942-.121-4.433-.121v-2.68c1.531 0 3.062 0 4.553.12zm-11.38 142.062l-2.257-.504.665-2.619c.725.201 1.43.383 2.156.544z"/><path fill="#473f47" d="M147.137 95.846a8.298 8.298 0 01-.624 2.64 3.748 3.748 0 01-2.76 1.672c-1.109.181-2.237.1-3.345.201s-2.317.746-2.196 1.773c.057.315.188.612.383.867l1.35 2.276c.174.224.26.503.241.786 0 .383-.503.584-.866.746a7.393 7.393 0 00-3.768 4.614 11.283 11.283 0 000 6.044 1.048 1.048 0 00.403.705c.185.1.394.15.605.141a4.776 4.776 0 013.143 2.015 29.363 29.363 0 011.873 3.425 18.918 18.918 0 0015.393 9.973 3.667 3.667 0 001.552-.181 3.062 3.062 0 001.37-1.39c1.39-2.54.987-5.581 1.088-8.362-.006-1.38.254-2.748.765-4.03.323-.725.625-.765 1.088-1.188a1.612 1.612 0 00.726-1.33 11.563 11.563 0 00-.504-2.015 5.42 5.42 0 01.806-3.626 35.032 35.032 0 001.874-3.264c.393-1.042.637-2.134.725-3.244a11.846 11.846 0 00-1.35-8.28 6.91 6.91 0 00-4.896-2.882 13.37 13.37 0 01-2.377-.282c-1.189-.383-1.592-1.612-2.841-2.015a6.185 6.185 0 00-3.365-.201 5.882 5.882 0 00-4.493 4.412z"/><path fill="#f89659" d="M153.199 216.926a9.388 9.388 0 011.874 2.237c.099.155.141.34.12.523 0 .282-.382.444-.684.524a5.783 5.783 0 01-6.528-2.84 8.059 8.059 0 01-1.451-4.554l.343-2.62c.04-.406.136-.806.282-1.188a4.03 4.03 0 01.745-1.007 5.762 5.762 0 011.773-1.35.363.363 0 01.242 0c.161 0 .242.201.282.342.112.672.07 1.361-.121 2.015a8.22 8.22 0 001.27 5.48c.509.89 1.132 1.71 1.853 2.438zm6.759-14.822c.038.204.12.397.241.565.106.138.245.249.403.322a4.19 4.19 0 002.176.282c.907 0 1.794-.181 2.68-.322a1.49 1.49 0 001.27-.685 1.088 1.088 0 00-.545-1.25 3.788 3.788 0 00-1.41-.403 2.257 2.257 0 01-1.31-.644c-.503-.625-.282-1.612-.805-2.216a2.518 2.518 0 00-2.277-.383c-1.632.503-.766 3.586-.423 4.734z"/><path fill="#473f47" d="M167.04 178.11c-.1.422-.18.845-.261 1.268-.907 5.239-2.015 10.457-3.043 15.675a5.903 5.903 0 01-1.33 3.123 2.016 2.016 0 01-1.692.746h-.181c-.846-.282-1.33-1.471-1.33-2.66l.443-21.356c.07-.25.07-.515 0-.766a1.652 1.652 0 00-.644-.524 50.421 50.421 0 01-1.773-1.007 88.329 88.329 0 01-5.259-3.284 93.775 93.775 0 01-6.689-4.936 9.127 9.127 0 01-3.566-4.03 64.702 64.702 0 00-2.458-6.044 49.704 49.704 0 00-3.788-7.173c-.181-.262-.866-1.592-1.249-1.652l14.647 1.612a5.037 5.037 0 013.546 1.249 49.235 49.235 0 014.352 5.923c3.043 4.03 6.045 8.2 9.147 12.29a8.905 8.905 0 012.317 4.957 33.146 33.146 0 01-1.188 6.588z"/><path fill="#473f47" d="M150.404 208.351c-.198.276-.436.52-.706.726a6.223 6.223 0 01-1.37.906h-.14a2.296 2.296 0 01-1.754 0c-1.47-.624-1.027-4.23-1.108-5.641-.14-2.216-.262-4.412-.403-6.629-.241-4.311-.503-8.623-.745-12.955-.121-2.014-.262-4.03-.363-6.044l-.745-1.31-.343-.584-.403-.705-.423-.786c-.242-.403-.483-.846-.745-1.31-.423-.785-.826-1.611-1.25-2.417a14.98 14.98 0 00-.886-1.572 3.789 3.789 0 00-.363-.483 24.805 24.805 0 00-2.599-2.438 17.347 17.347 0 01-5.278-9.792 16.117 16.117 0 01-.202-3.103c.022-1.613.28-3.215.766-4.754a18.132 18.132 0 011.45-3.164 8.462 8.462 0 011.814-2.377c.346-.32.74-.586 1.168-.786 2.78-1.27 5.601 1.894 7.536 3.566 1.934 1.673 5.278 4.03 6.326 6.548 1.048 2.519 3.022 23.674 3.022 23.674 0 5.198 0 10.396-.302 15.574-.121 3.083-.262 6.165-.564 9.228a16.985 16.985 0 01-1.39 6.628z"/><path fill="url(#b)" d="M148.328 209.984h-.14a2.296 2.296 0 01-1.754 0c-1.47-.624-1.027-4.23-1.108-5.64-.14-2.217-.262-4.413-.403-6.63-.241-4.311-.503-8.623-.745-12.955-.121-2.014-.262-4.03-.363-6.044l-.745-1.31-.343-.584-.403-.705-.423-.786c-.242-.403-.483-.846-.745-1.31l-1.43-2.558-1.069-2.015a24.805 24.805 0 00-2.599-2.438 17.347 17.347 0 01-5.278-9.69 16.117 16.117 0 01-.202-3.103c.022-1.614.28-3.216.766-4.755a18.133 18.133 0 011.45-3.164 8.462 8.462 0 011.814-2.377c.162.149.304.318.423.504 1.531 2.196 1.45 5.077 1.612 7.757a28.852 28.852 0 002.014 9.751l.544 1.108c.073.159.154.313.242.464a84.505 84.505 0 015.581 10.396c3.163 8.059 2.015 16.884 2.418 25.426.124 2.363.38 4.717.765 7.052.238 1.187.279 2.406.121 3.606z"/><path fill="#f89659" d="M193.455 143.974h-2.458a7.857 7.857 0 01-2.458-.605c-.745-.342-1.37-.866-2.136-1.188-1.571-.685-3.284-1.008-4.815-1.793-2.317-1.169-4.553-2.499-6.77-3.808l-5.359-3.184a59.842 59.842 0 01-5.258-3.385l-.988-.765c-.483-.403-1.088-.846-1.692-.665-.245.116-.465.28-.645.484a6.97 6.97 0 00-1.29 3.263 12.088 12.088 0 01-1.188 2.942c-.987 1.813-1.914 3.667-2.982 5.42a14.889 14.889 0 01-3.223 4.573 4.758 4.758 0 01-2.902.504 33.685 33.685 0 00-6.427-.242c-.981.232-1.978.393-2.982.484a7.374 7.374 0 01-4.291-1.491c-1.088-.846-.605-2.015-.161-3.123 1.692-4.412 3.364-6.991 1.39-11.525.383.887-7.818 4.03-8.845 4.03-4.292 0-6.85-3.143-10.074-5.58a47.104 47.104 0 00-6.044-3.769 11.564 11.564 0 00-2.015-.926c-.665-.222-1.531-.202-2.015-.665a3.082 3.082 0 01-.524-.625 6.206 6.206 0 01-.644-1.33 3.123 3.123 0 00-.826-1.47 2.74 2.74 0 00-2.015-.303c-.368.04-.74.04-1.108 0a.484.484 0 01-.363-.18.383.383 0 010-.464 1.35 1.35 0 01.463-.202l2.76-.584c-.785-.685-2.014-.504-2.981-.826a.746.746 0 01-.343-.202.463.463 0 01.242-.604 1.25 1.25 0 01.725 0l2.982.343c-.886-1.088-2.78-.766-3.687-1.834a2.539 2.539 0 012.418-.222c1.16.166 2.284.527 3.324 1.068a8.603 8.603 0 011.733 1.33 62.933 62.933 0 006.407 6.044 21.336 21.336 0 005.117 2.438c.786.282 1.612.464 2.398.726.786.261 1.773.745 2.64 1.108.322.171.682.261 1.047.262.293-.056.573-.166.826-.323a18.232 18.232 0 004.755-4.21c1.43-1.693 3.103-3.184 4.614-4.796a6.285 6.285 0 012.136-1.632c1.53-.524 3.163.242 4.795.302a4.856 4.856 0 003.687-1.43c.947-1.108.906-2.76 2.014-3.868a4.614 4.614 0 012.237-1.169 18.291 18.291 0 002.68-1.108c.685-.322 1.551-.625 2.155-.161a.664.664 0 01.303.564.967.967 0 01-.182.544c-.428.838-.811 1.7-1.148 2.579a5.117 5.117 0 00-.484 2.86c.282 1.39 2.015 2.177 3.184 2.68 1.692.726 3.566.847 5.258 1.532a13.9 13.9 0 014.453 3.263c2.015 2.015 3.687 4.03 5.52 6.045.927 1.007 1.874 2.015 2.902 2.962a30.357 30.357 0 004.311 2.538 38.844 38.844 0 005.218 2.881 19.86 19.86 0 004.03 1.31c.564.163 1.135.297 1.713.403.604 0 .926-.202 1.43-.504a3.566 3.566 0 012.498-.302 12.25 12.25 0 014.977 2.377c.423.282.886.706.806 1.21a.33.33 0 010 .2c-.161.142-.403 0-.584-.14a3.164 3.164 0 00-2.156-.585c.564.444 1.168.988 1.108 1.693.02.052.02.11 0 .161a.201.201 0 01-.182 0c-.624 0-1.087-.584-1.672-.866a3.688 3.688 0 00-1.813-.323c-.282 0-1.189 0-1.189.363a.321.321 0 000 .181c.169.22.365.416.584.585a.706.706 0 01.262.725c-.14.282-.523.322-.846.302-.846-.04-1.571-.222-2.337-.302z"/><path fill="#d57439" d="M190.916 143.69c-.22.138-.468.227-.725.263a3.666 3.666 0 01-2.237-.968 51.057 51.057 0 00-6.407-2.659c-2.317-1.169-4.553-2.498-6.77-3.808l-5.318-3.123a59.86 59.86 0 01-5.259-3.385c.463.343 2.377-2.558 2.7-2.82 1.874-1.532 1.209 1.753 1.168 2.86-.04.22-.04.446 0 .666.146.286.379.52.665.664a129.306 129.306 0 0010.457 6.166c1.813.947 3.687 1.813 5.52 2.74 1.511.765 3.143 1.209 4.715 1.833.665.262 1.41.665 1.43 1.37.03.064.051.132.06.202zm-41.499-31.06a3.465 3.465 0 01-.484 2.014c-.524.705 2.982 1.632 4.03.624a36.87 36.87 0 003.022-3.888z"/><path fill="#f89659" d="M153.562 112.864a6.045 6.045 0 01-3.526.262 4.03 4.03 0 01-2.68-2.196 5.823 5.823 0 01-.302-2.297 18.234 18.234 0 013.707-10.417 4.17 4.17 0 011.29-1.229 3.183 3.183 0 012.236-.201 6.85 6.85 0 013.627 2.377 18.536 18.536 0 012.297 3.728c.443.826 1.269 2.135.886 3.102a11.585 11.585 0 01-2.015 2.418 13.156 13.156 0 01-5.52 4.453z"/><path fill="#fff" d="M154.677 145.572a4.855 4.855 0 01-4.493 2.257c-3.486.282-6.991-.625-10.457 0-1.068.18-2.015.503-3.183.584h-.302a3.789 3.789 0 01-3.164-1.23c-1.088-1.43-.403-3.485.303-5.157 1.31-3.002 3.767-6.447 2.357-9.792-.181-.362-.423-.685-.584-1.047a5.057 5.057 0 01-.343-1.23l-.524-2.578c-.362-1.713-.705-3.425-1.068-5.158a2.297 2.297 0 010-1.048c.178-.45.496-.832.907-1.088l3.647-2.901a6.226 6.226 0 012.498-1.43c.99-.087 1.987-.033 2.962.16a15.515 15.515 0 003.828-.624h.463a.665.665 0 01.202.463c.14.567.401 1.096.765 1.552.261.321.544.624.847.906l.383.363 2.196 2.015c.46.487.999.895 1.591 1.209 2.015.906 3.446-1.511 3.345-3.305a8.24 8.24 0 00-.887-2.88c.927.362 1.854.765 2.78 1.188.84.5 1.716.938 2.62 1.31 1.41.382 2.76 0 4.03.886a25.346 25.346 0 014.593 3.828l-.927 2.136c-1.229 2.579-2.66 5.36-5.278 6.487-.685.283-1.39.464-2.015.786-1.128.564-1.25 1.45-1.753 2.458-.866 1.753-1.733 3.506-2.518 5.279a38.705 38.705 0 01-2.821 5.601z"/><path fill="url(#c)" d="M158.317 120.364c.163-.199.37-.357.605-.463.191-.05.392-.05.584 0 2.539.201 5.077.483 7.596.826-3.123-2.78-8.06-2.66-11.404-5.017-.463.866 0 1.874.242 2.82a7.898 7.898 0 010 2.58 2.458 2.458 0 002.377-.746z"/><path fill="#d57439" d="M109.058 122.521a2.519 2.519 0 01-1.672-.14 5.783 5.783 0 01-.645-1.33 3.123 3.123 0 00-.826-1.471 2.76 2.76 0 00-2.015-.303c.38-.24.82-.372 1.27-.382a1.49 1.49 0 001.208-.685c0-.162 0-.363.202-.504.201-.141.523-.181.806-.141a8.493 8.493 0 011.652.584c.38.14.728.352 1.027.625a1.33 1.33 0 01.524.906c-.181 0-.443-.201-.625-.302a3.587 3.587 0 00-.725-.282 4.634 4.634 0 00-1.571-.141h-.182c-.02 0 0 .181.121.242.746.584 1.693.866 2.418 1.49a.63.63 0 01.262.303.68.68 0 010 .524 1.592 1.592 0 01-1.23 1.007z"/><path fill="#df2c2c" d="M168.092 201.219a2.418 2.418 0 00-2.014-.161 8.986 8.986 0 00-.867.665 3.667 3.667 0 01-2.7 0 16.259 16.259 0 00-2.921-.625s0 2.015.363 2.196c.474.166.969.26 1.47.282 2.007.259 4.038.259 6.045 0 .564-.12 2.458-.423 2.72-1.047.262-.625-1.572-1.129-2.096-1.31zm-11.668 18.327c.364.405.596.91.665 1.45a.806.806 0 01-.161.525.927.927 0 01-.464.18 10.86 10.86 0 01-4.03.122 5.823 5.823 0 01-3.424-1.854c-.585-.705-.967-1.551-1.511-2.277-.544-.725-1.048-1.188-1.471-1.853-.423-.665 0-1.854.322-2.579.363 0 .242.705.403 1.028a9.731 9.731 0 002.297 3.122 4.594 4.594 0 003.304 1.572 1.43 1.43 0 001.169-.604c.201-.323 0-1.068.342-1.19.343-.12 2.237 2.036 2.56 2.358z"/><path fill="url(#d)" d="M160.802 198.92h-.18c-.847-.282-1.33-1.471-1.33-2.66l.362-21.357c.07-.25.07-.515 0-.765a1.651 1.651 0 00-.645-.524c-.604-.322-1.188-.665-1.773-1.007a88.283 88.283 0 01-5.258-3.285l-1.048-8.522s10.618 7.032 11.726 10.336c1.108 3.304-1.854 27.783-1.854 27.783z"/><path fill="#473f47" d="M155.74 103.78c.8.296 1.622.532 2.458.706.826.282 1.652.906 1.672 1.752.705 0 1.088-.805 1.29-1.47.408-1.112.678-2.269.805-3.446a5.319 5.319 0 00-.806-3.364c-1.148-1.632-5.4-4.695-6.749-1.834-1.028 2.217-1.148 6.367 1.33 7.656z"/><path fill="#df2c2c" d="M177.123 191.425c-1.491-.242-2.982-.484-4.473-.766l.484-2.639c1.47.262 2.941.524 4.412.745zm-13.401-2.538c-1.47-.323-2.921-.665-4.392-1.028l.625-2.599 4.352 1.007zm-13.16-3.309l-4.352-1.27.786-2.578a172.1 172.1 0 004.291 1.25zm-12.951-4.048c-1.41-.484-2.84-.988-4.251-1.512l.927-2.518 4.21 1.49zm65.999-35.918l20.732-43.882 37.032 8.825-21.095 44.365z"/><path fill="#fff" d="M48.5 51.2l63.667-20.33 15.917 65.802-53.291 27.28z"/><path fill="#df2c2c" d="M44.81 181.536l30.282 18.959 10.175-33.748-33.405-22.787z"/><path fill="#fff" d="M204.12 217.618l5.762-37.737L253.683 177l-9.408 36.508zm14.338-78.298l-3.828-.866 3.002-5.944 3.848.866z"/><path fill="#df2c2c" d="M223.198 140.365l-3.848-.846 6.145-12.109 3.848.846z"/><path fill="#fff" d="M227.928 141.44l-3.848-.866 3.747-7.374 3.829.866z"/><path fill="#df2c2c" d="M232.648 142.503l-3.828-.866 8.1-15.937 3.828.866z"/><path fill="url(#e)" d="M223.198 140.365l-3.848-.846 6.145-12.109 3.848.846z"/><path fill="url(#f)" d="M232.648 142.503l-3.828-.866 8.1-15.937 3.828.866z"/><path fill="#fff" d="M237.378 143.576l-3.828-.867 10.356-20.389 3.828.866z"/><path fill="#473f47" d="M80.753 72.698a11.907 11.907 0 011.108-5.078l-7.495-4.13a20.51 20.51 0 00-2.156 9.208 20.853 20.853 0 0015.736 20.147l1.53-8.522a12.23 12.23 0 01-8.723-11.625z"/><path fill="#df2c2c" d="M110.869 83.41a20.872 20.872 0 01-17.911 10.075 20.59 20.59 0 01-5.118-.645l1.531-8.522a12.45 12.45 0 003.587.523 12.21 12.21 0 0010.315-5.641z" opacity=".18"/><path fill="#df2c2c" d="M113.84 72.698a20.772 20.772 0 01-2.962 10.718l-7.596-4.13A12.23 12.23 0 1081.865 67.62l-7.495-4.13a20.853 20.853 0 0139.57 9.208zm103.578 133.277a.826.826 0 01.241-.624c.375-.382.646-.854.786-1.37a1.612 1.612 0 00-.665-1.753 3.405 3.405 0 00-1.148-.564.886.886 0 01-.645-.967v-.806a.927.927 0 01.987-.867 2.82 2.82 0 001.149-.262 1.652 1.652 0 00.987-2.014 6.306 6.306 0 00-.383-1.028.907.907 0 01.282-1.128c.21-.15.412-.312.605-.484a1.028 1.028 0 011.249 0c.295.298.644.537 1.027.705a1.672 1.672 0 002.015-.564c.266-.364.464-.774.584-1.209a.887.887 0 011.008-.584h.806a.866.866 0 01.786.866c.021.521.159 1.03.403 1.491a1.713 1.713 0 001.773.806 4.432 4.432 0 001.128-.403.927.927 0 011.249.303c.141.241.363.443.524.685a.907.907 0 01-.101 1.108 3.264 3.264 0 00-.705 1.088 1.652 1.652 0 00.806 2.176c.293.173.604.315.927.423a.887.887 0 01.644.886c0 .323 0 .645-.12.987a.866.866 0 01-.887.746c-.475.02-.941.137-1.37.342a1.632 1.632 0 00-.907 1.773c.065.414.194.815.383 1.19a.887.887 0 01-.282 1.248l-.564.423a.887.887 0 01-1.25 0 3.221 3.221 0 00-1.148-.705 1.672 1.672 0 00-2.015.645 3.547 3.547 0 00-.544 1.149.867.867 0 01-.946.604l-.947-.121a.887.887 0 01-.726-.806 3.445 3.445 0 00-.322-1.41 1.652 1.652 0 00-2.015-.907c-.38.104-.75.24-1.108.403a.927.927 0 01-1.108-.201c-.202-.262-.403-.504-.584-.786a1.873 1.873 0 01-.202-.504zm5.895-7.07a2.942 2.942 0 101.58-.485h.02a2.942 2.942 0 00-1.6.486zm16.384-1.473c.01.114.01.229 0 .343a.625.625 0 01-.504.584l-.604.161a.685.685 0 01-.806-.383 8.385 8.385 0 00-.443-.705 1.29 1.29 0 00-1.874-.201c-.202.151-.39.32-.564.503a.685.685 0 01-.866.141l-.484-.282a.726.726 0 01-.343-.947c.1-.28.16-.57.182-.866a1.25 1.25 0 00-1.108-1.33 7.473 7.473 0 00-.947 0 .645.645 0 01-.625-.584 3.688 3.688 0 00-.12-.504.705.705 0 01.382-.846c.302-.145.58-.335.826-.564a1.209 1.209 0 00.181-1.592 7.816 7.816 0 00-.523-.624.705.705 0 01-.162-1.048l.242-.443a.705.705 0 01.887-.282 2.2 2.2 0 001.088.16 1.148 1.148 0 001.088-.886 4.17 4.17 0 00.1-1.007.705.705 0 01.464-.725l.705-.162a.645.645 0 01.786.424c.156.361.398.68.705.926a1.25 1.25 0 001.612 0c.182-.138.35-.293.503-.463a.725.725 0 01.887-.181l.584.342a.665.665 0 01.262.826 2.64 2.64 0 00-.181 1.028 1.27 1.27 0 001.088 1.249h.846a.665.665 0 01.725.564c0 .201.101.403.141.604a.604.604 0 01-.383.746c-.327.14-.622.345-.866.604a1.189 1.189 0 00-.201 1.451c.174.28.384.538.624.766a.725.725 0 01.161.967l-.282.463a.667.667 0 01-.906.302 2.156 2.156 0 00-1.33 0 1.25 1.25 0 00-.866.967 3.732 3.732 0 000 .685zm-2.498-7.737a2.196 2.196 0 00-2.217 2.196 2.216 2.216 0 102.217-2.196z"/><path fill="#473f47" d="M62.24 181.61a9.53 9.53 0 100-19.06 9.53 9.53 0 000 19.06z"/><path fill="#fff" d="M62.28 160.797v11.645l10.255-7.394s-4.735-5.158-10.255-4.251z"/><path fill="#df2c2c" d="M128.723 204.48l-12.633 3.546 4.372 8.442 8.966-2.519z"/><path fill="url(#g)" d="M128.723 204.48l-12.633 3.546 4.372 8.442 8.966-2.519z"/><path fill="#df2c2c" d="M108.213 186.83a4.392 4.392 0 00.202 2.156 28.55 28.55 0 003.787 9.147c2.801 4.03 7.173 6.548 11.404 8.986-.363-.302-.302-2.539-.363-3.042l-.302-2.982a10.497 10.497 0 00-1.793-4.372 22.425 22.425 0 00-7.414-7.455 21.397 21.397 0 00-5.52-2.438z"/><path fill="url(#h)" d="M108.213 186.83a4.392 4.392 0 00.202 2.156 28.55 28.55 0 003.787 9.147c2.801 4.03 7.173 6.548 11.404 8.986-.363-.302-.302-2.539-.363-3.042l-.302-2.982a10.497 10.497 0 00-1.793-4.372 22.425 22.425 0 00-7.414-7.455 21.397 21.397 0 00-5.52-2.438z"/><path fill="#df2c2c" d="M125.618 193.04c.43-2.665.505-5.375.222-8.06a10.376 10.376 0 00-3.868-6.93l-3.164 11.122a21.417 21.417 0 00-1.148 6.548 15.796 15.796 0 006.044 11.262c1.008-1.591.786-4.452 1.008-6.326z"/><path fill="url(#i)" d="M125.618 193.04c.43-2.665.505-5.375.222-8.06a10.376 10.376 0 00-3.868-6.93l-3.164 11.122a21.417 21.417 0 00-1.148 6.548 15.796 15.796 0 006.044 11.262c1.008-1.591.786-4.452 1.008-6.326z"/><path fill="#df2c2c" d="M128.335 201.255l-13.555 3.818a2.13 2.13 0 00-1.48 2.625 2.13 2.13 0 002.632 1.467l13.556-3.818a2.13 2.13 0 001.48-2.625 2.13 2.13 0 00-2.633-1.467z"/></svg>