<svg xmlns="http://www.w3.org/2000/svg" width="346" height="274"><defs><linearGradient id="a" x1="225.01" x2="275.68" y1="72.46" y2="72.46" gradientUnits="userSpaceOnUse"><stop offset=".01"/><stop offset=".08" stop-opacity=".69"/><stop offset=".21" stop-opacity=".32"/><stop offset="1" stop-opacity="0"/></linearGradient><linearGradient id="b" x1="-5499.43" x2="-2564.73" y1="6620.62" y2="16633.49" gradientUnits="userSpaceOnUse"><stop offset=".01"/><stop offset=".08" stop-opacity=".69"/><stop offset=".21" stop-opacity=".32"/><stop offset="1" stop-opacity="0"/></linearGradient><linearGradient id="c" x1="-2376.49" x2="-877.77" y1="63.36" y2="843.3" gradientUnits="userSpaceOnUse"><stop offset=".01"/><stop offset=".08" stop-opacity=".69"/><stop offset=".21" stop-opacity=".32"/><stop offset="1" stop-opacity="0"/></linearGradient><linearGradient id="d" x1="-2823.79" x2="-2246.71" y1="5329.01" y2="4936.5" gradientUnits="userSpaceOnUse"><stop offset=".01"/><stop offset=".08" stop-opacity=".69"/><stop offset=".21" stop-opacity=".32"/><stop offset="1" stop-opacity="0"/></linearGradient><linearGradient id="e" x1="-5093.79" x2="-5183.39" y1="566.81" y2="1245.26" gradientUnits="userSpaceOnUse"><stop offset=".01"/><stop offset=".08" stop-opacity=".69"/><stop offset=".21" stop-opacity=".32"/><stop offset="1" stop-opacity="0"/></linearGradient><linearGradient id="f" x1="-6413.85" x2="-6554.01" y1="746.56" y2="1620.92" gradientUnits="userSpaceOnUse"><stop offset=".01"/><stop offset=".08" stop-opacity=".69"/><stop offset=".21" stop-opacity=".32"/><stop offset="1" stop-opacity="0"/></linearGradient><linearGradient id="g" x1="7354.91" x2="7556.6" y1="15.47" y2="242.26" gradientUnits="userSpaceOnUse"><stop offset=".01"/><stop offset=".08" stop-opacity=".69"/><stop offset=".21" stop-opacity=".32"/><stop offset="1" stop-opacity="0"/></linearGradient><linearGradient id="h" x1="145.82" x2="106.31" y1="218.23" y2="237.21" gradientUnits="userSpaceOnUse"><stop offset=".01"/><stop offset=".13" stop-opacity=".69"/><stop offset=".25" stop-opacity=".32"/><stop offset="1" stop-opacity="0"/></linearGradient><linearGradient id="i" x1="-7072.76" x2="-6701.5" y1="29337.06" y2="28745.28" gradientUnits="userSpaceOnUse"><stop offset=".01"/><stop offset=".13" stop-opacity=".69"/><stop offset=".25" stop-opacity=".32"/><stop offset="1" stop-opacity="0"/></linearGradient></defs><path fill="#e5e5e5" d="M58.263 266.391a74.421 74.421 0 01-34.25-15.181C12.328 242.009-.392 229.611-.001 214.222c.414-16.308 6.51-32.018 13.11-46.717 8.926-19.85 21.347-40.782 18.058-62.887-3.29-22.105 1.127-48.557 12.766-67.281C62.334 7.848 94.537.695 126.74.005c21.277-.437 43.175.828 62.565 9.592 20.38 9.2 36.804 26.222 57.505 34.112 13.802 5.198 28.891 6.233 42.393 12.076 16.999 7.383 30.11 22.012 38.597 38.482 8.488 16.469 12.813 34.756 16.102 52.905 5.382 30.684-7.407 69.006-25.831 94.124-12.283 16.699-32.847 36.044-53.986 31.996-107.627-20.426-86.948 12.398-205.822-6.901z"/><path fill="#df2c2c" d="M203.57 48.86l72.111 9.592-50.673 5.382z"/><path fill="#df2c2c" d="M225.01 63.832l3.841 22.634 6.142-18.792 40.69-9.224z"/><path fill="url(#a)" d="M225.01 63.832l3.841 22.634 6.142-18.792 40.69-9.224z"/><path fill="#df2c2c" d="M250.332 88.399L234.99 67.674l40.69-9.224z"/><path fill="#fff" d="M228.85 86.463l14.744-7.2-8.602-11.593z"/><path fill="#df2c2c" d="M228.85 86.463l14.744-7.2-8.602-11.593z" opacity=".59"/><path fill="#df2c2c" d="M216.677 88.651l-.667-3.013a19.873 19.873 0 002.3-.598l1.058 2.875c-.88.304-1.779.55-2.69.736zm-93.434 140.238a121.764 121.764 0 01-4.9-1.702l1.058-2.875a116.1 116.1 0 004.785 1.656zm-14.492-5.727c-1.61-.782-3.174-1.587-4.6-2.301l1.45-2.783a73.27 73.27 0 004.462 2.3zm124.211-1.886h-5.175v-3.083l5.083.138zm10.351-.185l-.161-3.059c1.725 0 3.428-.207 5.061-.368l.253 3.059c-1.61.161-3.336.276-5.107.368zm-25.808-.713l-5.129-.529.345-3.059c1.702.207 3.381.368 5.06.529zm41.404-1.104l-.529-3.013a98.701 98.701 0 004.945-1.012l.69 2.99c-1.725.483-3.45.828-5.198 1.127zm15.112-4.048l-1.081-2.852a65.843 65.843 0 004.6-1.955l1.334 2.76a46.502 46.502 0 01-4.945 2.139zm-178.519-.414a42.398 42.398 0 01-3.91-3.588l2.3-2.117a39.477 39.477 0 003.635 3.336zm192.389-7.131l-1.886-2.438a27.335 27.335 0 002.3-1.978l1.311-1.288 2.14 2.185-1.427 1.357c-.713.828-1.656 1.564-2.53 2.254zm-202.418-5.244a26.609 26.609 0 01-1.84-5.061l2.99-.667a21.952 21.952 0 001.542 4.601zm57.276-.736l-4.946-2.024 1.242-2.807c1.541.667 3.106 1.334 4.6 1.979zm155.884-5.406l.082-.115.033.023zm-2.392-1.863a37.242 37.242 0 002.553-4.186l2.714 1.403a39.975 39.975 0 01-2.793 4.53zm-167.708.897a285.348 285.348 0 01-4.6-2.3l1.38-2.553c1.495.782 3.013 1.564 4.6 2.3zm-13.732-7.153a118.522 118.522 0 01-4.416-2.692l1.633-2.599c1.403.897 2.875 1.794 4.347 2.668zm-28.292-.897l-3.014-.576a34.103 34.103 0 011.472-5.152l2.876 1.058a31.122 31.122 0 00-1.288 4.555zm218.059-5.705l-3.06-.322c.088-.764.134-1.532.138-2.3a20.08 20.08 0 00-.138-2.3l3.06-.322c.092.894.138 1.792.138 2.691a27.17 27.17 0 01-.092 2.438zm-202.763-1.886c-1.403-1.035-2.806-2.07-4.14-3.128l1.886-2.416a143.188 143.188 0 004.048 3.06zm-11.87-7.614a71.515 71.515 0 013.152-4.209l2.3 1.932c-.989 1.311-2 2.668-2.898 3.979zm-.114-2.3a92.805 92.805 0 01-3.704-3.657l2.3-2.14c1.15 1.197 2.301 2.3 3.59 3.566zm208.835-2.461a35.17 35.17 0 00-2.599-4.14l2.484-1.818a40.29 40.29 0 012.829 4.6zm-198.392-7.13a119.128 119.128 0 013.91-3.451l1.955 2.3c-1.31 1.196-2.576 2.323-3.772 3.45zm-20.909-2.117c-1.058-1.426-2.07-2.875-2.967-4.324l2.599-1.633c.851 1.38 1.817 2.76 2.83 4.117zm210.008-2.3a61.054 61.054 0 00-3.818-3.22l1.886-2.3c1.426 1.103 2.76 2.3 4.003 3.38zm-176.862-5.29a201.073 201.073 0 014.324-2.876l1.656 2.6c-1.38.896-2.92 1.84-4.301 2.806zm164.74-3.704a99.047 99.047 0 00-4.37-2.553l1.495-2.692c1.541.852 3.059 1.749 4.485 2.623zm-150.088-1.702l-1.449-2.691c1.495-.829 3.06-1.634 4.6-2.3l1.38 2.76c-1.518.598-3.082 1.403-4.53 2.208zm-55.573-.598a53.449 53.449 0 01-1.679-5.015l2.967-.805a45.103 45.103 0 001.565 4.6zm192.251-4.808l-4.6-2.047 1.196-2.83c1.587.691 3.197 1.381 4.738 2.094zm-122.946-1.173l-1.196-2.829a173.651 173.651 0 014.785-1.955l1.127 2.852c-1.564.53-3.197 1.196-4.716 1.863zm108.823-4.6a235.3 235.3 0 00-4.831-1.633l.944-2.922a203.12 203.12 0 014.899 1.657zm-95.505-3.841c1.657-.53 3.313-1.059 4.969-1.542l.874 2.945c-1.541.552-3.266 1.058-4.876 1.518zm80.899-.737a194.074 194.074 0 00-4.946-1.196l.69-2.99c1.656.368 3.359.782 5.038 1.22zm-166.742-.437v-5.244l3.06.138v4.968zm101.508 0l-.69-2.806c1.679-.39 3.381-.759 5.06-1.104l.598 3.013c-1.656.207-3.335.575-4.968.943zm50.328-2.668l-1.886-.138-3.082-.368.322-3.06 3.197.392 1.955.299zm-35.331 0l-.414-3.036c1.725-.23 3.45-.414 5.153-.575l.299 3.036c-1.68.138-3.359.437-5.038.552zm15.159-4.255h5.175v3.082c-1.794-.092-3.496-.069-5.175-.046zM69.717 113.28c.368-1.725.851-3.427 1.38-5.083l2.921.966a45.702 45.702 0 00-1.31 4.784zm8.28-13.157l.003-.003.044.026zM75.4 98.606a52.133 52.133 0 012.898-4.417l2.484 1.818A44.417 44.417 0 0078 100.12zm130.674-9.109a45.533 45.533 0 01-5.267-.575l.506-3.036a44.91 44.91 0 004.922.552zM85.358 86.323c1.289-1.15 2.646-2.3 4.072-3.359l1.84 2.462c-1.334 1.035-2.645 2.093-3.841 3.197zm105.35-.391a47.454 47.454 0 01-4.762-2.3l1.472-2.692a49.527 49.527 0 004.463 2.14zm-92.422-8.58a286.263 286.263 0 014.6-2.3l1.242 2.806c-1.426.736-2.967 1.472-4.393 2.208zm78.92.414a25.108 25.108 0 00-4.164-2.3l1.288-2.783a28.968 28.968 0 014.601 2.69zM112.8 71.463a145.27 145.27 0 015.037-1.38l.713 2.99a83.685 83.685 0 00-4.853 1.335zm50.811.805a71.767 71.767 0 00-4.922-.966l.483-3.013c1.771.276 3.496.621 5.152 1.012zm-35.446-4.14c1.702-.23 3.45-.437 5.176-.598l.276 3.06c-1.794.275-3.474.275-5.015.574zm20.61 2.14c-1.656 0-3.358-.139-5.06-.139V67.07c1.748 0 3.496 0 5.198.138zm-12.999 162.187l-2.576-.575.76-2.99c.827.23 1.632.437 2.46.621z"/><path fill="#473f47" d="M167.987 109.422a9.474 9.474 0 01-.713 3.013 4.28 4.28 0 01-3.151 1.91c-1.266.206-2.554.114-3.819.23-1.265.114-2.645.85-2.507 2.023a2.3 2.3 0 00.437.99l1.541 2.599c.2.254.298.574.276.897 0 .437-.575.667-.989.85a8.441 8.441 0 00-4.301 5.268 12.881 12.881 0 000 6.9 1.197 1.197 0 00.46.806c.211.115.45.17.69.161a5.453 5.453 0 013.588 2.3 33.744 33.744 0 012.14 3.91 21.599 21.599 0 0017.573 11.387 4.185 4.185 0 001.771-.208 3.496 3.496 0 001.564-1.587c1.587-2.898 1.127-6.371 1.242-9.545a12.26 12.26 0 01.874-4.6c.368-.829.713-.875 1.242-1.358a1.84 1.84 0 00.828-1.518 13.2 13.2 0 00-.575-2.3 6.187 6.187 0 01.92-4.14 40 40 0 002.14-3.727c.448-1.19.727-2.436.828-3.703a13.525 13.525 0 00-1.541-9.454 7.89 7.89 0 00-5.59-3.29 15.342 15.342 0 01-2.714-.321c-1.357-.437-1.817-1.84-3.243-2.3a7.062 7.062 0 00-3.842-.23 6.717 6.717 0 00-5.13 5.037z"/><path fill="#f89659" d="M174.904 247.665a10.72 10.72 0 012.139 2.553.92.92 0 01.138.598c0 .322-.437.506-.782.598a6.601 6.601 0 01-7.453-3.243 9.2 9.2 0 01-1.656-5.199l.391-2.99c.047-.465.156-.92.322-1.357a4.6 4.6 0 01.851-1.15 6.578 6.578 0 012.024-1.541.414.414 0 01.276 0c.184 0 .276.23.322.39a5.153 5.153 0 01-.138 2.3 9.385 9.385 0 001.45 6.257 13.502 13.502 0 002.116 2.784zm7.71-16.933c.044.232.138.452.276.644.12.159.279.285.46.368a4.784 4.784 0 002.484.322c1.035 0 2.047-.207 3.06-.368a1.702 1.702 0 001.449-.782 1.242 1.242 0 00-.621-1.426 4.324 4.324 0 00-1.61-.46 2.576 2.576 0 01-1.496-.736c-.575-.713-.322-1.84-.92-2.53a2.875 2.875 0 00-2.599-.437c-1.863.575-.874 4.094-.483 5.405z"/><path fill="#473f47" d="M190.71 203.34c-.115.483-.207.966-.299 1.45-1.035 5.98-2.3 11.937-3.473 17.895a6.74 6.74 0 01-1.518 3.565 2.3 2.3 0 01-1.932.851h-.207c-.967-.322-1.519-1.679-1.519-3.036l.506-24.382c.08-.286.08-.588 0-.874a1.886 1.886 0 00-.736-.598c-.69-.368-1.357-.76-2.024-1.15a100.732 100.732 0 01-6.003-3.75 107.012 107.012 0 01-7.637-5.635 10.42 10.42 0 01-4.071-4.6 73.85 73.85 0 00-2.806-6.901 56.746 56.746 0 00-4.325-8.189c-.207-.299-.989-1.817-1.426-1.886l16.723 1.84a5.75 5.75 0 014.048 1.426 56.21 56.21 0 014.968 6.763c3.474 4.6 6.9 9.362 10.443 14.031a10.168 10.168 0 012.645 5.659 37.84 37.84 0 01-1.357 7.521z"/><path fill="#473f47" d="M171.713 237.862a3.91 3.91 0 01-.805.828c-.473.413-1 .76-1.564 1.035h-.161c-.64.265-1.36.265-2.001 0-1.68-.713-1.173-4.83-1.265-6.44-.161-2.53-.3-5.038-.46-7.568-.276-4.922-.575-9.845-.851-14.79-.138-2.3-.3-4.6-.414-6.9l-.852-1.496-.39-.667-.46-.805-.484-.897c-.276-.46-.552-.966-.85-1.495-.484-.897-.944-1.84-1.427-2.76a17.103 17.103 0 00-1.012-1.795 4.329 4.329 0 00-.414-.552 28.315 28.315 0 00-2.967-2.783 19.804 19.804 0 01-6.027-11.179 18.401 18.401 0 01-.23-3.542c.025-1.843.32-3.672.874-5.429.435-1.254.99-2.463 1.656-3.611a9.66 9.66 0 012.07-2.714 5.221 5.221 0 011.335-.897c3.174-1.45 6.394 2.162 8.603 4.071 2.208 1.91 6.026 4.6 7.222 7.476 1.196 2.875 3.45 27.027 3.45 27.027 0 5.934 0 11.87-.345 17.78-.138 3.52-.299 7.04-.644 10.536a19.391 19.391 0 01-1.587 7.567z"/><path fill="url(#b)" d="M169.344 239.724h-.161c-.64.264-1.36.264-2.001 0-1.68-.713-1.173-4.83-1.265-6.441-.161-2.53-.3-5.037-.46-7.568-.276-4.922-.575-9.844-.851-14.79-.138-2.3-.3-4.6-.414-6.9l-.852-1.496-.39-.667-.46-.805-.484-.897c-.276-.46-.552-.966-.85-1.495l-1.634-2.921-1.219-2.3a28.324 28.324 0 00-2.967-2.784 19.805 19.805 0 01-6.027-11.064 18.401 18.401 0 01-.23-3.542c.025-1.842.32-3.671.874-5.428.435-1.255.99-2.464 1.656-3.612a9.66 9.66 0 012.07-2.714c.186.17.348.363.484.575 1.748 2.507 1.656 5.797 1.84 8.856a32.938 32.938 0 002.3 11.133l.621 1.265c.083.18.175.357.276.529a96.479 96.479 0 016.372 11.869c3.611 9.2 2.3 19.276 2.76 29.029.142 2.697.434 5.385.874 8.05.271 1.356.318 2.747.138 4.118z"/><path fill="#f89659" d="M220.862 164.377h-2.807a8.974 8.974 0 01-2.806-.69c-.851-.391-1.564-.99-2.438-1.357-1.794-.782-3.75-1.15-5.498-2.048-2.645-1.334-5.198-2.852-7.728-4.347l-6.119-3.634a68.352 68.352 0 01-6.003-3.864l-1.127-.875c-.553-.46-1.243-.966-1.933-.759a2.3 2.3 0 00-.736.552 7.959 7.959 0 00-1.472 3.727 13.795 13.795 0 01-1.357 3.358c-1.127 2.07-2.185 4.186-3.404 6.188a16.998 16.998 0 01-3.68 5.221 5.428 5.428 0 01-3.313.575 38.455 38.455 0 00-7.337-.276c-1.12.264-2.258.449-3.405.552a8.418 8.418 0 01-4.9-1.702c-1.241-.966-.69-2.3-.183-3.565 1.932-5.038 3.841-7.982 1.587-13.157.437 1.012-8.925 4.6-10.098 4.6-4.9 0-7.82-3.588-11.501-6.372a53.785 53.785 0 00-6.9-4.301 13.21 13.21 0 00-2.3-1.058c-.76-.253-1.749-.23-2.301-.76-.23-.21-.431-.45-.598-.712a7.085 7.085 0 01-.736-1.518 3.565 3.565 0 00-.943-1.68 3.128 3.128 0 00-2.3-.345c-.42.046-.845.046-1.266 0a.553.553 0 01-.414-.207.437.437 0 010-.529c.16-.109.34-.187.53-.23l3.15-.667c-.896-.782-2.3-.575-3.404-.943a.851.851 0 01-.39-.23.529.529 0 01.275-.69c.27-.082.559-.082.828 0l3.405.391c-1.012-1.242-3.174-.874-4.21-2.093a2.898 2.898 0 012.76-.253c1.326.189 2.609.601 3.796 1.219.721.42 1.386.93 1.978 1.518a71.835 71.835 0 007.315 6.9 24.364 24.364 0 005.842 2.784c.897.322 1.84.53 2.738.828.897.3 2.024.851 3.013 1.265.368.196.779.299 1.196.3.334-.065.654-.19.943-.369a20.818 20.818 0 005.428-4.807c1.634-1.932 3.543-3.635 5.268-5.475a7.176 7.176 0 012.438-1.863c1.748-.598 3.611.276 5.475.345a5.543 5.543 0 004.209-1.633c1.081-1.265 1.035-3.151 2.3-4.416a5.268 5.268 0 012.553-1.334 20.885 20.885 0 003.06-1.266c.782-.368 1.77-.713 2.46-.184a.759.759 0 01.346.644c-.005.224-.077.44-.207.622-.49.957-.927 1.94-1.311 2.944a5.842 5.842 0 00-.552 3.266c.322 1.587 2.3 2.484 3.634 3.06 1.932.827 4.071.965 6.004 1.748a15.87 15.87 0 015.083 3.726c2.3 2.3 4.21 4.6 6.303 6.9 1.058 1.15 2.139 2.3 3.312 3.382a34.672 34.672 0 004.922 2.898 44.346 44.346 0 005.958 3.29 22.681 22.681 0 004.6 1.494c.644.186 1.296.34 1.955.46.69 0 1.059-.23 1.634-.575a4.071 4.071 0 012.852-.345 13.988 13.988 0 015.681 2.715c.483.322 1.012.805.92 1.38a.362.362 0 010 .23c-.184.16-.46 0-.667-.161a3.611 3.611 0 00-2.461-.667c.644.506 1.334 1.127 1.265 1.932a.254.254 0 010 .184.227.227 0 01-.207 0c-.713 0-1.242-.667-1.909-.99a4.21 4.21 0 00-2.07-.367c-.322 0-1.357 0-1.357.414a.365.365 0 000 .207c.192.25.417.474.667.667a.811.811 0 01.299.828c-.161.322-.598.368-.966.345-.966-.046-1.794-.253-2.668-.345z"/><path fill="#d57439" d="M217.97 164.055a2.117 2.117 0 01-.827.299 4.186 4.186 0 01-2.554-1.104 58.298 58.298 0 00-7.314-3.036c-2.646-1.334-5.199-2.853-7.729-4.348l-6.072-3.565a68.34 68.34 0 01-6.004-3.864c.529.39 2.714-2.922 3.082-3.22 2.14-1.749 1.38 2 1.334 3.266-.046.25-.046.508 0 .759.166.327.432.593.76.759a147.638 147.638 0 0011.937 7.038c2.07 1.082 4.21 2.07 6.303 3.129 1.725.874 3.588 1.38 5.383 2.093.759.299 1.61.759 1.633 1.564a.78.78 0 01.069.23zm-47.387-35.469a3.956 3.956 0 01-.552 2.3c-.599.805 3.404 1.863 4.6.713a42.091 42.091 0 003.45-4.439z"/><path fill="#f89659" d="M175.326 128.858a6.901 6.901 0 01-4.026.299 4.6 4.6 0 01-3.059-2.507 6.648 6.648 0 01-.345-2.623 20.817 20.817 0 014.232-11.892 4.761 4.761 0 011.473-1.403 3.634 3.634 0 012.553-.23 7.82 7.82 0 014.14 2.714 21.162 21.162 0 012.622 4.256c.506.943 1.45 2.438 1.012 3.542a13.225 13.225 0 01-2.3 2.76 15.02 15.02 0 01-6.302 5.084z"/><path fill="#fff" d="M176.587 166.192a5.542 5.542 0 01-5.13 2.576c-3.979.322-7.981-.713-11.937 0-1.22.207-2.3.575-3.635.667h-.345a4.323 4.323 0 01-3.611-1.403c-1.242-1.633-.46-3.98.345-5.888 1.495-3.428 4.301-7.361 2.691-11.18-.207-.413-.483-.781-.667-1.195a5.76 5.76 0 01-.39-1.403l-.599-2.945c-.414-1.955-.805-3.91-1.219-5.888a2.622 2.622 0 010-1.196c.203-.515.566-.95 1.035-1.243l4.163-3.312a7.108 7.108 0 012.853-1.633 11.984 11.984 0 013.381.184 17.69 17.69 0 004.37-.713h.53c.143.14.225.33.23.529.16.647.457 1.251.873 1.771.298.367.621.713.967 1.035l.437.414 2.507 2.3a7.04 7.04 0 001.817 1.38c2.3 1.036 3.933-1.725 3.818-3.772a9.41 9.41 0 00-1.012-3.289c1.058.414 2.116.874 3.175 1.357a22.66 22.66 0 002.99 1.495c1.61.437 3.151 0 4.6 1.012a28.937 28.937 0 015.245 4.37l-1.058 2.439c-1.404 2.944-3.037 6.119-6.027 7.407-.782.322-1.587.529-2.3.897-1.288.644-1.426 1.656-2.001 2.806-.99 2.001-1.978 4.002-2.876 6.027a44.181 44.181 0 01-3.22 6.394z"/><path fill="url(#c)" d="M180.746 137.413a1.91 1.91 0 01.69-.529c.219-.057.449-.057.667 0 2.899.23 5.797.552 8.672.943-3.565-3.174-9.2-3.036-13.019-5.727-.529.99 0 2.14.276 3.22.161.975.161 1.97 0 2.945a2.806 2.806 0 002.714-.852z"/><path fill="#d57439" d="M124.509 139.875c-.637.167-1.31.11-1.91-.16a6.602 6.602 0 01-.736-1.519 3.565 3.565 0 00-.943-1.679 3.151 3.151 0 00-2.3-.345 2.83 2.83 0 011.45-.437 1.702 1.702 0 001.38-.782c0-.184 0-.414.23-.575.23-.161.597-.207.92-.161a9.69 9.69 0 011.885.667c.434.16.832.402 1.174.713a1.518 1.518 0 01.598 1.035c-.207 0-.506-.23-.713-.345a4.094 4.094 0 00-.828-.322 5.29 5.29 0 00-1.795-.161h-.207c-.023 0 0 .207.138.276.851.667 1.933.99 2.76 1.702.135.08.24.2.3.345a.784.784 0 010 .598 1.817 1.817 0 01-1.403 1.15z"/><path fill="#df2c2c" d="M191.907 229.723a2.76 2.76 0 00-2.3-.184c-.345.232-.675.486-.99.759a4.186 4.186 0 01-3.082 0 18.562 18.562 0 00-3.335-.713s0 2.3.414 2.507a5.865 5.865 0 001.68.322c2.29.295 4.609.295 6.9 0 .644-.138 2.806-.483 3.105-1.196.3-.713-1.794-1.288-2.392-1.495zm-13.315 20.934c.415.462.68 1.04.76 1.656a.92.92 0 01-.185.598 1.058 1.058 0 01-.529.207 12.38 12.38 0 01-4.6.138 6.648 6.648 0 01-3.91-2.116c-.668-.805-1.105-1.771-1.726-2.6-.62-.828-1.196-1.357-1.679-2.116-.483-.759 0-2.116.368-2.944.414 0 .276.805.46 1.173a11.11 11.11 0 002.622 3.565 5.245 5.245 0 003.773 1.795 1.633 1.633 0 001.334-.69c.23-.369 0-1.22.39-1.358.392-.138 2.554 2.324 2.922 2.692z"/><path fill="url(#d)" d="M183.581 227.1h-.207c-.966-.322-1.518-1.68-1.518-3.037l.414-24.382c.08-.286.08-.588 0-.874a1.887 1.887 0 00-.736-.598c-.69-.368-1.357-.759-2.024-1.15a100.742 100.742 0 01-6.004-3.75l-1.196-9.729s12.122 8.028 13.387 11.8c1.265 3.772-2.116 31.72-2.116 31.72z"/><path fill="#473f47" d="M177.806 118.481c.914.338 1.852.607 2.806.805.943.322 1.886 1.036 1.91 2.002.804 0 1.241-.92 1.471-1.68a16.56 16.56 0 00.92-3.933 6.072 6.072 0 00-.92-3.841c-1.31-1.863-6.164-5.36-7.705-2.093-1.173 2.53-1.311 7.268 1.518 8.74z"/><path fill="#df2c2c" d="M202.206 218.537c-1.702-.276-3.404-.552-5.106-.874l.552-3.013c1.68.299 3.358.598 5.037.851zm-15.292-2.897a197.342 197.342 0 01-5.014-1.173l.713-2.967 4.969 1.15zm-15.016-3.767l-4.968-1.449.897-2.944c1.633.506 3.266.966 4.9 1.426zm-14.795-4.623a204.052 204.052 0 01-4.853-1.725l1.058-2.875 4.808 1.702zm75.357-41.012l23.67-50.098 42.277 10.075-24.083 50.65z"/><path fill="#fff" d="M55.37 58.449l72.686-23.209 18.172 75.125-60.84 31.144z"/><path fill="#df2c2c" d="M51.16 207.249l34.572 21.645 11.616-38.529-38.137-26.015z"/><path fill="#fff" d="M233.03 248.442l6.579-43.083 50.006-3.289-10.742 41.68zm16.38-89.387l-4.37-.99 3.427-6.785 4.394.99z"/><path fill="#df2c2c" d="M254.813 160.25l-4.393-.966 7.016-13.824 4.393.966z"/><path fill="#fff" d="M260.223 161.478l-4.393-.99 4.278-8.418 4.37.99z"/><path fill="#df2c2c" d="M265.6 162.694l-4.37-.99 9.247-18.194 4.37.99z"/><path fill="url(#e)" d="M254.813 160.25l-4.393-.966 7.016-13.824 4.393.966z"/><path fill="url(#f)" d="M265.6 162.694l-4.37-.99 9.247-18.194 4.37.99z"/><path fill="#fff" d="M271.01 163.917l-4.37-.989 11.823-23.278 4.37.99z"/><path fill="#473f47" d="M92.193 82.992a13.595 13.595 0 011.265-5.797l-8.557-4.715a23.416 23.416 0 00-2.46 10.512 23.807 23.807 0 0017.964 23.002l1.748-9.73a13.962 13.962 0 01-9.96-13.272z"/><path fill="#df2c2c" d="M126.581 95.227a23.83 23.83 0 01-20.448 11.501 23.5 23.5 0 01-5.843-.736l1.748-9.73c1.328.398 2.708.6 4.095.599a13.94 13.94 0 0011.776-6.441z" opacity=".18"/><path fill="#df2c2c" d="M129.96 82.994a23.715 23.715 0 01-3.38 12.237l-8.672-4.716a13.963 13.963 0 10-24.451-13.318L84.9 72.482a23.807 23.807 0 0145.176 10.512zm118.251 152.159a.943.943 0 01.276-.713 3.57 3.57 0 00.897-1.564 1.84 1.84 0 00-.759-2.002 3.887 3.887 0 00-1.31-.644 1.012 1.012 0 01-.737-1.104v-.92a1.058 1.058 0 011.127-.989 3.22 3.22 0 001.311-.299 1.886 1.886 0 001.127-2.3 7.2 7.2 0 00-.437-1.173 1.035 1.035 0 01.322-1.288c.24-.172.47-.356.69-.552a1.173 1.173 0 011.427 0c.336.34.734.613 1.173.805a1.91 1.91 0 002.3-.644c.304-.417.53-.884.667-1.38a1.012 1.012 0 011.15-.668h.92a.99.99 0 01.897.99c.025.594.182 1.176.46 1.702a1.955 1.955 0 002.025.92 5.06 5.06 0 001.288-.46 1.058 1.058 0 011.426.345c.16.276.414.506.598.782a1.035 1.035 0 01-.115 1.265 3.725 3.725 0 00-.805 1.242 1.886 1.886 0 00.92 2.484c.335.198.69.36 1.058.483a1.012 1.012 0 01.736 1.012c0 .368 0 .736-.138 1.128a.99.99 0 01-1.012.85 4.026 4.026 0 00-1.564.392 1.863 1.863 0 00-1.035 2.024c.074.472.221.93.437 1.357a1.01 1.01 0 01-.322 1.426l-.644.483a1.012 1.012 0 01-1.427 0 3.68 3.68 0 00-1.31-.805 1.908 1.908 0 00-2.3.736 4.05 4.05 0 00-.622 1.311.989.989 0 01-1.081.69l-1.081-.138a1.012 1.012 0 01-.828-.92 3.933 3.933 0 00-.368-1.61 1.886 1.886 0 00-2.3-1.035 8.325 8.325 0 00-1.266.46 1.058 1.058 0 01-1.265-.23c-.23-.3-.46-.575-.667-.897a2.14 2.14 0 01-.23-.575zm6.731-8.071a3.358 3.358 0 101.803-.555h.023a3.358 3.358 0 00-1.826.555zm18.709-1.684a2.3 2.3 0 010 .391.713.713 0 01-.575.667l-.69.184a.783.783 0 01-.92-.437 9.261 9.261 0 00-.506-.805 1.471 1.471 0 00-2.139-.23 5.01 5.01 0 00-.644.575.782.782 0 01-.99.161l-.551-.322a.828.828 0 01-.391-1.081c.113-.32.182-.652.207-.99a1.426 1.426 0 00-1.265-1.517 8.515 8.515 0 00-1.081 0 .736.736 0 01-.713-.667 4.208 4.208 0 00-.138-.575.805.805 0 01.437-.967 3.77 3.77 0 00.943-.644 1.38 1.38 0 00.207-1.817 8.923 8.923 0 00-.598-.713.805.805 0 01-.184-1.196l.276-.506a.805.805 0 011.012-.322c.392.165.819.228 1.242.184a1.311 1.311 0 001.242-1.012c.085-.377.123-.764.115-1.15a.805.805 0 01.529-.828l.805-.184a.736.736 0 01.897.483c.178.413.455.776.805 1.058a1.426 1.426 0 001.84 0c.208-.158.4-.335.575-.53a.828.828 0 011.013-.206l.667.39a.759.759 0 01.299.944 3.014 3.014 0 00-.207 1.173 1.45 1.45 0 001.242 1.426h.966a.76.76 0 01.828.644c0 .23.115.46.16.69a.69.69 0 01-.436.851c-.374.16-.71.395-.99.69a1.357 1.357 0 00-.23 1.657c.2.32.44.614.714.874a.828.828 0 01.184 1.104l-.322.529a.758.758 0 01-1.035.345 2.46 2.46 0 00-1.518 0 1.425 1.425 0 00-.99 1.104 4.44 4.44 0 000 .782zm-2.852-8.833a2.507 2.507 0 00-2.53 2.507 2.53 2.53 0 102.53-2.507z"/><path fill="#473f47" d="M71.05 207.34c6.009 0 10.88-4.871 10.88-10.88s-4.871-10.88-10.88-10.88-10.88 4.871-10.88 10.88 4.871 10.88 10.88 10.88z"/><path fill="#fff" d="M71.1 183.582v13.295l11.708-8.442s-5.405-5.888-11.708-4.853z"/><path fill="#df2c2c" d="M146.962 233.45l-14.422 4.048 4.991 9.638 10.236-2.875z"/><path fill="url(#g)" d="M146.962 233.45l-14.422 4.048 4.991 9.638 10.236-2.875z"/><path fill="#df2c2c" d="M123.54 213.3c-.13.827-.05 1.673.23 2.461a32.594 32.594 0 004.325 10.443c3.197 4.6 8.189 7.476 13.02 10.259-.415-.345-.346-2.898-.415-3.473l-.345-3.405a11.984 11.984 0 00-2.047-4.991 25.602 25.602 0 00-8.465-8.51 24.428 24.428 0 00-6.302-2.784z"/><path fill="url(#h)" d="M123.54 213.3c-.13.827-.05 1.673.23 2.461a32.594 32.594 0 004.325 10.443c3.197 4.6 8.189 7.476 13.02 10.259-.415-.345-.346-2.898-.415-3.473l-.345-3.405a11.984 11.984 0 00-2.047-4.991 25.602 25.602 0 00-8.465-8.51 24.428 24.428 0 00-6.302-2.784z"/><path fill="#df2c2c" d="M143.416 220.383c.491-3.042.576-6.136.253-9.2a11.846 11.846 0 00-4.417-7.913l-3.61 12.697a24.452 24.452 0 00-1.312 7.476 18.034 18.034 0 006.9 12.858c1.15-1.817.898-5.083 1.15-7.223z"/><path fill="url(#i)" d="M143.416 220.383c.491-3.042.576-6.136.253-9.2a11.846 11.846 0 00-4.417-7.913l-3.61 12.697a24.452 24.452 0 00-1.312 7.476 18.034 18.034 0 006.9 12.858c1.15-1.817.898-5.083 1.15-7.223z"/><path fill="#df2c2c" d="M146.516 229.766l-15.476 4.36a2.432 2.432 0 00-1.689 2.996 2.432 2.432 0 003.005 1.675l15.476-4.36a2.432 2.432 0 001.689-2.996 2.432 2.432 0 00-3.005-1.675z"/></svg>