<svg xmlns="http://www.w3.org/2000/svg" width="309" height="240"><defs><linearGradient id="a" x1="136.63" x2="133.19" y1="95.99" y2="100.86" gradientUnits="userSpaceOnUse"><stop offset=".01" stop-color="#fff"/><stop offset="1" stop-color="#fff" stop-opacity="0"/></linearGradient></defs><path fill="#df2c2c" d="M119.583 31.044l-16.217 13.542c-5.915 4.946-11.863 9.909-18.38 14.053-16.249 10.326-35.573 15.238-51.371 26.25a79.77 79.77 0 00-31.706 46.734c-8.647 36.911 12.74 88.558 50.72 100.806 14.103 4.562 29.291 3.492 44.112 3.467 37.078-.067 74.188 6.684 111.115 3.008 36.927-3.676 75.609-20.711 91.449-54.238 14.445-30.569 10.251-73.837.342-105.15-6.683-21.237-18.672-41.22-36.141-55.047C239.077 5.153 206.102-.495 175.09 2.17c-8.438.719-16.968 2.047-24.638 5.64-6.909 3.241-12.857 8.187-18.714 13.083z" opacity=".18"/><path fill="#df2c2c" d="M212.785 0h-73.829c-8.227 0-14.896 6.67-14.896 14.896v170.566c0 8.227 6.67 14.896 14.896 14.896h73.829c8.227 0 14.896-6.669 14.896-14.896V14.896C227.681 6.67 221.011 0 212.785 0z"/><path fill="#473f47" d="M211.234 2.52h-70.72c-7.955 0-14.404 6.449-14.404 14.403v166.18c0 7.954 6.449 14.403 14.403 14.403h70.721c7.955 0 14.403-6.449 14.403-14.403V16.923c0-7.954-6.448-14.403-14.403-14.403z"/><path fill="#fff" d="M222.933 18.569v160.916a13.757 13.757 0 01-13.893 13.618h-66.26a13.994 13.994 0 01-6.909-1.805 13.55 13.55 0 01-7.001-11.813V18.569A13.768 13.768 0 01142.78 4.95h11.195v1.98a6.583 6.583 0 004.178 5.99 7.01 7.01 0 002.548.485h30.778a6.684 6.684 0 006.725-6.584v-1.87h10.861a14.019 14.019 0 019.6 3.776 13.468 13.468 0 014.268 9.842z"/><path fill="#fff" d="M244.092 29.77H156.47v83.553h87.622z"/><path fill="#df2c2c" d="M244.092 29.77H156.47v83.553h87.622z" opacity=".42"/><path fill="#fff" d="M239.4 33.53h-78.8v67.062h78.8z"/><path fill="#df2c2c" d="M160.59 70.453l32.14-19.583 21.63 21.638 1.746-.969-7.686-7.686 6.767-6.776 24.203 19.04v24.47h-78.25z" opacity=".22"/><path fill="#b2857f" d="M127.29 84.735c-.159-.243-.46-.51-.694-.343a.685.685 0 00-.2.343 1.587 1.587 0 01-1.395.835c-.543.042-1.12-.083-1.671-.083a4.737 4.737 0 00-3.71 2.005 7.52 7.52 0 00-1.336 4.102 5.213 5.213 0 001.002 3.71c1.312 1.486 3.576 1.536 5.556 1.461l1.796-.058a1.671 1.671 0 001.871-1.37c.744-1.788 2.08-3.576 1.153-5.38-.802-1.588-1.286-3.902-2.372-5.222zm34.854 130.026c.05 1.625-.251 3.24-.885 4.737a7.979 7.979 0 01-3.45 3.2 13.568 13.568 0 01-10.026.986 2.013 2.013 0 01-1.153-.702 1.6 1.6 0 01-.21-.994c.076-1.855 1.313-3.434 2.64-4.729 1.33-1.295 2.808-2.506 3.618-4.177 1.538-3.116.393-11.404 6.266-10.067 4.871 1.128 3.35 8.279 3.2 11.746z"/><path fill="#df2c2c" d="M162.984 220.372s.836 2.055-.2 3.25c-1.036 1.195-11.571 7.745-18.672 2.507-7.102-5.239 9.683-5.999 9.683-5.999z"/><path fill="#fff" d="M162.558 215.6a1.504 1.504 0 00-1.897.493 6.2 6.2 0 01-5.64 2.022c-2.313-.552-3.232-3.217-4.369-3.225-1.136-.008-7.285 5.197-7.644 7.444-.36 2.247 2.782 3.885 6.24 4.11 3.46.226 11.313-2.189 12.8-4.01 1.487-1.821 1.312-5.69.51-6.834z"/><path fill="#b2857f" d="M182.277 217.956a11.17 11.17 0 01-.835 4.729 7.903 7.903 0 01-3.459 3.2 13.568 13.568 0 01-10.025.994 2.005 2.005 0 01-1.162-.702 1.746 1.746 0 01-.209-1.003c.076-1.846 1.32-3.425 2.64-4.728 1.32-1.304 2.79-2.507 3.626-4.136 1.53-3.116.393-11.395 6.258-10.067 4.829 1.111 3.3 8.263 3.166 11.713z"/><path fill="#df2c2c" d="M183.086 223.586s.835 2.046-.193 3.25c-1.027 1.203-11.554 7.744-18.647 2.506-7.093-5.238 9.591-5.982 9.591-5.982z"/><path fill="#fff" d="M182.68 218.81a1.504 1.504 0 00-1.897.493 6.124 6.124 0 01-5.648 2.022c-2.297-.552-3.233-3.217-4.361-3.225-1.128-.008-7.285 5.205-7.62 7.444-.333 2.239 2.774 3.885 6.25 4.11 3.475.226 11.295-2.189 12.79-4.002 1.496-1.812 1.287-5.689.485-6.842z"/><path fill="#473f47" d="M186.477 131.374s1.095 60.252-3.342 80.353l-11.328 1.395-7.837-82.492z"/><path fill="#473f47" d="M151.471 124.8s-5.321 32.499 1.137 84.698l11.328 1.395 7.837-82.5z"/><path fill="#df2c2c" d="M138.213 98.905c.126 2.181.836 4.077 2.732 4.704.158.057.32.102.485.134 3.484.693 8.045-1.955 11.22-4.261a43.766 43.766 0 003.818-3.091V73.09L139.583 90.4s-1.604 4.68-1.37 8.505z"/><path fill="#df2c2c" d="M152.517 99.422c0 1.094-.134 2.18-.142 3.275 0 6.007 1.395 12.214-.393 18.104-.41 1.32-.97 2.732-.51 4.027a5.013 5.013 0 002.507 2.423c5.296 2.899 11.429 3.784 17.402 4.62 4.495.635 10.861 1.971 15.038-.452 1.771-1.036 2.373-2.957 2.933-4.87 1.804-6.099 2.339-12.657 2.807-18.973.067-.836.125-1.671.175-2.507.346-5.753.46-11.512.343-17.277-.075-4.177-.41-8.697-3.133-11.855-3.634-4.177-10.66-6.984-15.99-7.962a18.196 18.196 0 00-5.256-.292 22.273 22.273 0 00-7.101 2.414c-2.64 1.312-5.013 2.415-6.3 5.013a35.924 35.924 0 00-2.948 9.533 33.827 33.827 0 00-.218 9.365c.16 1.52.543 3.041.702 4.561.057.281.085.566.084.853z"/><path fill="#df2c2c" d="M162.983 100.178c0 19.8-8.94 35.857-19.967 35.857h-2.85c-10.576-.919-17.126-16.642-17.126-35.857 0-19.416 6.216-35.248 16.951-35.858h3.025c11.061.008 19.967 16.057 19.967 35.858z"/><path fill="#020202" d="M162.983 100.178c0 19.8-8.94 35.857-19.967 35.857h-2.85c-10.576-.919-17.126-16.642-17.126-35.857 0-19.416 6.216-35.248 16.951-35.858h3.025c11.061.008 19.967 16.057 19.967 35.858z" opacity=".1"/><path fill="#df2c2c" d="M140.026 136.035c11.032 0 19.975-16.054 19.975-35.857 0-19.804-8.943-35.858-19.975-35.858-11.033 0-19.976 16.054-19.976 35.858 0 19.803 8.943 35.857 19.976 35.857z"/><path fill="#fff" d="M140.02 130.712c9.394 0 17.01-13.672 17.01-30.536 0-16.865-7.616-30.536-17.01-30.536-9.394 0-17.01 13.671-17.01 30.536 0 16.864 7.616 30.536 17.01 30.536z"/><path fill="#df2c2c" d="M140.023 125.589c7.816 0 14.152-11.379 14.152-25.415S147.84 74.76 140.023 74.76c-7.817 0-14.153 11.378-14.153 25.414 0 14.036 6.336 25.415 14.152 25.415z"/><path fill="#fff" d="M140.027 118.982c5.786 0 10.476-8.42 10.476-18.806 0-10.386-4.69-18.806-10.476-18.806-5.786 0-10.477 8.42-10.477 18.806 0 10.386 4.69 18.806 10.477 18.806z"/><path fill="#df2c2c" d="M140.019 113.317c4.042 0 7.318-5.88 7.318-13.134 0-7.253-3.276-13.133-7.318-13.133s-7.319 5.88-7.319 13.133c0 7.254 3.277 13.134 7.319 13.134z"/><path fill="#fff" d="M140.02 107.008c2.104 0 3.81-3.06 3.81-6.834 0-3.774-1.706-6.834-3.81-6.834s-3.81 3.06-3.81 6.834c0 3.774 1.706 6.834 3.81 6.834z"/><path fill="#020202" d="M177.06 133.426c1.739.518 5.757-1.095 7.102-1.32.836-.142 1.52-.543 2.314-.735 3.986-.995 4.462-12.181 4.846-15.189 1.036-7.953 2.615-16.2 2.732-24.178 0-3.074-.042-6.207-1.053-9.115-1.01-2.907-3.074-5.589-5.973-6.633-5.088-1.838-6.6 14.253-7.294 17.544-.877 4.178-1.77 8.355-2.631 12.532-.627 3.05-.276 5.489-2.69 7.753a1.11 1.11 0 01-.619.36 1.32 1.32 0 01-.61-.151 9.593 9.593 0 00-3.2-.76 2.506 2.506 0 00-1.445.225 2.43 2.43 0 00-.977 1.596 7.185 7.185 0 003.074 7.519c1.086.677 2.331 1.044 3.417 1.67 4.12 2.507.669 5.172 2.306 8.247a1.087 1.087 0 00.702.635z" opacity=".1"/><path fill="#b2857f" d="M163.284 60.24a3.877 3.877 0 002.022 1.854c1.028.418 2.19.477 3.016 1.228a5.272 5.272 0 011.354 2.925c.242 1.128.484 2.247.735 3.341.117.569.25 1.128.367 1.671.052.296.16.58.318.836a2.097 2.097 0 001.67.718 6.934 6.934 0 003.785-.977c.198-.096.363-.247.477-.435.099-.237.125-.499.075-.752l-.426-4.862a6.182 6.182 0 01.601-3.918c1.253-2.615 2.607-5.23 3.1-8.112a6.683 6.683 0 00-.334-4.002 6.875 6.875 0 00-4.437-3.192 12.883 12.883 0 00-7.31-.066c-.885.3-1.161.91-1.579 1.67a53.284 53.284 0 00-1.738 3.785 53.367 53.367 0 00-1.579 4.47 5.238 5.238 0 00-.117 3.818z"/><path fill="#473f47" d="M169.712 47.506c1.337 1.195 3.643.393 5.088 1.454 1.445 1.06 1.32 3.141 1.328 4.653 0 .268-.476 3.342-.835 3.142.585.417 1.036-.719 1.67-1.053.636-.334 1.588.635 1.43 1.47a4.963 4.963 0 01-1.37 2.097 7.202 7.202 0 00-1.596 4.453c0 .376.142.836.526.886.384.05.835-.527 1.094-.727 1.546-1.044 3.41-1.479 4.913-2.573a4.661 4.661 0 001.963-3.008 9.359 9.359 0 01.242-2.506 7.343 7.343 0 011.145-1.487 1.671 1.671 0 00.368-1.721c-.126-.251-.351-.435-.477-.685a2.505 2.505 0 010-1.671 5.574 5.574 0 00-.835-4.495c-.744-.952-1.855-1.546-2.715-2.398-.86-.852-1.429-2.256-.76-3.266.25-.393.693-.76.601-1.22a1.079 1.079 0 00-.727-.669 4.728 4.728 0 00-4.428.493c.493-.576-.192-1.537-.944-1.562a3.05 3.05 0 00-1.988.986 1.195 1.195 0 00-1.044-.986 2.907 2.907 0 00-1.504.26 8.405 8.405 0 00-3.793 2.731 5.305 5.305 0 00-.944 4.478 2.506 2.506 0 001.487 1.796c.441.066.875.175 1.295.326.3.235.572.504.81.802z"/><path fill="#996764" d="M167.6 62.81l.393.109c.114.015.22.068.3.15a.485.485 0 010 .268 5.272 5.272 0 011.354 2.924c.242 1.128.484 2.247.735 3.341a27.277 27.277 0 002.732-6.892c-1.83.226-3.678.26-5.514.1z"/><path fill="#b2857f" d="M165.666 103.824a2.088 2.088 0 00-1.796-.76 7.015 7.015 0 00-1.095.677 2.565 2.565 0 01-1.027.234 10.577 10.577 0 01-4.236-.594 5.196 5.196 0 00-2.18-.551 3.241 3.241 0 00-2.19 1.562 6.14 6.14 0 00-.2 6.684 6.458 6.458 0 002.18 1.988 13.51 13.51 0 006.258 1.563c2.172.091 4.37-.067 6.517.091.508.1 1.036.033 1.503-.192a2.333 2.333 0 00.719-1.905c.083-1.67.36-3.015-.602-4.41a56.613 56.613 0 00-3.851-4.387z"/><path fill="#df2c2c" d="M189.567 75.922s23.894 31.246 16.35 42.29c-7.545 11.045-39.417-1.82-39.417-1.82l3.1-9.149s22.39 2.833 22.557.335c.167-2.499-14.203-16.86-14.203-16.86s-2.59-21.02 11.613-14.796zM69.565 99.52l-5.731-5.914-1.646-2.707h-3.969l-1.637-2.139h-5.347l1.763 2.707H46.64l8.054 8.371-6.492 6.993h6.559l-1.838 2.197h4.979l2.13-2.958h3.601z"/><path fill="#020202" d="M54.694 99.84h14.87l-5.73-6.233-1.646-2.707h-3.969l3.919 7.427h-4.353l-4.787-6.859H46.64z" opacity=".1"/><path fill="#df2c2c" d="M137.086 99.456a1.12 1.12 0 01-1.128 1.128h-75.55a1.136 1.136 0 11-.192-2.264h75.733a1.136 1.136 0 011.137 1.136z"/><path fill="#020202" d="M135.146 99.46v1.128h-74.74a1.12 1.12 0 01-1.136-1.12h75.876z" opacity=".1"/><path fill="#020202" d="M52.93 109.028l6.943-8.438h4.152l-6.116 8.438z" opacity=".1"/><path fill="#df2c2c" d="M130.72 95.17l1.253 4.286-1.253 3.693 9.741-3.4z"/><path fill="url(#a)" d="M130.72 95.17l1.253 4.286-1.253 3.693 9.741-3.4z"/><path fill="#df2c2c" d="M81.284 89.648c8.513 0 15.414-6.901 15.414-15.414S89.797 58.82 81.284 58.82 65.87 65.721 65.87 74.234s6.901 15.414 15.414 15.414z"/><path fill="#fff" d="M74.87 78.53c.076.154.184.29.317.4.202.15.428.263.668.335 2.866.994 5.848 1.846 8.881 1.57.322-.01.639-.09.927-.233a.836.836 0 00.46-.777 3.443 3.443 0 01-.059-.41c0-.518.836-.601 1.036-1.07a.836.836 0 00-.242-.885c-.225-.234-.51-.4-.727-.643a2.6 2.6 0 00.92-.836 1.044 1.044 0 00-.076-1.186c-.225-.242-.626-.376-.66-.702-.033-.325.293-.51.476-.743a1.362 1.362 0 00-.326-1.838 2.907 2.907 0 00-1.971-.51c-.69.077-1.386.107-2.08.092a.585.585 0 01-.46-.184c-.134-.183-.05-.45 0-.668a4.92 4.92 0 00-.31-4.436 1.504 1.504 0 00-1.461-.769 1.278 1.278 0 00-.836.769c-.13.365-.22.743-.267 1.128-.401 2.289-1.487 4.737-3.801 5.589-.393.142-.744.067-1.003.426a2.022 2.022 0 00-.25 1.103 9.558 9.558 0 00.676 4.294z"/><path fill="#df2c2c" d="M116.931 150.343c6.446 0 11.671-5.226 11.671-11.672 0-6.446-5.225-11.671-11.67-11.671-6.447 0-11.672 5.225-11.672 11.671s5.225 11.672 11.671 11.672z"/><path fill="#fff" d="M112.016 141.86a.945.945 0 00.234.31c.15.115.32.203.501.259a16.25 16.25 0 006.684 1.303c.244 0 .484-.058.702-.167a.644.644 0 00.367-.585c0-.108-.05-.209-.05-.309 0-.392.643-.443.836-.835a.627.627 0 00-.176-.669c-.167-.175-.376-.309-.543-.493.285-.15.528-.369.71-.635a.836.836 0 00-.042-.902c-.167-.184-.467-.292-.484-.535-.017-.242.217-.384.367-.56a1.044 1.044 0 00-.225-1.394 2.206 2.206 0 00-1.487-.41c-.523.034-1.048.034-1.57 0a.46.46 0 01-.352-.142c-.1-.142 0-.342 0-.51a3.743 3.743 0 00-.184-3.341 1.144 1.144 0 00-1.094-.602.96.96 0 00-.618.577 3.54 3.54 0 00-.217.835c-.335 1.73-1.187 3.567-2.95 4.177-.3.1-.56.042-.76.31a1.529 1.529 0 00-.2.835 7.001 7.001 0 00.45 3.258c.026.079.06.155.101.226z"/><path fill="#df2c2c" d="M70.023 136.776c5.74 0 10.393-4.653 10.393-10.393 0-5.74-4.653-10.393-10.393-10.393-5.74 0-10.393 4.653-10.393 10.393 0 5.74 4.653 10.393 10.393 10.393z"/><path fill="#fff" d="M69.702 124.674s-3.793-4.603-6.19-.242c-2.398 4.36 7.602 8.246 7.602 8.246s5.622-5.18 5.013-8.305c-.61-3.124-5.723-4.344-6.425.301z"/><path fill="#df2c2c" d="M100.007 120.874c9.177 0 16.617-7.44 16.617-16.617s-7.44-16.617-16.617-16.617-16.617 7.44-16.617 16.617c0 9.178 7.44 16.617 16.617 16.617z"/><path fill="#fff" d="M99.49 101.54s-6.082-7.377-9.908-.4c-3.827 6.975 12.156 13.191 12.156 13.191s8.989-8.28 8.062-13.275c-.928-4.996-9.174-6.951-10.31.484z"/><path fill="#df2c2c" d="M225.441 52.662a5.021 5.021 0 100-10.042 5.021 5.021 0 000 10.042z" opacity=".22"/></svg>