<svg xmlns="http://www.w3.org/2000/svg" width="353" height="274"><defs><linearGradient id="a" x1="155.99" x2="152.06" y1="109.59" y2="115.16" gradientUnits="userSpaceOnUse"><stop offset=".01" stop-color="#fff"/><stop offset="1" stop-color="#fff" stop-opacity="0"/></linearGradient></defs><path fill="#e5e5e5" d="M136.523 35.442L118.01 50.903c-6.753 5.646-13.544 11.312-20.984 16.043-18.551 11.789-40.613 17.397-58.65 29.969A91.069 91.069 0 002.18 150.27c-9.872 42.139 14.545 101.103 57.905 115.086 16.1 5.208 33.44 3.987 50.361 3.958 42.33-.076 84.698 7.631 126.857 3.434 42.158-4.197 86.319-23.645 104.403-61.921 16.492-34.9 11.703-84.298.391-120.046-7.63-24.246-21.317-47.061-41.261-62.847C272.946 5.883 235.3-.565 199.894 2.478c-9.633.82-19.372 2.337-28.127 6.438-7.888 3.701-14.68 9.348-21.366 14.937z"/><path fill="#df2c2c" d="M242.934 0h-84.288c-9.392 0-17.006 7.614-17.006 17.006v194.73c0 9.392 7.614 17.006 17.006 17.006h84.288c9.393 0 17.007-7.614 17.007-17.006V17.006C259.941 7.614 252.327 0 242.934 0z"/><path fill="#473f47" d="M241.163 2.88h-80.74c-9.08 0-16.443 7.362-16.443 16.444v189.721c0 9.082 7.362 16.444 16.444 16.444h80.74c9.081 0 16.443-7.362 16.443-16.444V19.324c0-9.082-7.362-16.444-16.444-16.444z"/><path fill="#fff" d="M254.509 21.198V204.91a15.711 15.711 0 01-15.862 15.547h-75.646a15.97 15.97 0 01-7.888-2.061 15.463 15.463 0 01-7.993-13.486V21.198A15.719 15.719 0 01163 5.65h12.782v2.26a7.516 7.516 0 004.769 6.84 8.003 8.003 0 002.909.552h35.138a7.63 7.63 0 007.678-7.516V5.651h12.4a16.004 16.004 0 0110.959 4.311 15.367 15.367 0 014.874 11.236z"/><path fill="#fff" d="M278.675 33.98H178.64v95.39h100.035z"/><path fill="#df2c2c" d="M278.675 33.98H178.64v95.39h100.035z" opacity=".42"/><path fill="#fff" d="M273.313 38.28H183.35v76.562h89.963z"/><path fill="#df2c2c" d="M183.34 80.437l36.693-22.357 24.694 24.704 1.994-1.107-8.776-8.775 7.726-7.735 27.632 21.737v27.937H183.97z" opacity=".22"/><path fill="#b2857f" d="M145.32 96.73c-.18-.276-.524-.581-.791-.39a.782.782 0 00-.23.39 1.812 1.812 0 01-1.592.954c-.62.048-1.278-.095-1.908-.095a5.408 5.408 0 00-4.235 2.29 8.584 8.584 0 00-1.526 4.682 5.952 5.952 0 001.145 4.235c1.497 1.698 4.082 1.755 6.343 1.67l2.05-.067a1.908 1.908 0 002.137-1.565c.849-2.04 2.375-4.082 1.316-6.142-.916-1.812-1.469-4.454-2.709-5.961zm39.793 148.456a12.84 12.84 0 01-1.01 5.408 9.109 9.109 0 01-3.94 3.653 15.49 15.49 0 01-11.446 1.125 2.299 2.299 0 01-1.316-.8 1.822 1.822 0 01-.239-1.136c.086-2.117 1.498-3.92 3.014-5.399 1.517-1.478 3.205-2.86 4.13-4.769 1.755-3.557.449-13.019 7.154-11.493 5.56 1.288 3.825 9.452 3.653 13.41z"/><path fill="#df2c2c" d="M186.066 251.597s.954 2.346-.229 3.71c-1.182 1.364-13.21 8.842-21.317 2.861-8.108-5.98 11.054-6.848 11.054-6.848z"/><path fill="#fff" d="M185.591 246.15a1.717 1.717 0 00-2.165.564 7.078 7.078 0 01-6.438 2.308c-2.642-.63-3.691-3.672-4.989-3.682-1.297-.01-8.317 5.933-8.727 8.498-.41 2.566 3.176 4.436 7.125 4.693 3.949.258 12.915-2.499 14.612-4.578 1.698-2.08 1.498-6.496.582-7.802z"/><path fill="#b2857f" d="M208.101 248.826a12.753 12.753 0 01-.954 5.398 9.024 9.024 0 01-3.949 3.653 15.49 15.49 0 01-11.445 1.135 2.29 2.29 0 01-1.326-.8 1.994 1.994 0 01-.239-1.145c.086-2.108 1.507-3.911 3.014-5.399s3.186-2.861 4.14-4.721c1.745-3.558.448-13.01 7.144-11.494 5.513 1.269 3.768 9.433 3.615 13.373z"/><path fill="#df2c2c" d="M209.023 255.258s.954 2.336-.22 3.71c-1.172 1.373-13.19 8.842-21.288 2.861-8.098-5.98 10.95-6.829 10.95-6.829z"/><path fill="#fff" d="M208.559 249.81a1.717 1.717 0 00-2.166.564 6.991 6.991 0 01-6.447 2.308c-2.623-.63-3.691-3.672-4.98-3.682-1.287-.01-8.316 5.942-8.698 8.498-.381 2.557 3.167 4.436 7.135 4.693 3.967.258 12.895-2.499 14.602-4.569 1.708-2.07 1.47-6.495.554-7.811z"/><path fill="#473f47" d="M212.886 149.989s1.249 68.788-3.816 91.737l-12.933 1.593-8.947-94.179z"/><path fill="#473f47" d="M172.933 142.48s-6.075 37.103 1.298 96.697l12.933 1.593 8.947-94.189z"/><path fill="#df2c2c" d="M157.797 112.923c.143 2.49.953 4.654 3.119 5.37.18.065.365.116.553.152 3.977.792 9.185-2.232 12.81-4.864a49.994 49.994 0 004.358-3.53V83.45l-19.276 19.763s-1.831 5.341-1.564 9.71z"/><path fill="#df2c2c" d="M174.129 113.498c0 1.25-.153 2.49-.162 3.74 0 6.857 1.593 13.944-.448 20.668-.468 1.507-1.107 3.12-.582 4.598a5.723 5.723 0 002.861 2.766c6.047 3.31 13.048 4.32 19.868 5.274 5.131.725 12.4 2.251 17.169-.515 2.022-1.183 2.708-3.376 3.347-5.56 2.06-6.963 2.671-14.45 3.205-21.661.076-.954.143-1.908.2-2.862.395-6.568.525-13.143.392-19.725-.086-4.769-.468-9.929-3.577-13.534-4.15-4.77-12.17-7.974-18.256-9.09a20.774 20.774 0 00-6-.334 25.428 25.428 0 00-8.107 2.757c-3.014 1.497-5.723 2.756-7.192 5.723a41.013 41.013 0 00-3.367 10.883 38.62 38.62 0 00-.248 10.692c.182 1.736.62 3.472.802 5.208.065.32.097.646.095.972z"/><path fill="#df2c2c" d="M186.071 114.367c0 22.606-10.205 40.938-22.796 40.938h-3.252c-12.075-1.05-19.553-19-19.553-40.938 0-22.166 7.096-40.24 19.353-40.937h3.452c12.629.01 22.796 18.332 22.796 40.937z"/><path fill="#020202" d="M186.071 114.367c0 22.606-10.205 40.938-22.796 40.938h-3.252c-12.075-1.05-19.553-19-19.553-40.938 0-22.166 7.096-40.24 19.353-40.937h3.452c12.629.01 22.796 18.332 22.796 40.937z" opacity=".1"/><path fill="#df2c2c" d="M159.856 155.305c12.595 0 22.805-18.329 22.805-40.938s-10.21-40.937-22.805-40.937c-12.596 0-22.806 18.328-22.806 40.937 0 22.61 10.21 40.938 22.805 40.938z"/><path fill="#fff" d="M159.86 149.233c10.725 0 19.419-15.608 19.419-34.861 0-19.254-8.694-34.862-19.42-34.862-10.725 0-19.419 15.608-19.419 34.862 0 19.253 8.694 34.861 19.42 34.861z"/><path fill="#df2c2c" d="M159.857 143.39c8.924 0 16.158-12.99 16.158-29.015s-7.234-29.015-16.157-29.015c-8.924 0-16.158 12.99-16.158 29.015 0 16.024 7.234 29.015 16.157 29.015z"/><path fill="#fff" d="M159.86 135.84c6.606 0 11.961-9.612 11.961-21.47 0-11.857-5.354-21.47-11.96-21.47-6.606 0-11.961 9.613-11.961 21.47 0 11.858 5.355 21.47 11.96 21.47z"/><path fill="#df2c2c" d="M159.855 129.368c4.615 0 8.356-6.713 8.356-14.994 0-8.281-3.741-14.994-8.356-14.994-4.614 0-8.355 6.713-8.355 14.994 0 8.28 3.74 14.994 8.355 14.994z"/><path fill="#fff" d="M159.86 122.174c2.401 0 4.349-3.493 4.349-7.802 0-4.309-1.948-7.802-4.35-7.802-2.402 0-4.349 3.493-4.349 7.802 0 4.31 1.947 7.802 4.35 7.802z"/><path fill="#020202" d="M202.14 152.335c1.984.592 6.571-1.25 8.107-1.507.954-.162 1.736-.62 2.642-.839 4.55-1.135 5.093-13.907 5.532-17.34 1.183-9.08 2.986-18.495 3.119-27.603 0-3.51-.048-7.087-1.202-10.406-1.154-3.32-3.51-6.381-6.82-7.574-5.808-2.098-7.535 16.272-8.326 20.03-1.002 4.77-2.022 9.538-3.005 14.307-.715 3.482-.314 6.267-3.071 8.852-.184.21-.432.355-.706.41-.242 0-.481-.06-.696-.172a10.949 10.949 0 00-3.653-.868 2.861 2.861 0 00-1.65.258 2.775 2.775 0 00-1.116 1.822 8.203 8.203 0 003.51 8.584c1.24.772 2.66 1.192 3.9 1.907 4.703 2.862.764 5.905 2.633 9.415a1.24 1.24 0 00.802.724z" opacity=".1"/><path fill="#b2857f" d="M186.418 68.777a4.425 4.425 0 002.308 2.117c1.173.477 2.499.544 3.443 1.402a6.019 6.019 0 011.545 3.339c.277 1.288.553 2.566.84 3.815.133.649.286 1.288.42 1.908.058.338.181.661.362.954a2.393 2.393 0 001.907.82 7.917 7.917 0 004.321-1.116c.225-.11.414-.282.544-.496.113-.271.143-.57.085-.859l-.486-5.55a7.058 7.058 0 01.687-4.474c1.43-2.985 2.976-5.97 3.538-9.262a7.63 7.63 0 00-.381-4.568 7.85 7.85 0 00-5.065-3.644 14.708 14.708 0 00-8.346-.076c-1.01.343-1.325 1.04-1.802 1.908a60.826 60.826 0 00-1.984 4.32 60.927 60.927 0 00-1.803 5.103 5.98 5.98 0 00-.133 4.359z"/><path fill="#473f47" d="M193.752 54.23c1.526 1.364 4.159.449 5.809 1.66 1.65 1.211 1.507 3.586 1.517 5.313 0 .305-.544 3.815-.954 3.586.668.477 1.183-.82 1.907-1.202.725-.381 1.813.725 1.631 1.679a5.666 5.666 0 01-1.564 2.394 8.221 8.221 0 00-1.822 5.084c0 .429.163.954.601 1.01.439.058.954-.6 1.25-.83 1.764-1.191 3.891-1.687 5.608-2.937a5.321 5.321 0 002.242-3.434c-.037-.961.056-1.924.276-2.86.361-.62.8-1.191 1.307-1.699a1.907 1.907 0 00.42-1.965c-.143-.286-.401-.496-.544-.782a2.861 2.861 0 010-1.907 6.362 6.362 0 00-.954-5.132c-.849-1.087-2.117-1.764-3.1-2.737-.982-.973-1.63-2.575-.868-3.73.286-.448.792-.868.687-1.392a1.23 1.23 0 00-.83-.763 5.398 5.398 0 00-5.055.563c.563-.659-.22-1.755-1.078-1.784a3.481 3.481 0 00-2.27 1.125 1.364 1.364 0 00-1.192-1.125 3.32 3.32 0 00-1.717.296 9.595 9.595 0 00-4.33 3.119 6.057 6.057 0 00-1.078 5.112 2.861 2.861 0 001.698 2.05c.504.076.999.2 1.478.373.343.267.654.575.925.915z"/><path fill="#996764" d="M191.34 71.704l.448.124a.6.6 0 01.344.172c.028.1.028.206 0 .305a6.019 6.019 0 011.545 3.339c.276 1.287.553 2.565.84 3.815a31.142 31.142 0 003.118-7.869 30.188 30.188 0 01-6.295.114z"/><path fill="#b2857f" d="M189.135 118.525a2.384 2.384 0 00-2.05-.868c-.44.219-.858.477-1.25.773-.369.169-.768.26-1.174.267a12.075 12.075 0 01-4.835-.677 5.933 5.933 0 00-2.49-.63 3.7 3.7 0 00-2.499 1.784 7.01 7.01 0 00-.229 7.63 7.373 7.373 0 002.49 2.27 15.423 15.423 0 007.144 1.784c2.48.105 4.988-.077 7.44.105a2.738 2.738 0 001.716-.22 2.661 2.661 0 00.82-2.174c.096-1.908.41-3.444-.686-5.036a64.673 64.673 0 00-4.397-5.008z"/><path fill="#df2c2c" d="M216.415 86.675s27.279 35.673 18.666 48.282c-8.613 12.61-45.001-2.08-45.001-2.08l3.539-10.443s25.562 3.233 25.752.381c.191-2.852-16.214-19.248-16.214-19.248S200.2 79.57 216.415 86.675zm-136.993 26.94l-6.543-6.753-1.879-3.09h-4.53l-1.87-2.442h-6.104l2.012 3.09H53.25l9.195 9.557-7.411 7.984h7.487l-2.098 2.508h5.684l2.432-3.376h4.111z"/><path fill="#020202" d="M62.445 113.976h16.977l-6.543-7.116L71 103.77h-4.53l4.473 8.48h-4.97l-5.465-7.831H53.25z" opacity=".1"/><path fill="#df2c2c" d="M156.505 113.547a1.279 1.279 0 01-1.288 1.288H68.965a1.297 1.297 0 11-.22-2.585h86.463a1.297 1.297 0 011.297 1.297z"/><path fill="#020202" d="M154.285 113.55v1.288H68.957a1.278 1.278 0 01-1.297-1.278h86.625z" opacity=".1"/><path fill="#020202" d="M60.42 124.473l7.926-9.633h4.74l-6.981 9.633z" opacity=".1"/><path fill="#df2c2c" d="M149.24 108.66l1.43 4.893-1.43 4.216 11.121-3.882z"/><path fill="url(#a)" d="M149.24 108.66l1.43 4.893-1.43 4.216 11.121-3.882z"/><path fill="#df2c2c" d="M92.798 102.346c9.719 0 17.598-7.88 17.598-17.598 0-9.72-7.88-17.598-17.598-17.598-9.72 0-17.598 7.879-17.598 17.598s7.879 17.598 17.598 17.598z"/><path fill="#fff" d="M85.473 89.662a1.4 1.4 0 00.362.458c.23.17.489.3.763.381 3.272 1.136 6.677 2.108 10.139 1.794.368-.012.73-.103 1.059-.267a.954.954 0 00.524-.888 3.936 3.936 0 01-.067-.467c0-.591.954-.687 1.183-1.22a.954.954 0 00-.276-1.012c-.258-.267-.582-.458-.83-.734a2.957 2.957 0 001.049-.954 1.193 1.193 0 00-.086-1.354c-.257-.277-.715-.43-.753-.802-.039-.372.333-.581.543-.848a1.554 1.554 0 00-.372-2.099 3.32 3.32 0 00-2.25-.582c-.79.088-1.583.123-2.376.105a.668.668 0 01-.524-.21c-.153-.21-.057-.515 0-.763a5.618 5.618 0 00-.353-5.064 1.717 1.717 0 00-1.67-.878 1.46 1.46 0 00-.953.878 6.018 6.018 0 00-.305 1.287c-.458 2.614-1.698 5.408-4.34 6.381-.448.162-.849.077-1.145.487-.213.384-.312.82-.286 1.259-.122 1.672.142 3.35.773 4.902z"/><path fill="#df2c2c" d="M133.495 171.64c7.359 0 13.324-5.966 13.324-13.325 0-7.36-5.965-13.325-13.324-13.325-7.36 0-13.325 5.966-13.325 13.325 0 7.359 5.966 13.324 13.325 13.324z"/><path fill="#fff" d="M127.89 161.959c.063.134.154.255.266.353.172.131.366.232.572.295a18.552 18.552 0 007.63 1.488c.28 0 .553-.066.802-.19a.733.733 0 00.42-.668c0-.124-.057-.239-.057-.353 0-.448.734-.506.953-.954a.716.716 0 00-.2-.763c-.19-.2-.43-.353-.62-.563a2.28 2.28 0 00.81-.725.954.954 0 00-.047-1.03c-.19-.21-.534-.334-.553-.61-.02-.277.248-.439.42-.64a1.192 1.192 0 00-.258-1.592 2.518 2.518 0 00-1.698-.467c-.597.038-1.196.038-1.793 0a.525.525 0 01-.4-.163c-.115-.162 0-.39 0-.581a4.273 4.273 0 00-.21-3.816 1.307 1.307 0 00-1.25-.686 1.097 1.097 0 00-.706.658 4.13 4.13 0 00-.248.954c-.381 1.974-1.354 4.072-3.367 4.769-.343.114-.639.047-.867.353-.166.289-.246.62-.23.953a7.993 7.993 0 00.516 3.72c.028.09.066.176.114.258z"/><path fill="#df2c2c" d="M79.935 156.15c6.553 0 11.866-5.312 11.866-11.865s-5.313-11.865-11.866-11.865-11.865 5.312-11.865 11.865 5.312 11.866 11.865 11.866z"/><path fill="#fff" d="M79.572 142.34s-4.33-5.256-7.068-.277c-2.738 4.979 8.68 9.414 8.68 9.414s6.419-5.914 5.722-9.48c-.696-3.568-6.533-4.96-7.334.343z"/><path fill="#df2c2c" d="M114.181 137.992c10.478 0 18.971-8.493 18.971-18.97 0-10.478-8.493-18.972-18.97-18.972-10.478 0-18.972 8.494-18.972 18.971 0 10.478 8.494 18.971 18.971 18.971z"/><path fill="#fff" d="M113.578 115.927s-6.944-8.422-11.312-.458c-4.369 7.965 13.877 15.061 13.877 15.061s10.263-9.452 9.205-15.156c-1.059-5.704-10.473-7.936-11.77.553z"/><path fill="#df2c2c" d="M257.372 60.115a5.732 5.732 0 100-11.465 5.732 5.732 0 000 11.465z" opacity=".22"/></svg>