<svg width="148" height="197" fill="none" xmlns="http://www.w3.org/2000/svg"><path d="M.214 193.804a.5.5 0 00.265.656l4.142 1.758a.5.5 0 00.39-.921l-3.681-1.562 1.562-3.683a.5.5 0 10-.92-.39l-1.758 4.142zM146.175.97l-.061 1.02.998.06.061-1.02-.998-.06zm-.187 3.047c-.043.674-.087 1.344-.133 2.012l.998.068a583 583 0 00.133-2.016l-.998-.064zm-.271 4.009c-.048.663-.096 1.323-.146 1.981l.998.075c.049-.66.098-1.32.145-1.985l-.997-.071zm-.301 3.993c-.053.677-.108 1.35-.164 2.021l.997.084c.056-.673.11-1.348.164-2.026l-.997-.079zm-.335 4.027c-.059.666-.118 1.329-.179 1.99l.996.09c.061-.661.12-1.326.179-1.993l-.996-.087zm-.365 3.963a390.26 390.26 0 01-.2 2.024l.995.101c.068-.674.135-1.35.201-2.03l-.996-.095zm-.408 4.035c-.071.668-.143 1.333-.217 1.995l.994.11c.074-.663.146-1.33.217-1.999l-.994-.105zm-.442 3.973c-.077.666-.156 1.33-.237 1.991l.993.121c.08-.663.16-1.328.237-1.997l-.993-.115zm-.487 4.005c-.086.668-.172 1.333-.26 1.995l.991.132c.088-.664.175-1.331.261-2.001l-.992-.127zm-.53 3.974a276.08 276.08 0 01-.279 1.966l.99.144c.095-.655.188-1.312.28-1.972l-.991-.138zm-.577 3.977c-.101.668-.204 1.332-.309 1.994l.988.156c.105-.663.208-1.33.31-2l-.989-.15zm-.628 3.97c-.108.655-.218 1.308-.33 1.957l.986.17c.112-.652.222-1.307.331-1.965l-.987-.163zm-.68 3.952c-.119.665-.241 1.327-.364 1.986l.983.184c.124-.662.245-1.326.365-1.994l-.984-.176zm-.739 3.953c-.127.653-.256 1.303-.387 1.95l.98.199c.131-.65.261-1.302.388-1.957l-.981-.191zm-.797 3.928c-.139.66-.281 1.318-.425 1.973l.977.215c.145-.658.287-1.318.427-1.982l-.979-.206zm-.863 3.928c-.148.648-.299 1.294-.451 1.936l.973.231c.153-.645.304-1.293.453-1.944l-.975-.223zm-.927 3.898c-.162.655-.327 1.307-.493 1.956l.968.249c.168-.652.333-1.306.496-1.964l-.971-.24zm-1.001 3.892a203.9 203.9 0 01-.523 1.917l.964.267c.177-.639.352-1.28.525-1.926l-.966-.258zm-1.074 3.864c-.187.646-.377 1.29-.569 1.93l.958.288c.193-.644.384-1.29.571-1.94l-.96-.278zm-1.153 3.841c-.199.638-.4 1.271-.604 1.902l.952.308c.205-.634.407-1.272.607-1.912l-.955-.297zm-1.236 3.82c-.214.637-.431 1.27-.651 1.9l.945.33c.221-.634.438-1.27.653-1.91l-.947-.32zm-1.318 3.78c-.229.63-.46 1.258-.694 1.883l.936.351c.236-.628.468-1.26.698-1.894l-.94-.34zm-1.413 3.763c-.243.624-.489 1.245-.739 1.862l.928.375c.251-.622.498-1.246.743-1.874l-.932-.362zm-1.496 3.705c-.26.621-.524 1.24-.79 1.854l.917.398c.269-.619.534-1.24.795-1.866l-.922-.386zm-1.602 3.69c-.274.61-.551 1.216-.832 1.818l.907.423c.282-.607.562-1.217.837-1.83l-.912-.41zm-1.69 3.628c-.291.605-.587 1.206-.886 1.804l.895.447c.301-.602.598-1.208.892-1.817l-.901-.434zm-1.793 3.59c-.307.592-.617 1.181-.93 1.768l.881.471c.316-.59.628-1.183.937-1.78l-.888-.459zm-1.891 3.532c-.324.586-.653 1.168-.984 1.748l.867.497c.335-.584.665-1.171.992-1.76l-.875-.485zm-1.992 3.477c-.34.575-.685 1.147-1.033 1.717l.853.522c.351-.574.698-1.15 1.041-1.729l-.861-.51zm-2.093 3.419c-.357.565-.718 1.127-1.083 1.686l.837.547c.368-.563.732-1.129 1.091-1.698l-.845-.535zm-2.192 3.355c-.373.553-.751 1.104-1.132 1.652l.82.571c.385-.552.765-1.107 1.141-1.664l-.829-.559zm-2.29 3.288c-.39.542-.784 1.082-1.182 1.62l.803.595c.401-.541.798-1.085 1.191-1.632l-.812-.583zm-2.386 3.219c-.405.53-.814 1.057-1.228 1.582l.786.619c.416-.529.828-1.06 1.236-1.594l-.794-.607zm-2.481 3.149c-.421.518-.846 1.035-1.276 1.549l.767.641c.433-.518.861-1.038 1.286-1.56l-.777-.63zm-2.568 3.072a143.86 143.86 0 01-1.319 1.51l.749.663a145.9 145.9 0 001.328-1.521l-.758-.652zm-2.663 3.007c-.448.491-.9.981-1.356 1.468l.73.683c.459-.49.914-.983 1.365-1.478l-.739-.673zm-2.734 2.918c-.463.482-.93.961-1.403 1.438l.711.704c.476-.481.946-.964 1.413-1.448l-.721-.694zm-2.827 2.859c-.472.465-.948.928-1.43 1.389l.693.722c.484-.464.964-.93 1.439-1.398l-.702-.713zm-2.884 2.768c-.49.457-.983.913-1.481 1.367l.673.739c.502-.457.998-.915 1.49-1.376l-.682-.73zm-2.968 2.706c-.496.441-.996.88-1.5 1.318l.656.755c.507-.44 1.01-.882 1.508-1.326l-.664-.747zm-3.025 2.626c-.512.435-1.03.868-1.55 1.3l.637.77c.524-.434 1.044-.87 1.56-1.307l-.647-.763zm-3.09 2.559c-.516.418-1.037.834-1.561 1.249l.62.785c.528-.418 1.051-.836 1.57-1.257l-.629-.777zm-3.148 2.491c-.53.41-1.065.819-1.603 1.227l.603.797c.542-.41 1.08-.821 1.612-1.233l-.612-.791zm-3.194 2.419a238.8 238.8 0 01-1.615 1.184l.588.809c.545-.395 1.085-.792 1.622-1.19l-.595-.803zm-3.254 2.361a215.2 215.2 0 01-1.649 1.161l.572.82c.556-.387 1.108-.776 1.657-1.166l-.58-.815zm-3.285 2.29c-.549.375-1.102.75-1.659 1.123l.557.831c.56-.375 1.115-.751 1.667-1.128l-.565-.826zm-3.342 2.241c-.56.368-1.123.735-1.69 1.101l.542.84c.57-.368 1.136-.736 1.698-1.106l-.55-.835zm-3.364 2.172c-.561.356-1.127.711-1.696 1.066l.53.849c.57-.356 1.138-.713 1.702-1.071l-.536-.844zm-3.414 2.127c-.574.351-1.151.702-1.732 1.051l.515.857a293.77 293.77 0 001.74-1.055l-.523-.853zm-3.435 2.068c-.572.338-1.146.676-1.725 1.013l.503.864c.58-.338 1.158-.677 1.731-1.016l-.51-.861zm-3.471 2.022c-.586.335-1.175.67-1.768 1.005l.492.871c.594-.336 1.186-.672 1.773-1.009l-.497-.867zm-3.502 1.976c-.58.322-1.161.643-1.747.963l.48.878a281.54 281.54 0 001.752-.967l-.485-.874zm-3.513 1.924c-.593.319-1.189.639-1.788.957l.47.883c.6-.319 1.198-.64 1.793-.96l-.475-.88zm-3.568 1.898c-.584.306-1.171.612-1.762.917l.46.888c.592-.306 1.18-.613 1.766-.92l-.464-.885zm-3.543 1.833c-.597.305-1.197.609-1.8.913l.45.893c.604-.305 1.206-.61 1.805-.916l-.455-.89zm-3.621 1.824c-.592.295-1.187.589-1.785.883l.441.897c.6-.294 1.196-.589 1.79-.884l-.446-.896zm-3.575 1.757c-.6.291-1.202.582-1.808.872l.432.902a375.58 375.58 0 001.813-.875l-.437-.899zm-3.635 1.743c-.612.29-1.227.58-1.845.869l.425.906c.619-.29 1.235-.581 1.848-.871l-.428-.904zm-3.639 1.705c-.6.279-1.204.557-1.811.835l.417.909c.607-.279 1.213-.558 1.815-.837l-.42-.907zm-3.64 1.669c-.613.278-1.228.555-1.847.833l.41.912a576.1 576.1 0 001.85-.834l-.413-.911zm-3.708 1.664l-1.81.8.402.915c.608-.267 1.212-.534 1.814-.801l-.406-.914zm-3.637 1.599c-.612.267-1.227.533-1.844.799l.396.919c.618-.267 1.234-.534 1.847-.801l-.4-.917zm-3.704 1.598c-.623.266-1.249.533-1.877.799l.39.921 1.88-.8-.393-.92zm-3.708 1.57c-.61.256-1.222.512-1.837.768l.384.924 1.84-.769-.387-.923zm-3.69 1.536c-.62.256-1.243.512-1.868.768l.378.926 1.872-.769-.382-.925zm-3.753 1.536l-.948.384.374.927.95-.384-.376-.927z" fill="#fff"/></svg>