<svg width="976" height="395" fill="none" xmlns="http://www.w3.org/2000/svg"><circle cx="836.751" cy="67" r="3" fill="#5F5F5F" fill-opacity=".1"/><circle cx="844.751" cy="67" r="3" fill="#5F5F5F" fill-opacity=".1"/><circle cx="852.751" cy="67" r="3" fill="#5F5F5F" fill-opacity=".1"/><circle cx="860.751" cy="67" r="3" fill="#5F5F5F" fill-opacity=".1"/><circle cx="868.751" cy="67" r="3" fill="#5F5F5F" fill-opacity=".1"/><circle cx="876.751" cy="67" r="3" fill="#5F5F5F" fill-opacity=".1"/><circle cx="836.751" cy="75" r="3" fill="#5F5F5F" fill-opacity=".1"/><circle cx="844.751" cy="75" r="3" fill="#5F5F5F" fill-opacity=".1"/><circle cx="852.751" cy="75" r="3" fill="#5F5F5F" fill-opacity=".1"/><circle cx="860.751" cy="75" r="3" fill="#5F5F5F" fill-opacity=".1"/><circle cx="868.751" cy="75" r="3" fill="#5F5F5F" fill-opacity=".1"/><circle cx="876.751" cy="75" r="3" fill="#5F5F5F" fill-opacity=".1"/><circle cx="836.751" cy="83" r="3" fill="#5F5F5F" fill-opacity=".1"/><circle cx="844.751" cy="83" r="3" fill="#5F5F5F" fill-opacity=".1"/><circle cx="852.751" cy="83" r="3" fill="#5F5F5F" fill-opacity=".1"/><circle cx="860.751" cy="83" r="3" fill="#5F5F5F" fill-opacity=".1"/><circle cx="868.751" cy="83" r="3" fill="#5F5F5F" fill-opacity=".1"/><circle cx="876.751" cy="83" r="3" fill="#5F5F5F" fill-opacity=".1"/><circle cx="836.751" cy="91" r="3" fill="#5F5F5F" fill-opacity=".1"/><circle cx="844.751" cy="91" r="3" fill="#5F5F5F" fill-opacity=".1"/><circle cx="852.751" cy="91" r="3" fill="#5F5F5F" fill-opacity=".1"/><circle cx="860.751" cy="91" r="3" fill="#5F5F5F" fill-opacity=".1"/><circle cx="868.751" cy="91" r="3" fill="#5F5F5F" fill-opacity=".1"/><circle cx="876.751" cy="91" r="3" fill="#5F5F5F" fill-opacity=".1"/><circle cx="836.751" cy="99" r="3" fill="#5F5F5F" fill-opacity=".1"/><circle cx="844.751" cy="99" r="3" fill="#5F5F5F" fill-opacity=".1"/><circle cx="852.751" cy="99" r="3" fill="#5F5F5F" fill-opacity=".1"/><circle cx="860.751" cy="99" r="3" fill="#5F5F5F" fill-opacity=".1"/><circle cx="868.751" cy="99" r="3" fill="#5F5F5F" fill-opacity=".1"/><circle cx="876.751" cy="99" r="3" fill="#5F5F5F" fill-opacity=".1"/><circle cx="836.751" cy="107" r="3" fill="#5F5F5F" fill-opacity=".1"/><circle cx="844.751" cy="107" r="3" fill="#5F5F5F" fill-opacity=".1"/><circle cx="852.751" cy="107" r="3" fill="#5F5F5F" fill-opacity=".1"/><circle cx="860.751" cy="107" r="3" fill="#5F5F5F" fill-opacity=".1"/><circle cx="868.751" cy="107" r="3" fill="#5F5F5F" fill-opacity=".1"/><circle cx="876.751" cy="107" r="3" fill="#5F5F5F" fill-opacity=".1"/><circle cx="836.751" cy="115" r="3" fill="#5F5F5F" fill-opacity=".1"/><circle cx="844.751" cy="115" r="3" fill="#5F5F5F" fill-opacity=".1"/><circle cx="852.751" cy="115" r="3" fill="#5F5F5F" fill-opacity=".1"/><circle cx="860.751" cy="115" r="3" fill="#5F5F5F" fill-opacity=".1"/><circle cx="868.751" cy="115" r="3" fill="#5F5F5F" fill-opacity=".1"/><circle cx="876.751" cy="115" r="3" fill="#5F5F5F" fill-opacity=".1"/><circle cx="836.751" cy="123" r="3" fill="#5F5F5F" fill-opacity=".1"/><circle cx="844.751" cy="123" r="3" fill="#5F5F5F" fill-opacity=".1"/><circle cx="852.751" cy="123" r="3" fill="#5F5F5F" fill-opacity=".1"/><circle cx="860.751" cy="123" r="3" fill="#5F5F5F" fill-opacity=".1"/><circle cx="868.751" cy="123" r="3" fill="#5F5F5F" fill-opacity=".1"/><circle cx="876.751" cy="123" r="3" fill="#5F5F5F" fill-opacity=".1"/><circle cx="884.751" cy="43" r="3" fill="#5F5F5F" fill-opacity=".1"/><circle cx="892.751" cy="43" r="3" fill="#5F5F5F" fill-opacity=".1"/><circle cx="900.751" cy="43" r="3" fill="#5F5F5F" fill-opacity=".1"/><circle cx="908.751" cy="43" r="3" fill="#5F5F5F" fill-opacity=".1"/><circle cx="916.751" cy="43" r="3" fill="#5F5F5F" fill-opacity=".1"/><circle cx="924.751" cy="43" r="3" fill="#5F5F5F" fill-opacity=".1"/><circle cx="884.751" cy="51" r="3" fill="#5F5F5F" fill-opacity=".1"/><circle cx="892.751" cy="51" r="3" fill="#5F5F5F" fill-opacity=".1"/><circle cx="900.751" cy="51" r="3" fill="#5F5F5F" fill-opacity=".1"/><circle cx="908.751" cy="51" r="3" fill="#5F5F5F" fill-opacity=".1"/><circle cx="916.751" cy="51" r="3" fill="#5F5F5F" fill-opacity=".1"/><circle cx="924.751" cy="51" r="3" fill="#5F5F5F" fill-opacity=".1"/><circle cx="884.751" cy="59" r="3" fill="#5F5F5F" fill-opacity=".1"/><circle cx="892.751" cy="59" r="3" fill="#5F5F5F" fill-opacity=".1"/><circle cx="900.751" cy="59" r="3" fill="#5F5F5F" fill-opacity=".1"/><circle cx="908.751" cy="59" r="3" fill="#5F5F5F" fill-opacity=".1"/><circle cx="916.751" cy="59" r="3" fill="#5F5F5F" fill-opacity=".1"/><circle cx="924.751" cy="59" r="3" fill="#5F5F5F" fill-opacity=".1"/><circle cx="884.751" cy="67" r="3" fill="#5F5F5F" fill-opacity=".1"/><circle cx="892.751" cy="67" r="3" fill="#5F5F5F" fill-opacity=".1"/><circle cx="900.751" cy="67" r="3" fill="#5F5F5F" fill-opacity=".1"/><circle cx="908.751" cy="67" r="3" fill="#5F5F5F" fill-opacity=".1"/><circle cx="916.751" cy="67" r="3" fill="#5F5F5F" fill-opacity=".1"/><circle cx="924.751" cy="67" r="3" fill="#5F5F5F" fill-opacity=".1"/><circle cx="884.751" cy="75" r="3" fill="#5F5F5F" fill-opacity=".1"/><circle cx="892.751" cy="75" r="3" fill="#5F5F5F" fill-opacity=".1"/><circle cx="900.751" cy="75" r="3" fill="#5F5F5F" fill-opacity=".1"/><circle cx="908.751" cy="75" r="3" fill="#5F5F5F" fill-opacity=".1"/><circle cx="916.751" cy="75" r="3" fill="#5F5F5F" fill-opacity=".1"/><circle cx="924.751" cy="75" r="3" fill="#5F5F5F" fill-opacity=".1"/><circle cx="884.751" cy="83" r="3" fill="#5F5F5F" fill-opacity=".1"/><circle cx="892.751" cy="83" r="3" fill="#5F5F5F" fill-opacity=".1"/><circle cx="900.751" cy="83" r="3" fill="#5F5F5F" fill-opacity=".1"/><circle cx="908.751" cy="83" r="3" fill="#5F5F5F" fill-opacity=".1"/><circle cx="916.751" cy="83" r="3" fill="#5F5F5F" fill-opacity=".1"/><circle cx="924.751" cy="83" r="3" fill="#5F5F5F" fill-opacity=".1"/><circle cx="884.751" cy="91" r="3" fill="#5F5F5F" fill-opacity=".1"/><circle cx="892.751" cy="91" r="3" fill="#5F5F5F" fill-opacity=".1"/><circle cx="900.751" cy="91" r="3" fill="#5F5F5F" fill-opacity=".1"/><circle cx="908.751" cy="91" r="3" fill="#5F5F5F" fill-opacity=".1"/><circle cx="916.751" cy="91" r="3" fill="#5F5F5F" fill-opacity=".1"/><circle cx="924.751" cy="91" r="3" fill="#5F5F5F" fill-opacity=".1"/><circle cx="884.751" cy="99" r="3" fill="#5F5F5F" fill-opacity=".1"/><circle cx="892.751" cy="99" r="3" fill="#5F5F5F" fill-opacity=".1"/><circle cx="900.751" cy="99" r="3" fill="#5F5F5F" fill-opacity=".1"/><circle cx="908.751" cy="99" r="3" fill="#5F5F5F" fill-opacity=".1"/><circle cx="916.751" cy="99" r="3" fill="#5F5F5F" fill-opacity=".1"/><circle cx="924.751" cy="99" r="3" fill="#5F5F5F" fill-opacity=".1"/><circle cx="836.751" cy="3" r="3" fill="#5F5F5F" fill-opacity=".1"/><circle cx="844.751" cy="3" r="3" fill="#5F5F5F" fill-opacity=".1"/><circle cx="852.751" cy="3" r="3" fill="#5F5F5F" fill-opacity=".1"/><circle cx="860.751" cy="3" r="3" fill="#5F5F5F" fill-opacity=".1"/><circle cx="868.751" cy="3" r="3" fill="#5F5F5F" fill-opacity=".1"/><circle cx="876.751" cy="3" r="3" fill="#5F5F5F" fill-opacity=".1"/><circle cx="836.751" cy="11" r="3" fill="#5F5F5F" fill-opacity=".1"/><circle cx="844.751" cy="11" r="3" fill="#5F5F5F" fill-opacity=".1"/><circle cx="852.751" cy="11" r="3" fill="#5F5F5F" fill-opacity=".1"/><circle cx="860.751" cy="11" r="3" fill="#5F5F5F" fill-opacity=".1"/><circle cx="868.751" cy="11" r="3" fill="#5F5F5F" fill-opacity=".1"/><circle cx="876.751" cy="11" r="3" fill="#5F5F5F" fill-opacity=".1"/><circle cx="836.751" cy="19" r="3" fill="#5F5F5F" fill-opacity=".1"/><circle cx="844.751" cy="19" r="3" fill="#5F5F5F" fill-opacity=".1"/><circle cx="852.751" cy="19" r="3" fill="#5F5F5F" fill-opacity=".1"/><circle cx="860.751" cy="19" r="3" fill="#5F5F5F" fill-opacity=".1"/><circle cx="868.751" cy="19" r="3" fill="#5F5F5F" fill-opacity=".1"/><circle cx="876.751" cy="19" r="3" fill="#5F5F5F" fill-opacity=".1"/><circle cx="836.751" cy="27" r="3" fill="#5F5F5F" fill-opacity=".1"/><circle cx="844.751" cy="27" r="3" fill="#5F5F5F" fill-opacity=".1"/><circle cx="852.751" cy="27" r="3" fill="#5F5F5F" fill-opacity=".1"/><circle cx="860.751" cy="27" r="3" fill="#5F5F5F" fill-opacity=".1"/><circle cx="868.751" cy="27" r="3" fill="#5F5F5F" fill-opacity=".1"/><circle cx="876.751" cy="27" r="3" fill="#5F5F5F" fill-opacity=".1"/><circle cx="836.751" cy="35" r="3" fill="#5F5F5F" fill-opacity=".1"/><circle cx="844.751" cy="35" r="3" fill="#5F5F5F" fill-opacity=".1"/><circle cx="852.751" cy="35" r="3" fill="#5F5F5F" fill-opacity=".1"/><circle cx="860.751" cy="35" r="3" fill="#5F5F5F" fill-opacity=".1"/><circle cx="868.751" cy="35" r="3" fill="#5F5F5F" fill-opacity=".1"/><circle cx="876.751" cy="35" r="3" fill="#5F5F5F" fill-opacity=".1"/><circle cx="836.751" cy="43" r="3" fill="#5F5F5F" fill-opacity=".1"/><circle cx="844.751" cy="43" r="3" fill="#5F5F5F" fill-opacity=".1"/><circle cx="852.751" cy="43" r="3" fill="#5F5F5F" fill-opacity=".1"/><circle cx="860.751" cy="43" r="3" fill="#5F5F5F" fill-opacity=".1"/><circle cx="868.751" cy="43" r="3" fill="#5F5F5F" fill-opacity=".1"/><circle cx="876.751" cy="43" r="3" fill="#5F5F5F" fill-opacity=".1"/><circle cx="836.751" cy="51" r="3" fill="#5F5F5F" fill-opacity=".1"/><circle cx="844.751" cy="51" r="3" fill="#5F5F5F" fill-opacity=".1"/><circle cx="852.751" cy="51" r="3" fill="#5F5F5F" fill-opacity=".1"/><circle cx="860.751" cy="51" r="3" fill="#5F5F5F" fill-opacity=".1"/><circle cx="868.751" cy="51" r="3" fill="#5F5F5F" fill-opacity=".1"/><circle cx="876.751" cy="51" r="3" fill="#5F5F5F" fill-opacity=".1"/><circle cx="836.751" cy="59" r="3" fill="#5F5F5F" fill-opacity=".1"/><circle cx="844.751" cy="59" r="3" fill="#5F5F5F" fill-opacity=".1"/><circle cx="852.751" cy="59" r="3" fill="#5F5F5F" fill-opacity=".1"/><circle cx="860.751" cy="59" r="3" fill="#5F5F5F" fill-opacity=".1"/><circle cx="868.751" cy="59" r="3" fill="#5F5F5F" fill-opacity=".1"/><circle cx="876.751" cy="59" r="3" fill="#5F5F5F" fill-opacity=".1"/><circle cx="932.751" cy="43" r="3" fill="#5F5F5F" fill-opacity=".1"/><circle cx="940.751" cy="43" r="3" fill="#5F5F5F" fill-opacity=".1"/><circle cx="948.751" cy="43" r="3" fill="#5F5F5F" fill-opacity=".1"/><circle cx="956.751" cy="43" r="3" fill="#5F5F5F" fill-opacity=".1"/><circle cx="964.751" cy="43" r="3" fill="#5F5F5F" fill-opacity=".1"/><circle cx="972.751" cy="43" r="3" fill="#5F5F5F" fill-opacity=".1"/><circle cx="932.751" cy="51" r="3" fill="#5F5F5F" fill-opacity=".1"/><circle cx="940.751" cy="51" r="3" fill="#5F5F5F" fill-opacity=".1"/><circle cx="948.751" cy="51" r="3" fill="#5F5F5F" fill-opacity=".1"/><circle cx="956.751" cy="51" r="3" fill="#5F5F5F" fill-opacity=".1"/><circle cx="964.751" cy="51" r="3" fill="#5F5F5F" fill-opacity=".1"/><circle cx="972.751" cy="51" r="3" fill="#5F5F5F" fill-opacity=".1"/><circle cx="932.751" cy="59" r="3" fill="#5F5F5F" fill-opacity=".1"/><circle cx="940.751" cy="59" r="3" fill="#5F5F5F" fill-opacity=".1"/><circle cx="948.751" cy="59" r="3" fill="#5F5F5F" fill-opacity=".1"/><circle cx="956.751" cy="59" r="3" fill="#5F5F5F" fill-opacity=".1"/><circle cx="964.751" cy="59" r="3" fill="#5F5F5F" fill-opacity=".1"/><circle cx="972.751" cy="59" r="3" fill="#5F5F5F" fill-opacity=".1"/><circle cx="932.751" cy="67" r="3" fill="#5F5F5F" fill-opacity=".1"/><circle cx="940.751" cy="67" r="3" fill="#5F5F5F" fill-opacity=".1"/><circle cx="948.751" cy="67" r="3" fill="#5F5F5F" fill-opacity=".1"/><circle cx="956.751" cy="67" r="3" fill="#5F5F5F" fill-opacity=".1"/><circle cx="964.751" cy="67" r="3" fill="#5F5F5F" fill-opacity=".1"/><circle cx="972.751" cy="67" r="3" fill="#5F5F5F" fill-opacity=".1"/><circle cx="932.751" cy="75" r="3" fill="#5F5F5F" fill-opacity=".1"/><circle cx="940.751" cy="75" r="3" fill="#5F5F5F" fill-opacity=".1"/><circle cx="948.751" cy="75" r="3" fill="#5F5F5F" fill-opacity=".1"/><circle cx="956.751" cy="75" r="3" fill="#5F5F5F" fill-opacity=".1"/><circle cx="964.751" cy="75" r="3" fill="#5F5F5F" fill-opacity=".1"/><circle cx="972.751" cy="75" r="3" fill="#5F5F5F" fill-opacity=".1"/><circle cx="932.751" cy="83" r="3" fill="#5F5F5F" fill-opacity=".1"/><circle cx="940.751" cy="83" r="3" fill="#5F5F5F" fill-opacity=".1"/><circle cx="948.751" cy="83" r="3" fill="#5F5F5F" fill-opacity=".1"/><circle cx="956.751" cy="83" r="3" fill="#5F5F5F" fill-opacity=".1"/><circle cx="964.751" cy="83" r="3" fill="#5F5F5F" fill-opacity=".1"/><circle cx="972.751" cy="83" r="3" fill="#5F5F5F" fill-opacity=".1"/><circle cx="932.751" cy="91" r="3" fill="#5F5F5F" fill-opacity=".1"/><circle cx="940.751" cy="91" r="3" fill="#5F5F5F" fill-opacity=".1"/><circle cx="948.751" cy="91" r="3" fill="#5F5F5F" fill-opacity=".1"/><circle cx="956.751" cy="91" r="3" fill="#5F5F5F" fill-opacity=".1"/><circle cx="964.751" cy="91" r="3" fill="#5F5F5F" fill-opacity=".1"/><circle cx="972.751" cy="91" r="3" fill="#5F5F5F" fill-opacity=".1"/><circle cx="932.751" cy="99" r="3" fill="#5F5F5F" fill-opacity=".1"/><circle cx="940.751" cy="99" r="3" fill="#5F5F5F" fill-opacity=".1"/><circle cx="948.751" cy="99" r="3" fill="#5F5F5F" fill-opacity=".1"/><circle cx="956.751" cy="99" r="3" fill="#5F5F5F" fill-opacity=".1"/><circle cx="964.751" cy="99" r="3" fill="#5F5F5F" fill-opacity=".1"/><circle cx="972.751" cy="99" r="3" fill="#5F5F5F" fill-opacity=".1"/><ellipse cx="3.751" cy="293.16" rx="3" ry="3.06" fill="#5F5F5F" fill-opacity=".1"/><ellipse cx="11.751" cy="293.16" rx="3" ry="3.06" fill="#5F5F5F" fill-opacity=".1"/><ellipse cx="19.751" cy="293.16" rx="3" ry="3.06" fill="#5F5F5F" fill-opacity=".1"/><ellipse cx="27.751" cy="293.16" rx="3" ry="3.06" fill="#5F5F5F" fill-opacity=".1"/><ellipse cx="35.751" cy="293.16" rx="3" ry="3.06" fill="#5F5F5F" fill-opacity=".1"/><ellipse cx="43.751" cy="293.16" rx="3" ry="3.06" fill="#5F5F5F" fill-opacity=".1"/><ellipse cx="3.751" cy="301.318" rx="3" ry="3.06" fill="#5F5F5F" fill-opacity=".1"/><ellipse cx="11.751" cy="301.318" rx="3" ry="3.06" fill="#5F5F5F" fill-opacity=".1"/><ellipse cx="19.751" cy="301.318" rx="3" ry="3.06" fill="#5F5F5F" fill-opacity=".1"/><ellipse cx="27.751" cy="301.318" rx="3" ry="3.06" fill="#5F5F5F" fill-opacity=".1"/><ellipse cx="35.751" cy="301.318" rx="3" ry="3.06" fill="#5F5F5F" fill-opacity=".1"/><ellipse cx="43.751" cy="301.318" rx="3" ry="3.06" fill="#5F5F5F" fill-opacity=".1"/><ellipse cx="3.751" cy="309.472" rx="3" ry="3.06" fill="#5F5F5F" fill-opacity=".1"/><ellipse cx="11.751" cy="309.472" rx="3" ry="3.06" fill="#5F5F5F" fill-opacity=".1"/><ellipse cx="19.751" cy="309.472" rx="3" ry="3.06" fill="#5F5F5F" fill-opacity=".1"/><ellipse cx="27.751" cy="309.472" rx="3" ry="3.06" fill="#5F5F5F" fill-opacity=".1"/><ellipse cx="35.751" cy="309.472" rx="3" ry="3.06" fill="#5F5F5F" fill-opacity=".1"/><ellipse cx="43.751" cy="309.472" rx="3" ry="3.06" fill="#5F5F5F" fill-opacity=".1"/><ellipse cx="3.751" cy="317.628" rx="3" ry="3.06" fill="#5F5F5F" fill-opacity=".1"/><ellipse cx="11.751" cy="317.628" rx="3" ry="3.06" fill="#5F5F5F" fill-opacity=".1"/><ellipse cx="19.751" cy="317.628" rx="3" ry="3.06" fill="#5F5F5F" fill-opacity=".1"/><ellipse cx="27.751" cy="317.628" rx="3" ry="3.06" fill="#5F5F5F" fill-opacity=".1"/><ellipse cx="35.751" cy="317.628" rx="3" ry="3.06" fill="#5F5F5F" fill-opacity=".1"/><ellipse cx="43.751" cy="317.628" rx="3" ry="3.06" fill="#5F5F5F" fill-opacity=".1"/><ellipse cx="3.751" cy="325.784" rx="3" ry="3.06" fill="#5F5F5F" fill-opacity=".1"/><ellipse cx="11.751" cy="325.784" rx="3" ry="3.06" fill="#5F5F5F" fill-opacity=".1"/><ellipse cx="19.751" cy="325.784" rx="3" ry="3.06" fill="#5F5F5F" fill-opacity=".1"/><ellipse cx="27.751" cy="325.784" rx="3" ry="3.06" fill="#5F5F5F" fill-opacity=".1"/><ellipse cx="35.751" cy="325.784" rx="3" ry="3.06" fill="#5F5F5F" fill-opacity=".1"/><ellipse cx="43.751" cy="325.784" rx="3" ry="3.06" fill="#5F5F5F" fill-opacity=".1"/><ellipse cx="3.751" cy="333.94" rx="3" ry="3.06" fill="#5F5F5F" fill-opacity=".1"/><ellipse cx="11.751" cy="333.94" rx="3" ry="3.06" fill="#5F5F5F" fill-opacity=".1"/><ellipse cx="19.751" cy="333.94" rx="3" ry="3.06" fill="#5F5F5F" fill-opacity=".1"/><ellipse cx="27.751" cy="333.94" rx="3" ry="3.06" fill="#5F5F5F" fill-opacity=".1"/><ellipse cx="35.751" cy="333.94" rx="3" ry="3.06" fill="#5F5F5F" fill-opacity=".1"/><ellipse cx="43.751" cy="333.94" rx="3" ry="3.06" fill="#5F5F5F" fill-opacity=".1"/><ellipse cx="3.751" cy="342.096" rx="3" ry="3.06" fill="#5F5F5F" fill-opacity=".1"/><ellipse cx="11.751" cy="342.096" rx="3" ry="3.06" fill="#5F5F5F" fill-opacity=".1"/><ellipse cx="19.751" cy="342.096" rx="3" ry="3.06" fill="#5F5F5F" fill-opacity=".1"/><ellipse cx="27.751" cy="342.096" rx="3" ry="3.06" fill="#5F5F5F" fill-opacity=".1"/><ellipse cx="35.751" cy="342.096" rx="3" ry="3.06" fill="#5F5F5F" fill-opacity=".1"/><ellipse cx="43.751" cy="342.096" rx="3" ry="3.06" fill="#5F5F5F" fill-opacity=".1"/><ellipse cx="3.751" cy="350.252" rx="3" ry="3.06" fill="#5F5F5F" fill-opacity=".1"/><ellipse cx="11.751" cy="350.252" rx="3" ry="3.06" fill="#5F5F5F" fill-opacity=".1"/><ellipse cx="19.751" cy="350.252" rx="3" ry="3.06" fill="#5F5F5F" fill-opacity=".1"/><ellipse cx="27.751" cy="350.252" rx="3" ry="3.06" fill="#5F5F5F" fill-opacity=".1"/><ellipse cx="35.751" cy="350.252" rx="3" ry="3.06" fill="#5F5F5F" fill-opacity=".1"/><ellipse cx="43.751" cy="350.252" rx="3" ry="3.06" fill="#5F5F5F" fill-opacity=".1"/><ellipse cx="51.751" cy="268.692" rx="3" ry="3.06" fill="#5F5F5F" fill-opacity=".1"/><ellipse cx="59.751" cy="268.692" rx="3" ry="3.06" fill="#5F5F5F" fill-opacity=".1"/><ellipse cx="67.751" cy="268.692" rx="3" ry="3.06" fill="#5F5F5F" fill-opacity=".1"/><ellipse cx="75.751" cy="268.692" rx="3" ry="3.06" fill="#5F5F5F" fill-opacity=".1"/><ellipse cx="83.751" cy="268.692" rx="3" ry="3.06" fill="#5F5F5F" fill-opacity=".1"/><ellipse cx="91.751" cy="268.692" rx="3" ry="3.06" fill="#5F5F5F" fill-opacity=".1"/><ellipse cx="51.751" cy="276.851" rx="3" ry="3.06" fill="#5F5F5F" fill-opacity=".1"/><ellipse cx="59.751" cy="276.851" rx="3" ry="3.06" fill="#5F5F5F" fill-opacity=".1"/><ellipse cx="67.751" cy="276.851" rx="3" ry="3.06" fill="#5F5F5F" fill-opacity=".1"/><ellipse cx="75.751" cy="276.851" rx="3" ry="3.06" fill="#5F5F5F" fill-opacity=".1"/><ellipse cx="83.751" cy="276.851" rx="3" ry="3.06" fill="#5F5F5F" fill-opacity=".1"/><ellipse cx="91.751" cy="276.851" rx="3" ry="3.06" fill="#5F5F5F" fill-opacity=".1"/><ellipse cx="51.751" cy="285.004" rx="3" ry="3.06" fill="#5F5F5F" fill-opacity=".1"/><ellipse cx="59.751" cy="285.004" rx="3" ry="3.06" fill="#5F5F5F" fill-opacity=".1"/><ellipse cx="67.751" cy="285.004" rx="3" ry="3.06" fill="#5F5F5F" fill-opacity=".1"/><ellipse cx="75.751" cy="285.004" rx="3" ry="3.06" fill="#5F5F5F" fill-opacity=".1"/><ellipse cx="83.751" cy="285.004" rx="3" ry="3.06" fill="#5F5F5F" fill-opacity=".1"/><ellipse cx="91.751" cy="285.004" rx="3" ry="3.06" fill="#5F5F5F" fill-opacity=".1"/><ellipse cx="51.751" cy="293.16" rx="3" ry="3.06" fill="#5F5F5F" fill-opacity=".1"/><ellipse cx="59.751" cy="293.16" rx="3" ry="3.06" fill="#5F5F5F" fill-opacity=".1"/><ellipse cx="67.751" cy="293.16" rx="3" ry="3.06" fill="#5F5F5F" fill-opacity=".1"/><ellipse cx="75.751" cy="293.16" rx="3" ry="3.06" fill="#5F5F5F" fill-opacity=".1"/><ellipse cx="83.751" cy="293.16" rx="3" ry="3.06" fill="#5F5F5F" fill-opacity=".1"/><ellipse cx="91.751" cy="293.16" rx="3" ry="3.06" fill="#5F5F5F" fill-opacity=".1"/><ellipse cx="51.751" cy="301.316" rx="3" ry="3.06" fill="#5F5F5F" fill-opacity=".1"/><ellipse cx="59.751" cy="301.316" rx="3" ry="3.06" fill="#5F5F5F" fill-opacity=".1"/><ellipse cx="67.751" cy="301.316" rx="3" ry="3.06" fill="#5F5F5F" fill-opacity=".1"/><ellipse cx="75.751" cy="301.316" rx="3" ry="3.06" fill="#5F5F5F" fill-opacity=".1"/><ellipse cx="83.751" cy="301.316" rx="3" ry="3.06" fill="#5F5F5F" fill-opacity=".1"/><ellipse cx="91.751" cy="301.316" rx="3" ry="3.06" fill="#5F5F5F" fill-opacity=".1"/><ellipse cx="51.751" cy="309.472" rx="3" ry="3.06" fill="#5F5F5F" fill-opacity=".1"/><ellipse cx="59.751" cy="309.472" rx="3" ry="3.06" fill="#5F5F5F" fill-opacity=".1"/><ellipse cx="67.751" cy="309.472" rx="3" ry="3.06" fill="#5F5F5F" fill-opacity=".1"/><ellipse cx="75.751" cy="309.472" rx="3" ry="3.06" fill="#5F5F5F" fill-opacity=".1"/><ellipse cx="83.751" cy="309.472" rx="3" ry="3.06" fill="#5F5F5F" fill-opacity=".1"/><ellipse cx="91.751" cy="309.472" rx="3" ry="3.06" fill="#5F5F5F" fill-opacity=".1"/><ellipse cx="51.751" cy="317.628" rx="3" ry="3.06" fill="#5F5F5F" fill-opacity=".1"/><ellipse cx="59.751" cy="317.628" rx="3" ry="3.06" fill="#5F5F5F" fill-opacity=".1"/><ellipse cx="67.751" cy="317.628" rx="3" ry="3.06" fill="#5F5F5F" fill-opacity=".1"/><ellipse cx="75.751" cy="317.628" rx="3" ry="3.06" fill="#5F5F5F" fill-opacity=".1"/><ellipse cx="83.751" cy="317.628" rx="3" ry="3.06" fill="#5F5F5F" fill-opacity=".1"/><ellipse cx="91.751" cy="317.628" rx="3" ry="3.06" fill="#5F5F5F" fill-opacity=".1"/><ellipse cx="51.751" cy="325.784" rx="3" ry="3.06" fill="#5F5F5F" fill-opacity=".1"/><ellipse cx="59.751" cy="325.784" rx="3" ry="3.06" fill="#5F5F5F" fill-opacity=".1"/><ellipse cx="67.751" cy="325.784" rx="3" ry="3.06" fill="#5F5F5F" fill-opacity=".1"/><ellipse cx="75.751" cy="325.784" rx="3" ry="3.06" fill="#5F5F5F" fill-opacity=".1"/><ellipse cx="83.751" cy="325.784" rx="3" ry="3.06" fill="#5F5F5F" fill-opacity=".1"/><ellipse cx="91.751" cy="325.784" rx="3" ry="3.06" fill="#5F5F5F" fill-opacity=".1"/><ellipse cx="3.751" cy="227.912" rx="3" ry="3.06" fill="#5F5F5F" fill-opacity=".1"/><ellipse cx="11.751" cy="227.912" rx="3" ry="3.06" fill="#5F5F5F" fill-opacity=".1"/><ellipse cx="19.751" cy="227.912" rx="3" ry="3.06" fill="#5F5F5F" fill-opacity=".1"/><ellipse cx="27.751" cy="227.912" rx="3" ry="3.06" fill="#5F5F5F" fill-opacity=".1"/><ellipse cx="35.751" cy="227.912" rx="3" ry="3.06" fill="#5F5F5F" fill-opacity=".1"/><ellipse cx="43.751" cy="227.912" rx="3" ry="3.06" fill="#5F5F5F" fill-opacity=".1"/><ellipse cx="3.751" cy="236.071" rx="3" ry="3.06" fill="#5F5F5F" fill-opacity=".1"/><ellipse cx="11.751" cy="236.071" rx="3" ry="3.06" fill="#5F5F5F" fill-opacity=".1"/><ellipse cx="19.751" cy="236.071" rx="3" ry="3.06" fill="#5F5F5F" fill-opacity=".1"/><ellipse cx="27.751" cy="236.071" rx="3" ry="3.06" fill="#5F5F5F" fill-opacity=".1"/><ellipse cx="35.751" cy="236.071" rx="3" ry="3.06" fill="#5F5F5F" fill-opacity=".1"/><ellipse cx="43.751" cy="236.071" rx="3" ry="3.06" fill="#5F5F5F" fill-opacity=".1"/><ellipse cx="3.751" cy="244.224" rx="3" ry="3.06" fill="#5F5F5F" fill-opacity=".1"/><ellipse cx="11.751" cy="244.224" rx="3" ry="3.06" fill="#5F5F5F" fill-opacity=".1"/><ellipse cx="19.751" cy="244.224" rx="3" ry="3.06" fill="#5F5F5F" fill-opacity=".1"/><ellipse cx="27.751" cy="244.224" rx="3" ry="3.06" fill="#5F5F5F" fill-opacity=".1"/><ellipse cx="35.751" cy="244.224" rx="3" ry="3.06" fill="#5F5F5F" fill-opacity=".1"/><ellipse cx="43.751" cy="244.224" rx="3" ry="3.06" fill="#5F5F5F" fill-opacity=".1"/><ellipse cx="3.751" cy="252.38" rx="3" ry="3.06" fill="#5F5F5F" fill-opacity=".1"/><ellipse cx="11.751" cy="252.38" rx="3" ry="3.06" fill="#5F5F5F" fill-opacity=".1"/><ellipse cx="19.751" cy="252.38" rx="3" ry="3.06" fill="#5F5F5F" fill-opacity=".1"/><ellipse cx="27.751" cy="252.38" rx="3" ry="3.06" fill="#5F5F5F" fill-opacity=".1"/><ellipse cx="35.751" cy="252.38" rx="3" ry="3.06" fill="#5F5F5F" fill-opacity=".1"/><ellipse cx="43.751" cy="252.38" rx="3" ry="3.06" fill="#5F5F5F" fill-opacity=".1"/><ellipse cx="3.751" cy="260.536" rx="3" ry="3.06" fill="#5F5F5F" fill-opacity=".1"/><ellipse cx="11.751" cy="260.536" rx="3" ry="3.06" fill="#5F5F5F" fill-opacity=".1"/><ellipse cx="19.751" cy="260.536" rx="3" ry="3.06" fill="#5F5F5F" fill-opacity=".1"/><ellipse cx="27.751" cy="260.536" rx="3" ry="3.06" fill="#5F5F5F" fill-opacity=".1"/><ellipse cx="35.751" cy="260.536" rx="3" ry="3.06" fill="#5F5F5F" fill-opacity=".1"/><ellipse cx="43.751" cy="260.536" rx="3" ry="3.06" fill="#5F5F5F" fill-opacity=".1"/><ellipse cx="3.751" cy="268.692" rx="3" ry="3.06" fill="#5F5F5F" fill-opacity=".1"/><ellipse cx="11.751" cy="268.692" rx="3" ry="3.06" fill="#5F5F5F" fill-opacity=".1"/><ellipse cx="19.751" cy="268.692" rx="3" ry="3.06" fill="#5F5F5F" fill-opacity=".1"/><ellipse cx="27.751" cy="268.692" rx="3" ry="3.06" fill="#5F5F5F" fill-opacity=".1"/><ellipse cx="35.751" cy="268.692" rx="3" ry="3.06" fill="#5F5F5F" fill-opacity=".1"/><ellipse cx="43.751" cy="268.692" rx="3" ry="3.06" fill="#5F5F5F" fill-opacity=".1"/><ellipse cx="3.751" cy="276.848" rx="3" ry="3.06" fill="#5F5F5F" fill-opacity=".1"/><ellipse cx="11.751" cy="276.848" rx="3" ry="3.06" fill="#5F5F5F" fill-opacity=".1"/><ellipse cx="19.751" cy="276.848" rx="3" ry="3.06" fill="#5F5F5F" fill-opacity=".1"/><ellipse cx="27.751" cy="276.848" rx="3" ry="3.06" fill="#5F5F5F" fill-opacity=".1"/><ellipse cx="35.751" cy="276.848" rx="3" ry="3.06" fill="#5F5F5F" fill-opacity=".1"/><ellipse cx="43.751" cy="276.848" rx="3" ry="3.06" fill="#5F5F5F" fill-opacity=".1"/><ellipse cx="3.751" cy="285.004" rx="3" ry="3.06" fill="#5F5F5F" fill-opacity=".1"/><ellipse cx="11.751" cy="285.004" rx="3" ry="3.06" fill="#5F5F5F" fill-opacity=".1"/><ellipse cx="19.751" cy="285.004" rx="3" ry="3.06" fill="#5F5F5F" fill-opacity=".1"/><ellipse cx="27.751" cy="285.004" rx="3" ry="3.06" fill="#5F5F5F" fill-opacity=".1"/><ellipse cx="35.751" cy="285.004" rx="3" ry="3.06" fill="#5F5F5F" fill-opacity=".1"/><ellipse cx="43.751" cy="285.004" rx="3" ry="3.06" fill="#5F5F5F" fill-opacity=".1"/><ellipse cx="51.751" cy="333.94" rx="3" ry="3.06" fill="#5F5F5F" fill-opacity=".1"/><ellipse cx="59.751" cy="333.94" rx="3" ry="3.06" fill="#5F5F5F" fill-opacity=".1"/><ellipse cx="67.751" cy="333.94" rx="3" ry="3.06" fill="#5F5F5F" fill-opacity=".1"/><ellipse cx="75.751" cy="333.94" rx="3" ry="3.06" fill="#5F5F5F" fill-opacity=".1"/><ellipse cx="83.751" cy="333.94" rx="3" ry="3.06" fill="#5F5F5F" fill-opacity=".1"/><ellipse cx="91.751" cy="333.94" rx="3" ry="3.06" fill="#5F5F5F" fill-opacity=".1"/><ellipse cx="51.751" cy="342.1" rx="3" ry="3.06" fill="#5F5F5F" fill-opacity=".1"/><ellipse cx="59.751" cy="342.1" rx="3" ry="3.06" fill="#5F5F5F" fill-opacity=".1"/><ellipse cx="67.751" cy="342.1" rx="3" ry="3.06" fill="#5F5F5F" fill-opacity=".1"/><ellipse cx="75.751" cy="342.1" rx="3" ry="3.06" fill="#5F5F5F" fill-opacity=".1"/><ellipse cx="83.751" cy="342.1" rx="3" ry="3.06" fill="#5F5F5F" fill-opacity=".1"/><ellipse cx="91.751" cy="342.1" rx="3" ry="3.06" fill="#5F5F5F" fill-opacity=".1"/><ellipse cx="51.751" cy="350.252" rx="3" ry="3.06" fill="#5F5F5F" fill-opacity=".1"/><ellipse cx="59.751" cy="350.252" rx="3" ry="3.06" fill="#5F5F5F" fill-opacity=".1"/><ellipse cx="67.751" cy="350.252" rx="3" ry="3.06" fill="#5F5F5F" fill-opacity=".1"/><ellipse cx="75.751" cy="350.252" rx="3" ry="3.06" fill="#5F5F5F" fill-opacity=".1"/><ellipse cx="83.751" cy="350.252" rx="3" ry="3.06" fill="#5F5F5F" fill-opacity=".1"/><ellipse cx="91.751" cy="350.252" rx="3" ry="3.06" fill="#5F5F5F" fill-opacity=".1"/><ellipse cx="51.751" cy="358.408" rx="3" ry="3.06" fill="#5F5F5F" fill-opacity=".1"/><ellipse cx="59.751" cy="358.408" rx="3" ry="3.06" fill="#5F5F5F" fill-opacity=".1"/><ellipse cx="67.751" cy="358.408" rx="3" ry="3.06" fill="#5F5F5F" fill-opacity=".1"/><ellipse cx="75.751" cy="358.408" rx="3" ry="3.06" fill="#5F5F5F" fill-opacity=".1"/><ellipse cx="83.751" cy="358.408" rx="3" ry="3.06" fill="#5F5F5F" fill-opacity=".1"/><ellipse cx="91.751" cy="358.408" rx="3" ry="3.06" fill="#5F5F5F" fill-opacity=".1"/><ellipse cx="51.751" cy="366.564" rx="3" ry="3.06" fill="#5F5F5F" fill-opacity=".1"/><ellipse cx="59.751" cy="366.564" rx="3" ry="3.06" fill="#5F5F5F" fill-opacity=".1"/><ellipse cx="67.751" cy="366.564" rx="3" ry="3.06" fill="#5F5F5F" fill-opacity=".1"/><ellipse cx="75.751" cy="366.564" rx="3" ry="3.06" fill="#5F5F5F" fill-opacity=".1"/><ellipse cx="83.751" cy="366.564" rx="3" ry="3.06" fill="#5F5F5F" fill-opacity=".1"/><ellipse cx="91.751" cy="366.564" rx="3" ry="3.06" fill="#5F5F5F" fill-opacity=".1"/><ellipse cx="51.751" cy="374.72" rx="3" ry="3.06" fill="#5F5F5F" fill-opacity=".1"/><ellipse cx="59.751" cy="374.72" rx="3" ry="3.06" fill="#5F5F5F" fill-opacity=".1"/><ellipse cx="67.751" cy="374.72" rx="3" ry="3.06" fill="#5F5F5F" fill-opacity=".1"/><ellipse cx="75.751" cy="374.72" rx="3" ry="3.06" fill="#5F5F5F" fill-opacity=".1"/><ellipse cx="83.751" cy="374.72" rx="3" ry="3.06" fill="#5F5F5F" fill-opacity=".1"/><ellipse cx="91.751" cy="374.72" rx="3" ry="3.06" fill="#5F5F5F" fill-opacity=".1"/><ellipse cx="51.751" cy="382.876" rx="3" ry="3.06" fill="#5F5F5F" fill-opacity=".1"/><ellipse cx="59.751" cy="382.876" rx="3" ry="3.06" fill="#5F5F5F" fill-opacity=".1"/><ellipse cx="67.751" cy="382.876" rx="3" ry="3.06" fill="#5F5F5F" fill-opacity=".1"/><ellipse cx="75.751" cy="382.876" rx="3" ry="3.06" fill="#5F5F5F" fill-opacity=".1"/><ellipse cx="83.751" cy="382.876" rx="3" ry="3.06" fill="#5F5F5F" fill-opacity=".1"/><ellipse cx="91.751" cy="382.876" rx="3" ry="3.06" fill="#5F5F5F" fill-opacity=".1"/><ellipse cx="51.751" cy="391.032" rx="3" ry="3.06" fill="#5F5F5F" fill-opacity=".1"/><ellipse cx="59.751" cy="391.032" rx="3" ry="3.06" fill="#5F5F5F" fill-opacity=".1"/><ellipse cx="67.751" cy="391.032" rx="3" ry="3.06" fill="#5F5F5F" fill-opacity=".1"/><ellipse cx="75.751" cy="391.032" rx="3" ry="3.06" fill="#5F5F5F" fill-opacity=".1"/><ellipse cx="83.751" cy="391.032" rx="3" ry="3.06" fill="#5F5F5F" fill-opacity=".1"/><ellipse cx="91.751" cy="391.032" rx="3" ry="3.06" fill="#5F5F5F" fill-opacity=".1"/></svg>