<svg xmlns="http://www.w3.org/2000/svg" width="282" height="253"><path fill="#df2c2c" d="M279.454 74.627c-10.818-70.28-67.574-46.09-137.5-59C84.565 5.03 61.695-19.68 29.504 28.996c-28.221 42.67-36.745 43.602-20.55 92.13 23.122 69.284 60.009 128.805 133 131.5 87.778 3.24 150.863-91.185 137.5-178z" opacity=".18"/><path fill="#df2c2c" d="M200.659 110.082c0 28.845-20.813 42.34-39.769 61.831h23.653c4.64 0 8.438 3.91 8.438 8.689 0 4.778-3.797 8.688-8.438 8.688h-75.937c-4.641 0-8.438-3.91-8.438-8.688 0-4.779 3.797-8.689 8.438-8.689h23.653c-11.194-11.497-22.95-20.852-30.769-32.523-6.131-9.151-9-18.477-9-29.308 0-30.699 24.272-55.692 54.084-55.692 29.813 0 54.085 24.993 54.085 55.692zm-92.053 76.312h36.028c-3.038-4.171-6.272-7.993-9.619-11.585h-26.41c-3.093 0-5.624 2.607-5.624 5.793 0 3.185 2.53 5.792 5.625 5.792zm75.937-11.585h-26.41c-3.318 3.592-6.58 7.414-9.618 11.585h36.028c3.094 0 5.625-2.607 5.625-5.792 0-3.186-2.531-5.793-5.625-5.793zm-37.969 9.413c21.066-28.614 51.272-40.43 51.272-74.14 0-29.106-23.006-52.796-51.272-52.796-28.265 0-51.272 23.69-51.272 52.796 0 33.71 30.235 45.555 51.272 74.14z"/><path fill="#df2c2c" d="M186.912 110.08c0 22.908-18.084 41.53-40.33 41.53-22.248 0-40.332-18.622-40.332-41.53s18.084-41.53 40.331-41.53c22.247 0 40.332 18.622 40.332 41.53zm-2.812 0c0-21.315-16.819-38.634-37.519-38.634s-37.518 17.319-37.518 38.634 16.818 38.634 37.518 38.634 37.519-17.32 37.519-38.634z"/><path fill="#fff" d="M201.137 76.337c-4.64 0-8.437-3.91-8.437-8.689 0-4.778 3.797-8.688 8.438-8.688 4.64 0 8.437 3.91 8.437 8.688 0 4.808-3.797 8.689-8.438 8.689zm5.625-8.689c0-3.185-2.53-5.792-5.625-5.792-3.093 0-5.625 2.607-5.625 5.792 0 3.186 2.532 5.792 5.625 5.792 3.094 0 5.625-2.606 5.625-5.792zM94.264 170.463c-5.428 0-9.844-4.547-9.844-10.137 0-5.59 4.416-10.136 9.844-10.136 5.428 0 9.844 4.547 9.844 10.136 0 5.59-4.416 10.137-9.844 10.137zm7.031-10.137c0-3.996-3.15-7.24-7.031-7.24s-7.031 3.244-7.031 7.24c0 3.997 3.15 7.24 7.03 7.24 3.882 0 7.032-3.243 7.032-7.24zm-.705-93.402c1.164 0 2.109-.972 2.109-2.172 0-1.2-.945-2.172-2.11-2.172s-2.109.972-2.109 2.172c0 1.2.944 2.172 2.11 2.172z"/><path fill="#df2c2c" d="M207.47 87.924c1.164 0 2.109-.972 2.109-2.172 0-1.2-.945-2.172-2.11-2.172s-2.109.972-2.109 2.172c0 1.2.944 2.172 2.11 2.172z"/><path fill="#fff" d="M207.47 141.505c1.164 0 2.109-.972 2.109-2.172 0-1.2-.945-2.173-2.11-2.173s-2.109.973-2.109 2.173c0 1.2.944 2.172 2.11 2.172z"/><path fill="#df2c2c" d="M196.22 166.115c1.164 0 2.109-.973 2.109-2.173 0-1.2-.945-2.172-2.11-2.172s-2.109.973-2.109 2.172c0 1.2.944 2.173 2.11 2.173z"/><path fill="#fff" d="M111.84 164.665c1.164 0 2.109-.973 2.109-2.173 0-1.2-.945-2.172-2.11-2.172s-2.109.973-2.109 2.172c0 1.2.944 2.173 2.11 2.173z"/><path fill="#df2c2c" d="M86.53 124.125c1.164 0 2.109-.973 2.109-2.173 0-1.2-.945-2.172-2.11-2.172s-2.109.973-2.109 2.172c0 1.2.944 2.173 2.11 2.173z"/></svg>