<svg xmlns="http://www.w3.org/2000/svg" width="295" height="231"><path fill="#df2c2c" d="M.066 145.172c-2.214-66.836 51.96-89.034 101-134.5 39.987-37.073 53.531 34.547 108 32 87.894-4.11 101.356 11.097 70.5 93.5-26.829 71.647-74.162 98.549-150.5 93.5-70.226-4.644-126.671-14.159-129-84.5z" opacity=".18"/><path fill="#df2c2c" d="M180.445 139.859v41.313H104.43V66.89h54.37l.52.537 20.778 21.461.52.536v18.78l5.887-10.374.866-1.61 11.255-20.03c1.732-3.04 4.502-3.756 7.272-3.04 1.039.178 1.905.536 2.771 1.073a13.152 13.152 0 012.424 1.967c1.558 1.788 2.251 4.113 1.558 6.438 1.732 1.252 3.81 4.114 1.039 9.122l-11.428 20.03c-.173.358-.692.716-1.039.894l-2.424.716c-.866.179-1.905-.358-2.078-1.252a2.005 2.005 0 01.042-.903zm17.488-29.867l1.732-.537 11.082-19.315c1.039-1.967.692-3.22.173-3.935l-10.39 18.421-3.268 5.735c.187-.184.414-.316.671-.37zm-37.747 42.386l-2.078 11.089 8.311-7.333zm-2.944-3.22c0-.178.173-.357.173-.536l19.567-34.338V91.928h-19.047a1.763 1.763 0 01-1.732-1.788V70.467H107.72v107.128h69.088V145.94l-6.06 10.73c-.173.18-.173.358-.346.537l-14.026 12.161c-.346.358-.866.537-1.558.358-.693 0-1.212-1.073-1.039-1.967zm3.983-.357l7.445 4.471 28.224-49.182-7.445-4.471zm29.782-52.223l7.446 4.471 10.562-18.42v-.18c.693-1.251.347-2.682-.692-3.755-.347-.537-.866-.894-1.559-1.252-.519-.358-1.212-.537-1.904-.715-1.386-.358-2.77 0-3.637 1.43zm-48.656 75.652h22.51v3.577h-22.51zm-27.532-53.475h37.055v3.577H114.82zm0-7.154h55.41v3.577h-55.41zm0-7.153h55.41v3.576h-55.41zm0-7.154h55.41v3.577h-55.41zm59.739-8.942L159.666 72.97v15.38z"/></svg>