<svg width="273" height="227" fill="none" xmlns="http://www.w3.org/2000/svg"><path opacity=".18" d="M267.784 106.347c-11.628-58.836-54.586-90.41-113-104-111.246-25.883-218.904 170.232-108.5 199.5 63.864 16.93 43.383-19.677 108.5-8.5 31.562 5.417 44.17 38.629 75.5 32 47.67-10.086 46.947-71.199 37.5-119z" fill="#DF2C2C"/><path d="M206.239 78.776l-14.362 2.88c-2.164.423-3.842 2.152-4.29 4.38l-14.735 77.594a5.121 5.121 0 01-2.351 3.458c-.783.499-1.678.729-2.611.729h-62.635m52.787 12.447c2.966 0 5.371-2.477 5.371-5.532s-2.405-5.531-5.371-5.531c-2.967 0-5.372 2.476-5.372 5.531 0 3.055 2.405 5.532 5.372 5.532z" stroke="#DF2C2C" stroke-width="3" stroke-miterlimit="10" stroke-linecap="round"/><path d="M158.042 175.886c1.454 0 1.454-2.305 0-2.305-1.418 0-1.418 2.305 0 2.305z" fill="#DF2C2C"/><path d="M118.573 180.264c2.967 0 5.372-2.477 5.372-5.532s-2.405-5.531-5.372-5.531-5.372 2.476-5.372 5.531c0 3.055 2.405 5.532 5.372 5.532z" stroke="#DF2C2C" stroke-width="3" stroke-miterlimit="10" stroke-linecap="round"/><path d="M118.573 175.886c1.455 0 1.455-2.305 0-2.305-1.417 0-1.417 2.305 0 2.305z" fill="#DF2C2C"/><path d="M98.988 103.898h85.167l-8.133 42.447-67.446-7.452c-1.679-.192-3.059-1.421-3.47-3.111l-7.088-30.578c-.186-.653.336-1.306.97-1.306zm25.517 0l3.059 36.685m30.478-35.532l-4.85 38.759" stroke="#DF2C2C" stroke-width="3" stroke-miterlimit="10" stroke-linecap="round"/><path d="M109.993 119.378l6.454 5.072m-6.454-1.884l3.246 2.537m1.417-5.303l1.791 1.423m57.374 10.102l-.671 3.42m3.432-17.824l-2.089 10.871" stroke="#fff" stroke-miterlimit="10" stroke-linecap="round"/><path d="M113.089 58.263h-4.066a.638.638 0 01-.634-.653v-6.914a.638.638 0 00-.634-.653h-6.715a.638.638 0 00-.634.653v6.914a.638.638 0 01-.634.653h-4.067c-.484 0-.783.576-.522.999l6.193 9.872a3.568 3.568 0 006.08 0l6.156-9.872c.261-.423-.038-.999-.523-.999z" stroke="#DF2C2C" stroke-miterlimit="10"/><path d="M151.066 82.194h-4.44a.678.678 0 01-.671-.691v-7.567a.68.68 0 00-.672-.692h-7.349a.678.678 0 00-.671.692v7.567a.68.68 0 01-.672.691h-4.439c-.522 0-.858.615-.559 1.076l6.752 10.794c1.567 2.497 5.073 2.497 6.64 0l6.752-10.794c.224-.461-.112-1.076-.671-1.076zm-2.201-50.206h-4.44a.678.678 0 01-.671-.691v-7.606a.68.68 0 00-.672-.691h-7.349a.678.678 0 00-.671.691v7.568a.68.68 0 01-.672.691h-4.439c-.522 0-.858.615-.559 1.076l6.752 10.793c1.567 2.497 5.073 2.497 6.64 0l6.752-10.794c.224-.422-.112-1.037-.671-1.037z" stroke="#fff" stroke-width="3" stroke-miterlimit="10" stroke-linecap="round"/><path d="M188.258 60.338h-4.066a.638.638 0 01-.634-.654V52.77a.638.638 0 00-.634-.653h-6.715a.638.638 0 00-.634.653v6.914a.638.638 0 01-.634.654h-4.067c-.485 0-.783.576-.522.998l6.193 9.872a3.568 3.568 0 006.08 0l6.156-9.872c.261-.46-.038-.998-.523-.998z" stroke="#DF2C2C" stroke-miterlimit="10"/><path d="M201.091 180.878h23.763m-148.099 0h118.554m-131.349 0h7.572" stroke="#fff" stroke-width="3" stroke-miterlimit="10" stroke-linecap="round"/><path d="M157.706 67.522l-3.096.921m-.224-5.57l-2.537 2.728m-3.208-2.305l.559-3.535" stroke="#fff" stroke-width="2" stroke-miterlimit="10" stroke-linecap="round"/></svg>