<svg xmlns="http://www.w3.org/2000/svg" width="270" height="256"><path fill="#df2c2c" d="M269.59 132.345c-3.956-45.567-27.5-85-46-93-14.081-6.09-56.658-21-72-21-32.5 0-49.794-41.276-102.5 0-41.5 32.5-73.732 154.46-23.092 214.155 40.722 48.004 144.319 10.879 197.592-22.655 29.786-18.75 49.045-42.437 46-77.5z" opacity=".18"/><path fill="#df2c2c" d="M123.022 144.63c-2.813 0-4.838 3.244-2.728 6.314a.667.667 0 00.197.203c2.98 2.173 6.13.087 6.13-2.81 0-2.027-1.602-3.707-3.6-3.707zm-25.145.902c-3.825-2.78-7.988 1.477-5.26 5.416a.667.667 0 00.197.203c3.825 2.78 7.988-1.478 5.26-5.417a.667.667 0 00-.197-.202zm92.815-.902c-2.813 0-4.838 3.244-2.728 6.314a.667.667 0 00.197.203c2.98 2.173 6.13.087 6.13-2.81.029-2.027-1.602-3.707-3.6-3.707z"/><path fill="#df2c2c" d="M215.752 145.266c0 .434-.338.81-.788.81h-11.615a.807.807 0 00-.788.899c.028.405.056.84.056 1.274 0 6.835-5.399 12.395-12.037 12.395-4.191 0-7.847-2.172-10.013-5.502-.168-.232-.393-.377-.675-.377h-31.415a.798.798 0 01-.788-.81v-2.694c0-.435.338-.811.788-.811h29.278c.45 0 .844-.405.788-.898-.029-.405-.057-.84-.057-1.274 0-.434.028-.869.085-1.274a.791.791 0 00-.788-.898h-41.794a.806.806 0 00-.787.898c.028.405.056.84.056 1.274 0 6.835-5.4 12.395-12.037 12.395-4.191 0-7.847-2.172-10.013-5.502-.169-.232-.394-.377-.675-.377h-6.356a.786.786 0 00-.675.377c-2.194 3.33-5.822 5.502-10.013 5.502-4.19 0-7.847-2.172-10.012-5.502-.169-.232-.394-.377-.675-.377h-7.735a.798.798 0 01-.787-.81V91.89c0-.435.338-.811.787-.811h2.616c.422 0 .788.348.788.81v1.825c0 .435.337.811.787.811h38.953a.798.798 0 00.788-.81V91.89c0-.435.337-.811.787-.811h2.616c.422 0 .787.348.787.81v1.825c0 .435.338.811.788.811h31.387a.798.798 0 00.788-.81V91.89c0-.435.337-.811.787-.811h2.616c.422 0 .787.348.787.81v9.384c0 .435.338.811.788.811h21.262c.197 0 .422.087.563.232l19.041 19.751h.168l11.616.03zm-133.06 5.184c.479 0 .844-.434.788-.927a9.374 9.374 0 010-2.52.79.79 0 00-.788-.897h-2.221v3.533c0 .434.337.811.787.811zm18.45 3.678c6.272-8.485-3.15-18.187-11.39-11.73l-.169.175c-6.272 8.485 3.15 18.187 11.39 11.729a.484.484 0 00.17-.174zm9.113-3.678a.805.805 0 00.787-.898c-.028-.434-.056-.84-.056-1.274 0-.434.028-.869.085-1.274a.79.79 0 00-.788-.898h-2.137a.806.806 0 00-.788.898c.028.405.056.84.056 1.274 0 .434-.028.869-.084 1.274a.79.79 0 00.787.898zm2.166-8.688a.881.881 0 00.646-.319c1.66-2.606 4.247-4.489 7.257-5.184a.831.831 0 00.619-.81v-35.71a.798.798 0 00-.788-.81H81.258a.798.798 0 00-.787.81v41.212c0 .434.337.81.787.81h3.488a.786.786 0 00.675-.376c2.165-3.33 5.821-5.502 9.984-5.502 4.162 0 7.819 2.2 9.984 5.502.17.232.394.377.675.377zm18.45 6.574c0-6.285-7.088-10.918-13.444-5.937l-.169.174c-4.866 6.574-.337 13.843 5.766 13.843 4.331 0 7.818-3.62 7.847-8.08zm26.437-6.574c.422 0 .788-.377.76-.84V99.71a.798.798 0 00-.788-.81h-31.303a.798.798 0 00-.788.81v35.71c0 .405.254.723.62.81 3.009.695 5.596 2.607 7.255 5.155.17.232.394.377.675.377zm29.981-30.757c-.478-.492-1.35-.145-1.35.58v9.643c0 .435.338.811.788.811h9.365c.704 0 1.069-.868.563-1.39zm11.25 37.33c0-6.284-7.087-10.917-13.443-5.936l-.169.174c-4.866 6.574-.338 13.843 5.765 13.843 4.332 0 7.819-3.62 7.847-8.08zm12.207-17.868a.747.747 0 00.731-.84v-2.693c0-.435-.338-.811-.788-.811H182.48a.798.798 0 01-.788-.811v-18.043c0-.434-.337-.81-.787-.81h-17.803a.798.798 0 00-.788.81v13.988c0 .435.338.811.788.811h5.147c.422 0 .787.348.787.811v2.404c0 .434-.337.81-.787.81h-5.147a.798.798 0 00-.788.812v13.988c0 .434.338.81.788.81h16.819a.787.787 0 00.675-.376c2.165-3.36 5.821-5.56 9.984-5.56s7.819 2.2 9.984 5.56c.169.232.394.377.675.377h9.507a.798.798 0 00.787-.811v-5.3c0-.434-.337-.81-.787-.81h-5.991a.797.797 0 01-.787-.812v-2.693c0-.435.337-.811.787-.811zM106.567 169.57h17.241c.45 0 .788.377.788.811v2.694a.798.798 0 01-.788.81h-17.24a.798.798 0 01-.788-.81v-2.694c0-.434.366-.811.787-.811zm-8.439 0h2.615c.45 0 .788.377.788.811v2.694a.798.798 0 01-.788.81h-2.615a.798.798 0 01-.788-.81v-2.694c0-.434.366-.811.788-.811zm52.599-91.81h17.241c.45 0 .788.376.788.81v2.694c0 .463-.366.81-.788.81h-17.24a.798.798 0 01-.788-.81V78.57c0-.435.366-.811.787-.811z"/><path fill="#fff" d="M142.288 77.76h2.615c.45 0 .788.376.788.81v2.694c0 .463-.366.81-.788.81h-2.615a.798.798 0 01-.788-.81V78.57c0-.435.366-.811.788-.811zm31.78 44.02h2.615c.45 0 .788.377.788.811v2.694a.798.798 0 01-.788.81h-2.615a.798.798 0 01-.788-.81v-2.694c0-.434.366-.811.788-.811zm22.22 8.69h2.615c.45 0 .788.377.788.81v2.694a.798.798 0 01-.788.811h-2.615a.798.798 0 01-.788-.81v-2.694c0-.434.366-.811.788-.811zm-55.97 19.98h2.615c.45 0 .788.377.788.811v2.694a.798.798 0 01-.788.81h-2.615a.798.798 0 01-.788-.81v-2.694c0-.434.366-.811.788-.811z"/></svg>