<svg width="211" height="34" fill="none" xmlns="http://www.w3.org/2000/svg"><path d="M210.159 1.526a.5.5 0 01.315.633l-1.431 4.266a.5.5 0 11-.948-.318l1.272-3.792-3.792-1.272a.5.5 0 11.318-.948l4.266 1.431zm-208.93.03l.902.464-.456.89-.904-.466.458-.888zm2.698 1.381c.597.303 1.192.605 1.784.903l-.45.893c-.594-.299-1.19-.6-1.787-.905l.453-.891zM7.484 4.73c.596.297 1.19.592 1.783.885l-.444.896c-.593-.293-1.188-.589-1.785-.887l.446-.894zm3.594 1.775c.602.295 1.202.586 1.8.876l-.436.9c-.6-.29-1.2-.582-1.804-.877l.44-.899zm3.588 1.736c.6.287 1.199.572 1.795.854l-.427.904c-.598-.283-1.198-.568-1.8-.856l.432-.902zm3.622 1.712c.606.284 1.211.564 1.814.842l-.419.908c-.604-.278-1.21-.56-1.819-.844l.424-.906zm3.618 1.668c.607.276 1.212.55 1.816.82l-.41.913a314.33 314.33 0 01-1.82-.823l.414-.91zm3.656 1.64c.612.27 1.221.538 1.83.802l-.4.917c-.61-.265-1.22-.533-1.834-.804l.404-.915zm3.647 1.588c.617.264 1.231.525 1.844.783l-.388.921c-.615-.258-1.231-.52-1.85-.785l.394-.92zm3.698 1.557c.616.255 1.23.507 1.843.756l-.376.927c-.615-.25-1.231-.503-1.85-.759l.383-.924zm3.676 1.494c.627.25 1.252.497 1.876.741l-.364.931c-.626-.244-1.253-.492-1.883-.743l.37-.929zm3.743 1.463c.62.237 1.24.472 1.857.703l-.35.936c-.62-.232-1.241-.467-1.864-.705l.357-.934zm3.726 1.394c.632.231 1.262.459 1.89.683l-.336.942a258.86 258.86 0 01-1.897-.686l.343-.939zm3.77 1.345c.625.218 1.248.431 1.87.642l-.32.947c-.625-.211-1.25-.426-1.878-.644l.328-.945zm3.78 1.28c.636.209 1.27.414 1.902.616l-.304.953c-.635-.203-1.272-.41-1.91-.62l.313-.95zm3.795 1.21c.639.198 1.276.392 1.913.582l-.287.959c-.64-.192-1.28-.386-1.922-.585l.296-.955zm3.834 1.147c.64.185 1.277.365 1.914.542l-.268.964c-.64-.178-1.28-.36-1.923-.545l.277-.96zm3.834 1.066c.648.173 1.294.342 1.94.507l-.248.969a187.21 187.21 0 01-1.95-.51l.258-.966zm3.872.99c.645.159 1.288.313 1.93.462l-.227.974a186.35 186.35 0 01-1.94-.464l.237-.971zm3.886.907c.651.144 1.3.284 1.95.42l-.206.979c-.652-.137-1.305-.278-1.96-.423l.216-.976zm3.892.816c.658.13 1.314.255 1.97.377l-.183.983c-.659-.122-1.32-.249-1.98-.38l.193-.98zm3.933.728c.653.113 1.306.221 1.958.326l-.158.987a152.58 152.58 0 01-1.97-.328l.17-.985zm3.936.63c.66.097 1.317.19 1.975.278l-.133.991c-.662-.089-1.325-.182-1.988-.28l.146-.99zm3.946.53c.663.08 1.324.157 1.986.228l-.108.994c-.665-.072-1.332-.148-1.998-.229l.12-.993zm3.97.43c.66.062 1.321.12 1.981.174l-.081.997c-.665-.054-1.33-.113-1.995-.176l.095-.995zm3.972.323c.664.046 1.327.086 1.99.122l-.054.999c-.668-.037-1.336-.077-2.004-.123l.068-.998zm3.98.218c.663.027 1.328.05 1.992.068l-.027 1c-.67-.019-1.338-.042-2.007-.07l.041-.998zm3.985.109c.665.01 1.329.014 1.994.014l-.001 1a149.2 149.2 0 01-2.007-.014l.014-1zm3.986.001c.664-.009 1.328-.022 1.993-.04l.027 1c-.669.017-1.338.031-2.007.04l-.013-1zm3.988-.107c.662-.027 1.324-.058 1.987-.094l.054.999c-.667.036-1.334.067-2.001.094l-.04-1zm3.977-.214c.664-.045 1.328-.094 1.993-.147l.08.997c-.669.053-1.338.103-2.006.148l-.067-.998zm3.974-.32c.66-.061 1.321-.127 1.983-.198l.106.994c-.666.072-1.331.138-1.996.2l-.093-.995zm3.971-.423c.656-.078 1.313-.16 1.971-.248l.131.992a198.9 198.9 0 01-1.983.25l-.119-.994zm3.945-.521c.659-.096 1.319-.195 1.98-.3l.156.988c-.665.105-1.329.205-1.992.301l-.144-.99zm3.941-.62c.653-.11 1.307-.225 1.962-.344l.179.984c-.659.12-1.317.235-1.974.346l-.167-.986zm3.931-.713c.649-.126 1.299-.256 1.951-.39l.201.98c-.655.135-1.309.265-1.962.391l-.19-.981zm3.898-.8c.65-.14 1.302-.285 1.955-.434l.222.975c-.656.15-1.311.295-1.965.437l-.212-.978zm3.897-.887c.642-.154 1.285-.31 1.93-.472l.242.97c-.648.162-1.295.32-1.94.474l-.232-.972zm3.869-.966c.644-.168 1.289-.34 1.935-.514l.262.965c-.65.176-1.298.348-1.945.516l-.252-.967zm3.847-1.041c.638-.18 1.279-.363 1.92-.55l.28.961c-.645.188-1.288.371-1.93.551l-.27-.962zm3.851-1.12c.629-.189 1.26-.381 1.893-.577l.295.955c-.635.197-1.268.39-1.9.58l-.288-.958zm3.793-1.175c.635-.203 1.272-.409 1.911-.618l.312.95c-.641.21-1.281.417-1.919.62l-.304-.952zm3.803-1.247c.625-.21 1.251-.424 1.879-.641l.327.945c-.631.218-1.26.432-1.886.643l-.32-.947zm3.769-1.302c.631-.223 1.263-.45 1.898-.679l.34.94c-.637.23-1.272.458-1.905.682l-.333-.943zm3.753-1.358c.621-.229 1.243-.461 1.867-.697l.353.936c-.626.236-1.25.47-1.873.7l-.347-.939zm3.745-1.413c.62-.238 1.241-.48 1.865-.724l.365.931c-.626.245-1.249.488-1.871.727l-.359-.934zm3.707-1.453c.616-.246 1.234-.494 1.854-.746l.376.926c-.621.253-1.241.502-1.859.749l-.371-.929zm3.72-1.51c.61-.252 1.222-.506 1.835-.763l.387.922c-.615.258-1.229.513-1.841.765l-.381-.924zm3.665-1.536c.611-.26 1.225-.523 1.841-.788l.396.918c-.617.266-1.233.53-1.846.79l-.391-.92zm3.693-1.593c.602-.263 1.207-.53 1.813-.798l.405.914c-.608.27-1.213.536-1.817.8l-.401-.916zm3.628-1.607c.607-.273 1.216-.547 1.827-.825l.413.91c-.612.279-1.222.554-1.831.827l-.409-.912zm3.666-1.664c.597-.275 1.196-.551 1.796-.83l.422.907c-.603.28-1.203.556-1.801.831l-.417-.908zm3.597-1.67l1.812-.855.429.903-1.816.857-.425-.906zm3.637-1.724l1.789-.86.435.9c-.6.29-1.197.577-1.793.862l-.431-.902zm3.574-1.727c.597-.29 1.196-.584 1.797-.88l.441.898c-.602.296-1.202.59-1.8.881l-.438-.899zm3.606-1.772c.303-.15.606-.3.909-.452l.446.896-.911.452-.444-.896z" fill="#fff"/></svg>