<svg width="229" height="408" fill="none" xmlns="http://www.w3.org/2000/svg"><path d="M1.512 375.892a.5.5 0 00.379.597l4.392.981a.5.5 0 10.218-.976l-3.904-.872.872-3.904a.5.5 0 00-.976-.218l-.981 4.392zM164.502 7.045l.088 1.02.997-.086-.089-1.021-.996.087zm.263 3.053l.172 2.023.996-.084-.172-2.024-.996.085zm.341 4.038l.166 2.005.996-.082c-.054-.668-.11-1.336-.166-2.007l-.996.084zm.329 4l.16 1.986.997-.08-.16-1.987-.997.081zm.317 3.963l.155 1.968.997-.077-.155-1.97-.997.08zm.306 3.927l.153 2.02.998-.076-.154-2.02-.997.076zm.305 4.051l.149 2.022.997-.073-.148-2.023-.998.074zm.294 4.034l.142 2.003.998-.07-.142-2.004-.998.071zm.281 3.995l.135 1.983.998-.067-.136-1.985-.997.069zm.267 3.956l.128 1.963.998-.064a723.65 723.65 0 00-.129-1.965l-.997.066zm.255 3.959c.043.68.086 1.359.127 2.036l.998-.062c-.041-.677-.084-1.356-.127-2.037l-.998.063zm.25 4.062l.12 2.015.998-.058-.119-2.017-.999.06zm.235 4.02l.112 1.995.998-.055-.111-1.997-.999.057zm.219 3.98c.036.659.07 1.317.104 1.974l.999-.052-.104-1.976-.999.053zm.204 3.938l.098 2.006.999-.048-.098-2.008-.999.05zm.194 4.042l.092 2.025.999-.044-.092-2.027-.999.046zm.179 4.039l.082 2.003.999-.04c-.026-.667-.054-1.335-.082-2.005l-.999.042zm.16 3.995c.026.663.05 1.323.074 1.982l.999-.036c-.023-.66-.048-1.32-.073-1.984l-1 .038zm.143 3.953c.023.658.044 1.314.065 1.968l.999-.032c-.02-.655-.042-1.311-.064-1.97l-1 .034zm.128 4.01l.057 2.03 1-.027c-.018-.676-.038-1.353-.058-2.033l-.999.03zm.11 4.05c.017.67.032 1.34.047 2.007l1-.023-.047-2.01-1 .025zm.09 4.003l.037 1.985 1-.017c-.012-.661-.024-1.324-.038-1.988l-.999.02zm.069 3.959l.027 1.963 1-.013-.027-1.965-1 .015zm.049 4.004c.007.679.012 1.356.017 2.031l1-.007c-.005-.676-.01-1.354-.017-2.034l-1 .01zm.028 4.05l.005 2.007 1-.001-.005-2.01-1 .004zm.004 4.002c-.001.663-.004 1.324-.007 1.983l1 .005c.003-.66.006-1.322.007-1.986l-1-.002zm-.02 3.955c-.005.663-.011 1.324-.018 1.983l1 .011c.007-.66.013-1.322.018-1.986l-1-.008zm-.044 4.021c-.01.677-.021 1.353-.033 2.026l1 .018c.012-.675.023-1.351.033-2.03l-1-.014zm-.072 4.039c-.014.669-.03 1.336-.046 2.001l1 .025c.016-.666.032-1.334.046-2.004l-1-.022zm-.098 3.99c-.019.661-.039 1.32-.06 1.977l1 .032c.021-.658.04-1.318.059-1.98l-.999-.029zm-.126 3.942c-.024.678-.049 1.353-.076 2.027l1 .039.076-2.031-1-.035zm-.159 4.054c-.029.674-.06 1.345-.092 2.015l.999.047c.032-.671.063-1.343.092-2.018l-.999-.044zm-.19 4.017c-.035.665-.07 1.328-.107 1.989l.999.055a600.9 600.9 0 00.106-1.993l-.998-.051zm-.221 3.965c-.039.657-.08 1.312-.122 1.964l.998.064c.042-.654.083-1.31.122-1.968l-.998-.06zm-.256 3.981c-.046.677-.094 1.351-.143 2.023l.997.073c.05-.673.098-1.349.144-2.027l-.998-.069zm-.295 4.033a403.59 403.59 0 01-.161 1.996l.997.083c.055-.665.108-1.332.161-2.001l-.997-.078zm-.33 3.98c-.058.659-.117 1.316-.178 1.97l.996.093c.06-.657.12-1.315.178-1.976l-.996-.087zm-.365 3.928c-.066.677-.134 1.352-.203 2.025l.994.102c.07-.674.138-1.351.205-2.03l-.996-.097zm-.416 4.036c-.073.669-.147 1.335-.223 1.998l.993.114c.076-.666.151-1.334.224-2.004l-.994-.108zm-.455 3.983c-.079.659-.16 1.317-.242 1.971l.992.125c.082-.657.163-1.316.242-1.977l-.992-.119zm-.494 3.93c-.087.663-.176 1.323-.267 1.981l.991.137c.091-.661.18-1.323.267-1.988l-.991-.13zm-.549 3.988c-.096.667-.193 1.331-.293 1.993l.989.148c.1-.664.198-1.33.294-1.999l-.99-.142zm-.596 3.972a278.75 278.75 0 01-.315 1.966l.987.161c.107-.655.212-1.312.315-1.972l-.987-.155zm-.64 3.919a283.47 283.47 0 01-.339 1.954l.985.174c.115-.651.228-1.305.34-1.961l-.986-.167zm-.699 3.948c-.122.662-.245 1.322-.371 1.98l.982.188c.126-.66.25-1.322.373-1.987l-.984-.181zm-.755 3.947c-.13.653-.261 1.304-.395 1.953l.979.202c.135-.651.267-1.304.397-1.96l-.981-.195zm-.803 3.893a263.21 263.21 0 01-.421 1.936l.976.217c.143-.646.284-1.294.423-1.944l-.978-.209zm-.867 3.91c-.15.655-.303 1.309-.458 1.96l.973.231c.155-.653.309-1.309.46-1.967l-.975-.224zm-.93 3.906c-.159.647-.321 1.291-.484 1.933l.969.247c.164-.645.326-1.291.486-1.941l-.971-.239zm-.982 3.853c-.17.643-.341 1.283-.515 1.922l.964.262c.175-.641.348-1.284.518-1.929l-.967-.255zm-1.054 3.866c-.182.646-.367 1.29-.553 1.931l.96.279c.187-.644.373-1.29.555-1.939l-.962-.271zm-1.12 3.849c-.192.637-.386 1.272-.582 1.905l.955.296c.197-.636.392-1.273.584-1.913l-.957-.288zm-1.178 3.797c-.203.637-.409 1.271-.618 1.903l.95.313c.209-.635.416-1.272.621-1.911l-.953-.305zm-1.256 3.81c-.216.634-.434 1.265-.654 1.895l.943.33c.222-.632.441-1.266.657-1.903l-.946-.322zm-1.324 3.777c-.225.625-.453 1.248-.684 1.869l.937.349c.232-.625.461-1.251.688-1.879l-.941-.339zm-1.384 3.727c-.24.626-.482 1.251-.727 1.874l.93.366c.247-.626.49-1.253.731-1.883l-.934-.357zm-1.47 3.736c-.251.619-.504 1.235-.76 1.85l.924.385c.257-.618.511-1.238.763-1.86l-.927-.375zm-1.536 3.689c-.261.611-.525 1.22-.792 1.828l.916.402c.268-.61.533-1.223.796-1.837l-.92-.393zm-1.604 3.652c-.275.609-.553 1.216-.833 1.822l.907.42c.282-.608.561-1.219.838-1.831l-.912-.411zm-1.683 3.633c-.287.602-.576 1.202-.868 1.8l.899.439c.294-.602.584-1.205.872-1.81l-.903-.429zm-1.752 3.59a185.21 185.21 0 01-.902 1.779l.89.457c.305-.594.607-1.191.906-1.789l-.894-.447zm-1.824 3.554c-.31.59-.623 1.178-.939 1.764l.88.475c.318-.59.633-1.181.945-1.774l-.886-.465zm-1.896 3.519c-.322.584-.647 1.165-.975 1.746l.871.492c.33-.584.656-1.168.98-1.755l-.876-.483zm-1.967 3.482c-.333.576-.669 1.15-1.009 1.723l.861.51c.341-.576.679-1.154 1.014-1.733l-.866-.5zm-2.033 3.435c-.345.57-.692 1.137-1.043 1.704l.85.526c.353-.569.702-1.14 1.048-1.712l-.855-.518zm-2.104 3.399c-.356.564-.716 1.126-1.079 1.687l.84.543c.364-.564.726-1.129 1.084-1.695l-.845-.535zm-2.175 3.365c-.365.553-.733 1.105-1.104 1.655l.829.559c.373-.553.743-1.107 1.11-1.663l-.835-.551zm-2.227 3.303c-.377.548-.758 1.095-1.141 1.641l.818.575c.386-.549.768-1.098 1.147-1.649l-.824-.567zm-2.3 3.275a222.78 222.78 0 01-1.177 1.627l.807.59c.397-.544.792-1.089 1.183-1.635l-.813-.582zm-2.362 3.233c-.396.531-.794 1.06-1.195 1.589l.796.605c.404-.531.804-1.064 1.201-1.597l-.802-.597zm-2.408 3.173c-.408.527-.818 1.053-1.231 1.578l.785.618c.415-.527.828-1.055 1.237-1.585l-.791-.611zm-2.481 3.15c-.419.523-.842 1.046-1.268 1.567l.775.632c.428-.523.852-1.048 1.273-1.574l-.78-.625zm-2.527 3.097c-.423.509-.848 1.017-1.277 1.525l.764.645c.431-.51.858-1.02 1.282-1.531l-.769-.639zm-2.571 3.045c-.435.506-.872 1.011-1.312 1.516l.753.657c.442-.506.881-1.014 1.318-1.522l-.759-.651zm-2.643 3.028c-.443.5-.889.999-1.339 1.498l.743.669c.451-.5.899-1.002 1.345-1.504l-.749-.663zm-2.67 2.964c-.446.488-.896.975-1.348 1.462l.733.681c.454-.489.905-.979 1.353-1.468l-.738-.675zm-2.714 2.921c-.458.486-.919.971-1.382 1.456l.722.691c.466-.486.928-.973 1.388-1.461l-.728-.686zm-2.783 2.909c-.464.479-.932.957-1.402 1.435l.713.701c.472-.479.941-.959 1.407-1.439l-.718-.697zm-2.794 2.84a287.3 287.3 0 01-1.41 1.403l.704.711c.474-.469.945-.938 1.414-1.408l-.708-.706zm-2.835 2.804c-.478.467-.96.933-1.443 1.399l.694.721c.485-.468.967-.936 1.447-1.404l-.698-.716zm-2.903 2.797c-.484.461-.97.921-1.46 1.381l.684.729c.492-.462.98-.924 1.466-1.386l-.69-.724zm-2.904 2.73c-.484.449-.97.898-1.46 1.347l.676.737c.49-.451.979-.901 1.464-1.352l-.68-.732zm-2.936 2.693c-.494.449-.992.897-1.492 1.346l.668.744c.501-.45 1-.899 1.496-1.349l-.672-.741zm-3 2.69c-.504.447-1.01.895-1.52 1.342l.659.751c.511-.448 1.02-.896 1.525-1.345l-.663-.748zm-3.005 2.637c-.498.432-.998.864-1.5 1.296l.651.758c.504-.433 1.005-.866 1.504-1.299l-.655-.755zm-3.016 2.591c-.508.431-1.018.863-1.53 1.295l.643.765c.514-.433 1.026-.866 1.535-1.299l-.648-.761zm-3.077 2.59c-.518.432-1.038.864-1.561 1.295l.637.772c.524-.433 1.046-.866 1.565-1.299l-.64-.768zm-3.104 2.564c-.508.415-1.019.831-1.532 1.247l.63.777a548.42 548.42 0 001.535-1.25l-.633-.774zm-3.077 2.494c-.518.416-1.038.833-1.56 1.249l.622.782a455.16 455.16 0 001.564-1.251l-.626-.78zm-3.135 2.498c-.528.416-1.057.833-1.59 1.25l.617.787 1.593-1.252-.62-.785zm-3.193 2.501c-.52.404-1.042.808-1.567 1.212l.61.792c.526-.405 1.05-.81 1.57-1.214l-.613-.79zM62 334.14c-.524.402-1.051.804-1.58 1.205l.604.797 1.584-1.207-.607-.795zm-3.176 2.412c-.534.402-1.07.805-1.609 1.207l.6.801c.539-.403 1.076-.807 1.61-1.21l-.6-.798zm-3.231 2.417l-1.636 1.211.593.804a583.08 583.08 0 001.64-1.212l-.597-.803zm-3.233 2.384c-.53.389-1.061.777-1.595 1.165l.588.809c.535-.389 1.067-.778 1.598-1.167l-.591-.807zm-3.203 2.332l-1.621 1.169.583.812c.544-.391 1.085-.781 1.624-1.171l-.586-.81zm-3.255 2.339l-1.646 1.173.578.815 1.65-1.174-.582-.814zm-3.306 2.347c-.544.385-1.091.77-1.64 1.155l.574.818c.55-.385 1.097-.771 1.643-1.156l-.577-.817zm-3.255 2.285c-.54.377-1.082.754-1.627 1.132l.57.821a896.8 896.8 0 001.63-1.133l-.573-.82zm-3.265 2.266c-.548.379-1.099.758-1.65 1.137l.565.825 1.653-1.139-.568-.823zm-3.314 2.277c-.556.38-1.114.76-1.675 1.141l.563.827c.56-.381 1.12-.762 1.677-1.143l-.565-.825zm-3.361 2.286l-1.64 1.107.558.83c.55-.37 1.097-.74 1.642-1.109l-.56-.828zm-3.28 2.209c-.547.367-1.097.735-1.649 1.103l.555.832 1.652-1.105-.557-.83zm-3.31 2.21l-1.672 1.109.552.834 1.674-1.111-.554-.832zm-3.355 2.221l-1.695 1.114.549.836 1.696-1.115-.55-.835zm-3.401 2.232l-1.657 1.081.546.838 1.658-1.082-.547-.837zm-3.311 2.157l-1.666 1.079.543.839 1.667-1.079-.544-.839zm-3.341 2.16l-1.687 1.085.54.841 1.688-1.085-.541-.841zm-3.384 2.172l-1.707 1.091.538.843 1.709-1.091-.54-.843zm-3.425 2.185l-.862.548.536.844.863-.548-.537-.844z" fill="#fff"/></svg>