<svg width="79" height="269" fill="none" xmlns="http://www.w3.org/2000/svg"><path d="M19.277 268.16a.496.496 0 00.67-.22l2.01-4.017a.504.504 0 00-.224-.673.496.496 0 00-.67.22l-1.786 3.57-3.574-1.814a.496.496 0 00-.67.22.503.503 0 00.224.673l4.02 2.041zM77.75.582c-.29.165-.58.332-.867.5l.504.866.861-.496-.498-.87zm-2.588 1.516c-.57.342-1.137.689-1.7 1.04l.53.851c.56-.348 1.122-.692 1.688-1.032l-.517-.86zM71.781 4.2c-.56.36-1.115.722-1.668 1.09l.555.835c.549-.364 1.1-.725 1.656-1.081L71.78 4.2zm-3.323 2.207c-.548.376-1.093.756-1.635 1.14l.58.819c.537-.381 1.078-.758 1.623-1.132l-.568-.827zM65.207 8.71c-.537.392-1.07.789-1.6 1.188l.604.802c.526-.397 1.055-.79 1.588-1.18l-.592-.81zm-3.183 2.402c-.525.409-1.047.82-1.565 1.237l.628.783c.514-.413 1.031-.822 1.552-1.228l-.616-.792zm-3.109 2.495c-.512.424-1.02.851-1.526 1.282l.65.765a131.58 131.58 0 011.515-1.273l-.639-.774zm-3.033 2.588c-.499.439-.995.881-1.487 1.327l.672.745c.489-.443.98-.882 1.476-1.318l-.66-.754zm-2.955 2.676c-.486.454-.968.91-1.447 1.37l.693.726c.476-.457.955-.91 1.437-1.36l-.683-.736zm-2.874 2.762c-.473.467-.942.938-1.407 1.412l.714.705c.462-.471.928-.938 1.397-1.402l-.704-.715zm-2.794 2.846c-.46.48-.914.965-1.366 1.453l.734.683c.448-.484.9-.965 1.355-1.442l-.724-.694zm-2.71 2.923c-.444.494-.885.99-1.323 1.491l.753.663c.435-.497.873-.99 1.314-1.48l-.743-.674zm-2.627 3.003c-.43.506-.857 1.015-1.28 1.528l.77.642c.42-.51.845-1.015 1.272-1.518l-.761-.652zm-2.538 3.071a146.36 146.36 0 00-1.238 1.563l.788.62c.406-.52.816-1.037 1.23-1.552l-.78-.63zm-2.456 3.146c-.402.529-.8 1.062-1.196 1.597l.804.599c.393-.532.789-1.061 1.188-1.587l-.796-.61zm-2.366 3.206c-.387.54-.771 1.082-1.151 1.628l.82.577c.377-.542.758-1.08 1.143-1.617l-.813-.588zm-2.283 3.274c-.373.55-.743 1.104-1.11 1.66l.835.556c.364-.553.732-1.103 1.102-1.65l-.827-.566zm-2.193 3.329c-.358.559-.712 1.12-1.064 1.685l.849.534c.349-.561.701-1.12 1.057-1.675l-.842-.544zm-2.108 3.388c-.345.57-.686 1.142-1.024 1.718l.861.512c.336-.572.675-1.14 1.017-1.707l-.855-.523zm-2.02 3.438c-.33.576-.655 1.155-.978 1.736l.874.491c.32-.578.644-1.153.97-1.726l-.867-.501zm-1.936 3.49c-.317.587-.63 1.176-.94 1.769l.885.47c.308-.59.62-1.176.934-1.76l-.88-.48zm-1.85 3.534c-.3.591-.598 1.185-.892 1.781l.896.449c.292-.593.588-1.183.886-1.77l-.89-.46zm-1.765 3.578c-.288.601-.573 1.205-.855 1.812l.906.427c.28-.603.564-1.203.85-1.801l-.901-.438zm-1.683 3.62c-.272.605-.541 1.211-.807 1.82l.915.407c.265-.606.532-1.209.803-1.81l-.91-.416zm-1.597 3.654c-.26.614-.517 1.23-.771 1.848l.924.387c.253-.615.508-1.228.767-1.838l-.92-.397zm-1.519 3.697c-.244.615-.486 1.233-.725 1.852l.932.366c.237-.616.478-1.23.721-1.842l-.928-.376zm-1.433 3.718c-.233.624-.463 1.25-.69 1.879l.94.346a173.9 173.9 0 01.686-1.87l-.936-.355zm-1.36 3.764c-.218.624-.433 1.25-.645 1.88l.946.326c.211-.626.425-1.249.642-1.87l-.943-.336zm-1.274 3.771c-.206.633-.41 1.268-.61 1.905l.952.307c.2-.634.402-1.266.608-1.895l-.95-.317zm-1.204 3.821c-.193.633-.382 1.268-.57 1.904l.96.289a189.1 189.1 0 01.565-1.895l-.955-.298zm-1.12 3.818c-.181.64-.36 1.281-.535 1.925l.964.27c.174-.641.351-1.28.531-1.916l-.96-.28zm-1.052 3.862c-.169.642-.334 1.287-.497 1.934l.968.25c.162-.643.327-1.285.495-1.924l-.966-.26zm-.974 3.864c-.156.645-.31 1.293-.46 1.941l.972.233c.15-.646.303-1.29.459-1.932l-.971-.242zm-.904 3.894a234.28 234.28 0 00-.428 1.962l.977.215c.14-.653.281-1.304.426-1.954l-.975-.223zm-.832 3.906c-.133.649-.262 1.301-.39 1.953l.981.198c.127-.65.256-1.298.387-1.945l-.978-.206zm-.762 3.917c-.122.656-.24 1.314-.357 1.974l.984.18c.116-.657.234-1.312.355-1.965l-.982-.189zm-.695 3.943c-.11.653-.216 1.307-.32 1.963l.986.163c.104-.653.21-1.304.319-1.954l-.985-.172zm-.625 3.935c-.098.658-.195 1.319-.288 1.981l.989.146c.093-.659.189-1.316.287-1.972l-.988-.155zm-.561 3.97a249.43 249.43 0 00-.255 1.974l.991.13c.082-.656.167-1.311.254-1.965l-.99-.139zm-.493 3.951c-.077.66-.152 1.322-.224 1.985l.993.114c.072-.66.146-1.319.223-1.977l-.992-.122zm-.432 3.978c-.066.665-.13 1.331-.192 1.998l.994.099c.062-.665.126-1.328.192-1.99l-.994-.107zm-.367 3.977c-.056.661-.11 1.324-.16 1.987l.995.083c.05-.661.104-1.32.16-1.979l-.995-.091zm-.306 3.982c-.046.666-.09 1.333-.131 2.002l.997.068c.04-.666.084-1.331.13-1.995l-.996-.075zm-.246 4c-.036.661-.07 1.323-.1 1.986l.997.053c.031-.661.064-1.32.1-1.979l-.997-.06zm-.186 3.979c-.026.666-.05 1.333-.07 2l.997.039c.022-.666.045-1.33.071-1.993l-.998-.046zm-.127 4.007c-.017.665-.03 1.331-.042 1.998l.998.024c.012-.665.026-1.328.042-1.991l-.998-.031zm-.07 3.988a283.09 283.09 0 00-.014 1.996l1 .009c.001-.664.006-1.327.013-1.989l-.999-.016zm-.013 3.998c.002.669.007 1.338.014 2.009l.999-.005c-.007-.668-.012-1.335-.014-2.001l-1-.003zm.042 4.005c.012.662.026 1.326.042 1.99l.999-.018a291.18 291.18 0 01-.042-1.984l-.999.012zm.097 3.986c.021.666.044 1.334.07 2.002l.997-.032c-.025-.666-.048-1.331-.068-1.995l-.999.025zm.152 4.009c.03.664.061 1.328.095 1.994l.998-.045c-.034-.663-.066-1.326-.095-1.987l-.998.038zm.203 3.982c.039.664.08 1.328.122 1.993l.997-.057c-.043-.664-.083-1.326-.121-1.987l-.998.051zm.257 3.992c.047.667.096 1.334.148 2.003l.995-.071c-.05-.666-.1-1.332-.147-1.997l-.996.065zm.308 3.994c.055.661.112 1.322.172 1.984l.994-.083c-.059-.66-.116-1.319-.171-1.978l-.995.077zm.357 3.973c.063.663.13 1.327.198 1.992l.993-.096c-.068-.663-.134-1.325-.197-1.986l-.994.09zm.408 3.989c.072.662.147 1.325.223 1.989l.992-.108c-.076-.662-.15-1.323-.222-1.983l-.993.102zm.456 3.966c.08.66.162 1.32.246 1.981l.991-.12a336.67 336.67 0 01-.245-1.975l-.992.114zm.505 3.966c.088.663.179 1.325.271 1.989l.99-.132c-.093-.662-.183-1.323-.271-1.983l-.99.126zm.554 3.975c.096.655.193 1.312.293 1.968l.987-.144c-.1-.655-.196-1.309-.292-1.962l-.988.138zm.597 3.94c.104.658.21 1.317.317 1.976l.986-.156c-.107-.657-.213-1.314-.316-1.97l-.987.15zm.647 3.954c.112.661.225 1.321.341 1.982l.984-.167c-.116-.659-.23-1.318-.34-1.976l-.985.161zm.69 3.942c.12.653.24 1.307.362 1.961l.982-.179a351.03 351.03 0 01-.36-1.955l-.983.173zm.735 3.925c.127.655.255 1.311.386 1.967l.98-.19c-.13-.654-.259-1.308-.385-1.961l-.98.184zm.783 3.937c.134.651.269 1.303.406 1.956l.977-.201c-.136-.65-.271-1.301-.404-1.951l-.979.196zm.822 3.905c.14.65.283 1.3.427 1.951l.975-.211a358.13 358.13 0 01-.426-1.946l-.976.206zm.867 3.905c.148.652.298 1.304.45 1.956l.973-.222c-.152-.651-.302-1.301-.45-1.951l-.973.217zm.912 3.91c.155.644.31 1.289.469 1.935l.97-.233c-.158-.644-.314-1.287-.467-1.93l-.972.228zm.949 3.872c.161.646.325 1.292.49 1.939l.968-.243c-.165-.645-.328-1.29-.49-1.934l-.968.238zm.994 3.88c.17.648.34 1.295.514 1.943l.965-.253c-.173-.646-.344-1.292-.513-1.938l-.966.248zm1.035 3.871c.175.64.352 1.281.53 1.922l.962-.264a379.85 379.85 0 01-.529-1.917l-.963.259zm1.072 3.845c.182.642.367 1.283.553 1.925l.959-.273c-.186-.641-.37-1.281-.552-1.92l-.96.268zm1.117 3.852c.19.641.38 1.283.574 1.925l.956-.284c-.193-.64-.384-1.28-.573-1.92l-.957.279zm1.153 3.83c.195.635.392 1.271.59 1.907l.953-.294c-.198-.634-.394-1.268-.588-1.901l-.955.288zm1.191 3.815c.202.636.406 1.272.612 1.909l.95-.304c-.205-.635-.409-1.269-.61-1.904l-.952.299zm1.235 3.819l.316.956.948-.311-.315-.953-.949.308z" fill="#fff"/></svg>