<svg width="211" height="34" fill="none" xmlns="http://www.w3.org/2000/svg"><path d="M210.159 32.474a.5.5 0 00.315-.633l-1.431-4.266a.5.5 0 10-.948.318l1.272 3.792-3.792 1.272a.5.5 0 10.318.948l4.266-1.431zm-208.93-.03l.902-.464-.456-.89-.904.466.458.888zm2.698-1.381a537.36 537.36 0 011.784-.903l-.45-.893c-.594.299-1.19.6-1.787.905l.453.891zm3.557-1.793c.596-.297 1.19-.592 1.783-.885l-.444-.896c-.593.293-1.188.589-1.785.887l.446.894zm3.594-1.775c.602-.295 1.202-.587 1.8-.876l-.436-.9c-.6.29-1.2.582-1.804.877l.44.899zm3.588-1.736c.6-.287 1.199-.572 1.795-.854L16.034 24c-.598.283-1.198.568-1.8.856l.432.902zm3.622-1.712c.606-.284 1.211-.564 1.814-.842l-.419-.908c-.604.278-1.21.56-1.819.844l.424.906zm3.618-1.668c.607-.276 1.212-.55 1.816-.82l-.41-.913c-.605.271-1.212.546-1.82.823l.414.91zm3.656-1.64c.612-.27 1.221-.538 1.83-.802l-.4-.917c-.61.265-1.22.533-1.834.804l.404.915zm3.647-1.588c.617-.264 1.231-.525 1.844-.783l-.388-.921c-.615.258-1.231.52-1.85.785l.394.92zm3.698-1.557c.616-.255 1.23-.507 1.843-.756l-.376-.927c-.615.25-1.231.503-1.85.759l.383.924zm3.676-1.494c.627-.25 1.252-.497 1.876-.741l-.364-.931c-.626.244-1.253.492-1.883.743l.37.929zm3.743-1.463c.62-.237 1.24-.472 1.857-.703l-.35-.936c-.62.232-1.241.467-1.864.705l.357.934zm3.726-1.394a252.33 252.33 0 011.89-.683l-.336-.942c-.63.225-1.263.454-1.897.685l.343.94zm3.77-1.345c.625-.217 1.248-.431 1.87-.642l-.32-.947c-.625.211-1.25.426-1.878.644l.328.945zm3.78-1.28c.636-.209 1.27-.414 1.902-.616L53.2 9.05c-.635.202-1.272.409-1.91.619l.313.95zm3.795-1.21a188.47 188.47 0 011.913-.582l-.287-.959c-.64.192-1.28.387-1.922.585l.296.956zM59.23 8.26c.64-.185 1.277-.365 1.914-.542l-.268-.964c-.64.178-1.28.36-1.923.545l.277.96zm3.834-1.066c.648-.173 1.294-.342 1.94-.507l-.248-.969c-.649.166-1.299.336-1.95.51l.258.966zm3.872-.99c.645-.159 1.288-.312 1.93-.462l-.227-.974c-.646.15-1.293.305-1.94.464l.237.971zm3.886-.907c.651-.144 1.3-.284 1.95-.42l-.206-.979c-.652.137-1.305.278-1.96.423l.216.976zm3.892-.816c.658-.13 1.314-.255 1.97-.377l-.183-.983c-.659.122-1.32.249-1.98.38l.193.98zm3.933-.728c.653-.113 1.306-.221 1.958-.326l-.158-.987c-.656.105-1.313.214-1.97.328l.17.985zm3.936-.63c.66-.097 1.317-.19 1.975-.278l-.133-.991c-.662.089-1.325.182-1.988.28l.146.99zm3.946-.53c.663-.08 1.324-.157 1.986-.228l-.108-.994c-.665.072-1.332.148-1.998.229l.12.993zm3.97-.43c.66-.062 1.321-.12 1.981-.174L92.4.993a151.4 151.4 0 00-1.995.176l.095.995zm3.972-.323a148.2 148.2 0 011.99-.122L96.408.72c-.668.036-1.336.077-2.004.123l.068.998zm3.98-.218c.663-.027 1.328-.05 1.992-.068l-.027-1c-.67.019-1.338.042-2.007.07l.041.998zm3.985-.109c.665-.01 1.329-.014 1.994-.014l-.001-1c-.669 0-1.338.005-2.007.014l.014 1zm3.986-.001c.664.009 1.328.022 1.993.04l.027-1a148.11 148.11 0 00-2.007-.04l-.013 1zm3.988.107c.662.027 1.324.058 1.987.094l.054-.999A149.09 149.09 0 00110.45.62l-.04 1zm3.977.214c.664.045 1.328.094 1.993.147l.08-.997c-.669-.053-1.338-.103-2.006-.148l-.067.998zm3.974.32c.66.061 1.321.127 1.983.198l.106-.994c-.666-.071-1.331-.138-1.996-.2l-.093.995zm3.971.423c.656.078 1.313.16 1.971.248l.131-.992a160.57 160.57 0 00-1.983-.25l-.119.994zm3.945.521c.659.096 1.319.195 1.98.3l.156-.988c-.665-.105-1.329-.205-1.992-.301l-.144.99zm3.941.62c.653.11 1.307.225 1.962.344l.179-.984c-.659-.12-1.317-.235-1.974-.346l-.167.986zm3.931.713c.649.126 1.299.256 1.951.39l.201-.98c-.655-.135-1.309-.265-1.962-.391l-.19.981zm3.898.8c.65.14 1.302.285 1.955.434l.222-.975a183.38 183.38 0 00-1.965-.437l-.212.978zm3.897.887c.642.154 1.285.311 1.93.472l.242-.97c-.648-.162-1.295-.32-1.94-.474l-.232.972zm3.869.966c.644.168 1.289.34 1.935.514l.262-.965a206.79 206.79 0 00-1.945-.516l-.252.967zm3.847 1.041c.638.18 1.279.363 1.92.55l.28-.961a217.12 217.12 0 00-1.93-.552l-.27.963zm3.851 1.12c.629.189 1.26.381 1.893.577l.295-.955a226.06 226.06 0 00-1.9-.58l-.288.958zm3.793 1.175c.635.203 1.272.409 1.911.618l.312-.95a241.18 241.18 0 00-1.919-.62l-.304.952zm3.803 1.247c.625.21 1.251.424 1.879.641l.327-.945c-.631-.218-1.26-.432-1.886-.643l-.32.947zm3.769 1.302c.631.223 1.263.45 1.898.679l.34-.94c-.637-.23-1.272-.458-1.905-.682l-.333.943zm3.753 1.358c.621.229 1.243.461 1.867.697l.353-.936c-.626-.236-1.25-.47-1.873-.7l-.347.939zm3.745 1.413c.62.238 1.241.48 1.865.724l.365-.931a323.97 323.97 0 00-1.871-.727l-.359.934zm3.707 1.453c.616.246 1.234.494 1.854.746l.376-.926c-.621-.253-1.241-.502-1.859-.749l-.371.929zm3.72 1.51c.61.252 1.222.506 1.835.763l.387-.922c-.615-.258-1.229-.513-1.841-.765l-.381.924zm3.665 1.535c.611.26 1.225.524 1.84.79l.397-.92c-.617-.265-1.233-.529-1.846-.79l-.391.92zm3.693 1.594c.602.263 1.207.53 1.813.798l.405-.914a338.66 338.66 0 00-1.817-.8l-.401.916zm3.628 1.607c.607.273 1.216.547 1.827.825l.413-.91a317.84 317.84 0 00-1.831-.827l-.409.912zm3.666 1.665c.597.274 1.196.55 1.796.83l.422-.908c-.603-.28-1.203-.556-1.801-.831l-.417.909zm3.597 1.67c.602.282 1.206.567 1.812.854l.429-.903c-.608-.288-1.213-.574-1.816-.857l-.425.906zm3.637 1.723l1.789.86.435-.9c-.6-.29-1.197-.577-1.793-.862l-.431.902zm3.574 1.727c.597.29 1.196.584 1.797.88l.441-.898c-.602-.296-1.202-.59-1.8-.881l-.438.899zm3.606 1.772c.303.15.606.3.909.452l.446-.896-.911-.452-.444.896z" fill="#fff"/></svg>