<svg width="25" height="105" fill="none" xmlns="http://www.w3.org/2000/svg"><path d="M23.476 104.153a.5.5 0 01-.629.323l-4.284-1.376a.5.5 0 01.306-.952l3.808 1.223 1.223-3.808a.5.5 0 01.952.305l-1.376 4.285zM12.381 1.235c-.161.302-.32.604-.477.904l-.887-.463.48-.91.884.469zm-1.396 2.698c-.304.606-.6 1.208-.889 1.808l-.901-.434c.29-.604.59-1.212.896-1.823l.894.449zM9.24 7.56c-.284.617-.559 1.23-.826 1.84L7.498 9c.27-.616.547-1.235.833-1.858l.909.418zm-1.612 3.686c-.26.628-.512 1.253-.755 1.874l-.931-.364c.245-.627.499-1.258.762-1.893l.924.383zM6.166 14.99a89.5 89.5 0 00-.674 1.908l-.947-.322c.218-.64.445-1.283.682-1.93l.939.344zm-1.298 3.813a82.131 82.131 0 00-.58 1.929l-.961-.276c.186-.648.382-1.299.587-1.953l.954.3zm-1.11 3.868c-.169.651-.328 1.3-.477 1.945l-.975-.226c.152-.653.313-1.31.484-1.97l.968.251zm-.904 3.915c-.134.66-.257 1.317-.37 1.971l-.985-.17c.114-.664.24-1.33.375-1.999l.98.198zm-.683 3.954c-.095.667-.18 1.332-.255 1.995l-.993-.112c.075-.673.162-1.347.258-2.024l.99.141zm-.449 3.99c-.055.67-.1 1.338-.134 2.004l-.998-.052c.034-.676.08-1.354.136-2.034l.996.082zm-.207 4.01c-.014.67-.017 1.34-.011 2.007l-1 .01a66.983 66.983 0 01.012-2.037l1 .02zm.038 4.014c.027.67.063 1.338.11 2.005l-.998.07a68.722 68.722 0 01-.111-2.035l1-.04zm.277 4.006c.066.666.141 1.331.226 1.996l-.992.127a72.289 72.289 0 01-.229-2.025l.995-.098zm.506 3.985c.102.66.214 1.321.334 1.982l-.984.18c-.122-.67-.234-1.34-.338-2.01l.988-.152zm.718 3.956c.136.653.28 1.307.432 1.962l-.974.227a85.53 85.53 0 01-.437-1.985l.98-.204zm.91 3.918c.167.646.34 1.294.522 1.943l-.964.27a95.723 95.723 0 01-.526-1.965l.969-.248zm1.082 3.874c.192.641.392 1.283.599 1.927l-.952.306c-.209-.65-.41-1.298-.605-1.945l.958-.288zm1.23 3.837c.215.631.437 1.265.664 1.901l-.941.337c-.23-.64-.453-1.28-.67-1.916l.947-.323zm1.36 3.799c.234.623.474 1.248.719 1.876l-.932.364A148.97 148.97 0 016.7 70.28l.936-.351zm1.466 3.754c.25.618.506 1.24.768 1.863l-.923.386c-.262-.627-.52-1.252-.772-1.874l.927-.375zm1.556 3.72c.265.615.535 1.233.81 1.854l-.915.404c-.276-.624-.547-1.245-.814-1.863l.919-.396zm1.63 3.69c.278.612.559 1.227.844 1.845l-.908.42c-.286-.62-.568-1.238-.846-1.852l.91-.412zm1.693 3.668c.286.607.575 1.217.868 1.83l-.903.431a337.61 337.61 0 01-.87-1.836l.905-.425zm1.742 3.647c.292.603.587 1.209.886 1.818l-.898.44c-.3-.61-.596-1.218-.888-1.823l.9-.435zm1.779 3.63c.297.6.597 1.203.9 1.81l-.894.447c-.304-.608-.605-1.212-.902-1.813l.896-.444zm1.807 3.617c.302.597.605 1.199.912 1.803l-.892.452-.913-1.805.893-.45zm1.829 3.607l.919 1.8-.89.455c-.31-.604-.616-1.204-.92-1.801l.89-.454zm1.841 3.6l.467.909-.89.456-.466-.908.89-.457z" fill="#fff"/></svg>