<svg width="535" height="602" fill="none" xmlns="http://www.w3.org/2000/svg"><circle cx="177.751" cy="317" r="3" fill="#5F5F5F" fill-opacity=".1"/><circle cx="185.751" cy="317" r="3" fill="#5F5F5F" fill-opacity=".1"/><circle cx="193.751" cy="317" r="3" fill="#5F5F5F" fill-opacity=".1"/><circle cx="201.751" cy="317" r="3" fill="#5F5F5F" fill-opacity=".1"/><circle cx="209.751" cy="317" r="3" fill="#5F5F5F" fill-opacity=".1"/><circle cx="217.751" cy="317" r="3" fill="#5F5F5F" fill-opacity=".1"/><circle cx="177.751" cy="325" r="3" fill="#5F5F5F" fill-opacity=".1"/><circle cx="185.751" cy="325" r="3" fill="#5F5F5F" fill-opacity=".1"/><circle cx="193.751" cy="325" r="3" fill="#5F5F5F" fill-opacity=".1"/><circle cx="201.751" cy="325" r="3" fill="#5F5F5F" fill-opacity=".1"/><circle cx="209.751" cy="325" r="3" fill="#5F5F5F" fill-opacity=".1"/><circle cx="217.751" cy="325" r="3" fill="#5F5F5F" fill-opacity=".1"/><circle cx="177.751" cy="333" r="3" fill="#5F5F5F" fill-opacity=".1"/><circle cx="185.751" cy="333" r="3" fill="#5F5F5F" fill-opacity=".1"/><circle cx="193.751" cy="333" r="3" fill="#5F5F5F" fill-opacity=".1"/><circle cx="201.751" cy="333" r="3" fill="#5F5F5F" fill-opacity=".1"/><circle cx="209.751" cy="333" r="3" fill="#5F5F5F" fill-opacity=".1"/><circle cx="217.751" cy="333" r="3" fill="#5F5F5F" fill-opacity=".1"/><circle cx="177.751" cy="341" r="3" fill="#5F5F5F" fill-opacity=".1"/><circle cx="185.751" cy="341" r="3" fill="#5F5F5F" fill-opacity=".1"/><circle cx="193.751" cy="341" r="3" fill="#5F5F5F" fill-opacity=".1"/><circle cx="201.751" cy="341" r="3" fill="#5F5F5F" fill-opacity=".1"/><circle cx="209.751" cy="341" r="3" fill="#5F5F5F" fill-opacity=".1"/><circle cx="217.751" cy="341" r="3" fill="#5F5F5F" fill-opacity=".1"/><circle cx="177.751" cy="349" r="3" fill="#5F5F5F" fill-opacity=".1"/><circle cx="185.751" cy="349" r="3" fill="#5F5F5F" fill-opacity=".1"/><circle cx="193.751" cy="349" r="3" fill="#5F5F5F" fill-opacity=".1"/><circle cx="201.751" cy="349" r="3" fill="#5F5F5F" fill-opacity=".1"/><circle cx="209.751" cy="349" r="3" fill="#5F5F5F" fill-opacity=".1"/><circle cx="217.751" cy="349" r="3" fill="#5F5F5F" fill-opacity=".1"/><circle cx="177.751" cy="357" r="3" fill="#5F5F5F" fill-opacity=".1"/><circle cx="185.751" cy="357" r="3" fill="#5F5F5F" fill-opacity=".1"/><circle cx="193.751" cy="357" r="3" fill="#5F5F5F" fill-opacity=".1"/><circle cx="201.751" cy="357" r="3" fill="#5F5F5F" fill-opacity=".1"/><circle cx="209.751" cy="357" r="3" fill="#5F5F5F" fill-opacity=".1"/><circle cx="217.751" cy="357" r="3" fill="#5F5F5F" fill-opacity=".1"/><circle cx="177.751" cy="365" r="3" fill="#5F5F5F" fill-opacity=".1"/><circle cx="185.751" cy="365" r="3" fill="#5F5F5F" fill-opacity=".1"/><circle cx="193.751" cy="365" r="3" fill="#5F5F5F" fill-opacity=".1"/><circle cx="201.751" cy="365" r="3" fill="#5F5F5F" fill-opacity=".1"/><circle cx="209.751" cy="365" r="3" fill="#5F5F5F" fill-opacity=".1"/><circle cx="217.751" cy="365" r="3" fill="#5F5F5F" fill-opacity=".1"/><circle cx="177.751" cy="373" r="3" fill="#5F5F5F" fill-opacity=".1"/><circle cx="185.751" cy="373" r="3" fill="#5F5F5F" fill-opacity=".1"/><circle cx="193.751" cy="373" r="3" fill="#5F5F5F" fill-opacity=".1"/><circle cx="201.751" cy="373" r="3" fill="#5F5F5F" fill-opacity=".1"/><circle cx="209.751" cy="373" r="3" fill="#5F5F5F" fill-opacity=".1"/><circle cx="217.751" cy="373" r="3" fill="#5F5F5F" fill-opacity=".1"/><circle cx="225.751" cy="293" r="3" fill="#5F5F5F" fill-opacity=".1"/><circle cx="233.751" cy="293" r="3" fill="#5F5F5F" fill-opacity=".1"/><circle cx="241.751" cy="293" r="3" fill="#5F5F5F" fill-opacity=".1"/><circle cx="249.751" cy="293" r="3" fill="#5F5F5F" fill-opacity=".1"/><circle cx="257.751" cy="293" r="3" fill="#5F5F5F" fill-opacity=".1"/><circle cx="265.751" cy="293" r="3" fill="#5F5F5F" fill-opacity=".1"/><circle cx="225.751" cy="301" r="3" fill="#5F5F5F" fill-opacity=".1"/><circle cx="233.751" cy="301" r="3" fill="#5F5F5F" fill-opacity=".1"/><circle cx="241.751" cy="301" r="3" fill="#5F5F5F" fill-opacity=".1"/><circle cx="249.751" cy="301" r="3" fill="#5F5F5F" fill-opacity=".1"/><circle cx="257.751" cy="301" r="3" fill="#5F5F5F" fill-opacity=".1"/><circle cx="265.751" cy="301" r="3" fill="#5F5F5F" fill-opacity=".1"/><circle cx="225.751" cy="309" r="3" fill="#5F5F5F" fill-opacity=".1"/><circle cx="233.751" cy="309" r="3" fill="#5F5F5F" fill-opacity=".1"/><circle cx="241.751" cy="309" r="3" fill="#5F5F5F" fill-opacity=".1"/><circle cx="249.751" cy="309" r="3" fill="#5F5F5F" fill-opacity=".1"/><circle cx="257.751" cy="309" r="3" fill="#5F5F5F" fill-opacity=".1"/><circle cx="265.751" cy="309" r="3" fill="#5F5F5F" fill-opacity=".1"/><circle cx="225.751" cy="317" r="3" fill="#5F5F5F" fill-opacity=".1"/><circle cx="233.751" cy="317" r="3" fill="#5F5F5F" fill-opacity=".1"/><circle cx="241.751" cy="317" r="3" fill="#5F5F5F" fill-opacity=".1"/><circle cx="249.751" cy="317" r="3" fill="#5F5F5F" fill-opacity=".1"/><circle cx="257.751" cy="317" r="3" fill="#5F5F5F" fill-opacity=".1"/><circle cx="265.751" cy="317" r="3" fill="#5F5F5F" fill-opacity=".1"/><circle cx="225.751" cy="325" r="3" fill="#5F5F5F" fill-opacity=".1"/><circle cx="233.751" cy="325" r="3" fill="#5F5F5F" fill-opacity=".1"/><circle cx="241.751" cy="325" r="3" fill="#5F5F5F" fill-opacity=".1"/><circle cx="249.751" cy="325" r="3" fill="#5F5F5F" fill-opacity=".1"/><circle cx="257.751" cy="325" r="3" fill="#5F5F5F" fill-opacity=".1"/><circle cx="265.751" cy="325" r="3" fill="#5F5F5F" fill-opacity=".1"/><circle cx="225.751" cy="333" r="3" fill="#5F5F5F" fill-opacity=".1"/><circle cx="233.751" cy="333" r="3" fill="#5F5F5F" fill-opacity=".1"/><circle cx="241.751" cy="333" r="3" fill="#5F5F5F" fill-opacity=".1"/><circle cx="249.751" cy="333" r="3" fill="#5F5F5F" fill-opacity=".1"/><circle cx="257.751" cy="333" r="3" fill="#5F5F5F" fill-opacity=".1"/><circle cx="265.751" cy="333" r="3" fill="#5F5F5F" fill-opacity=".1"/><circle cx="225.751" cy="341" r="3" fill="#5F5F5F" fill-opacity=".1"/><circle cx="233.751" cy="341" r="3" fill="#5F5F5F" fill-opacity=".1"/><circle cx="241.751" cy="341" r="3" fill="#5F5F5F" fill-opacity=".1"/><circle cx="249.751" cy="341" r="3" fill="#5F5F5F" fill-opacity=".1"/><circle cx="257.751" cy="341" r="3" fill="#5F5F5F" fill-opacity=".1"/><circle cx="265.751" cy="341" r="3" fill="#5F5F5F" fill-opacity=".1"/><circle cx="225.751" cy="349" r="3" fill="#5F5F5F" fill-opacity=".1"/><circle cx="233.751" cy="349" r="3" fill="#5F5F5F" fill-opacity=".1"/><circle cx="241.751" cy="349" r="3" fill="#5F5F5F" fill-opacity=".1"/><circle cx="249.751" cy="349" r="3" fill="#5F5F5F" fill-opacity=".1"/><circle cx="257.751" cy="349" r="3" fill="#5F5F5F" fill-opacity=".1"/><circle cx="265.751" cy="349" r="3" fill="#5F5F5F" fill-opacity=".1"/><circle cx="177.751" cy="253" r="3" fill="#5F5F5F" fill-opacity=".1"/><circle cx="185.751" cy="253" r="3" fill="#5F5F5F" fill-opacity=".1"/><circle cx="193.751" cy="253" r="3" fill="#5F5F5F" fill-opacity=".1"/><circle cx="201.751" cy="253" r="3" fill="#5F5F5F" fill-opacity=".1"/><circle cx="209.751" cy="253" r="3" fill="#5F5F5F" fill-opacity=".1"/><circle cx="217.751" cy="253" r="3" fill="#5F5F5F" fill-opacity=".1"/><circle cx="177.751" cy="261" r="3" fill="#5F5F5F" fill-opacity=".1"/><circle cx="185.751" cy="261" r="3" fill="#5F5F5F" fill-opacity=".1"/><circle cx="193.751" cy="261" r="3" fill="#5F5F5F" fill-opacity=".1"/><circle cx="201.751" cy="261" r="3" fill="#5F5F5F" fill-opacity=".1"/><circle cx="209.751" cy="261" r="3" fill="#5F5F5F" fill-opacity=".1"/><circle cx="217.751" cy="261" r="3" fill="#5F5F5F" fill-opacity=".1"/><circle cx="177.751" cy="269" r="3" fill="#5F5F5F" fill-opacity=".1"/><circle cx="185.751" cy="269" r="3" fill="#5F5F5F" fill-opacity=".1"/><circle cx="193.751" cy="269" r="3" fill="#5F5F5F" fill-opacity=".1"/><circle cx="201.751" cy="269" r="3" fill="#5F5F5F" fill-opacity=".1"/><circle cx="209.751" cy="269" r="3" fill="#5F5F5F" fill-opacity=".1"/><circle cx="217.751" cy="269" r="3" fill="#5F5F5F" fill-opacity=".1"/><circle cx="177.751" cy="277" r="3" fill="#5F5F5F" fill-opacity=".1"/><circle cx="185.751" cy="277" r="3" fill="#5F5F5F" fill-opacity=".1"/><circle cx="193.751" cy="277" r="3" fill="#5F5F5F" fill-opacity=".1"/><circle cx="201.751" cy="277" r="3" fill="#5F5F5F" fill-opacity=".1"/><circle cx="209.751" cy="277" r="3" fill="#5F5F5F" fill-opacity=".1"/><circle cx="217.751" cy="277" r="3" fill="#5F5F5F" fill-opacity=".1"/><circle cx="177.751" cy="285" r="3" fill="#5F5F5F" fill-opacity=".1"/><circle cx="185.751" cy="285" r="3" fill="#5F5F5F" fill-opacity=".1"/><circle cx="193.751" cy="285" r="3" fill="#5F5F5F" fill-opacity=".1"/><circle cx="201.751" cy="285" r="3" fill="#5F5F5F" fill-opacity=".1"/><circle cx="209.751" cy="285" r="3" fill="#5F5F5F" fill-opacity=".1"/><circle cx="217.751" cy="285" r="3" fill="#5F5F5F" fill-opacity=".1"/><circle cx="177.751" cy="293" r="3" fill="#5F5F5F" fill-opacity=".1"/><circle cx="185.751" cy="293" r="3" fill="#5F5F5F" fill-opacity=".1"/><circle cx="193.751" cy="293" r="3" fill="#5F5F5F" fill-opacity=".1"/><circle cx="201.751" cy="293" r="3" fill="#5F5F5F" fill-opacity=".1"/><circle cx="209.751" cy="293" r="3" fill="#5F5F5F" fill-opacity=".1"/><circle cx="217.751" cy="293" r="3" fill="#5F5F5F" fill-opacity=".1"/><circle cx="177.751" cy="301" r="3" fill="#5F5F5F" fill-opacity=".1"/><circle cx="185.751" cy="301" r="3" fill="#5F5F5F" fill-opacity=".1"/><circle cx="193.751" cy="301" r="3" fill="#5F5F5F" fill-opacity=".1"/><circle cx="201.751" cy="301" r="3" fill="#5F5F5F" fill-opacity=".1"/><circle cx="209.751" cy="301" r="3" fill="#5F5F5F" fill-opacity=".1"/><circle cx="217.751" cy="301" r="3" fill="#5F5F5F" fill-opacity=".1"/><circle cx="177.751" cy="309" r="3" fill="#5F5F5F" fill-opacity=".1"/><circle cx="185.751" cy="309" r="3" fill="#5F5F5F" fill-opacity=".1"/><circle cx="193.751" cy="309" r="3" fill="#5F5F5F" fill-opacity=".1"/><circle cx="201.751" cy="309" r="3" fill="#5F5F5F" fill-opacity=".1"/><circle cx="209.751" cy="309" r="3" fill="#5F5F5F" fill-opacity=".1"/><circle cx="217.751" cy="309" r="3" fill="#5F5F5F" fill-opacity=".1"/><circle cx="273.751" cy="293" r="3" fill="#5F5F5F" fill-opacity=".1"/><circle cx="281.751" cy="293" r="3" fill="#5F5F5F" fill-opacity=".1"/><circle cx="289.751" cy="293" r="3" fill="#5F5F5F" fill-opacity=".1"/><circle cx="297.751" cy="293" r="3" fill="#5F5F5F" fill-opacity=".1"/><circle cx="305.751" cy="293" r="3" fill="#5F5F5F" fill-opacity=".1"/><circle cx="313.751" cy="293" r="3" fill="#5F5F5F" fill-opacity=".1"/><circle cx="273.751" cy="301" r="3" fill="#5F5F5F" fill-opacity=".1"/><circle cx="281.751" cy="301" r="3" fill="#5F5F5F" fill-opacity=".1"/><circle cx="289.751" cy="301" r="3" fill="#5F5F5F" fill-opacity=".1"/><circle cx="297.751" cy="301" r="3" fill="#5F5F5F" fill-opacity=".1"/><circle cx="305.751" cy="301" r="3" fill="#5F5F5F" fill-opacity=".1"/><circle cx="313.751" cy="301" r="3" fill="#5F5F5F" fill-opacity=".1"/><circle cx="273.751" cy="309" r="3" fill="#5F5F5F" fill-opacity=".1"/><circle cx="281.751" cy="309" r="3" fill="#5F5F5F" fill-opacity=".1"/><circle cx="289.751" cy="309" r="3" fill="#5F5F5F" fill-opacity=".1"/><circle cx="297.751" cy="309" r="3" fill="#5F5F5F" fill-opacity=".1"/><circle cx="305.751" cy="309" r="3" fill="#5F5F5F" fill-opacity=".1"/><circle cx="313.751" cy="309" r="3" fill="#5F5F5F" fill-opacity=".1"/><circle cx="273.751" cy="317" r="3" fill="#5F5F5F" fill-opacity=".1"/><circle cx="281.751" cy="317" r="3" fill="#5F5F5F" fill-opacity=".1"/><circle cx="289.751" cy="317" r="3" fill="#5F5F5F" fill-opacity=".1"/><circle cx="297.751" cy="317" r="3" fill="#5F5F5F" fill-opacity=".1"/><circle cx="305.751" cy="317" r="3" fill="#5F5F5F" fill-opacity=".1"/><circle cx="313.751" cy="317" r="3" fill="#5F5F5F" fill-opacity=".1"/><circle cx="273.751" cy="325" r="3" fill="#5F5F5F" fill-opacity=".1"/><circle cx="281.751" cy="325" r="3" fill="#5F5F5F" fill-opacity=".1"/><circle cx="289.751" cy="325" r="3" fill="#5F5F5F" fill-opacity=".1"/><circle cx="297.751" cy="325" r="3" fill="#5F5F5F" fill-opacity=".1"/><circle cx="305.751" cy="325" r="3" fill="#5F5F5F" fill-opacity=".1"/><circle cx="313.751" cy="325" r="3" fill="#5F5F5F" fill-opacity=".1"/><circle cx="273.751" cy="333" r="3" fill="#5F5F5F" fill-opacity=".1"/><circle cx="281.751" cy="333" r="3" fill="#5F5F5F" fill-opacity=".1"/><circle cx="289.751" cy="333" r="3" fill="#5F5F5F" fill-opacity=".1"/><circle cx="297.751" cy="333" r="3" fill="#5F5F5F" fill-opacity=".1"/><circle cx="305.751" cy="333" r="3" fill="#5F5F5F" fill-opacity=".1"/><circle cx="313.751" cy="333" r="3" fill="#5F5F5F" fill-opacity=".1"/><circle cx="273.751" cy="341" r="3" fill="#5F5F5F" fill-opacity=".1"/><circle cx="281.751" cy="341" r="3" fill="#5F5F5F" fill-opacity=".1"/><circle cx="289.751" cy="341" r="3" fill="#5F5F5F" fill-opacity=".1"/><circle cx="297.751" cy="341" r="3" fill="#5F5F5F" fill-opacity=".1"/><circle cx="305.751" cy="341" r="3" fill="#5F5F5F" fill-opacity=".1"/><circle cx="313.751" cy="341" r="3" fill="#5F5F5F" fill-opacity=".1"/><circle cx="273.751" cy="349" r="3" fill="#5F5F5F" fill-opacity=".1"/><circle cx="281.751" cy="349" r="3" fill="#5F5F5F" fill-opacity=".1"/><circle cx="289.751" cy="349" r="3" fill="#5F5F5F" fill-opacity=".1"/><circle cx="297.751" cy="349" r="3" fill="#5F5F5F" fill-opacity=".1"/><circle cx="305.751" cy="349" r="3" fill="#5F5F5F" fill-opacity=".1"/><circle cx="313.751" cy="349" r="3" fill="#5F5F5F" fill-opacity=".1"/><circle cx="129.751" cy="317" r="3" fill="#5F5F5F" fill-opacity=".1"/><circle cx="137.751" cy="317" r="3" fill="#5F5F5F" fill-opacity=".1"/><circle cx="145.751" cy="317" r="3" fill="#5F5F5F" fill-opacity=".1"/><circle cx="153.751" cy="317" r="3" fill="#5F5F5F" fill-opacity=".1"/><circle cx="161.751" cy="317" r="3" fill="#5F5F5F" fill-opacity=".1"/><circle cx="169.751" cy="317" r="3" fill="#5F5F5F" fill-opacity=".1"/><circle cx="129.751" cy="325" r="3" fill="#5F5F5F" fill-opacity=".1"/><circle cx="137.751" cy="325" r="3" fill="#5F5F5F" fill-opacity=".1"/><circle cx="145.751" cy="325" r="3" fill="#5F5F5F" fill-opacity=".1"/><circle cx="153.751" cy="325" r="3" fill="#5F5F5F" fill-opacity=".1"/><circle cx="161.751" cy="325" r="3" fill="#5F5F5F" fill-opacity=".1"/><circle cx="169.751" cy="325" r="3" fill="#5F5F5F" fill-opacity=".1"/><circle cx="129.751" cy="333" r="3" fill="#5F5F5F" fill-opacity=".1"/><circle cx="137.751" cy="333" r="3" fill="#5F5F5F" fill-opacity=".1"/><circle cx="145.751" cy="333" r="3" fill="#5F5F5F" fill-opacity=".1"/><circle cx="153.751" cy="333" r="3" fill="#5F5F5F" fill-opacity=".1"/><circle cx="161.751" cy="333" r="3" fill="#5F5F5F" fill-opacity=".1"/><circle cx="169.751" cy="333" r="3" fill="#5F5F5F" fill-opacity=".1"/><circle cx="129.751" cy="341" r="3" fill="#5F5F5F" fill-opacity=".1"/><circle cx="137.751" cy="341" r="3" fill="#5F5F5F" fill-opacity=".1"/><circle cx="145.751" cy="341" r="3" fill="#5F5F5F" fill-opacity=".1"/><circle cx="153.751" cy="341" r="3" fill="#5F5F5F" fill-opacity=".1"/><circle cx="161.751" cy="341" r="3" fill="#5F5F5F" fill-opacity=".1"/><circle cx="169.751" cy="341" r="3" fill="#5F5F5F" fill-opacity=".1"/><circle cx="129.751" cy="349" r="3" fill="#5F5F5F" fill-opacity=".1"/><circle cx="137.751" cy="349" r="3" fill="#5F5F5F" fill-opacity=".1"/><circle cx="145.751" cy="349" r="3" fill="#5F5F5F" fill-opacity=".1"/><circle cx="153.751" cy="349" r="3" fill="#5F5F5F" fill-opacity=".1"/><circle cx="161.751" cy="349" r="3" fill="#5F5F5F" fill-opacity=".1"/><circle cx="169.751" cy="349" r="3" fill="#5F5F5F" fill-opacity=".1"/><circle cx="129.751" cy="357" r="3" fill="#5F5F5F" fill-opacity=".1"/><circle cx="137.751" cy="357" r="3" fill="#5F5F5F" fill-opacity=".1"/><circle cx="145.751" cy="357" r="3" fill="#5F5F5F" fill-opacity=".1"/><circle cx="153.751" cy="357" r="3" fill="#5F5F5F" fill-opacity=".1"/><circle cx="161.751" cy="357" r="3" fill="#5F5F5F" fill-opacity=".1"/><circle cx="169.751" cy="357" r="3" fill="#5F5F5F" fill-opacity=".1"/><circle cx="129.751" cy="365" r="3" fill="#5F5F5F" fill-opacity=".1"/><circle cx="137.751" cy="365" r="3" fill="#5F5F5F" fill-opacity=".1"/><circle cx="145.751" cy="365" r="3" fill="#5F5F5F" fill-opacity=".1"/><circle cx="153.751" cy="365" r="3" fill="#5F5F5F" fill-opacity=".1"/><circle cx="161.751" cy="365" r="3" fill="#5F5F5F" fill-opacity=".1"/><circle cx="169.751" cy="365" r="3" fill="#5F5F5F" fill-opacity=".1"/><circle cx="129.751" cy="373" r="3" fill="#5F5F5F" fill-opacity=".1"/><circle cx="137.751" cy="373" r="3" fill="#5F5F5F" fill-opacity=".1"/><circle cx="145.751" cy="373" r="3" fill="#5F5F5F" fill-opacity=".1"/><circle cx="153.751" cy="373" r="3" fill="#5F5F5F" fill-opacity=".1"/><circle cx="161.751" cy="373" r="3" fill="#5F5F5F" fill-opacity=".1"/><circle cx="169.751" cy="373" r="3" fill="#5F5F5F" fill-opacity=".1"/><path d="M324.686 175.668c-35.115-23.028-29.835-51.743-56.351-78.667-33.615-34.133-59.22-91.03-101.62-68.713-27.787 14.625-20.876 44.41-36.458 71.675-33.884 59.289-74.465 79.448-102.332 141.792-26.25 58.727-60.196 100.417-37.166 160.471 31.068 81.012 123.298 61.028 208.759 75.972 47.737 8.348 117.791 69.646 157.474 41.81 62.368-43.751 11.581-71.806 16.122-110.319 4.541-38.513 90.499-80.244 78.266-150.935-9.083-52.497-101.045-66.265-126.694-83.086z" fill="url(#paint0_linear)"/><defs><linearGradient id="paint0_linear" x1="151.832" y1="258.01" x2="381.873" y2="231.671" gradientUnits="userSpaceOnUse"><stop stop-color="#fff" stop-opacity=".02"/><stop offset="1" stop-color="#fff" stop-opacity="0"/></linearGradient></defs></svg>