<svg width="591" height="601" fill="none" xmlns="http://www.w3.org/2000/svg"><circle cx="233.748" cy="316.093" r="3" fill="#5F5F5F" fill-opacity=".1"/><circle cx="241.748" cy="316.093" r="3" fill="#5F5F5F" fill-opacity=".1"/><circle cx="249.748" cy="316.093" r="3" fill="#5F5F5F" fill-opacity=".1"/><circle cx="257.748" cy="316.093" r="3" fill="#5F5F5F" fill-opacity=".1"/><circle cx="265.748" cy="316.093" r="3" fill="#5F5F5F" fill-opacity=".1"/><circle cx="273.748" cy="316.093" r="3" fill="#5F5F5F" fill-opacity=".1"/><circle cx="233.748" cy="324.093" r="3" fill="#5F5F5F" fill-opacity=".1"/><circle cx="241.748" cy="324.093" r="3" fill="#5F5F5F" fill-opacity=".1"/><circle cx="249.748" cy="324.093" r="3" fill="#5F5F5F" fill-opacity=".1"/><circle cx="257.748" cy="324.093" r="3" fill="#5F5F5F" fill-opacity=".1"/><circle cx="265.748" cy="324.093" r="3" fill="#5F5F5F" fill-opacity=".1"/><circle cx="273.748" cy="324.093" r="3" fill="#5F5F5F" fill-opacity=".1"/><circle cx="233.748" cy="332.093" r="3" fill="#5F5F5F" fill-opacity=".1"/><circle cx="241.748" cy="332.093" r="3" fill="#5F5F5F" fill-opacity=".1"/><circle cx="249.748" cy="332.093" r="3" fill="#5F5F5F" fill-opacity=".1"/><circle cx="257.748" cy="332.093" r="3" fill="#5F5F5F" fill-opacity=".1"/><circle cx="265.748" cy="332.093" r="3" fill="#5F5F5F" fill-opacity=".1"/><circle cx="273.748" cy="332.093" r="3" fill="#5F5F5F" fill-opacity=".1"/><circle cx="233.748" cy="340.093" r="3" fill="#5F5F5F" fill-opacity=".1"/><circle cx="241.748" cy="340.093" r="3" fill="#5F5F5F" fill-opacity=".1"/><circle cx="249.748" cy="340.093" r="3" fill="#5F5F5F" fill-opacity=".1"/><circle cx="257.748" cy="340.093" r="3" fill="#5F5F5F" fill-opacity=".1"/><circle cx="265.748" cy="340.093" r="3" fill="#5F5F5F" fill-opacity=".1"/><circle cx="273.748" cy="340.093" r="3" fill="#5F5F5F" fill-opacity=".1"/><circle cx="233.748" cy="348.093" r="3" fill="#5F5F5F" fill-opacity=".1"/><circle cx="241.748" cy="348.093" r="3" fill="#5F5F5F" fill-opacity=".1"/><circle cx="249.748" cy="348.093" r="3" fill="#5F5F5F" fill-opacity=".1"/><circle cx="257.748" cy="348.093" r="3" fill="#5F5F5F" fill-opacity=".1"/><circle cx="265.748" cy="348.093" r="3" fill="#5F5F5F" fill-opacity=".1"/><circle cx="273.748" cy="348.093" r="3" fill="#5F5F5F" fill-opacity=".1"/><circle cx="233.748" cy="356.093" r="3" fill="#5F5F5F" fill-opacity=".1"/><circle cx="241.748" cy="356.093" r="3" fill="#5F5F5F" fill-opacity=".1"/><circle cx="249.748" cy="356.093" r="3" fill="#5F5F5F" fill-opacity=".1"/><circle cx="257.748" cy="356.093" r="3" fill="#5F5F5F" fill-opacity=".1"/><circle cx="265.748" cy="356.093" r="3" fill="#5F5F5F" fill-opacity=".1"/><circle cx="273.748" cy="356.093" r="3" fill="#5F5F5F" fill-opacity=".1"/><circle cx="233.748" cy="364.093" r="3" fill="#5F5F5F" fill-opacity=".1"/><circle cx="241.748" cy="364.093" r="3" fill="#5F5F5F" fill-opacity=".1"/><circle cx="249.748" cy="364.093" r="3" fill="#5F5F5F" fill-opacity=".1"/><circle cx="257.748" cy="364.093" r="3" fill="#5F5F5F" fill-opacity=".1"/><circle cx="265.748" cy="364.093" r="3" fill="#5F5F5F" fill-opacity=".1"/><circle cx="273.748" cy="364.093" r="3" fill="#5F5F5F" fill-opacity=".1"/><circle cx="233.748" cy="372.093" r="3" fill="#5F5F5F" fill-opacity=".1"/><circle cx="241.748" cy="372.093" r="3" fill="#5F5F5F" fill-opacity=".1"/><circle cx="249.748" cy="372.093" r="3" fill="#5F5F5F" fill-opacity=".1"/><circle cx="257.748" cy="372.093" r="3" fill="#5F5F5F" fill-opacity=".1"/><circle cx="265.748" cy="372.093" r="3" fill="#5F5F5F" fill-opacity=".1"/><circle cx="273.748" cy="372.093" r="3" fill="#5F5F5F" fill-opacity=".1"/><circle cx="281.748" cy="292.093" r="3" fill="#5F5F5F" fill-opacity=".1"/><circle cx="289.748" cy="292.093" r="3" fill="#5F5F5F" fill-opacity=".1"/><circle cx="297.748" cy="292.093" r="3" fill="#5F5F5F" fill-opacity=".1"/><circle cx="305.748" cy="292.093" r="3" fill="#5F5F5F" fill-opacity=".1"/><circle cx="313.748" cy="292.093" r="3" fill="#5F5F5F" fill-opacity=".1"/><circle cx="321.748" cy="292.093" r="3" fill="#5F5F5F" fill-opacity=".1"/><circle cx="281.748" cy="300.093" r="3" fill="#5F5F5F" fill-opacity=".1"/><circle cx="289.748" cy="300.093" r="3" fill="#5F5F5F" fill-opacity=".1"/><circle cx="297.748" cy="300.093" r="3" fill="#5F5F5F" fill-opacity=".1"/><circle cx="305.748" cy="300.093" r="3" fill="#5F5F5F" fill-opacity=".1"/><circle cx="313.748" cy="300.093" r="3" fill="#5F5F5F" fill-opacity=".1"/><circle cx="321.748" cy="300.093" r="3" fill="#5F5F5F" fill-opacity=".1"/><circle cx="281.748" cy="308.093" r="3" fill="#5F5F5F" fill-opacity=".1"/><circle cx="289.748" cy="308.093" r="3" fill="#5F5F5F" fill-opacity=".1"/><circle cx="297.748" cy="308.093" r="3" fill="#5F5F5F" fill-opacity=".1"/><circle cx="305.748" cy="308.093" r="3" fill="#5F5F5F" fill-opacity=".1"/><circle cx="313.748" cy="308.093" r="3" fill="#5F5F5F" fill-opacity=".1"/><circle cx="321.748" cy="308.093" r="3" fill="#5F5F5F" fill-opacity=".1"/><circle cx="281.748" cy="316.093" r="3" fill="#5F5F5F" fill-opacity=".1"/><circle cx="289.748" cy="316.093" r="3" fill="#5F5F5F" fill-opacity=".1"/><circle cx="297.748" cy="316.093" r="3" fill="#5F5F5F" fill-opacity=".1"/><circle cx="305.748" cy="316.093" r="3" fill="#5F5F5F" fill-opacity=".1"/><circle cx="313.748" cy="316.093" r="3" fill="#5F5F5F" fill-opacity=".1"/><circle cx="321.748" cy="316.093" r="3" fill="#5F5F5F" fill-opacity=".1"/><circle cx="281.748" cy="324.093" r="3" fill="#5F5F5F" fill-opacity=".1"/><circle cx="289.748" cy="324.093" r="3" fill="#5F5F5F" fill-opacity=".1"/><circle cx="297.748" cy="324.093" r="3" fill="#5F5F5F" fill-opacity=".1"/><circle cx="305.748" cy="324.093" r="3" fill="#5F5F5F" fill-opacity=".1"/><circle cx="313.748" cy="324.093" r="3" fill="#5F5F5F" fill-opacity=".1"/><circle cx="321.748" cy="324.093" r="3" fill="#5F5F5F" fill-opacity=".1"/><circle cx="281.748" cy="332.093" r="3" fill="#5F5F5F" fill-opacity=".1"/><circle cx="289.748" cy="332.093" r="3" fill="#5F5F5F" fill-opacity=".1"/><circle cx="297.748" cy="332.093" r="3" fill="#5F5F5F" fill-opacity=".1"/><circle cx="305.748" cy="332.093" r="3" fill="#5F5F5F" fill-opacity=".1"/><circle cx="313.748" cy="332.093" r="3" fill="#5F5F5F" fill-opacity=".1"/><circle cx="321.748" cy="332.093" r="3" fill="#5F5F5F" fill-opacity=".1"/><circle cx="281.748" cy="340.093" r="3" fill="#5F5F5F" fill-opacity=".1"/><circle cx="289.748" cy="340.093" r="3" fill="#5F5F5F" fill-opacity=".1"/><circle cx="297.748" cy="340.093" r="3" fill="#5F5F5F" fill-opacity=".1"/><circle cx="305.748" cy="340.093" r="3" fill="#5F5F5F" fill-opacity=".1"/><circle cx="313.748" cy="340.093" r="3" fill="#5F5F5F" fill-opacity=".1"/><circle cx="321.748" cy="340.093" r="3" fill="#5F5F5F" fill-opacity=".1"/><circle cx="281.748" cy="348.093" r="3" fill="#5F5F5F" fill-opacity=".1"/><circle cx="289.748" cy="348.093" r="3" fill="#5F5F5F" fill-opacity=".1"/><circle cx="297.748" cy="348.093" r="3" fill="#5F5F5F" fill-opacity=".1"/><circle cx="305.748" cy="348.093" r="3" fill="#5F5F5F" fill-opacity=".1"/><circle cx="313.748" cy="348.093" r="3" fill="#5F5F5F" fill-opacity=".1"/><circle cx="321.748" cy="348.093" r="3" fill="#5F5F5F" fill-opacity=".1"/><circle cx="233.748" cy="252.093" r="3" fill="#5F5F5F" fill-opacity=".1"/><circle cx="241.748" cy="252.093" r="3" fill="#5F5F5F" fill-opacity=".1"/><circle cx="249.748" cy="252.093" r="3" fill="#5F5F5F" fill-opacity=".1"/><circle cx="257.748" cy="252.093" r="3" fill="#5F5F5F" fill-opacity=".1"/><circle cx="265.748" cy="252.093" r="3" fill="#5F5F5F" fill-opacity=".1"/><circle cx="273.748" cy="252.093" r="3" fill="#5F5F5F" fill-opacity=".1"/><circle cx="233.748" cy="260.093" r="3" fill="#5F5F5F" fill-opacity=".1"/><circle cx="241.748" cy="260.093" r="3" fill="#5F5F5F" fill-opacity=".1"/><circle cx="249.748" cy="260.093" r="3" fill="#5F5F5F" fill-opacity=".1"/><circle cx="257.748" cy="260.093" r="3" fill="#5F5F5F" fill-opacity=".1"/><circle cx="265.748" cy="260.093" r="3" fill="#5F5F5F" fill-opacity=".1"/><circle cx="273.748" cy="260.093" r="3" fill="#5F5F5F" fill-opacity=".1"/><circle cx="233.748" cy="268.093" r="3" fill="#5F5F5F" fill-opacity=".1"/><circle cx="241.748" cy="268.093" r="3" fill="#5F5F5F" fill-opacity=".1"/><circle cx="249.748" cy="268.093" r="3" fill="#5F5F5F" fill-opacity=".1"/><circle cx="257.748" cy="268.093" r="3" fill="#5F5F5F" fill-opacity=".1"/><circle cx="265.748" cy="268.093" r="3" fill="#5F5F5F" fill-opacity=".1"/><circle cx="273.748" cy="268.093" r="3" fill="#5F5F5F" fill-opacity=".1"/><circle cx="233.748" cy="276.093" r="3" fill="#5F5F5F" fill-opacity=".1"/><circle cx="241.748" cy="276.093" r="3" fill="#5F5F5F" fill-opacity=".1"/><circle cx="249.748" cy="276.093" r="3" fill="#5F5F5F" fill-opacity=".1"/><circle cx="257.748" cy="276.093" r="3" fill="#5F5F5F" fill-opacity=".1"/><circle cx="265.748" cy="276.093" r="3" fill="#5F5F5F" fill-opacity=".1"/><circle cx="273.748" cy="276.093" r="3" fill="#5F5F5F" fill-opacity=".1"/><circle cx="233.748" cy="284.093" r="3" fill="#5F5F5F" fill-opacity=".1"/><circle cx="241.748" cy="284.093" r="3" fill="#5F5F5F" fill-opacity=".1"/><circle cx="249.748" cy="284.093" r="3" fill="#5F5F5F" fill-opacity=".1"/><circle cx="257.748" cy="284.093" r="3" fill="#5F5F5F" fill-opacity=".1"/><circle cx="265.748" cy="284.093" r="3" fill="#5F5F5F" fill-opacity=".1"/><circle cx="273.748" cy="284.093" r="3" fill="#5F5F5F" fill-opacity=".1"/><circle cx="233.748" cy="292.093" r="3" fill="#5F5F5F" fill-opacity=".1"/><circle cx="241.748" cy="292.093" r="3" fill="#5F5F5F" fill-opacity=".1"/><circle cx="249.748" cy="292.093" r="3" fill="#5F5F5F" fill-opacity=".1"/><circle cx="257.748" cy="292.093" r="3" fill="#5F5F5F" fill-opacity=".1"/><circle cx="265.748" cy="292.093" r="3" fill="#5F5F5F" fill-opacity=".1"/><circle cx="273.748" cy="292.093" r="3" fill="#5F5F5F" fill-opacity=".1"/><circle cx="233.748" cy="300.093" r="3" fill="#5F5F5F" fill-opacity=".1"/><circle cx="241.748" cy="300.093" r="3" fill="#5F5F5F" fill-opacity=".1"/><circle cx="249.748" cy="300.093" r="3" fill="#5F5F5F" fill-opacity=".1"/><circle cx="257.748" cy="300.093" r="3" fill="#5F5F5F" fill-opacity=".1"/><circle cx="265.748" cy="300.093" r="3" fill="#5F5F5F" fill-opacity=".1"/><circle cx="273.748" cy="300.093" r="3" fill="#5F5F5F" fill-opacity=".1"/><circle cx="233.748" cy="308.093" r="3" fill="#5F5F5F" fill-opacity=".1"/><circle cx="241.748" cy="308.093" r="3" fill="#5F5F5F" fill-opacity=".1"/><circle cx="249.748" cy="308.093" r="3" fill="#5F5F5F" fill-opacity=".1"/><circle cx="257.748" cy="308.093" r="3" fill="#5F5F5F" fill-opacity=".1"/><circle cx="265.748" cy="308.093" r="3" fill="#5F5F5F" fill-opacity=".1"/><circle cx="273.748" cy="308.093" r="3" fill="#5F5F5F" fill-opacity=".1"/><circle cx="329.748" cy="292.093" r="3" fill="#5F5F5F" fill-opacity=".1"/><circle cx="337.748" cy="292.093" r="3" fill="#5F5F5F" fill-opacity=".1"/><circle cx="345.748" cy="292.093" r="3" fill="#5F5F5F" fill-opacity=".1"/><circle cx="353.748" cy="292.093" r="3" fill="#5F5F5F" fill-opacity=".1"/><circle cx="361.748" cy="292.093" r="3" fill="#5F5F5F" fill-opacity=".1"/><circle cx="369.748" cy="292.093" r="3" fill="#5F5F5F" fill-opacity=".1"/><circle cx="329.748" cy="300.093" r="3" fill="#5F5F5F" fill-opacity=".1"/><circle cx="337.748" cy="300.093" r="3" fill="#5F5F5F" fill-opacity=".1"/><circle cx="345.748" cy="300.093" r="3" fill="#5F5F5F" fill-opacity=".1"/><circle cx="353.748" cy="300.093" r="3" fill="#5F5F5F" fill-opacity=".1"/><circle cx="361.748" cy="300.093" r="3" fill="#5F5F5F" fill-opacity=".1"/><circle cx="369.748" cy="300.093" r="3" fill="#5F5F5F" fill-opacity=".1"/><circle cx="329.748" cy="308.093" r="3" fill="#5F5F5F" fill-opacity=".1"/><circle cx="337.748" cy="308.093" r="3" fill="#5F5F5F" fill-opacity=".1"/><circle cx="345.748" cy="308.093" r="3" fill="#5F5F5F" fill-opacity=".1"/><circle cx="353.748" cy="308.093" r="3" fill="#5F5F5F" fill-opacity=".1"/><circle cx="361.748" cy="308.093" r="3" fill="#5F5F5F" fill-opacity=".1"/><circle cx="369.748" cy="308.093" r="3" fill="#5F5F5F" fill-opacity=".1"/><circle cx="329.748" cy="316.093" r="3" fill="#5F5F5F" fill-opacity=".1"/><circle cx="337.748" cy="316.093" r="3" fill="#5F5F5F" fill-opacity=".1"/><circle cx="345.748" cy="316.093" r="3" fill="#5F5F5F" fill-opacity=".1"/><circle cx="353.748" cy="316.093" r="3" fill="#5F5F5F" fill-opacity=".1"/><circle cx="361.748" cy="316.093" r="3" fill="#5F5F5F" fill-opacity=".1"/><circle cx="369.748" cy="316.093" r="3" fill="#5F5F5F" fill-opacity=".1"/><circle cx="329.748" cy="324.093" r="3" fill="#5F5F5F" fill-opacity=".1"/><circle cx="337.748" cy="324.093" r="3" fill="#5F5F5F" fill-opacity=".1"/><circle cx="345.748" cy="324.093" r="3" fill="#5F5F5F" fill-opacity=".1"/><circle cx="353.748" cy="324.093" r="3" fill="#5F5F5F" fill-opacity=".1"/><circle cx="361.748" cy="324.093" r="3" fill="#5F5F5F" fill-opacity=".1"/><circle cx="369.748" cy="324.093" r="3" fill="#5F5F5F" fill-opacity=".1"/><circle cx="329.748" cy="332.093" r="3" fill="#5F5F5F" fill-opacity=".1"/><circle cx="337.748" cy="332.093" r="3" fill="#5F5F5F" fill-opacity=".1"/><circle cx="345.748" cy="332.093" r="3" fill="#5F5F5F" fill-opacity=".1"/><circle cx="353.748" cy="332.093" r="3" fill="#5F5F5F" fill-opacity=".1"/><circle cx="361.748" cy="332.093" r="3" fill="#5F5F5F" fill-opacity=".1"/><circle cx="369.748" cy="332.093" r="3" fill="#5F5F5F" fill-opacity=".1"/><circle cx="329.748" cy="340.093" r="3" fill="#5F5F5F" fill-opacity=".1"/><circle cx="337.748" cy="340.093" r="3" fill="#5F5F5F" fill-opacity=".1"/><circle cx="345.748" cy="340.093" r="3" fill="#5F5F5F" fill-opacity=".1"/><circle cx="353.748" cy="340.093" r="3" fill="#5F5F5F" fill-opacity=".1"/><circle cx="361.748" cy="340.093" r="3" fill="#5F5F5F" fill-opacity=".1"/><circle cx="369.748" cy="340.093" r="3" fill="#5F5F5F" fill-opacity=".1"/><circle cx="329.748" cy="348.093" r="3" fill="#5F5F5F" fill-opacity=".1"/><circle cx="337.748" cy="348.093" r="3" fill="#5F5F5F" fill-opacity=".1"/><circle cx="345.748" cy="348.093" r="3" fill="#5F5F5F" fill-opacity=".1"/><circle cx="353.748" cy="348.093" r="3" fill="#5F5F5F" fill-opacity=".1"/><circle cx="361.748" cy="348.093" r="3" fill="#5F5F5F" fill-opacity=".1"/><circle cx="369.748" cy="348.093" r="3" fill="#5F5F5F" fill-opacity=".1"/><circle cx="185.748" cy="316.093" r="3" fill="#5F5F5F" fill-opacity=".1"/><circle cx="193.748" cy="316.093" r="3" fill="#5F5F5F" fill-opacity=".1"/><circle cx="201.748" cy="316.093" r="3" fill="#5F5F5F" fill-opacity=".1"/><circle cx="209.748" cy="316.093" r="3" fill="#5F5F5F" fill-opacity=".1"/><circle cx="217.748" cy="316.093" r="3" fill="#5F5F5F" fill-opacity=".1"/><circle cx="225.748" cy="316.093" r="3" fill="#5F5F5F" fill-opacity=".1"/><circle cx="185.748" cy="324.093" r="3" fill="#5F5F5F" fill-opacity=".1"/><circle cx="193.748" cy="324.093" r="3" fill="#5F5F5F" fill-opacity=".1"/><circle cx="201.748" cy="324.093" r="3" fill="#5F5F5F" fill-opacity=".1"/><circle cx="209.748" cy="324.093" r="3" fill="#5F5F5F" fill-opacity=".1"/><circle cx="217.748" cy="324.093" r="3" fill="#5F5F5F" fill-opacity=".1"/><circle cx="225.748" cy="324.093" r="3" fill="#5F5F5F" fill-opacity=".1"/><circle cx="185.748" cy="332.093" r="3" fill="#5F5F5F" fill-opacity=".1"/><circle cx="193.748" cy="332.093" r="3" fill="#5F5F5F" fill-opacity=".1"/><circle cx="201.748" cy="332.093" r="3" fill="#5F5F5F" fill-opacity=".1"/><circle cx="209.748" cy="332.093" r="3" fill="#5F5F5F" fill-opacity=".1"/><circle cx="217.748" cy="332.093" r="3" fill="#5F5F5F" fill-opacity=".1"/><circle cx="225.748" cy="332.093" r="3" fill="#5F5F5F" fill-opacity=".1"/><circle cx="185.748" cy="340.093" r="3" fill="#5F5F5F" fill-opacity=".1"/><circle cx="193.748" cy="340.093" r="3" fill="#5F5F5F" fill-opacity=".1"/><circle cx="201.748" cy="340.093" r="3" fill="#5F5F5F" fill-opacity=".1"/><circle cx="209.748" cy="340.093" r="3" fill="#5F5F5F" fill-opacity=".1"/><circle cx="217.748" cy="340.093" r="3" fill="#5F5F5F" fill-opacity=".1"/><circle cx="225.748" cy="340.093" r="3" fill="#5F5F5F" fill-opacity=".1"/><circle cx="185.748" cy="348.093" r="3" fill="#5F5F5F" fill-opacity=".1"/><circle cx="193.748" cy="348.093" r="3" fill="#5F5F5F" fill-opacity=".1"/><circle cx="201.748" cy="348.093" r="3" fill="#5F5F5F" fill-opacity=".1"/><circle cx="209.748" cy="348.093" r="3" fill="#5F5F5F" fill-opacity=".1"/><circle cx="217.748" cy="348.093" r="3" fill="#5F5F5F" fill-opacity=".1"/><circle cx="225.748" cy="348.093" r="3" fill="#5F5F5F" fill-opacity=".1"/><circle cx="185.748" cy="356.093" r="3" fill="#5F5F5F" fill-opacity=".1"/><circle cx="193.748" cy="356.093" r="3" fill="#5F5F5F" fill-opacity=".1"/><circle cx="201.748" cy="356.093" r="3" fill="#5F5F5F" fill-opacity=".1"/><circle cx="209.748" cy="356.093" r="3" fill="#5F5F5F" fill-opacity=".1"/><circle cx="217.748" cy="356.093" r="3" fill="#5F5F5F" fill-opacity=".1"/><circle cx="225.748" cy="356.093" r="3" fill="#5F5F5F" fill-opacity=".1"/><circle cx="185.748" cy="364.093" r="3" fill="#5F5F5F" fill-opacity=".1"/><circle cx="193.748" cy="364.093" r="3" fill="#5F5F5F" fill-opacity=".1"/><circle cx="201.748" cy="364.093" r="3" fill="#5F5F5F" fill-opacity=".1"/><circle cx="209.748" cy="364.093" r="3" fill="#5F5F5F" fill-opacity=".1"/><circle cx="217.748" cy="364.093" r="3" fill="#5F5F5F" fill-opacity=".1"/><circle cx="225.748" cy="364.093" r="3" fill="#5F5F5F" fill-opacity=".1"/><circle cx="185.748" cy="372.093" r="3" fill="#5F5F5F" fill-opacity=".1"/><circle cx="193.748" cy="372.093" r="3" fill="#5F5F5F" fill-opacity=".1"/><circle cx="201.748" cy="372.093" r="3" fill="#5F5F5F" fill-opacity=".1"/><circle cx="209.748" cy="372.093" r="3" fill="#5F5F5F" fill-opacity=".1"/><circle cx="217.748" cy="372.093" r="3" fill="#5F5F5F" fill-opacity=".1"/><circle cx="225.748" cy="372.093" r="3" fill="#5F5F5F" fill-opacity=".1"/><path d="M380.683 174.761c-35.114-23.028-29.835-51.743-56.351-78.667-33.615-34.133-59.22-91.03-101.619-68.713-27.787 14.625-20.876 44.41-36.459 71.675-33.883 59.289-74.464 79.448-102.331 141.792-26.251 58.727-60.197 100.417-37.166 160.471 31.068 81.013 123.297 61.028 208.758 75.973 47.738 8.347 117.792 69.646 157.474 41.809 62.368-43.751 11.582-71.806 16.123-110.319 4.54-38.513 90.498-80.244 78.266-150.935-9.084-52.497-101.046-66.265-126.695-83.086z" fill="url(#paint0_linear)"/><defs><linearGradient id="paint0_linear" x1="207.83" y1="257.103" x2="437.87" y2="230.764" gradientUnits="userSpaceOnUse"><stop stop-color="#fff" stop-opacity=".02"/><stop offset="1" stop-color="#fff" stop-opacity="0"/></linearGradient></defs></svg>