<svg xmlns="http://www.w3.org/2000/svg" width="1089" height="438"><defs><linearGradient id="a" x1="536.61" x2="536.61" y1=".4" y2="436.01" gradientUnits="userSpaceOnUse"><stop offset=".4" stop-color="#df2c2c"/><stop offset="1" stop-color="#fff"/></linearGradient></defs><path fill="#5f5f5f" fill-opacity=".1" d="M922.75 28.21c0 1.69-1.343 3.06-3 3.06s-3-1.37-3-3.06 1.343-3.06 3-3.06 3 1.37 3 3.06zm8 0c0 1.69-1.343 3.06-3 3.06s-3-1.37-3-3.06 1.343-3.06 3-3.06 3 1.37 3 3.06zm8 0c0 1.69-1.343 3.06-3 3.06s-3-1.37-3-3.06 1.343-3.06 3-3.06 3 1.37 3 3.06zm8 0c0 1.69-1.343 3.06-3 3.06s-3-1.37-3-3.06 1.343-3.06 3-3.06 3 1.37 3 3.06zm8 0c0 1.69-1.343 3.06-3 3.06s-3-1.37-3-3.06 1.343-3.06 3-3.06 3 1.37 3 3.06zm8 0c0 1.69-1.343 3.06-3 3.06s-3-1.37-3-3.06 1.343-3.06 3-3.06 3 1.37 3 3.06zm-40 8.149c0 1.69-1.343 3.059-3 3.059s-3-1.37-3-3.06c0-1.689 1.343-3.058 3-3.058s3 1.37 3 3.059zm8 0c0 1.69-1.343 3.059-3 3.059s-3-1.37-3-3.06c0-1.689 1.343-3.058 3-3.058s3 1.37 3 3.059zm8 0c0 1.69-1.343 3.059-3 3.059s-3-1.37-3-3.06c0-1.689 1.343-3.058 3-3.058s3 1.37 3 3.059zm8 0c0 1.69-1.343 3.059-3 3.059s-3-1.37-3-3.06c0-1.689 1.343-3.058 3-3.058s3 1.37 3 3.059zm8 0c0 1.69-1.343 3.059-3 3.059s-3-1.37-3-3.06c0-1.689 1.343-3.058 3-3.058s3 1.37 3 3.059zm8 0c0 1.69-1.343 3.059-3 3.059s-3-1.37-3-3.06c0-1.689 1.343-3.058 3-3.058s3 1.37 3 3.059zm-40 8.161c0 1.689-1.343 3.058-3 3.058s-3-1.37-3-3.059c0-1.69 1.343-3.059 3-3.059s3 1.37 3 3.06zm8 0c0 1.689-1.343 3.058-3 3.058s-3-1.37-3-3.059c0-1.69 1.343-3.059 3-3.059s3 1.37 3 3.06zm8 0c0 1.689-1.343 3.058-3 3.058s-3-1.37-3-3.059c0-1.69 1.343-3.059 3-3.059s3 1.37 3 3.06zm8 0c0 1.689-1.343 3.058-3 3.058s-3-1.37-3-3.059c0-1.69 1.343-3.059 3-3.059s3 1.37 3 3.06zm8 0c0 1.689-1.343 3.058-3 3.058s-3-1.37-3-3.059c0-1.69 1.343-3.059 3-3.059s3 1.37 3 3.06zm8 0c0 1.689-1.343 3.058-3 3.058s-3-1.37-3-3.059c0-1.69 1.343-3.059 3-3.059s3 1.37 3 3.06zm-40 8.149c0 1.689-1.343 3.058-3 3.058s-3-1.37-3-3.058c0-1.69 1.343-3.059 3-3.059s3 1.37 3 3.059zm8 0c0 1.689-1.343 3.058-3 3.058s-3-1.37-3-3.058c0-1.69 1.343-3.059 3-3.059s3 1.37 3 3.059zm8 0c0 1.689-1.343 3.058-3 3.058s-3-1.37-3-3.058c0-1.69 1.343-3.059 3-3.059s3 1.37 3 3.059zm8 0c0 1.689-1.343 3.058-3 3.058s-3-1.37-3-3.058c0-1.69 1.343-3.059 3-3.059s3 1.37 3 3.059zm8 0c0 1.689-1.343 3.058-3 3.058s-3-1.37-3-3.058c0-1.69 1.343-3.059 3-3.059s3 1.37 3 3.059zm8 0c0 1.689-1.343 3.058-3 3.058s-3-1.37-3-3.058c0-1.69 1.343-3.059 3-3.059s3 1.37 3 3.059zm-40 8.161c0 1.69-1.343 3.06-3 3.06s-3-1.37-3-3.06 1.343-3.06 3-3.06 3 1.37 3 3.06zm8 0c0 1.69-1.343 3.06-3 3.06s-3-1.37-3-3.06 1.343-3.06 3-3.06 3 1.37 3 3.06zm8 0c0 1.69-1.343 3.06-3 3.06s-3-1.37-3-3.06 1.343-3.06 3-3.06 3 1.37 3 3.06zm8 0c0 1.69-1.343 3.06-3 3.06s-3-1.37-3-3.06 1.343-3.06 3-3.06 3 1.37 3 3.06zm8 0c0 1.69-1.343 3.06-3 3.06s-3-1.37-3-3.06 1.343-3.06 3-3.06 3 1.37 3 3.06zm8 0c0 1.69-1.343 3.06-3 3.06s-3-1.37-3-3.06 1.343-3.06 3-3.06 3 1.37 3 3.06zm-40 8.16c0 1.69-1.343 3.06-3 3.06s-3-1.37-3-3.06 1.343-3.06 3-3.06 3 1.37 3 3.06zm8 0c0 1.69-1.343 3.06-3 3.06s-3-1.37-3-3.06 1.343-3.06 3-3.06 3 1.37 3 3.06zm8 0c0 1.69-1.343 3.06-3 3.06s-3-1.37-3-3.06 1.343-3.06 3-3.06 3 1.37 3 3.06zm8 0c0 1.69-1.343 3.06-3 3.06s-3-1.37-3-3.06 1.343-3.06 3-3.06 3 1.37 3 3.06zm8 0c0 1.69-1.343 3.06-3 3.06s-3-1.37-3-3.06 1.343-3.06 3-3.06 3 1.37 3 3.06zm8 0c0 1.69-1.343 3.06-3 3.06s-3-1.37-3-3.06 1.343-3.06 3-3.06 3 1.37 3 3.06zm-40 8.15c0 1.69-1.343 3.06-3 3.06s-3-1.37-3-3.06 1.343-3.06 3-3.06 3 1.37 3 3.06zm8 0c0 1.69-1.343 3.06-3 3.06s-3-1.37-3-3.06 1.343-3.06 3-3.06 3 1.37 3 3.06zm8 0c0 1.69-1.343 3.06-3 3.06s-3-1.37-3-3.06 1.343-3.06 3-3.06 3 1.37 3 3.06zm8 0c0 1.69-1.343 3.06-3 3.06s-3-1.37-3-3.06 1.343-3.06 3-3.06 3 1.37 3 3.06zm8 0c0 1.69-1.343 3.06-3 3.06s-3-1.37-3-3.06 1.343-3.06 3-3.06 3 1.37 3 3.06zm8 0c0 1.69-1.343 3.06-3 3.06s-3-1.37-3-3.06 1.343-3.06 3-3.06 3 1.37 3 3.06zm-40 8.16c0 1.69-1.343 3.06-3 3.06s-3-1.37-3-3.06 1.343-3.06 3-3.06 3 1.37 3 3.06zm8 0c0 1.69-1.343 3.06-3 3.06s-3-1.37-3-3.06 1.343-3.06 3-3.06 3 1.37 3 3.06zm8 0c0 1.69-1.343 3.06-3 3.06s-3-1.37-3-3.06 1.343-3.06 3-3.06 3 1.37 3 3.06zm8 0c0 1.69-1.343 3.06-3 3.06s-3-1.37-3-3.06 1.343-3.06 3-3.06 3 1.37 3 3.06zm8 0c0 1.69-1.343 3.06-3 3.06s-3-1.37-3-3.06 1.343-3.06 3-3.06 3 1.37 3 3.06zm8 0c0 1.69-1.343 3.06-3 3.06s-3-1.37-3-3.06 1.343-3.06 3-3.06 3 1.37 3 3.06zm8-81.561c0 1.689-1.343 3.058-3 3.058s-3-1.37-3-3.058c0-1.69 1.343-3.059 3-3.059s3 1.37 3 3.059zm8 0c0 1.689-1.343 3.058-3 3.058s-3-1.37-3-3.058c0-1.69 1.343-3.059 3-3.059s3 1.37 3 3.059zm8 0c0 1.689-1.343 3.058-3 3.058s-3-1.37-3-3.058c0-1.69 1.343-3.059 3-3.059s3 1.37 3 3.059zm8 0c0 1.689-1.343 3.058-3 3.058s-3-1.37-3-3.058c0-1.69 1.343-3.059 3-3.059s3 1.37 3 3.059zm8 0c0 1.689-1.343 3.058-3 3.058s-3-1.37-3-3.058c0-1.69 1.343-3.059 3-3.059s3 1.37 3 3.059zm8 0c0 1.689-1.343 3.058-3 3.058s-3-1.37-3-3.058c0-1.69 1.343-3.059 3-3.059s3 1.37 3 3.059zm-40 8.161c0 1.69-1.343 3.06-3 3.06s-3-1.37-3-3.06 1.343-3.06 3-3.06 3 1.37 3 3.06zm8 0c0 1.69-1.343 3.06-3 3.06s-3-1.37-3-3.06 1.343-3.06 3-3.06 3 1.37 3 3.06zm8 0c0 1.69-1.343 3.06-3 3.06s-3-1.37-3-3.06 1.343-3.06 3-3.06 3 1.37 3 3.06zm8 0c0 1.69-1.343 3.06-3 3.06s-3-1.37-3-3.06 1.343-3.06 3-3.06 3 1.37 3 3.06zm8 0c0 1.69-1.343 3.06-3 3.06s-3-1.37-3-3.06 1.343-3.06 3-3.06 3 1.37 3 3.06zm8 0c0 1.69-1.343 3.06-3 3.06s-3-1.37-3-3.06 1.343-3.06 3-3.06 3 1.37 3 3.06zm-40 8.15c0 1.69-1.343 3.06-3 3.06s-3-1.37-3-3.06 1.343-3.06 3-3.06 3 1.37 3 3.06zm8 0c0 1.69-1.343 3.06-3 3.06s-3-1.37-3-3.06 1.343-3.06 3-3.06 3 1.37 3 3.06zm8 0c0 1.69-1.343 3.06-3 3.06s-3-1.37-3-3.06 1.343-3.06 3-3.06 3 1.37 3 3.06zm8 0c0 1.69-1.343 3.06-3 3.06s-3-1.37-3-3.06 1.343-3.06 3-3.06 3 1.37 3 3.06zm8 0c0 1.69-1.343 3.06-3 3.06s-3-1.37-3-3.06 1.343-3.06 3-3.06 3 1.37 3 3.06zm8 0c0 1.69-1.343 3.06-3 3.06s-3-1.37-3-3.06 1.343-3.06 3-3.06 3 1.37 3 3.06zm-40 8.16c0 1.69-1.343 3.06-3 3.06s-3-1.37-3-3.06 1.343-3.06 3-3.06 3 1.37 3 3.06zm8 0c0 1.69-1.343 3.06-3 3.06s-3-1.37-3-3.06 1.343-3.06 3-3.06 3 1.37 3 3.06zm8 0c0 1.69-1.343 3.06-3 3.06s-3-1.37-3-3.06 1.343-3.06 3-3.06 3 1.37 3 3.06zm8 0c0 1.69-1.343 3.06-3 3.06s-3-1.37-3-3.06 1.343-3.06 3-3.06 3 1.37 3 3.06zm8 0c0 1.69-1.343 3.06-3 3.06s-3-1.37-3-3.06 1.343-3.06 3-3.06 3 1.37 3 3.06zm8 0c0 1.69-1.343 3.06-3 3.06s-3-1.37-3-3.06 1.343-3.06 3-3.06 3 1.37 3 3.06zm-40 8.15c0 1.689-1.343 3.059-3 3.059s-3-1.37-3-3.06 1.343-3.059 3-3.059 3 1.37 3 3.06zm8 0c0 1.689-1.343 3.059-3 3.059s-3-1.37-3-3.06 1.343-3.059 3-3.059 3 1.37 3 3.06zm8 0c0 1.689-1.343 3.059-3 3.059s-3-1.37-3-3.06 1.343-3.059 3-3.059 3 1.37 3 3.06zm8 0c0 1.689-1.343 3.059-3 3.059s-3-1.37-3-3.06 1.343-3.059 3-3.059 3 1.37 3 3.06zm8 0c0 1.689-1.343 3.059-3 3.059s-3-1.37-3-3.06 1.343-3.059 3-3.059 3 1.37 3 3.06zm8 0c0 1.689-1.343 3.059-3 3.059s-3-1.37-3-3.06 1.343-3.059 3-3.059 3 1.37 3 3.06zm-40 8.16c0 1.689-1.343 3.058-3 3.058s-3-1.37-3-3.059c0-1.69 1.343-3.059 3-3.059s3 1.37 3 3.06zm8 0c0 1.689-1.343 3.058-3 3.058s-3-1.37-3-3.059c0-1.69 1.343-3.059 3-3.059s3 1.37 3 3.06zm8 0c0 1.689-1.343 3.058-3 3.058s-3-1.37-3-3.059c0-1.69 1.343-3.059 3-3.059s3 1.37 3 3.06zm8 0c0 1.689-1.343 3.058-3 3.058s-3-1.37-3-3.059c0-1.69 1.343-3.059 3-3.059s3 1.37 3 3.06zm8 0c0 1.689-1.343 3.058-3 3.058s-3-1.37-3-3.059c0-1.69 1.343-3.059 3-3.059s3 1.37 3 3.06zm8 0c0 1.689-1.343 3.058-3 3.058s-3-1.37-3-3.059c0-1.69 1.343-3.059 3-3.059s3 1.37 3 3.06zm-40 8.149c0 1.689-1.343 3.058-3 3.058s-3-1.37-3-3.058c0-1.69 1.343-3.059 3-3.059s3 1.37 3 3.059zm8 0c0 1.689-1.343 3.058-3 3.058s-3-1.37-3-3.058c0-1.69 1.343-3.059 3-3.059s3 1.37 3 3.059zm8 0c0 1.689-1.343 3.058-3 3.058s-3-1.37-3-3.058c0-1.69 1.343-3.059 3-3.059s3 1.37 3 3.059zm8 0c0 1.689-1.343 3.058-3 3.058s-3-1.37-3-3.058c0-1.69 1.343-3.059 3-3.059s3 1.37 3 3.059zm8 0c0 1.689-1.343 3.058-3 3.058s-3-1.37-3-3.058c0-1.69 1.343-3.059 3-3.059s3 1.37 3 3.059zm8 0c0 1.689-1.343 3.058-3 3.058s-3-1.37-3-3.058c0-1.69 1.343-3.059 3-3.059s3 1.37 3 3.059zm-40 8.161c0 1.69-1.343 3.06-3 3.06s-3-1.37-3-3.06 1.343-3.06 3-3.06 3 1.37 3 3.06zm8 0c0 1.69-1.343 3.06-3 3.06s-3-1.37-3-3.06 1.343-3.06 3-3.06 3 1.37 3 3.06zm8 0c0 1.69-1.343 3.06-3 3.06s-3-1.37-3-3.06 1.343-3.06 3-3.06 3 1.37 3 3.06zm8 0c0 1.69-1.343 3.06-3 3.06s-3-1.37-3-3.06 1.343-3.06 3-3.06 3 1.37 3 3.06zm8 0c0 1.69-1.343 3.06-3 3.06s-3-1.37-3-3.06 1.343-3.06 3-3.06 3 1.37 3 3.06zm8 0c0 1.69-1.343 3.06-3 3.06s-3-1.37-3-3.06 1.343-3.06 3-3.06 3 1.37 3 3.06zm-10 40.78c0 1.69-1.343 3.06-3 3.06s-3-1.37-3-3.06 1.343-3.06 3-3.06 3 1.37 3 3.06zm8 0c0 1.69-1.343 3.06-3 3.06s-3-1.37-3-3.06 1.343-3.06 3-3.06 3 1.37 3 3.06zm8 0c0 1.69-1.343 3.06-3 3.06s-3-1.37-3-3.06 1.343-3.06 3-3.06 3 1.37 3 3.06zm8 0c0 1.69-1.343 3.06-3 3.06s-3-1.37-3-3.06 1.343-3.06 3-3.06 3 1.37 3 3.06zm8 0c0 1.69-1.343 3.06-3 3.06s-3-1.37-3-3.06 1.343-3.06 3-3.06 3 1.37 3 3.06zm8 0c0 1.69-1.343 3.06-3 3.06s-3-1.37-3-3.06 1.343-3.06 3-3.06 3 1.37 3 3.06zm-40 8.16c0 1.69-1.343 3.06-3 3.06s-3-1.37-3-3.06 1.343-3.06 3-3.06 3 1.37 3 3.06zm8 0c0 1.69-1.343 3.06-3 3.06s-3-1.37-3-3.06 1.343-3.06 3-3.06 3 1.37 3 3.06zm8 0c0 1.69-1.343 3.06-3 3.06s-3-1.37-3-3.06 1.343-3.06 3-3.06 3 1.37 3 3.06zm8 0c0 1.69-1.343 3.06-3 3.06s-3-1.37-3-3.06 1.343-3.06 3-3.06 3 1.37 3 3.06zm8 0c0 1.69-1.343 3.06-3 3.06s-3-1.37-3-3.06 1.343-3.06 3-3.06 3 1.37 3 3.06zm8 0c0 1.69-1.343 3.06-3 3.06s-3-1.37-3-3.06 1.343-3.06 3-3.06 3 1.37 3 3.06zm-40 8.15c0 1.69-1.343 3.06-3 3.06s-3-1.37-3-3.06 1.343-3.06 3-3.06 3 1.37 3 3.06zm8 0c0 1.69-1.343 3.06-3 3.06s-3-1.37-3-3.06 1.343-3.06 3-3.06 3 1.37 3 3.06zm8 0c0 1.69-1.343 3.06-3 3.06s-3-1.37-3-3.06 1.343-3.06 3-3.06 3 1.37 3 3.06zm8 0c0 1.69-1.343 3.06-3 3.06s-3-1.37-3-3.06 1.343-3.06 3-3.06 3 1.37 3 3.06zm8 0c0 1.69-1.343 3.06-3 3.06s-3-1.37-3-3.06 1.343-3.06 3-3.06 3 1.37 3 3.06zm8 0c0 1.69-1.343 3.06-3 3.06s-3-1.37-3-3.06 1.343-3.06 3-3.06 3 1.37 3 3.06zm-40 8.16c0 1.689-1.343 3.059-3 3.059s-3-1.37-3-3.06 1.343-3.059 3-3.059 3 1.37 3 3.06zm8 0c0 1.689-1.343 3.059-3 3.059s-3-1.37-3-3.06 1.343-3.059 3-3.059 3 1.37 3 3.06zm8 0c0 1.689-1.343 3.059-3 3.059s-3-1.37-3-3.06 1.343-3.059 3-3.059 3 1.37 3 3.06zm8 0c0 1.689-1.343 3.059-3 3.059s-3-1.37-3-3.06 1.343-3.059 3-3.059 3 1.37 3 3.06zm8 0c0 1.689-1.343 3.059-3 3.059s-3-1.37-3-3.06 1.343-3.059 3-3.059 3 1.37 3 3.06zm8 0c0 1.689-1.343 3.059-3 3.059s-3-1.37-3-3.06 1.343-3.059 3-3.059 3 1.37 3 3.06zm-40 8.15c0 1.69-1.343 3.06-3 3.06s-3-1.37-3-3.06 1.343-3.06 3-3.06 3 1.37 3 3.06zm8 0c0 1.69-1.343 3.06-3 3.06s-3-1.37-3-3.06 1.343-3.06 3-3.06 3 1.37 3 3.06zm8 0c0 1.69-1.343 3.06-3 3.06s-3-1.37-3-3.06 1.343-3.06 3-3.06 3 1.37 3 3.06zm8 0c0 1.69-1.343 3.06-3 3.06s-3-1.37-3-3.06 1.343-3.06 3-3.06 3 1.37 3 3.06zm8 0c0 1.69-1.343 3.06-3 3.06s-3-1.37-3-3.06 1.343-3.06 3-3.06 3 1.37 3 3.06zm8 0c0 1.69-1.343 3.06-3 3.06s-3-1.37-3-3.06 1.343-3.06 3-3.06 3 1.37 3 3.06zm-40 8.16c0 1.69-1.343 3.06-3 3.06s-3-1.37-3-3.06 1.343-3.06 3-3.06 3 1.37 3 3.06zm8 0c0 1.69-1.343 3.06-3 3.06s-3-1.37-3-3.06 1.343-3.06 3-3.06 3 1.37 3 3.06zm8 0c0 1.69-1.343 3.06-3 3.06s-3-1.37-3-3.06 1.343-3.06 3-3.06 3 1.37 3 3.06zm8 0c0 1.69-1.343 3.06-3 3.06s-3-1.37-3-3.06 1.343-3.06 3-3.06 3 1.37 3 3.06zm8 0c0 1.69-1.343 3.06-3 3.06s-3-1.37-3-3.06 1.343-3.06 3-3.06 3 1.37 3 3.06zm8 0c0 1.69-1.343 3.06-3 3.06s-3-1.37-3-3.06 1.343-3.06 3-3.06 3 1.37 3 3.06zm-40 8.16c0 1.69-1.343 3.06-3 3.06s-3-1.37-3-3.06 1.343-3.06 3-3.06 3 1.37 3 3.06zm8 0c0 1.69-1.343 3.06-3 3.06s-3-1.37-3-3.06 1.343-3.06 3-3.06 3 1.37 3 3.06zm8 0c0 1.69-1.343 3.06-3 3.06s-3-1.37-3-3.06 1.343-3.06 3-3.06 3 1.37 3 3.06zm8 0c0 1.69-1.343 3.06-3 3.06s-3-1.37-3-3.06 1.343-3.06 3-3.06 3 1.37 3 3.06zm8 0c0 1.69-1.343 3.06-3 3.06s-3-1.37-3-3.06 1.343-3.06 3-3.06 3 1.37 3 3.06zm8 0c0 1.69-1.343 3.06-3 3.06s-3-1.37-3-3.06 1.343-3.06 3-3.06 3 1.37 3 3.06zm-40 8.15c0 1.69-1.343 3.06-3 3.06s-3-1.37-3-3.06 1.343-3.06 3-3.06 3 1.37 3 3.06zm8 0c0 1.69-1.343 3.06-3 3.06s-3-1.37-3-3.06 1.343-3.06 3-3.06 3 1.37 3 3.06zm8 0c0 1.69-1.343 3.06-3 3.06s-3-1.37-3-3.06 1.343-3.06 3-3.06 3 1.37 3 3.06zm8 0c0 1.69-1.343 3.06-3 3.06s-3-1.37-3-3.06 1.343-3.06 3-3.06 3 1.37 3 3.06zm8 0c0 1.69-1.343 3.06-3 3.06s-3-1.37-3-3.06 1.343-3.06 3-3.06 3 1.37 3 3.06zm8 0c0 1.69-1.343 3.06-3 3.06s-3-1.37-3-3.06 1.343-3.06 3-3.06 3 1.37 3 3.06zm8-81.56c0 1.69-1.343 3.06-3 3.06s-3-1.37-3-3.06 1.343-3.06 3-3.06 3 1.37 3 3.06zm8 0c0 1.69-1.343 3.06-3 3.06s-3-1.37-3-3.06 1.343-3.06 3-3.06 3 1.37 3 3.06zm8 0c0 1.69-1.343 3.06-3 3.06s-3-1.37-3-3.06 1.343-3.06 3-3.06 3 1.37 3 3.06zm8 0c0 1.69-1.343 3.06-3 3.06s-3-1.37-3-3.06 1.343-3.06 3-3.06 3 1.37 3 3.06zm8 0c0 1.69-1.343 3.06-3 3.06s-3-1.37-3-3.06 1.343-3.06 3-3.06 3 1.37 3 3.06zm8 0c0 1.69-1.343 3.06-3 3.06s-3-1.37-3-3.06 1.343-3.06 3-3.06 3 1.37 3 3.06zm-40 8.16c0 1.69-1.343 3.06-3 3.06s-3-1.37-3-3.06 1.343-3.06 3-3.06 3 1.37 3 3.06zm8 0c0 1.69-1.343 3.06-3 3.06s-3-1.37-3-3.06 1.343-3.06 3-3.06 3 1.37 3 3.06zm8 0c0 1.69-1.343 3.06-3 3.06s-3-1.37-3-3.06 1.343-3.06 3-3.06 3 1.37 3 3.06zm8 0c0 1.69-1.343 3.06-3 3.06s-3-1.37-3-3.06 1.343-3.06 3-3.06 3 1.37 3 3.06zm8 0c0 1.69-1.343 3.06-3 3.06s-3-1.37-3-3.06 1.343-3.06 3-3.06 3 1.37 3 3.06zm8 0c0 1.69-1.343 3.06-3 3.06s-3-1.37-3-3.06 1.343-3.06 3-3.06 3 1.37 3 3.06zm-40 8.15c0 1.689-1.343 3.058-3 3.058s-3-1.37-3-3.059c0-1.69 1.343-3.059 3-3.059s3 1.37 3 3.06zm8 0c0 1.689-1.343 3.058-3 3.058s-3-1.37-3-3.059c0-1.69 1.343-3.059 3-3.059s3 1.37 3 3.06zm8 0c0 1.689-1.343 3.058-3 3.058s-3-1.37-3-3.059c0-1.69 1.343-3.059 3-3.059s3 1.37 3 3.06zm8 0c0 1.689-1.343 3.058-3 3.058s-3-1.37-3-3.059c0-1.69 1.343-3.059 3-3.059s3 1.37 3 3.06zm8 0c0 1.689-1.343 3.058-3 3.058s-3-1.37-3-3.059c0-1.69 1.343-3.059 3-3.059s3 1.37 3 3.06zm8 0c0 1.689-1.343 3.058-3 3.058s-3-1.37-3-3.059c0-1.69 1.343-3.059 3-3.059s3 1.37 3 3.06zm-40 8.16c0 1.69-1.343 3.06-3 3.06s-3-1.37-3-3.06 1.343-3.06 3-3.06 3 1.37 3 3.06zm8 0c0 1.69-1.343 3.06-3 3.06s-3-1.37-3-3.06 1.343-3.06 3-3.06 3 1.37 3 3.06zm8 0c0 1.69-1.343 3.06-3 3.06s-3-1.37-3-3.06 1.343-3.06 3-3.06 3 1.37 3 3.06zm8 0c0 1.69-1.343 3.06-3 3.06s-3-1.37-3-3.06 1.343-3.06 3-3.06 3 1.37 3 3.06zm8 0c0 1.69-1.343 3.06-3 3.06s-3-1.37-3-3.06 1.343-3.06 3-3.06 3 1.37 3 3.06zm8 0c0 1.69-1.343 3.06-3 3.06s-3-1.37-3-3.06 1.343-3.06 3-3.06 3 1.37 3 3.06zm-40 8.16c0 1.69-1.343 3.06-3 3.06s-3-1.37-3-3.06 1.343-3.06 3-3.06 3 1.37 3 3.06zm8 0c0 1.69-1.343 3.06-3 3.06s-3-1.37-3-3.06 1.343-3.06 3-3.06 3 1.37 3 3.06zm8 0c0 1.69-1.343 3.06-3 3.06s-3-1.37-3-3.06 1.343-3.06 3-3.06 3 1.37 3 3.06zm8 0c0 1.69-1.343 3.06-3 3.06s-3-1.37-3-3.06 1.343-3.06 3-3.06 3 1.37 3 3.06zm8 0c0 1.69-1.343 3.06-3 3.06s-3-1.37-3-3.06 1.343-3.06 3-3.06 3 1.37 3 3.06zm8 0c0 1.69-1.343 3.06-3 3.06s-3-1.37-3-3.06 1.343-3.06 3-3.06 3 1.37 3 3.06zm-40 8.15c0 1.69-1.343 3.06-3 3.06s-3-1.37-3-3.06 1.343-3.06 3-3.06 3 1.37 3 3.06zm8 0c0 1.69-1.343 3.06-3 3.06s-3-1.37-3-3.06 1.343-3.06 3-3.06 3 1.37 3 3.06zm8 0c0 1.69-1.343 3.06-3 3.06s-3-1.37-3-3.06 1.343-3.06 3-3.06 3 1.37 3 3.06zm8 0c0 1.69-1.343 3.06-3 3.06s-3-1.37-3-3.06 1.343-3.06 3-3.06 3 1.37 3 3.06zm8 0c0 1.69-1.343 3.06-3 3.06s-3-1.37-3-3.06 1.343-3.06 3-3.06 3 1.37 3 3.06zm8 0c0 1.69-1.343 3.06-3 3.06s-3-1.37-3-3.06 1.343-3.06 3-3.06 3 1.37 3 3.06zm-40 8.16c0 1.689-1.343 3.059-3 3.059s-3-1.37-3-3.06 1.343-3.059 3-3.059 3 1.37 3 3.06zm8 0c0 1.689-1.343 3.059-3 3.059s-3-1.37-3-3.06 1.343-3.059 3-3.059 3 1.37 3 3.06zm8 0c0 1.689-1.343 3.059-3 3.059s-3-1.37-3-3.06 1.343-3.059 3-3.059 3 1.37 3 3.06zm8 0c0 1.689-1.343 3.059-3 3.059s-3-1.37-3-3.06 1.343-3.059 3-3.059 3 1.37 3 3.06zm8 0c0 1.689-1.343 3.059-3 3.059s-3-1.37-3-3.06 1.343-3.059 3-3.059 3 1.37 3 3.06zm8 0c0 1.689-1.343 3.059-3 3.059s-3-1.37-3-3.06 1.343-3.059 3-3.059 3 1.37 3 3.06zm-40 8.15c0 1.69-1.343 3.06-3 3.06s-3-1.37-3-3.06 1.343-3.06 3-3.06 3 1.37 3 3.06zm8 0c0 1.69-1.343 3.06-3 3.06s-3-1.37-3-3.06 1.343-3.06 3-3.06 3 1.37 3 3.06zm8 0c0 1.69-1.343 3.06-3 3.06s-3-1.37-3-3.06 1.343-3.06 3-3.06 3 1.37 3 3.06zm8 0c0 1.69-1.343 3.06-3 3.06s-3-1.37-3-3.06 1.343-3.06 3-3.06 3 1.37 3 3.06zm8 0c0 1.69-1.343 3.06-3 3.06s-3-1.37-3-3.06 1.343-3.06 3-3.06 3 1.37 3 3.06zm8 0c0 1.69-1.343 3.06-3 3.06s-3-1.37-3-3.06 1.343-3.06 3-3.06 3 1.37 3 3.06z"/><path fill="url(#a)" d="M64.215 434.858s-148.07-140.327 6.638-216.949c98.069-48.587 74.593-60.664 106.246-127.754 38.805-82.24 231.593-143.929 312.161-17.82 59.324 92.827 92.999 90.84 136.3 74.572 49.638-18.659 92.728-58.863 151.66-31.077 84.671 39.925 96.892 124.867 150.965 106.363 144.715-49.58 201.725 167.897 73.115 213.814z" opacity=".18"/><path fill="#e5e5e5" d="M790.497 54.45H723.75v333.898h66.747z"/><path fill="#fff" d="M805.487 54.45H738.74v333.898h66.747z"/><path fill="#e5e5e5" d="M805.497 54.36H738.78v19.28h66.717zm0 41.85H738.78v19.28h66.717zm0 41.85H738.78v19.279h66.717zm0 41.81H738.78v19.28h66.717zm0 41.85H738.78V241h66.717zm0 41.85H738.78v19.28h66.717zm0 41.85H738.78v19.28h66.717zm0 41.85H738.78v19.28h66.717zm91.7-245.57H830.45v286.648h66.747z"/><path fill="#fff" d="M912.157 101.7H845.41v286.648h66.747z"/><path fill="#e5e5e5" d="M912.157 101.61H845.44v16.579h66.717zm0 35.92H845.44v16.578h66.717zm0 35.92H845.44v16.579h66.717zm0 35.95H845.44v16.579h66.717zm0 35.92H845.44v16.578h66.717zm0 35.92H845.44v16.579h66.717zm0 35.92H845.44v16.579h66.717zm0 35.92H845.44v16.58h66.717z"/><path fill="#dceaf9" d="M687.65 420.002h27.942V378.09H687.65z"/><path fill="#fff" d="M304.41 210.523v-25.675h7.634V140.7h40.977v44.148h38.292v-71.934h42.276v46.693h9.625V103.88h42.276v104.5h53.439v60.943h19.976v15.368h45.866V258.24h26.343V186.4h32.529v132.628h32.528v115.397H271.76V210.523z"/><path fill="#e5e5e5" d="M663.64 187.14h-32.83v16.58h32.83zm0 24.65h-32.83v16.579h32.83zm0 24.65h-32.83v16.579h32.83zm0 25.86h-32.83v16.578h32.83zm0 25.02h-32.83v16.579h32.83zm0 25.06h-32.83v16.58h32.83zm0 26.2h-32.83v16.58h32.83z"/><path fill="#e5e5e5" d="M631.26 187.14h-12.1v72.461h12.1zm-26.489 72.43H580.42v26.669h24.351zM391.309 113.03h-8.389v72.523h8.389zm51.901-9.15h-5.16v56.192h5.16zm42.275 7.1H443.21v10.743h42.275zm0 20.18H443.21v10.742h42.275zm0 18.17H443.21v10.742h42.275zm-51.9 0H391.31v10.742h42.275zm0-18.17H391.31v10.742h42.275zm0-18.13H391.31v10.743h42.275zm51.901 53.9H391.31v10.743h94.176zm0 17.6H391.31v10.742h94.176zm0 17.2H391.31v6.83h94.176zm44.686 18.13h-7.152v10.4h7.152zm-13.391 0h-7.151v10.4h7.151zm-13.1 0h-7.151v10.4h7.151zm-12.43 0H484.1v10.4h7.151zm-12.65 0h-7.151v10.4h7.151zm-12.79 0h-7.151v10.4h7.151zm-13.4 0h-7.151v10.4h7.151zm-13.09 0h-7.151v10.4h7.151zm-12.44 0h-7.151v10.4h7.151zm-12.64 0h-7.151v10.4h7.151zm-13.18 0h-7.151v10.4h7.151zm-13.4 0h-7.151v10.4h7.151zm-13.13 0h-7.151v10.4h7.151zm-12.4 0h-7.151v10.4h7.151zm-12.67 0h-7.151v10.4h7.151zm-12.8 0h-7.151v10.4h7.151zm-13.4 0h-7.151v10.4h7.151zm-13.089 0h-7.152v10.4h7.152zm-12.401 0h-7.151v10.4h7.151zm-12.68 0h-7.151v10.4h7.151zm245.081 18.35h-7.152v10.401h7.152zm-13.391 0h-7.151v10.401h7.151zm-13.1 0h-7.151v10.401h7.151zm-12.43 0H484.1v10.401h7.151zm-12.65 0h-7.151v10.401h7.151zm-12.79 0h-7.151v10.401h7.151zm-13.4 0h-7.151v10.401h7.151zm-13.09 0h-7.151v10.401h7.151zm-12.44 0h-7.151v10.401h7.151zm-12.64 0h-7.151v10.401h7.151zm-13.18 0h-7.151v10.401h7.151zm-13.4 0h-7.151v10.401h7.151zm-13.13 0h-7.151v10.401h7.151zm-12.4 0h-7.151v10.401h7.151zm-12.67 0h-7.151v10.401h7.151zm-12.8 0h-7.151v10.401h7.151zm-13.4 0h-7.151v10.401h7.151zm-13.089 0h-7.152v10.401h7.152zm-12.401 0h-7.151v10.401h7.151zm-12.68 0h-7.151v10.401h7.151zm245.081 18.04h-7.152v10.4h7.152zm-13.391 0h-7.151v10.4h7.151zm-13.1 0h-7.151v10.4h7.151zm-12.43 0H484.1v10.4h7.151zm-12.65 0h-7.151v10.4h7.151zm-12.79 0h-7.151v10.4h7.151zm-13.4 0h-7.151v10.4h7.151zm-13.09 0h-7.151v10.4h7.151zm-12.44 0h-7.151v10.4h7.151zm-12.64 0h-7.151v10.4h7.151zm-13.18 0h-7.151v10.4h7.151zm-13.4 0h-7.151v10.4h7.151zm-13.13 0h-7.151v10.4h7.151zm-12.4 0h-7.151v10.4h7.151zm-12.67 0h-7.151v10.4h7.151zm-12.8 0h-7.151v10.4h7.151zm-13.4 0h-7.151v10.4h7.151zm-13.089 0h-7.152v10.4h7.152zm-12.401 0h-7.151v10.4h7.151zm-12.68 0h-7.151v10.4h7.151zm245.081 19.18h-7.152v10.402h7.152zm-13.391 0h-7.151v10.402h7.151zm-13.1 0h-7.151v10.402h7.151zm-12.43 0H484.1v10.402h7.151zm-12.65 0h-7.151v10.402h7.151zm-12.79 0h-7.151v10.402h7.151zm-13.4 0h-7.151v10.402h7.151zm-13.09 0h-7.151v10.402h7.151zm-12.44 0h-7.151v10.402h7.151zm-12.64 0h-7.151v10.402h7.151zm-13.18 0h-7.151v10.402h7.151zm-13.4 0h-7.151v10.402h7.151zm-13.13 0h-7.151v10.402h7.151zm-12.4 0h-7.151v10.402h7.151zm-12.67 0h-7.151v10.402h7.151zm-12.8 0h-7.151v10.402h7.151zm-13.4 0h-7.151v10.402h7.151zm-13.089 0h-7.152v10.402h7.152zm-12.401 0h-7.151v10.402h7.151zm-12.68 0h-7.151v10.402h7.151zm245.081 18.35h-7.152v10.402h7.152zm-13.391 0h-7.151v10.402h7.151zm-13.1 0h-7.151v10.402h7.151zm-12.43 0H484.1v10.402h7.151zm-12.65 0h-7.151v10.402h7.151zm-12.79 0h-7.151v10.402h7.151zm-13.4 0h-7.151v10.402h7.151zm-13.09 0h-7.151v10.402h7.151zm-12.44 0h-7.151v10.402h7.151zm-12.64 0h-7.151v10.402h7.151zm-13.18 0h-7.151v10.402h7.151zm-13.4 0h-7.151v10.402h7.151zm-13.13 0h-7.151v10.402h7.151zm-12.4 0h-7.151v10.402h7.151zm-12.67 0h-7.151v10.402h7.151zm-12.8 0h-7.151v10.402h7.151zm-13.4 0h-7.151v10.402h7.151zm-13.089 0h-7.152v10.402h7.152zm-12.401 0h-7.151v10.402h7.151zm-12.68 0h-7.151v10.402h7.151zm245.081 18.04h-7.152v10.401h7.152zm-13.391 0h-7.151v10.401h7.151zm-13.1 0h-7.151v10.401h7.151zm-12.43 0H484.1v10.401h7.151zm-12.65 0h-7.151v10.401h7.151zm-12.79 0h-7.151v10.401h7.151zm-13.4 0h-7.151v10.401h7.151zm-13.09 0h-7.151v10.401h7.151zm-12.44 0h-7.151v10.401h7.151zm-12.64 0h-7.151v10.401h7.151zm-13.18 0h-7.151v10.401h7.151zm-13.4 0h-7.151v10.401h7.151zm-13.13 0h-7.151v10.401h7.151zm-12.4 0h-7.151v10.401h7.151zm-12.67 0h-7.151v10.401h7.151zm-12.8 0h-7.151v10.401h7.151zm-13.4 0h-7.151v10.401h7.151zm-13.089 0h-7.152v10.401h7.152zm-12.401 0h-7.151v10.401h7.151zm-12.68 0h-7.151v10.401h7.151zm295.322 32.57H414.36v91.492h166.053z"/><path fill="#e5e5e5" d="M706.333 390.46H540.28v45.389h166.053zM235 435.96h166.053v-77.21H235z"/><path fill="#fff" d="M569.31 355.16h-30.93v17.075h30.93zm-39.71 0h-30.93v17.075h30.93zm-38.95 0h-30.93v17.075h30.93zm-38.2 0h-30.93v17.075h30.93z"/><path fill="#e5e5e5" d="M416.082 344.39H400.15v91.492h15.932zm-197.71-18.01H202.44v109.406h15.932z"/><path fill="#e5e5e5" d="M217.88 435.806h17.11V358.75h-17.11z"/><path fill="#dceaf9" d="M657.095 179.91h-.875v7.204h.875zm-30.99 0h-.875v7.204h.875z"/><path fill="#fff" d="M309.29 326.13h-91.4v109.686h91.4z"/><path fill="#fff" d="M225.71 304.15h-1.69v22.229h1.69zm83.581 52.75H195.26v78.888h114.031z"/><path fill="#e5e5e5" d="M309.291 346.59H195.26v25.644h114.031zm-7.777 33.25h-5.854v8.506h5.854zm-10.96 0H284.7v8.506h5.854zm-10.68 0h-5.854v8.506h5.854zm-10.17 0h-5.854v8.506h5.854zm-10.35 0H253.5v8.506h5.854zm-10.44 0h-5.854v8.506h5.854zm-10.95 0h-5.854v8.506h5.854zm-10.72 0h-5.854v8.506h5.854zm-10.13 0h-5.854v8.506h5.854zm-10.35 0h-5.854v8.506h5.854zm94.75 15h-5.854v8.508h5.854zm-10.96 0H284.7v8.508h5.854zm-10.68 0h-5.854v8.508h5.854zm-10.17 0h-5.854v8.508h5.854zm-10.35 0H253.5v8.508h5.854zm-10.44 0h-5.854v8.508h5.854zm-10.95 0h-5.854v8.508h5.854zm-10.72 0h-5.854v8.508h5.854zm-10.13 0h-5.854v8.508h5.854zm-10.35 0h-5.854v8.508h5.854zm94.75 14.74h-5.854v8.506h5.854zm-10.96 0H284.7v8.506h5.854zm-10.68 0h-5.854v8.506h5.854zm-10.17 0h-5.854v8.506h5.854zm-10.35 0H253.5v8.506h5.854zm-10.44 0h-5.854v8.506h5.854zm-10.95 0h-5.854v8.506h5.854zm-10.72 0h-5.854v8.506h5.854zm-10.13 0h-5.854v8.506h5.854zm-10.35 0h-5.854v8.506h5.854z"/><path fill="#e5e5e5" d="M300.579 353.79h-4.919v8.756h4.919zm-48.86 0H246.8v8.756h4.919zm-38.861 0h-4.918v8.756h4.918z"/><path fill="#fff" d="M788.921 356.9H674.89v78.888h114.031z"/><path fill="#e5e5e5" d="M788.921 346.59H674.89v25.644h114.031zm-7.747 33.25h-5.854v8.506h5.854zm-10.96 0h-5.854v8.506h5.854zm-10.71 0h-5.854v8.506h5.854zm-10.14 0h-5.854v8.506h5.854zm-10.35 0h-5.854v8.506h5.854zm-10.47 0h-5.854v8.506h5.854zm-10.95 0h-5.854v8.506h5.854zm-10.71 0h-5.854v8.506h5.854zm-10.14 0h-5.854v8.506h5.854zm-10.35 0h-5.854v8.506h5.854zm94.78 15h-5.854v8.508h5.854zm-10.96 0h-5.854v8.508h5.854zm-10.71 0h-5.854v8.508h5.854zm-10.14 0h-5.854v8.508h5.854zm-10.35 0h-5.854v8.508h5.854zm-10.47 0h-5.854v8.508h5.854zm-10.95 0h-5.854v8.508h5.854zm-10.71 0h-5.854v8.508h5.854zm-10.14 0h-5.854v8.508h5.854zm-10.35 0h-5.854v8.508h5.854zm94.78 14.74h-5.854v8.506h5.854zm-10.96 0h-5.854v8.506h5.854zm-10.71 0h-5.854v8.506h5.854zm-10.14 0h-5.854v8.506h5.854zm-10.35 0h-5.854v8.506h5.854zm-10.47 0h-5.854v8.506h5.854zm-10.95 0h-5.854v8.506h5.854zm-10.71 0h-5.854v8.506h5.854zm-10.14 0h-5.854v8.506h5.854zm-10.35 0h-5.854v8.506h5.854z"/><path fill="#e5e5e5" d="M780.239 353.79h-4.919v8.756h4.919zm-48.86 0h-4.919v8.756h4.919zm-38.86 0H687.6v8.756h4.919z"/><path fill="#fff" d="M910.111 356.9H796.08v78.888h114.031z"/><path fill="#e5e5e5" d="M910.111 346.59H796.08v25.644h114.031zm-7.787 33.25h-5.854v8.506h5.854zm-10.92 0h-5.854v8.506h5.854zm-10.72 0h-5.854v8.506h5.854zm-10.16 0h-5.854v8.506h5.854zm-10.32 0h-5.854v8.506h5.854zm-10.48 0h-5.854v8.506h5.854zm-10.95 0h-5.854v8.506h5.854zm-10.71 0h-5.854v8.506h5.854zm-10.14 0h-5.854v8.506h5.854zm-10.35 0h-5.854v8.506h5.854zm94.75 15h-5.854v8.508h5.854zm-10.92 0h-5.854v8.508h5.854zm-10.72 0h-5.854v8.508h5.854zm-10.16 0h-5.854v8.508h5.854zm-10.32 0h-5.854v8.508h5.854zm-10.48 0h-5.854v8.508h5.854zm-10.95 0h-5.854v8.508h5.854zm-10.71 0h-5.854v8.508h5.854zm-10.14 0h-5.854v8.508h5.854zm-10.35 0h-5.854v8.508h5.854zm94.75 14.74h-5.854v8.506h5.854zm-10.92 0h-5.854v8.506h5.854zm-10.72 0h-5.854v8.506h5.854zm-10.16 0h-5.854v8.506h5.854zm-10.32 0h-5.854v8.506h5.854zm-10.48 0h-5.854v8.506h5.854zm-10.95 0h-5.854v8.506h5.854zm-10.71 0h-5.854v8.506h5.854zm-10.14 0h-5.854v8.506h5.854zm-10.35 0h-5.854v8.506h5.854z"/><path fill="#e5e5e5" d="M901.388 353.79h-4.918v8.756h4.918zm-48.85 0h-4.918v8.756h4.918zm-38.84 0h-4.918v8.756h4.918z"/><path fill="#fff" d="M1031.561 356.9H917.53v78.888h114.031z"/><path fill="#e5e5e5" d="M1031.561 346.59H917.53v25.644h114.031zm-7.787 33.25h-5.854v8.506h5.854zm-10.95 0h-5.854v8.506h5.854zm-10.71 0h-5.854v8.506h5.854zm-10.14 0h-5.854v8.506h5.854zm-10.35 0h-5.854v8.506h5.854zm-10.44 0h-5.854v8.506h5.854zm-10.95 0h-5.854v8.506h5.854zm-10.72 0h-5.854v8.506h5.854zm-10.17 0h-5.854v8.506h5.854zm-10.32 0h-5.854v8.506h5.854zm94.75 15h-5.854v8.508h5.854zm-10.95 0h-5.854v8.508h5.854zm-10.71 0h-5.854v8.508h5.854zm-10.14 0h-5.854v8.508h5.854zm-10.35 0h-5.854v8.508h5.854zm-10.44 0h-5.854v8.508h5.854zm-10.95 0h-5.854v8.508h5.854zm-10.72 0h-5.854v8.508h5.854zm-10.17 0h-5.854v8.508h5.854zm-10.32 0h-5.854v8.508h5.854zm94.75 14.74h-5.854v8.506h5.854zm-10.95 0h-5.854v8.506h5.854zm-10.71 0h-5.854v8.506h5.854zm-10.14 0h-5.854v8.506h5.854zm-10.35 0h-5.854v8.506h5.854zm-10.44 0h-5.854v8.506h5.854zm-10.95 0h-5.854v8.506h5.854zm-10.72 0h-5.854v8.506h5.854zm-10.17 0h-5.854v8.506h5.854zm-10.32 0h-5.854v8.506h5.854z"/><path fill="#e5e5e5" d="M1022.838 353.79h-4.918v8.756h4.918zm-48.85 0h-4.918v8.756h4.918zm-38.859 0h-4.919v8.756h4.919z"/><path fill="#2e3552" d="M216.93 434.02l.03.031h1.57c-.121-.031-.272-.031-.423-.031z"/><path fill="#7dabbd" d="M448.491 280.4c-.06 0-.15-.03-.241-.03"/><path fill="#2e3552" d="M227.04 434.02l-.03.031h-1.57c.12-.031.272-.031.422-.031z"/><path fill="#df2c2c" d="M1066.747 435.975c1.509-2.546 1.69-5.123-.362-7.483-4.888-5.651-18.678 1.335-28.485 7.483zm-32.711-.003c9.293-10.71 24.05-30.394 14.574-37.97-9.656-7.73-29.149 21.05-39.167 37.504.694-12.853-.302-29.959-10.923-26.047-11.044 4.036-1.901 16.299 4.647 26.513zm-564.97-35.14c-30.295-.621-48.883-17.914-66.626-32.568 25.649-12.759 56.578-28.81 40.797-40.39-14.846-10.928-36.753 11.549-52.052 31.604a98.686 98.686 0 00-4.345-2.918c6.517-18.845 9.897-38.621-2.656-42.067-12.009-3.322-15.54 14.592-16.023 34.12-33.041-7.017-60.018-4.471-88.835 4.687-28.968 9.19-70.217-58.8-155.25-51.132-9.083.807-16.989 2.794-23.839 5.712-.301-24.154-4.647-55.479-25.135-55.51-33.404-.062 2.474 41.819 7.03 52.033 1.871 4.222 3.41 8.01 4.617 11.363a57.767 57.767 0 00-6.82 6.24c-4.043-15.212-10.41-30.922-19.613-32.163-18.226-2.422-30.115 21.173-15.42 29.027 7.001 3.757 16.566 11.27 24.684 18.131-18.075 35.858-6.398 87.612 3.017 98.105l460.139-.124c-.061 0-15.027-33.126-63.67-34.15z"/><path fill="#861a1a" d="M34.28 436.036s7.876-22.384 44.75-16.33c36.904 6.054 53.228 1.8 71.394-3.012 18.135-4.843 25.95-5.091 43.21 1.397 17.29 6.458 23.325 19.777 79.572 6.458 56.246-13.319 82.86-24.185 117.954-13.909 35.093 10.276 78.304-8.507 121.575 9.066 43.271 17.603 110.108-13.32 143.965 16.33z"/><path fill="#2e3552" d="M1084.22 437.684H5.975a.921.921 0 01-.905-.932c0-.497.392-.932.905-.932H1084.22c.48 0 .9.404.9.932s-.39.932-.9.932z"/></svg>