<svg width="1086" height="442" fill="none" xmlns="http://www.w3.org/2000/svg"><path opacity=".18" d="M64.213 438.855s-148.069-140.328 6.639-216.949c98.068-48.587 74.592-60.664 106.246-127.754 38.805-82.24 231.593-143.93 312.16-17.82 59.324 92.827 93 90.84 136.301 74.572 49.638-18.659 92.727-58.863 151.659-31.077 84.671 39.925 96.892 124.867 150.966 106.363C1072.9 176.61 1129.9 394.087 1001.3 440.004l-937.087-1.149z" fill="url(#paint0_linear)"/><path d="M790.495 58.45h-66.747v333.898h66.747V58.45z" fill="#E5E5E5"/><path d="M805.492 58.45h-66.747v333.898h66.747V58.45z" fill="#fff"/><path d="M805.492 58.356h-66.717v19.28h66.717v-19.28zm0 41.85h-66.717v19.28h66.717v-19.28zm0 41.85h-66.717v19.279h66.717v-19.279zm0 41.819h-66.717v19.28h66.717v-19.28zm0 41.85h-66.717v19.279h66.717v-19.279zm0 41.85h-66.717v19.279h66.717v-19.279zm0 41.85h-66.717v19.279h66.717v-19.279zm0 41.85h-66.717v19.279h66.717v-19.279zM897.194 105.7h-66.747v286.648h66.747V105.7z" fill="#E5E5E5"/><path d="M912.161 105.7h-66.747v286.648h66.747V105.7z" fill="#fff"/><path d="M912.161 105.608h-66.717v16.579h66.717v-16.579zm0 35.92h-66.717v16.578h66.717v-16.578zm0 35.92h-66.717v16.579h66.717v-16.579zm0 35.951h-66.717v16.579h66.717v-16.579zm0 35.921h-66.717v16.578h66.717V249.32zm0 35.92h-66.717v16.578h66.717V285.24zm0 35.92h-66.717v16.579h66.717V321.16zm0 35.92h-66.717v16.579h66.717V357.08z" fill="#E5E5E5"/><path d="M687.651 424h27.942v-41.912h-27.942V424z" fill="#DCEAF9"/><path d="M304.406 214.518v-25.675h7.634v-44.148h40.978v44.148h38.292v-71.934h42.275v46.693h9.626v-55.727h42.275v104.5h53.44v60.943h19.976v15.368h45.866v-26.451h26.343v-71.84h32.528v132.628h32.529V438.42H271.757V214.518h32.649z" fill="#fff"/><path d="M663.639 191.14h-32.83v16.579h32.83V191.14zm0 24.65h-32.83v16.579h32.83V215.79zm0 24.65h-32.83v16.579h32.83V240.44zm0 25.862h-32.83v16.578h32.83v-16.578zm0 25.023h-32.83v16.578h32.83v-16.578zm0 25.054h-32.83v16.579h32.83v-16.579zm0 26.203h-32.83v16.579h32.83v-16.579z" fill="#E5E5E5"/><path d="M631.262 191.14h-12.101v72.461h12.101V191.14zm-26.494 72.43h-24.351v26.669h24.351V263.57zM391.31 117.033h-8.389v72.523h8.389v-72.523zm51.901-9.158h-5.16v56.192h5.16v-56.192zm42.275 7.109h-42.275v10.743h42.275v-10.743zm0 20.18h-42.275v10.742h42.275v-10.742zm0 18.162h-42.275v10.741h42.275v-10.741zm-51.901 0H391.31v10.741h42.275v-10.741zm0-18.162H391.31v10.742h42.275v-10.742zm0-18.13H391.31v10.742h42.275v-10.742zm51.901 53.895H391.31v10.743h94.176v-10.743zm0 17.603H391.31v10.741h94.176v-10.741zm0 17.199H391.31v6.831h94.176v-6.831zm44.689 18.131h-7.151v10.401h7.151v-10.401zm-13.397 0h-7.152v10.401h7.152v-10.401zm-13.096 0h-7.152v10.401h7.152v-10.401zm-12.432 0h-7.152v10.401h7.152v-10.401zm-12.644 0h-7.151v10.401h7.151v-10.401zm-12.794 0h-7.151v10.401h7.151v-10.401zm-13.398 0h-7.151v10.401h7.151v-10.401zm-13.096 0h-7.151v10.401h7.151v-10.401zm-12.432 0h-7.151v10.401h7.151v-10.401zm-12.643 0h-7.152v10.401h7.152v-10.401zm-13.187 0h-7.151v10.401h7.151v-10.401zm-13.397 0h-7.152v10.401h7.152v-10.401zm-13.126 0h-7.152v10.401h7.152v-10.401zm-12.402 0h-7.152v10.401h7.152v-10.401zm-12.674 0h-7.151v10.401h7.151v-10.401zm-12.794 0h-7.151v10.401h7.151v-10.401zm-13.398 0h-7.151v10.401h7.151v-10.401zm-13.096 0h-7.151v10.401h7.151v-10.401zm-12.402 0h-7.151v10.401h7.151v-10.401zm-12.673 0h-7.151v10.401h7.151v-10.401zm245.081 18.348h-7.151v10.402h7.151V242.21zm-13.397 0h-7.152v10.402h7.152V242.21zm-13.096 0h-7.152v10.402h7.152V242.21zm-12.432 0h-7.152v10.402h7.152V242.21zm-12.644 0h-7.151v10.402h7.151V242.21zm-12.794 0h-7.151v10.402h7.151V242.21zm-13.398 0h-7.151v10.402h7.151V242.21zm-13.096 0h-7.151v10.402h7.151V242.21zm-12.432 0h-7.151v10.402h7.151V242.21zm-12.643 0h-7.152v10.402h7.152V242.21zm-13.187 0h-7.151v10.402h7.151V242.21zm-13.397 0h-7.152v10.402h7.152V242.21zm-13.126 0h-7.152v10.402h7.152V242.21zm-12.402 0h-7.152v10.402h7.152V242.21zm-12.674 0h-7.151v10.402h7.151V242.21zm-12.794 0h-7.151v10.402h7.151V242.21zm-13.398 0h-7.151v10.402h7.151V242.21zm-13.096 0h-7.151v10.402h7.151V242.21zm-12.402 0h-7.151v10.402h7.151V242.21zm-12.673 0h-7.151v10.402h7.151V242.21zm245.081 18.038h-7.151v10.401h7.151v-10.401zm-13.397 0h-7.152v10.401h7.152v-10.401zm-13.096 0h-7.152v10.401h7.152v-10.401zm-12.432 0h-7.152v10.401h7.152v-10.401zm-12.644 0h-7.151v10.401h7.151v-10.401zm-12.794 0h-7.151v10.401h7.151v-10.401zm-13.398 0h-7.151v10.401h7.151v-10.401zm-13.096 0h-7.151v10.401h7.151v-10.401zm-12.432 0h-7.151v10.401h7.151v-10.401zm-12.643 0h-7.152v10.401h7.152v-10.401zm-13.187 0h-7.151v10.401h7.151v-10.401zm-13.397 0h-7.152v10.401h7.152v-10.401zm-13.126 0h-7.152v10.401h7.152v-10.401zm-12.402 0h-7.152v10.401h7.152v-10.401zm-12.674 0h-7.151v10.401h7.151v-10.401zm-12.794 0h-7.151v10.401h7.151v-10.401zm-13.398 0h-7.151v10.401h7.151v-10.401zm-13.096 0h-7.151v10.401h7.151v-10.401zm-12.402 0h-7.151v10.401h7.151v-10.401zm-12.673 0h-7.151v10.401h7.151v-10.401zm245.081 19.186h-7.151v10.402h7.151v-10.402zm-13.397 0h-7.152v10.402h7.152v-10.402zm-13.096 0h-7.152v10.402h7.152v-10.402zm-12.432 0h-7.152v10.402h7.152v-10.402zm-12.644 0h-7.151v10.402h7.151v-10.402zm-12.794 0h-7.151v10.402h7.151v-10.402zm-13.398 0h-7.151v10.402h7.151v-10.402zm-13.096 0h-7.151v10.402h7.151v-10.402zm-12.432 0h-7.151v10.402h7.151v-10.402zm-12.643 0h-7.152v10.402h7.152v-10.402zm-13.187 0h-7.151v10.402h7.151v-10.402zm-13.397 0h-7.152v10.402h7.152v-10.402zm-13.126 0h-7.152v10.402h7.152v-10.402zm-12.402 0h-7.152v10.402h7.152v-10.402zm-12.674 0h-7.151v10.402h7.151v-10.402zm-12.794 0h-7.151v10.402h7.151v-10.402zm-13.398 0h-7.151v10.402h7.151v-10.402zm-13.096 0h-7.151v10.402h7.151v-10.402zm-12.402 0h-7.151v10.402h7.151v-10.402zm-12.673 0h-7.151v10.402h7.151v-10.402zm245.081 18.348h-7.151v10.403h7.151v-10.403zm-13.397 0h-7.152v10.403h7.152v-10.403zm-13.096 0h-7.152v10.403h7.152v-10.403zm-12.432 0h-7.152v10.403h7.152v-10.403zm-12.644 0h-7.151v10.403h7.151v-10.403zm-12.794 0h-7.151v10.403h7.151v-10.403zm-13.398 0h-7.151v10.403h7.151v-10.403zm-13.096 0h-7.151v10.403h7.151v-10.403zm-12.432 0h-7.151v10.403h7.151v-10.403zm-12.643 0h-7.152v10.403h7.152v-10.403zm-13.187 0h-7.151v10.403h7.151v-10.403zm-13.397 0h-7.152v10.403h7.152v-10.403zm-13.126 0h-7.152v10.403h7.152v-10.403zm-12.402 0h-7.152v10.403h7.152v-10.403zm-12.674 0h-7.151v10.403h7.151v-10.403zm-12.794 0h-7.151v10.403h7.151v-10.403zm-13.398 0h-7.151v10.403h7.151v-10.403zm-13.096 0h-7.151v10.403h7.151v-10.403zm-12.402 0h-7.151v10.403h7.151v-10.403zm-12.673 0h-7.151v10.403h7.151v-10.403zm245.081 18.038h-7.151v10.402h7.151V315.82zm-13.397 0h-7.152v10.402h7.152V315.82zm-13.096 0h-7.152v10.402h7.152V315.82zm-12.432 0h-7.152v10.402h7.152V315.82zm-12.644 0h-7.151v10.402h7.151V315.82zm-12.794 0h-7.151v10.402h7.151V315.82zm-13.398 0h-7.151v10.402h7.151V315.82zm-13.096 0h-7.151v10.402h7.151V315.82zm-12.432 0h-7.151v10.402h7.151V315.82zm-12.643 0h-7.152v10.402h7.152V315.82zm-13.187 0h-7.151v10.402h7.151V315.82zm-13.397 0h-7.152v10.402h7.152V315.82zm-13.126 0h-7.152v10.402h7.152V315.82zm-12.402 0h-7.152v10.402h7.152V315.82zm-12.674 0h-7.151v10.402h7.151V315.82zm-12.794 0h-7.151v10.402h7.151V315.82zm-13.398 0h-7.151v10.402h7.151V315.82zm-13.096 0h-7.151v10.402h7.151V315.82zm-12.402 0h-7.151v10.402h7.151V315.82zm-12.673 0h-7.151v10.402h7.151V315.82zm295.323 32.567H414.364v91.492h166.053v-91.492z" fill="#E5E5E5"/><path d="M706.337 394.46H540.284v45.389h166.053V394.46zm-471.338 45.501h166.053V362.75H234.999v77.211z" fill="#E5E5E5"/><path d="M569.312 359.161h-30.929v17.075h30.929v-17.075zm-39.71 0h-30.929v17.075h30.929v-17.075zm-38.956 0h-30.929v17.075h30.929v-17.075zm-38.201 0h-30.93v17.075h30.93v-17.075z" fill="#fff"/><path d="M416.084 348.387h-15.933v91.492h15.933v-91.492zm-197.707-18.006h-15.932v109.406h15.932V330.381z" fill="#E5E5E5"/><path d="M217.885 439.802h17.109v-77.056h-17.109v77.056z" fill="#E5E5E5"/><path d="M657.091 183.906h-.875v7.204h.875v-7.204zm-30.989 0h-.875v7.204h.875v-7.204z" fill="#DCEAF9"/><path d="M309.294 330.132h-91.4v109.686h91.4V330.132z" fill="#fff"/><path d="M225.71 308.152h-1.69v22.229h1.69v-22.229zm83.584 52.748H195.263v78.888h114.031V360.9z" fill="#fff"/><path d="M309.294 350.592H195.263v25.643h114.031v-25.643zm-7.785 33.25h-5.854v8.506h5.854v-8.506zm-10.953 0h-5.854v8.506h5.854v-8.506zm-10.682 0h-5.854v8.506h5.854v-8.506zm-10.169 0h-5.854v8.506h5.854v-8.506zm-10.35 0h-5.854v8.506h5.854v-8.506zm-10.441 0h-5.854v8.506h5.854v-8.506zm-10.953 0h-5.854v8.506h5.854v-8.506zm-10.713 0h-5.853v8.506h5.853v-8.506zm-10.138 0h-5.854v8.506h5.854v-8.506zm-10.35 0h-5.854v8.506h5.854v-8.506zm94.749 14.994h-5.854v8.508h5.854v-8.508zm-10.953 0h-5.854v8.508h5.854v-8.508zm-10.682 0h-5.854v8.508h5.854v-8.508zm-10.169 0h-5.854v8.508h5.854v-8.508zm-10.35 0h-5.854v8.508h5.854v-8.508zm-10.441 0h-5.854v8.508h5.854v-8.508zm-10.953 0h-5.854v8.508h5.854v-8.508zm-10.713 0h-5.853v8.508h5.853v-8.508zm-10.138 0h-5.854v8.508h5.854v-8.508zm-10.35 0h-5.854v8.508h5.854v-8.508zm94.749 14.748h-5.854v8.506h5.854v-8.506zm-10.953 0h-5.854v8.506h5.854v-8.506zm-10.682 0h-5.854v8.506h5.854v-8.506zm-10.169 0h-5.854v8.506h5.854v-8.506zm-10.35 0h-5.854v8.506h5.854v-8.506zm-10.441 0h-5.854v8.506h5.854v-8.506zm-10.953 0h-5.854v8.506h5.854v-8.506zm-10.713 0h-5.853v8.506h5.853v-8.506zm-10.138 0h-5.854v8.506h5.854v-8.506zm-10.35 0h-5.854v8.506h5.854v-8.506z" fill="#E5E5E5"/><path d="M300.574 357.794h-4.919v8.757h4.919v-8.757zm-48.854 0h-4.918v8.757h4.918v-8.757zm-38.865 0h-4.918v8.757h4.918v-8.757z" fill="#E5E5E5"/><path d="M788.926 360.9H674.895v78.888h114.031V360.9z" fill="#fff"/><path d="M788.926 350.592H674.895v25.643h114.031v-25.643zm-7.755 33.25h-5.854v8.506h5.854v-8.506zm-10.954 0h-5.853v8.506h5.853v-8.506zm-10.712 0h-5.854v8.506h5.854v-8.506zm-10.138 0h-5.854v8.506h5.854v-8.506zm-10.35 0h-5.854v8.506h5.854v-8.506zm-10.471 0h-5.854v8.506h5.854v-8.506zm-10.954 0h-5.854v8.506h5.854v-8.506zm-10.712 0h-5.854v8.506h5.854v-8.506zm-10.139 0h-5.854v8.506h5.854v-8.506zm-10.35 0h-5.854v8.506h5.854v-8.506zm94.78 14.994h-5.854v8.508h5.854v-8.508zm-10.954 0h-5.853v8.508h5.853v-8.508zm-10.712 0h-5.854v8.508h5.854v-8.508zm-10.138 0h-5.854v8.508h5.854v-8.508zm-10.35 0h-5.854v8.508h5.854v-8.508zm-10.471 0h-5.854v8.508h5.854v-8.508zm-10.954 0h-5.854v8.508h5.854v-8.508zm-10.712 0h-5.854v8.508h5.854v-8.508zm-10.139 0h-5.854v8.508h5.854v-8.508zm-10.35 0h-5.854v8.508h5.854v-8.508zm94.78 14.748h-5.854v8.506h5.854v-8.506zm-10.954 0h-5.853v8.506h5.853v-8.506zm-10.712 0h-5.854v8.506h5.854v-8.506zm-10.138 0h-5.854v8.506h5.854v-8.506zm-10.35 0h-5.854v8.506h5.854v-8.506zm-10.471 0h-5.854v8.506h5.854v-8.506zm-10.954 0h-5.854v8.506h5.854v-8.506zm-10.712 0h-5.854v8.506h5.854v-8.506zm-10.139 0h-5.854v8.506h5.854v-8.506zm-10.35 0h-5.854v8.506h5.854v-8.506z" fill="#E5E5E5"/><path d="M780.236 357.794h-4.919v8.757h4.919v-8.757zm-48.854 0h-4.918v8.757h4.918v-8.757zm-38.865 0h-4.919v8.757h4.919v-8.757z" fill="#E5E5E5"/><path d="M910.109 360.9H796.077v78.888h114.032V360.9z" fill="#fff"/><path d="M910.109 350.592H796.077v25.643h114.032v-25.643zm-7.785 33.25h-5.854v8.506h5.854v-8.506zm-10.924 0h-5.854v8.506h5.854v-8.506zm-10.712 0h-5.854v8.506h5.854v-8.506zm-10.169 0h-5.854v8.506h5.854v-8.506zm-10.32 0h-5.854v8.506h5.854v-8.506zm-10.47 0h-5.854v8.506h5.854v-8.506zm-10.954 0h-5.854v8.506h5.854v-8.506zm-10.712 0h-5.854v8.506h5.854v-8.506zm-10.139 0h-5.854v8.506h5.854v-8.506zm-10.35 0h-5.854v8.506h5.854v-8.506zm94.749 14.994h-5.853v8.508h5.853v-8.508zm-10.923 0h-5.854v8.508h5.854v-8.508zm-10.712 0h-5.854v8.508h5.854v-8.508zm-10.169 0h-5.854v8.508h5.854v-8.508zm-10.32 0h-5.854v8.508h5.854v-8.508zm-10.47 0h-5.854v8.508h5.854v-8.508zm-10.954 0h-5.854v8.508h5.854v-8.508zm-10.712 0h-5.854v8.508h5.854v-8.508zm-10.139 0h-5.854v8.508h5.854v-8.508zm-10.35 0h-5.854v8.508h5.854v-8.508zm94.749 14.748h-5.853v8.506h5.853v-8.506zm-10.923 0h-5.854v8.506h5.854v-8.506zm-10.712 0h-5.854v8.506h5.854v-8.506zm-10.169 0h-5.854v8.506h5.854v-8.506zm-10.32 0h-5.854v8.506h5.854v-8.506zm-10.47 0h-5.854v8.506h5.854v-8.506zm-10.954 0h-5.854v8.506h5.854v-8.506zm-10.712 0h-5.854v8.506h5.854v-8.506zm-10.139 0h-5.854v8.506h5.854v-8.506zm-10.35 0h-5.854v8.506h5.854v-8.506z" fill="#E5E5E5"/><path d="M901.388 357.794h-4.918v8.757h4.918v-8.757zm-48.853 0h-4.919v8.757h4.919v-8.757zm-38.835 0h-4.919v8.757h4.919v-8.757z" fill="#E5E5E5"/><path d="M1031.56 360.9H917.532v78.888h114.028V360.9z" fill="#fff"/><path d="M1031.56 350.592H917.532v25.643h114.028v-25.643zm-7.78 33.25h-5.86v8.506h5.86v-8.506zm-10.96 0h-5.85v8.506h5.85v-8.506zm-10.71 0h-5.852v8.506h5.852v-8.506zm-10.136 0h-5.854v8.506h5.854v-8.506zm-10.35 0h-5.854v8.506h5.854v-8.506zm-10.441 0h-5.854v8.506h5.854v-8.506zm-10.954 0h-5.854v8.506h5.854v-8.506zm-10.712 0h-5.854v8.506h5.854v-8.506zm-10.169 0h-5.854v8.506h5.854v-8.506zm-10.32 0h-5.853v8.506h5.853v-8.506zm94.752 14.994h-5.86v8.508h5.86v-8.508zm-10.96 0h-5.85v8.508h5.85v-8.508zm-10.71 0h-5.852v8.508h5.852v-8.508zm-10.136 0h-5.854v8.508h5.854v-8.508zm-10.35 0h-5.854v8.508h5.854v-8.508zm-10.441 0h-5.854v8.508h5.854v-8.508zm-10.954 0h-5.854v8.508h5.854v-8.508zm-10.712 0h-5.854v8.508h5.854v-8.508zm-10.169 0h-5.854v8.508h5.854v-8.508zm-10.32 0h-5.853v8.508h5.853v-8.508zm94.752 14.748h-5.86v8.506h5.86v-8.506zm-10.96 0h-5.85v8.506h5.85v-8.506zm-10.71 0h-5.852v8.506h5.852v-8.506zm-10.136 0h-5.854v8.506h5.854v-8.506zm-10.35 0h-5.854v8.506h5.854v-8.506zm-10.441 0h-5.854v8.506h5.854v-8.506zm-10.954 0h-5.854v8.506h5.854v-8.506zm-10.712 0h-5.854v8.506h5.854v-8.506zm-10.169 0h-5.854v8.506h5.854v-8.506zm-10.32 0h-5.853v8.506h5.853v-8.506z" fill="#E5E5E5"/><path d="M1022.84 357.794h-4.92v8.757h4.92v-8.757zm-48.851 0h-4.918v8.757h4.918v-8.757zm-38.865 0h-4.919v8.757h4.919v-8.757z" fill="#E5E5E5"/><path d="M216.929 438.017l.03.031h1.569c-.121-.031-.272-.031-.423-.031h-1.176z" fill="#2E3552"/><path d="M448.492 284.401c-.061 0-.151-.03-.242-.03.091.03.181.03.242.03z" fill="#7DABBD"/><path d="M227.037 438.017l-.03.031h-1.569c.121-.031.272-.031.422-.031h1.177z" fill="#2E3552"/><path d="M1066.75 439.975c1.51-2.547 1.69-5.124-.36-7.484-4.89-5.651-18.68 1.335-28.49 7.484h28.85zm-32.71-.001c9.29-10.711 24.05-30.395 14.57-37.97-9.65-7.73-29.15 21.049-39.17 37.504.7-12.853-.3-29.96-10.918-26.048-11.044 4.036-1.901 16.299 4.648 26.514h30.87zm-564.969-35.146c-30.296-.621-48.884-17.913-66.626-32.567 25.648-12.76 56.578-28.81 40.796-40.391-14.846-10.928-36.753 11.55-52.052 31.605a96.655 96.655 0 00-4.345-2.918c6.518-18.845 9.897-38.621-2.655-42.067-12.01-3.322-15.54 14.591-16.023 34.119-33.042-7.016-60.018-4.471-88.835 4.688-28.968 9.19-70.218-58.801-155.251-51.133-9.083.808-16.988 2.795-23.838 5.713-.302-24.154-4.647-55.479-25.136-55.51-33.404-.062 2.475 41.819 7.03 52.033 1.872 4.222 3.41 8.01 4.618 11.363a57.628 57.628 0 00-6.82 6.24c-4.043-15.213-10.41-30.922-19.614-32.164-18.225-2.421-30.114 21.173-15.419 29.028 7 3.757 16.566 11.27 24.683 18.131-18.075 35.858-6.397 87.612 3.018 98.105l460.138-.124c-.06 0-15.027-33.126-63.669-34.151z" fill="#698842"/><path d="M34.28 440.035s7.875-22.384 44.749-16.33c36.904 6.054 53.229 1.801 71.394-3.012 18.135-4.843 25.95-5.091 43.211 1.397 17.29 6.458 23.325 19.777 79.571 6.458 56.246-13.319 82.861-24.185 117.954-13.909 35.094 10.277 78.304-8.506 121.575 9.066 43.271 17.603 110.109-13.319 143.965 16.33H34.279z" fill="#405328"/><path d="M1084.22 441.682H5.975a.921.921 0 01-.905-.932c0-.497.392-.932.905-.932H1084.22c.48 0 .9.404.9.932s-.39.932-.9.932z" fill="#2E3552"/><circle cx="167.5" cy="66.5" r="66.5" fill="url(#paint1_radial)"/><circle cx="167.5" cy="66.5" r="46.5" fill="#F8C244"/><circle cx="167" cy="67" r="41" fill="#E8A825"/><defs><radialGradient id="paint1_radial" cx="0" cy="0" r="1" gradientUnits="userSpaceOnUse" gradientTransform="rotate(90 50.5 117) scale(66.5)"><stop stop-color="#F8C244"/><stop offset="1" stop-color="#F8C244" stop-opacity="0"/></radialGradient><linearGradient id="paint0_linear" x1="536.609" y1="4.397" x2="536.609" y2="440.004" gradientUnits="userSpaceOnUse"><stop offset=".401" stop-color="#DF2C2C"/><stop offset="1" stop-color="#fff"/></linearGradient></defs></svg>