<svg xmlns="http://www.w3.org/2000/svg" width="296" height="391"><path fill="#564f4c" d="M261.778 390.622c16.152-.684 28.707-14.71 28.042-31.329-.664-16.618-14.297-29.536-30.45-28.852-16.152.684-28.707 14.71-28.042 31.33.665 16.618 14.297 29.535 30.45 28.851z"/><path fill="#df2c2c" d="M261.216 376.57c8.609-.365 15.3-7.84 14.946-16.698-.354-8.858-7.62-15.742-16.23-15.378-8.608.365-15.3 7.84-14.946 16.698.355 8.858 7.621 15.742 16.23 15.378z"/><path fill="#35312f" d="M261.056 372.568c6.46-.273 11.483-5.884 11.217-12.532-.266-6.647-5.72-11.814-12.18-11.54-6.461.273-11.483 5.884-11.217 12.531.266 6.648 5.719 11.815 12.18 11.541z"/><path fill="#756e6a" d="M255.226 360.915c1.63 7.948 12.13 5.681 10.5-2.267l-7.694-32.039c-.12-.528-10.622 1.739-10.501 2.266z"/><path fill="#fff" d="M260.715 364.038c1.882-.08 3.344-1.713 3.267-3.65-.078-1.936-1.666-3.441-3.547-3.361-1.882.08-3.345 1.714-3.267 3.65.077 1.936 1.666 3.441 3.547 3.361z"/><path fill="#fff" d="M260.647 362.393c1-.043 1.776-.91 1.735-1.939-.041-1.028-.884-1.827-1.884-1.785-.999.043-1.775.91-1.734 1.939.04 1.028.884 1.827 1.883 1.785z"/><path fill="#861a1a" d="M217 361.004c1.178-.528 5.794-20.087 12.523-26.11 6.73-6.022 33.706-11.052 33.706-11.052l18.286 12.543h8.72s-15.66-23.098-19.523-25.085c-3.862-2.018-46.982 3.508-50.844 7.544-3.863 4.005-13.368 27.941-13.368 27.941z"/><path fill="#861a1a" d="M212.778 357.99L73.611 361.5c-2.867 0-12.191-5.9-12.191-8.85v-5.37c0-2.95 2.323-5.34 5.19-5.34h146.168c2.866 0 5.19 2.39 5.19 5.34v5.37c0 2.95-2.324 5.34-5.19 5.34z"/><path fill="#564f4c" d="M84.413 341.191c1.901 3.819-9.958 5.03-11.859 1.18L42.53 281.024c-.513-1.055 9.052-6.085 9.565-5.03z"/><path fill="#35312f" d="M132.175 328.377l-12.674 8.04s-9.746 2.019-10.742 4.006c-.965 2.017 0 5.029 0 5.029 8.932 1.055 17.441.838 25.377-.994l3.893-2.018.966 2.018c2.806 1.056 6.82.994 9.746 0 0 0 .966-6.022 0-10.027-.966-4.005-4.888-8.041-4.888-8.041zm57.58 0l12.674 8.04s9.746 2.019 10.742 4.006c.966 2.017 0 5.029 0 5.029-8.932 1.055-17.441.838-25.377-.994l-3.893-2.018-.965 2.018c-2.807 1.056-6.82.994-9.747 0 0 0-.965-6.022 0-10.027.966-4.005 4.888-8.041 4.888-8.041z"/><path fill="#0e151d" d="M154.592 170.013l-.151.093-2.776-7.886-44.9 7.793s-1.811 5.495-.936 11.455c.694 24.216 6.79 74.262 6.79 74.262l16.596 73.331c.21 3.104 15.811 1.211 15.6-1.894-2.233-28.438-8.78-72.4-8.78-72.4s1.84-16.391 2.805-34.864c11.708 37.41 29.36 89.475 36.24 110.12 1.962 1.894 14.998.466 14.635-1.894-3.952-28.531-25.226-132.38-35.123-158.116z"/><path fill="#756e6a" d="M106.796 170.013s-2.686 8.072.06 15.274c17.23 6.365 35.516 3.012 50.574-6.83l-5.734-16.237z"/><path fill="#df2c2c" d="M101.035 90.096c-1.298 15.46.905 49.518.905 49.518L73.153 160.88c-3.41 2.112 3.168 13.32 6.578 11.208 0 0 36.421-17.79 39.197-22.695 2.776-4.905 5.1-40.577.121-60.042-2.776-10.65-17.26-8.569-18.014.745z"/><path fill="#861a1a" d="M127.74 71.07c1.358-.342 34.822-3.85 34.822-3.85 10.953 1.614 19.1 11.3 19.04 22.694l-.18 51.412c-.061 13.04-9.989 23.75-22.632 24.433L135.223 167z"/><path fill="#df2c2c" d="M128.25 69.36s-20.49 8.04-25.377 15.057c-4.889 7.017 0 19.063 0 19.063-1.69 11.86 1.357 34.057 3.892 55.23 0 0-5.04 12.108-3.892 15.058 1.961 5.029 6.82 8.041 24.381 8.041 17.562 0 30.265-7.017 31.231-12.046.966-5.03-5.854-15.057-5.854-15.057l4.888-49.208s9.747-16.051 4.889-23.099c-4.889-7.016-34.158-13.039-34.158-13.039z"/><path fill="#861a1a" d="M141.106 72.37s-8.51 17.852-7.816 32.847c1.056 22.012 13.126 35.424 13.126 35.424l8.117-3.757s-10.38-17.758-10.199-31.046c.151-10.245 8.208-33.406 8.208-33.406zm-22.081.93l-10.35 3.788s-10.169 12.263-8.449 30.052c.634 6.613 1.116 10.742 2.595 15.647.181-24.433 16.204-49.487 16.204-49.487z"/><path fill="#f9d998" d="M118.51 59.297l4.888 18.069 2.927 5.03 9.747-11.053-4.888-19.063z"/><path fill="#d65843" d="M133.145 59.886l-1.962-7.606-12.673 7.016 2.655 9.842c5.01 1.49 9.294-3.198 11.98-9.252z" opacity=".64"/><path fill="#f9d998" d="M138.362 41.296c0 1.739-.12 3.384-.392 4.967-1.69 10.432-11.769 17.386-23.657 17.852-5.854.217-9.536-7.234-10.531-17.48a43.31 43.31 0 01-.212-2.886c-.03-.497-.03-1.025-.03-1.553-.03-.28-.03-.59-.03-.869 0-.528.03-1.056.03-1.583.03-.373.03-.745.09-1.118.03-.155.03-.28.03-.435.182-1.924.514-3.787 1.027-5.526 2.565-8.817 8.871-14.995 16.234-14.995 9.626-.031 17.441 10.556 17.441 23.626z"/><path fill="#d65843" d="M120.954 17.64c-7.393 0-13.7 6.21-16.234 14.995.211.093 3.681-5.93 3.681-5.93s9.807 6.334 14.726 4.626c4.285-1.49-.242-6.923-1.57-8.413 1.57 1.552 7.937 7.885 10.592 6.954 0 0-2.052 1.925-2.927 4.315 2.384-1.086 4.828-2.297 7.182-3.694-2.837-7.606-8.69-12.853-15.45-12.853z" opacity=".64"/><path fill="#1e2150" d="M99.858 18.004s-1.66 11.394 5.461 12.73l3.078-6.086s9.807 6.334 14.756 4.626c4.949-1.708-1.901-8.755-1.901-8.755s7.876 8.382 10.953 7.327c0 0-2.655 3.912-3.108 7.7-.513 4.19-.12 9.655-.12 9.655h4.194s9.777.341 14.031-2.794c1.509-1.118 1.6-3.384.362-4.813-1.086-1.241-2.806-2.608-4.948-2.545 0 0 12.22-4.595 12.341-13.474.121-8.91-22.118-9.407-22.118-9.407s5.341-4.44 3.953-7.327c-1.388-2.887-19.704 3.912-19.704 3.912s3.047-5.092.905-7.451c-2.233-2.391-17.35.341-18.135 16.702z"/><path fill="#f9d998" d="M141.686 42.128c-.875 3.881-3.682 6.148-7.755 5.185-2.867-.683-3.44-3.788-2.565-7.638.875-3.881 3.892-6.458 6.729-5.775 2.867.652 4.466 4.347 3.59 8.228z"/><path fill="#d65843" d="M137.34 37.193c-1.478-.341-3.017.994-3.47 2.981v.031h.12c1.419.342 2.234 2.112 1.902 4.006 1.75.124 2.927-.994 3.319-2.795.453-1.956-.392-3.881-1.87-4.223z" opacity=".64"/><path fill="#df2c2c" d="M225.866 361.5H70.646c-.514 0-.936-.434-.936-.962v-14.126c0-.527.422-.962.935-.962h155.221c.513 0 .935.435.935.962v14.126c0 .528-.422.963-.935.963z"/><path fill="#df2c2c" d="M225.842 359.515c1.176-.527 5.854-20.086 12.673-26.109 6.82-6.023 34.158-11.052 34.158-11.052l18.528 14.063 4.888-3.011s-19.523-20.087-23.416-22.074c-3.892-2.018-40.012 4.005-43.904 8.041-3.893 4.005-13.549 25.923-13.549 25.923z"/><path fill="#564f4c" d="M58.967 361.724c.665-16.618-11.89-30.645-28.042-31.329-16.153-.684-29.786 12.234-30.45 28.852-.665 16.619 11.89 30.645 28.042 31.33 16.152.683 29.785-12.234 30.45-28.853z"/><path fill="#df2c2c" d="M45.309 361.146c.354-8.858-6.338-16.334-14.947-16.698-8.609-.365-15.875 6.52-16.23 15.378-.354 8.857 6.338 16.333 14.947 16.697 8.61.365 15.875-6.52 16.23-15.377z"/><path fill="#35312f" d="M41.42 360.981c.265-6.647-4.757-12.258-11.218-12.532-6.46-.273-11.914 4.894-12.18 11.542-.266 6.647 4.756 12.258 11.217 12.531 6.461.274 11.914-4.893 12.18-11.54z"/><path fill="#756e6a" d="M34.83 361.685c-1.54 7.607-12.07 5.309-10.501-2.266l39.288-186.648c.633-3.043 11.134-.776 10.5 2.266z"/><path fill="#df2c2c" d="M45.935 256.376c-.695-1.77-.876-4.47-.906-5.122-1.388-19.56 10.743-31.357 19.705-40.05 2.957-2.856 5.491-5.34 6.91-7.513 5.522-8.507 1.991-25.334 1.961-25.489l2.867-.652c.15.745 3.832 18.224-2.384 27.817-1.6 2.453-4.255 5.03-7.333 8.041-7.966 7.762-18.618 18.1-18.89 34.306-.03 1.646-1.93 8.662-1.93 8.662z"/><path fill="#fff" d="M33.128 360.63c.078-1.936-1.385-3.57-3.267-3.65-1.881-.08-3.47 1.425-3.547 3.362-.077 1.936 1.385 3.57 3.267 3.65 1.881.08 3.47-1.426 3.547-3.362z"/><path fill="#fff" d="M31.529 360.564c.04-1.028-.736-1.896-1.735-1.938-1-.042-1.842.757-1.883 1.785-.041 1.027.735 1.895 1.734 1.937 1 .043 1.843-.756 1.884-1.784z"/><path fill="#df2c2c" d="M148.745 81.402c-5.07 14.623-2.927 57.217-2.927 57.217l-42.94 22.074c-3.349 2.204 3.501 13.225 6.82 11.052 0 0 46.832-16.05 50.755-20.086 3.892-4.005 4.888-42.13 4.888-62.247 0-11.021-13.518-16.827-16.596-8.01z"/><path fill="#564f4c" d="M85.613 181.282l-33.977-2.08c-4.768-.28-4.768-9.562 0-9.842l33.977-2.08c13.277-.807 13.277 14.81 0 14.002z"/><path fill="#f9d998" d="M73.454 162.243s-20.127-.31-22.088 2.08c-1.962 2.39-2.686 7.451-2.686 7.451l2.384 7.202c1.086 1.925 2.112 2.205 3.078.839 1.267 1.583 2.927 2.39 3.259.31 1.207 1.708 2.172 2.173 2.534.093l-1.358-7.047 3.591-4.253 5.371-.31 6.397-.528c.03.03 2.264-.808-.482-5.837z"/><path fill="#f9d998" d="M102.88 161.721l-16.596-3.011-8.781 5.03-3.893 6.022v8.041c0 2.111 1.57 3.446 1.961 2.018.362 2.888 2.716 3.043 3.29.9.362 1.553 2.142.466 3.56-1.924l1.388-3.105c0 1.552 1.75 1.49 2.263.031l1.298-4.129 1.9-2.856s2.113-.745 3.773.217c1.63.963 2.474 3.477 2.474 3.477s1.509 1.77 4.979 1.956c3.47.187 6.035-3.322 6.035-3.322z"/><path fill="#de6145" d="M108.82 39.676c.031.559-.391 1.087-.874 1.366-.513.249-1.087.28-1.63.31-.543.032-1.146.032-1.63.28-.391.155-.754.404-1.146.559-.03-.28-.03-.59-.03-.87 0-.93.03-1.8.12-2.7 1.117-.436 2.626-.59 3.561-.373.785.124 1.6.652 1.63 1.428z" opacity=".3"/><path fill="#2d1d17" d="M106.382 41.701c0 .838-.453 1.335-.996 1.335-.543 0-.996-.497-.996-1.335s.453-1.49.996-1.49c.543-.031.996.652.996 1.49z"/><path fill="#373463" d="M108.247 38.969c-.422.155-2.474-.497-3.62 0a3.502 3.502 0 00-1.087.776c.03-.372.03-.745.09-1.117.03-.156.03-.28.03-.435.212-.186.453-.342.695-.466 1.237-.652 3.953-.528 3.953-.528s.362 1.584-.06 1.77z"/><path fill="#d65843" d="M107.49 49.58l1.931.404 2.173-.404s-.785 1.49-2.173 1.646c-1.418.124-1.931-1.646-1.931-1.646zm0 5.339c.785.776 1.72 1.335 2.686 1.584.965.248 1.991.31 2.927.062 1.93-.497 3.59-1.926 5.22-3.385-.483 1.025-1.177 1.925-2.022 2.701-.815.777-1.81 1.429-2.987 1.708-2.263.59-4.889-.559-5.824-2.67z" opacity=".64"/><path fill="#de6145" d="M105.954 45.271c-.03.746-.966 1.305-2.203 1.367-.09-.932-.18-1.894-.211-2.888 1.388.062 2.474.745 2.414 1.521z" opacity=".2"/><path fill="#de6145" d="M119.93 42.073c-.694.124-1.328-.372-1.992-.59-.603-.217-1.267-.186-1.9-.155-.634.031-1.298.031-1.872-.217-.603-.249-1.116-.808-1.116-1.46 0-.9.875-1.521 1.72-1.77 1.328-.372 3.711-.28 4.979.497 1.086.652 1.991 3.354.18 3.695z" opacity=".3"/><path fill="#2d1d17" d="M116 41.661c0 .838.453 1.335.996 1.335.543 0 .996-.497.996-1.335s-.453-1.521-.996-1.521c-.574.031-.996.683-.996 1.521z"/><path fill="#373463" d="M121.102 39.37c-.513.03-1.54-1.243-3.018-1.646-1.479-.373-3.862.87-4.436.745-.543-.124-.452-2.205-.452-2.205s3.35-.683 4.979-.124 3.289 2.329 3.289 2.329.15.87-.363.9z"/><path fill="#de6145" d="M119.025 46.626c1.432-.054 2.57-.75 2.541-1.556-.028-.805-1.213-1.414-2.645-1.36-1.432.054-2.57.75-2.541 1.556.029.805 1.213 1.414 2.645 1.36z" opacity=".2"/></svg>