<svg width="66" height="203" fill="none" xmlns="http://www.w3.org/2000/svg"><path d="M1.177 202.054c.03.275.277.473.552.442l4.473-.492a.5.5 0 10-.11-.994l-3.976.438-.438-3.976a.499.499 0 10-.993.109l.492 4.473zM61.18 1.066l.134 1.013.992-.13L62.17.932l-.991.133zm.397 3.029c.086.669.17 1.335.252 2l.993-.124c-.083-.665-.167-1.333-.253-2.004l-.992.128zm.495 3.983c.08.668.159 1.333.235 1.996l.994-.115c-.077-.664-.156-1.331-.236-2l-.993.119zm.465 4.015c.075.67.148 1.339.219 2.004l.994-.106a307.33 307.33 0 00-.22-2.008l-.993.11zm.427 3.992c.069.67.135 1.337.2 2.001l.996-.097c-.066-.666-.132-1.335-.201-2.006l-.995.102zm.392 4.023c.063.67.123 1.34.181 2.005l.996-.087c-.058-.668-.118-1.338-.18-2.01l-.997.092zm.35 3.994c.056.674.11 1.345.16 2.013l.997-.076a389.16 389.16 0 00-.16-2.019l-.997.082zm.31 4.034c.048.67.094 1.339.138 2.004l.997-.065c-.043-.668-.09-1.338-.137-2.01l-.998.07zm.262 3.993c.04.679.08 1.355.115 2.028l.999-.053a339.16 339.16 0 00-.116-2.035l-.998.06zm.217 4.045c.032.67.062 1.337.089 2.001l.999-.04a282.1 282.1 0 00-.089-2.008l-.999.047zm.165 4.005c.023.679.044 1.355.062 2.028l1-.028a362.08 362.08 0 00-.063-2.034l-1 .034zm.11 4.039c.014.668.026 1.333.035 1.995l1-.013c-.01-.665-.02-1.333-.034-2.003l-1 .02zm.054 4.02c.005.676.006 1.349.005 2.019l1 .002c.001-.673 0-1.349-.005-2.027l-1 .006zm-.006 4.022c-.006.672-.015 1.342-.027 2.009l1 .017c.012-.67.02-1.342.027-2.017l-1-.01zm-.07 4.032c-.017.672-.037 1.34-.06 2.007l1 .034c.022-.67.042-1.341.06-2.016l-1-.025zm-.136 4.005c-.03.677-.061 1.352-.096 2.024l.999.051c.035-.675.067-1.353.096-2.033l-1-.042zm-.208 4.033c-.04.667-.084 1.332-.13 1.994l.997.07c.047-.666.09-1.334.131-2.004l-.998-.06zm-.28 4.01c-.054.672-.11 1.34-.17 2.007l.997.09c.06-.67.116-1.343.17-2.018l-.998-.079zm-.357 4c-.066.671-.136 1.34-.208 2.006l.994.108c.073-.67.143-1.341.21-2.015l-.996-.098zm-.437 4.008c-.08.665-.162 1.328-.248 1.989l.992.129c.086-.665.17-1.331.25-2l-.994-.118zm-.517 3.983c-.094.667-.191 1.331-.292 1.994l.989.15c.101-.666.199-1.334.293-2.005l-.99-.139zm-.603 3.976c-.108.663-.22 1.324-.334 1.983l.986.17c.115-.662.227-1.326.335-1.993l-.987-.16zm-.69 3.965c-.122.66-.248 1.317-.377 1.972l.981.193c.13-.659.256-1.32.38-1.982l-.984-.183zm-.777 3.942a175.76 175.76 0 01-.422 1.968l.976.216c.145-.658.287-1.318.425-1.98l-.979-.204zm-.866 3.927c-.152.653-.308 1.305-.467 1.955l.971.238c.16-.654.317-1.31.47-1.966l-.974-.227zm-.957 3.906c-.167.649-.338 1.297-.512 1.943l.965.261c.175-.65.347-1.302.515-1.955l-.968-.249zm-1.047 3.881a175.84 175.84 0 01-.557 1.932l.96.283c.19-.647.377-1.295.56-1.944l-.963-.271zm-1.136 3.857c-.197.641-.398 1.28-.602 1.918l.953.305c.205-.642.406-1.285.604-1.929l-.955-.294zm-1.225 3.829a176.3 176.3 0 01-.646 1.905l.945.327c.22-.638.437-1.277.65-1.916l-.95-.316zm-1.313 3.801c-.226.63-.455 1.259-.688 1.888l.938.347c.234-.632.465-1.264.691-1.898l-.941-.337zm-1.398 3.772c-.24.624-.483 1.248-.73 1.872l.93.368c.248-.627.492-1.254.733-1.882l-.933-.358zm-1.48 3.735c-.253.621-.51 1.241-.772 1.861l.922.388c.262-.623.52-1.247.776-1.871l-.926-.378zm-1.562 3.709c-.265.613-.535 1.225-.808 1.838l.913.407c.275-.616.546-1.231.813-1.847l-.918-.398zm-1.638 3.675c-.279.608-.56 1.215-.847 1.823l.905.426c.288-.611.571-1.222.851-1.833l-.91-.416zm-1.71 3.635a206.6 206.6 0 01-.884 1.812l.897.443c.3-.607.596-1.214.888-1.821l-.9-.434zm-1.784 3.612c-.3.595-.605 1.19-.913 1.785l.888.46c.31-.598.615-1.196.918-1.794l-.893-.451zm-1.847 3.572c-.313.592-.63 1.185-.95 1.778l.88.475c.321-.595.64-1.191.954-1.786l-.884-.467zm-1.909 3.537c-.323.586-.65 1.173-.98 1.761l.873.489c.33-.59.659-1.179.983-1.768l-.876-.482zm-1.977 3.52c-.33.577-.663 1.154-1 1.732l.865.503c.337-.58.672-1.159 1.003-1.738l-.868-.497zm-2.02 3.467a295.2 295.2 0 01-1.039 1.74l.856.516c.352-.583.7-1.165 1.044-1.746l-.86-.51zm-2.078 3.449c-.348.569-.7 1.139-1.055 1.71l.85.528c.355-.573.708-1.144 1.058-1.715l-.853-.523zm-2.13 3.424a324.4 324.4 0 01-1.079 1.698l.843.539c.363-.568.724-1.136 1.082-1.703l-.845-.534zm-2.164 3.382a345.88 345.88 0 01-1.105 1.689l.836.55c.372-.566.741-1.131 1.107-1.695l-.838-.544zm-2.224 3.379c-.368.552-.738 1.105-1.112 1.659l.83.559c.374-.556.745-1.11 1.114-1.663l-.832-.555zm-2.242 3.323c-.379.556-.762 1.114-1.147 1.672l.823.568c.386-.56.77-1.118 1.15-1.676l-.826-.564zm-2.292 3.322c-.381.546-.765 1.092-1.151 1.64l.817.577c.388-.55.772-1.098 1.154-1.645l-.82-.572zm-2.319 3.288c-.392.55-.786 1.101-1.184 1.654l.812.583c.399-.553.794-1.106 1.187-1.657l-.815-.58zm-2.351 3.269c-.392.54-.787 1.081-1.184 1.624l.807.591c.398-.544.793-1.086 1.186-1.627l-.81-.588zm-2.384 3.255c-.399.54-.8 1.082-1.205 1.624l.802.598c.405-.544.808-1.087 1.207-1.628l-.804-.594zm-2.401 3.224c-.401.535-.805 1.071-1.212 1.608l.798.603c.407-.538.812-1.075 1.214-1.611l-.8-.6zm-2.438 3.224l-1.224 1.601.793.609c.411-.536.82-1.071 1.226-1.604l-.795-.606zm-2.444 3.185c-.41.53-.82 1.061-1.235 1.594l.79.613c.415-.533.827-1.065 1.236-1.595l-.791-.612zm-2.484 3.196c-.411.526-.825 1.054-1.242 1.583l.786.618c.417-.53.832-1.058 1.244-1.585l-.788-.616zm-2.48 3.153l-1.253 1.579.783.623 1.254-1.581-.784-.621zm-2.52 3.167l-.638.798.78.625.64-.798-.782-.625z" fill="#fff"/></svg>