<svg width="1309" height="399" fill="none" xmlns="http://www.w3.org/2000/svg"><ellipse cx="3.751" cy="297.308" rx="3" ry="3.06" fill="#5F5F5F" fill-opacity=".1"/><ellipse cx="11.751" cy="297.308" rx="3" ry="3.06" fill="#5F5F5F" fill-opacity=".1"/><ellipse cx="19.751" cy="297.308" rx="3" ry="3.06" fill="#5F5F5F" fill-opacity=".1"/><ellipse cx="27.751" cy="297.308" rx="3" ry="3.06" fill="#5F5F5F" fill-opacity=".1"/><ellipse cx="35.751" cy="297.308" rx="3" ry="3.06" fill="#5F5F5F" fill-opacity=".1"/><ellipse cx="43.751" cy="297.308" rx="3" ry="3.06" fill="#5F5F5F" fill-opacity=".1"/><ellipse cx="3.751" cy="305.467" rx="3" ry="3.06" fill="#5F5F5F" fill-opacity=".1"/><ellipse cx="11.751" cy="305.467" rx="3" ry="3.06" fill="#5F5F5F" fill-opacity=".1"/><ellipse cx="19.751" cy="305.467" rx="3" ry="3.06" fill="#5F5F5F" fill-opacity=".1"/><ellipse cx="27.751" cy="305.467" rx="3" ry="3.06" fill="#5F5F5F" fill-opacity=".1"/><ellipse cx="35.751" cy="305.467" rx="3" ry="3.06" fill="#5F5F5F" fill-opacity=".1"/><ellipse cx="43.751" cy="305.467" rx="3" ry="3.06" fill="#5F5F5F" fill-opacity=".1"/><ellipse cx="3.751" cy="313.62" rx="3" ry="3.06" fill="#5F5F5F" fill-opacity=".1"/><ellipse cx="11.751" cy="313.62" rx="3" ry="3.06" fill="#5F5F5F" fill-opacity=".1"/><ellipse cx="19.751" cy="313.62" rx="3" ry="3.06" fill="#5F5F5F" fill-opacity=".1"/><ellipse cx="27.751" cy="313.62" rx="3" ry="3.06" fill="#5F5F5F" fill-opacity=".1"/><ellipse cx="35.751" cy="313.62" rx="3" ry="3.06" fill="#5F5F5F" fill-opacity=".1"/><ellipse cx="43.751" cy="313.62" rx="3" ry="3.06" fill="#5F5F5F" fill-opacity=".1"/><ellipse cx="3.751" cy="321.776" rx="3" ry="3.06" fill="#5F5F5F" fill-opacity=".1"/><ellipse cx="11.751" cy="321.776" rx="3" ry="3.06" fill="#5F5F5F" fill-opacity=".1"/><ellipse cx="19.751" cy="321.776" rx="3" ry="3.06" fill="#5F5F5F" fill-opacity=".1"/><ellipse cx="27.751" cy="321.776" rx="3" ry="3.06" fill="#5F5F5F" fill-opacity=".1"/><ellipse cx="35.751" cy="321.776" rx="3" ry="3.06" fill="#5F5F5F" fill-opacity=".1"/><ellipse cx="43.751" cy="321.776" rx="3" ry="3.06" fill="#5F5F5F" fill-opacity=".1"/><ellipse cx="3.751" cy="329.932" rx="3" ry="3.06" fill="#5F5F5F" fill-opacity=".1"/><ellipse cx="11.751" cy="329.932" rx="3" ry="3.06" fill="#5F5F5F" fill-opacity=".1"/><ellipse cx="19.751" cy="329.932" rx="3" ry="3.06" fill="#5F5F5F" fill-opacity=".1"/><ellipse cx="27.751" cy="329.932" rx="3" ry="3.06" fill="#5F5F5F" fill-opacity=".1"/><ellipse cx="35.751" cy="329.932" rx="3" ry="3.06" fill="#5F5F5F" fill-opacity=".1"/><ellipse cx="43.751" cy="329.932" rx="3" ry="3.06" fill="#5F5F5F" fill-opacity=".1"/><ellipse cx="3.751" cy="338.088" rx="3" ry="3.06" fill="#5F5F5F" fill-opacity=".1"/><ellipse cx="11.751" cy="338.088" rx="3" ry="3.06" fill="#5F5F5F" fill-opacity=".1"/><ellipse cx="19.751" cy="338.088" rx="3" ry="3.06" fill="#5F5F5F" fill-opacity=".1"/><ellipse cx="27.751" cy="338.088" rx="3" ry="3.06" fill="#5F5F5F" fill-opacity=".1"/><ellipse cx="35.751" cy="338.088" rx="3" ry="3.06" fill="#5F5F5F" fill-opacity=".1"/><ellipse cx="43.751" cy="338.088" rx="3" ry="3.06" fill="#5F5F5F" fill-opacity=".1"/><ellipse cx="3.751" cy="346.244" rx="3" ry="3.06" fill="#5F5F5F" fill-opacity=".1"/><ellipse cx="11.751" cy="346.244" rx="3" ry="3.06" fill="#5F5F5F" fill-opacity=".1"/><ellipse cx="19.751" cy="346.244" rx="3" ry="3.06" fill="#5F5F5F" fill-opacity=".1"/><ellipse cx="27.751" cy="346.244" rx="3" ry="3.06" fill="#5F5F5F" fill-opacity=".1"/><ellipse cx="35.751" cy="346.244" rx="3" ry="3.06" fill="#5F5F5F" fill-opacity=".1"/><ellipse cx="43.751" cy="346.244" rx="3" ry="3.06" fill="#5F5F5F" fill-opacity=".1"/><ellipse cx="3.751" cy="354.4" rx="3" ry="3.06" fill="#5F5F5F" fill-opacity=".1"/><ellipse cx="11.751" cy="354.4" rx="3" ry="3.06" fill="#5F5F5F" fill-opacity=".1"/><ellipse cx="19.751" cy="354.4" rx="3" ry="3.06" fill="#5F5F5F" fill-opacity=".1"/><ellipse cx="27.751" cy="354.4" rx="3" ry="3.06" fill="#5F5F5F" fill-opacity=".1"/><ellipse cx="35.751" cy="354.4" rx="3" ry="3.06" fill="#5F5F5F" fill-opacity=".1"/><ellipse cx="43.751" cy="354.4" rx="3" ry="3.06" fill="#5F5F5F" fill-opacity=".1"/><ellipse cx="51.751" cy="272.84" rx="3" ry="3.06" fill="#5F5F5F" fill-opacity=".1"/><ellipse cx="59.751" cy="272.84" rx="3" ry="3.06" fill="#5F5F5F" fill-opacity=".1"/><ellipse cx="67.751" cy="272.84" rx="3" ry="3.06" fill="#5F5F5F" fill-opacity=".1"/><ellipse cx="75.751" cy="272.84" rx="3" ry="3.06" fill="#5F5F5F" fill-opacity=".1"/><ellipse cx="83.751" cy="272.84" rx="3" ry="3.06" fill="#5F5F5F" fill-opacity=".1"/><ellipse cx="91.751" cy="272.84" rx="3" ry="3.06" fill="#5F5F5F" fill-opacity=".1"/><ellipse cx="51.751" cy="280.999" rx="3" ry="3.06" fill="#5F5F5F" fill-opacity=".1"/><ellipse cx="59.751" cy="280.999" rx="3" ry="3.06" fill="#5F5F5F" fill-opacity=".1"/><ellipse cx="67.751" cy="280.999" rx="3" ry="3.06" fill="#5F5F5F" fill-opacity=".1"/><ellipse cx="75.751" cy="280.999" rx="3" ry="3.06" fill="#5F5F5F" fill-opacity=".1"/><ellipse cx="83.751" cy="280.999" rx="3" ry="3.06" fill="#5F5F5F" fill-opacity=".1"/><ellipse cx="91.751" cy="280.999" rx="3" ry="3.06" fill="#5F5F5F" fill-opacity=".1"/><ellipse cx="51.751" cy="289.152" rx="3" ry="3.06" fill="#5F5F5F" fill-opacity=".1"/><ellipse cx="59.751" cy="289.152" rx="3" ry="3.06" fill="#5F5F5F" fill-opacity=".1"/><ellipse cx="67.751" cy="289.152" rx="3" ry="3.06" fill="#5F5F5F" fill-opacity=".1"/><ellipse cx="75.751" cy="289.152" rx="3" ry="3.06" fill="#5F5F5F" fill-opacity=".1"/><ellipse cx="83.751" cy="289.152" rx="3" ry="3.06" fill="#5F5F5F" fill-opacity=".1"/><ellipse cx="91.751" cy="289.152" rx="3" ry="3.06" fill="#5F5F5F" fill-opacity=".1"/><ellipse cx="51.751" cy="297.308" rx="3" ry="3.06" fill="#5F5F5F" fill-opacity=".1"/><ellipse cx="59.751" cy="297.308" rx="3" ry="3.06" fill="#5F5F5F" fill-opacity=".1"/><ellipse cx="67.751" cy="297.308" rx="3" ry="3.06" fill="#5F5F5F" fill-opacity=".1"/><ellipse cx="75.751" cy="297.308" rx="3" ry="3.06" fill="#5F5F5F" fill-opacity=".1"/><ellipse cx="83.751" cy="297.308" rx="3" ry="3.06" fill="#5F5F5F" fill-opacity=".1"/><ellipse cx="91.751" cy="297.308" rx="3" ry="3.06" fill="#5F5F5F" fill-opacity=".1"/><ellipse cx="51.751" cy="305.464" rx="3" ry="3.06" fill="#5F5F5F" fill-opacity=".1"/><ellipse cx="59.751" cy="305.464" rx="3" ry="3.06" fill="#5F5F5F" fill-opacity=".1"/><ellipse cx="67.751" cy="305.464" rx="3" ry="3.06" fill="#5F5F5F" fill-opacity=".1"/><ellipse cx="75.751" cy="305.464" rx="3" ry="3.06" fill="#5F5F5F" fill-opacity=".1"/><ellipse cx="83.751" cy="305.464" rx="3" ry="3.06" fill="#5F5F5F" fill-opacity=".1"/><ellipse cx="91.751" cy="305.464" rx="3" ry="3.06" fill="#5F5F5F" fill-opacity=".1"/><ellipse cx="51.751" cy="313.62" rx="3" ry="3.06" fill="#5F5F5F" fill-opacity=".1"/><ellipse cx="59.751" cy="313.62" rx="3" ry="3.06" fill="#5F5F5F" fill-opacity=".1"/><ellipse cx="67.751" cy="313.62" rx="3" ry="3.06" fill="#5F5F5F" fill-opacity=".1"/><ellipse cx="75.751" cy="313.62" rx="3" ry="3.06" fill="#5F5F5F" fill-opacity=".1"/><ellipse cx="83.751" cy="313.62" rx="3" ry="3.06" fill="#5F5F5F" fill-opacity=".1"/><ellipse cx="91.751" cy="313.62" rx="3" ry="3.06" fill="#5F5F5F" fill-opacity=".1"/><ellipse cx="51.751" cy="321.776" rx="3" ry="3.06" fill="#5F5F5F" fill-opacity=".1"/><ellipse cx="59.751" cy="321.776" rx="3" ry="3.06" fill="#5F5F5F" fill-opacity=".1"/><ellipse cx="67.751" cy="321.776" rx="3" ry="3.06" fill="#5F5F5F" fill-opacity=".1"/><ellipse cx="75.751" cy="321.776" rx="3" ry="3.06" fill="#5F5F5F" fill-opacity=".1"/><ellipse cx="83.751" cy="321.776" rx="3" ry="3.06" fill="#5F5F5F" fill-opacity=".1"/><ellipse cx="91.751" cy="321.776" rx="3" ry="3.06" fill="#5F5F5F" fill-opacity=".1"/><ellipse cx="51.751" cy="329.932" rx="3" ry="3.06" fill="#5F5F5F" fill-opacity=".1"/><ellipse cx="59.751" cy="329.932" rx="3" ry="3.06" fill="#5F5F5F" fill-opacity=".1"/><ellipse cx="67.751" cy="329.932" rx="3" ry="3.06" fill="#5F5F5F" fill-opacity=".1"/><ellipse cx="75.751" cy="329.932" rx="3" ry="3.06" fill="#5F5F5F" fill-opacity=".1"/><ellipse cx="83.751" cy="329.932" rx="3" ry="3.06" fill="#5F5F5F" fill-opacity=".1"/><ellipse cx="91.751" cy="329.932" rx="3" ry="3.06" fill="#5F5F5F" fill-opacity=".1"/><ellipse cx="3.751" cy="232.06" rx="3" ry="3.06" fill="#5F5F5F" fill-opacity=".1"/><ellipse cx="11.751" cy="232.06" rx="3" ry="3.06" fill="#5F5F5F" fill-opacity=".1"/><ellipse cx="19.751" cy="232.06" rx="3" ry="3.06" fill="#5F5F5F" fill-opacity=".1"/><ellipse cx="27.751" cy="232.06" rx="3" ry="3.06" fill="#5F5F5F" fill-opacity=".1"/><ellipse cx="35.751" cy="232.06" rx="3" ry="3.06" fill="#5F5F5F" fill-opacity=".1"/><ellipse cx="43.751" cy="232.06" rx="3" ry="3.06" fill="#5F5F5F" fill-opacity=".1"/><ellipse cx="3.751" cy="240.22" rx="3" ry="3.06" fill="#5F5F5F" fill-opacity=".1"/><ellipse cx="11.751" cy="240.22" rx="3" ry="3.06" fill="#5F5F5F" fill-opacity=".1"/><ellipse cx="19.751" cy="240.22" rx="3" ry="3.06" fill="#5F5F5F" fill-opacity=".1"/><ellipse cx="27.751" cy="240.22" rx="3" ry="3.06" fill="#5F5F5F" fill-opacity=".1"/><ellipse cx="35.751" cy="240.22" rx="3" ry="3.06" fill="#5F5F5F" fill-opacity=".1"/><ellipse cx="43.751" cy="240.22" rx="3" ry="3.06" fill="#5F5F5F" fill-opacity=".1"/><ellipse cx="3.751" cy="248.372" rx="3" ry="3.06" fill="#5F5F5F" fill-opacity=".1"/><ellipse cx="11.751" cy="248.372" rx="3" ry="3.06" fill="#5F5F5F" fill-opacity=".1"/><ellipse cx="19.751" cy="248.372" rx="3" ry="3.06" fill="#5F5F5F" fill-opacity=".1"/><ellipse cx="27.751" cy="248.372" rx="3" ry="3.06" fill="#5F5F5F" fill-opacity=".1"/><ellipse cx="35.751" cy="248.372" rx="3" ry="3.06" fill="#5F5F5F" fill-opacity=".1"/><ellipse cx="43.751" cy="248.372" rx="3" ry="3.06" fill="#5F5F5F" fill-opacity=".1"/><ellipse cx="3.751" cy="256.528" rx="3" ry="3.06" fill="#5F5F5F" fill-opacity=".1"/><ellipse cx="11.751" cy="256.528" rx="3" ry="3.06" fill="#5F5F5F" fill-opacity=".1"/><ellipse cx="19.751" cy="256.528" rx="3" ry="3.06" fill="#5F5F5F" fill-opacity=".1"/><ellipse cx="27.751" cy="256.528" rx="3" ry="3.06" fill="#5F5F5F" fill-opacity=".1"/><ellipse cx="35.751" cy="256.528" rx="3" ry="3.06" fill="#5F5F5F" fill-opacity=".1"/><ellipse cx="43.751" cy="256.528" rx="3" ry="3.06" fill="#5F5F5F" fill-opacity=".1"/><ellipse cx="3.751" cy="264.684" rx="3" ry="3.06" fill="#5F5F5F" fill-opacity=".1"/><ellipse cx="11.751" cy="264.684" rx="3" ry="3.06" fill="#5F5F5F" fill-opacity=".1"/><ellipse cx="19.751" cy="264.684" rx="3" ry="3.06" fill="#5F5F5F" fill-opacity=".1"/><ellipse cx="27.751" cy="264.684" rx="3" ry="3.06" fill="#5F5F5F" fill-opacity=".1"/><ellipse cx="35.751" cy="264.684" rx="3" ry="3.06" fill="#5F5F5F" fill-opacity=".1"/><ellipse cx="43.751" cy="264.684" rx="3" ry="3.06" fill="#5F5F5F" fill-opacity=".1"/><ellipse cx="3.751" cy="272.84" rx="3" ry="3.06" fill="#5F5F5F" fill-opacity=".1"/><ellipse cx="11.751" cy="272.84" rx="3" ry="3.06" fill="#5F5F5F" fill-opacity=".1"/><ellipse cx="19.751" cy="272.84" rx="3" ry="3.06" fill="#5F5F5F" fill-opacity=".1"/><ellipse cx="27.751" cy="272.84" rx="3" ry="3.06" fill="#5F5F5F" fill-opacity=".1"/><ellipse cx="35.751" cy="272.84" rx="3" ry="3.06" fill="#5F5F5F" fill-opacity=".1"/><ellipse cx="43.751" cy="272.84" rx="3" ry="3.06" fill="#5F5F5F" fill-opacity=".1"/><ellipse cx="3.751" cy="280.996" rx="3" ry="3.06" fill="#5F5F5F" fill-opacity=".1"/><ellipse cx="11.751" cy="280.996" rx="3" ry="3.06" fill="#5F5F5F" fill-opacity=".1"/><ellipse cx="19.751" cy="280.996" rx="3" ry="3.06" fill="#5F5F5F" fill-opacity=".1"/><ellipse cx="27.751" cy="280.996" rx="3" ry="3.06" fill="#5F5F5F" fill-opacity=".1"/><ellipse cx="35.751" cy="280.996" rx="3" ry="3.06" fill="#5F5F5F" fill-opacity=".1"/><ellipse cx="43.751" cy="280.996" rx="3" ry="3.06" fill="#5F5F5F" fill-opacity=".1"/><ellipse cx="3.751" cy="289.152" rx="3" ry="3.06" fill="#5F5F5F" fill-opacity=".1"/><ellipse cx="11.751" cy="289.152" rx="3" ry="3.06" fill="#5F5F5F" fill-opacity=".1"/><ellipse cx="19.751" cy="289.152" rx="3" ry="3.06" fill="#5F5F5F" fill-opacity=".1"/><ellipse cx="27.751" cy="289.152" rx="3" ry="3.06" fill="#5F5F5F" fill-opacity=".1"/><ellipse cx="35.751" cy="289.152" rx="3" ry="3.06" fill="#5F5F5F" fill-opacity=".1"/><ellipse cx="43.751" cy="289.152" rx="3" ry="3.06" fill="#5F5F5F" fill-opacity=".1"/><ellipse cx="51.751" cy="338.088" rx="3" ry="3.06" fill="#5F5F5F" fill-opacity=".1"/><ellipse cx="59.751" cy="338.088" rx="3" ry="3.06" fill="#5F5F5F" fill-opacity=".1"/><ellipse cx="67.751" cy="338.088" rx="3" ry="3.06" fill="#5F5F5F" fill-opacity=".1"/><ellipse cx="75.751" cy="338.088" rx="3" ry="3.06" fill="#5F5F5F" fill-opacity=".1"/><ellipse cx="83.751" cy="338.088" rx="3" ry="3.06" fill="#5F5F5F" fill-opacity=".1"/><ellipse cx="91.751" cy="338.088" rx="3" ry="3.06" fill="#5F5F5F" fill-opacity=".1"/><ellipse cx="51.751" cy="346.248" rx="3" ry="3.06" fill="#5F5F5F" fill-opacity=".1"/><ellipse cx="59.751" cy="346.248" rx="3" ry="3.06" fill="#5F5F5F" fill-opacity=".1"/><ellipse cx="67.751" cy="346.248" rx="3" ry="3.06" fill="#5F5F5F" fill-opacity=".1"/><ellipse cx="75.751" cy="346.248" rx="3" ry="3.06" fill="#5F5F5F" fill-opacity=".1"/><ellipse cx="83.751" cy="346.248" rx="3" ry="3.06" fill="#5F5F5F" fill-opacity=".1"/><ellipse cx="91.751" cy="346.248" rx="3" ry="3.06" fill="#5F5F5F" fill-opacity=".1"/><ellipse cx="51.751" cy="354.4" rx="3" ry="3.06" fill="#5F5F5F" fill-opacity=".1"/><ellipse cx="59.751" cy="354.4" rx="3" ry="3.06" fill="#5F5F5F" fill-opacity=".1"/><ellipse cx="67.751" cy="354.4" rx="3" ry="3.06" fill="#5F5F5F" fill-opacity=".1"/><ellipse cx="75.751" cy="354.4" rx="3" ry="3.06" fill="#5F5F5F" fill-opacity=".1"/><ellipse cx="83.751" cy="354.4" rx="3" ry="3.06" fill="#5F5F5F" fill-opacity=".1"/><ellipse cx="91.751" cy="354.4" rx="3" ry="3.06" fill="#5F5F5F" fill-opacity=".1"/><ellipse cx="51.751" cy="362.556" rx="3" ry="3.06" fill="#5F5F5F" fill-opacity=".1"/><ellipse cx="59.751" cy="362.556" rx="3" ry="3.06" fill="#5F5F5F" fill-opacity=".1"/><ellipse cx="67.751" cy="362.556" rx="3" ry="3.06" fill="#5F5F5F" fill-opacity=".1"/><ellipse cx="75.751" cy="362.556" rx="3" ry="3.06" fill="#5F5F5F" fill-opacity=".1"/><ellipse cx="83.751" cy="362.556" rx="3" ry="3.06" fill="#5F5F5F" fill-opacity=".1"/><ellipse cx="91.751" cy="362.556" rx="3" ry="3.06" fill="#5F5F5F" fill-opacity=".1"/><ellipse cx="51.751" cy="370.712" rx="3" ry="3.06" fill="#5F5F5F" fill-opacity=".1"/><ellipse cx="59.751" cy="370.712" rx="3" ry="3.06" fill="#5F5F5F" fill-opacity=".1"/><ellipse cx="67.751" cy="370.712" rx="3" ry="3.06" fill="#5F5F5F" fill-opacity=".1"/><ellipse cx="75.751" cy="370.712" rx="3" ry="3.06" fill="#5F5F5F" fill-opacity=".1"/><ellipse cx="83.751" cy="370.712" rx="3" ry="3.06" fill="#5F5F5F" fill-opacity=".1"/><ellipse cx="91.751" cy="370.712" rx="3" ry="3.06" fill="#5F5F5F" fill-opacity=".1"/><ellipse cx="51.751" cy="378.868" rx="3" ry="3.06" fill="#5F5F5F" fill-opacity=".1"/><ellipse cx="59.751" cy="378.868" rx="3" ry="3.06" fill="#5F5F5F" fill-opacity=".1"/><ellipse cx="67.751" cy="378.868" rx="3" ry="3.06" fill="#5F5F5F" fill-opacity=".1"/><ellipse cx="75.751" cy="378.868" rx="3" ry="3.06" fill="#5F5F5F" fill-opacity=".1"/><ellipse cx="83.751" cy="378.868" rx="3" ry="3.06" fill="#5F5F5F" fill-opacity=".1"/><ellipse cx="91.751" cy="378.868" rx="3" ry="3.06" fill="#5F5F5F" fill-opacity=".1"/><ellipse cx="51.751" cy="387.024" rx="3" ry="3.06" fill="#5F5F5F" fill-opacity=".1"/><ellipse cx="59.751" cy="387.024" rx="3" ry="3.06" fill="#5F5F5F" fill-opacity=".1"/><ellipse cx="67.751" cy="387.024" rx="3" ry="3.06" fill="#5F5F5F" fill-opacity=".1"/><ellipse cx="75.751" cy="387.024" rx="3" ry="3.06" fill="#5F5F5F" fill-opacity=".1"/><ellipse cx="83.751" cy="387.024" rx="3" ry="3.06" fill="#5F5F5F" fill-opacity=".1"/><ellipse cx="91.751" cy="387.024" rx="3" ry="3.06" fill="#5F5F5F" fill-opacity=".1"/><ellipse cx="51.751" cy="395.18" rx="3" ry="3.06" fill="#5F5F5F" fill-opacity=".1"/><ellipse cx="59.751" cy="395.18" rx="3" ry="3.06" fill="#5F5F5F" fill-opacity=".1"/><ellipse cx="67.751" cy="395.18" rx="3" ry="3.06" fill="#5F5F5F" fill-opacity=".1"/><ellipse cx="75.751" cy="395.18" rx="3" ry="3.06" fill="#5F5F5F" fill-opacity=".1"/><ellipse cx="83.751" cy="395.18" rx="3" ry="3.06" fill="#5F5F5F" fill-opacity=".1"/><ellipse cx="91.751" cy="395.18" rx="3" ry="3.06" fill="#5F5F5F" fill-opacity=".1"/><circle cx="1217.75" cy="27" r="3" fill="#5F5F5F" fill-opacity=".1"/><circle cx="1225.75" cy="27" r="3" fill="#5F5F5F" fill-opacity=".1"/><circle cx="1233.75" cy="27" r="3" fill="#5F5F5F" fill-opacity=".1"/><circle cx="1241.75" cy="27" r="3" fill="#5F5F5F" fill-opacity=".1"/><circle cx="1249.75" cy="27" r="3" fill="#5F5F5F" fill-opacity=".1"/><circle cx="1257.75" cy="27" r="3" fill="#5F5F5F" fill-opacity=".1"/><circle cx="1217.75" cy="35" r="3" fill="#5F5F5F" fill-opacity=".1"/><circle cx="1225.75" cy="35" r="3" fill="#5F5F5F" fill-opacity=".1"/><circle cx="1233.75" cy="35" r="3" fill="#5F5F5F" fill-opacity=".1"/><circle cx="1241.75" cy="35" r="3" fill="#5F5F5F" fill-opacity=".1"/><circle cx="1249.75" cy="35" r="3" fill="#5F5F5F" fill-opacity=".1"/><circle cx="1257.75" cy="35" r="3" fill="#5F5F5F" fill-opacity=".1"/><circle cx="1217.75" cy="43" r="3" fill="#5F5F5F" fill-opacity=".1"/><circle cx="1225.75" cy="43" r="3" fill="#5F5F5F" fill-opacity=".1"/><circle cx="1233.75" cy="43" r="3" fill="#5F5F5F" fill-opacity=".1"/><circle cx="1241.75" cy="43" r="3" fill="#5F5F5F" fill-opacity=".1"/><circle cx="1249.75" cy="43" r="3" fill="#5F5F5F" fill-opacity=".1"/><circle cx="1257.75" cy="43" r="3" fill="#5F5F5F" fill-opacity=".1"/><circle cx="1217.75" cy="51" r="3" fill="#5F5F5F" fill-opacity=".1"/><circle cx="1225.75" cy="51" r="3" fill="#5F5F5F" fill-opacity=".1"/><circle cx="1233.75" cy="51" r="3" fill="#5F5F5F" fill-opacity=".1"/><circle cx="1241.75" cy="51" r="3" fill="#5F5F5F" fill-opacity=".1"/><circle cx="1249.75" cy="51" r="3" fill="#5F5F5F" fill-opacity=".1"/><circle cx="1257.75" cy="51" r="3" fill="#5F5F5F" fill-opacity=".1"/><circle cx="1217.75" cy="59" r="3" fill="#5F5F5F" fill-opacity=".1"/><circle cx="1225.75" cy="59" r="3" fill="#5F5F5F" fill-opacity=".1"/><circle cx="1233.75" cy="59" r="3" fill="#5F5F5F" fill-opacity=".1"/><circle cx="1241.75" cy="59" r="3" fill="#5F5F5F" fill-opacity=".1"/><circle cx="1249.75" cy="59" r="3" fill="#5F5F5F" fill-opacity=".1"/><circle cx="1257.75" cy="59" r="3" fill="#5F5F5F" fill-opacity=".1"/><circle cx="1217.75" cy="67" r="3" fill="#5F5F5F" fill-opacity=".1"/><circle cx="1225.75" cy="67" r="3" fill="#5F5F5F" fill-opacity=".1"/><circle cx="1233.75" cy="67" r="3" fill="#5F5F5F" fill-opacity=".1"/><circle cx="1241.75" cy="67" r="3" fill="#5F5F5F" fill-opacity=".1"/><circle cx="1249.75" cy="67" r="3" fill="#5F5F5F" fill-opacity=".1"/><circle cx="1257.75" cy="67" r="3" fill="#5F5F5F" fill-opacity=".1"/><circle cx="1217.75" cy="75" r="3" fill="#5F5F5F" fill-opacity=".1"/><circle cx="1225.75" cy="75" r="3" fill="#5F5F5F" fill-opacity=".1"/><circle cx="1233.75" cy="75" r="3" fill="#5F5F5F" fill-opacity=".1"/><circle cx="1241.75" cy="75" r="3" fill="#5F5F5F" fill-opacity=".1"/><circle cx="1249.75" cy="75" r="3" fill="#5F5F5F" fill-opacity=".1"/><circle cx="1257.75" cy="75" r="3" fill="#5F5F5F" fill-opacity=".1"/><circle cx="1217.75" cy="83" r="3" fill="#5F5F5F" fill-opacity=".1"/><circle cx="1225.75" cy="83" r="3" fill="#5F5F5F" fill-opacity=".1"/><circle cx="1233.75" cy="83" r="3" fill="#5F5F5F" fill-opacity=".1"/><circle cx="1241.75" cy="83" r="3" fill="#5F5F5F" fill-opacity=".1"/><circle cx="1249.75" cy="83" r="3" fill="#5F5F5F" fill-opacity=".1"/><circle cx="1257.75" cy="83" r="3" fill="#5F5F5F" fill-opacity=".1"/><circle cx="1265.75" cy="3" r="3" fill="#5F5F5F" fill-opacity=".1"/><circle cx="1273.75" cy="3" r="3" fill="#5F5F5F" fill-opacity=".1"/><circle cx="1281.75" cy="3" r="3" fill="#5F5F5F" fill-opacity=".1"/><circle cx="1289.75" cy="3" r="3" fill="#5F5F5F" fill-opacity=".1"/><circle cx="1297.75" cy="3" r="3" fill="#5F5F5F" fill-opacity=".1"/><circle cx="1305.75" cy="3" r="3" fill="#5F5F5F" fill-opacity=".1"/><circle cx="1265.75" cy="11" r="3" fill="#5F5F5F" fill-opacity=".1"/><circle cx="1273.75" cy="11" r="3" fill="#5F5F5F" fill-opacity=".1"/><circle cx="1281.75" cy="11" r="3" fill="#5F5F5F" fill-opacity=".1"/><circle cx="1289.75" cy="11" r="3" fill="#5F5F5F" fill-opacity=".1"/><circle cx="1297.75" cy="11" r="3" fill="#5F5F5F" fill-opacity=".1"/><circle cx="1305.75" cy="11" r="3" fill="#5F5F5F" fill-opacity=".1"/><circle cx="1265.75" cy="19" r="3" fill="#5F5F5F" fill-opacity=".1"/><circle cx="1273.75" cy="19" r="3" fill="#5F5F5F" fill-opacity=".1"/><circle cx="1281.75" cy="19" r="3" fill="#5F5F5F" fill-opacity=".1"/><circle cx="1289.75" cy="19" r="3" fill="#5F5F5F" fill-opacity=".1"/><circle cx="1297.75" cy="19" r="3" fill="#5F5F5F" fill-opacity=".1"/><circle cx="1305.75" cy="19" r="3" fill="#5F5F5F" fill-opacity=".1"/><circle cx="1265.75" cy="27" r="3" fill="#5F5F5F" fill-opacity=".1"/><circle cx="1273.75" cy="27" r="3" fill="#5F5F5F" fill-opacity=".1"/><circle cx="1281.75" cy="27" r="3" fill="#5F5F5F" fill-opacity=".1"/><circle cx="1289.75" cy="27" r="3" fill="#5F5F5F" fill-opacity=".1"/><circle cx="1297.75" cy="27" r="3" fill="#5F5F5F" fill-opacity=".1"/><circle cx="1305.75" cy="27" r="3" fill="#5F5F5F" fill-opacity=".1"/><circle cx="1265.75" cy="35" r="3" fill="#5F5F5F" fill-opacity=".1"/><circle cx="1273.75" cy="35" r="3" fill="#5F5F5F" fill-opacity=".1"/><circle cx="1281.75" cy="35" r="3" fill="#5F5F5F" fill-opacity=".1"/><circle cx="1289.75" cy="35" r="3" fill="#5F5F5F" fill-opacity=".1"/><circle cx="1297.75" cy="35" r="3" fill="#5F5F5F" fill-opacity=".1"/><circle cx="1305.75" cy="35" r="3" fill="#5F5F5F" fill-opacity=".1"/><circle cx="1265.75" cy="43" r="3" fill="#5F5F5F" fill-opacity=".1"/><circle cx="1273.75" cy="43" r="3" fill="#5F5F5F" fill-opacity=".1"/><circle cx="1281.75" cy="43" r="3" fill="#5F5F5F" fill-opacity=".1"/><circle cx="1289.75" cy="43" r="3" fill="#5F5F5F" fill-opacity=".1"/><circle cx="1297.75" cy="43" r="3" fill="#5F5F5F" fill-opacity=".1"/><circle cx="1305.75" cy="43" r="3" fill="#5F5F5F" fill-opacity=".1"/><circle cx="1265.75" cy="51" r="3" fill="#5F5F5F" fill-opacity=".1"/><circle cx="1273.75" cy="51" r="3" fill="#5F5F5F" fill-opacity=".1"/><circle cx="1281.75" cy="51" r="3" fill="#5F5F5F" fill-opacity=".1"/><circle cx="1289.75" cy="51" r="3" fill="#5F5F5F" fill-opacity=".1"/><circle cx="1297.75" cy="51" r="3" fill="#5F5F5F" fill-opacity=".1"/><circle cx="1305.75" cy="51" r="3" fill="#5F5F5F" fill-opacity=".1"/><circle cx="1265.75" cy="59" r="3" fill="#5F5F5F" fill-opacity=".1"/><circle cx="1273.75" cy="59" r="3" fill="#5F5F5F" fill-opacity=".1"/><circle cx="1281.75" cy="59" r="3" fill="#5F5F5F" fill-opacity=".1"/><circle cx="1289.75" cy="59" r="3" fill="#5F5F5F" fill-opacity=".1"/><circle cx="1297.75" cy="59" r="3" fill="#5F5F5F" fill-opacity=".1"/><circle cx="1305.75" cy="59" r="3" fill="#5F5F5F" fill-opacity=".1"/></svg>