<svg width="550" height="548" fill="none" xmlns="http://www.w3.org/2000/svg"><path d="M36.633 206.703c-18-110 119.386-196.62 243.5-205.5 111.429-7.972 263.194 22.252 253 133.5-11.5 125.5-59.108 238.509-185 321C228.19 534.296 79.671 516.952 16.5 430-26 371.5 54.633 316.703 36.633 206.703z" fill="#E5E5E5"/><path d="M0 188.065c.245-4.645 2.772-9.126 6.603-11.733 3.83-2.608 8.885-3.422 13.287-2.037.081-5.785 3.505-11.407 8.722-14.015 5.135-2.607 11.738-2.118 16.466 1.223 1.793-6.03 6.195-11.408 11.982-13.933 5.788-2.526 12.961-2.037 18.015 1.711s7.58 10.836 5.624 16.784c4.32-1.466 9.049-2.933 13.45-1.711 3.668 1.059 6.685 3.993 8.07 7.578 1.305 3.585.978 7.74-.733 11.081L0 188.065zm145-143c.245-4.645 2.771-9.126 6.603-11.733 3.831-2.608 8.885-3.422 13.287-2.037.081-5.785 3.505-11.407 8.722-14.015 5.135-2.607 11.738-2.118 16.466 1.223 1.793-6.03 6.195-11.408 11.982-13.933 5.788-2.526 12.961-2.037 18.015 1.71 5.054 3.749 7.581 10.837 5.624 16.785 4.321-1.466 9.049-2.933 13.45-1.71 3.669 1.058 6.685 3.992 8.07 7.577 1.305 3.585.978 7.74-.733 11.08L145 45.066zm171 60c.245-4.645 2.771-9.126 6.603-11.733 3.831-2.608 8.885-3.422 13.287-2.037.081-5.785 3.505-11.407 8.722-14.015 5.135-2.607 11.738-2.118 16.466 1.222 1.793-6.029 6.195-11.406 11.982-13.932 5.788-2.526 12.961-2.037 18.015 1.71 5.054 3.749 7.581 10.837 5.624 16.785 4.321-1.466 9.049-2.933 13.45-1.71 3.669 1.058 6.685 3.992 8.07 7.577 1.305 3.585.978 7.74-.733 11.081L316 105.065zm79 96c.245-4.645 2.771-9.126 6.603-11.733 3.831-2.608 8.885-3.422 13.287-2.037.081-5.785 3.505-11.407 8.722-14.015 5.135-2.607 11.738-2.118 16.466 1.223 1.793-6.03 6.195-11.408 11.982-13.933 5.788-2.526 12.961-2.037 18.015 1.711s7.581 10.836 5.624 16.784c4.321-1.466 9.049-2.933 13.45-1.711 3.669 1.059 6.685 3.993 8.07 7.578 1.305 3.585.978 7.74-.733 11.081L395 201.065zm51-144c.245-4.645 2.771-9.126 6.603-11.733 3.831-2.608 8.885-3.422 13.287-2.037.081-5.785 3.505-11.407 8.722-14.015 5.135-2.607 11.738-2.118 16.466 1.223 1.793-6.03 6.195-11.407 11.982-13.933 5.788-2.526 12.961-2.037 18.015 1.71 5.054 3.749 7.581 10.837 5.624 16.785 4.321-1.466 9.049-2.933 13.45-1.71 3.669 1.059 6.685 3.992 8.07 7.577 1.305 3.585.978 7.74-.733 11.08L446 57.066z" fill="#fff"/><path opacity=".39" d="M174.236 514.996c-2.817.115-6.111.493-7.56 2.987a40.438 40.438 0 01-1.591 3.923c-1.591 2.15-4.615 1.953-7.193 1.641-15.854-1.844-31.897.735-46.455 7.467 10.854 5.252 23.14 6.221 35.108 7.107 87.864 6.565 176.031 13.014 263.99 7.812 5.189-.296 10.663-.755 14.912-3.841 2.085-1.509 3.868-3.988 3.438-6.564-.621-3.66-4.886-5.088-8.419-5.794L314.73 508.76c-11.141-2.216-22.599-4.399-34.026-4.054-10.615.295-19.272 4.694-29.378 6.795-24.365 5.054-52.247 2.527-77.09 3.495z" fill="#DF2C2C"/><path d="M362.68 530.375l-102.601-.624a12.7 12.7 0 01-4.998-1.026 13.032 13.032 0 01-4.235-2.921 13.501 13.501 0 01-2.828-4.372 13.827 13.827 0 01-.989-5.155V335.973c0-3.57 1.375-6.993 3.822-9.517 2.448-2.523 5.767-3.941 9.228-3.941h105.784c3.461 0 6.781 1.418 9.228 3.941 2.447 2.524 3.822 5.947 3.822 9.517l-3.103 180.944a13.844 13.844 0 01-1.005 5.166 13.5 13.5 0 01-2.85 4.374 13.045 13.045 0 01-4.259 2.913 12.734 12.734 0 01-5.016 1.005z" fill="#DF2C2C"/><path opacity=".1" d="M367.677 377.101l-16.137 4.234a153.942 153.942 0 01-78.188 0l-16.09-4.234v-42.67H367.63l.047 42.67z" fill="#020202"/><path d="M361.964 340.831h-98.05v26.752h98.05v-26.752z" fill="#fff"/><path opacity=".1" d="M285.017 404.067h-21.055v22.37h21.055v-22.37zm25.607 0h-21.055v22.37h21.055v-22.37zm25.59 0h-21.055v22.37h21.055v-22.37zm24.827 0h-21.055v22.37h21.055v-22.37zm-76.024 28.245h-21.055v22.37h21.055v-22.37zm25.607 0h-21.055v22.37h21.055v-22.37zm25.59 0h-21.055v22.37h21.055v-22.37zm24.827 0h-21.055v22.37h21.055v-22.37zm0 28.245h-21.055v50.599h21.055v-50.599zm-76.024 0h-21.055v22.37h21.055v-22.37zm25.607 0h-21.055v22.37h21.055v-22.37zm25.59 0h-21.055v22.37h21.055v-22.37zm-51.197 28.23h-21.055v22.37h21.055v-22.37zm25.607 0h-21.055v22.37h21.055v-22.37zm25.59 0h-21.055v22.37h21.055v-22.37z" fill="#020202"/><path d="M157.748 277.414c.191 0 0-.295-.127-.361a22.55 22.55 0 00-2.801-.344 3.56 3.56 0 01-2.467-1.248 4.7 4.7 0 01-.7-2.199l-1.75-12.243c-1.433-9.946-.621-19.859-1.114-29.903a10.616 10.616 0 01.143-3.102c.239-.811.526-1.606.859-2.38a23.814 23.814 0 00.86-9.618 2.836 2.836 0 00-.151-1.249 2.752 2.752 0 00-.677-1.048c-1.257-.837-2.642.82-3.263 2.232l-1.591 3.676a1.137 1.137 0 01-.334.509 1.085 1.085 0 01-.955 0c-2.626-.739-5.507-1.641-6.891-4.087-1.019-1.789-1.241-4.382-3.183-5.17a3.366 3.366 0 00-2.494.292 3.533 3.533 0 00-1.644 1.957 10.891 10.891 0 00-.239 5.268c.43 3.512.955 7.205 3.104 9.946a30.99 30.99 0 012.769 3.397 12.187 12.187 0 011.082 5.613l1.082 38.306c.096 3.808.287 7.845 2.419 10.947 2.658 3.84 7.544 5.137 12.032 6.007 2.251.588 4.595.705 6.891.345a6.29 6.29 0 003.086-1.519 6.582 6.582 0 001.879-2.946 8.092 8.092 0 00-.191-3.076 7.963 7.963 0 00-1.321-2.766c-1.066-1.74-3.565-3.316-4.313-5.236z" fill="#F9D0B4"/><path d="M141.34 225.011a14.455 14.455 0 01-5.633.41 5.05 5.05 0 01-3.581-1.182 5.199 5.199 0 01-.792-1.936 5.27 5.27 0 01.028-2.101.834.834 0 01.191-.558.803.803 0 01.621-.115l8.96.804c1.32.115 4.106-.312 3.549 1.641a5.39 5.39 0 01-1.342 1.905 5.18 5.18 0 01-2.001 1.132z" fill="#E2B596"/><path d="M282.503 307.103l-15.215 2.987-8.323 1.642-7.957-12.129c-3.852-3.725-3.788-4.497-5.968.46-5.984 13.556-15.803 38.355-16.567 56.917l-4.775-.558-61.032-7.402 16.997-56.72-22.392 2.363-3.947-19.12 36.492-12.293a56.64 56.64 0 0111.682-2.051c11.617-.755 32.481-1.641 45.595 3.643 17.458 6.86 35.41 42.261 35.41 42.261z" fill="#DF2C2C"/><path d="M280.115 306.037s6.51 10.34 4.886 14.361c-1.623 4.021-35.314 18.792-35.314 18.792-2.387.098-4.027 2.675-4.774 5.038a58.015 58.015 0 00-1.242 7.632c-.249 2.596-1.429 5.002-3.31 6.746a3.893 3.893 0 01-2.53.952 4.239 4.239 0 01-1.767-.558 9.442 9.442 0 01-3.094-3.255 9.775 9.775 0 01-1.282-4.361 20.233 20.233 0 011.734-8.961h-3.947c-.636-1.379 1.274-2.413 2.658-2.888 5.968-2.052 32.354-22.814 32.545-24.307.191-1.494-4.01-4.924-4.01-4.924a43.003 43.003 0 0119.447-4.267zm-75.259-60.873a15.762 15.762 0 00.588 4.497 10.378 10.378 0 002.626 4.349c1.194 1.182 2.817 1.937 3.183 3.759a8.44 8.44 0 01-.223 3.381 25.294 25.294 0 00-.748 4.054 5.793 5.793 0 001.003 3.889 6.13 6.13 0 002.176 1.534 5.971 5.971 0 002.598.452 8.308 8.308 0 003.75-.604 8.54 8.54 0 003.125-2.219 18.14 18.14 0 002.308-5.465c.732-2.199 1.305-4.448 2.101-6.565a129.684 129.684 0 004.408-12.851 22.762 22.762 0 00-.35-13.934c-1.591-3.709-6.573-5.481-10.233-5.547-3.938-.005-7.751 1.432-10.758 4.054-2.292 2.084-3.486 5.859-4.329 8.748a29.57 29.57 0 00-1.225 8.468z" fill="#F9D0B4"/><path d="M207.911 226.569a8.03 8.03 0 01-1.591-2.806 14.254 14.254 0 01-.716-8.059 8.908 8.908 0 011.684-3.65 8.587 8.587 0 013.09-2.488 9.073 9.073 0 013.724-.656 5.612 5.612 0 011.941.328c2.579 1.017 3.183 4.661 5.491 6.286a2.41 2.41 0 01.806-1.299c.4-.329.894-.513 1.406-.523.5.032.985.186 1.417.448a3.25 3.25 0 011.066 1.062 18.884 18.884 0 011.432 2.691 12.58 12.58 0 003.533 4.218c.203.199.469.316.748.329.334 0 .605-.279.923-.427.939-.394 1.926.542 2.244 1.526.17 1.025.398 2.039.684 3.037.557 1.23 1.831 1.936 2.69 2.954a7.518 7.518 0 011.377 3.821 7.57 7.57 0 01-.804 3.991 21.474 21.474 0 01-5.14 6.302 1.4 1.4 0 00-1.974-.344 6.816 6.816 0 00-1.591 1.641c-.217.318-.502.58-.833.765-.332.185-.7.288-1.077.302-.096-2.364 1.114-4.596 1.321-6.959a10.09 10.09 0 00-1.272-5.146 9.694 9.694 0 00-3.678-3.717 16.457 16.457 0 00-10.121-1.838c-2.069.197-5.172-.066-6.78-1.789z" fill="#473F47"/><path d="M232.181 241.98a3.19 3.19 0 012.085-.213c.453.21.835.555 1.096.991.261.436.389.943.368 1.455a5.12 5.12 0 01-1.114 3.102 11.828 11.828 0 01-2.435 2.248 3.622 3.622 0 01-1.719.838 2.378 2.378 0 01-1.481-.405 2.5 2.5 0 01-.954-1.237 4.27 4.27 0 01-.164-1.621 4.253 4.253 0 01.451-1.563 6.546 6.546 0 011.561-2.224 6.333 6.333 0 012.306-1.371z" fill="#F9D0B4"/><path d="M137.855 222.302c19.381 0 35.092-16.202 35.092-36.189 0-19.986-15.711-36.189-35.092-36.189-19.38 0-35.091 16.203-35.091 36.189 0 19.987 15.711 36.189 35.091 36.189z" fill="#F8C244"/><path d="M167.383 191.072c2.646-16.812-8.424-32.653-24.726-35.382-16.302-2.729-31.662 8.688-34.308 25.499-2.647 16.812 8.424 32.653 24.725 35.382 16.302 2.728 31.663-8.688 34.309-25.499z" fill="#E8A825"/><path d="M135.102 205.545v-4.923a13.545 13.545 0 01-7.241-2.216l1.13-3.282a12.453 12.453 0 006.795 2.1c3.39 0 5.65-2.002 5.65-4.792s-1.846-4.349-5.347-5.843c-4.854-1.953-7.846-4.218-7.846-8.469 0-4.25 2.801-7.139 7.177-7.877v-4.924h2.944v4.743c2.16-.002 4.285.563 6.175 1.641l-1.177 3.283a10.996 10.996 0 00-5.968-1.642c-3.661 0-5.029 2.249-5.029 4.202 0 2.544 1.75 3.824 5.872 5.58 4.886 2.052 7.369 4.596 7.369 8.961a8.665 8.665 0 01-2.207 5.637 8.168 8.168 0 01-5.289 2.684v5.088l-3.008.049z" fill="#F8C244"/><path d="M146.338 215.983a6.117 6.117 0 01.977-2.231 5.889 5.889 0 011.76-1.642.77.77 0 01.684 0c.193.179.341.404.43.656.375 1.281.536 2.619.477 3.955.056.908.056 1.818 0 2.725a6.17 6.17 0 01-.71 2.625 5.98 5.98 0 01-1.756 2.036c-.796.443-3.183.607-3.183-1.329a21.88 21.88 0 01.636-3.283c.162-1.183.39-2.356.685-3.512z" fill="#F9D0B4"/><path d="M162.682 349.004s1.034 81.421 5.077 111.603c3.962 29.427 6.668 52.519 6.779 54.62l9.549-1.264 9.39-127.506 11.92 53.061 23.951 1.789-.923-84.408-65.743-7.895z" fill="#473F47"/><path d="M153.133 488.787s78.936-31.89 76.215-47.416l-24.015-1.92-58.613 43.23 6.413 6.106zm19.702 34.416a1.122 1.122 0 000 .787c.166.207.397.347.653.394 7.018 2.265 14.132 4.563 21.485 4.809 1.002 0 2.244-.148 2.53-1.116a2.421 2.421 0 00-.382-1.756 22.926 22.926 0 00-8.116-8.6c-2.069-1.28-4.504-2.347-5.586-4.579a28.086 28.086 0 01-4.775.771c-1.082 0-3.008-.393-3.819.476a9.943 9.943 0 00-1.114 3.939c-.414 1.609-.653 3.25-.876 4.875z" fill="#473F47"/><path d="M154.884 489.263a2.972 2.972 0 01-.255-1.888 17.153 17.153 0 00-1.973 8.945c.17 3.092.101 6.192-.207 9.273a3.356 3.356 0 01-.455 1.574 3.221 3.221 0 01-1.137 1.15c-1.257.542-2.594-.525-3.485-1.641a25.95 25.95 0 01-4.933-9.416 26.446 26.446 0 01-.78-10.672 2.22 2.22 0 01.286-.969c.417-.468.98-.77 1.592-.853 3.023-.788 4.328-2.872 6.62-4.678 2.133 2.249 3.358 6.401 4.727 9.175z" fill="#473F47"/><path d="M267.288 310.091l-8.323 1.641-7.957-12.129c-3.852-3.725-3.788-4.496-5.968.46-5.984 13.556-15.803 38.355-16.567 56.917l-4.775-.558a8.602 8.602 0 01-1.4-4.513c-.366-5.039 1.257-10.799-1.894-14.656-.732-.887-1.751-1.806-1.591-2.971a3.491 3.491 0 011.098-1.838 63.279 63.279 0 0011.458-17.856c1.592-3.726 2.833-7.616 4.679-11.226a74.007 74.007 0 016.366-9.847c1.591-2.216 3.501-4.596 6.127-5.187 3.008-.689 6.095 1.281 7.957 3.824a45.178 45.178 0 014.043 8.567 16.724 16.724 0 002.944 4.826c.875.935 2.753 1.296 3.421 2.15.265.328.44.723.508 1.144a2.46 2.46 0 01-.126 1.252z" fill="url(#paint0_linear)"/><defs><linearGradient id="paint0_linear" x1="245.342" y1="189.446" x2="240.197" y2="476.011" gradientUnits="userSpaceOnUse"><stop offset=".01"/><stop offset=".13" stop-opacity=".69"/><stop offset=".25" stop-opacity=".32"/><stop offset="1" stop-opacity="0"/></linearGradient></defs></svg>