<svg width="155" height="187" fill="none" xmlns="http://www.w3.org/2000/svg"><path d="M83.145 19.883s34.236 92.967 49.398 138.188" stroke="#1E2150" stroke-width=".446" stroke-miterlimit="10" stroke-linecap="round" stroke-linejoin="round"/><path d="M81.596 32.838c-3.994-9.533-6.032-20.044-4.402-30.229.082-.407.163-.896.49-1.222.978-1.06 2.69.244 3.505 1.467 5.217 8.066 9.21 16.947 11.982 26.154 2.609 8.8 5.299 19.474 4.32 28.6-3.26-1.223-6.684-8.311-8.64-11.326-2.772-4.237-5.299-8.718-7.255-13.444zm30.405 14.177c2.119-8.8 6.114-17.355 12.553-23.792.245-.244.571-.57.978-.652 1.305-.244 1.794 1.548 1.712 2.852a88.698 88.698 0 01-5.054 24.77c-2.69 7.577-6.358 16.54-11.819 22.57-1.631-2.608-.408-9.37-.245-12.467.326-4.4.897-8.881 1.875-13.281zM71.896 72.274c-8.07-4.237-15.243-10.267-19.89-18.089-.163-.326-.407-.733-.407-1.14.081-1.304 1.956-1.386 3.179-.978A90.514 90.514 0 0177.52 63.148c6.685 4.481 14.428 10.266 18.912 17.11-2.935.978-9.211-1.955-12.146-2.851a86.288 86.288 0 01-12.39-5.133zm63.337 3.666c3.668-8.31 9.292-15.888 16.792-21.021a2.528 2.528 0 011.059-.49c1.305 0 1.468 1.875 1.142 3.097-2.12 8.23-5.299 16.133-9.619 23.384-4.076 6.926-9.374 15.074-15.814 19.962-1.141-2.851 1.304-9.288 2.119-12.303 1.06-4.318 2.446-8.555 4.321-12.629zm-53.637 33.895c-8.477-3.341-16.303-8.555-21.764-15.807-.245-.326-.49-.652-.49-1.059-.08-1.304 1.794-1.548 3.098-1.304 8.315 1.711 16.303 4.645 23.803 8.556 7.173 3.748 15.487 8.636 20.704 14.91-2.771 1.304-9.374-.896-12.39-1.548-4.402-.896-8.804-2.118-12.96-3.748z" fill="#405328"/><path d="M116.81 51.903L106.54 84.25 72.793 69.91m3.831 33.489l42.55 16.051 15.896-32.021" stroke="#1E2150" stroke-width=".446" stroke-miterlimit="10" stroke-linecap="round" stroke-linejoin="round"/><path d="M40.35 138.841c.896-.244 1.793-.407 2.527-1.059.896-.815 1.06-2.2 1.304-3.341 1.223-7.333 5.217-14.34 11.249-18.74 6.032-4.4 14.02-6.111 21.275-4.074 4.157-7.17 8.478-14.503 15.162-19.392 6.684-4.888 16.303-6.68 23.15-2.037 4.239 2.934 6.766 7.822 7.744 12.874.978 5.052.652 10.266.245 15.399 6.521-.244 12.879 3.585 16.221 9.208 3.342 5.622 3.831 12.629 1.956 18.903-.244.814-.489 1.874 0 2.525.408.571 1.223.652 1.875.815 7.662 1.548 11.412 10.592 11.657 18.414.244 6.274-1.794 12.141-4.239 17.926H23.884c.081-15.155-2.853-42.369 16.466-47.421z" fill="#698842"/><path d="M4.402 171.677c6.032-10.429 21.275-14.258 31.464-7.821 5.543-8.474 17.118-12.467 26.656-9.126 3.505-7.252 9.048-13.526 15.813-18.007 4.973-3.259 10.76-5.622 16.793-5.703 5.95-.082 12.145 2.281 15.895 6.925 5.054 6.274 4.809 15.074 4.402 23.14 5.217-2.851 12.064-2.607 17.036.734 4.973 3.34 7.826 9.451 7.255 15.399 3.098-2.444 7.825-2.607 11.086-.326 3.179 2.282 4.809 6.926 3.424 10.674H0c.163-5.296 1.712-11.244 4.402-15.889z" fill="#405328"/><path d="M88.443 152.938l11.412 30.065" stroke="#1E2150" stroke-width=".204" stroke-miterlimit="10" stroke-linecap="round" stroke-linejoin="round"/><path d="M89.733 155.835c5.5-3.993 9.015-8.529 7.85-10.131-1.163-1.602-6.566.337-12.066 4.33-5.5 3.993-9.015 8.529-7.851 10.131 1.164 1.602 6.566-.336 12.067-4.33z" fill="#fff"/><path d="M88.444 152.185c1.493-1.084 2.446-2.317 2.129-2.754-.318-.437-1.786.088-3.28 1.172-1.493 1.084-2.446 2.318-2.128 2.754.317.437 1.785-.087 3.278-1.172z" fill="#0E151D"/><path d="M130.668 152.938l-11.494 30.065" stroke="#1E2150" stroke-width=".204" stroke-miterlimit="10" stroke-linecap="round" stroke-linejoin="round"/><path d="M141.432 160.142c1.165-1.602-2.35-6.138-7.851-10.131-5.5-3.993-10.903-5.932-12.067-4.33-1.164 1.602 2.351 6.138 7.851 10.131 5.501 3.993 10.903 5.932 12.067 4.33z" fill="#fff"/><path d="M133.932 153.323c.318-.437-.636-1.67-2.129-2.754-1.493-1.085-2.961-1.609-3.279-1.173-.317.437.636 1.67 2.129 2.755 1.494 1.084 2.962 1.609 3.279 1.172z" fill="#0E151D"/><path d="M105.154 183.573l4.483-29.007" stroke="#1E2150" stroke-width=".204" stroke-miterlimit="10" stroke-linecap="round" stroke-linejoin="round"/><path d="M109.637 164.425c5.267 0 9.537-4.268 9.537-9.533s-4.27-9.533-9.537-9.533c-5.267 0-9.537 4.268-9.537 9.533s4.27 9.533 9.537 9.533z" fill="#fff"/><path d="M109.637 157.582a2.69 2.69 0 10.001-5.379 2.69 2.69 0 00-.001 5.379z" fill="#0E151D"/></svg>