<svg width="155" height="187" fill="none" xmlns="http://www.w3.org/2000/svg"><path d="M83.145 19.698s34.236 92.967 49.398 138.188" stroke="#1E2150" stroke-width=".446" stroke-miterlimit="10" stroke-linecap="round" stroke-linejoin="round"/><path d="M81.596 32.653c-3.994-9.533-6.032-20.043-4.402-30.228.082-.408.163-.897.49-1.223.978-1.059 2.69.245 3.505 1.467 5.217 8.067 9.21 16.948 11.982 26.155 2.609 8.8 5.299 19.473 4.32 28.599-3.26-1.222-6.684-8.311-8.64-11.326-2.772-4.237-5.299-8.718-7.255-13.444zm30.405 14.177c2.119-8.8 6.114-17.354 12.553-23.791.245-.245.571-.57.978-.652 1.305-.245 1.794 1.548 1.712 2.852a88.697 88.697 0 01-5.054 24.77c-2.69 7.577-6.358 16.54-11.819 22.569-1.631-2.608-.408-9.37-.245-12.467.326-4.4.897-8.88 1.875-13.28zM71.896 72.089c-8.07-4.237-15.243-10.266-19.89-18.088-.163-.326-.407-.733-.407-1.14.081-1.305 1.956-1.386 3.179-.979A90.514 90.514 0 0177.52 62.963c6.685 4.482 14.428 10.267 18.912 17.11-2.935.979-9.211-1.955-12.146-2.85a86.3 86.3 0 01-12.39-5.134zm63.337 3.666c3.668-8.31 9.292-15.888 16.792-21.021a2.528 2.528 0 011.059-.489c1.305 0 1.468 1.874 1.142 3.096-2.12 8.23-5.299 16.133-9.619 23.385-4.076 6.925-9.374 15.073-15.814 19.962-1.141-2.852 1.304-9.289 2.119-12.303 1.06-4.319 2.446-8.556 4.321-12.63zM81.596 109.65c-8.477-3.34-16.303-8.555-21.764-15.806-.245-.326-.49-.652-.49-1.06-.08-1.303 1.794-1.548 3.098-1.303 8.315 1.71 16.303 4.644 23.803 8.555 7.173 3.748 15.487 8.637 20.704 14.911-2.771 1.303-9.374-.897-12.39-1.548-4.402-.897-8.804-2.119-12.96-3.749z" fill="#609155"/><path d="M116.81 51.719l-10.27 32.347-33.747-14.34m3.831 33.488l42.55 16.051 15.896-32.02" stroke="#1E2150" stroke-width=".446" stroke-miterlimit="10" stroke-linecap="round" stroke-linejoin="round"/><path d="M40.35 138.657c.896-.245 1.793-.408 2.527-1.06.896-.814 1.06-2.2 1.304-3.34 1.223-7.333 5.217-14.341 11.249-18.74 6.032-4.4 14.02-6.111 21.275-4.074 4.157-7.17 8.478-14.504 15.162-19.392 6.684-4.889 16.303-6.681 23.15-2.037 4.239 2.933 6.766 7.822 7.744 12.873.978 5.052.652 10.267.245 15.4 6.521-.245 12.879 3.585 16.221 9.207 3.342 5.622 3.831 12.629 1.956 18.903-.244.815-.489 1.874 0 2.526.408.57 1.223.652 1.875.815 7.662 1.548 11.412 10.592 11.657 18.414.244 6.274-1.794 12.14-4.239 17.925H23.884c.081-15.155-2.853-42.369 16.466-47.42z" fill="#A8D29F"/><path d="M4.402 171.493c6.032-10.429 21.275-14.259 31.464-7.822 5.543-8.474 17.118-12.466 26.656-9.126 3.505-7.251 9.048-13.525 15.813-18.006 4.973-3.26 10.76-5.622 16.793-5.704 5.95-.081 12.145 2.281 15.895 6.926 5.054 6.274 4.809 15.073 4.402 23.14 5.217-2.852 12.064-2.608 17.036.733 4.973 3.341 7.826 9.452 7.255 15.399 3.098-2.444 7.825-2.607 11.086-.325 3.179 2.281 4.809 6.925 3.424 10.673H0c.163-5.296 1.712-11.244 4.402-15.888z" fill="#609155"/><path d="M88.443 152.753l11.412 30.066" stroke="#1E2150" stroke-width=".204" stroke-miterlimit="10" stroke-linecap="round" stroke-linejoin="round"/><path d="M89.733 155.651c5.5-3.994 9.015-8.53 7.85-10.132-1.163-1.602-6.566.337-12.066 4.33-5.5 3.994-9.015 8.53-7.851 10.132 1.164 1.602 6.566-.337 12.067-4.33z" fill="#fff"/><path d="M88.444 152.001c1.493-1.085 2.446-2.318 2.129-2.755-.318-.437-1.786.088-3.28 1.173-1.493 1.084-2.446 2.317-2.128 2.754.317.437 1.785-.088 3.278-1.172z" fill="#0E151D"/><path d="M130.668 152.753l-11.494 30.066" stroke="#1E2150" stroke-width=".204" stroke-miterlimit="10" stroke-linecap="round" stroke-linejoin="round"/><path d="M141.432 159.957c1.165-1.602-2.35-6.137-7.851-10.13-5.5-3.994-10.903-5.932-12.067-4.33-1.164 1.602 2.351 6.138 7.851 10.131 5.501 3.993 10.903 5.931 12.067 4.329z" fill="#fff"/><path d="M133.932 153.138c.318-.436-.636-1.67-2.129-2.754-1.493-1.084-2.961-1.609-3.279-1.172-.317.437.636 1.67 2.129 2.754 1.494 1.085 2.962 1.609 3.279 1.172z" fill="#0E151D"/><path d="M105.154 183.388l4.483-29.006" stroke="#1E2150" stroke-width=".204" stroke-miterlimit="10" stroke-linecap="round" stroke-linejoin="round"/><path d="M109.637 164.241c5.267 0 9.537-4.268 9.537-9.533s-4.27-9.533-9.537-9.533c-5.267 0-9.537 4.268-9.537 9.533s4.27 9.533 9.537 9.533z" fill="#fff"/><path d="M109.637 157.397a2.69 2.69 0 10.001-5.379 2.69 2.69 0 00-.001 5.379z" fill="#0E151D"/></svg>