<svg width="300" height="266" fill="none" xmlns="http://www.w3.org/2000/svg"><path d="M299.008 262.372a.499.499 0 00.038-.706l-3.005-3.35a.5.5 0 00-.744.668l2.671 2.978-2.977 2.671a.499.499 0 10.668.744l3.349-3.005zM.684 1.098l.199.99.98-.197-.198-.989-.981.196zm.6 2.967c.134.657.269 1.314.405 1.969l.979-.203c-.136-.654-.27-1.31-.405-1.967l-.98.2zm.814 3.932l.415 1.956.978-.209c-.139-.65-.277-1.3-.414-1.953l-.979.206zm.834 3.905c.14.649.282 1.296.424 1.943l.976-.215a655.99 655.99 0 01-.423-1.94l-.977.212zm.853 3.883l.442 1.97.976-.221c-.148-.655-.296-1.31-.442-1.967l-.976.218zm.89 3.932c.15.653.3 1.305.452 1.955l.974-.227-.452-1.952-.974.224zm.91 3.904c.153.648.307 1.295.462 1.941l.973-.233a549.17 549.17 0 01-.462-1.938l-.973.23zm.93 3.876l.473 1.927.971-.24c-.158-.64-.316-1.281-.472-1.924l-.972.237zm.96 3.881c.164.652.328 1.303.494 1.953l.969-.247c-.165-.648-.33-1.298-.493-1.95l-.97.244zm.993 3.898c.167.648.335 1.294.505 1.938l.967-.253c-.169-.644-.337-1.289-.504-1.935l-.968.25zm1.015 3.869c.171.642.343 1.283.516 1.923l.965-.26-.515-1.92-.966.257zm1.038 3.839c.177.647.356 1.293.535 1.937l.964-.268c-.18-.643-.358-1.288-.535-1.934l-.964.265zm1.08 3.877c.182.645.366 1.29.55 1.932l.961-.276c-.184-.641-.367-1.284-.549-1.928l-.962.272zm1.107 3.856c.186.64.374 1.28.562 1.917l.96-.284c-.189-.636-.376-1.274-.562-1.913l-.96.28zm1.131 3.825c.19.635.383 1.269.575 1.9l.957-.29c-.193-.632-.384-1.264-.574-1.897l-.958.287zm1.166 3.824c.199.642.399 1.283.6 1.923l.954-.3c-.201-.638-.4-1.278-.599-1.919l-.955.296zm1.206 3.837c.203.637.407 1.273.613 1.907l.951-.308c-.205-.633-.409-1.267-.611-1.903l-.953.304zm1.232 3.805c.208.632.417 1.262.627 1.89l.948-.316c-.21-.628-.418-1.256-.625-1.886l-.95.312zm1.26 3.772c.216.638.434 1.274.652 1.91l.946-.326c-.218-.634-.435-1.269-.651-1.905l-.947.321zm1.312 3.81c.22.633.443 1.264.667 1.894l.942-.335c-.223-.628-.445-1.257-.665-1.888l-.944.33zm1.341 3.778c.226.627.453 1.252.681 1.876l.94-.344c-.228-.622-.455-1.246-.68-1.87l-.941.338zm1.37 3.743c.232.624.466 1.247.7 1.868l.936-.353c-.234-.62-.467-1.24-.698-1.863l-.938.348zm1.417 3.753c.24.627.482 1.252.725 1.875l.932-.363c-.242-.622-.483-1.245-.723-1.87l-.934.358zm1.458 3.742c.245.62.492 1.24.74 1.857l.928-.372c-.247-.616-.494-1.234-.738-1.853l-.93.368zm1.489 3.706c.25.614.503 1.228.756 1.84l.924-.384a356.69 356.69 0 01-.755-1.834l-.925.378zm1.53 3.692c.261.62.523 1.237.787 1.854l.92-.394c-.264-.614-.525-1.23-.785-1.848l-.922.388zm1.581 3.698c.267.613.535 1.224.804 1.834l.915-.404c-.269-.608-.536-1.218-.801-1.829l-.918.399zm1.616 3.659c.272.607.545 1.212.82 1.816l.91-.415a339.1 339.1 0 01-.818-1.81l-.912.409zm1.653 3.629c.282.611.566 1.219.852 1.826l.904-.425a299.04 299.04 0 01-.849-1.821l-.907.42zm1.712 3.642c.289.604.579 1.206.87 1.807l.9-.437c-.29-.599-.58-1.199-.867-1.801l-.903.431zm1.749 3.603c.295.597.59 1.193.888 1.787l.894-.448a327.86 327.86 0 01-.885-1.781l-.897.442zm1.786 3.563c.305.599.61 1.196.919 1.791l.888-.46a317.92 317.92 0 01-.916-1.784l-.891.453zm1.849 3.574c.311.592.625 1.183.94 1.772l.882-.471c-.314-.587-.627-1.176-.937-1.767l-.885.466zm1.889 3.535c.318.585.638 1.169.96 1.752l.875-.484c-.32-.58-.64-1.162-.956-1.746l-.879.478zm1.928 3.493c.328.584.657 1.166.988 1.746l.869-.495c-.33-.578-.658-1.158-.984-1.74l-.873.489zm1.99 3.49c.336.579.674 1.157 1.013 1.732l.861-.507c-.338-.574-.674-1.149-1.008-1.727l-.866.502zm2.036 3.454c.343.573.687 1.143 1.033 1.712l.854-.52c-.345-.567-.688-1.135-1.03-1.705l-.857.513zm2.077 3.413c.352.568.705 1.134 1.06 1.699l.847-.533c-.354-.562-.706-1.127-1.056-1.693l-.85.527zm2.137 3.396c.36.564.723 1.126 1.088 1.687l.838-.546c-.363-.558-.724-1.118-1.084-1.68l-.842.539zm2.187 3.362c.368.557.737 1.112 1.11 1.665l.83-.558a274.29 274.29 0 01-1.106-1.658l-.834.551zm2.23 3.318c.377.551.755 1.101 1.136 1.648l.821-.571c-.379-.545-.756-1.092-1.131-1.641l-.826.564zm2.289 3.293c.386.547.774 1.091 1.165 1.634l.812-.584c-.389-.54-.776-1.083-1.16-1.627l-.817.577zm2.34 3.256c.395.539.79 1.076 1.188 1.612l.803-.597a276.76 276.76 0 01-1.183-1.605l-.807.59zm2.388 3.212c.402.532.807 1.063 1.213 1.591l.793-.609a264.84 264.84 0 01-1.208-1.585l-.798.603zm2.443 3.177c.412.527.826 1.052 1.242 1.575l.783-.622c-.414-.521-.827-1.044-1.237-1.569l-.788.616zm2.496 3.138c.42.519.843 1.037 1.267 1.552l.772-.636c-.423-.513-.843-1.028-1.261-1.545l-.778.629zm2.545 3.092c.429.512.86 1.022 1.292 1.53l.761-.649c-.43-.506-.86-1.013-1.286-1.523l-.767.642zm2.599 3.051c.437.505.877 1.008 1.319 1.509l.75-.661c-.44-.499-.878-1-1.314-1.503l-.755.655zm2.65 3.006c.446.498.894.993 1.345 1.486l.738-.674a228.74 228.74 0 01-1.338-1.479l-.745.667zm2.701 2.96c.455.49.911.977 1.37 1.463l.727-.687c-.457-.483-.911-.969-1.364-1.456l-.733.68zm2.752 2.912c.462.482.927.961 1.394 1.439l.715-.7a187.51 187.51 0 01-1.388-1.432l-.721.693zm2.802 2.865c.471.473.945.945 1.42 1.414l.703-.711c-.474-.468-.945-.937-1.415-1.409l-.708.706zm2.854 2.817c.48.465.961.928 1.445 1.389l.69-.724c-.482-.459-.962-.92-1.439-1.383l-.696.718zm2.9 2.763c.486.456.975.91 1.466 1.362l.677-.736c-.489-.45-.976-.902-1.46-1.356l-.684.73zm2.947 2.712c.496.448.994.894 1.494 1.338l.664-.748c-.498-.442-.994-.886-1.488-1.332l-.67.742zm3 2.664c.505.44 1.01.877 1.519 1.312l.65-.759c-.506-.434-1.01-.869-1.51-1.306l-.658.753zm3.041 2.605c.51.429 1.022.857 1.536 1.282l.637-.771a264.76 264.76 0 01-1.529-1.276l-.644.765zm3.086 2.551c.518.422 1.039.841 1.563 1.258l.623-.782c-.521-.415-1.039-.833-1.556-1.252l-.63.776zm3.139 2.504c.527.413 1.056.823 1.587 1.232l.61-.793c-.529-.406-1.056-.815-1.58-1.226l-.617.787zm3.173 2.441c.531.402 1.065.801 1.6 1.198l.596-.803c-.533-.395-1.064-.793-1.593-1.192l-.603.797zm3.213 2.384c.54.394 1.083.785 1.627 1.175l.582-.813a238.35 238.35 0 01-1.62-1.17l-.589.808zm3.267 2.338c.549.385 1.1.769 1.654 1.15l.567-.823c-.551-.38-1.099-.762-1.646-1.145l-.575.818zm3.298 2.274c.55.373 1.102.743 1.657 1.112l.554-.833c-.553-.367-1.103-.736-1.651-1.107l-.56.828zm3.328 2.213c.559.365 1.121.728 1.685 1.089l.539-.842c-.561-.359-1.12-.721-1.677-1.084l-.547.837zm3.383 2.167a224.4 224.4 0 001.711 1.067l.525-.851c-.57-.352-1.138-.706-1.704-1.062l-.532.846zm3.412 2.107c.567.344 1.137.686 1.709 1.026l.511-.86c-.57-.338-1.137-.679-1.702-1.021l-.518.855zm3.43 2.041c.577.336 1.155.67 1.736 1.003l.497-.868c-.578-.331-1.155-.664-1.728-.999l-.505.864zm3.484 1.996c.586.329 1.173.656 1.763.981l.482-.876c-.587-.324-1.172-.65-1.755-.977l-.49.872zm3.521 1.942c.582.315 1.166.628 1.752.939l.47-.883c-.584-.31-1.166-.622-1.746-.936l-.476.88zm3.518 1.868c.591.308 1.184.614 1.779.918l.455-.89c-.593-.303-1.183-.608-1.772-.915l-.462.887zm3.571 1.826c.599.3 1.201.599 1.805.896l.441-.897c-.601-.296-1.201-.594-1.798-.893l-.448.894zm3.623 1.782c.595.287 1.191.572 1.789.855l.428-.904c-.596-.282-1.19-.566-1.782-.852l-.435.901zm3.591 1.699c.603.28 1.208.558 1.815.834l.414-.91c-.605-.275-1.207-.552-1.808-.831l-.421.907zm3.643 1.658c.611.273 1.225.544 1.84.814l.401-.917c-.613-.268-1.225-.538-1.834-.81l-.407.913zm3.694 1.617c.614.263 1.23.525 1.848.785l.388-.922c-.616-.259-1.23-.52-1.842-.782l-.394.919zm3.679 1.547c.612.252 1.227.503 1.843.752l.375-.927c-.614-.248-1.227-.498-1.837-.75l-.381.925zm3.699 1.495c.621.246 1.244.49 1.869.732l.361-.932c-.622-.242-1.243-.485-1.862-.73l-.368.93zm3.749 1.455c.63.239 1.261.477 1.894.713l.349-.937c-.631-.235-1.26-.472-1.887-.711l-.356.935zm3.77 1.404c.619.227 1.241.451 1.864.674l.337-.941c-.622-.223-1.241-.447-1.859-.672l-.342.939zm3.741 1.338c.628.22 1.257.439 1.889.655l.325-.946a296.05 296.05 0 01-1.883-.652l-.331.943zm3.79 1.301c.636.213 1.274.425 1.913.636l.313-.95c-.638-.21-1.274-.421-1.907-.634l-.319.948zm3.839 1.262c.633.204 1.267.406 1.904.607l.301-.954c-.635-.2-1.268-.402-1.899-.605l-.306.952zm3.795 1.196c.633.195 1.267.389 1.903.581l.289-.957c-.634-.192-1.267-.385-1.897-.579l-.295.955zm3.817 1.153c.641.189 1.283.376 1.927.562l.277-.96c-.642-.186-1.282-.373-1.92-.561l-.284.959zm3.864 1.116c.648.183 1.298.365 1.95.545l.266-.964c-.65-.179-1.298-.361-1.944-.543l-.272.962zm3.889 1.075c.635.171 1.272.341 1.91.51l.256-.967c-.637-.168-1.272-.338-1.905-.509l-.261.966zm3.832 1.012c.642.166 1.286.331 1.933.494l.244-.97c-.644-.163-1.286-.327-1.927-.492l-.25.968zm3.877.979c.649.16 1.301.319 1.955.476l.234-.972c-.652-.157-1.302-.315-1.95-.475l-.239.971zm3.921.944c.658.155 1.317.308 1.978.46l.224-.975a357.35 357.35 0 01-1.973-.458l-.229.973zm3.907.898c.643.144 1.287.287 1.934.428l.213-.977c-.644-.141-1.287-.283-1.928-.427l-.219.976zm3.878.848c.65.139 1.302.277 1.955.413l.204-.979c-.652-.136-1.302-.273-1.95-.412l-.209.978zm3.921.817c.657.134 1.316.266 1.977.397l.194-.981c-.659-.131-1.316-.263-1.972-.396l-.199.98zm3.964.785c.66.127 1.321.253 1.984.378l.185-.983c-.662-.124-1.321-.25-1.979-.377l-.19.982zm3.924.738c.649.119 1.299.236 1.951.352l.175-.984c-.65-.116-1.299-.233-1.945-.352l-.181.984zm3.911.697c.656.114 1.312.226 1.971.338l.167-.986a501.58 501.58 0 01-1.967-.337l-.171.985zm3.952.668c.662.108 1.326.216 1.991.322l.158-.988c-.664-.106-1.326-.213-1.987-.321l-.162.987zm3.993.637c.663.103 1.328.204 1.995.305l.149-.989c-.665-.1-1.329-.202-1.991-.304l-.153.988zm3.946.594c.652.096 1.306.19 1.961.283l.14-.99c-.653-.093-1.306-.187-1.956-.282l-.145.989zm3.931.558c.659.091 1.319.18 1.98.269l.133-.992c-.661-.088-1.319-.177-1.976-.267l-.137.99zm3.97.53c.665.086 1.332.171 2 .254l.124-.992c-.667-.083-1.332-.168-1.996-.254l-.128.992zm4.009.502c.671.081 1.344.161 2.019.24l.116-.993a586.39 586.39 0 01-2.015-.24l-.12.993zm3.978.465c.654.074 1.309.147 1.965.219l.109-.995c-.656-.071-1.309-.144-1.962-.218l-.112.994zm3.94.43c.66.07 1.321.138 1.984.205l.101-.994-1.98-.205-.105.994zm3.977.404c.666.065 1.334.129 2.003.192l.093-.996a410.84 410.84 0 01-1.999-.191l-.097.995zm4.014.377c.672.061 1.346.121 2.021.179l.087-.996c-.674-.058-1.347-.118-2.018-.178l-.09.995zm4.022.349c.654.054 1.309.108 1.966.16l.079-.997c-.655-.052-1.309-.105-1.962-.16l-.083.997zm3.94.313c.66.05 1.321.1 1.983.148l.073-.998c-.662-.048-1.322-.097-1.98-.147l-.076.997zm3.975.289c.665.046 1.332.091 2 .135l.066-.998c-.667-.044-1.333-.089-1.997-.135l-.069.998zm4.01.264c.671.042 1.343.083 2.018.123l.059-.999c-.673-.039-1.345-.08-2.015-.122l-.062.998zm4.044.239l1.018.056.054-.998-1.016-.056-.056.998z" fill="#fff"/></svg>