<svg xmlns="http://www.w3.org/2000/svg" width="1919" height="1183"><defs><linearGradient id="a" x1="220" x2="1660" y1="377" y2="1136" gradientUnits="userSpaceOnUse"><stop offset="0"/><stop offset=".29" stop-color="#0e151d"/></linearGradient><linearGradient id="b" x1="225" x2="407.5" y1="377.5" y2="520" gradientUnits="userSpaceOnUse"><stop offset="0" stop-color="#fff" stop-opacity=".21"/><stop offset="1" stop-color="#fff" stop-opacity="0"/></linearGradient><linearGradient id="c" x1="1648.01" x2="1125.51" y1="1137" y2="613.5" gradientUnits="userSpaceOnUse"><stop offset="0" stop-color="#fff" stop-opacity=".64"/><stop offset=".31" stop-color="#fff" stop-opacity=".79"/><stop offset="1" stop-color="#fff"/></linearGradient></defs><path fill="url(#a)" d="M220 377h1440v759H220z"/><path fill="#5f5f5f" fill-opacity=".1" d="M251 1119a3 3 0 11-6 0 3 3 0 016 0zm8 0a3 3 0 11-6 0 3 3 0 016 0zm8 0a3 3 0 11-6 0 3 3 0 016 0zm8 0a3 3 0 11-6 0 3 3 0 016 0zm8 0a3 3 0 11-6 0 3 3 0 016 0zm8 0a3 3 0 11-6 0 3 3 0 016 0zm-40 8a3 3 0 11-6 0 3 3 0 016 0zm8 0a3 3 0 11-6 0 3 3 0 016 0zm8 0a3 3 0 11-6 0 3 3 0 016 0zm8 0a3 3 0 11-6 0 3 3 0 016 0zm8 0a3 3 0 11-6 0 3 3 0 016 0zm8 0a3 3 0 11-6 0 3 3 0 016 0zm-40 8a3 3 0 11-6 0 3 3 0 016 0zm8 0a3 3 0 11-6 0 3 3 0 016 0zm8 0a3 3 0 11-6 0 3 3 0 016 0zm8 0a3 3 0 11-6 0 3 3 0 016 0zm8 0a3 3 0 11-6 0 3 3 0 016 0zm8 0a3 3 0 11-6 0 3 3 0 016 0zm-40 8a3 3 0 11-6 0 3 3 0 016 0zm8 0a3 3 0 11-6 0 3 3 0 016 0zm8 0a3 3 0 11-6 0 3 3 0 016 0zm8 0a3 3 0 11-6 0 3 3 0 016 0zm8 0a3 3 0 11-6 0 3 3 0 016 0zm8 0a3 3 0 11-6 0 3 3 0 016 0zm-40 8a3 3 0 11-6 0 3 3 0 016 0zm8 0a3 3 0 11-6 0 3 3 0 016 0zm8 0a3 3 0 11-6 0 3 3 0 016 0zm8 0a3 3 0 11-6 0 3 3 0 016 0zm8 0a3 3 0 11-6 0 3 3 0 016 0zm8 0a3 3 0 11-6 0 3 3 0 016 0zm-40 8a3 3 0 11-6 0 3 3 0 016 0zm8 0a3 3 0 11-6 0 3 3 0 016 0zm8 0a3 3 0 11-6 0 3 3 0 016 0zm8 0a3 3 0 11-6 0 3 3 0 016 0zm8 0a3 3 0 11-6 0 3 3 0 016 0zm8 0a3 3 0 11-6 0 3 3 0 016 0zm-40 8a3 3 0 11-6 0 3 3 0 016 0zm8 0a3 3 0 11-6 0 3 3 0 016 0zm8 0a3 3 0 11-6 0 3 3 0 016 0zm8 0a3 3 0 11-6 0 3 3 0 016 0zm8 0a3 3 0 11-6 0 3 3 0 016 0zm8 0a3 3 0 11-6 0 3 3 0 016 0zm-40 8a3 3 0 11-6 0 3 3 0 016 0zm8 0a3 3 0 11-6 0 3 3 0 016 0zm8 0a3 3 0 11-6 0 3 3 0 016 0zm8 0a3 3 0 11-6 0 3 3 0 016 0zm8 0a3 3 0 11-6 0 3 3 0 016 0zm8 0a3 3 0 11-6 0 3 3 0 016 0zm8-80a3 3 0 11-6 0 3 3 0 016 0zm8 0a3 3 0 11-6 0 3 3 0 016 0zm8 0a3 3 0 11-6 0 3 3 0 016 0zm8 0a3 3 0 11-6 0 3 3 0 016 0zm8 0a3 3 0 11-6 0 3 3 0 016 0zm8 0a3 3 0 11-6 0 3 3 0 016 0zm-40 8a3 3 0 11-6 0 3 3 0 016 0zm8 0a3 3 0 11-6 0 3 3 0 016 0zm8 0a3 3 0 11-6 0 3 3 0 016 0zm8 0a3 3 0 11-6 0 3 3 0 016 0zm8 0a3 3 0 11-6 0 3 3 0 016 0zm8 0a3 3 0 11-6 0 3 3 0 016 0zm-40 8a3 3 0 11-6 0 3 3 0 016 0zm8 0a3 3 0 11-6 0 3 3 0 016 0zm8 0a3 3 0 11-6 0 3 3 0 016 0zm8 0a3 3 0 11-6 0 3 3 0 016 0zm8 0a3 3 0 11-6 0 3 3 0 016 0zm8 0a3 3 0 11-6 0 3 3 0 016 0zm-40 8a3 3 0 11-6 0 3 3 0 016 0zm8 0a3 3 0 11-6 0 3 3 0 016 0zm8 0a3 3 0 11-6 0 3 3 0 016 0zm8 0a3 3 0 11-6 0 3 3 0 016 0zm8 0a3 3 0 11-6 0 3 3 0 016 0zm8 0a3 3 0 11-6 0 3 3 0 016 0zm-40 8a3 3 0 11-6 0 3 3 0 016 0zm8 0a3 3 0 11-6 0 3 3 0 016 0zm8 0a3 3 0 11-6 0 3 3 0 016 0zm8 0a3 3 0 11-6 0 3 3 0 016 0zm8 0a3 3 0 11-6 0 3 3 0 016 0zm8 0a3 3 0 11-6 0 3 3 0 016 0zm-40 8a3 3 0 11-6 0 3 3 0 016 0zm8 0a3 3 0 11-6 0 3 3 0 016 0zm8 0a3 3 0 11-6 0 3 3 0 016 0zm8 0a3 3 0 11-6 0 3 3 0 016 0zm8 0a3 3 0 11-6 0 3 3 0 016 0zm8 0a3 3 0 11-6 0 3 3 0 016 0zm-40 8a3 3 0 11-6 0 3 3 0 016 0zm8 0a3 3 0 11-6 0 3 3 0 016 0zm8 0a3 3 0 11-6 0 3 3 0 016 0zm8 0a3 3 0 11-6 0 3 3 0 016 0zm8 0a3 3 0 11-6 0 3 3 0 016 0zm8 0a3 3 0 11-6 0 3 3 0 016 0zm-40 8a3 3 0 11-6 0 3 3 0 016 0zm8 0a3 3 0 11-6 0 3 3 0 016 0zm8 0a3 3 0 11-6 0 3 3 0 016 0zm8 0a3 3 0 11-6 0 3 3 0 016 0zm8 0a3 3 0 11-6 0 3 3 0 016 0zm8 0a3 3 0 11-6 0 3 3 0 016 0zm-88-96a3 3 0 11-6 0 3 3 0 016 0zm8 0a3 3 0 11-6 0 3 3 0 016 0zm8 0a3 3 0 11-6 0 3 3 0 016 0zm8 0a3 3 0 11-6 0 3 3 0 016 0zm8 0a3 3 0 11-6 0 3 3 0 016 0zm8 0a3 3 0 11-6 0 3 3 0 016 0zm-40 8a3 3 0 11-6 0 3 3 0 016 0zm8 0a3 3 0 11-6 0 3 3 0 016 0zm8 0a3 3 0 11-6 0 3 3 0 016 0zm8 0a3 3 0 11-6 0 3 3 0 016 0zm8 0a3 3 0 11-6 0 3 3 0 016 0zm8 0a3 3 0 11-6 0 3 3 0 016 0zm-40 8a3 3 0 11-6 0 3 3 0 016 0zm8 0a3 3 0 11-6 0 3 3 0 016 0zm8 0a3 3 0 11-6 0 3 3 0 016 0zm8 0a3 3 0 11-6 0 3 3 0 016 0zm8 0a3 3 0 11-6 0 3 3 0 016 0zm8 0a3 3 0 11-6 0 3 3 0 016 0zm-40 8a3 3 0 11-6 0 3 3 0 016 0zm8 0a3 3 0 11-6 0 3 3 0 016 0zm8 0a3 3 0 11-6 0 3 3 0 016 0zm8 0a3 3 0 11-6 0 3 3 0 016 0zm8 0a3 3 0 11-6 0 3 3 0 016 0zm8 0a3 3 0 11-6 0 3 3 0 016 0zm-40 8a3 3 0 11-6 0 3 3 0 016 0zm8 0a3 3 0 11-6 0 3 3 0 016 0zm8 0a3 3 0 11-6 0 3 3 0 016 0zm8 0a3 3 0 11-6 0 3 3 0 016 0zm8 0a3 3 0 11-6 0 3 3 0 016 0zm8 0a3 3 0 11-6 0 3 3 0 016 0zm-40 8a3 3 0 11-6 0 3 3 0 016 0zm8 0a3 3 0 11-6 0 3 3 0 016 0zm8 0a3 3 0 11-6 0 3 3 0 016 0zm8 0a3 3 0 11-6 0 3 3 0 016 0zm8 0a3 3 0 11-6 0 3 3 0 016 0zm8 0a3 3 0 11-6 0 3 3 0 016 0zm-40 8a3 3 0 11-6 0 3 3 0 016 0zm8 0a3 3 0 11-6 0 3 3 0 016 0zm8 0a3 3 0 11-6 0 3 3 0 016 0zm8 0a3 3 0 11-6 0 3 3 0 016 0zm8 0a3 3 0 11-6 0 3 3 0 016 0zm8 0a3 3 0 11-6 0 3 3 0 016 0zm-40 8a3 3 0 11-6 0 3 3 0 016 0zm8 0a3 3 0 11-6 0 3 3 0 016 0zm8 0a3 3 0 11-6 0 3 3 0 016 0zm8 0a3 3 0 11-6 0 3 3 0 016 0zm8 0a3 3 0 11-6 0 3 3 0 016 0zm8 0a3 3 0 11-6 0 3 3 0 016 0zm56-16a3 3 0 11-6 0 3 3 0 016 0zm8 0a3 3 0 11-6 0 3 3 0 016 0zm8 0a3 3 0 11-6 0 3 3 0 016 0zm8 0a3 3 0 11-6 0 3 3 0 016 0zm8 0a3 3 0 11-6 0 3 3 0 016 0zm8 0a3 3 0 11-6 0 3 3 0 016 0zm-40 8a3 3 0 11-6 0 3 3 0 016 0zm8 0a3 3 0 11-6 0 3 3 0 016 0zm8 0a3 3 0 11-6 0 3 3 0 016 0zm8 0a3 3 0 11-6 0 3 3 0 016 0zm8 0a3 3 0 11-6 0 3 3 0 016 0zm8 0a3 3 0 11-6 0 3 3 0 016 0zm-40 8a3 3 0 11-6 0 3 3 0 016 0zm8 0a3 3 0 11-6 0 3 3 0 016 0zm8 0a3 3 0 11-6 0 3 3 0 016 0zm8 0a3 3 0 11-6 0 3 3 0 016 0zm8 0a3 3 0 11-6 0 3 3 0 016 0zm8 0a3 3 0 11-6 0 3 3 0 016 0zm-40 8a3 3 0 11-6 0 3 3 0 016 0zm8 0a3 3 0 11-6 0 3 3 0 016 0zm8 0a3 3 0 11-6 0 3 3 0 016 0zm8 0a3 3 0 11-6 0 3 3 0 016 0zm8 0a3 3 0 11-6 0 3 3 0 016 0zm8 0a3 3 0 11-6 0 3 3 0 016 0zm-40 8a3 3 0 11-6 0 3 3 0 016 0zm8 0a3 3 0 11-6 0 3 3 0 016 0zm8 0a3 3 0 11-6 0 3 3 0 016 0zm8 0a3 3 0 11-6 0 3 3 0 016 0zm8 0a3 3 0 11-6 0 3 3 0 016 0zm8 0a3 3 0 11-6 0 3 3 0 016 0zm-40 8a3 3 0 11-6 0 3 3 0 016 0zm8 0a3 3 0 11-6 0 3 3 0 016 0zm8 0a3 3 0 11-6 0 3 3 0 016 0zm8 0a3 3 0 11-6 0 3 3 0 016 0zm8 0a3 3 0 11-6 0 3 3 0 016 0zm8 0a3 3 0 11-6 0 3 3 0 016 0zm-40 8a3 3 0 11-6 0 3 3 0 016 0zm8 0a3 3 0 11-6 0 3 3 0 016 0zm8 0a3 3 0 11-6 0 3 3 0 016 0zm8 0a3 3 0 11-6 0 3 3 0 016 0zm8 0a3 3 0 11-6 0 3 3 0 016 0zm8 0a3 3 0 11-6 0 3 3 0 016 0zm-40 8a3 3 0 11-6 0 3 3 0 016 0zm8 0a3 3 0 11-6 0 3 3 0 016 0zm8 0a3 3 0 11-6 0 3 3 0 016 0zm8 0a3 3 0 11-6 0 3 3 0 016 0zm8 0a3 3 0 11-6 0 3 3 0 016 0zm8 0a3 3 0 11-6 0 3 3 0 016 0zM257.75 518a3 3 0 11-6 0 3 3 0 016 0zm8 0a3 3 0 11-6 0 3 3 0 016 0zm8 0a3 3 0 11-6 0 3 3 0 016 0zm8 0a3 3 0 11-6 0 3 3 0 016 0zm8 0a3 3 0 11-6 0 3 3 0 016 0zm8 0a3 3 0 11-6 0 3 3 0 016 0zm-40 8a3 3 0 11-6 0 3 3 0 016 0zm8 0a3 3 0 11-6 0 3 3 0 016 0zm8 0a3 3 0 11-6 0 3 3 0 016 0zm8 0a3 3 0 11-6 0 3 3 0 016 0zm8 0a3 3 0 11-6 0 3 3 0 016 0zm8 0a3 3 0 11-6 0 3 3 0 016 0zm-40 8a3 3 0 11-6 0 3 3 0 016 0zm8 0a3 3 0 11-6 0 3 3 0 016 0zm8 0a3 3 0 11-6 0 3 3 0 016 0zm8 0a3 3 0 11-6 0 3 3 0 016 0zm8 0a3 3 0 11-6 0 3 3 0 016 0zm8 0a3 3 0 11-6 0 3 3 0 016 0zm-40 8a3 3 0 11-6 0 3 3 0 016 0zm8 0a3 3 0 11-6 0 3 3 0 016 0zm8 0a3 3 0 11-6 0 3 3 0 016 0zm8 0a3 3 0 11-6 0 3 3 0 016 0zm8 0a3 3 0 11-6 0 3 3 0 016 0zm8 0a3 3 0 11-6 0 3 3 0 016 0zm-40 8a3 3 0 11-6 0 3 3 0 016 0zm8 0a3 3 0 11-6 0 3 3 0 016 0zm8 0a3 3 0 11-6 0 3 3 0 016 0zm8 0a3 3 0 11-6 0 3 3 0 016 0zm8 0a3 3 0 11-6 0 3 3 0 016 0zm8 0a3 3 0 11-6 0 3 3 0 016 0zm-40 8a3 3 0 11-6 0 3 3 0 016 0zm8 0a3 3 0 11-6 0 3 3 0 016 0zm8 0a3 3 0 11-6 0 3 3 0 016 0zm8 0a3 3 0 11-6 0 3 3 0 016 0zm8 0a3 3 0 11-6 0 3 3 0 016 0zm8 0a3 3 0 11-6 0 3 3 0 016 0zm-40 8a3 3 0 11-6 0 3 3 0 016 0zm8 0a3 3 0 11-6 0 3 3 0 016 0zm8 0a3 3 0 11-6 0 3 3 0 016 0zm8 0a3 3 0 11-6 0 3 3 0 016 0zm8 0a3 3 0 11-6 0 3 3 0 016 0zm8 0a3 3 0 11-6 0 3 3 0 016 0zm-40 8a3 3 0 11-6 0 3 3 0 016 0zm8 0a3 3 0 11-6 0 3 3 0 016 0zm8 0a3 3 0 11-6 0 3 3 0 016 0zm8 0a3 3 0 11-6 0 3 3 0 016 0zm8 0a3 3 0 11-6 0 3 3 0 016 0zm8 0a3 3 0 11-6 0 3 3 0 016 0zm8-80a3 3 0 11-6 0 3 3 0 016 0zm8 0a3 3 0 11-6 0 3 3 0 016 0zm8 0a3 3 0 11-6 0 3 3 0 016 0zm8 0a3 3 0 11-6 0 3 3 0 016 0zm8 0a3 3 0 11-6 0 3 3 0 016 0zm8 0a3 3 0 11-6 0 3 3 0 016 0zm-40 8a3 3 0 11-6 0 3 3 0 016 0zm8 0a3 3 0 11-6 0 3 3 0 016 0zm8 0a3 3 0 11-6 0 3 3 0 016 0zm8 0a3 3 0 11-6 0 3 3 0 016 0zm8 0a3 3 0 11-6 0 3 3 0 016 0zm8 0a3 3 0 11-6 0 3 3 0 016 0zm-40 8a3 3 0 11-6 0 3 3 0 016 0zm8 0a3 3 0 11-6 0 3 3 0 016 0zm8 0a3 3 0 11-6 0 3 3 0 016 0zm8 0a3 3 0 11-6 0 3 3 0 016 0zm8 0a3 3 0 11-6 0 3 3 0 016 0zm8 0a3 3 0 11-6 0 3 3 0 016 0zm-40 8a3 3 0 11-6 0 3 3 0 016 0zm8 0a3 3 0 11-6 0 3 3 0 016 0zm8 0a3 3 0 11-6 0 3 3 0 016 0zm8 0a3 3 0 11-6 0 3 3 0 016 0zm8 0a3 3 0 11-6 0 3 3 0 016 0zm8 0a3 3 0 11-6 0 3 3 0 016 0zm-40 8a3 3 0 11-6 0 3 3 0 016 0zm8 0a3 3 0 11-6 0 3 3 0 016 0zm8 0a3 3 0 11-6 0 3 3 0 016 0zm8 0a3 3 0 11-6 0 3 3 0 016 0zm8 0a3 3 0 11-6 0 3 3 0 016 0zm8 0a3 3 0 11-6 0 3 3 0 016 0zm-40 8a3 3 0 11-6 0 3 3 0 016 0zm8 0a3 3 0 11-6 0 3 3 0 016 0zm8 0a3 3 0 11-6 0 3 3 0 016 0zm8 0a3 3 0 11-6 0 3 3 0 016 0zm8 0a3 3 0 11-6 0 3 3 0 016 0zm8 0a3 3 0 11-6 0 3 3 0 016 0zm-40 8a3 3 0 11-6 0 3 3 0 016 0zm8 0a3 3 0 11-6 0 3 3 0 016 0zm8 0a3 3 0 11-6 0 3 3 0 016 0zm8 0a3 3 0 11-6 0 3 3 0 016 0zm8 0a3 3 0 11-6 0 3 3 0 016 0zm8 0a3 3 0 11-6 0 3 3 0 016 0zm-40 8a3 3 0 11-6 0 3 3 0 016 0zm8 0a3 3 0 11-6 0 3 3 0 016 0zm8 0a3 3 0 11-6 0 3 3 0 016 0zm8 0a3 3 0 11-6 0 3 3 0 016 0zm8 0a3 3 0 11-6 0 3 3 0 016 0zm8 0a3 3 0 11-6 0 3 3 0 016 0zm525 259a3 3 0 11-6 0 3 3 0 016 0zm8 0a3 3 0 11-6 0 3 3 0 016 0zm8 0a3 3 0 11-6 0 3 3 0 016 0zm8 0a3 3 0 11-6 0 3 3 0 016 0zm8 0a3 3 0 11-6 0 3 3 0 016 0zm8 0a3 3 0 11-6 0 3 3 0 016 0zm-40 8a3 3 0 11-6 0 3 3 0 016 0zm8 0a3 3 0 11-6 0 3 3 0 016 0zm8 0a3 3 0 11-6 0 3 3 0 016 0zm8 0a3 3 0 11-6 0 3 3 0 016 0zm8 0a3 3 0 11-6 0 3 3 0 016 0zm8 0a3 3 0 11-6 0 3 3 0 016 0zm-40 8a3 3 0 11-6 0 3 3 0 016 0zm8 0a3 3 0 11-6 0 3 3 0 016 0zm8 0a3 3 0 11-6 0 3 3 0 016 0zm8 0a3 3 0 11-6 0 3 3 0 016 0zm8 0a3 3 0 11-6 0 3 3 0 016 0zm8 0a3 3 0 11-6 0 3 3 0 016 0zm-40 8a3 3 0 11-6 0 3 3 0 016 0zm8 0a3 3 0 11-6 0 3 3 0 016 0zm8 0a3 3 0 11-6 0 3 3 0 016 0zm8 0a3 3 0 11-6 0 3 3 0 016 0zm8 0a3 3 0 11-6 0 3 3 0 016 0zm8 0a3 3 0 11-6 0 3 3 0 016 0zm-40 8a3 3 0 11-6 0 3 3 0 016 0zm8 0a3 3 0 11-6 0 3 3 0 016 0zm8 0a3 3 0 11-6 0 3 3 0 016 0zm8 0a3 3 0 11-6 0 3 3 0 016 0zm8 0a3 3 0 11-6 0 3 3 0 016 0zm8 0a3 3 0 11-6 0 3 3 0 016 0zm-40 8a3 3 0 11-6 0 3 3 0 016 0zm8 0a3 3 0 11-6 0 3 3 0 016 0zm8 0a3 3 0 11-6 0 3 3 0 016 0zm8 0a3 3 0 11-6 0 3 3 0 016 0zm8 0a3 3 0 11-6 0 3 3 0 016 0zm8 0a3 3 0 11-6 0 3 3 0 016 0zm-40 8a3 3 0 11-6 0 3 3 0 016 0zm8 0a3 3 0 11-6 0 3 3 0 016 0zm8 0a3 3 0 11-6 0 3 3 0 016 0zm8 0a3 3 0 11-6 0 3 3 0 016 0zm8 0a3 3 0 11-6 0 3 3 0 016 0zm8 0a3 3 0 11-6 0 3 3 0 016 0zm-40 8a3 3 0 11-6 0 3 3 0 016 0zm8 0a3 3 0 11-6 0 3 3 0 016 0zm8 0a3 3 0 11-6 0 3 3 0 016 0zm8 0a3 3 0 11-6 0 3 3 0 016 0zm8 0a3 3 0 11-6 0 3 3 0 016 0zm8 0a3 3 0 11-6 0 3 3 0 016 0zm8-80a3 3 0 11-6 0 3 3 0 016 0zm8 0a3 3 0 11-6 0 3 3 0 016 0zm8 0a3 3 0 11-6 0 3 3 0 016 0zm8 0a3 3 0 11-6 0 3 3 0 016 0zm8 0a3 3 0 11-6 0 3 3 0 016 0zm8 0a3 3 0 11-6 0 3 3 0 016 0zm-40 8a3 3 0 11-6 0 3 3 0 016 0zm8 0a3 3 0 11-6 0 3 3 0 016 0zm8 0a3 3 0 11-6 0 3 3 0 016 0zm8 0a3 3 0 11-6 0 3 3 0 016 0zm8 0a3 3 0 11-6 0 3 3 0 016 0zm8 0a3 3 0 11-6 0 3 3 0 016 0zm-40 8a3 3 0 11-6 0 3 3 0 016 0zm8 0a3 3 0 11-6 0 3 3 0 016 0zm8 0a3 3 0 11-6 0 3 3 0 016 0zm8 0a3 3 0 11-6 0 3 3 0 016 0zm8 0a3 3 0 11-6 0 3 3 0 016 0zm8 0a3 3 0 11-6 0 3 3 0 016 0zm-40 8a3 3 0 11-6 0 3 3 0 016 0zm8 0a3 3 0 11-6 0 3 3 0 016 0zm8 0a3 3 0 11-6 0 3 3 0 016 0zm8 0a3 3 0 11-6 0 3 3 0 016 0zm8 0a3 3 0 11-6 0 3 3 0 016 0zm8 0a3 3 0 11-6 0 3 3 0 016 0zm-40 8a3 3 0 11-6 0 3 3 0 016 0zm8 0a3 3 0 11-6 0 3 3 0 016 0zm8 0a3 3 0 11-6 0 3 3 0 016 0zm8 0a3 3 0 11-6 0 3 3 0 016 0zm8 0a3 3 0 11-6 0 3 3 0 016 0zm8 0a3 3 0 11-6 0 3 3 0 016 0zm-40 8a3 3 0 11-6 0 3 3 0 016 0zm8 0a3 3 0 11-6 0 3 3 0 016 0zm8 0a3 3 0 11-6 0 3 3 0 016 0zm8 0a3 3 0 11-6 0 3 3 0 016 0zm8 0a3 3 0 11-6 0 3 3 0 016 0zm8 0a3 3 0 11-6 0 3 3 0 016 0zm-40 8a3 3 0 11-6 0 3 3 0 016 0zm8 0a3 3 0 11-6 0 3 3 0 016 0zm8 0a3 3 0 11-6 0 3 3 0 016 0zm8 0a3 3 0 11-6 0 3 3 0 016 0zm8 0a3 3 0 11-6 0 3 3 0 016 0zm8 0a3 3 0 11-6 0 3 3 0 016 0zm-40 8a3 3 0 11-6 0 3 3 0 016 0zm8 0a3 3 0 11-6 0 3 3 0 016 0zm8 0a3 3 0 11-6 0 3 3 0 016 0zm8 0a3 3 0 11-6 0 3 3 0 016 0zm8 0a3 3 0 11-6 0 3 3 0 016 0zm8 0a3 3 0 11-6 0 3 3 0 016 0zm-88-96a3 3 0 11-6 0 3 3 0 016 0zm8 0a3 3 0 11-6 0 3 3 0 016 0zm8 0a3 3 0 11-6 0 3 3 0 016 0zm8 0a3 3 0 11-6 0 3 3 0 016 0zm8 0a3 3 0 11-6 0 3 3 0 016 0zm8 0a3 3 0 11-6 0 3 3 0 016 0zm-40 8a3 3 0 11-6 0 3 3 0 016 0zm8 0a3 3 0 11-6 0 3 3 0 016 0zm8 0a3 3 0 11-6 0 3 3 0 016 0zm8 0a3 3 0 11-6 0 3 3 0 016 0zm8 0a3 3 0 11-6 0 3 3 0 016 0zm8 0a3 3 0 11-6 0 3 3 0 016 0zm-40 8a3 3 0 11-6 0 3 3 0 016 0zm8 0a3 3 0 11-6 0 3 3 0 016 0zm8 0a3 3 0 11-6 0 3 3 0 016 0zm8 0a3 3 0 11-6 0 3 3 0 016 0zm8 0a3 3 0 11-6 0 3 3 0 016 0zm8 0a3 3 0 11-6 0 3 3 0 016 0zm-40 8a3 3 0 11-6 0 3 3 0 016 0zm8 0a3 3 0 11-6 0 3 3 0 016 0zm8 0a3 3 0 11-6 0 3 3 0 016 0zm8 0a3 3 0 11-6 0 3 3 0 016 0zm8 0a3 3 0 11-6 0 3 3 0 016 0zm8 0a3 3 0 11-6 0 3 3 0 016 0zm-40 8a3 3 0 11-6 0 3 3 0 016 0zm8 0a3 3 0 11-6 0 3 3 0 016 0zm8 0a3 3 0 11-6 0 3 3 0 016 0zm8 0a3 3 0 11-6 0 3 3 0 016 0zm8 0a3 3 0 11-6 0 3 3 0 016 0zm8 0a3 3 0 11-6 0 3 3 0 016 0zm-40 8a3 3 0 11-6 0 3 3 0 016 0zm8 0a3 3 0 11-6 0 3 3 0 016 0zm8 0a3 3 0 11-6 0 3 3 0 016 0zm8 0a3 3 0 11-6 0 3 3 0 016 0zm8 0a3 3 0 11-6 0 3 3 0 016 0zm8 0a3 3 0 11-6 0 3 3 0 016 0zm-40 8a3 3 0 11-6 0 3 3 0 016 0zm8 0a3 3 0 11-6 0 3 3 0 016 0zm8 0a3 3 0 11-6 0 3 3 0 016 0zm8 0a3 3 0 11-6 0 3 3 0 016 0zm8 0a3 3 0 11-6 0 3 3 0 016 0zm8 0a3 3 0 11-6 0 3 3 0 016 0zm-40 8a3 3 0 11-6 0 3 3 0 016 0zm8 0a3 3 0 11-6 0 3 3 0 016 0zm8 0a3 3 0 11-6 0 3 3 0 016 0zm8 0a3 3 0 11-6 0 3 3 0 016 0zm8 0a3 3 0 11-6 0 3 3 0 016 0zm8 0a3 3 0 11-6 0 3 3 0 016 0zm8 48a3 3 0 11-6 0 3 3 0 016 0zm8 0a3 3 0 11-6 0 3 3 0 016 0zm8 0a3 3 0 11-6 0 3 3 0 016 0zm8 0a3 3 0 11-6 0 3 3 0 016 0zm8 0a3 3 0 11-6 0 3 3 0 016 0zm8 0a3 3 0 11-6 0 3 3 0 016 0zm-40 8a3 3 0 11-6 0 3 3 0 016 0zm8 0a3 3 0 11-6 0 3 3 0 016 0zm8 0a3 3 0 11-6 0 3 3 0 016 0zm8 0a3 3 0 11-6 0 3 3 0 016 0zm8 0a3 3 0 11-6 0 3 3 0 016 0zm8 0a3 3 0 11-6 0 3 3 0 016 0zm-40 8a3 3 0 11-6 0 3 3 0 016 0zm8 0a3 3 0 11-6 0 3 3 0 016 0zm8 0a3 3 0 11-6 0 3 3 0 016 0zm8 0a3 3 0 11-6 0 3 3 0 016 0zm8 0a3 3 0 11-6 0 3 3 0 016 0zm8 0a3 3 0 11-6 0 3 3 0 016 0zm-40 8a3 3 0 11-6 0 3 3 0 016 0zm8 0a3 3 0 11-6 0 3 3 0 016 0zm8 0a3 3 0 11-6 0 3 3 0 016 0zm8 0a3 3 0 11-6 0 3 3 0 016 0zm8 0a3 3 0 11-6 0 3 3 0 016 0zm8 0a3 3 0 11-6 0 3 3 0 016 0zm-40 8a3 3 0 11-6 0 3 3 0 016 0zm8 0a3 3 0 11-6 0 3 3 0 016 0zm8 0a3 3 0 11-6 0 3 3 0 016 0zm8 0a3 3 0 11-6 0 3 3 0 016 0zm8 0a3 3 0 11-6 0 3 3 0 016 0zm8 0a3 3 0 11-6 0 3 3 0 016 0zm-40 8a3 3 0 11-6 0 3 3 0 016 0zm8 0a3 3 0 11-6 0 3 3 0 016 0zm8 0a3 3 0 11-6 0 3 3 0 016 0zm8 0a3 3 0 11-6 0 3 3 0 016 0zm8 0a3 3 0 11-6 0 3 3 0 016 0zm8 0a3 3 0 11-6 0 3 3 0 016 0zm-40 8a3 3 0 11-6 0 3 3 0 016 0zm8 0a3 3 0 11-6 0 3 3 0 016 0zm8 0a3 3 0 11-6 0 3 3 0 016 0zm8 0a3 3 0 11-6 0 3 3 0 016 0zm8 0a3 3 0 11-6 0 3 3 0 016 0zm8 0a3 3 0 11-6 0 3 3 0 016 0zm-40 8a3 3 0 11-6 0 3 3 0 016 0zm8 0a3 3 0 11-6 0 3 3 0 016 0zm8 0a3 3 0 11-6 0 3 3 0 016 0zm8 0a3 3 0 11-6 0 3 3 0 016 0zm8 0a3 3 0 11-6 0 3 3 0 016 0zm8 0a3 3 0 11-6 0 3 3 0 016 0z"/><path fill="url(#b)" d="M405.967 440.019c24.195-29.037 15.018-57.81 14.996-95.599-.027-47.906 21.62-106.423-24.256-120.248-30.066-9.06-46.026 17.02-76.255 25.529-65.733 18.504-108.8 4.416-172.387 29.318-59.898 23.457-113.333 29.37-139.03 88.334-34.664 79.54 45.1 129.973 95.543 200.558 28.178 39.429 34.729 145.25 82.942 140.238 19.974-2.076 66.012-14.901 88.858-67.339 22.845-52.437-1.32-78.032 39.534-137.005 30.34-43.794 70.42-40.223 90.055-63.786z"/><path fill="url(#c)" d="M1155.118 441.98c52.354-84.787 131.987-85.927 226.501-117.5 119.818-40.028 248.023-143.118 321.001-40 47.82 67.58-4.03 129.307 0 212 8.75 179.818 80.03 275.695 71 455.5-2.94 58.52-52.61 155.033-71 163.02-126.616 55-409.116 0-576.616 0-127.792 0-424.5 45-453 26.5-25.75-16.715-23.5-106.5 88.5-207.5s196.232-62.009 309.5-213.5c84.114-112.5 41.628-209.712 84.114-278.52z"/><path fill="#b29e9e" fill-opacity=".15" d="M1395.566 66.815c44.512-34.286 96.844 16.373 149.765-5.709 34.516-14.403 38.96-46.797 75.69-55.738 35.481-8.637 61.391-4.95 94.01 11.936 71.782 37.163-40.07 148.385 27.408 192.108 52.537 34.044 120.663-46.237 161.977-.733 50.457 55.573-49.222 103.752-102.008 154.822-74.485 72.067-135.538 145.795-242.36 122.733-111.734-24.12-122.929-128.122-165.721-227.294-21.21-49.154-54.03-79.843-39.564-130.196 7.91-27.533 17.328-43.847 40.803-61.93zM876.5 926.748c68.11-24.6 136.08 28.203 203.674 0 44.087-18.397 49.762-59.773 96.677-71.193 45.32-11.032 78.413-6.324 120.074 15.245 91.687 47.468-10.92 151.248 75.266 207.094 67.103 43.482 231.538.485 284.309 58.606 64.447 70.981-20.32 41.491-114.5 32-64.5-6.5-299.965-65.369-440.5-56-105 7-293.61 33-378.5 33-13.5 0-24.5-30.5 28.5-109 43.464-64.376 71.114-90.291 125-109.752z"/><path fill="#ebebeb" d="M1110.913 614.419c.795-5.702-7.16-10.343-13.26-10.873-2.918-.265-5.835.265-8.62-.796-5.834-1.989-8.22-9.68-13.922-12.066-4.244-1.857-9.282-.133-13.393 1.856-4.11 2.122-8.221 4.774-12.995 5.039-4.11.265-8.486-1.194-11.934.795-2.652 1.459-3.978 4.509-6.497 6.365-2.387 1.724-5.437 2.122-8.487 2.254-2.917.133-5.967.133-8.751 1.459-2.652 1.193-4.906 4.11-4.376 7.028zm477.23 41.77c.795-5.702-7.16-10.343-13.26-10.873-2.917-.265-5.835.265-8.62-.796-5.834-1.989-8.22-9.68-13.922-12.066-4.244-1.857-9.282-.133-13.393 1.856-4.11 2.122-8.221 4.774-12.995 5.039-4.11.265-8.486-1.194-11.934.795-2.652 1.459-3.978 4.509-6.497 6.365-2.387 1.724-5.437 2.122-8.487 2.254-2.917.133-5.967.133-8.751 1.459-2.652 1.193-4.906 4.11-4.376 7.028z"/><path fill="#e0e0e0" d="M1610.416 984.908c0 .132-132.467.398-295.698.398-163.363 0-295.698-.133-295.698-.398s132.335-.398 295.698-.398c163.363 0 295.698.133 295.698.398z"/><path fill="#f5f5f5" d="M1119.532 800.586c-23.072-6.099-43.36-21.216-54.499-41.106-11.27-19.757-13.392-44.023-5.701-65.239 5.967-16.575 17.503-31.161 22.41-48.134 5.568-19.227 2.253-39.514-1.194-59.14-3.448-19.624-7.028-39.912-1.724-59.139 5.304-19.227 21.746-37.26 42.962-38.719 19.625-1.326 37.791 12.332 46.012 29.04 8.222 16.707 8.222 35.934 6.365 54.233-1.856 18.299-5.702 36.597-4.508 55.029 2.387 37.26 24.663 72.267 22.011 109.527-1.326 19.36-9.414 31.824-23.072 46.41-11.934 12.863-31.559 21.216-49.062 17.238z"/><path fill="#e0e0e0" d="M1126.558 985.173c-.265 0-.398-82.477-.398-184.182 0-101.704.133-184.181.398-184.181s.398 82.477.398 184.181c0 101.705-.266 184.182-.398 184.182zm-1.062-248.894c-.132 0-1.326-1.06-3.447-3.05-1.99-1.856-4.774-4.64-7.691-7.69-2.917-3.05-5.57-5.835-7.558-7.824-1.99-1.989-3.05-3.315-3.05-3.315.133 0 1.326 1.06 3.448 3.05 1.989 1.856 4.773 4.64 7.69 7.69 2.918 3.05 5.57 5.835 7.559 7.824 1.856 1.989 3.05 3.315 3.05 3.315z"/><path fill="#e0e0e0" d="M1189.145 969.79H1065.96v14.984h123.185z"/><g fill="#e0e0e0"><path d="M1127.625 659.107c-.132-.132 3.315-.397 7.558-3.182 2.122-1.326 4.244-3.448 6.1-6.1 1.724-2.652 3.05-5.967 3.315-9.68v-.265l.398.398c-3.713.53-6.895 2.652-9.017 5.039-2.254 2.254-3.845 4.774-5.039 6.763-1.193 2.121-2.121 3.845-2.652 5.038-.53 1.194-.928 1.857-.928 1.857s.133-.663.663-1.99c.53-1.193 1.326-3.049 2.387-5.17 1.193-2.122 2.652-4.642 5.039-7.028 2.254-2.387 5.436-4.641 9.414-5.304l.53-.133v.796c-.265 3.712-1.59 7.16-3.447 9.945-1.856 2.784-4.11 4.773-6.365 6.1-2.121 1.325-4.243 1.988-5.569 2.386-.663.133-1.326.265-1.591.265-.53.265-.796.265-.796.265z"/><path d="M1127.626 659.107c-.133-.133 2.121-3.05 5.171-6.365 3.05-3.448 5.57-6.1 5.702-5.967.132.132-2.122 3.05-5.172 6.365-2.917 3.447-5.436 6.1-5.701 5.967z"/></g><path fill="#f5f5f5" d="M1453.682 800.586c-23.072-6.099-43.36-21.216-54.499-41.106-11.27-19.757-13.392-44.023-5.701-65.239 5.967-16.575 17.503-31.161 22.41-48.134 5.568-19.227 2.253-39.514-1.194-59.14-3.448-19.624-7.028-39.912-1.724-59.139 5.304-19.227 21.746-37.26 42.962-38.719 19.625-1.326 37.791 12.332 46.013 29.04 8.221 16.707 8.221 35.934 6.364 54.233-1.856 18.299-5.701 36.597-4.508 55.029 2.387 37.26 24.664 72.267 22.012 109.527-1.326 19.36-9.415 31.824-23.073 46.41-11.934 12.863-31.691 21.216-49.062 17.238z"/><path fill="#e0e0e0" d="M1460.578 985.173c-.265 0-.398-82.477-.398-184.182 0-101.704.133-184.181.398-184.181s.398 82.477.398 184.181c0 101.705-.133 184.182-.398 184.182zm-1.062-248.894c-.132 0-1.326-1.06-3.447-3.05-1.99-1.856-4.774-4.64-7.691-7.69-2.917-3.05-5.57-5.835-7.558-7.824-1.99-1.989-3.05-3.315-3.05-3.315.133 0 1.326 1.06 3.448 3.05 1.989 1.856 4.773 4.64 7.69 7.69 2.918 3.05 5.57 5.835 7.559 7.824 1.989 1.989 3.182 3.315 3.05 3.315z"/><path fill="#e0e0e0" d="M1523.165 969.79H1399.98v14.984h123.185z"/><g fill="#e0e0e0"><path d="M1461.775 659.107c-.132-.132 3.315-.397 7.558-3.182 2.122-1.326 4.244-3.448 6.1-6.1 1.724-2.652 3.05-5.967 3.315-9.68v-.265l.398.398c-3.713.53-6.895 2.652-9.017 5.039-2.254 2.254-3.845 4.774-5.039 6.763-1.193 2.121-2.121 3.845-2.652 5.038-.53 1.194-.928 1.857-.928 1.857s.133-.663.663-1.99c.53-1.193 1.326-3.049 2.387-5.17 1.193-2.122 2.652-4.642 5.039-7.028 2.254-2.387 5.436-4.641 9.414-5.304l.53-.133v.796c-.265 3.712-1.59 7.16-3.447 9.945-1.856 2.784-4.11 4.773-6.365 6.1-2.121 1.325-4.243 1.988-5.569 2.386-.663.133-1.326.265-1.591.265-.663.265-.796.265-.796.265z"/><path d="M1461.776 659.107c-.133-.133 2.121-3.05 5.17-6.365 3.05-3.448 5.57-6.1 5.703-5.967.132.132-2.122 3.05-5.172 6.365-3.05 3.447-5.569 6.1-5.701 5.967z"/></g><path fill="#ebebeb" d="M1292.573 513.779c.795-5.702-7.16-10.343-13.26-10.873-2.918-.265-5.835.265-8.62-.796-5.834-1.989-8.22-9.68-13.922-12.066-4.244-1.857-9.282-.133-13.393 1.856-4.11 2.122-8.221 4.774-12.995 5.039-4.11.265-8.486-1.194-11.934.795-2.652 1.459-3.978 4.509-6.497 6.365-2.387 1.724-5.437 2.122-8.487 2.254-2.917.133-5.967.133-8.751 1.459-2.652 1.193-4.906 4.11-4.376 7.028z"/><path fill="#f5f5f5" d="M1394.417 569.734c1.061-7.559-9.679-13.79-17.635-14.454-3.846-.265-7.824.265-11.404-.928-7.824-2.785-11.006-12.862-18.697-16.177-5.702-2.387-12.332-.265-17.9 2.52-5.57 2.784-11.007 6.364-17.239 6.762-5.436.398-11.27-1.591-16.044.928-3.58 1.989-5.304 5.967-8.62 8.354-3.182 2.387-7.292 2.784-11.27 3.05-3.978.265-7.956.265-11.67 1.856-3.58 1.591-6.496 5.437-5.833 9.282z"/><path fill="#0e151d" d="M1612.145 1065.128c0 .132-134.987.398-301.533.398-166.545 0-301.532-.133-301.532-.398s134.987-.398 301.532-.398c166.546.133 301.533.265 301.533.398z"/><path fill="#455a64" d="M1270.297 984.107l6.63 28.243s-26.388 16.178-25.725 21.482l55.162-10.874-8.486-44.288z"/><g opacity=".6"><g opacity=".36"><g opacity=".22"><path fill="#fff" d="M1293.509 1006.52c1.06.133 2.121 1.193 2.121 2.254s-1.06 2.122-2.254 2.122c-1.06 0-2.387-1.326-2.122-2.387.133-1.06 1.459-2.254 2.52-1.856" opacity=".13"/></g></g></g><g opacity=".6"><g opacity=".36"><path fill="#fff" d="M1306.371 1022.956l-.796-4.376-52.642 12.067s-2.254 1.59-1.59 3.182z" opacity=".22"/></g></g><path fill="#0e151d" d="M1275.998 1012.083c0 .265 1.458.132 2.917.795 1.459.53 2.387 1.591 2.652 1.459.265-.133-.53-1.591-2.254-2.387-1.857-.663-3.448 0-3.315.133zm-5.298 3.584c0 .265 1.193.53 2.387 1.458 1.193.929 1.591 2.122 1.856 1.99.265 0 .133-1.592-1.326-2.785-1.326-1.06-2.917-.928-2.917-.663zm-1.989 7.553c.265 0 .398-1.458-.663-2.784-.928-1.326-2.387-1.724-2.387-1.458-.132.265.929.928 1.592 1.989.928 1.193 1.193 2.254 1.458 2.254zm6.5-17.635c.133.265 1.326-.398 2.917-.53 1.592-.266 2.785 0 2.918-.266.132-.265-1.194-1.06-3.05-.796-1.857.266-2.917 1.326-2.785 1.592zm-1.199-5.701c0 .133 1.06.133 2.784-.53.796-.265 1.724-.796 2.652-1.459.53-.397.928-.663 1.459-1.193.265-.265.53-.398.663-.796.265-.397.265-1.06-.133-1.458-.398-.398-.928-.398-1.326-.398-.398.133-.663.265-1.06.398-.531.265-1.061.53-1.592.928a11.71 11.71 0 00-2.254 2.122c-1.06 1.458-1.326 2.519-1.193 2.519.132 0 .53-.928 1.723-2.122.53-.663 1.326-1.326 2.254-1.856.398-.265.929-.53 1.46-.796.53-.265 1.06-.397 1.192-.132.133.132.133.132 0 .265-.132.133-.265.398-.53.53-.398.398-.796.796-1.326 1.061-.928.663-1.724 1.194-2.52 1.591-1.325.929-2.386 1.194-2.253 1.326z"/><path fill="#0e151d" d="M1274.406 1000.151c.133 0 .398-1.06.265-2.785-.132-.928-.397-1.856-.928-2.917-.265-.53-.663-1.06-1.06-1.591-.398-.53-.929-1.193-1.99-1.06-.53.132-.928.662-1.06 1.06-.133.398-.133.796-.133 1.06 0 .664.133 1.327.398 1.857.398 1.194 1.06 1.99 1.724 2.652 1.326 1.194 2.519 1.326 2.519 1.194 0-.133-.928-.53-2.122-1.724-.53-.53-1.06-1.459-1.326-2.387-.132-.53-.265-1.06-.265-1.591 0-.663.133-1.061.265-1.061.266 0 .796.265 1.194.663.398.398.663.928.928 1.326.53.928.928 1.856 1.06 2.652.399 1.591.399 2.652.531 2.652z"/><path fill="#455a64" d="M1417.88 927.094l26.387 11.934s-3.315 30.763 1.459 33.548l24.929-50.388-40.31-20.288z"/><g opacity=".6"><g opacity=".36"><g opacity=".22"><path fill="#fff" d="M1449.845 922.32c.795-.796 2.121-.929 3.05-.266.928.663 1.06 2.122.265 3.05-.796.796-2.387 1.061-3.183.265-.795-.795-.928-2.519 0-3.182" opacity=".13"/></g></g></g><g opacity=".6"><g opacity=".36"><path fill="#fff" d="M1470.662 922.179l-3.978-1.989-22.542 49.062s-.132 2.785 1.592 3.315z" opacity=".22"/></g></g><path fill="#0e151d" d="M1443.605 939.688c.265.133.928-1.06 2.387-1.856 1.326-.796 2.785-.928 2.785-1.194 0-.265-1.592-.663-3.315.398-1.592.928-2.122 2.52-1.857 2.652zm-.395 6.36c.265.133 1.193-.663 2.652-1.06 1.458-.398 2.652 0 2.784-.266.133-.265-1.193-1.06-3.05-.663-1.856.398-2.651 1.857-2.386 1.99zm4.773 6.105c.132-.132-.929-1.193-2.52-1.193-1.724 0-2.784.796-2.652 1.06.133.266 1.194-.132 2.652-.132 1.326 0 2.387.53 2.52.265zm-10.078-15.917c.266 0 .53-1.326 1.326-2.652s1.724-2.255 1.592-2.387c-.133-.265-1.592.398-2.387 1.989-.928 1.591-.796 3.05-.53 3.05zm-5.306-2.513c.132 0 .795-.796 1.193-2.52.265-.795.398-1.856.53-3.05v-1.856c0-.265 0-.663-.265-1.06-.132-.398-.663-.929-1.193-.796-.53 0-.928.398-1.061.795-.133.398-.265.663-.398 1.061-.132.663-.265 1.194-.265 1.857 0 1.193.133 2.254.398 3.05.53 1.723 1.193 2.519 1.326 2.519.132-.133-.398-1.061-.663-2.652-.133-.796-.265-1.857-.133-2.917 0-.53.133-1.061.265-1.724.133-.663.398-1.061.663-1.061.133 0 .133 0 .266.133.132.132.132.53.132.795.133.53.133 1.194.133 1.724 0 1.06-.133 2.122-.265 2.917-.398 1.724-.796 2.785-.663 2.785z"/><path fill="#0e151d" d="M1433.131 933.59c.133-.133-.53-.928-2.121-1.857-.796-.397-1.724-.795-2.917-1.06-.53-.133-1.194-.133-1.857-.133s-1.458.133-2.121.928c-.266.53-.133 1.061.132 1.459.265.398.53.53.796.663.53.398 1.06.663 1.724.795 1.193.398 2.254.398 3.182.266 1.856-.398 2.652-1.194 2.52-1.326-.133-.133-.929.53-2.653.663-.795 0-1.723 0-2.784-.398-.53-.133-.928-.398-1.459-.796-.53-.398-.795-.795-.663-.928.133-.265.796-.53 1.326-.53h1.724c1.06.132 1.989.397 2.785.795 1.458.928 2.254 1.591 2.386 1.459z"/><path fill="#0e151d" d="M1287.01 782.159l39.913 96.931c4.773 11.536 13.79 20.685 25.326 25.459l72.4 30.63 19.625-30.895-71.472-38.454-28.376-85.395c4.508-16.707-1.857-24-5.304-40.045z"/><path fill="#0e151d" d="M1289.128 741.453l34.874-13.393s34.741 14.453 15.78 54.1l-50.654 111.252 15.78 92.025c.133 1.06-.663 2.121-1.724 2.254l-36.598 3.05c-.928.132-1.723-.531-1.989-1.326l-25.459-91.097c-1.06-5.436-.795-11.005.928-16.177l38.985-127.959z"/><path fill="#455a64" d="M1332.622 733.49s.133 0 .398.265c.265.133.53.398 1.06.796.929.795 2.122 1.989 3.58 3.58 1.46 1.724 2.918 3.845 4.377 6.63 1.458 2.785 2.917 6.1 3.447 10.078.53 3.978.265 8.353-.53 12.862-.398 2.254-1.061 4.64-1.724 6.895-.663 2.387-1.856 4.641-2.917 7.028-4.243 9.414-9.017 19.89-13.923 30.763-9.945 21.746-18.962 41.504-25.46 55.692-3.314 7.028-5.966 12.862-7.823 16.84-.928 1.989-1.591 3.448-2.121 4.509-.266.53-.398.928-.53 1.193-.133.265-.266.398-.266.398s0-.133.133-.398c.132-.265.265-.663.53-1.193.53-1.061 1.193-2.652 1.989-4.641 1.856-3.978 4.376-9.813 7.558-16.973 6.498-14.321 15.382-34.078 25.327-55.825a2995.118 2995.118 0 0114.055-30.63c1.061-2.387 2.255-4.641 2.918-6.896.795-2.386 1.326-4.64 1.856-6.895.796-4.508 1.193-8.751.663-12.73-.398-3.845-1.856-7.16-3.182-9.944a44.594 44.594 0 00-4.244-6.63c-1.326-1.724-2.519-2.918-3.447-3.713-.398-.398-.796-.663-.928-.928-.796 0-.929-.133-.796-.133zm-43.492 161.904s-.398.133-1.06.265c-.663.133-1.724.266-2.918.398a24.269 24.269 0 01-9.547-1.458 24.991 24.991 0 01-8.221-5.04 13.472 13.472 0 01-1.99-2.12c-.397-.531-.662-.929-.53-.929.133-.133 1.061 1.06 2.918 2.652 1.856 1.591 4.64 3.448 8.088 4.774a26.189 26.189 0 009.282 1.723c2.52 0 3.978-.397 3.978-.265zm-.531-1.85c0 .132-3.58-.796-7.823-2.387-4.244-1.591-7.426-3.315-7.426-3.448.133-.132 3.448 1.194 7.69 2.785 4.244 1.591 7.692 2.917 7.559 3.05zm84.998-27.184s-.398.928-1.591 2.254c-1.193 1.194-3.05 2.785-5.437 3.713-2.386.928-4.773 1.193-6.497 1.193-1.724-.132-2.652-.397-2.652-.53s1.06 0 2.652 0c1.591 0 3.978-.398 6.232-1.326s4.11-2.254 5.304-3.448c1.326-1.06 1.857-1.856 1.99-1.856z"/><path fill="#455a64" d="M1327.713 767.17s-.53.265-1.326.796c-.928.398-2.254.928-4.11 1.458-3.448 1.061-8.62 1.724-14.189.53-5.569-1.06-10.077-3.712-12.862-5.966-1.459-1.194-2.52-2.122-3.182-2.917-.663-.796-1.061-1.194-.929-1.194.133-.132 1.592 1.591 4.509 3.846 2.917 2.121 7.293 4.64 12.73 5.701 5.436 1.061 10.475.53 13.922-.397 3.315-.929 5.437-1.99 5.437-1.857zm44.161 99.324s-.266.133-.929.398-1.458.53-2.652.795c-2.254.53-5.569.929-9.149.663-3.58-.397-6.763-1.326-8.752-2.386-1.06-.53-1.856-.929-2.386-1.326-.53-.398-.796-.53-.796-.663s1.326.663 3.448 1.458c2.121.796 5.171 1.724 8.751 2.122 3.448.265 6.63 0 8.884-.398 2.255-.398 3.58-.796 3.58-.663zm-98.794 18.826v-.265c0-.265.133-.53.265-.928.265-.796.53-1.989.928-3.315.796-2.917 1.99-7.028 3.448-12.2 2.917-10.342 7.16-24.53 12.067-40.177 4.906-15.647 9.547-29.702 13.127-39.913a684.227 684.227 0 014.243-12.066c.53-1.326.928-2.387 1.194-3.315.132-.398.265-.663.265-.796.132-.132.132-.265.132-.265v.265c-.132.265-.132.53-.265.796-.265.795-.663 1.856-1.06 3.315a578.628 578.628 0 01-3.979 12.066c-3.315 10.21-7.956 24.266-12.862 39.913a2472.18 2472.18 0 00-12.199 40.178c-1.459 5.039-2.785 9.282-3.58 12.199-.398 1.326-.796 2.519-1.061 3.315-.133.398-.265.663-.265.796-.265.397-.398.397-.398.397zm17.643 102.24s-.132-.266-.265-.929-.398-1.591-.53-2.784c-.53-2.52-1.194-5.967-1.99-10.21-1.59-8.752-3.845-20.554-6.364-33.681-2.387-13.127-4.509-25.061-6.1-33.813-.795-4.243-1.326-7.69-1.724-10.21-.132-1.194-.397-2.122-.397-2.785-.133-.663-.133-.928-.133-.928s.133.265.265.928c.133.663.398 1.591.53 2.785.531 2.52 1.194 5.967 1.99 10.21 1.59 8.752 3.845 20.553 6.364 33.68 2.387 13.128 4.509 25.062 6.1 33.813.796 4.244 1.326 7.691 1.724 10.21.132 1.194.398 2.122.398 2.785.132.53.132.796.132.928zm54.892-127.3s-.398-.663-1.193-1.856c-.663-1.194-1.592-3.05-2.785-5.304-2.254-4.509-5.039-11.006-7.293-18.432-2.387-7.425-3.845-14.32-4.64-19.227-.399-2.52-.664-4.508-.796-5.967-.133-1.458-.266-2.254-.133-2.254 0 0 .133.796.398 2.122.265 1.458.53 3.447 1.06 5.967.929 5.038 2.52 11.801 4.907 19.094 2.387 7.293 5.038 13.79 7.16 18.431 1.06 2.255 1.99 4.111 2.52 5.437.53 1.193.795 1.989.795 1.989zm85.665 59.932s-.265-.132-.795-.265c-.53-.265-1.194-.663-2.122-1.193-1.856-1.061-4.376-2.52-7.558-4.376a3236.045 3236.045 0 01-24.796-15.116 1889.275 1889.275 0 01-24.531-15.382c-3.05-1.989-5.57-3.58-7.426-4.774-.796-.53-1.459-.928-1.989-1.326-.398-.265-.663-.53-.663-.53l.796.398c.53.265 1.193.663 2.121 1.193 1.857 1.061 4.376 2.652 7.558 4.509 6.365 3.978 15.117 9.282 24.664 15.116 18.564 11.669 31.691 19.89 34.741 21.746zm-34.215-225.815l-75.317-50.123-3.978-12.464 81.947 56.09z"/><path fill="#ffbe9d" d="M1246.827 687.75l-5.171 24.664-30.896 28.376 2.387 19.757 41.371-23.868c9.547-5.569 13.393-18.166 17.105-28.509l3.978-18.298"/><path fill="#1e2150" d="M1362.72 612.965c.398-.663 1.194-.928 1.99-1.061.795-.133 1.458-.133 2.254-.265 2.519-.398 4.773-2.52 5.436-5.039a6.314 6.314 0 011.857 4.508c0 1.724-.929 3.315-2.122 4.376.928.265 1.989 0 2.652-.795-.53 2.784-2.785 5.038-5.57 5.569-2.784.53-5.701-.796-7.027-3.183"/><path fill="#df2c2c" d="M1363.518 616.41c0-.663 0-1.458-.132-2.121-.133-.53-.133-1.061-.398-1.459-.265-.398-.53-.795-1.06-1.06-.531-.133-1.062-.133-1.46.265a1.02 1.02 0 00-.132 1.326l-.133 1.06c.133.663-.265 1.592 0 2.255.266.663.53 1.06 1.194 1.326.53.265 1.193.132 1.591-.266.398-.265.398-.795.53-1.326z"/><path fill="#1e2150" d="M1239.541 563.5c.928 3.182-.663 6.497-2.387 9.282s-3.58 5.834-3.447 9.15c.265 5.834 6.895 10.077 6.762 15.911 0 3.183-1.989 6.1-1.856 9.15.132 3.05 2.254 5.569 4.64 7.425 2.388 1.857 4.907 3.448 9.15 3.448z"/><path fill="#1e2150" d="M1291.115 562.044c-1.06-4.906-4.508-7.956-7.425-8.487-2.918-.53-6.1-.397-8.752-1.59-2.387-1.062-4.376-3.05-6.497-4.51-5.304-3.712-12.73-4.242-18.564-1.325-5.835 2.917-9.945 9.017-10.21 15.514-.266 4.376 1.458 9.15 5.303 11.271 4.509 2.52 9.945.663 14.72-1.326 4.773-1.989 10.077-3.978 14.718-1.989 2.784 1.193 4.773 3.845 6.762 6.1 1.99 2.386 4.509 5.701 7.426 5.038 8.884-1.989 4.376-11.934 3.58-15.116z"/><path fill="#ffbe9d" d="M1278.79 561.649c2.652-.266 4.906 1.59 5.304 4.11l9.945 66.963c1.459 7.824-9.812 10.608-18.166 12.067l-.133-.796c-8.486 1.459-8.884 1.99-10.342-5.436-2.652-12.465-3.448-17.106-3.448-16.973 0 0-11.006.265-15.912-13.26-2.387-6.763-4.243-18.166-5.437-27.581-1.06-8.486 2.52-19.89 11.006-20.553z"/><path fill="#0e151d" d="M1244.577 588.036c.132.928 1.06 1.591 2.121 1.459 1.061-.133 1.724-1.061 1.592-1.99-.133-.928-1.061-1.59-2.122-1.458-1.06.132-1.724 1.06-1.591 1.989zm-.527-1.989c.265.133 1.458-1.06 3.315-1.458 1.856-.398 3.58.265 3.713 0 .132-.133-.266-.53-.929-.796-.663-.265-1.856-.53-3.05-.398a5.57 5.57 0 00-2.651 1.459c-.398.663-.53 1.06-.398 1.193zm19.491-.671c.133.928 1.061 1.591 2.122 1.459 1.06-.133 1.724-1.061 1.591-1.99-.132-.928-1.06-1.59-2.121-1.458-1.061.133-1.857 1.06-1.592 1.989zm-.531-2.649c.265.133 1.458-1.06 3.315-1.458 1.856-.398 3.58.265 3.713 0 .132-.133-.266-.53-.929-.796-.663-.265-1.856-.53-3.05-.398a5.57 5.57 0 00-2.651 1.459c-.398.663-.53 1.06-.398 1.193zm-4.249 15.65c0-.132-1.193-.132-3.182 0-.53 0-.928 0-1.193-.265-.133-.398-.133-.928 0-1.459l.795-3.978c1.061-5.701 1.591-10.342 1.459-10.475-.265 0-1.194 4.508-2.254 10.343-.266 1.458-.398 2.784-.663 3.978-.133.53-.266 1.326.132 1.989.265.398.663.53.928.53h.796c1.989-.265 3.182-.53 3.182-.663z"/><path fill="#eb996e" d="M1261.81 621.449s9.547-1.193 17.768-8.619c0 0-2.652 10.475-16.972 11.801zm-1.327-18.569c.53-1.061 1.591-1.724 2.917-1.857.796-.132 1.724.133 2.387.796.663.53.928 1.591.53 2.254-.397.796-1.458 1.193-2.386 1.06-.929-.132-1.857-.53-2.785-1.06-.265-.133-.53-.265-.663-.53-.132-.133-.265-.398 0-.663z"/><path fill="#0e151d" d="M1264.727 598.64c-.266 0 .132 2.122-1.459 3.978-1.459 1.856-3.845 1.989-3.713 2.254 0 .133.53.265 1.459.133.928-.133 2.254-.663 3.182-1.857.929-1.06 1.194-2.386 1.061-3.315-.133-.795-.398-1.193-.53-1.193zm-3.175-19.091c.265.53 2.122-.133 4.508-.266 2.255-.265 4.244.133 4.509-.397.132-.266-.265-.663-1.194-1.061-.795-.398-2.121-.663-3.447-.53-1.326.132-2.652.53-3.315 1.06-.928.398-1.194.928-1.061 1.194zm-17.908.795c.397.398 1.723-.398 3.315-.663 1.59-.398 3.05-.265 3.182-.796.133-.265-.265-.663-.928-.928s-1.724-.398-2.785-.265c-1.06.265-1.989.796-2.387 1.326-.53.663-.53 1.06-.397 1.326z"/><path fill="#1e2150" d="M1293.244 569.994c.132-3.315 2.52-10.343-6.365-14.984-3.315-1.723-7.823 1.592-10.343 1.194-10.608-1.724-17.9.398-28.509 1.193-.796 2.387.928 5.039 3.183 6.232 2.254 1.194 4.906 1.194 7.425 1.592 2.52.397 5.171 1.193 6.63 3.315 1.459 2.254 1.193 5.304 2.652 7.558 2.387 3.978 8.752 4.11 11.139 8.088 1.856 3.05.663 6.896.928 10.343.265 3.978 1.989 8.884 5.967 9.945 4.243 1.061 4.906 6.498 4.906 6.498l2.387-1.724c3.713-2.652 6.63-6.365 8.22-10.608 7.029-18.166-8.618-17.106-8.22-28.642zm80.356 11.278c.133-.796.796-1.326 1.459-1.724.663-.398 1.326-.663 2.121-1.06 2.254-1.194 3.713-3.979 3.448-6.498 1.458.663 2.784 1.989 3.182 3.58.53 1.591.265 3.448-.663 4.774.928 0 1.857-.663 2.254-1.591.398 2.784-.928 5.701-3.315 7.027-2.386 1.326-5.701 1.061-7.823-.663"/><path fill="#df2c2c" d="M1375.454 584.185l-.796-1.989c-.265-.397-.53-.928-.928-1.193-.398-.398-.796-.663-1.326-.663s-1.06.265-1.326.663c-.265.398-.133 1.06.265 1.326l.265 1.06c.398.531.266 1.592.796 2.122.398.53.796.796 1.591.796.53 0 1.194-.265 1.459-.796.265-.265.132-.795 0-1.326z"/><path fill="#1e2150" d="M1372.798 583.656c-.663-1.59-2.784-1.856-4.376-1.856-2.386.133-4.906.663-6.895 2.122-1.193.795-2.254 1.989-2.917 3.182-.796-1.06-2.254-1.459-3.713-1.591-2.387-.265-5.039 0-7.16 1.06-1.459.664-2.785 1.724-3.58 3.183-.796-1.06-2.387-1.459-3.713-1.591-2.387-.265-5.039 0-7.16 1.06-1.592.796-2.918 1.857-3.713 3.316-.53-1.326-1.99-2.122-3.315-2.652-2.387-.796-4.907-1.061-7.293-.53a10.11 10.11 0 00-4.244 2.253c-.132-.795-.53-1.59-1.06-2.254-1.061-1.193-2.52-1.856-3.978-2.254-3.713-1.06-8.089-.796-10.741 1.856v.796c2.122 4.11 6.895 6.63 11.536 6.1 1.591-.133 3.183-.796 3.978-2.255 2.917 3.448 8.089 4.774 12.2 3.183 1.325-.53 2.519-1.459 2.917-2.652 3.58 2.917 9.016 3.182 12.862.663.928-.663 1.856-1.724 2.121-2.785 3.58 2.52 8.752 2.652 12.332.265.928-.663 1.724-1.59 2.122-2.519 3.978 1.989 9.15 1.459 12.464-1.459.928-1.326 1.99-3.182 1.326-4.64zm-14.849 28.378c-2.254-.53-4.774-.663-6.895.132-1.194.398-2.255 1.061-3.183 1.857-.265-1.326-1.724-2.255-3.05-2.785a13.527 13.527 0 00-6.895-1.06c-1.458.265-2.784.795-3.978 1.723-.398-1.06-1.458-1.989-2.52-2.52-1.988-1.193-4.375-1.988-6.63-1.856-1.59 0-3.182.53-4.508 1.459-.132-1.193-.928-2.254-1.723-3.182-1.592-1.724-3.58-3.05-5.967-3.58-1.592-.398-3.315-.398-4.907.132 0-1.193-.795-2.52-1.723-3.448-1.592-1.723-3.58-3.05-5.967-3.58-2.255-.53-4.774-.265-6.763 1.06l.796-.264c.663 4.508 4.64 8.486 9.149 8.884 1.326.133 2.785-.133 3.58-.928 1.061 4.11 4.774 7.425 8.884 7.823 1.326.133 2.918-.132 3.846-1.193 2.121 3.713 6.63 5.967 10.873 5.171 1.193-.265 2.387-.795 3.05-1.591 2.652 3.182 7.16 4.774 11.138 3.448.796-.266 1.724-.663 2.254-1.326 3.05 3.05 8.089 3.978 11.934 1.989 1.459-.663 2.785-2.122 2.52-3.713 0-1.326-1.724-2.254-3.315-2.652z"/><path fill="#0e151d" d="M1251.205 557.265c3.808 0 6.895-.06 6.895-.132 0-.074-3.087-.133-6.895-.133-3.808 0-6.895.06-6.895.133 0 .073 3.087.132 6.895.132z"/><path fill="#1e2150" d="M1312.727 573.312s0 .265-.132.795c-.133.53-.398 1.194-.928 1.99-.53.795-1.326 1.59-2.52 2.254-1.193.663-2.784.928-4.508.795-1.724-.265-3.448-1.193-4.774-2.652-1.458-1.326-2.784-3.05-4.773-3.845-1.99-.796-4.244-.663-6.63-.133-2.255.53-4.774 1.326-7.426 1.194a7.129 7.129 0 01-3.713-1.061c-1.06-.796-1.856-1.857-2.387-2.917-1.06-2.255-1.59-4.509-2.917-6.1-1.326-1.724-3.315-2.52-5.171-2.917-1.857-.398-3.713-.398-5.304-.663-1.724-.133-3.183-.53-4.376-1.061-1.193-.53-2.122-1.193-2.785-1.989a3.87 3.87 0 01-1.06-1.856c-.133-.53-.133-.796-.133-.796.133 0 .133 1.06 1.459 2.387.663.663 1.59 1.326 2.784 1.856 1.194.53 2.652.796 4.376.928 1.591.133 3.448.133 5.437.53 1.856.399 4.11 1.194 5.569 3.05 1.458 1.857 1.989 4.111 3.05 6.233.53 1.06 1.193 1.989 2.254 2.652.928.663 2.121.928 3.447 1.06 2.52.133 4.907-.662 7.16-1.193 2.388-.53 4.774-.795 7.029.133 2.121.928 3.447 2.652 4.906 3.978 1.326 1.326 2.917 2.387 4.508 2.52 1.591.264 3.05 0 4.243-.664a5.827 5.827 0 002.52-2.121c.53-1.326.663-2.387.795-2.387zm-80.085 26.391c0-.133.398.795 1.724 1.193.663.265 1.458.265 2.387 0 .928-.265 1.723-1.06 2.254-2.122.53-1.06.795-2.386.398-3.845-.266-1.459-1.061-2.785-1.99-4.11-.928-1.327-2.121-2.52-3.314-3.979-1.194-1.458-2.255-3.05-2.785-4.906-.53-1.989-.265-3.978.53-5.702.663-1.723 1.724-3.182 2.785-4.508 2.122-2.52 4.11-4.774 5.967-6.497a93.877 93.877 0 014.376-4.111c1.06-.928 1.724-1.326 1.724-1.326l-1.592 1.591c-1.06.928-2.519 2.387-4.243 4.243-1.724 1.857-3.713 3.978-5.834 6.63-1.061 1.326-1.99 2.652-2.652 4.376-.663 1.591-.928 3.448-.53 5.172.53 1.723 1.59 3.315 2.651 4.64 1.194 1.327 2.387 2.653 3.315 3.979.929 1.326 1.724 2.917 1.99 4.375.265 1.459 0 3.05-.531 4.111-.663 1.193-1.591 1.989-2.652 2.254-1.06.265-1.99.133-2.652-.132-.663-.266-1.06-.663-1.326-.929v-.397zm85.125 23.334c0 .132-1.326-.796-3.448-2.254-.53-.398-1.06-.796-1.723-1.194-.663-.398-1.326-.928-2.122-1.06-1.591-.398-3.448-.266-5.304.53-.928.265-1.989.265-3.05.265-2.52-.133-4.773-1.06-6.365-2.387-1.723-1.326-2.652-3.05-3.182-4.508a10.972 10.972 0 01-.663-3.713c0-.928.133-1.326.133-1.326.132 0-.266 1.989.928 4.906.53 1.459 1.591 2.917 3.182 4.243 1.591 1.194 3.713 2.122 5.967 2.255.928 0 1.857 0 2.785-.266 1.989-.795 3.978-1.06 5.702-.53.928.265 1.59.796 2.121 1.193.663.398 1.194.796 1.724 1.194 1.06.795 1.856 1.458 2.387 1.856.663.53.928.796.928.796z"/><path fill="#1e2150" d="M1311.938 614.82s-.397.266-1.326.398a25.32 25.32 0 01-3.712.266c-1.592-.133-3.448-.398-5.437-1.194-.928-.398-1.989-1.06-2.52-2.254a2.92 2.92 0 01-.265-1.856c.133-.663.53-1.326 1.061-1.724 1.061-.796 2.52-.796 3.713-.265.53.265 1.06.928 1.06 1.59 0 .399-.132.796-.53.929-.265.265-.663.265-.928.265-2.121.133-4.11-.53-5.436-1.326-1.326-.796-2.255-1.856-2.785-2.52-.53-.795-.663-1.193-.663-1.193.133-.132.928 1.857 3.58 3.315 1.326.796 3.183 1.326 5.172 1.194.53 0 .795-.265.795-.663a.997.997 0 00-.663-.928c-.928-.398-2.121-.398-2.917.265-.928.663-1.06 1.856-.53 2.652.397.928 1.326 1.59 2.254 1.989a17.482 17.482 0 005.171 1.326c2.917.132 4.774-.398 4.906-.265z"/><path fill="#455a64" d="M1319.357 610.443c-.132 0-.397-1.193-1.193-2.652-.796-1.326-1.724-2.254-1.591-2.387 0-.132 1.193.663 1.989 2.122.795 1.591.928 2.917.795 2.917z"/><path fill="#455a64" d="M1319.233 609.51c0 .133-1.591-.662-3.58-1.06-1.99-.398-3.713-.133-3.713-.265 0-.133 1.724-.53 3.713-.133 2.121.398 3.58 1.326 3.58 1.459zm12.325 5.437c-.133 0 .132-1.592-.929-3.183-.928-1.591-2.519-2.121-2.519-2.254 0 0 .398 0 .928.265s1.326.796 1.857 1.724c.53.796.663 1.724.663 2.387.132.663 0 1.06 0 1.06z"/><path fill="#455a64" d="M1331.558 613.222c0 .133-.796-.265-1.989-.398-1.06-.132-1.989.133-1.989 0 0-.132.796-.53 1.989-.397 1.326.132 1.989.663 1.989.795zm13.662 2.255c-.132 0-.53-1.194-1.723-2.254-1.194-1.061-2.387-1.459-2.387-1.591 0-.133 1.459.132 2.652 1.193 1.326 1.326 1.591 2.652 1.459 2.652z"/><path fill="#455a64" d="M1344.42 614.55c0 .132-.796.132-1.592.265-.928.265-1.591.53-1.591.53-.133-.132.53-.663 1.458-.928 1.061-.132 1.857.133 1.724.133zm14.325-.132c0 .133-.795-.398-1.856-.398-1.06-.132-1.989.133-1.989 0 0-.132.796-.53 1.989-.53 1.06.133 1.856.796 1.856.928zm-15.911-23.202c0 .132-1.193-.53-2.917-.796-1.591-.265-2.917-.133-2.917-.265 0-.133 1.326-.53 3.05-.133 1.724.265 2.917 1.061 2.784 1.194z"/><path fill="#455a64" d="M1341.502 590.946c0 .133-.795.398-1.59 1.061-.796.663-1.194 1.459-1.327 1.326-.132 0 .265-.928 1.06-1.724.93-.663 1.857-.795 1.857-.663zm15.256-1.326s-.133-.53-.663-1.061c-.53-.53-1.459-.928-2.52-1.06-2.254-.134-3.978.795-3.978.662-.132 0 1.591-1.193 4.11-1.06 1.194 0 2.255.53 2.785 1.193.398.795.398 1.326.266 1.326z"/><path fill="#455a64" d="M1356.357 588.43c0 .133-.53.398-1.193.663-.663.398-1.194.663-1.194.53-.132-.132.398-.53 1.061-.928a4.01 4.01 0 011.326-.265zm15.118-2.787s-.265-.265-.928-.53c-.53-.266-1.326-.531-2.387-.664-.928-.132-1.856-.132-2.52-.132-.662 0-1.06-.133-1.06-.265 0 0 .398 0 1.06-.133.664 0 1.592-.133 2.52 0 1.061.133 1.857.398 2.52.796.663.53.928.928.795.928z"/><path fill="#455a64" d="M1369.41 585.641c.296-.42.438-.827.318-.912-.12-.084-.456.188-.751.607s-.437.827-.318.911c.12.085.457-.187.752-.606zm-42.624 7.829s-.397-.399-1.06-.796c-.663-.53-1.724-.929-2.918-1.061-1.193-.133-2.386-.133-3.182 0-.796 0-1.326.132-1.326 0 0 0 .53-.133 1.326-.265.796-.133 1.989-.266 3.315-.133 1.326.133 2.387.663 3.05 1.326.663.53.795.928.795.928z"/><path fill="#455a64" d="M1326.657 592.675c0 .132-.796.132-1.856.53-.929.398-1.592.928-1.724.796-.133-.133.53-.796 1.591-1.194 1.06-.53 1.99-.265 1.99-.132zm-13.927.663c-.133.132-.796-1.724-2.785-3.05-1.856-1.326-3.845-1.459-3.845-1.591 0-.133 1.989-.266 3.978 1.193 2.254 1.459 2.785 3.448 2.652 3.448z"/><path fill="#455a64" d="M1314.194 592.67c0 .133-1.061 0-2.387 0s-2.387.266-2.387.133 1.06-.53 2.387-.663c1.326.133 2.387.398 2.387.53zm-65.774-31.957c0-.133.796.795 2.652 1.193 1.856.53 4.641.398 8.089 0 1.723-.132 3.58-.398 5.569-.398 1.06 0 2.121.133 3.182.53 1.061.399 1.99 1.062 2.652 1.99.265.53.53 1.06.663 1.724.133.53.133 1.06.398 1.723a12.53 12.53 0 001.724 3.183c1.458 1.856 3.713 3.315 6.232 3.713 2.52.397 5.171-.266 7.558.928 1.194.53 2.122 1.591 2.52 2.652.53 1.06.663 2.254.795 3.447.265 2.255.398 4.509 1.591 6.1.53.796 1.459 1.326 2.255 1.591.928.265 1.723.398 2.652.53a12.55 12.55 0 012.386.664c.663.397 1.326.795 1.724 1.458.796 1.194.796 2.52.663 3.448-.132.928-.398 1.724-.53 2.121-.133.53-.265.663-.265.663s.397-.928.663-2.917c.132-.928 0-2.121-.663-3.315-.398-.53-.929-1.06-1.592-1.326-.663-.265-1.458-.53-2.254-.663-.795-.132-1.724-.265-2.652-.53-.928-.265-1.856-.796-2.387-1.724-1.326-1.724-1.458-3.978-1.723-6.232-.133-1.061-.398-2.254-.796-3.315a4.432 4.432 0 00-2.387-2.52c-2.254-1.06-4.906-.53-7.425-.928-2.652-.398-5.04-1.989-6.498-3.978-.795-.928-1.326-2.121-1.724-3.315-.132-.53-.265-1.193-.397-1.724-.133-.53-.266-1.06-.53-1.458-.531-.928-1.46-1.591-2.52-1.857-.928-.397-1.99-.53-3.05-.53-1.989 0-3.845.133-5.57.265-3.447.265-6.231.398-8.088-.265a7.01 7.01 0 01-1.989-.928c-.663.265-.928 0-.928 0z"/><path fill="#455a64" d="M1296.419 582.73s0-.265-.133-.662c-.132-.398-.265-.929-.397-1.724-.53-1.459-1.459-3.448-3.448-5.304-1.989-1.857-5.171-3.315-8.752-3.183-.928 0-1.856.133-2.784-.132-.928-.133-1.857-.796-2.52-1.591-1.326-1.592-1.723-3.713-2.519-5.57-.796-1.989-2.254-3.447-4.11-4.243-1.724-.795-3.713-1.06-5.437-1.06-3.58.132-6.763 1.193-9.547 1.59-2.785.531-5.04.398-6.498 0-1.458-.265-2.254-.795-2.254-.795s.265 0 .53.133c.398.132.929.265 1.724.397 1.459.266 3.713.266 6.498-.132 2.652-.398 5.834-1.459 9.547-1.724 1.856 0 3.845.133 5.702 1.06 1.856.796 3.447 2.388 4.243 4.377.795 1.989 1.193 3.978 2.52 5.436.662.796 1.458 1.326 2.253 1.459.929.265 1.857.132 2.785.132 3.713-.132 6.895 1.459 8.884 3.448 1.99 1.856 3.05 4.11 3.448 5.57.265 1.59.265 2.519.265 2.519z"/><path fill="#df2c2c" d="M1335.676 722.091l-14.188-29.04s5.569-45.216.663-58.21c-4.907-12.996-29.172-10.609-29.172-10.609l-26.123 10.343s-5.834 12.995-9.547 17.503c-3.845 4.509-7.425 24.797-3.05 42.565 1.592 6.232 7.691 12.2 12.465 16.177 3.978 3.182 6.1 8.221 5.834 13.26l-1.06 22.675c-.531 2.784-1.061 9.149 6.63 11.271 9.281 2.652 29.834-4.641 37.923-12.332 13.127-12.73 15.382-12.73 15.382-12.73 11.536-2.917 4.243-10.873 4.243-10.873z"/><path fill="#df2c2c" d="M1265.526 635.77s-11.138 8.619-13.79 16.84c-1.724 5.437-11.006 36.598-11.006 36.598l17.37 2.254z"/><path fill="#0e151d" d="M1256.641 699.282s-.398-.53-.928-1.459c-.53-.928-1.193-2.386-1.856-4.243-1.326-3.713-2.122-9.282-1.724-15.381.398-6.1 1.724-11.404 2.652-15.25.53-1.856.928-3.447 1.326-4.508.265-1.06.53-1.591.53-1.591s-.132.663-.265 1.724c-.265 1.193-.663 2.784-1.06 4.508-.93 3.846-2.122 9.15-2.52 15.117-.398 5.967.398 11.403 1.59 15.116 1.062 3.713 2.388 5.834 2.255 5.967zm15.91-5.702c0 .133-.928-.265-2.386-.928-.663-.398-1.592-.795-2.387-1.591-.796-.663-1.459-1.724-2.122-2.785-1.06-2.254-1.326-4.508-1.458-5.967-.133-1.59-.266-2.519-.133-2.519s.398.928.663 2.52c.265 1.59.53 3.712 1.591 5.834.53 1.06 1.194 1.989 1.857 2.652.795.663 1.458 1.193 2.121 1.591 1.459.663 2.387 1.193 2.254 1.193zm56.756 30.5c.132 0 .53.53.795 1.459.398 1.06.663 2.519.53 4.11-.132 1.591-.662 3.05-1.193 3.978-.53.928-1.06 1.459-1.06 1.326-.133-.132 1.326-2.254 1.59-5.436.399-2.918-.795-5.304-.662-5.437zm-10.214-2.255c0-.133 1.06.265 2.386 1.193s3.05 2.652 4.244 4.906c1.193 2.255 1.458 4.641 1.326 6.365-.133 1.724-.398 2.652-.53 2.652-.133 0 .132-1.06 0-2.652 0-1.591-.399-3.845-1.46-5.967-1.06-2.121-2.651-3.845-3.845-4.773-1.326-1.194-2.254-1.592-2.121-1.724z"/><path fill="#fafafa" d="M1287.269 643.328s-.266.398-.929 1.193c-.663.663-1.59 1.724-2.917 2.785-2.652 2.121-6.895 4.64-12.199 5.702-5.171 1.06-10.078.397-13.393-.53-1.723-.531-2.917-1.062-3.845-1.46-.928-.397-1.326-.662-1.326-.795s1.989.796 5.304 1.724c3.315.795 8.089 1.326 13.127.398 5.04-1.061 9.282-3.316 11.934-5.305 2.785-2.254 4.111-3.845 4.244-3.712zm-35.001 31.293c0 .133-1.724.398-3.713 0-1.989-.53-3.315-1.591-3.315-1.724.133-.132 1.591.53 3.448 1.061 1.989.53 3.58.53 3.58.663zm11.936 6.896c-.133.132-2.387-1.06-5.57-1.591-3.182-.53-5.701-.133-5.834-.398 0-.133 2.652-.796 5.967-.265 3.182.663 5.437 2.121 5.437 2.254zm13.258 4.239c0 .132-2.785 1.06-6.232.53-3.58-.53-5.967-2.254-5.835-2.387.133-.132 2.52 1.194 5.967 1.724 3.315.398 5.967-.133 6.1.133zm-6.629 20.818c0 .133-1.989.796-4.64.53-2.52-.265-4.51-1.06-4.377-1.193 0-.132 1.99.398 4.509.53 2.52.266 4.508 0 4.508.133zm52.377-20.683c.132.133-2.388 2.652-6.498 4.111-4.11 1.459-7.691 1.193-7.558 1.06 0-.264 3.447-.264 7.293-1.723 3.978-1.459 6.63-3.713 6.762-3.448zm-1.988 40.579l-1.459 1.459c-1.06.928-2.519 2.121-4.508 3.58-3.845 2.917-9.68 6.365-16.84 8.619-3.58 1.06-7.028 1.724-10.21 1.856-3.183.133-6.1 0-8.487-.398-2.387-.397-4.243-.928-5.569-1.458-1.326-.398-1.989-.663-1.989-.796 0 0 .796.133 1.989.53 1.326.398 3.182.796 5.57 1.194 4.773.796 11.535.53 18.563-1.591 7.028-2.122 12.73-5.57 16.708-8.354 1.989-1.326 3.58-2.52 4.64-3.448.929-.795 1.592-1.193 1.592-1.193zm5.103-.791c1.084-.178 1.934-.498 1.898-.715-.035-.217-.943-.249-2.027-.07-1.084.177-1.934.497-1.898.714.036.217.943.248 2.027.07zm10.412-.007c-.133.133-1.326-.53-3.05-.398-1.591 0-2.917.663-2.917.53-.133-.132 1.06-1.193 2.917-1.193 1.99-.132 3.183.929 3.05 1.061zm-24.53-13.664c.132.133-2.255 1.857-5.702 2.918-3.448 1.06-6.365 1.06-6.365.928 0-.265 2.785-.53 6.1-1.591 3.447-.929 5.967-2.387 5.967-2.255z"/><path fill="#df2c2c" d="M1219.12 763.327l-45.88 178.347 12.067 3.846 46.542-191.74zm153.811-33.145s12.332 4.11 21.88-7.293c9.547-11.404 2.386-28.642 2.386-28.642l2.652-6.497s48.93 17.636 54.764 22.41c1.459 1.193 2.122 3.977.796 7.558-4.509 12.066-19.227 52.774-26.653 52.774-9.017 0-60.996-31.691-60.996-31.691z"/><path fill="#455a64" d="M1266.72 633.51c-.397.265-1.193.928-1.988 2.122-2.387 3.315-3.978 10.342-4.11 20.95-.399 29.703 107.007 82.478 107.007 82.478l5.172-8.752s-79.162-43.89-101.174-67.493c-5.171-5.57-7.956-12.863-7.426-20.42 0-.399 0-.664.133-1.062.53-4.508 2.52-6.895 2.52-6.895z"/><path fill="#0e151d" d="M1398.926 690.13h.266c.265 0 .53.133.928.265.795.265 1.989.53 3.447 1.061 3.05.928 7.293 2.254 12.597 4.11 2.652.929 5.57 1.857 8.62 3.05.795.266 1.59.53 2.386.929.796.397 1.459 1.06 1.99 1.723.53.663 1.06 1.592 1.193 2.52.132.928.132 1.989-.133 2.917-.53 1.856-1.326 3.58-1.989 5.304-.663 1.856-1.459 3.58-2.254 5.57-1.459 3.712-3.05 7.557-4.641 11.535-1.591 3.978-2.917 7.956-5.172 11.404-1.06 1.724-2.519 3.315-4.243 4.376-1.724 1.06-3.845 1.458-5.702 1.193-1.856-.132-3.712-.795-5.304-1.326-1.59-.53-3.315-1.193-4.773-1.724-3.05-1.06-5.967-2.121-8.62-3.05-5.17-1.856-9.414-3.447-12.464-4.508-1.458-.53-2.519-.928-3.315-1.326a6.465 6.465 0 01-.928-.398c-.132-.132-.265-.132-.265-.132s.133 0 .265.132c.265.133.53.133.928.266.796.265 1.99.663 3.448 1.193 3.05 1.06 7.293 2.52 12.597 4.376 2.652.928 5.57 1.989 8.619 3.05 1.591.53 3.182 1.06 4.774 1.723 1.59.53 3.315 1.194 5.171 1.326 1.856.266 3.713-.132 5.304-1.06 1.591-.929 2.917-2.387 3.978-4.111 2.122-3.315 3.448-7.426 5.039-11.271 1.591-3.978 3.182-7.823 4.64-11.536.796-1.857 1.46-3.713 2.255-5.57.663-1.856 1.459-3.58 1.989-5.303.265-.796.398-1.724.133-2.52-.133-.795-.53-1.591-1.061-2.254a6.978 6.978 0 00-1.857-1.591c-.663-.398-1.458-.663-2.254-.928-3.05-1.194-5.967-2.122-8.619-3.05-5.304-1.857-9.547-3.315-12.597-4.243-1.458-.53-2.652-.796-3.447-1.194-.53-.795-1.061-.928-.929-.928z"/><path fill="#0e151d" d="M1454.482 710.42s0 .133-.133.265c-.132.265-.265.53-.398.928a46.827 46.827 0 00-1.458 3.315 296.279 296.279 0 00-5.304 12.465c-2.122 5.304-4.774 11.536-7.558 18.564-1.459 3.447-2.918 7.16-4.641 10.873-.929 1.856-1.724 3.713-2.918 5.57a9.29 9.29 0 01-1.06 1.325c-.53.398-1.061.53-1.724.663-1.194.133-2.254-.132-3.315-.398-4.243-1.193-8.089-3.05-11.934-4.64-3.713-1.592-7.426-3.316-10.873-4.907-6.896-3.182-12.863-6.365-17.901-9.017-5.04-2.652-9.017-5.038-11.802-6.63-1.326-.795-2.387-1.458-3.182-1.856-.265-.265-.53-.398-.796-.53-.132-.133-.265-.133-.265-.133s.133 0 .265.133l.796.397c.795.398 1.856 1.061 3.182 1.857 2.785 1.591 6.895 3.845 11.934 6.497a389.026 389.026 0 0018.034 8.884c3.447 1.592 7.028 3.183 10.873 4.907 3.845 1.59 7.69 3.447 11.801 4.64 1.061.266 2.122.398 3.05.398.53 0 .928-.132 1.326-.53s.663-.663.928-1.193c1.194-1.724 2.122-3.58 2.918-5.437 1.723-3.713 3.182-7.426 4.64-10.873 2.918-7.028 5.437-13.26 7.691-18.564 2.255-5.304 4.111-9.415 5.57-12.332.663-1.459 1.193-2.52 1.59-3.315.133-.398.266-.663.399-.796l.265-.53z"/><path fill="#ffbe9d" d="M1264.6 634.042s.265 14.586 5.702 11.934c5.436-2.652 22.807-21.746 22.807-21.746l-18.697 2.652z"/><path fill="#e0e0e0" d="M1173.059 1049.085c.14-.17-2.817-2.835-6.605-5.954-3.787-3.12-6.97-5.51-7.11-5.34-.14.169 2.817 2.835 6.604 5.954 3.788 3.119 6.971 5.51 7.11 5.34zm5.117-10.825c.044-.215-3.817-1.187-8.624-2.17-4.807-.982-8.74-1.604-8.783-1.39-.044.216 3.817 1.187 8.624 2.17 4.807.983 8.74 1.605 8.783 1.39zm-10.276-9.569c4.72-1.344 8.497-2.604 8.437-2.816-.06-.211-3.935.707-8.654 2.051-4.72 1.344-8.496 2.605-8.436 2.816.06.211 3.934-.707 8.654-2.05zm-21.661 4.465c.029-.218-3.89-.923-8.754-1.574-4.863-.65-8.83-1.002-8.859-.784-.029.217 3.89.922 8.754 1.573 4.863.651 8.83 1.002 8.859.785zm15.837-11.508c2.415-4.272 4.218-7.822 4.026-7.93-.19-.108-2.304 3.267-4.719 7.538-2.415 4.271-4.217 7.821-4.026 7.93.191.108 2.304-3.267 4.719-7.538zm-13.562 7.592c.147-.165-2.704-2.945-6.366-6.21-3.662-3.265-6.75-5.78-6.896-5.616-.146.164 2.704 2.944 6.366 6.21 3.663 3.265 6.75 5.78 6.896 5.615zm-7.084 13.698c4.423-2.126 7.931-4.01 7.836-4.208-.095-.198-3.758 1.365-8.18 3.49-4.422 2.126-7.93 4.01-7.835 4.208.095.198 3.757-1.365 8.18-3.49zm6.251 5.363c2.944-3.925 5.188-7.214 5.012-7.346-.175-.131-2.704 2.944-5.648 6.869-2.944 3.925-5.188 7.214-5.013 7.346.176.132 2.705-2.943 5.65-6.869zm9.943 10.26c.218-.03-.142-3.995-.804-8.857-.661-4.862-1.374-8.78-1.591-8.75-.218.03.142 3.995.803 8.857.661 4.862 1.374 8.78 1.592 8.75zm-5.168-31.035c.218-.03-.142-3.995-.803-8.857-.662-4.862-1.374-8.78-1.592-8.75-.218.03.142 3.996.803 8.858.662 4.862 1.374 8.779 1.592 8.75z"/><path fill="#455a64" d="M1153.342 1044.305a9.812 9.812 0 009.813-9.813c0-5.419-4.393-9.812-9.813-9.812-5.419 0-9.812 4.393-9.812 9.812 0 5.42 4.393 9.813 9.812 9.813z"/><path fill="#0e151d" d="M1183.315 1035.158c0 16.575-13.392 29.967-29.967 29.967s-29.968-13.392-29.968-29.967 13.393-29.968 29.968-29.968 29.967 13.525 29.967 29.968zm-7.558-.663c0-12.465-10.078-22.41-22.41-22.41-12.464 0-22.409 9.945-22.409 22.41 0 12.464 10.078 22.41 22.41 22.41 12.331 0 22.409-9.946 22.409-22.41z"/><path fill="#0e151d" d="M1152.948 1017.26l-3.978 14.453c-.663 2.52.795 5.04 3.315 5.835 2.52.663 5.039-.796 5.834-3.183l4.243-14.453zm77.043-256.183l1.856-7.823s-41.106-10.608-52.907 12.199l1.459 1.326s5.436-6.63 20.95-6.365c15.515.133 19.095 3.713 19.095 3.713z"/><path d="M1219.12 763.327l-45.88 178.347 12.067 3.846 46.542-191.74z" opacity=".4"/><path fill="#e0e0e0" d="M1403.452 1049.12c.14-.169-2.818-2.835-6.605-5.954-3.787-3.12-6.97-5.51-7.11-5.34-.14.169 2.817 2.835 6.604 5.954 3.788 3.12 6.971 5.51 7.11 5.34zm5.103-10.785c.044-.216-3.817-1.187-8.624-2.17-4.807-.982-8.74-1.605-8.783-1.39-.044.216 3.817 1.187 8.624 2.17 4.807.983 8.74 1.605 8.783 1.39zm-10.215-9.563c4.719-1.343 8.495-2.604 8.435-2.815-.06-.212-3.934.706-8.653 2.05-4.718 1.344-8.495 2.605-8.435 2.816.06.212 3.935-.707 8.653-2.05zm-21.714 4.442c.029-.218-3.89-.923-8.754-1.574-4.863-.65-8.83-1.002-8.858-.784-.03.217 3.89.922 8.753 1.573 4.863.651 8.83 1.002 8.859.785zm15.84-11.532c2.415-4.271 4.218-7.821 4.026-7.93-.19-.108-2.304 3.267-4.719 7.538-2.415 4.272-4.217 7.822-4.026 7.93.191.108 2.304-3.267 4.719-7.538zm-13.56 7.578c.146-.163-2.704-2.943-6.366-6.209-3.663-3.265-6.75-5.78-6.896-5.615-.146.164 2.704 2.944 6.366 6.21 3.662 3.264 6.75 5.779 6.896 5.615zm-6.987 13.663c4.422-2.126 7.93-4.01 7.835-4.208-.096-.198-3.758 1.365-8.18 3.49-4.422 2.127-7.93 4.01-7.835 4.209.095.198 3.757-1.365 8.18-3.491zm6.259 5.489c2.944-3.925 5.188-7.214 5.012-7.346-.175-.132-2.704 2.944-5.648 6.869-2.944 3.925-5.189 7.214-5.013 7.346.176.132 2.705-2.943 5.649-6.869zm9.916 10.271c.217-.03-.142-3.995-.804-8.857-.661-4.862-1.374-8.779-1.591-8.75-.218.03.142 3.996.803 8.858s1.374 8.779 1.592 8.75zm-5.184-31.167c.217-.03-.142-3.995-.804-8.856-.661-4.862-1.374-8.78-1.592-8.75-.217.03.142 3.995.804 8.857.661 4.862 1.374 8.78 1.592 8.75z"/><path fill="#455a64" d="M1383.802 1044.445a9.812 9.812 0 009.813-9.813c0-5.419-4.393-9.812-9.813-9.812-5.419 0-9.812 4.393-9.812 9.812 0 5.42 4.393 9.813 9.812 9.813z"/><path fill="#0e151d" d="M1413.775 1035.288c0 16.575-13.393 29.967-29.967 29.967-16.575 0-29.968-13.392-29.968-29.967s13.393-29.968 29.968-29.968 29.967 13.393 29.967 29.968zm-7.558-.796c0-12.464-10.078-22.41-22.41-22.41-12.464 0-22.409 9.946-22.409 22.41s10.078 22.41 22.41 22.41c12.331 0 22.409-9.946 22.409-22.41z"/><path fill="#df2c2c" d="M1194.72 1028.528c0 2.255 1.856 4.111 4.11 4.111h153.286s5.967-27.05 31.692-27.316c17.768-.132 25.989 11.537 29.437 18.564 1.193 2.387 4.243 3.05 6.365 1.326 1.458-1.193 1.856-3.315.928-5.038-3.448-6.498-14.056-22.675-36.73-22.675-29.968.133-38.454 27.846-38.454 27.846l-146.523-.928c-2.255 0-4.111 1.856-4.111 4.11z"/><path fill="#0e151d" d="M1222.562 1045.104h159.783a6.225 6.225 0 006.232-6.232 6.225 6.225 0 00-6.232-6.232H1200.02l3.978 4.243c4.774 5.304 11.536 8.221 18.564 8.221z"/><path fill="#df2c2c" d="M1137.836 1004.926c-1.06-1.59-.53-3.712 1.194-4.64 5.304-2.785 16.84-7.028 31.028-1.194 15.249 6.232 22.41 22.41 21.879 35.935-.133 1.856-1.591 3.182-3.448 3.182-1.724 0-3.182-1.326-3.315-3.05-.663-7.028-3.713-24.266-19.36-29.702-11.536-3.978-20.154-1.459-24 .398-1.326.928-3.05.397-3.978-.929z"/><path d="M1137.836 1004.926c-1.06-1.59-.53-3.712 1.194-4.64 5.304-2.785 16.84-7.028 31.028-1.194 15.249 6.232 22.41 22.41 21.879 35.935-.133 1.856-1.591 3.182-3.448 3.182-1.724 0-3.182-1.326-3.315-3.05-.663-7.028-3.713-24.266-19.36-29.702-11.536-3.978-20.154-1.459-24 .398-1.326.928-3.05.397-3.978-.929z" opacity=".4"/><path fill="#df2c2c" d="M1149.24 1021.102l14.851 4.11 9.68-33.017c.398-1.326 1.989-1.591 2.785-.53l28.906 35.271h20.819l-45.615-56.885 6.365-27.58-14.453-3.581z"/><path fill="#0e151d" d="M1345.356 1025.345c0 .133-32.885.133-73.593-.132-40.576-.265-73.593-.663-73.593-.796s32.885-.132 73.593.133c40.708.265 73.593.663 73.593.795zm191.071-56.622l-.397.398c-.266.265-.663.663-1.326 1.193-1.194 1.061-3.183 2.255-6.1 3.05a15.552 15.552 0 01-10.74-.928c-3.846-1.856-7.426-5.834-8.62-11.271-.265-1.326-.397-2.785-.265-4.11.133-1.46.398-2.918.928-4.244a18.295 18.295 0 015.304-7.425c2.387-1.99 5.437-3.58 8.752-4.376 3.315-.796 6.895-.929 10.343-.266 7.028 1.326 13.923 5.702 17.768 12.597 3.713 6.763 4.376 15.647.928 23.205-1.723 3.713-4.375 7.028-7.425 9.548-3.05 2.52-6.498 4.508-10.078 5.967-7.16 2.917-14.586 4.243-21.614 4.906-14.055 1.326-26.917.132-37.393-1.857-10.475-1.989-18.696-4.906-24.266-7.027-5.569-2.255-8.486-3.846-8.486-3.846s.133 0 .53.265c.398.133.929.398 1.592.663 1.458.663 3.58 1.46 6.364 2.652 5.57 2.122 13.79 4.907 24.266 6.763a133.413 133.413 0 0037.26 1.724c7.029-.53 14.322-1.99 21.482-4.906 3.448-1.459 6.895-3.448 9.945-5.967a27.672 27.672 0 007.293-9.282c3.315-7.293 2.785-16.045-.928-22.675-3.713-6.63-10.476-11.006-17.238-12.2a23.39 23.39 0 00-10.078.266c-3.182.796-6.1 2.254-8.486 4.243-2.387 1.99-4.243 4.509-5.172 7.16-.53 1.327-.795 2.785-.928 4.111-.132 1.326 0 2.785.265 3.978 1.061 5.172 4.509 9.15 8.222 11.006 3.845 1.856 7.69 1.724 10.475 1.06 2.917-.662 4.906-1.988 6.1-2.916 1.193-.796 1.723-1.459 1.723-1.459zm22.411 33.687s-.266.265-.796.53c-.663.398-1.459.796-2.52 1.459-.53.265-1.193.663-1.856 1.06-.663.399-1.458.664-2.254 1.062-1.591.795-3.448 1.723-5.57 2.519-1.06.398-2.12.796-3.314 1.326-1.194.398-2.387.796-3.713 1.193-2.52.929-5.304 1.592-8.221 2.255-5.835 1.326-12.332 2.386-19.227 2.784-6.895.265-13.525-.132-19.492-.795-2.918-.53-5.835-.796-8.354-1.459a172.87 172.87 0 01-3.713-.796c-1.193-.397-2.387-.663-3.448-.928-2.254-.53-4.11-1.326-5.834-1.856l-2.387-.796-1.989-.795a35.35 35.35 0 00-2.652-1.194c-.663-.265-.928-.398-.928-.398s.398.133.928.266c.663.265 1.591.663 2.652 1.06.53.266 1.194.53 1.99.796.662.265 1.458.53 2.386.796 1.724.53 3.58 1.326 5.834 1.856 1.061.265 2.255.663 3.448.928s2.387.53 3.713.796c2.52.663 5.436.928 8.354 1.458 5.967.663 12.464 1.061 19.36.796 6.894-.398 13.392-1.326 19.094-2.652 2.917-.796 5.701-1.326 8.088-2.254 1.194-.398 2.52-.796 3.58-1.194a92.07 92.07 0 003.315-1.193c2.122-.796 3.978-1.724 5.57-2.387.795-.398 1.59-.663 2.254-1.06.663-.398 1.326-.664 1.856-.929 1.061-.53 1.99-.928 2.652-1.326.928-.795 1.194-.928 1.194-.928z"/><path fill="#ffbe9d" d="M1222.829 751.267l58.477-16.178c9.547-5.569 16.84-14.32 20.553-24.663l16.972-47.206c1.326-3.05 2.52-5.967 2.785-7.558 1.193-5.437 1.326-16.442-1.989-21.216-1.724-2.52-4.11-5.702-8.884-6.63-7.824-1.591-16.575.398-21.747 13.79l-17.9 66.3-50.256 26.918z"/><path fill="#df2c2c" d="M1279.978 667.198c-.663-.397 5.702-5.967 10.475-7.69 2.917-1.061 17.106-3.713 22.41 2.519 6.364 7.69 1.856 15.249 1.856 15.249s1.193-.663 2.917-3.845c2.652-4.907 5.57-16.178 5.57-16.178s4.508-26.52-8.487-30.1c-12.995-3.58-20.686.398-22.41 3.58-1.723 3.183-12.331 36.465-12.331 36.465z"/><path fill="#0e151d" d="M1312.334 681.908s.265-.795.928-1.989c.663-1.326 1.591-3.182 2.254-5.701.663-2.387 1.06-5.702-.398-8.752-1.458-3.05-4.64-5.304-8.354-6.497-1.856-.53-3.712-.663-5.569-.663-1.856-.133-3.58 0-5.304.132a30.128 30.128 0 00-8.619 2.387c-2.387 1.06-3.978 2.387-4.906 3.448-.928 1.06-1.193 1.856-1.326 1.856 0 0 0-.133.265-.53.133-.398.398-.796.928-1.459.796-1.193 2.52-2.652 4.907-3.713 2.386-1.06 5.304-2.121 8.751-2.652 1.724-.265 3.58-.265 5.437-.265 1.856.133 3.845.133 5.834.796 3.846 1.193 7.16 3.58 8.752 6.895 1.458 3.315 1.06 6.63.265 9.15-.796 2.519-1.856 4.375-2.52 5.568-.397.663-.662 1.061-.795 1.459l-.53.53zm-27.788-29.571c2.01-6.123 3.47-11.142 3.261-11.211-.209-.069-2.007 4.84-4.017 10.962-2.01 6.123-3.47 11.143-3.262 11.211.209.069 2.007-4.84 4.018-10.962zm24.211-25.857c0 .133-1.193-.397-3.182-.662-1.99-.266-4.774-.266-7.691.928-2.917 1.06-5.039 2.917-6.365 4.508-1.326 1.459-1.856 2.652-1.989 2.652 0 0 .398-1.193 1.591-2.917 1.194-1.591 3.448-3.713 6.498-4.774 3.05-1.193 5.967-1.06 7.956-.663 2.121.266 3.182.929 3.182.929zm13.343 32.001c1.127-8.568 1.863-15.537 1.645-15.565-.218-.029-1.307 6.894-2.433 15.462s-1.862 15.537-1.645 15.565c.218.03 1.308-6.893 2.434-15.462z"/><path fill="#ffbe9d" d="M1196.844 744.495a4.273 4.273 0 00-1.857 5.304l5.304 13.658c.928 1.459 2.785 1.989 4.376 1.326 3.978-1.724 8.619-3.05 9.945-5.57.928-1.988-1.459-2.916-1.459-2.916l-8.884.928-1.06-8.354 7.823-2.785s1.06 5.702 3.845 7.426c3.846 2.387 12.597-3.315 12.597-3.315l-5.304-15.647-14.453 3.448z"/><path fill="#ffbe9d" d="M1213.809 747.281s-2.255 11.669-1.459 13.525c.53 1.459 5.039 1.99 5.304-1.59.663-7.427 2.387-5.57 5.039-5.968 2.652-.398 5.436-3.845 3.58-6.63-2.917-4.243-12.464.663-12.464.663z"/><path fill="#eb996e" d="M1204.4 757.226c0-.133.928-.265 2.387-.53.795-.133 1.724-.266 2.652-.398 1.06-.133 2.121-.266 3.315-.133.265 0 .663.133.928.398s.53.53.663.795c.265.663.265 1.194.133 1.724-.133.53-.266 1.06-.663 1.459-.266.398-.796.663-1.061.795-1.326.796-2.254 1.061-2.254.929 0-.133.795-.53 1.989-1.326.265-.266.663-.398.795-.796.265-.265.398-.796.398-1.193.133-.929-.133-1.99-1.193-2.122-1.061-.133-2.122 0-3.183.133-.928.132-1.856.132-2.652.132-1.326.133-2.254.133-2.254.133zm-.267.27c-.265 0-.397-1.989-1.06-4.11-.663-2.254-1.724-3.846-1.592-3.978.133-.133 1.459 1.458 2.255 3.845.795 2.254.53 4.243.397 4.243z"/><path fill="#455a64" d="M1210.014 757.115a5.57 5.57 0 10-4.57-10.158 5.57 5.57 0 004.57 10.158z"/><path fill="#fafafa" d="M1322.413 645.045c-.133 0-.928-2.255-2.785-5.702-.928-1.724-2.121-3.713-3.978-5.304-1.856-1.724-4.508-2.917-7.293-3.183-2.917-.397-5.701 0-8.088.796-2.387.663-4.509 1.724-6.232 2.652-1.724.928-3.05 1.724-3.978 2.387-.929.53-1.459.928-1.459.795 0 0 .398-.397 1.326-1.06s2.122-1.592 3.845-2.52c1.724-.928 3.713-1.989 6.233-2.784 2.519-.796 5.436-1.194 8.353-.796 3.05.398 5.702 1.591 7.691 3.448 1.99 1.723 3.183 3.845 3.978 5.569.928 1.724 1.459 3.182 1.857 4.243.397.796.53 1.326.53 1.459zm-1.455 15.523c-.133.132-.53-2.387-3.05-5.304-1.194-1.459-3.05-2.918-5.172-4.111-2.254-1.193-4.906-1.856-7.823-2.122-5.834-.53-11.138 1.061-14.719 2.255-1.856.663-3.315 1.193-4.243 1.59-1.06.399-1.591.531-1.591.531s.53-.265 1.459-.795c.928-.398 2.386-1.061 4.243-1.724 3.58-1.326 8.884-3.05 14.984-2.52 2.917.266 5.834 1.061 8.088 2.255 2.254 1.193 4.11 2.784 5.304 4.375 1.194 1.592 1.857 3.05 2.254 3.978.133.53.266.929.398 1.194-.132.265-.132.398-.132.398z"/><path fill="#eb996e" d="M1284.75 712.274s-.265-.266-.795-.663c-.53-.398-1.193-1.194-2.254-1.857-2.254-1.193-5.967-1.724-10.476-1.724h.133c-3.315 1.724-7.028 3.846-11.138 6.233a874.682 874.682 0 00-13.26 7.425c-9.415 5.304-18.034 9.68-24.664 12.995-4.376 1.06-7.956 1.857-10.608 2.387-1.193.265-2.122.53-2.917.663-.663.133-1.061.132-1.061.132s.398-.132.928-.265a25.683 25.683 0 002.917-.795c2.52-.663 6.1-1.591 10.476-2.652 6.497-3.448 15.249-7.956 24.53-13.128a874.682 874.682 0 0113.26-7.425c4.111-2.255 7.957-4.376 11.14-6.1 4.508.133 8.353.663 10.607 1.989 1.061.663 1.724 1.459 2.254 1.989.663.53.929.796.929.796z"/><path fill="#df2c2c" d="M1042.889 1006.25c3.05.53 5.702 2.387 7.426 4.906 1.723 2.52 2.652 5.57 3.05 8.487.795 5.834-.929 12.464-3.183 17.9-5.834-2.917-8.884-9.944-10.21-13.524-1.99-5.702-2.254-17.371 2.917-17.769zm15.253 39.251c-1.591-3.05-1.194-6.895.663-9.68 1.856-2.784 5.039-4.64 8.486-5.304 1.591-.265 3.315-.265 4.509.796 1.06.928 1.458 2.652 1.06 4.11-.265 1.46-1.193 2.653-2.254 3.713-3.315 3.58-7.425 6.498-12.464 6.365z"/><path fill="#0e151d" d="M1056.549 1064.46s-.133-.397-.133-1.193c0-.795-.132-1.989-.265-3.315-.133-2.784-.53-6.762.663-10.873 1.06-4.243 3.182-7.558 5.171-9.547 1.061-.928 1.99-1.724 2.652-2.122.266-.265.663-.397.796-.397.133-.133.265-.133.265-.133 0 .133-1.591.796-3.447 2.785-1.99 1.989-3.978 5.304-5.04 9.414-1.06 4.11-.795 7.956-.795 10.74 0 1.46.133 2.52.133 3.316.132.928.132 1.326 0 1.326z"/><path fill="#0e151d" d="M1043.82 1015.14s.133.133.133.53c.132.398.265.796.53 1.459.398 1.193.928 3.05 1.591 5.304 1.326 4.508 3.05 10.74 4.906 17.768 1.724 6.896 3.315 13.26 4.244 17.901.53 2.254.928 4.11 1.193 5.437.133.663.265 1.06.265 1.459 0 .397.133.53.133.53s-.133-.133-.133-.53c-.132-.398-.265-.929-.398-1.46-.265-1.325-.795-3.181-1.326-5.436-1.06-4.508-2.652-10.873-4.375-17.768-1.724-6.895-3.448-13.26-4.774-17.768-.663-2.255-1.06-3.978-1.459-5.304a10.757 10.757 0 00-.397-1.459c0-.53-.133-.663-.133-.663z"/><path fill="#df2c2c" d="M1050.844 1051.068c-2.917-6.63-9.149-11.536-16.177-12.995-1.856-.397-3.978-.265-5.039 1.194-1.06 1.591-.132 3.58.929 5.039 4.508 6.232 12.994 9.149 20.287 7.16"/><path fill="#0e151d" d="M1036.79 1043.38s.398 0 1.193.133c.398.132.796.132 1.326.265.53.132 1.061.265 1.724.53l1.99.796c.662.265 1.458.663 2.253 1.193 1.459.928 3.05 1.99 4.509 3.448 1.458 1.458 2.652 2.917 3.58 4.508.398.796.796 1.459 1.193 2.122.398.663.663 1.326.796 1.989.265.663.398 1.193.53 1.724.133.53.266.928.266 1.326a5.83 5.83 0 01.132 1.193c-.132 0-.398-1.591-1.326-3.978-.265-.663-.53-1.326-.928-1.989-.265-.663-.796-1.459-1.193-2.122-.929-1.458-2.122-2.917-3.448-4.375-1.459-1.326-2.917-2.52-4.376-3.448-.795-.398-1.458-.796-2.121-1.193a6.253 6.253 0 00-1.99-.796c-2.519-.928-4.11-1.326-4.11-1.326z"/></svg>