<svg width="358" height="653" fill="none" xmlns="http://www.w3.org/2000/svg"><path d="M313.086 307.432c9.134-39.029 26.216-170.609 38.376-200.09 38.06-92.275 92.166-132.507 121.52-91.028 19.238 27.184-1.62 333.826 0 367.088 3.523 72.332 32.195 110.897 28.56 183.223-1.183 23.54-21.163 62.361-28.56 65.574-50.929 22.124-164.564 0-231.94 0-51.403 0-192.646 34.966-218.469 14.164-25.823-20.802 9.803-66.885 65.276-97.555C143.32 518.138 194.5 504 249 458c43.179-36.444 56.195-116.855 64.086-150.568z" fill="url(#paint0_linear)"/><path d="M362.101 101.652c17.904-13.791 38.955 6.586 60.242-2.296 13.884-5.793 15.671-18.824 30.446-22.42 14.272-3.475 24.694-1.992 37.814 4.8 28.875 14.95-16.117 59.688 11.025 77.276 21.133 13.693 48.536-18.599 65.155-.295 20.296 22.353-19.8 41.733-41.032 62.276-29.961 28.988-54.52 58.645-97.489 49.369-44.944-9.703-49.447-51.537-66.66-91.428-8.532-19.772-21.733-32.117-15.914-52.371 3.181-11.075 6.97-17.637 16.413-24.911z" fill="#B39E9E" fill-opacity=".15"/><g clip-path="url(#clip0)"><path d="M136.786 381.881c.41-2.941-3.694-5.335-6.84-5.609-1.505-.137-3.01.137-4.446-.41-3.01-1.026-4.241-4.994-7.182-6.225-2.189-.957-4.788-.068-6.909.958-2.12 1.094-4.24 2.462-6.703 2.599-2.12.137-4.377-.616-6.156.41-1.368.753-2.052 2.326-3.351 3.284-1.231.889-2.805 1.094-4.378 1.162-1.505.069-3.078.069-4.514.753-1.368.615-2.531 2.12-2.258 3.625l52.737-.547zm4.878-83.468c.41-2.941-3.694-5.335-6.84-5.609-1.505-.136-3.01.137-4.446-.41-3.01-1.026-4.241-4.993-7.182-6.224-2.189-.958-4.788-.069-6.909.957-2.12 1.095-4.24 2.463-6.703 2.599-2.12.137-4.377-.615-6.156.411-1.368.752-2.052 2.325-3.351 3.283-1.232.889-2.805 1.094-4.378 1.163-1.505.068-3.078.068-4.514.752-1.368.616-2.531 2.121-2.258 3.625l52.737-.547z" fill="#EBEBEB"/><path d="M206.405 323.169c.547-3.899-4.993-7.113-9.097-7.455-1.984-.137-4.036.136-5.883-.479-4.035-1.437-5.677-6.635-9.644-8.345-2.941-1.231-6.361-.137-9.234 1.3-2.873 1.436-5.677 3.283-8.892 3.488-2.804.205-5.814-.821-8.276.479-1.847 1.026-2.736 3.078-4.446 4.309-1.642 1.231-3.762 1.436-5.814 1.573s-4.104.137-6.02.958c-1.846.821-3.351 2.804-3.009 4.788l70.315-.616z" fill="#F5F5F5"/><path d="M316.282 399.065c.41-2.941-3.694-5.335-6.84-5.609-1.505-.136-3.01.137-4.446-.41-3.01-1.026-4.241-4.993-7.182-6.224-2.189-.958-4.788-.069-6.909.957-2.12 1.095-4.241 2.463-6.703 2.599-2.12.137-4.378-.615-6.156.411-1.368.752-2.052 2.325-3.352 3.283-1.231.889-2.804 1.094-4.377 1.163-1.505.068-3.078.068-4.515.752-1.368.616-2.53 2.121-2.257 3.625l52.737-.547z" fill="#EBEBEB"/><path d="M327.773 568.629c0 .068-68.332.205-152.532.205-84.27 0-152.532-.068-152.532-.205 0-.137 68.263-.205 152.532-.205s152.532.068 152.532.205zM78.728 400.57c-.068-.068 1.71-.205 3.9-1.642 1.094-.684 2.188-1.778 3.146-3.146.889-1.368 1.573-3.078 1.71-4.993v-.137l.205.205c-1.915.274-3.557 1.368-4.651 2.599-1.163 1.163-1.984 2.463-2.6 3.489-.615 1.094-1.094 1.983-1.368 2.599-.273.616-.478.958-.478.958s.068-.342.342-1.026c.273-.616.684-1.574 1.23-2.668.616-1.094 1.369-2.394 2.6-3.625 1.163-1.231 2.804-2.394 4.856-2.736l.274-.069v.411c-.137 1.915-.82 3.693-1.778 5.13-.958 1.436-2.12 2.462-3.284 3.146-1.094.684-2.188 1.026-2.872 1.231-.342.069-.684.137-.821.137-.274.137-.41.137-.41.137z" fill="#E0E0E0"/><path d="M78.728 400.57c-.068-.068 1.095-1.573 2.668-3.283 1.573-1.779 2.873-3.147 2.941-3.078.068.068-1.094 1.573-2.668 3.283-1.504 1.778-2.804 3.146-2.94 3.078z" fill="#E0E0E0"/><path d="M246.924 473.553c-11.902-3.147-22.367-10.944-28.112-21.204-5.814-10.192-6.909-22.709-2.942-33.653 3.078-8.55 9.029-16.074 11.56-24.829 2.873-9.918 1.163-20.383-.616-30.507-1.778-10.123-3.625-20.588-.889-30.506 2.736-9.918 11.218-19.22 22.162-19.973 10.123-.684 19.494 6.361 23.735 14.98 4.24 8.618 4.24 18.536 3.283 27.975-.958 9.44-2.941 18.879-2.326 28.386 1.231 19.221 12.723 37.278 11.355 56.499-.684 9.986-4.857 16.416-11.902 23.94-6.156 6.635-16.348 10.944-25.308 8.892z" fill="#698842"/><path d="M250.481 568.766c-.137 0-.205-42.545-.205-95.008 0-52.463.068-95.008.205-95.008.137 0 .205 42.545.205 95.008 0 52.463-.068 95.008-.205 95.008zm-.547-128.387c-.069 0-.684-.547-1.779-1.573-1.026-.958-2.462-2.394-3.967-3.968-1.505-1.573-2.873-3.009-3.899-4.035-1.026-1.026-1.573-1.71-1.573-1.71.068 0 .684.547 1.778 1.573 1.026.958 2.463 2.394 3.968 3.967 1.504 1.573 2.872 3.01 3.898 4.036 1.026 1.026 1.642 1.71 1.574 1.71z" fill="#E0E0E0"/><path d="M282.766 560.831h-63.544v7.729h63.544v-7.729zM251.097 400.57c-.069-.068 1.71-.205 3.898-1.642 1.095-.684 2.189-1.778 3.147-3.146.889-1.368 1.573-3.078 1.71-4.993v-.137l.205.205c-1.915.274-3.557 1.368-4.651 2.599-1.163 1.163-1.984 2.463-2.599 3.489-.616 1.094-1.095 1.983-1.368 2.599-.274.616-.479.958-.479.958s.068-.342.342-1.026c.273-.616.684-1.574 1.231-2.668.616-1.094 1.368-2.394 2.599-3.625 1.163-1.231 2.805-2.394 4.857-2.736l.273-.069v.411c-.137 1.915-.821 3.693-1.778 5.13-.958 1.436-2.121 2.462-3.283 3.146-1.095.684-2.189 1.026-2.873 1.231-.342.069-.684.137-.821.137-.342.137-.41.137-.41.137z" fill="#E0E0E0"/><path d="M251.097 400.57c-.069-.068 1.094-1.573 2.667-3.283 1.573-1.779 2.873-3.147 2.941-3.078.069.068-1.094 1.573-2.667 3.283-1.573 1.778-2.873 3.146-2.941 3.078z" fill="#E0E0E0"/><path d="M328.662 610.011c0 .068-69.631.205-155.542.205-85.91 0-155.541-.068-155.541-.205 0-.137 69.631-.205 155.541-.205 85.911.068 155.542.136 155.542.205z" fill="#0E151D"/><path d="M152.327 568.218l3.42 14.57s-13.612 8.344-13.27 11.08l28.455-5.608-4.378-22.846-14.227 2.804z" fill="#455A64"/><path opacity=".6" d="M164.297 579.778c.547.068 1.094.616 1.094 1.163s-.547 1.094-1.162 1.094c-.548 0-1.232-.684-1.095-1.231.069-.547.753-1.163 1.3-.958m6.498 8.414l-.411-2.258-27.155 6.225s-1.162.821-.82 1.641l28.386-5.608z" fill="#fff"/><path d="M155.268 582.651c0 .137.753.068 1.505.41.752.274 1.231.821 1.368.753.137-.069-.274-.821-1.163-1.232-.957-.342-1.778 0-1.71.069zm-2.736 1.847c0 .136.616.273 1.231.752.616.479.821 1.094.958 1.026.137 0 .068-.821-.684-1.436-.684-.548-1.505-.479-1.505-.342zm-1.026 3.898c.137 0 .205-.752-.342-1.436-.479-.684-1.231-.889-1.231-.752-.069.136.479.478.821 1.026.478.615.615 1.162.752 1.162zm3.352-9.097c.068.137.684-.205 1.504-.273.821-.137 1.437 0 1.505-.137.069-.137-.615-.547-1.573-.411-.958.137-1.505.684-1.436.821zm-.616-2.941c0 .068.547.068 1.436-.274.411-.136.89-.41 1.368-.752.274-.205.479-.342.753-.616.137-.136.273-.205.342-.41.137-.205.137-.547-.069-.752-.205-.206-.478-.206-.684-.206-.205.069-.342.137-.547.206a5.095 5.095 0 00-.821.478 6.041 6.041 0 00-1.162 1.095c-.548.752-.684 1.299-.616 1.299.068 0 .274-.478.889-1.094.274-.342.684-.684 1.163-.958.205-.136.479-.273.752-.41.274-.137.548-.205.616-.068.068.068.068.068 0 .136-.068.069-.137.206-.274.274-.205.205-.41.41-.684.547-.478.342-.889.616-1.299.821-.684.479-1.231.616-1.163.684z" fill="#0E151D"/><path d="M154.447 576.495c.069 0 .206-.547.137-1.437a4.752 4.752 0 00-.479-1.504c-.136-.274-.342-.548-.547-.821-.205-.274-.479-.616-1.026-.547-.273.068-.479.342-.547.547-.069.205-.068.41-.068.547 0 .342.068.684.205.958.205.615.547 1.026.889 1.368.684.615 1.3.684 1.3.615 0-.068-.479-.273-1.095-.889-.273-.274-.547-.752-.684-1.231-.068-.274-.137-.547-.137-.821 0-.342.069-.547.137-.547.137 0 .411.137.616.342.205.205.342.479.479.684.273.479.478.957.547 1.368.205.821.205 1.368.273 1.368z" fill="#0E151D"/><path d="M228.456 538.806l13.612 6.156s-1.71 15.869.752 17.306l12.859-25.992-20.793-10.466-6.43 12.996z" fill="#455A64"/><path opacity=".6" d="M244.94 536.344a1.244 1.244 0 011.574-.137c.478.342.547 1.095.136 1.573-.41.411-1.231.548-1.641.137-.411-.41-.479-1.299 0-1.641m10.67 0l-2.052-1.026-11.628 25.308s-.068 1.436.821 1.71l12.859-25.992z" fill="#fff"/><path d="M241.726 545.304c.137.069.479-.547 1.231-.957.684-.411 1.436-.479 1.436-.616s-.82-.342-1.71.205c-.82.479-1.094 1.3-.957 1.368zm-.205 3.284c.136.068.615-.342 1.368-.548.752-.205 1.368 0 1.436-.136.068-.137-.616-.548-1.573-.342-.958.205-1.368.957-1.231 1.026zm2.462 3.146c.068-.068-.479-.616-1.3-.616-.889 0-1.436.411-1.368.548.069.136.616-.069 1.368-.069.684 0 1.232.274 1.3.137zm-5.199-8.208c.137 0 .274-.684.684-1.368.411-.684.89-1.163.821-1.231-.068-.137-.821.205-1.231 1.026-.479.821-.41 1.573-.274 1.573zm-2.735-1.3c.068 0 .41-.41.615-1.299.137-.411.205-.958.274-1.573v-.958c0-.137 0-.342-.137-.547-.068-.205-.342-.479-.616-.411-.273 0-.478.206-.547.411-.068.205-.137.342-.205.547-.068.342-.137.616-.137.958 0 .615.069 1.162.205 1.573.274.889.616 1.299.684 1.299.069-.068-.205-.547-.342-1.368-.068-.41-.136-.957-.068-1.504 0-.274.068-.548.137-.89.068-.342.205-.547.342-.547.068 0 .068 0 .137.069.068.068.068.273.068.41.068.274.068.616.068.889 0 .547-.068 1.095-.136 1.505-.206.889-.411 1.436-.342 1.436z" fill="#0E151D"/><path d="M236.322 542.158c.068-.068-.274-.479-1.094-.958a6.384 6.384 0 00-1.505-.547c-.274-.068-.616-.068-.958-.068-.342 0-.752.068-1.094.479-.137.273-.069.547.068.752a.912.912 0 00.411.342c.273.205.547.342.889.41a3.473 3.473 0 001.641.137c.958-.205 1.368-.615 1.3-.684-.068-.068-.479.274-1.368.342-.41 0-.889 0-1.436-.205-.274-.068-.479-.205-.753-.41-.273-.206-.41-.411-.342-.479.069-.137.411-.274.684-.274h.889a4.418 4.418 0 011.437.411c.752.478 1.163.82 1.231.752z" fill="#0E151D"/><path d="M160.945 464.045l20.588 50.001c2.463 5.95 7.114 10.67 13.065 13.132l37.346 15.801 10.123-15.937-36.867-19.836-14.638-44.05c2.326-8.618-.957-12.38-2.736-20.657l-26.881 21.546z" fill="#0E151D"/><path d="M162.04 443.046l17.989-6.908s17.921 7.456 8.139 27.907l-26.128 57.388 8.139 47.469c.069.548-.342 1.095-.889 1.163l-18.878 1.573c-.479.069-.89-.273-1.026-.684l-13.133-46.99c-.547-2.805-.411-5.678.479-8.345l20.109-66.006 5.199-6.567z" fill="#0E151D"/><path d="M184.475 438.942s.068 0 .205.137c.137.069.273.205.547.411.479.41 1.094 1.026 1.847 1.846.752.89 1.505 1.984 2.257 3.42.752 1.437 1.505 3.147 1.778 5.199.274 2.052.137 4.309-.273 6.635-.205 1.162-.547 2.394-.889 3.556-.342 1.232-.958 2.394-1.505 3.626-2.189 4.856-4.651 10.26-7.182 15.868-5.13 11.218-9.781 21.41-13.133 28.728-1.71 3.626-3.078 6.635-4.036 8.687-.478 1.026-.82 1.779-1.094 2.326-.137.273-.205.479-.274.615a.859.859 0 01-.136.206s0-.069.068-.206c.068-.136.137-.342.274-.615.273-.547.615-1.368 1.026-2.394.957-2.052 2.257-5.062 3.898-8.755 3.352-7.388 7.935-17.579 13.065-28.797a1547.803 1547.803 0 017.25-15.8c.547-1.231 1.163-2.394 1.505-3.557.41-1.231.684-2.394.958-3.557.41-2.325.615-4.514.342-6.566-.206-1.984-.958-3.694-1.642-5.13a22.928 22.928 0 00-2.189-3.42c-.684-.889-1.299-1.505-1.778-1.915-.205-.206-.411-.342-.479-.479-.41 0-.479-.069-.41-.069zm-22.435 83.517s-.206.068-.548.137a21.03 21.03 0 01-1.504.205c-1.3.068-3.078-.069-4.925-.753a12.898 12.898 0 01-4.241-2.599 6.94 6.94 0 01-1.026-1.094c-.205-.274-.342-.479-.274-.479.069-.068.548.547 1.505 1.368a14.582 14.582 0 004.173 2.462 13.51 13.51 0 004.788.89c1.299 0 2.052-.206 2.052-.137zm-.274-.958c0 .069-1.847-.41-4.036-1.231-2.188-.821-3.83-1.71-3.83-1.778.068-.069 1.778.615 3.967 1.436s3.967 1.505 3.899 1.573zm43.844-14.022s-.205.479-.82 1.163c-.616.616-1.574 1.436-2.805 1.915a9.45 9.45 0 01-3.351.616c-.89-.069-1.368-.205-1.368-.274 0-.068.547 0 1.368 0 .82 0 2.052-.205 3.214-.684 1.163-.479 2.121-1.163 2.736-1.778.684-.547.958-.958 1.026-.958z" fill="#455A64"/><path d="M181.944 456.316s-.274.137-.684.41c-.479.206-1.163.479-2.12.753-1.779.547-4.446.889-7.319.273-2.873-.547-5.199-1.915-6.635-3.078-.752-.615-1.3-1.094-1.642-1.504-.342-.411-.547-.616-.478-.616.068-.068.82.821 2.325 1.984 1.505 1.094 3.762 2.394 6.567 2.941 2.804.547 5.403.273 7.182-.205 1.71-.479 2.804-1.026 2.804-.958zm22.777 51.232s-.137.068-.479.205a8.494 8.494 0 01-1.368.41c-1.162.274-2.872.479-4.719.342-1.847-.205-3.489-.684-4.515-1.231-.547-.274-.957-.479-1.231-.684-.273-.205-.41-.274-.41-.342s.684.342 1.778.752c1.095.411 2.668.89 4.515 1.095 1.778.137 3.42 0 4.582-.205 1.163-.206 1.847-.411 1.847-.342zm-50.958 9.712v-.136c0-.137.069-.274.137-.479.137-.411.274-1.026.479-1.71.41-1.505 1.026-3.625 1.778-6.293 1.505-5.335 3.694-12.654 6.225-20.725 2.53-8.071 4.924-15.322 6.771-20.589a353.593 353.593 0 012.189-6.224c.274-.684.479-1.231.616-1.71.068-.205.136-.342.136-.41.069-.069.069-.137.069-.137v.137c-.069.136-.069.273-.137.41-.137.41-.342.958-.547 1.71a300.212 300.212 0 01-2.052 6.224c-1.71 5.267-4.104 12.518-6.635 20.589-2.531 8.071-4.72 15.39-6.293 20.725-.752 2.599-1.436 4.788-1.847 6.293-.205.684-.41 1.299-.547 1.71-.068.205-.137.342-.137.41-.136.205-.205.205-.205.205zm9.097 52.737s-.068-.137-.136-.479c-.069-.342-.206-.821-.274-1.436-.274-1.3-.616-3.078-1.026-5.267-.821-4.515-1.984-10.602-3.283-17.374-1.231-6.771-2.326-12.927-3.147-17.442-.41-2.189-.684-3.967-.889-5.267-.068-.615-.205-1.094-.205-1.436-.068-.342-.068-.479-.068-.479s.068.137.136.479c.069.342.206.821.274 1.436.274 1.3.616 3.078 1.026 5.267.821 4.515 1.984 10.602 3.283 17.374 1.231 6.771 2.326 12.927 3.147 17.442.41 2.189.684 3.967.889 5.267.068.615.205 1.094.205 1.436.068.274.068.41.068.479zm28.318-65.664s-.205-.342-.616-.958c-.342-.615-.82-1.573-1.436-2.736-1.163-2.325-2.599-5.677-3.762-9.507a69.697 69.697 0 01-2.394-9.918c-.205-1.3-.342-2.326-.41-3.078-.069-.753-.137-1.163-.069-1.163 0 0 .069.41.205 1.094.137.753.274 1.779.548 3.078.478 2.599 1.299 6.088 2.53 9.85a93.703 93.703 0 003.694 9.507c.547 1.163 1.026 2.121 1.3 2.805.273.615.41 1.026.41 1.026zm44.186 30.917s-.136-.069-.41-.137c-.274-.137-.616-.342-1.094-.616a491.202 491.202 0 01-3.899-2.257c-3.283-1.984-7.798-4.72-12.791-7.798a977.889 977.889 0 01-12.654-7.934c-1.573-1.026-2.873-1.847-3.83-2.462-.411-.274-.753-.479-1.026-.684a2.41 2.41 0 01-.342-.274l.41.205c.274.137.616.342 1.094.616.958.547 2.258 1.368 3.899 2.325 3.283 2.052 7.798 4.788 12.723 7.798 9.576 6.019 16.347 10.26 17.92 11.218zm-17.647-116.486l-38.851-25.855-2.052-6.429 42.271 28.933-1.368 3.351z" fill="#455A64"/><path d="M140.22 415.344l-2.668 12.723-15.937 14.637 1.231 10.192 21.341-12.312c4.925-2.873 6.909-9.371 8.824-14.706l2.052-9.439" fill="#FFBE9D"/><path d="M200.002 376.767c.205-.342.615-.479 1.026-.547.41-.069.752-.069 1.162-.137 1.3-.205 2.463-1.3 2.805-2.599.615.615.957 1.436.957 2.325 0 .889-.478 1.71-1.094 2.257.479.137 1.026 0 1.368-.41a3.655 3.655 0 01-2.873 2.873c-1.436.273-2.941-.411-3.625-1.642" fill="#1E2150"/><path d="M200.412 378.545c0-.342 0-.752-.068-1.094-.069-.274-.069-.547-.205-.753-.137-.205-.274-.41-.548-.547-.273-.068-.547-.068-.752.137a.526.526 0 00-.068.684l-.069.547c.069.342-.137.821 0 1.163.137.342.274.547.616.684a.728.728 0 00.821-.137c.205-.137.205-.41.273-.684z" fill="#DF2C2C"/><path d="M136.458 351.254c.479 1.641-.342 3.351-1.231 4.788-.889 1.436-1.847 3.009-1.778 4.719.136 3.01 3.556 5.199 3.488 8.208 0 1.642-1.026 3.147-.958 4.72.069 1.573 1.163 2.873 2.394 3.83 1.232.958 2.531 1.779 4.72 1.779l-6.635-28.044z" fill="#1E2150"/><path d="M163.066 350.501c-.548-2.531-2.326-4.104-3.831-4.377-1.505-.274-3.146-.206-4.514-.821-1.231-.547-2.257-1.573-3.352-2.326-2.736-1.915-6.566-2.189-9.576-.684-3.009 1.505-5.13 4.651-5.267 8.003-.136 2.257.753 4.72 2.736 5.814 2.326 1.3 5.13.342 7.593-.684 2.462-1.026 5.198-2.052 7.592-1.026 1.437.616 2.463 1.984 3.489 3.146 1.026 1.232 2.325 2.942 3.83 2.6 4.583-1.026 2.257-6.156 1.847-7.798l-.547-1.847z" fill="#1E2150"/><path d="M156.705 350.296a2.508 2.508 0 012.736 2.12l5.13 34.542c.752 4.036-5.062 5.472-9.371 6.225l-.069-.411c-4.377.753-4.582 1.026-5.335-2.804-1.368-6.43-1.778-8.824-1.778-8.755 0 0-5.677.137-8.208-6.84-1.231-3.489-2.189-9.371-2.805-14.227-.547-4.378 1.3-10.26 5.678-10.602l14.022.752z" fill="#FFBE9D"/><path d="M139.058 363.908c.068.478.547.82 1.094.752.547-.068.889-.547.821-1.026-.069-.479-.547-.821-1.095-.752-.547.068-.889.547-.82 1.026zm-.274-1.026c.137.068.752-.548 1.71-.753.958-.205 1.847.137 1.915 0 .069-.068-.137-.273-.479-.41a3.499 3.499 0 00-1.573-.205 2.868 2.868 0 00-1.368.752c-.205.342-.273.547-.205.616zm10.055-.342c.068.478.547.82 1.094.752.547-.068.889-.547.821-1.026-.068-.479-.547-.821-1.094-.752-.548.068-.958.547-.821 1.026zm-.274-1.368c.137.068.753-.548 1.71-.753.958-.205 1.847.137 1.915 0 .069-.068-.136-.273-.478-.41a3.503 3.503 0 00-1.574-.205 2.868 2.868 0 00-1.368.752c-.205.342-.273.547-.205.616zm-2.189 8.071c0-.069-.615-.069-1.641 0-.274 0-.479 0-.616-.137-.068-.205-.068-.479 0-.752l.411-2.052c.547-2.942.82-5.336.752-5.404-.137 0-.616 2.326-1.163 5.335-.137.753-.205 1.437-.342 2.052-.068.274-.137.684.069 1.026a.593.593 0 00.478.274h.411c1.026-.137 1.641-.274 1.641-.342z" fill="#0E151D"/><path d="M147.949 381.144s4.925-.615 9.166-4.446c0 0-1.368 5.404-8.755 6.088l-.411-1.642zm-.683-9.576c.273-.547.82-.889 1.504-.957.411-.069.889.068 1.231.41.342.274.479.821.274 1.163-.205.41-.752.616-1.231.547-.479-.068-.958-.273-1.436-.547-.137-.068-.274-.137-.342-.274-.069-.068-.137-.205 0-.342z" fill="#EB996E"/><path d="M149.454 369.38c-.137 0 .069 1.094-.752 2.052-.753.957-1.984 1.026-1.915 1.162 0 .069.273.137.752.069a2.61 2.61 0 001.642-.958c.478-.547.615-1.231.547-1.71-.069-.41-.205-.615-.274-.615zm-1.641-9.85c.136.274 1.094-.068 2.325-.137 1.163-.137 2.189.069 2.326-.205.068-.137-.137-.342-.616-.547-.41-.205-1.094-.342-1.778-.274-.684.069-1.368.274-1.71.547-.479.206-.616.479-.547.616zm-9.234.41c.205.206.889-.205 1.71-.342.821-.205 1.573-.136 1.641-.41.069-.137-.136-.342-.478-.479-.342-.137-.89-.205-1.437-.137-.547.137-1.026.411-1.231.684-.274.342-.274.548-.205.684z" fill="#0E151D"/><path d="M164.16 354.605c.069-1.71 1.3-5.335-3.283-7.729-1.71-.889-4.036.821-5.335.616-5.472-.89-9.234.205-14.706.615-.411 1.231.479 2.599 1.641 3.215 1.163.616 2.531.616 3.831.821 1.299.205 2.667.615 3.42 1.71.752 1.163.615 2.736 1.368 3.899 1.231 2.052 4.514 2.12 5.745 4.172.958 1.573.342 3.557.479 5.335.137 2.052 1.026 4.583 3.078 5.13 2.189.547 2.531 3.352 2.531 3.352l1.231-.889c1.915-1.368 3.42-3.284 4.241-5.472 3.625-9.371-4.446-8.824-4.241-14.775zm41.451 5.814c.068-.41.41-.684.752-.889.342-.205.684-.342 1.094-.547 1.163-.616 1.916-2.052 1.779-3.352.752.342 1.436 1.026 1.641 1.847.274.821.137 1.778-.342 2.462.479 0 .958-.342 1.163-.82.205 1.436-.479 2.941-1.71 3.625-1.231.684-2.941.547-4.035-.342" fill="#1E2150"/><path d="M206.568 361.924l-.41-1.026c-.137-.205-.274-.479-.479-.616-.205-.205-.41-.342-.684-.342-.274 0-.547.137-.684.342-.137.206-.068.548.137.684l.137.548c.205.273.136.82.41 1.094.205.274.41.41.821.41.273 0 .615-.136.752-.41.137-.137.069-.41 0-.684z" fill="#DF2C2C"/><path d="M205.2 361.65c-.342-.82-1.436-.957-2.257-.957-1.231.068-2.531.342-3.557 1.094a4.92 4.92 0 00-1.505 1.642c-.41-.547-1.163-.753-1.915-.821-1.231-.137-2.599 0-3.694.547-.752.342-1.436.889-1.846 1.642-.411-.547-1.231-.753-1.915-.821-1.232-.137-2.6 0-3.694.547-.821.411-1.505.958-1.915 1.71-.274-.684-1.026-1.094-1.71-1.368-1.231-.41-2.531-.547-3.762-.273a5.216 5.216 0 00-2.189 1.162c-.068-.41-.274-.82-.547-1.162-.547-.616-1.3-.958-2.052-1.163-1.915-.547-4.173-.411-5.541.957v.411c1.095 2.12 3.557 3.42 5.951 3.146.821-.068 1.642-.41 2.052-1.163 1.505 1.779 4.173 2.463 6.293 1.642.684-.274 1.299-.752 1.505-1.368 1.846 1.505 4.651 1.642 6.635.342.478-.342.957-.889 1.094-1.436 1.847 1.299 4.514 1.368 6.361.136.479-.342.889-.82 1.094-1.299 2.052 1.026 4.72.752 6.43-.753.479-.684 1.026-1.641.684-2.394zm-7.661 14.638c-1.162-.274-2.462-.342-3.556.068a4.958 4.958 0 00-1.642.958c-.137-.684-.889-1.163-1.573-1.436a6.987 6.987 0 00-3.557-.548c-.752.137-1.436.411-2.052.89-.205-.548-.752-1.026-1.3-1.3-1.026-.616-2.257-1.026-3.42-.958-.82 0-1.641.274-2.325.753-.069-.616-.479-1.163-.889-1.642-.821-.889-1.847-1.573-3.078-1.847-.821-.205-1.71-.205-2.531.069 0-.616-.411-1.3-.889-1.779-.821-.889-1.847-1.573-3.078-1.846-1.163-.274-2.463-.137-3.489.547l.411-.137c.342 2.326 2.394 4.378 4.719 4.583.684.068 1.437-.069 1.847-.479.547 2.12 2.462 3.83 4.583 4.036.684.068 1.505-.069 1.983-.616 1.095 1.915 3.42 3.078 5.609 2.668.616-.137 1.231-.411 1.573-.821 1.368 1.641 3.694 2.462 5.746 1.778.41-.137.889-.342 1.163-.684 1.573 1.573 4.172 2.052 6.156 1.026.752-.342 1.436-1.094 1.299-1.915 0-.684-.889-1.163-1.71-1.368z" fill="#1E2150"/><path d="M142.477 348.039c1.965 0 3.557-.031 3.557-.069 0-.037-1.592-.068-3.557-.068-1.964 0-3.557.031-3.557.068 0 .038 1.593.069 3.557.069z" fill="#0E151D"/><path d="M174.215 356.315s0 .137-.068.411a3.338 3.338 0 01-.479 1.026c-.274.41-.684.82-1.3 1.162-.615.342-1.436.479-2.325.411-.89-.137-1.779-.616-2.463-1.368-.752-.684-1.436-1.573-2.462-1.984-1.026-.41-2.189-.342-3.42-.068-1.163.273-2.463.684-3.831.615a3.676 3.676 0 01-1.915-.547 4.272 4.272 0 01-1.231-1.505c-.547-1.162-.821-2.325-1.505-3.146-.684-.889-1.71-1.3-2.667-1.505-.958-.205-1.916-.205-2.736-.342a6.813 6.813 0 01-2.258-.547c-.615-.274-1.094-.616-1.436-1.026a1.991 1.991 0 01-.547-.958c-.069-.273-.069-.41-.069-.41.069 0 .069.547.753 1.231.342.342.821.684 1.436.958.616.273 1.368.41 2.257.479.821.068 1.779.068 2.805.273.957.205 2.12.616 2.873 1.573.752.958 1.026 2.121 1.573 3.215.273.547.615 1.026 1.163 1.368.478.342 1.094.479 1.778.547 1.3.069 2.531-.342 3.694-.615 1.231-.274 2.462-.411 3.625.068 1.094.479 1.778 1.368 2.531 2.052.684.684 1.504 1.231 2.325 1.3.821.137 1.573 0 2.189-.342a3.006 3.006 0 001.3-1.095c.273-.684.342-1.231.41-1.231zm-41.314 13.612c0-.069.205.41.89.615.342.137.752.137 1.231 0 .478-.136.889-.547 1.163-1.094.273-.547.41-1.231.205-1.984-.137-.752-.548-1.436-1.026-2.12-.479-.684-1.095-1.3-1.71-2.052-.616-.752-1.163-1.573-1.437-2.531a4.32 4.32 0 01.274-2.941c.342-.889.889-1.642 1.436-2.326 1.095-1.299 2.121-2.462 3.078-3.351.89-.889 1.71-1.642 2.258-2.121.547-.478.889-.684.889-.684l-.821.821c-.547.479-1.3 1.231-2.189 2.189s-1.915 2.052-3.009 3.42c-.548.684-1.027 1.368-1.369 2.257-.342.821-.478 1.779-.273 2.668.273.889.821 1.71 1.368 2.394.615.684 1.231 1.368 1.71 2.052.479.684.889 1.505 1.026 2.257.137.752 0 1.573-.274 2.12-.342.616-.82 1.026-1.368 1.163a2.233 2.233 0 01-1.368-.068c-.342-.137-.547-.342-.684-.479v-.205zm43.913 12.038c0 .069-.684-.41-1.778-1.163-.274-.205-.548-.41-.89-.615-.342-.205-.684-.479-1.094-.547-.821-.206-1.778-.137-2.736.273-.479.137-1.026.137-1.573.137-1.3-.068-2.463-.547-3.283-1.231-.89-.684-1.368-1.573-1.642-2.326a5.647 5.647 0 01-.342-1.915c0-.479.068-.684.068-.684.069 0-.136 1.026.479 2.531.274.752.821 1.505 1.642 2.189.821.615 1.915 1.094 3.078 1.162.479 0 .957 0 1.436-.136 1.026-.411 2.052-.548 2.941-.274.479.137.821.41 1.095.616.342.205.615.41.889.615.547.411.958.753 1.231.958.342.273.479.41.479.41z" fill="#1E2150"/><path d="M173.805 377.724s-.206.137-.684.206c-.479.068-1.095.136-1.916.136-.82-.068-1.778-.205-2.804-.615-.479-.205-1.026-.547-1.3-1.163a1.507 1.507 0 01-.136-.958c.068-.342.273-.684.547-.889.547-.41 1.299-.41 1.915-.137.274.137.547.479.547.821 0 .205-.068.411-.273.479-.137.137-.342.137-.479.137a5.025 5.025 0 01-2.805-.684c-.684-.411-1.162-.958-1.436-1.3-.274-.41-.342-.615-.342-.615.068-.069.479.957 1.847 1.71.684.41 1.641.684 2.667.615.274 0 .411-.137.411-.342a.516.516 0 00-.342-.479c-.479-.205-1.095-.205-1.505.137a1.004 1.004 0 00-.274 1.368c.206.479.684.821 1.163 1.026a8.988 8.988 0 002.668.684c1.504.069 2.462-.205 2.531-.137z" fill="#1E2150"/><path d="M177.635 375.467c-.069 0-.205-.615-.616-1.368-.41-.684-.889-1.163-.821-1.231 0-.068.616.342 1.026 1.094.411.821.479 1.505.411 1.505z" fill="#455A64"/><path d="M177.566 374.988c0 .069-.82-.342-1.846-.547-1.026-.205-1.916-.068-1.916-.137 0-.068.89-.273 1.916-.068 1.094.205 1.846.684 1.846.752zm6.362 2.805c-.069 0 .068-.821-.479-1.642-.479-.821-1.3-1.094-1.3-1.163 0 0 .206 0 .479.137.274.137.684.411.958.889.273.411.342.89.342 1.232.068.342 0 .547 0 .547z" fill="#455A64"/><path d="M183.928 376.904c0 .068-.411-.137-1.026-.206-.547-.068-1.026.069-1.026 0 0-.068.41-.273 1.026-.205.684.069 1.026.342 1.026.411zm7.045 1.162c-.068 0-.274-.615-.889-1.162-.616-.548-1.231-.753-1.231-.821 0-.069.752.068 1.368.615.684.684.82 1.368.752 1.368z" fill="#455A64"/><path d="M190.562 377.588c0 .068-.41.068-.82.136a9.379 9.379 0 00-.821.274c-.069-.068.273-.342.752-.479.547-.068.958.069.889.069zm7.388-.069c0 .069-.411-.205-.958-.205-.547-.068-1.026.068-1.026 0s.41-.274 1.026-.274c.547.069.958.411.958.479zm-8.208-11.97c0 .069-.616-.273-1.505-.41-.821-.137-1.505-.069-1.505-.137s.684-.274 1.573-.068c.89.136 1.505.547 1.437.615z" fill="#455A64"/><path d="M189.058 365.412c0 .069-.411.206-.821.548-.41.342-.616.752-.684.684-.068 0 .137-.479.547-.89.479-.342.958-.41.958-.342zm7.866-.684s-.069-.273-.342-.547c-.274-.273-.753-.479-1.3-.547-1.163-.068-2.052.41-2.052.342-.068 0 .821-.616 2.121-.547.615 0 1.162.273 1.436.615.205.411.205.684.137.684z" fill="#455A64"/><path d="M196.719 364.113c0 .068-.274.205-.616.342-.342.205-.616.342-.616.273-.068-.068.206-.273.548-.478.342-.137.684-.137.684-.137zm7.797-1.437s-.137-.136-.479-.273c-.273-.137-.684-.274-1.231-.342-.479-.069-.958-.069-1.3-.069-.342 0-.547-.068-.547-.136 0 0 .205 0 .547-.069.342 0 .821-.068 1.3 0 .547.069.958.205 1.3.411.342.273.478.478.41.478z" fill="#455A64"/><path d="M203.452 362.675c.152-.217.225-.427.164-.471-.062-.043-.236.097-.388.313-.152.216-.226.427-.164.47.062.044.236-.096.388-.312zm-21.987 4.037s-.205-.205-.547-.41c-.342-.274-.889-.479-1.505-.548-.615-.068-1.231-.068-1.641 0-.411 0-.684.069-.684 0 0 0 .273-.068.684-.136a6.537 6.537 0 011.71-.069c.684.069 1.231.342 1.573.684.342.274.41.479.41.479z" fill="#455A64"/><path d="M181.397 366.302c0 .068-.41.068-.958.273-.478.205-.82.479-.889.411-.068-.069.274-.411.821-.616.547-.274 1.026-.137 1.026-.068zm-7.182.342c-.068.068-.41-.89-1.436-1.574-.958-.684-1.984-.752-1.984-.82 0-.069 1.026-.137 2.052.615 1.163.753 1.436 1.779 1.368 1.779z" fill="#455A64"/><path d="M174.967 366.302c0 .068-.547 0-1.231 0s-1.231.136-1.231.068.547-.274 1.231-.342c.684.068 1.231.205 1.231.274zm-33.926-16.485c0-.068.41.411 1.368.616.957.273 2.394.205 4.172 0 .889-.069 1.847-.205 2.873-.205.547 0 1.094.068 1.642.273a2.912 2.912 0 011.368 1.026c.136.274.273.547.342.889.068.274.068.548.205.89.205.547.479 1.094.889 1.641.752.958 1.915 1.71 3.215 1.915 1.299.206 2.667-.136 3.899.479a2.533 2.533 0 011.299 1.368c.274.547.342 1.163.411 1.779.136 1.162.205 2.325.82 3.146.274.41.753.684 1.163.821.479.137.889.205 1.368.273.411.069.889.206 1.231.342.342.206.684.411.89.753.41.615.41 1.299.342 1.778-.069.479-.206.889-.274 1.095-.068.273-.137.342-.137.342s.205-.479.342-1.505c.069-.479 0-1.095-.342-1.71-.205-.274-.479-.547-.821-.684a5.739 5.739 0 00-1.162-.342c-.411-.069-.89-.137-1.368-.274-.479-.137-.958-.41-1.232-.889-.684-.889-.752-2.052-.889-3.215a7.76 7.76 0 00-.41-1.71 2.285 2.285 0 00-1.231-1.299c-1.163-.548-2.531-.274-3.831-.479-1.368-.205-2.599-1.026-3.351-2.052-.411-.479-.684-1.095-.89-1.71-.068-.274-.136-.616-.205-.889-.068-.274-.137-.548-.273-.753a2.065 2.065 0 00-1.3-.957c-.479-.206-1.026-.274-1.573-.274a36.52 36.52 0 00-2.873.137c-1.778.137-3.215.205-4.172-.137a3.61 3.61 0 01-1.026-.479c-.342.137-.479 0-.479 0z" fill="#455A64"/><path d="M165.802 361.172s0-.137-.069-.342a6.016 6.016 0 01-.205-.89c-.274-.752-.752-1.778-1.778-2.736-1.026-.957-2.668-1.71-4.515-1.641-.478 0-.957.068-1.436-.069-.479-.068-.958-.41-1.3-.82-.684-.821-.889-1.916-1.299-2.873a3.923 3.923 0 00-2.121-2.189c-.889-.41-1.915-.547-2.804-.547-1.847.068-3.489.615-4.925.821-1.436.273-2.599.205-3.351 0-.753-.137-1.163-.411-1.163-.411s.136 0 .273.069c.205.068.479.136.89.205.752.137 1.915.137 3.351-.069 1.368-.205 3.01-.752 4.925-.889.957 0 1.983.069 2.941.547a4.17 4.17 0 012.189 2.258c.41 1.026.616 2.052 1.3 2.804.342.41.752.684 1.162.752.479.137.958.069 1.437.069a6.228 6.228 0 014.583 1.778c1.026.958 1.573 2.121 1.778 2.873.137.821.137 1.3.137 1.3z" fill="#455A64"/><path d="M186.048 433.06l-7.319-14.98s2.873-23.324.342-30.027c-2.531-6.703-15.048-5.472-15.048-5.472l-13.475 5.335s-3.009 6.703-4.924 9.029c-1.984 2.325-3.831 12.791-1.574 21.956.821 3.215 3.968 6.293 6.43 8.345 2.052 1.642 3.146 4.241 3.01 6.84l-.548 11.696c-.273 1.437-.547 4.72 3.42 5.814 4.788 1.368 15.39-2.394 19.563-6.361 6.771-6.566 7.934-6.566 7.934-6.566 5.951-1.505 2.189-5.609 2.189-5.609z" fill="#DF2C2C"/><path d="M149.864 388.532s-5.745 4.446-7.113 8.686c-.89 2.805-5.678 18.879-5.678 18.879l8.961 1.163 3.83-28.728z" fill="#DF2C2C"/><path d="M145.281 421.295s-.205-.273-.478-.752c-.274-.479-.616-1.231-.958-2.189-.684-1.915-1.094-4.788-.889-7.934.205-3.147.889-5.883 1.368-7.866.273-.958.479-1.779.684-2.326.137-.547.273-.821.273-.821s-.068.342-.136.889c-.137.616-.342 1.437-.548 2.326-.478 1.984-1.094 4.72-1.299 7.798-.205 3.078.205 5.882.821 7.797.547 1.915 1.231 3.01 1.162 3.078zm8.209-2.941c0 .068-.479-.137-1.232-.479-.342-.205-.82-.41-1.231-.821-.41-.342-.752-.889-1.094-1.436-.547-1.163-.684-2.326-.753-3.078-.068-.821-.136-1.3-.068-1.3s.205.479.342 1.3c.137.821.274 1.915.821 3.01.273.547.615 1.026.957 1.368.411.342.753.615 1.095.82.752.342 1.231.616 1.163.616zm29.275 15.732c.068 0 .273.274.41.752.205.548.342 1.3.274 2.121a5.203 5.203 0 01-.616 2.052c-.274.479-.547.752-.547.684-.069-.069.684-1.163.821-2.805.205-1.504-.411-2.736-.342-2.804zm-5.267-1.163c0-.068.547.137 1.231.616s1.573 1.368 2.189 2.531a6.172 6.172 0 01.684 3.283c-.068.889-.205 1.368-.274 1.368-.068 0 .069-.547 0-1.368 0-.821-.205-1.984-.752-3.078-.547-1.095-1.368-1.984-1.984-2.463-.684-.615-1.162-.82-1.094-.889z" fill="#0E151D"/><path d="M161.082 392.43s-.137.206-.479.616c-.342.342-.821.889-1.505 1.436-1.368 1.095-3.557 2.394-6.293 2.942-2.667.547-5.198.205-6.908-.274-.889-.274-1.505-.547-1.984-.752-.478-.206-.684-.342-.684-.411 0-.068 1.026.411 2.736.889 1.71.411 4.173.684 6.772.206 2.599-.548 4.788-1.71 6.156-2.736 1.436-1.163 2.12-1.984 2.189-1.916zm-18.058 16.143c0 .068-.889.205-1.915 0-1.026-.274-1.71-.821-1.71-.889.069-.069.821.273 1.779.547 1.026.273 1.846.273 1.846.342zm6.156 3.557c-.068.068-1.231-.548-2.873-.821-1.641-.274-2.941-.069-3.009-.205 0-.069 1.368-.411 3.078-.137 1.641.342 2.804 1.094 2.804 1.163zm6.84 2.188c0 .069-1.436.548-3.214.274-1.847-.274-3.078-1.163-3.01-1.231.068-.069 1.3.615 3.078.889 1.71.205 3.078-.068 3.146.068zm-3.42 10.739c0 .069-1.026.411-2.394.274-1.299-.137-2.325-.547-2.257-.616 0-.068 1.026.205 2.326.274 1.299.137 2.325 0 2.325.068zm27.018-10.67c.069.068-1.231 1.368-3.351 2.12-2.121.753-3.967.616-3.899.547 0-.136 1.778-.136 3.762-.889 2.052-.752 3.42-1.915 3.488-1.778zm-1.026 20.93l-.752.753c-.547.478-1.3 1.094-2.326 1.846-1.983 1.505-4.993 3.284-8.686 4.446-1.847.548-3.626.89-5.267.958-1.642.068-3.147 0-4.378-.205-1.231-.205-2.189-.479-2.873-.753-.684-.205-1.026-.342-1.026-.41 0 0 .411.068 1.026.274.684.205 1.642.41 2.873.615 2.463.411 5.951.274 9.576-.821 3.625-1.094 6.567-2.872 8.619-4.309 1.026-.684 1.846-1.299 2.394-1.778.478-.411.82-.616.82-.616zm2.634-.406c.56-.092.998-.257.98-.369-.019-.111-.487-.128-1.046-.036s-.998.257-.979.369c.018.112.486.128 1.045.036zm5.369-.004c-.068.068-.684-.274-1.573-.205-.821 0-1.505.342-1.505.273-.068-.068.547-.615 1.505-.615 1.026-.069 1.642.478 1.573.547zm-12.654-7.045c.069.068-1.163.957-2.941 1.504-1.778.548-3.283.548-3.283.479 0-.137 1.436-.273 3.146-.821 1.779-.478 3.078-1.231 3.078-1.162z" fill="#FAFAFA"/><path d="M125.924 454.332l-23.666 91.998 6.224 1.984 24.009-98.906-6.567 4.924zm79.344-17.1s6.362 2.121 11.286-3.762c4.925-5.882 1.232-14.774 1.232-14.774l1.368-3.352s25.239 9.098 28.249 11.56c.752.616 1.094 2.052.41 3.899-2.325 6.224-9.918 27.223-13.748 27.223-4.651 0-31.464-16.348-31.464-16.348l2.667-4.446z" fill="#DF2C2C"/><path d="M150.48 387.369c-.205.137-.616.479-1.026 1.094-1.231 1.71-2.052 5.335-2.12 10.807-.206 15.322 55.198 42.545 55.198 42.545l2.668-4.514s-40.835-22.641-52.189-34.816c-2.668-2.873-4.104-6.635-3.831-10.533 0-.206 0-.342.069-.548.273-2.325 1.299-3.556 1.299-3.556l-.068-.479z" fill="#455A64"/><path d="M218.675 416.576h.136c.137 0 .274.068.479.136.411.137 1.026.274 1.779.548 1.573.478 3.762 1.162 6.498 2.12 1.368.479 2.872.958 4.446 1.573.41.137.82.274 1.231.479.41.205.752.547 1.026.889.273.342.547.821.615 1.3.069.479.069 1.026-.068 1.505-.274.957-.684 1.846-1.026 2.736-.342.957-.752 1.846-1.163 2.872-.752 1.916-1.573 3.899-2.394 5.951-.821 2.052-1.505 4.104-2.667 5.883-.548.889-1.3 1.71-2.189 2.257a4.53 4.53 0 01-2.941.615c-.958-.068-1.916-.41-2.736-.684-.821-.273-1.71-.615-2.463-.889-1.573-.547-3.078-1.094-4.446-1.573-2.667-.958-4.856-1.778-6.429-2.326-.753-.273-1.3-.478-1.71-.684a3.249 3.249 0 01-.479-.205c-.068-.068-.137-.068-.137-.068s.069 0 .137.068c.137.069.274.069.479.137.41.137 1.026.342 1.778.616 1.573.547 3.762 1.299 6.498 2.257 1.368.479 2.873 1.026 4.446 1.573.821.274 1.642.547 2.462.889.821.274 1.71.616 2.668.684a4.231 4.231 0 002.736-.547c.821-.479 1.505-1.231 2.052-2.12 1.094-1.71 1.778-3.831 2.599-5.814.821-2.052 1.642-4.036 2.394-5.951.411-.958.753-1.915 1.163-2.873.342-.958.752-1.847 1.026-2.736.137-.41.205-.889.068-1.3-.068-.41-.273-.82-.547-1.162a3.585 3.585 0 00-.957-.821c-.342-.205-.753-.342-1.163-.479-1.573-.616-3.078-1.094-4.446-1.573-2.736-.958-4.925-1.71-6.498-2.189-.753-.274-1.368-.41-1.779-.616-.273-.41-.547-.478-.478-.478z" fill="#0E151D"/><path d="M247.335 427.041s-.001.068-.069.137c-.068.136-.137.273-.205.478a24.117 24.117 0 00-.752 1.71 152.47 152.47 0 00-2.736 6.43c-1.095 2.736-2.463 5.951-3.899 9.576-.753 1.778-1.505 3.694-2.394 5.609-.479.957-.889 1.915-1.505 2.873a4.875 4.875 0 01-.547.684c-.274.205-.548.273-.89.342-.615.068-1.162-.069-1.71-.206-2.188-.615-4.172-1.573-6.156-2.394-1.915-.82-3.83-1.71-5.608-2.53-3.557-1.642-6.635-3.284-9.234-4.652-2.6-1.368-4.652-2.599-6.088-3.42-.684-.41-1.231-.752-1.642-.957-.136-.137-.273-.205-.41-.274-.068-.068-.137-.068-.137-.068s.069 0 .137.068l.41.205c.411.206.958.548 1.642.958 1.436.821 3.557 1.984 6.156 3.352a200.398 200.398 0 009.302 4.582c1.779.821 3.626 1.642 5.609 2.531 1.984.821 3.967 1.779 6.088 2.394a6.615 6.615 0 001.573.205c.274 0 .479-.068.684-.273.205-.205.342-.342.479-.616.616-.889 1.094-1.847 1.505-2.804.889-1.915 1.641-3.831 2.394-5.609 1.504-3.625 2.804-6.84 3.967-9.576 1.163-2.736 2.12-4.856 2.873-6.361.342-.753.615-1.3.821-1.71.068-.205.136-.342.205-.411l.137-.273z" fill="#0E151D"/><path d="M149.385 387.642s.137 7.524 2.942 6.156c2.804-1.368 11.765-11.217 11.765-11.217l-9.645 1.368-5.062 3.693z" fill="#FFBE9D"/><path d="M102.166 601.736c.072-.087-1.453-1.462-3.407-3.071-1.954-1.609-3.596-2.843-3.668-2.755-.072.087 1.454 1.463 3.407 3.072 1.954 1.608 3.596 2.842 3.668 2.754zm2.64-5.584c.022-.111-1.969-.612-4.449-1.119-2.48-.507-4.508-.828-4.53-.717-.023.111 1.968.612 4.448 1.119 2.48.507 4.508.828 4.531.717zm-5.301-4.936c2.435-.693 4.383-1.343 4.352-1.452-.031-.109-2.03.364-4.464 1.058-2.434.693-4.383 1.343-4.352 1.452.031.109 2.03-.365 4.464-1.058zm-11.174 2.303c.015-.112-2.006-.476-4.515-.811-2.509-.336-4.555-.517-4.57-.405-.015.112 2.007.476 4.516.811 2.508.336 4.554.517 4.57.405zm8.169-5.936c1.246-2.203 2.176-4.035 2.078-4.09-.099-.056-1.189 1.685-2.435 3.888-1.245 2.203-2.175 4.034-2.077 4.09.099.056 1.189-1.685 2.435-3.888zm-6.995 3.916c.076-.085-1.395-1.519-3.284-3.203-1.89-1.684-3.482-2.981-3.557-2.897-.076.085 1.395 1.519 3.284 3.203 1.89 1.685 3.482 2.981 3.557 2.897zm-3.654 7.066c2.281-1.096 4.09-2.068 4.042-2.17-.05-.102-1.938.704-4.22 1.8-2.28 1.097-4.09 2.068-4.041 2.171.049.102 1.938-.704 4.22-1.801zm3.224 2.767c1.519-2.025 2.676-3.721 2.586-3.789-.09-.068-1.395 1.518-2.914 3.543-1.519 2.025-2.676 3.721-2.585 3.789.09.068 1.395-1.518 2.913-3.543zm5.129 5.292c.113-.015-.073-2.061-.414-4.568-.341-2.508-.709-4.529-.821-4.514-.113.015.073 2.061.414 4.569.341 2.508.709 4.529.821 4.513zm-2.666-16.009c.113-.015-.073-2.06-.414-4.568-.341-2.508-.709-4.529-.821-4.514-.112.015.073 2.061.414 4.569.341 2.508.71 4.529.821 4.513z" fill="#E0E0E0"/><path d="M91.998 599.272a5.062 5.062 0 100-10.123 5.062 5.062 0 000 10.123z" fill="#455A64"/><path d="M91.998 579.094c-8.55 0-15.458 6.908-15.458 15.458s6.908 15.459 15.458 15.459 15.458-6.909 15.458-15.459c0-8.481-6.908-15.458-15.458-15.458zm0 26.676c-6.361 0-11.56-5.13-11.56-11.56 0-6.429 5.13-11.559 11.56-11.559 6.361 0 11.56 5.13 11.56 11.559 0 6.43-5.199 11.56-11.56 11.56z" fill="#0E151D"/><path d="M91.793 585.318l-2.052 7.456c-.342 1.3.41 2.599 1.71 3.01 1.3.342 2.599-.411 3.01-1.642l2.188-7.456-4.856-1.368zm39.74-132.148l.958-4.036s-21.204-5.472-27.292 6.293l.753.684s2.804-3.42 10.807-3.283c8.003.068 9.849 1.915 9.849 1.915l4.925-1.573z" fill="#0E151D"/><path opacity=".4" d="M125.924 454.332l-23.666 91.998 6.224 1.984 24.009-98.906-6.567 4.924z" fill="#000"/><path d="M221.011 601.755c.072-.088-1.453-1.463-3.407-3.072-1.953-1.609-3.596-2.842-3.668-2.755-.072.088 1.454 1.463 3.407 3.072 1.954 1.609 3.596 2.842 3.668 2.755zm2.633-5.564c.022-.111-1.969-.612-4.449-1.119-2.48-.507-4.508-.828-4.531-.717-.023.111 1.969.612 4.449 1.119 2.479.507 4.508.828 4.531.717zm-5.27-4.933c2.435-.693 4.383-1.343 4.352-1.452-.032-.109-2.03.364-4.464 1.058-2.434.693-4.382 1.343-4.351 1.452.031.109 2.029-.365 4.463-1.058zm-11.201 2.291c.015-.112-2.006-.476-4.515-.811-2.509-.336-4.555-.518-4.57-.405-.015.112 2.007.475 4.516.811 2.508.336 4.554.517 4.569.405zm8.171-5.948c1.246-2.204 2.176-4.035 2.077-4.091-.098-.055-1.188 1.685-2.434 3.889-1.246 2.203-2.176 4.034-2.077 4.09.099.056 1.189-1.685 2.434-3.888zm-6.994 3.909c.075-.085-1.395-1.519-3.284-3.203-1.89-1.684-3.482-2.981-3.558-2.897-.075.085 1.395 1.519 3.284 3.203 1.89 1.685 3.482 2.982 3.558 2.897zm-3.605 7.047c2.282-1.096 4.091-2.068 4.042-2.17-.049-.102-1.938.704-4.22 1.801-2.281 1.096-4.09 2.068-4.041 2.17.049.102 1.938-.704 4.219-1.801zm3.229 2.832c1.519-2.025 2.676-3.721 2.586-3.789-.091-.068-1.396 1.518-2.914 3.543-1.519 2.025-2.677 3.721-2.586 3.789.091.068 1.395-1.518 2.914-3.543zm5.115 5.298c.112-.015-.073-2.06-.414-4.568-.342-2.508-.709-4.529-.822-4.514-.112.015.074 2.061.415 4.569.341 2.508.709 4.529.821 4.513zm-2.674-16.077c.112-.015-.074-2.06-.415-4.568-.341-2.508-.709-4.529-.821-4.514-.112.015.073 2.061.415 4.569.341 2.508.708 4.529.821 4.513z" fill="#E0E0E0"/><path d="M210.877 599.34a5.062 5.062 0 100-10.124 5.062 5.062 0 000 10.124z" fill="#455A64"/><path d="M210.877 579.162c-8.55 0-15.458 6.909-15.458 15.459s6.908 15.458 15.458 15.458 15.458-6.908 15.458-15.458-6.908-15.459-15.458-15.459zm0 26.608c-6.361 0-11.56-5.13-11.56-11.56 0-6.429 5.13-11.559 11.56-11.559 6.361 0 11.56 5.13 11.56 11.559 0 6.43-5.199 11.56-11.56 11.56z" fill="#0E151D"/><path d="M113.339 591.132c0 1.163.957 2.121 2.12 2.121h79.071s3.078-13.954 16.347-14.091c9.166-.068 13.407 5.951 15.185 9.576.616 1.232 2.189 1.574 3.283.684.753-.615.958-1.71.479-2.599-1.778-3.351-7.25-11.696-18.947-11.696-15.458.068-19.836 14.364-19.836 14.364l-75.582-.479a2.13 2.13 0 00-2.12 2.12z" fill="#DF2C2C"/><path d="M127.703 599.682h82.422a3.211 3.211 0 003.215-3.214 3.211 3.211 0 00-3.215-3.215h-94.05l2.052 2.189c2.462 2.736 5.951 4.24 9.576 4.24z" fill="#0E151D"/><path d="M83.995 578.957c-.547-.821-.273-1.915.616-2.394 2.736-1.436 8.686-3.625 16.005-.615 7.866 3.214 11.56 11.559 11.286 18.536-.068.958-.821 1.642-1.778 1.642a1.714 1.714 0 01-1.71-1.574c-.342-3.625-1.915-12.517-9.987-15.321-5.95-2.052-10.396-.753-12.38.205-.684.479-1.573.205-2.052-.479z" fill="#DF2C2C"/><path opacity=".4" d="M83.995 578.957c-.547-.821-.273-1.915.616-2.394 2.736-1.436 8.686-3.625 16.005-.615 7.866 3.214 11.56 11.559 11.286 18.536-.068.958-.821 1.642-1.778 1.642a1.714 1.714 0 01-1.71-1.574c-.342-3.625-1.915-12.517-9.987-15.321-5.95-2.052-10.396-.753-12.38.205-.684.479-1.573.205-2.052-.479z" fill="#000"/><path d="M89.877 587.302l7.661 2.12 4.993-17.031c.206-.684 1.026-.821 1.437-.274l14.911 18.195h10.739l-23.53-29.344 3.283-14.227-7.455-1.847-12.039 42.408z" fill="#DF2C2C"/><path d="M191.041 589.491c0 .068-16.963.068-37.962-.069-20.93-.136-37.962-.342-37.962-.41 0-.068 16.963-.068 37.962.068 20.999.137 37.962.342 37.962.411zm98.565-29.207l-.206.205a7.53 7.53 0 01-.684.616c-.615.547-1.641 1.163-3.146 1.573a8.021 8.021 0 01-5.54-.479c-1.984-.957-3.831-3.009-4.446-5.814-.137-.684-.206-1.436-.137-2.12.068-.753.205-1.505.479-2.189a9.43 9.43 0 012.736-3.83 11.248 11.248 0 014.514-2.258 12.74 12.74 0 015.335-.136c3.625.684 7.182 2.941 9.166 6.498 1.915 3.488 2.257 8.071.479 11.97-.89 1.915-2.258 3.625-3.831 4.924a20.019 20.019 0 01-5.198 3.078c-3.694 1.505-7.524 2.189-11.149 2.531-7.251.684-13.886.069-19.289-.957-5.404-1.026-9.645-2.531-12.517-3.626-2.873-1.162-4.378-1.983-4.378-1.983s.068 0 .274.137c.205.068.478.205.82.342.753.342 1.847.752 3.284 1.368a68.246 68.246 0 0012.517 3.488 68.817 68.817 0 0019.22.889c3.625-.273 7.387-1.026 11.081-2.531 1.778-.752 3.557-1.778 5.13-3.078a14.266 14.266 0 003.762-4.788c1.71-3.762 1.436-8.276-.479-11.696s-5.403-5.677-8.892-6.293a12.07 12.07 0 00-5.198.137c-1.642.41-3.147 1.163-4.378 2.189-1.231 1.026-2.189 2.325-2.667 3.693-.274.684-.411 1.437-.479 2.121-.069.684 0 1.436.137 2.052.547 2.667 2.325 4.719 4.24 5.677 1.984.958 3.968.889 5.404.547a7.882 7.882 0 003.146-1.505c.616-.41.89-.752.89-.752zm11.559 17.374s-.137.136-.41.273c-.342.205-.753.411-1.3.753-.273.136-.615.342-.957.547-.342.205-.753.342-1.163.547-.821.41-1.779.889-2.873 1.3-.547.205-1.094.41-1.71.684-.616.205-1.231.41-1.915.615-1.3.479-2.736.821-4.241 1.163-3.01.684-6.361 1.231-9.918 1.436-3.557.137-6.977-.068-10.055-.41-1.505-.274-3.009-.41-4.309-.752-.684-.137-1.3-.274-1.915-.411-.616-.205-1.231-.342-1.779-.479-1.162-.273-2.12-.684-3.009-.957l-1.231-.411-1.026-.41a18.33 18.33 0 00-1.368-.616c-.342-.136-.479-.205-.479-.205s.205.069.479.137c.342.137.82.342 1.368.547.273.137.615.274 1.026.411.342.136.752.273 1.231.41.889.274 1.847.684 3.009.958.548.136 1.163.342 1.779.478.615.137 1.231.274 1.915.411 1.3.342 2.804.479 4.309.752 3.078.342 6.43.547 9.987.411 3.556-.206 6.908-.684 9.849-1.368 1.505-.411 2.941-.684 4.173-1.163.615-.205 1.299-.411 1.846-.616a47.11 47.11 0 001.71-.615c1.095-.411 2.052-.89 2.873-1.232.411-.205.821-.342 1.163-.547.342-.205.684-.342.958-.479.547-.273 1.026-.478 1.368-.684.478-.41.615-.478.615-.478z" fill="#0E151D"/><path d="M127.839 448.108l30.165-8.345a24.239 24.239 0 0010.602-12.722l8.755-24.351c.684-1.573 1.3-3.078 1.437-3.898.615-2.805.684-8.482-1.027-10.944-.889-1.3-2.12-2.942-4.582-3.42-4.036-.821-8.55.205-11.218 7.113l-9.234 34.2-25.924 13.885 1.026 8.482z" fill="#FFBE9D"/><path d="M157.32 404.742c-.342-.205 2.941-3.078 5.404-3.967 1.504-.547 8.823-1.915 11.559 1.3 3.283 3.967.958 7.866.958 7.866s.615-.342 1.505-1.984c1.368-2.531 2.872-8.345 2.872-8.345s2.326-13.68-4.377-15.526c-6.703-1.847-10.671.205-11.56 1.846-.889 1.642-6.361 18.81-6.361 18.81z" fill="#DF2C2C"/><path d="M174.01 412.335s.136-.411.478-1.026c.342-.684.821-1.642 1.163-2.941.342-1.232.547-2.942-.205-4.515-.752-1.573-2.394-2.736-4.309-3.351-.958-.274-1.915-.342-2.873-.342-.958-.069-1.847 0-2.736.068a15.54 15.54 0 00-4.446 1.231c-1.231.547-2.052 1.231-2.531 1.779-.479.547-.615.957-.684.957 0 0 0-.068.137-.273.068-.206.205-.411.479-.753.41-.615 1.299-1.368 2.531-1.915 1.231-.547 2.736-1.094 4.514-1.368.889-.137 1.847-.137 2.804-.137.958.069 1.984.069 3.01.411 1.984.615 3.694 1.846 4.514 3.556.753 1.71.548 3.42.137 4.72-.41 1.3-.957 2.257-1.299 2.873-.206.342-.342.547-.411.752l-.273.274zm-14.335-15.256c1.037-3.159 1.79-5.748 1.683-5.783-.108-.036-1.036 2.496-2.073 5.655-1.037 3.158-1.79 5.747-1.682 5.782.108.036 1.035-2.496 2.072-5.654zm12.488-13.335c0 .068-.616-.206-1.642-.342-1.026-.137-2.462-.137-3.967.478-1.505.548-2.599 1.505-3.283 2.326-.684.752-.958 1.368-1.026 1.368 0 0 .205-.616.821-1.505.615-.821 1.778-1.915 3.351-2.462 1.573-.616 3.078-.547 4.104-.342 1.095.137 1.642.479 1.642.479zm6.884 16.504c.581-4.419.961-8.014.849-8.029-.113-.015-.675 3.556-1.255 7.976-.581 4.42-.961 8.014-.849 8.029.113.015.675-3.556 1.255-7.976z" fill="#0E151D"/><path d="M114.433 444.62a2.204 2.204 0 00-.957 2.736l2.736 7.045c.478.752 1.436 1.026 2.257.684 2.052-.889 4.446-1.573 5.13-2.873.479-1.026-.753-1.505-.753-1.505l-4.582.479-.548-4.309 4.036-1.437s.547 2.942 1.984 3.831c1.983 1.231 6.498-1.71 6.498-1.71l-2.736-8.071-7.456 1.778-5.609 3.352z" fill="#FFBE9D"/><path d="M123.189 446.056s-1.163 6.019-.753 6.977c.274.752 2.599 1.026 2.736-.821.342-3.83 1.231-2.873 2.599-3.078 1.368-.205 2.805-1.984 1.847-3.42-1.505-2.189-6.429.342-6.429.342z" fill="#FFBE9D"/><path d="M118.332 451.186c0-.068.479-.137 1.231-.274.411-.068.889-.136 1.368-.205.547-.068 1.095-.137 1.71-.068.137 0 .342.068.479.205.137.137.274.274.342.41.137.342.137.616.068.89-.068.273-.136.547-.342.752-.136.205-.41.342-.547.41-.684.411-1.163.548-1.163.479 0-.068.411-.273 1.026-.684.137-.137.342-.205.411-.41.137-.137.205-.411.205-.616.068-.479-.068-1.026-.616-1.094-.547-.069-1.094 0-1.641.068-.479.069-.958.069-1.368.069-.684.068-1.163.068-1.163.068zm-.137.137c-.137 0-.205-1.026-.547-2.121-.342-1.162-.889-1.983-.821-2.052.069-.068.753.753 1.163 1.984.41 1.163.274 2.189.205 2.189z" fill="#EB996E"/><path d="M121.229 451.127a2.872 2.872 0 10-2.356-5.239 2.872 2.872 0 002.356 5.239z" fill="#455A64"/><path d="M179.208 393.32c-.068 0-.479-1.163-1.436-2.942-.479-.889-1.095-1.915-2.052-2.736-.958-.889-2.326-1.504-3.762-1.641a9.282 9.282 0 00-4.173.41c-1.231.342-2.325.889-3.214 1.368-.89.479-1.574.889-2.052 1.231-.479.274-.753.479-.753.411 0 0 .205-.205.684-.547.479-.342 1.095-.821 1.984-1.3.889-.479 1.915-1.026 3.215-1.436 1.299-.411 2.804-.616 4.309-.411 1.573.205 2.941.821 3.967 1.779 1.026.889 1.641 1.983 2.052 2.872.479.89.752 1.642.957 2.189.206.411.274.684.274.753zm-.752 8.002c-.069.069-.274-1.231-1.574-2.736-.615-.752-1.573-1.504-2.667-2.12-1.163-.616-2.531-.958-4.036-1.094-3.009-.274-5.745.547-7.592 1.162-.958.342-1.71.616-2.189.821-.547.205-.821.274-.821.274s.274-.137.753-.411c.478-.205 1.231-.547 2.188-.889 1.847-.684 4.583-1.573 7.73-1.299 1.504.136 3.009.547 4.172 1.162 1.163.616 2.12 1.437 2.736 2.258a9.58 9.58 0 011.163 2.052c.068.273.137.478.205.615-.068.137-.068.205-.068.205z" fill="#FAFAFA"/><path d="M159.782 427.998s-.136-.136-.41-.342c-.274-.205-.616-.615-1.163-.957-1.163-.616-3.078-.889-5.403-.889h.068c-1.71.889-3.625 1.983-5.746 3.214a455.17 455.17 0 00-6.84 3.831c-4.856 2.736-9.302 4.993-12.722 6.703a143.01 143.01 0 01-5.472 1.231c-.616.137-1.094.274-1.505.342-.342.069-.547.069-.547.069s.205-.069.479-.137c.342-.069.889-.205 1.505-.411 1.299-.342 3.146-.82 5.403-1.368 3.352-1.778 7.866-4.104 12.654-6.771a455.17 455.17 0 016.84-3.831c2.121-1.162 4.104-2.257 5.746-3.146 2.325.068 4.309.342 5.472 1.026.547.342.889.752 1.163 1.026.342.274.478.41.478.41z" fill="#EB996E"/><path d="M35.02 579.641c1.574.274 2.942 1.231 3.831 2.531.89 1.3 1.368 2.873 1.574 4.378.41 3.009-.48 6.429-1.642 9.234-3.01-1.505-4.583-5.13-5.267-6.977-1.026-2.941-1.163-8.961 1.505-9.166zm7.867 20.247c-.821-1.574-.616-3.557.342-4.994.957-1.436 2.599-2.394 4.377-2.736.821-.136 1.71-.136 2.326.411.547.479.752 1.368.547 2.12-.137.753-.615 1.368-1.163 1.915-1.71 1.847-3.83 3.352-6.43 3.284z" fill="#698842"/><path d="M42.066 609.669s-.068-.205-.068-.616c0-.41-.069-1.026-.137-1.71-.069-1.436-.274-3.488.342-5.609.547-2.188 1.641-3.898 2.667-4.924.548-.479 1.027-.89 1.369-1.095a.75.75 0 01.41-.205c.068-.068.137-.068.137-.068 0 .068-.821.41-1.779 1.436-1.026 1.026-2.052 2.736-2.599 4.856-.547 2.121-.41 4.104-.41 5.541 0 .752.068 1.299.068 1.71.069.479.069.684 0 .684z" fill="#0E151D"/><path d="M35.5 584.224s.068.068.068.274c.069.205.137.41.274.752.205.616.479 1.573.82 2.736.685 2.326 1.574 5.54 2.531 9.166.89 3.556 1.71 6.84 2.19 9.234.273 1.162.478 2.12.615 2.804.068.342.137.547.137.752 0 .206.068.274.068.274s-.068-.068-.068-.274a11.108 11.108 0 01-.206-.752c-.136-.684-.41-1.642-.684-2.804-.547-2.326-1.368-5.609-2.257-9.166-.889-3.557-1.778-6.84-2.462-9.166-.342-1.162-.547-2.052-.753-2.736a5.532 5.532 0 00-.205-.752c0-.274-.068-.342-.068-.342z" fill="#0E151D"/><path d="M39.125 602.76c-1.505-3.42-4.72-5.95-8.345-6.703-.958-.205-2.052-.137-2.6.616-.546.821-.068 1.847.48 2.599 2.325 3.215 6.703 4.72 10.465 3.694" fill="#698842"/><path d="M31.875 598.793s.205 0 .615.069c.205.068.41.068.684.136.274.069.547.137.89.274l1.025.41c.342.137.753.342 1.163.616.752.479 1.573 1.026 2.326 1.778.752.753 1.368 1.505 1.846 2.326.206.41.41.752.616 1.094.205.342.342.684.41 1.026.137.342.206.616.274.89.069.273.137.478.137.684.068.342.068.547.068.615-.068 0-.205-.821-.684-2.052-.136-.342-.273-.684-.478-1.026-.137-.342-.41-.752-.616-1.094-.479-.753-1.095-1.505-1.779-2.257-.752-.684-1.504-1.3-2.257-1.779-.41-.205-.752-.41-1.094-.615a3.222 3.222 0 00-1.026-.411c-1.3-.479-2.12-.684-2.12-.684z" fill="#0E151D"/></g><defs><linearGradient id="paint0_linear" x1="451.015" y1="641.048" x2="240.841" y2="430.473" gradientUnits="userSpaceOnUse"><stop stop-color="#fff" stop-opacity=".64"/><stop offset=".305" stop-color="#fff" stop-opacity=".79"/><stop offset="1" stop-color="#fff"/></linearGradient><clipPath id="clip0"><path fill="#fff" transform="translate(0 286)" d="M0 0h342v342H0z"/></clipPath></defs></svg>