<svg width="1001" height="769" fill="none" xmlns="http://www.w3.org/2000/svg"><path d="M496.114 64.98c52.353-84.787 131.987-85.927 226.501-117.5 119.818-40.028 248.023-143.118 320.995-40 47.83 67.58-4.02 129.306 0 212 8.76 179.818 80.04 275.695 71 455.5-2.94 58.52-52.61 155.033-71 163.02C917 793 634.5 738 467 738c-127.792 0-424.5 45-453 26.5C-11.75 747.785-9.5 658 102.5 557S298.732 494.991 412 343.5c84.114-112.5 41.627-209.712 84.114-278.52z" fill="url(#paint0_linear)"/><path d="M736.566-310.185c44.512-34.287 96.844 16.373 149.765-5.709 34.516-14.402 38.959-46.797 75.69-55.738 35.481-8.637 61.389-4.951 94.009 11.936 71.78 37.163-40.07 148.385 27.41 192.109 52.54 34.042 120.66-46.238 161.98-.733 50.45 55.572-49.23 103.75-102.01 154.822-74.49 72.066-135.54 145.794-242.363 122.733C789.314 85.113 778.12-18.888 735.326-118.06c-21.21-49.153-54.029-79.843-39.563-130.196 7.91-27.533 17.328-43.847 40.803-61.929z" fill="#B39E9E" fill-opacity=".15"/><path d="M451.915 237.419c.796-5.702-7.16-10.343-13.26-10.873-2.917-.266-5.834.265-8.619-.796-5.834-1.989-8.221-9.68-13.923-12.067-4.243-1.856-9.282-.132-13.393 1.857-4.11 2.121-8.221 4.773-12.994 5.039-4.111.265-8.487-1.194-11.934.795-2.652 1.459-3.978 4.509-6.498 6.365-2.387 1.724-5.436 2.122-8.486 2.254-2.917.133-5.967.133-8.752 1.459-2.652 1.193-4.906 4.11-4.376 7.028l102.235-1.061zm477.227 41.769c.796-5.702-7.16-10.343-13.26-10.873-2.917-.266-5.834.265-8.619-.796-5.834-1.989-8.221-9.68-13.923-12.067-4.243-1.856-9.282-.132-13.392 1.857-4.111 2.121-8.221 4.773-12.995 5.039-4.111.265-8.486-1.194-11.934.795-2.652 1.459-3.978 4.509-6.497 6.365-2.387 1.724-5.437 2.122-8.487 2.254-2.917.133-5.967.133-8.751 1.459-2.652 1.193-4.907 4.11-4.376 7.028l102.234-1.061z" fill="#9CCECB"/><path d="M951 607.5c0 .167-142.234.5-317.5.5-175.408 0-317.5-.167-317.5-.5 0-.333 142.092-.5 317.5-.5s317.5.167 317.5.5z" fill="#0E151D"/><path d="M460.534 423.589c-23.072-6.099-43.36-21.216-54.499-41.106-11.271-19.757-13.392-44.023-5.701-65.239 5.967-16.575 17.503-31.161 22.409-48.134 5.569-19.227 2.254-39.515-1.193-59.139-3.448-19.625-7.028-39.913-1.724-59.14 5.304-19.227 21.746-37.261 42.962-38.719 19.625-1.326 37.791 12.332 46.012 29.039 8.222 16.708 8.222 35.935 6.365 54.234-1.856 18.298-5.702 36.597-4.508 55.029 2.387 37.26 24.663 72.267 22.011 109.527-1.326 19.36-9.414 31.824-23.072 46.41-11.934 12.862-31.559 21.216-49.062 17.238z" fill="#698842"/><path d="M467.562 608.168c-.265 0-.398-82.477-.398-184.181 0-101.704.133-184.181.398-184.181s.398 82.477.398 184.181c0 101.704-.266 184.181-.398 184.181zm-1.061-248.89c-.133 0-1.326-1.061-3.448-3.05-1.989-1.856-4.773-4.641-7.69-7.69-2.918-3.05-5.57-5.835-7.559-7.824-1.989-1.989-3.049-3.315-3.049-3.315.132 0 1.326 1.061 3.447 3.05 1.989 1.856 4.774 4.641 7.691 7.691s5.569 5.834 7.558 7.823a270.552 270.552 0 013.05 3.315z" fill="#0E151D"/><path d="M530 602H407v6h123v-6zm-61.377-319.895c-.133-.133 3.315-.398 7.558-3.182 2.121-1.326 4.243-3.448 6.099-6.1 1.724-2.652 3.05-5.967 3.315-9.68v-.265l.398.398c-3.713.53-6.895 2.652-9.017 5.039-2.254 2.254-3.845 4.773-5.038 6.762-1.194 2.122-2.122 3.846-2.652 5.039-.531 1.193-.929 1.856-.929 1.856s.133-.663.663-1.989c.531-1.193 1.326-3.049 2.387-5.171 1.194-2.122 2.652-4.641 5.039-7.028 2.254-2.387 5.437-4.641 9.415-5.304l.53-.132v.795c-.265 3.713-1.591 7.161-3.448 9.945-1.856 2.785-4.11 4.774-6.364 6.1-2.122 1.326-4.244 1.989-5.57 2.387-.663.132-1.326.265-1.591.265-.53.265-.795.265-.795.265z" fill="#0E151D"/><path d="M468.623 282.105c-.133-.133 2.121-3.05 5.171-6.365 3.05-3.447 5.569-6.099 5.702-5.967.132.133-2.122 3.05-5.172 6.365-2.917 3.448-5.436 6.1-5.701 5.967z" fill="#0E151D"/><path d="M794.686 386.566c-23.072-6.099-43.36-21.216-54.499-41.106-11.271-19.757-13.392-44.023-5.701-65.239 5.967-16.575 17.503-31.161 22.409-48.134 5.569-19.227 2.254-39.514-1.193-59.139-3.448-19.625-7.028-39.913-1.724-59.14 5.304-19.227 21.746-37.26 42.962-38.719 19.625-1.326 37.791 12.332 46.012 29.039 8.222 16.708 8.222 35.935 6.365 54.234-1.856 18.299-5.702 36.597-4.508 55.029 2.387 37.26 24.663 72.267 22.011 109.527-1.326 19.36-9.414 31.824-23.072 46.41-11.934 12.863-31.691 21.216-49.062 17.238z" fill="#405328"/><path d="M801.581 608.168c-.265 0-.398-82.477-.398-184.181 0-101.704.133-184.181.398-184.181s.398 82.477.398 184.181c0 101.704-.133 184.181-.398 184.181zm-1.061-248.89c-.132 0-1.326-1.061-3.447-3.05-1.989-1.856-4.774-4.641-7.691-7.69-2.917-3.05-5.569-5.835-7.558-7.824-1.989-1.989-3.05-3.315-3.05-3.315.133 0 1.326 1.061 3.448 3.05 1.989 1.856 4.773 4.641 7.69 7.691 2.918 3.05 5.57 5.834 7.559 7.823 1.989 1.989 3.182 3.315 3.049 3.315z" fill="#0E151D"/><path d="M864 602H741v6h123v-6zm-61.225-319.895c-.133-.133 3.315-.398 7.558-3.182 2.121-1.326 4.243-3.448 6.099-6.1 1.724-2.652 3.05-5.967 3.315-9.68v-.265l.398.398c-3.713.53-6.895 2.652-9.017 5.039-2.254 2.254-3.845 4.773-5.038 6.762-1.194 2.122-2.122 3.846-2.652 5.039-.531 1.193-.929 1.856-.929 1.856s.133-.663.663-1.989c.531-1.193 1.326-3.049 2.387-5.171 1.194-2.122 2.652-4.641 5.039-7.028 2.254-2.387 5.437-4.641 9.415-5.304l.53-.132v.795c-.265 3.713-1.591 7.161-3.448 9.945-1.856 2.785-4.11 4.774-6.364 6.1-2.122 1.326-4.244 1.989-5.57 2.387-.663.132-1.326.265-1.591.265-.663.265-.795.265-.795.265z" fill="#0E151D"/><path d="M802.775 282.105c-.133-.133 2.121-3.05 5.171-6.365 3.05-3.447 5.569-6.099 5.702-5.967.132.133-2.122 3.05-5.172 6.365-3.049 3.448-5.569 6.1-5.701 5.967z" fill="#0E151D"/><path d="M633.577 136.775c.796-5.701-7.16-10.342-13.26-10.873-2.917-.265-5.834.265-8.619-.795-5.834-1.989-8.221-9.68-13.923-12.067-4.243-1.856-9.282-.133-13.393 1.856-4.11 2.122-8.221 4.774-12.994 5.039-4.111.265-8.487-1.193-11.934.796-2.652 1.458-3.978 4.508-6.498 6.365-2.387 1.723-5.436 2.121-8.486 2.254-2.917.132-5.967.132-8.752 1.458-2.652 1.194-4.906 4.111-4.376 7.028l102.235-1.061z" fill="#9CCECB"/><path d="M735.414 192.733c1.061-7.559-9.68-13.791-17.636-14.454-3.845-.265-7.823.265-11.404-.928-7.823-2.785-11.005-12.862-18.696-16.177-5.702-2.387-12.332-.265-17.901 2.519-5.569 2.785-11.006 6.365-17.238 6.763-5.437.398-11.271-1.591-16.045.928-3.58 1.989-5.304 5.967-8.619 8.354-3.182 2.387-7.293 2.784-11.271 3.05-3.978.265-7.956.265-11.669 1.856-3.58 1.591-6.497 5.437-5.834 9.282l136.313-1.193z" fill="#F5F5F5"/><path d="M953.143 688.126c0 .133-134.987.398-301.532.398-166.546 0-301.533-.133-301.533-.398s134.987-.398 301.533-.398c166.545.133 301.532.266 301.532.398z" fill="#0E151D"/><path d="M611.3 607.108l6.63 28.243s-26.387 16.178-25.724 21.482l55.161-10.874-8.486-44.288-27.581 5.437z" fill="#455A64"/><path opacity=".6" d="M634.505 629.517c1.061.133 2.122 1.193 2.122 2.254s-1.061 2.122-2.254 2.122c-1.061 0-2.387-1.326-2.122-2.387.133-1.061 1.459-2.254 2.519-1.856m12.597 16.309l-.795-4.375-52.642 12.066s-2.255 1.591-1.592 3.183l55.029-10.874z" fill="#fff"/><path d="M617.002 635.086c0 .265 1.459.133 2.917.796 1.459.53 2.387 1.591 2.652 1.458.265-.132-.53-1.591-2.254-2.386-1.856-.663-3.448 0-3.315.132zm-5.304 3.58c0 .266 1.193.531 2.387 1.459 1.193.928 1.591 2.122 1.856 1.989.265 0 .133-1.591-1.326-2.785-1.326-1.06-2.917-.928-2.917-.663zm-1.989 7.559c.265 0 .398-1.459-.663-2.785-.928-1.326-2.387-1.724-2.387-1.459-.132.266.928.929 1.591 1.989.929 1.194 1.194 2.255 1.459 2.255zm6.497-17.636c.133.265 1.326-.398 2.918-.531 1.591-.265 2.784 0 2.917-.265.132-.265-1.194-1.061-3.05-.795-1.856.265-2.917 1.326-2.785 1.591zm-1.193-5.702c0 .133 1.061.133 2.785-.53.795-.266 1.723-.796 2.652-1.459.53-.398.928-.663 1.458-1.193.265-.266.531-.398.663-.796.265-.398.265-1.061-.132-1.459-.398-.397-.929-.397-1.326-.397-.398.132-.663.265-1.061.397-.531.266-1.061.531-1.591.929a11.71 11.71 0 00-2.255 2.121c-1.06 1.459-1.326 2.52-1.193 2.52s.53-.929 1.724-2.122c.53-.663 1.326-1.326 2.254-1.856.398-.266.928-.531 1.459-.796.53-.265 1.06-.398 1.193-.133.133.133.133.133 0 .266-.133.132-.265.397-.53.53-.398.398-.796.796-1.326 1.061-.929.663-1.724 1.193-2.52 1.591-1.326.928-2.387 1.193-2.254 1.326z" fill="#0E151D"/><path d="M615.411 623.152c.132 0 .398-1.061.265-2.784-.133-.929-.398-1.857-.928-2.918-.265-.53-.663-1.06-1.061-1.591-.398-.53-.928-1.193-1.989-1.061-.53.133-.928.663-1.061 1.061-.132.398-.132.796-.132 1.061 0 .663.132 1.326.397 1.856.398 1.194 1.061 1.989 1.724 2.652 1.326 1.194 2.52 1.326 2.52 1.194 0-.133-.929-.531-2.122-1.724-.53-.53-1.061-1.459-1.326-2.387-.133-.53-.265-1.061-.265-1.591 0-.663.132-1.061.265-1.061.265 0 .796.265 1.193.663.398.398.663.928.929 1.326.53.928.928 1.857 1.06 2.652.398 1.591.398 2.652.531 2.652z" fill="#0E151D"/><path d="M758.884 550.09l26.387 11.934s-3.315 30.763 1.459 33.547l24.929-50.388-40.311-20.287-12.464 25.194z" fill="#455A64"/><path opacity=".6" d="M790.841 545.316c.795-.796 2.121-.928 3.049-.265.929.663 1.061 2.121.266 3.05-.796.795-2.387 1.06-3.183.265-.795-.796-.928-2.52 0-3.183m20.686 0l-3.978-1.989-22.542 49.062s-.133 2.785 1.591 3.315l24.929-50.388z" fill="#fff"/><path d="M784.608 562.687c.266.132.929-1.061 2.387-1.857 1.326-.795 2.785-.928 2.785-1.193s-1.591-.663-3.315.398c-1.591.928-2.122 2.519-1.857 2.652zm-.397 6.364c.265.133 1.193-.663 2.652-1.06 1.458-.398 2.652 0 2.784-.266.133-.265-1.193-1.06-3.05-.663-1.856.398-2.652 1.857-2.386 1.989zm4.773 6.1c.133-.133-.928-1.193-2.519-1.193-1.724 0-2.785.795-2.652 1.06.132.266 1.193-.132 2.652-.132 1.326 0 2.387.53 2.519.265zm-10.077-15.912c.265 0 .53-1.326 1.326-2.652.795-1.326 1.723-2.254 1.591-2.387-.133-.265-1.591.398-2.387 1.989-.928 1.591-.796 3.05-.53 3.05zm-5.304-2.519c.132 0 .795-.796 1.193-2.52.265-.795.398-1.856.53-3.05v-1.856c0-.265 0-.663-.265-1.061-.132-.398-.663-.928-1.193-.795-.531 0-.928.397-1.061.795-.133.398-.265.663-.398 1.061-.132.663-.265 1.193-.265 1.856 0 1.194.133 2.255.398 3.05.53 1.724 1.193 2.52 1.326 2.52.132-.133-.398-1.061-.663-2.652-.133-.796-.265-1.857-.133-2.918 0-.53.133-1.06.265-1.723.133-.663.398-1.061.663-1.061.133 0 .133 0 .266.132.132.133.132.531.132.796.133.53.133 1.193.133 1.724 0 1.061-.133 2.121-.265 2.917-.398 1.724-.796 2.785-.663 2.785z" fill="#0E151D"/><path d="M774.133 556.587c.133-.133-.53-.928-2.122-1.856-.795-.398-1.723-.796-2.917-1.061-.53-.133-1.193-.133-1.856-.133s-1.459.133-2.122.928c-.265.531-.132 1.061.133 1.459.265.398.53.53.795.663.531.398 1.061.663 1.724.796 1.194.397 2.254.397 3.183.265 1.856-.398 2.652-1.194 2.519-1.326-.133-.133-.928.53-2.652.663-.796 0-1.724 0-2.785-.398-.53-.133-.928-.398-1.458-.796-.531-.397-.796-.795-.663-.928.132-.265.795-.53 1.326-.53h1.724c1.06.132 1.989.398 2.784.795 1.459.929 2.254 1.592 2.387 1.459z" fill="#0E151D"/><path d="M628.008 405.158l39.912 96.93c4.774 11.537 13.791 20.686 25.327 25.46l72.4 30.63 19.624-30.896-71.471-38.454-28.376-85.394c4.508-16.708-1.857-24.001-5.304-40.045l-52.112 41.769z" fill="#0E151D"/><path d="M630.129 364.45l34.874-13.393s34.741 14.453 15.78 54.101l-50.654 111.251 15.78 92.025c.132 1.06-.663 2.121-1.724 2.254l-36.598 3.05c-.928.132-1.723-.531-1.989-1.326l-25.459-91.097c-1.061-5.436-.795-11.005.928-16.177l38.985-127.959 10.077-12.729z" fill="#0E151D"/><path d="M673.622 356.494s.133 0 .398.265c.265.132.53.398 1.061.795.928.796 2.121 1.989 3.58 3.581 1.459 1.723 2.917 3.845 4.376 6.63 1.458 2.784 2.917 6.099 3.447 10.077.531 3.978.266 8.354-.53 12.862-.398 2.255-1.061 4.641-1.724 6.896-.663 2.386-1.856 4.641-2.917 7.027-4.243 9.415-9.017 19.89-13.923 30.764-9.945 21.746-18.962 41.503-25.459 55.692-3.315 7.027-5.967 12.862-7.824 16.84-.928 1.989-1.591 3.447-2.121 4.508-.265.531-.398.928-.531 1.194a1.612 1.612 0 01-.265.397s0-.132.133-.397c.132-.266.265-.663.53-1.194.531-1.061 1.194-2.652 1.989-4.641 1.857-3.978 4.376-9.812 7.558-16.973 6.498-14.32 15.382-34.078 25.327-55.824a2992.316 2992.316 0 0114.056-30.631c1.06-2.387 2.254-4.641 2.917-6.895.795-2.387 1.326-4.641 1.856-6.895.796-4.509 1.194-8.752.663-12.73-.398-3.845-1.856-7.16-3.182-9.945a44.67 44.67 0 00-4.243-6.63c-1.326-1.724-2.52-2.917-3.448-3.713-.398-.397-.796-.663-.928-.928-.796 0-.928-.132-.796-.132zm-43.493 161.904s-.397.133-1.06.265c-.663.133-1.724.266-2.918.398a24.259 24.259 0 01-9.547-1.458 24.985 24.985 0 01-8.221-5.039 13.482 13.482 0 01-1.989-2.122c-.398-.53-.663-.928-.53-.928.132-.133 1.06 1.061 2.917 2.652 1.856 1.591 4.641 3.448 8.088 4.774a26.19 26.19 0 009.282 1.723c2.52 0 3.978-.397 3.978-.265zm-.53-1.856c0 .132-3.58-.796-7.823-2.387-4.244-1.591-7.426-3.315-7.426-3.448.133-.132 3.448 1.194 7.691 2.785 4.243 1.591 7.691 2.917 7.558 3.05zm84.997-27.183s-.398.928-1.592 2.254c-1.193 1.193-3.049 2.785-5.436 3.713-2.387.928-4.774 1.193-6.498 1.193-1.723-.132-2.652-.398-2.652-.53 0-.133 1.061 0 2.652 0 1.592 0 3.978-.398 6.233-1.326 2.254-.928 4.11-2.254 5.304-3.448 1.326-1.061 1.856-1.856 1.989-1.856z" fill="#455A64"/><path d="M668.716 390.174s-.53.265-1.326.796c-.928.397-2.254.928-4.111 1.458-3.447 1.061-8.619 1.724-14.188.531-5.569-1.061-10.077-3.713-12.862-5.967-1.459-1.194-2.519-2.122-3.182-2.918-.663-.795-1.061-1.193-.929-1.193.133-.133 1.592 1.591 4.509 3.845 2.917 2.122 7.293 4.641 12.729 5.702 5.437 1.061 10.476.531 13.923-.398 3.315-.928 5.437-1.989 5.437-1.856zm44.156 99.317s-.265.133-.928.398-1.459.531-2.652.796c-2.255.53-5.57.928-9.15.663-3.58-.398-6.762-1.326-8.751-2.387-1.061-.53-1.857-.928-2.387-1.326-.531-.398-.796-.53-.796-.663s1.326.663 3.448 1.459c2.121.795 5.171 1.723 8.751 2.121 3.448.265 6.63 0 8.885-.398 2.254-.397 3.58-.795 3.58-.663zm-98.787 18.83v-.266c0-.265.132-.53.265-.928.265-.795.53-1.989.928-3.315.796-2.917 1.989-7.028 3.448-12.199 2.917-10.343 7.16-24.531 12.066-40.178 4.907-15.647 9.548-29.702 13.128-39.912a683.586 683.586 0 014.243-12.067c.53-1.326.928-2.387 1.193-3.315.133-.398.266-.663.266-.796.132-.132.132-.265.132-.265v.265c-.132.266-.132.531-.265.796-.265.796-.663 1.856-1.061 3.315a576.91 576.91 0 01-3.978 12.067c-3.315 10.21-7.956 24.265-12.862 39.912a2475.872 2475.872 0 00-12.199 40.178c-1.459 5.039-2.785 9.282-3.58 12.199-.398 1.326-.796 2.52-1.061 3.315-.133.398-.265.663-.265.796-.266.398-.398.398-.398.398zm17.636 102.234s-.133-.265-.266-.928c-.132-.663-.397-1.591-.53-2.785-.53-2.519-1.193-5.967-1.989-10.21-1.591-8.751-3.845-20.553-6.365-33.68-2.387-13.128-4.508-25.062-6.099-33.813-.796-4.243-1.326-7.691-1.724-10.21-.133-1.194-.398-2.122-.398-2.785-.133-.663-.133-.928-.133-.928s.133.265.266.928c.132.663.397 1.591.53 2.785.53 2.519 1.193 5.967 1.989 10.21 1.591 8.751 3.845 20.553 6.365 33.68 2.387 13.128 4.508 25.062 6.099 33.813.796 4.243 1.326 7.691 1.724 10.21.133 1.194.398 2.122.398 2.785.133.53.133.796.133.928zm54.896-127.296s-.398-.663-1.193-1.856c-.663-1.194-1.592-3.05-2.785-5.304-2.254-4.509-5.039-11.006-7.293-18.432-2.387-7.425-3.845-14.32-4.641-19.227-.398-2.519-.663-4.508-.796-5.967-.132-1.458-.265-2.254-.132-2.254 0 0 .132.796.398 2.122.265 1.458.53 3.447 1.06 5.967.929 5.039 2.52 11.801 4.907 19.094 2.386 7.293 5.038 13.791 7.16 18.432 1.061 2.254 1.989 4.11 2.519 5.436.531 1.194.796 1.989.796 1.989zm85.66 59.935s-.266-.132-.796-.265c-.53-.265-1.193-.663-2.122-1.193-1.856-1.061-4.375-2.52-7.558-4.376a3221.952 3221.952 0 01-24.796-15.116 1885.961 1885.961 0 01-24.531-15.382c-3.05-1.989-5.569-3.58-7.426-4.774-.795-.53-1.458-.928-1.989-1.326-.397-.265-.663-.53-.663-.53l.796.398c.53.265 1.193.663 2.122 1.193 1.856 1.061 4.375 2.652 7.558 4.509 6.365 3.978 15.116 9.282 24.663 15.116 18.564 11.669 31.692 19.89 34.742 21.746zm-34.211-225.817l-75.317-50.123-3.978-12.465 81.947 56.09-2.652 6.498z" fill="#455A64"/><path d="M587.83 310.747l-5.171 24.663-30.896 28.377 2.387 19.757 41.371-23.868c9.547-5.569 13.392-18.166 17.105-28.509l3.978-18.299" fill="#FFBE9D"/><path d="M703.722 235.96c.398-.663 1.194-.928 1.989-1.061.796-.132 1.459-.132 2.255-.265 2.519-.398 4.773-2.519 5.436-5.039a6.315 6.315 0 011.857 4.509c0 1.724-.929 3.315-2.122 4.376.928.265 1.989 0 2.652-.796-.53 2.785-2.785 5.039-5.569 5.569-2.785.531-5.702-.795-7.028-3.182" fill="#1E2150"/><path d="M704.518 239.408c0-.663 0-1.459-.133-2.122-.132-.53-.132-1.061-.397-1.458-.266-.398-.531-.796-1.061-1.061-.531-.133-1.061-.133-1.459.265a1.019 1.019 0 00-.132 1.326l-.133 1.061c.133.663-.265 1.591 0 2.254s.53 1.061 1.193 1.326a1.411 1.411 0 001.592-.265c.397-.265.397-.796.53-1.326z" fill="#DF2C2C"/><path d="M580.537 186.5c.928 3.183-.663 6.498-2.387 9.282-1.724 2.785-3.58 5.835-3.447 9.15.265 5.834 6.895 10.077 6.762 15.912 0 3.182-1.989 6.099-1.856 9.149.132 3.05 2.254 5.569 4.641 7.426 2.387 1.856 4.906 3.447 9.149 3.447L580.537 186.5z" fill="#1E2150"/><path d="M632.118 185.042c-1.06-4.906-4.508-7.956-7.425-8.487-2.917-.53-6.1-.397-8.752-1.591-2.387-1.061-4.376-3.05-6.497-4.508-5.304-3.713-12.73-4.243-18.564-1.326-5.835 2.917-9.945 9.017-10.21 15.514-.266 4.376 1.458 9.149 5.304 11.271 4.508 2.519 9.945.663 14.718-1.326 4.774-1.989 10.078-3.978 14.719-1.989 2.784 1.193 4.773 3.845 6.762 6.1 1.989 2.386 4.509 5.701 7.426 5.038 8.884-1.989 4.376-11.934 3.58-15.116l-1.061-3.58z" fill="#1E2150"/><path d="M619.787 184.644c2.652-.265 4.906 1.591 5.304 4.111l9.945 66.963c1.458 7.823-9.813 10.608-18.167 12.066l-.132-.795c-8.487 1.458-8.884 1.989-10.343-5.437-2.652-12.464-3.448-17.105-3.448-16.973 0 0-11.005.265-15.912-13.26-2.386-6.762-4.243-18.166-5.436-27.581-1.061-8.486 2.519-19.89 11.006-20.553l27.183 1.459z" fill="#FFBE9D"/><path d="M585.576 211.031c.132.929 1.061 1.592 2.121 1.459 1.061-.133 1.724-1.061 1.592-1.989-.133-.928-1.061-1.591-2.122-1.459-1.061.133-1.724 1.061-1.591 1.989zm-.531-1.989c.266.133 1.459-1.06 3.315-1.458 1.857-.398 3.581.265 3.713 0 .133-.133-.265-.531-.928-.796s-1.856-.53-3.05-.398a5.584 5.584 0 00-2.652 1.459c-.398.663-.53 1.061-.398 1.193zm19.493-.663c.132.929 1.06 1.592 2.121 1.459s1.724-1.061 1.591-1.989c-.132-.928-1.06-1.591-2.121-1.459-1.061.133-1.857 1.061-1.591 1.989zm-.531-2.652c.265.133 1.459-1.06 3.315-1.458 1.857-.398 3.58.265 3.713 0 .133-.133-.265-.531-.928-.796s-1.857-.53-3.05-.398a5.58 5.58 0 00-2.652 1.459c-.398.663-.53 1.061-.398 1.193zm-4.243 15.647c0-.132-1.193-.132-3.182 0-.531 0-.929 0-1.194-.265-.132-.398-.132-.928 0-1.459l.796-3.978c1.061-5.701 1.591-10.342 1.458-10.475-.265 0-1.193 4.508-2.254 10.343-.265 1.458-.398 2.784-.663 3.978-.132.53-.265 1.326.133 1.989.265.398.663.53.928.53h.796c1.989-.265 3.182-.53 3.182-.663z" fill="#0E151D"/><path d="M602.814 244.447s9.547-1.194 17.768-8.619c0 0-2.652 10.475-16.973 11.801l-.795-3.182zm-1.326-18.564c.53-1.061 1.591-1.724 2.917-1.857.796-.132 1.724.133 2.387.796.663.53.928 1.591.53 2.254-.398.796-1.458 1.193-2.387 1.061-.928-.133-1.856-.531-2.784-1.061-.265-.133-.531-.265-.663-.53-.133-.133-.265-.398 0-.663z" fill="#EB996E"/><path d="M605.731 221.639c-.265 0 .133 2.122-1.459 3.978-1.458 1.857-3.845 1.989-3.712 2.255 0 .132.53.265 1.458.132.928-.132 2.254-.663 3.183-1.856.928-1.061 1.193-2.387 1.06-3.315-.132-.796-.397-1.194-.53-1.194zm-3.182-19.094c.265.53 2.121-.133 4.508-.265 2.254-.265 4.243.132 4.508-.398.133-.265-.265-.663-1.193-1.061-.796-.398-2.122-.663-3.448-.53-1.326.132-2.652.53-3.315 1.061-.928.397-1.193.928-1.06 1.193zm-17.901.796c.397.397 1.723-.398 3.315-.663 1.591-.398 3.049-.266 3.182-.796.133-.265-.265-.663-.928-.928s-1.724-.398-2.785-.265c-1.061.265-1.989.795-2.387 1.326-.53.663-.53 1.06-.397 1.326z" fill="#0E151D"/><path d="M634.24 192.998c.133-3.315 2.519-10.343-6.365-14.984-3.315-1.724-7.823 1.591-10.343 1.193-10.608-1.723-17.901.398-28.509 1.194-.795 2.387.929 5.039 3.183 6.232 2.254 1.193 4.906 1.193 7.425 1.591 2.52.398 5.172 1.194 6.63 3.315 1.459 2.254 1.194 5.304 2.652 7.558 2.387 3.978 8.752 4.111 11.139 8.089 1.856 3.05.663 6.895.928 10.343.265 3.978 1.989 8.884 5.967 9.945 4.243 1.061 4.906 6.497 4.906 6.497l2.387-1.724c3.713-2.652 6.63-6.364 8.221-10.608 7.028-18.166-8.619-17.105-8.221-28.641zm80.356 11.271c.132-.796.795-1.326 1.458-1.724.663-.398 1.326-.663 2.122-1.061 2.254-1.193 3.713-3.978 3.447-6.497 1.459.663 2.785 1.989 3.183 3.58.53 1.591.265 3.448-.663 4.774.928 0 1.856-.663 2.254-1.592.398 2.785-.928 5.702-3.315 7.028-2.387 1.326-5.702 1.061-7.823-.663" fill="#1E2150"/><path d="M716.452 207.186l-.796-1.989c-.265-.398-.53-.928-.928-1.193-.398-.398-.795-.663-1.326-.663-.53 0-1.061.265-1.326.663-.265.397-.132 1.06.265 1.326l.266 1.06c.397.531.265 1.592.795 2.122.398.53.796.796 1.591.796.531 0 1.194-.266 1.459-.796.265-.265.133-.796 0-1.326z" fill="#DF2C2C"/><path d="M713.8 206.656c-.663-1.592-2.785-1.857-4.376-1.857-2.387.133-4.906.663-6.895 2.122-1.193.795-2.254 1.989-2.917 3.182-.796-1.061-2.254-1.458-3.713-1.591-2.387-.265-5.039 0-7.16 1.061-1.459.663-2.785 1.724-3.581 3.182-.795-1.061-2.386-1.458-3.712-1.591-2.387-.265-5.039 0-7.161 1.061-1.591.795-2.917 1.856-3.713 3.315-.53-1.326-1.989-2.122-3.315-2.652-2.386-.796-4.906-1.061-7.293-.531a10.116 10.116 0 00-4.243 2.255c-.132-.796-.53-1.592-1.061-2.255-1.06-1.193-2.519-1.856-3.978-2.254-3.712-1.061-8.088-.795-10.74 1.857v.795c2.121 4.111 6.895 6.63 11.536 6.1 1.591-.133 3.182-.796 3.978-2.254 2.917 3.447 8.089 4.773 12.199 3.182 1.326-.53 2.52-1.459 2.917-2.652 3.581 2.917 9.017 3.182 12.863.663.928-.663 1.856-1.724 2.121-2.785 3.58 2.52 8.752 2.652 12.332.266.928-.663 1.724-1.592 2.122-2.52 3.978 1.989 9.149 1.459 12.464-1.458.928-1.326 1.989-3.183 1.326-4.641zm-14.851 28.376c-2.254-.53-4.774-.663-6.895.133-1.194.397-2.255 1.06-3.183 1.856-.265-1.326-1.724-2.254-3.05-2.785a13.518 13.518 0 00-6.895-1.06c-1.458.265-2.784.795-3.978 1.723-.398-1.06-1.458-1.989-2.519-2.519-1.989-1.193-4.376-1.989-6.63-1.856-1.591 0-3.183.53-4.509 1.458-.132-1.193-.928-2.254-1.723-3.182-1.592-1.724-3.581-3.05-5.967-3.58-1.592-.398-3.315-.398-4.907.132 0-1.193-.795-2.519-1.723-3.447-1.592-1.724-3.581-3.05-5.967-3.581-2.255-.53-4.774-.265-6.763 1.061l.796-.265c.663 4.508 4.641 8.486 9.149 8.884 1.326.133 2.785-.132 3.58-.928 1.061 4.111 4.774 7.426 8.884 7.823 1.326.133 2.918-.132 3.846-1.193 2.121 3.713 6.63 5.967 10.873 5.171 1.193-.265 2.387-.795 3.05-1.591 2.652 3.183 7.16 4.774 11.138 3.448.796-.265 1.724-.663 2.254-1.326 3.05 3.05 8.089 3.978 11.934 1.989 1.459-.663 2.785-2.122 2.52-3.713 0-1.326-1.724-2.254-3.315-2.652z" fill="#1E2150"/><path d="M592.206 180.268c3.808 0 6.895-.059 6.895-.132 0-.074-3.087-.133-6.895-.133-3.808 0-6.895.059-6.895.133 0 .073 3.087.132 6.895.132z" fill="#0E151D"/><path d="M653.732 196.313s0 .265-.132.795c-.133.531-.398 1.194-.929 1.989-.53.796-1.326 1.592-2.519 2.255-1.193.663-2.785.928-4.508.795-1.724-.265-3.448-1.193-4.774-2.652-1.459-1.326-2.785-3.05-4.774-3.845-1.989-.796-4.243-.663-6.63-.133-2.254.531-4.773 1.326-7.425 1.194a7.13 7.13 0 01-3.713-1.061c-1.061-.796-1.856-1.857-2.387-2.917-1.061-2.255-1.591-4.509-2.917-6.1-1.326-1.724-3.315-2.519-5.171-2.917-1.857-.398-3.713-.398-5.304-.663-1.724-.133-3.183-.531-4.376-1.061-1.194-.53-2.122-1.193-2.785-1.989a3.874 3.874 0 01-1.061-1.856c-.132-.531-.132-.796-.132-.796.132 0 .132 1.061 1.458 2.387.663.663 1.592 1.326 2.785 1.856 1.193.531 2.652.796 4.376.928 1.591.133 3.447.133 5.436.531 1.857.398 4.111 1.193 5.57 3.05 1.458 1.856 1.989 4.11 3.049 6.232.531 1.061 1.194 1.989 2.255 2.652.928.663 2.121.928 3.447 1.061 2.52.132 4.906-.663 7.161-1.194 2.386-.53 4.773-.795 7.027.133 2.122.928 3.448 2.652 4.907 3.978 1.326 1.326 2.917 2.387 4.508 2.519 1.591.265 3.05 0 4.243-.663a5.829 5.829 0 002.52-2.121c.53-1.326.663-2.387.795-2.387zm-80.09 26.387c0-.132.398.796 1.724 1.194.663.265 1.458.265 2.386 0 .929-.266 1.724-1.061 2.255-2.122.53-1.061.795-2.387.397-3.845-.265-1.459-1.06-2.785-1.989-4.111-.928-1.326-2.121-2.519-3.315-3.978-1.193-1.459-2.254-3.05-2.784-4.906-.531-1.989-.265-3.978.53-5.702.663-1.724 1.724-3.182 2.785-4.508 2.121-2.52 4.11-4.774 5.967-6.498a93.56 93.56 0 014.376-4.11c1.06-.929 1.723-1.326 1.723-1.326l-1.591 1.591c-1.061.928-2.519 2.387-4.243 4.243-1.724 1.856-3.713 3.978-5.834 6.63-1.061 1.326-1.989 2.652-2.652 4.376-.663 1.591-.929 3.447-.531 5.171.531 1.724 1.591 3.315 2.652 4.641 1.194 1.326 2.387 2.652 3.315 3.978.928 1.326 1.724 2.917 1.989 4.376.265 1.459 0 3.05-.53 4.111-.663 1.193-1.591 1.989-2.652 2.254-1.061.265-1.989.132-2.652-.133s-1.061-.663-1.326-.928v-.398zm85.129 23.338c0 .132-1.326-.796-3.448-2.254-.53-.398-1.06-.796-1.723-1.194-.663-.398-1.326-.928-2.122-1.061-1.591-.397-3.448-.265-5.304.531-.928.265-1.989.265-3.05.265-2.519-.133-4.773-1.061-6.365-2.387-1.723-1.326-2.652-3.05-3.182-4.508a10.986 10.986 0 01-.663-3.713c0-.928.133-1.326.133-1.326.132 0-.266 1.989.928 4.906.53 1.459 1.591 2.917 3.182 4.243 1.591 1.194 3.713 2.122 5.967 2.255.928 0 1.857 0 2.785-.266 1.989-.795 3.978-1.06 5.702-.53.928.265 1.591.796 2.121 1.193.663.398 1.194.796 1.724 1.194 1.061.795 1.856 1.458 2.387 1.856.663.531.928.796.928.796z" fill="#1E2150"/><path d="M652.937 237.817s-.398.265-1.326.397a25.26 25.26 0 01-3.713.266c-1.591-.133-3.448-.398-5.437-1.194-.928-.398-1.989-1.061-2.519-2.254a2.913 2.913 0 01-.265-1.856c.132-.663.53-1.326 1.06-1.724 1.061-.796 2.52-.796 3.713-.265.531.265 1.061.928 1.061 1.591 0 .398-.133.795-.53.928-.266.265-.663.265-.929.265-2.121.133-4.11-.53-5.436-1.326-1.326-.795-2.254-1.856-2.785-2.519-.53-.796-.663-1.194-.663-1.194.133-.132.928 1.857 3.58 3.315 1.326.796 3.183 1.326 5.172 1.194.53 0 .795-.265.795-.663a.996.996 0 00-.663-.928c-.928-.398-2.121-.398-2.917.265-.928.663-1.061 1.856-.53 2.652.398.928 1.326 1.591 2.254 1.989a17.512 17.512 0 005.171 1.326c2.918.132 4.774-.398 4.907-.265z" fill="#1E2150"/><path d="M660.362 233.441c-.132 0-.398-1.194-1.193-2.652-.796-1.326-1.724-2.254-1.591-2.387 0-.133 1.193.663 1.989 2.122.795 1.591.928 2.917.795 2.917z" fill="#455A64"/><path d="M660.23 232.513c0 .132-1.592-.663-3.581-1.061-1.989-.398-3.712-.133-3.712-.265 0-.133 1.723-.531 3.712-.133 2.122.398 3.581 1.326 3.581 1.459zm12.331 5.436c-.132 0 .133-1.591-.928-3.182-.928-1.591-2.519-2.122-2.519-2.254 0 0 .398 0 .928.265s1.326.795 1.856 1.724c.531.795.663 1.723.663 2.386.133.663 0 1.061 0 1.061z" fill="#455A64"/><path d="M672.561 236.225c0 .133-.795-.265-1.989-.397-1.06-.133-1.989.132-1.989 0 0-.133.796-.531 1.989-.398 1.326.132 1.989.663 1.989.795zm13.658 2.255c-.132 0-.53-1.194-1.724-2.255-1.193-1.06-2.386-1.458-2.386-1.591 0-.132 1.458.133 2.652 1.194 1.326 1.326 1.591 2.652 1.458 2.652z" fill="#455A64"/><path d="M685.424 237.551c0 .133-.796.133-1.592.266-.928.265-1.591.53-1.591.53-.132-.133.531-.663 1.459-.928 1.061-.133 1.856.132 1.724.132zm14.32-.132c0 .132-.795-.398-1.856-.398-1.061-.133-1.989.133-1.989 0s.796-.53 1.989-.53c1.061.132 1.856.795 1.856.928zm-15.912-23.205c0 .132-1.193-.531-2.917-.796-1.591-.265-2.917-.132-2.917-.265s1.326-.53 3.05-.133c1.724.266 2.917 1.061 2.784 1.194z" fill="#455A64"/><path d="M682.506 213.949c0 .132-.795.397-1.591 1.06-.795.663-1.193 1.459-1.326 1.326-.132 0 .265-.928 1.061-1.723.928-.663 1.856-.796 1.856-.663zm15.249-1.326s-.132-.531-.663-1.061c-.53-.531-1.458-.928-2.519-1.061-2.254-.133-3.978.796-3.978.663-.133 0 1.591-1.193 4.111-1.061 1.193 0 2.254.531 2.784 1.194.398.795.398 1.326.265 1.326z" fill="#455A64"/><path d="M697.358 211.429c0 .133-.531.398-1.194.663-.663.398-1.193.663-1.193.531-.133-.133.398-.531 1.061-.929.663-.265 1.326-.265 1.326-.265zm15.116-2.784s-.265-.266-.928-.531c-.531-.265-1.326-.53-2.387-.663-.928-.132-1.856-.132-2.519-.132s-1.061-.133-1.061-.266c0 0 .398 0 1.061-.132.663 0 1.591-.133 2.519 0 1.061.132 1.856.398 2.519.795.663.531.929.929.796.929z" fill="#455A64"/><path d="M710.411 208.641c.295-.419.437-.827.317-.912-.12-.084-.456.188-.751.607s-.437.827-.318.911c.12.085.457-.187.752-.606zm-42.623 7.827s-.398-.398-1.061-.796c-.663-.53-1.724-.928-2.917-1.06-1.194-.133-2.387-.133-3.183 0-.795 0-1.326.132-1.326 0 0 0 .531-.133 1.326-.266.796-.132 1.989-.265 3.315-.132 1.326.132 2.387.663 3.05 1.326.663.53.796.928.796.928z" fill="#455A64"/><path d="M667.655 215.672c0 .133-.795.133-1.856.531-.928.398-1.591.928-1.724.795-.133-.132.53-.795 1.591-1.193 1.061-.53 1.989-.265 1.989-.133zm-13.923.663c-.132.133-.795-1.723-2.784-3.049-1.857-1.326-3.846-1.459-3.846-1.592 0-.132 1.989-.265 3.978 1.194 2.254 1.458 2.785 3.447 2.652 3.447z" fill="#455A64"/><path d="M655.191 215.672c0 .133-1.061 0-2.387 0s-2.387.266-2.387.133 1.061-.53 2.387-.663c1.326.133 2.387.398 2.387.53zm-65.77-31.956c0-.133.796.795 2.652 1.193 1.857.531 4.641.398 8.089 0 1.724-.132 3.58-.398 5.569-.398 1.061 0 2.122.133 3.182.531 1.061.398 1.989 1.061 2.652 1.989.266.53.531 1.061.663 1.724.133.53.133 1.06.398 1.723a12.528 12.528 0 001.724 3.183c1.459 1.856 3.713 3.315 6.232 3.713 2.52.397 5.172-.266 7.558.928 1.194.53 2.122 1.591 2.52 2.652.53 1.061.663 2.254.795 3.447.266 2.255.398 4.509 1.592 6.1.53.796 1.458 1.326 2.254 1.591.928.265 1.724.398 2.652.531.795.132 1.724.397 2.387.663.663.397 1.326.795 1.723 1.458.796 1.194.796 2.52.663 3.448-.132.928-.397 1.724-.53 2.121-.133.531-.265.663-.265.663s.398-.928.663-2.917c.132-.928 0-2.121-.663-3.315-.398-.53-.928-1.061-1.591-1.326-.663-.265-1.459-.53-2.255-.663-.795-.132-1.723-.265-2.652-.53-.928-.265-1.856-.796-2.386-1.724-1.326-1.724-1.459-3.978-1.724-6.232-.133-1.061-.398-2.254-.796-3.315a4.433 4.433 0 00-2.387-2.52c-2.254-1.06-4.906-.53-7.425-.928-2.652-.398-5.039-1.989-6.498-3.978-.795-.928-1.326-2.121-1.723-3.315-.133-.53-.266-1.193-.398-1.724-.133-.53-.265-1.06-.531-1.458-.53-.928-1.458-1.591-2.519-1.857-.928-.397-1.989-.53-3.05-.53-1.989 0-3.845.133-5.569.265-3.448.265-6.232.398-8.089-.265a7.017 7.017 0 01-1.989-.928c-.663.265-.928 0-.928 0z" fill="#455A64"/><path d="M637.422 205.727s0-.265-.132-.663c-.133-.397-.265-.928-.398-1.723-.53-1.459-1.459-3.448-3.448-5.304-1.989-1.857-5.171-3.315-8.751-3.183-.928 0-1.857.133-2.785-.132-.928-.133-1.856-.796-2.519-1.592-1.326-1.591-1.724-3.712-2.52-5.569-.795-1.989-2.254-3.447-4.11-4.243-1.724-.796-3.713-1.061-5.437-1.061-3.58.133-6.762 1.194-9.547 1.591-2.785.531-5.039.398-6.497 0-1.459-.265-2.255-.795-2.255-.795s.266 0 .531.132c.398.133.928.266 1.724.398 1.458.265 3.712.265 6.497-.132 2.652-.398 5.834-1.459 9.547-1.724 1.857 0 3.846.132 5.702 1.061 1.856.795 3.448 2.386 4.243 4.375.796 1.989 1.194 3.978 2.52 5.437.663.796 1.458 1.326 2.254 1.459.928.265 1.856.132 2.784.132 3.713-.132 6.896 1.459 8.885 3.448 1.989 1.856 3.049 4.11 3.447 5.569.265 1.591.265 2.519.265 2.519z" fill="#455A64"/><path d="M676.672 345.09l-14.188-29.039s5.569-45.217.663-58.212c-4.906-12.995-29.172-10.608-29.172-10.608l-26.122 10.343s-5.835 12.995-9.548 17.503c-3.845 4.509-7.425 24.796-3.049 42.565 1.591 6.232 7.69 12.199 12.464 16.177 3.978 3.182 6.1 8.221 5.834 13.26l-1.06 22.675c-.531 2.784-1.061 9.149 6.63 11.271 9.282 2.652 29.835-4.641 37.923-12.332 13.128-12.73 15.382-12.73 15.382-12.73 11.536-2.917 4.243-10.873 4.243-10.873z" fill="#DF2C2C"/><path d="M606.527 258.767s-11.139 8.619-13.791 16.841c-1.724 5.436-11.006 36.597-11.006 36.597l17.371 2.254 7.426-55.692z" fill="#DF2C2C"/><path d="M597.642 322.283s-.397-.531-.928-1.459c-.53-.928-1.193-2.387-1.856-4.243-1.326-3.713-2.122-9.282-1.724-15.382.398-6.099 1.724-11.403 2.652-15.249.53-1.856.928-3.447 1.326-4.508.265-1.061.53-1.591.53-1.591s-.132.663-.265 1.724c-.265 1.193-.663 2.784-1.061 4.508-.928 3.845-2.121 9.149-2.519 15.116-.398 5.967.398 11.404 1.591 15.117 1.061 3.713 2.387 5.834 2.254 5.967zm15.912-5.702c0 .133-.928-.265-2.386-.928-.663-.398-1.592-.796-2.387-1.591-.796-.663-1.459-1.724-2.122-2.785-1.061-2.254-1.326-4.508-1.458-5.967-.133-1.591-.266-2.519-.133-2.519s.398.928.663 2.519c.265 1.591.53 3.713 1.591 5.834.531 1.061 1.194 1.989 1.857 2.652.795.663 1.458 1.194 2.121 1.592 1.459.663 2.387 1.193 2.254 1.193zm56.753 30.498c.133 0 .531.53.796 1.459.398 1.06.663 2.519.53 4.11-.132 1.591-.663 3.05-1.193 3.978-.531.928-1.061 1.459-1.061 1.326-.133-.132 1.326-2.254 1.591-5.436.398-2.918-.795-5.304-.663-5.437zm-10.21-2.254c0-.133 1.061.265 2.387 1.193s3.05 2.652 4.243 4.906c1.193 2.255 1.459 4.641 1.326 6.365-.133 1.724-.398 2.652-.53 2.652-.133 0 .132-1.061 0-2.652 0-1.591-.398-3.845-1.459-5.967-1.061-2.121-2.652-3.845-3.845-4.773-1.326-1.194-2.255-1.592-2.122-1.724z" fill="#0E151D"/><path d="M628.273 266.326s-.265.397-.928 1.193c-.663.663-1.591 1.724-2.917 2.785-2.652 2.121-6.896 4.641-12.2 5.701-5.171 1.061-10.077.398-13.392-.53-1.724-.53-2.917-1.061-3.846-1.459-.928-.397-1.326-.663-1.326-.795 0-.133 1.989.795 5.304 1.724 3.315.795 8.089 1.326 13.128.397 5.039-1.06 9.282-3.315 11.934-5.304 2.784-2.254 4.11-3.845 4.243-3.712zm-35.006 31.293c0 .133-1.724.398-3.713 0-1.989-.53-3.315-1.591-3.315-1.724.132-.132 1.591.531 3.447 1.061 1.989.531 3.581.531 3.581.663zm11.934 6.895c-.133.133-2.387-1.06-5.57-1.591-3.182-.53-5.701-.132-5.834-.398 0-.132 2.652-.795 5.967-.265 3.182.663 5.437 2.122 5.437 2.254zm13.26 4.244c0 .132-2.785 1.06-6.233.53-3.58-.53-5.967-2.254-5.834-2.387.133-.132 2.519 1.194 5.967 1.724 3.315.398 5.967-.133 6.1.133zm-6.63 20.818c0 .132-1.989.795-4.641.53-2.52-.265-4.509-1.061-4.376-1.193 0-.133 1.989.398 4.508.53 2.52.265 4.509 0 4.509.133zm52.377-20.686c.132.133-2.387 2.652-6.498 4.111-4.11 1.458-7.691 1.193-7.558 1.061 0-.266 3.448-.266 7.293-1.724 3.978-1.459 6.63-3.713 6.763-3.448zm-1.989 40.576l-1.459 1.458c-1.061.929-2.519 2.122-4.508 3.581-3.846 2.917-9.68 6.364-16.841 8.619-3.58 1.06-7.027 1.723-10.21 1.856-3.182.133-6.099 0-8.486-.398-2.387-.398-4.243-.928-5.569-1.458-1.326-.398-1.989-.663-1.989-.796 0 0 .795.133 1.989.53 1.326.398 3.182.796 5.569 1.194 4.773.795 11.536.53 18.564-1.591 7.028-2.122 12.729-5.57 16.707-8.354 1.989-1.326 3.581-2.52 4.641-3.448.929-.795 1.592-1.193 1.592-1.193zm5.106-.787c1.084-.178 1.934-.498 1.898-.715-.035-.217-.943-.248-2.027-.071-1.084.178-1.934.498-1.898.715.036.217.943.248 2.027.071zm10.408-.009c-.133.133-1.326-.53-3.05-.398-1.591 0-2.917.663-2.917.531-.133-.133 1.061-1.194 2.917-1.194 1.989-.132 3.182.929 3.05 1.061zm-24.531-13.658c.132.133-2.254 1.857-5.702 2.918-3.448 1.06-6.365 1.06-6.365.928 0-.265 2.785-.531 6.1-1.591 3.447-.929 5.967-2.387 5.967-2.255z" fill="#FAFAFA"/><path d="M560.117 386.329l-45.88 178.347 12.067 3.845 46.542-191.74-12.729 9.548zm153.816-33.15s12.331 4.11 21.879-7.293c9.547-11.404 2.386-28.642 2.386-28.642l2.652-6.497s48.93 17.635 54.764 22.409c1.459 1.193 2.122 3.978.796 7.558-4.509 12.067-19.227 52.775-26.653 52.775-9.017 0-60.996-31.691-60.996-31.691l5.172-8.619z" fill="#DF2C2C"/><path d="M607.72 256.513c-.398.265-1.193.928-1.989 2.122-2.387 3.315-3.978 10.343-4.111 20.951-.397 29.702 107.009 82.477 107.009 82.477l5.171-8.752s-79.162-43.89-101.174-67.493c-5.171-5.569-7.956-12.862-7.425-20.421 0-.397 0-.663.132-1.06.531-4.509 2.52-6.896 2.52-6.896l-.133-.928z" fill="#455A64"/><path d="M739.922 313.133h.265c.266 0 .531.133.929.266.795.265 1.989.53 3.447 1.06a315.59 315.59 0 0112.597 4.111c2.652.928 5.569 1.856 8.619 3.05.796.265 1.591.53 2.387.928s1.459 1.061 1.989 1.724 1.061 1.591 1.193 2.519c.133.928.133 1.989-.132 2.917-.531 1.857-1.326 3.581-1.989 5.304-.663 1.857-1.459 3.581-2.254 5.57-1.459 3.712-3.05 7.558-4.641 11.536-1.592 3.978-2.918 7.956-5.172 11.403-1.061 1.724-2.519 3.315-4.243 4.376-1.724 1.061-3.845 1.459-5.702 1.194-1.856-.133-3.713-.796-5.304-1.326-1.591-.531-3.315-1.194-4.773-1.724-3.05-1.061-5.967-2.122-8.619-3.05-5.172-1.856-9.415-3.448-12.465-4.508-1.458-.531-2.519-.929-3.315-1.326-.398-.133-.663-.266-.928-.398-.133-.133-.265-.133-.265-.133s.132 0 .265.133c.265.132.53.132.928.265.796.265 1.989.663 3.448 1.193 3.05 1.061 7.293 2.52 12.597 4.376 2.652.928 5.569 1.989 8.619 3.05 1.591.53 3.182 1.061 4.773 1.724 1.592.53 3.315 1.193 5.172 1.326 1.856.265 3.713-.133 5.304-1.061 1.591-.928 2.917-2.387 3.978-4.111 2.121-3.315 3.447-7.425 5.039-11.271 1.591-3.978 3.182-7.823 4.641-11.536.795-1.856 1.458-3.713 2.254-5.569.663-1.856 1.458-3.58 1.989-5.304.265-.796.398-1.724.132-2.519-.132-.796-.53-1.592-1.06-2.255-.531-.663-1.194-1.193-1.857-1.591-.663-.398-1.458-.663-2.254-.928-3.05-1.193-5.967-2.122-8.619-3.05-5.304-1.856-9.547-3.315-12.597-4.243-1.459-.53-2.652-.796-3.448-1.193-.53-.796-1.06-.929-.928-.929z" fill="#0E151D"/><path d="M795.482 333.421s0 .133-.133.265a6.507 6.507 0 00-.398.929c-.398.795-.928 1.989-1.458 3.315a295.302 295.302 0 00-5.304 12.464c-2.122 5.304-4.774 11.536-7.559 18.564-1.458 3.448-2.917 7.16-4.641 10.873-.928 1.857-1.723 3.713-2.917 5.569a9.21 9.21 0 01-1.061 1.326c-.53.398-1.06.531-1.723.663-1.194.133-2.255-.132-3.315-.397-4.244-1.194-8.089-3.05-11.934-4.641-3.713-1.592-7.426-3.315-10.874-4.907-6.895-3.182-12.862-6.364-17.901-9.016-5.038-2.652-9.016-5.039-11.801-6.63-1.326-.796-2.387-1.459-3.182-1.857-.266-.265-.531-.398-.796-.53-.133-.133-.265-.133-.265-.133s.132 0 .265.133l.796.398c.795.397 1.856 1.06 3.182 1.856 2.785 1.591 6.895 3.845 11.934 6.497a389.303 389.303 0 0018.034 8.885c3.447 1.591 7.027 3.182 10.873 4.906 3.845 1.591 7.691 3.447 11.801 4.641 1.061.265 2.122.398 3.05.398.53 0 .928-.133 1.326-.531s.663-.663.928-1.193c1.194-1.724 2.122-3.58 2.917-5.437 1.724-3.713 3.183-7.425 4.641-10.873 2.918-7.028 5.437-13.26 7.691-18.564 2.254-5.304 4.111-9.415 5.569-12.332.663-1.458 1.194-2.519 1.592-3.315.132-.398.265-.663.397-.795l.266-.531z" fill="#0E151D"/><path d="M605.598 257.044s.266 14.586 5.702 11.934c5.437-2.652 22.807-21.747 22.807-21.747l-18.696 2.652-9.813 7.161z" fill="#FFBE9D"/><path d="M514.059 672.085c.14-.169-2.817-2.835-6.605-5.954-3.787-3.119-6.971-5.51-7.11-5.341-.14.17 2.817 2.836 6.604 5.955 3.788 3.119 6.971 5.51 7.111 5.34zm5.117-10.825c.044-.215-3.817-1.187-8.624-2.169-4.807-.983-8.739-1.605-8.783-1.39-.044.215 3.817 1.186 8.624 2.169 4.807.983 8.739 1.605 8.783 1.39zm-10.275-9.569c4.719-1.344 8.496-2.604 8.436-2.816-.061-.211-3.935.707-8.654 2.051-4.719 1.344-8.496 2.605-8.436 2.816.06.211 3.934-.707 8.654-2.051zm-21.662 4.465c.029-.218-3.89-.923-8.754-1.574-4.863-.651-8.829-1.002-8.859-.784-.029.217 3.89.922 8.754 1.573 4.863.651 8.829 1.002 8.859.785zm15.837-11.508c2.415-4.272 4.218-7.822 4.026-7.93-.191-.108-2.304 3.267-4.719 7.538-2.415 4.271-4.217 7.821-4.026 7.93.191.108 2.304-3.267 4.719-7.538zm-13.562 7.591c.147-.164-2.704-2.944-6.366-6.209-3.662-3.265-6.75-5.78-6.896-5.616-.146.164 2.704 2.944 6.366 6.21 3.663 3.265 6.75 5.779 6.896 5.615zm-7.083 13.699c4.422-2.126 7.93-4.01 7.835-4.208-.095-.198-3.758 1.365-8.18 3.491-4.422 2.125-7.93 4.009-7.835 4.207.095.198 3.757-1.365 8.18-3.49zm6.25 5.363c2.944-3.925 5.188-7.214 5.012-7.346-.175-.131-2.704 2.944-5.648 6.869-2.944 3.925-5.188 7.214-5.013 7.346.176.132 2.705-2.943 5.649-6.869zm9.943 10.26c.218-.03-.142-3.995-.804-8.857-.661-4.862-1.374-8.779-1.591-8.75-.218.03.142 3.995.803 8.857.661 4.862 1.374 8.78 1.592 8.75zm-5.168-31.035c.218-.029-.142-3.995-.803-8.857-.662-4.862-1.374-8.779-1.592-8.749-.218.029.142 3.995.803 8.857.662 4.862 1.375 8.779 1.592 8.749z" fill="#E0E0E0"/><path d="M494.347 667.308c5.419 0 9.812-4.393 9.812-9.812 0-5.42-4.393-9.813-9.812-9.813s-9.812 4.393-9.812 9.813c0 5.419 4.393 9.812 9.812 9.812z" fill="#455A64"/><path d="M494.347 628.191c-16.575 0-29.968 13.393-29.968 29.968s13.393 29.967 29.968 29.967 29.968-13.392 29.968-29.967c0-16.443-13.393-29.968-29.968-29.968zm0 51.714c-12.332 0-22.409-9.945-22.409-22.409 0-12.465 9.945-22.41 22.409-22.41 12.332 0 22.409 9.945 22.409 22.41 0 12.464-10.077 22.409-22.409 22.409z" fill="#0E151D"/><path d="M493.949 640.258l-3.978 14.453c-.663 2.519.796 5.039 3.315 5.834 2.52.663 5.039-.795 5.835-3.182l4.243-14.453-9.415-2.652zm77.041-256.184l1.856-7.823s-41.106-10.608-52.907 12.199l1.458 1.326s5.437-6.63 20.951-6.365c15.514.133 19.095 3.713 19.095 3.713l9.547-3.05z" fill="#0E151D"/><path opacity=".4" d="M560.117 386.329l-45.88 178.347 12.067 3.845 46.542-191.74-12.729 9.548z" fill="#000"/><path d="M744.452 672.121c.14-.17-2.818-2.836-6.605-5.955-3.787-3.119-6.971-5.51-7.111-5.341-.139.17 2.818 2.836 6.605 5.955 3.788 3.119 6.971 5.51 7.111 5.341zm5.103-10.786c.044-.215-3.817-1.187-8.624-2.17-4.807-.982-8.739-1.605-8.783-1.389-.044.215 3.817 1.186 8.624 2.169 4.807.983 8.739 1.605 8.783 1.39zm-10.215-9.563c4.719-1.343 8.495-2.604 8.435-2.815-.06-.212-3.934.706-8.653 2.05-4.718 1.344-8.495 2.605-8.435 2.816.061.212 3.935-.707 8.653-2.051zm-21.714 4.442c.029-.218-3.89-.923-8.754-1.574-4.863-.651-8.829-1.002-8.858-.784-.03.217 3.889.922 8.753 1.573 4.863.651 8.829 1.002 8.859.785zm15.84-11.532c2.415-4.271 4.218-7.821 4.026-7.929-.191-.109-2.304 3.266-4.719 7.537-2.415 4.272-4.217 7.822-4.026 7.93.191.108 2.304-3.267 4.719-7.538zm-13.56 7.579c.146-.164-2.704-2.944-6.366-6.21-3.663-3.265-6.75-5.779-6.896-5.615-.146.164 2.704 2.944 6.366 6.209 3.662 3.265 6.75 5.78 6.896 5.616zm-6.987 13.662c4.422-2.126 7.93-4.01 7.835-4.208-.096-.198-3.758 1.365-8.18 3.491-4.422 2.126-7.93 4.01-7.835 4.208.095.198 3.757-1.365 8.18-3.491zm6.259 5.489c2.944-3.925 5.188-7.214 5.012-7.346-.175-.132-2.704 2.944-5.648 6.869-2.944 3.925-5.189 7.214-5.013 7.346.176.132 2.705-2.943 5.649-6.869zm9.916 10.271c.217-.029-.142-3.995-.804-8.857-.661-4.861-1.374-8.779-1.591-8.749-.218.029.142 3.995.803 8.857.661 4.862 1.374 8.779 1.592 8.749zm-5.184-31.167c.217-.029-.142-3.995-.804-8.856-.661-4.862-1.374-8.78-1.592-8.75-.217.029.142 3.995.804 8.857.661 4.862 1.374 8.779 1.592 8.749z" fill="#E0E0E0"/><path d="M724.806 667.441c5.419 0 9.812-4.394 9.812-9.813 0-5.419-4.393-9.812-9.812-9.812s-9.813 4.393-9.813 9.812 4.394 9.813 9.813 9.813z" fill="#455A64"/><path d="M724.806 628.324c-16.575 0-29.968 13.392-29.968 29.967s13.393 29.968 29.968 29.968 29.967-13.393 29.967-29.968-13.392-29.967-29.967-29.967zm0 51.581c-12.332 0-22.41-9.945-22.41-22.409 0-12.465 9.945-22.41 22.41-22.41 12.332 0 22.409 9.945 22.409 22.41 0 12.464-10.077 22.409-22.409 22.409z" fill="#0E151D"/><path d="M535.718 651.529c0 2.254 1.857 4.11 4.111 4.11h153.285s5.967-27.05 31.692-27.315c17.768-.133 25.989 11.536 29.437 18.564 1.193 2.386 4.243 3.049 6.365 1.326 1.458-1.194 1.856-3.315.928-5.039-3.448-6.498-14.056-22.675-36.73-22.675-29.968.133-38.454 27.846-38.454 27.846l-146.523-.928c-2.254 0-4.111 1.856-4.111 4.111z" fill="#DF2C2C"/><path d="M563.564 668.104h159.783a6.225 6.225 0 006.232-6.233 6.225 6.225 0 00-6.232-6.232H541.022l3.978 4.243c4.774 5.304 11.536 8.222 18.564 8.222z" fill="#0E151D"/><path d="M478.833 627.926c-1.061-1.591-.531-3.713 1.193-4.641 5.304-2.785 16.84-7.028 31.029-1.194 15.249 6.233 22.409 22.41 21.879 35.935-.133 1.856-1.592 3.182-3.448 3.182-1.724 0-3.182-1.326-3.315-3.049-.663-7.028-3.713-24.266-19.36-29.703-11.536-3.978-20.155-1.458-24 .398-1.326.928-3.05.398-3.978-.928z" fill="#DF2C2C"/><path opacity=".4" d="M478.833 627.926c-1.061-1.591-.531-3.713 1.193-4.641 5.304-2.785 16.84-7.028 31.029-1.194 15.249 6.233 22.409 22.41 21.879 35.935-.133 1.856-1.592 3.182-3.448 3.182-1.724 0-3.182-1.326-3.315-3.049-.663-7.028-3.713-24.266-19.36-29.703-11.536-3.978-20.155-1.458-24 .398-1.326.928-3.05.398-3.978-.928z" fill="#000"/><path d="M490.236 644.103l14.852 4.111 9.679-33.018c.398-1.326 1.989-1.591 2.785-.53l28.907 35.271h20.818l-45.614-56.885 6.364-27.581-14.453-3.58-23.338 82.212z" fill="#DF2C2C"/><path d="M686.352 648.346c0 .133-32.885.133-73.593-.132-40.576-.266-73.593-.663-73.593-.796s32.885-.133 73.593.133c40.708.265 73.593.663 73.593.795zm191.076-56.62l-.397.398c-.266.265-.663.663-1.326 1.193-1.194 1.061-3.183 2.254-6.1 3.05a15.553 15.553 0 01-10.741-.928c-3.845-1.857-7.425-5.835-8.619-11.271-.265-1.326-.397-2.785-.265-4.111.133-1.458.398-2.917.928-4.243a18.303 18.303 0 015.304-7.426c2.387-1.989 5.437-3.58 8.752-4.375 3.315-.796 6.895-.929 10.343-.266 7.028 1.326 13.923 5.702 17.768 12.597 3.713 6.763 4.376 15.647.928 23.205-1.723 3.713-4.375 7.028-7.425 9.548-3.05 2.519-6.498 4.508-10.078 5.967-7.16 2.917-14.586 4.243-21.614 4.906-14.055 1.326-26.917.132-37.393-1.857-10.475-1.989-18.696-4.906-24.266-7.027-5.569-2.255-8.486-3.846-8.486-3.846s.133 0 .53.265c.398.133.929.398 1.592.663 1.458.663 3.58 1.459 6.364 2.652 5.57 2.122 13.791 4.907 24.266 6.763a133.416 133.416 0 0037.261 1.724c7.028-.531 14.321-1.989 21.481-4.906 3.448-1.459 6.895-3.448 9.945-5.967a27.68 27.68 0 007.293-9.282c3.315-7.293 2.785-16.045-.928-22.675-3.713-6.63-10.476-11.006-17.238-12.199a23.387 23.387 0 00-10.078.265c-3.182.796-6.099 2.254-8.486 4.243-2.387 1.989-4.243 4.509-5.172 7.161-.53 1.326-.795 2.784-.928 4.11-.132 1.326 0 2.785.265 3.978 1.061 5.172 4.509 9.15 8.222 11.006 3.845 1.856 7.69 1.724 10.475 1.061 2.917-.663 4.906-1.989 6.1-2.917 1.193-.796 1.723-1.459 1.723-1.459zm22.41 33.68s-.265.266-.796.531c-.663.398-1.458.795-2.519 1.458-.531.266-1.194.663-1.857 1.061-.663.398-1.458.663-2.254 1.061-1.591.796-3.447 1.724-5.569 2.519-1.061.398-2.122.796-3.315 1.326-1.193.398-2.387.796-3.713 1.194-2.519.928-5.304 1.591-8.221 2.254-5.834 1.326-12.332 2.387-19.227 2.785-6.895.265-13.525-.133-19.492-.796-2.917-.53-5.835-.796-8.354-1.459-1.326-.265-2.519-.53-3.713-.795-1.193-.398-2.387-.663-3.447-.928-2.255-.531-4.111-1.326-5.835-1.857l-2.387-.795-1.989-.796a35.258 35.258 0 00-2.652-1.193c-.663-.266-.928-.398-.928-.398s.398.132.928.265c.663.265 1.592.663 2.652 1.061.531.265 1.194.53 1.989.795a24.77 24.77 0 002.387.796c1.724.53 3.58 1.326 5.835 1.856 1.06.266 2.254.663 3.447.929 1.194.265 2.387.53 3.713.795 2.519.663 5.437.928 8.354 1.459 5.967.663 12.464 1.061 19.359.795 6.896-.397 13.393-1.326 19.095-2.652 2.917-.795 5.702-1.326 8.088-2.254 1.194-.398 2.52-.795 3.581-1.193 1.193-.398 2.254-.796 3.315-1.194 2.121-.795 3.978-1.723 5.569-2.386.795-.398 1.591-.663 2.254-1.061.663-.398 1.326-.663 1.856-.928 1.061-.531 1.989-.929 2.652-1.326.929-.796 1.194-.929 1.194-.929z" fill="#0E151D"/><path d="M563.829 374.262l58.477-16.177c9.547-5.569 16.84-14.321 20.553-24.664l16.973-47.205c1.326-3.05 2.519-5.967 2.784-7.559 1.194-5.436 1.326-16.442-1.989-21.216-1.723-2.519-4.11-5.701-8.884-6.63-7.823-1.591-16.575.398-21.746 13.791l-17.901 66.3-50.256 26.918 1.989 16.442z" fill="#FFBE9D"/><path d="M620.98 290.194c-.663-.398 5.702-5.967 10.475-7.691 2.918-1.061 17.106-3.713 22.41 2.519 6.365 7.691 1.856 15.249 1.856 15.249s1.194-.663 2.917-3.845c2.652-4.906 5.57-16.177 5.57-16.177s4.508-26.52-8.487-30.101c-12.995-3.58-20.685.398-22.409 3.581-1.724 3.182-12.332 36.465-12.332 36.465z" fill="#DF2C2C"/><path d="M653.334 304.912s.266-.795.929-1.989c.663-1.326 1.591-3.182 2.254-5.702.663-2.386 1.061-5.701-.398-8.751s-4.641-5.304-8.354-6.498c-1.856-.53-3.713-.663-5.569-.663-1.856-.132-3.58 0-5.304.133a30.13 30.13 0 00-8.619 2.387c-2.387 1.061-3.978 2.387-4.906 3.447-.928 1.061-1.194 1.857-1.326 1.857 0 0 0-.133.265-.531.133-.397.398-.795.928-1.458.796-1.194 2.52-2.652 4.906-3.713 2.387-1.061 5.304-2.122 8.752-2.652 1.724-.265 3.58-.265 5.437-.265 1.856.132 3.845.132 5.834.795 3.845 1.194 7.16 3.581 8.752 6.896 1.458 3.315 1.06 6.63.265 9.149-.796 2.519-1.857 4.376-2.52 5.569-.397.663-.663 1.061-.795 1.459l-.531.53zm-27.788-29.575c2.01-6.123 3.47-11.142 3.261-11.211-.209-.069-2.007 4.84-4.017 10.962-2.01 6.123-3.471 11.143-3.262 11.211.209.069 2.007-4.839 4.018-10.962zm24.208-25.852c0 .133-1.193-.397-3.182-.663-1.989-.265-4.774-.265-7.691.929-2.917 1.06-5.039 2.917-6.365 4.508-1.326 1.459-1.856 2.652-1.989 2.652 0 0 .398-1.193 1.591-2.917 1.194-1.591 3.448-3.713 6.498-4.774 3.05-1.193 5.967-1.061 7.956-.663 2.121.265 3.182.928 3.182.928zm13.347 31.997c1.126-8.569 1.862-15.538 1.644-15.566-.218-.029-1.307 6.894-2.433 15.462s-1.862 15.537-1.645 15.565c.218.029 1.308-6.893 2.434-15.461z" fill="#0E151D"/><path d="M537.84 367.499a4.273 4.273 0 00-1.857 5.304l5.304 13.658c.929 1.459 2.785 1.989 4.376 1.326 3.978-1.724 8.619-3.05 9.945-5.569.928-1.989-1.458-2.917-1.458-2.917l-8.885.928-1.06-8.354 7.823-2.784s1.061 5.701 3.845 7.425c3.846 2.387 12.597-3.315 12.597-3.315l-5.304-15.647-14.453 3.448-10.873 6.497z" fill="#FFBE9D"/><path d="M554.813 370.284s-2.255 11.669-1.459 13.525c.53 1.459 5.039 1.989 5.304-1.591.663-7.426 2.387-5.569 5.039-5.967 2.652-.398 5.436-3.845 3.58-6.63-2.917-4.243-12.464.663-12.464.663z" fill="#FFBE9D"/><path d="M545.398 380.229c0-.133.928-.265 2.387-.53.795-.133 1.724-.266 2.652-.398 1.061-.133 2.121-.265 3.315-.133.265 0 .663.133.928.398s.53.53.663.796c.265.663.265 1.193.133 1.723-.133.531-.266 1.061-.663 1.459-.266.398-.796.663-1.061.796-1.326.795-2.254 1.06-2.254.928 0-.133.795-.531 1.989-1.326.265-.265.663-.398.795-.796.265-.265.398-.795.398-1.193.133-.928-.133-1.989-1.193-2.122-1.061-.132-2.122 0-3.183.133-.928.132-1.856.132-2.652.132-1.326.133-2.254.133-2.254.133zm-.265.265c-.265 0-.398-1.989-1.061-4.11-.663-2.255-1.724-3.846-1.591-3.978.132-.133 1.458 1.458 2.254 3.845.796 2.254.53 4.243.398 4.243z" fill="#EB996E"/><path d="M551.014 380.115a5.57 5.57 0 10-4.57-10.158 5.57 5.57 0 004.57 10.158z" fill="#455A64"/><path d="M663.412 268.049c-.133 0-.928-2.254-2.785-5.701-.928-1.724-2.121-3.713-3.978-5.304-1.856-1.724-4.508-2.918-7.293-3.183-2.917-.398-5.701 0-8.088.796-2.387.663-4.509 1.724-6.232 2.652-1.724.928-3.05 1.724-3.978 2.387-.929.53-1.459.928-1.459.795 0 0 .398-.398 1.326-1.061.928-.663 2.122-1.591 3.845-2.519 1.724-.928 3.713-1.989 6.233-2.785 2.519-.795 5.436-1.193 8.353-.795 3.05.398 5.702 1.591 7.691 3.447 1.989 1.724 3.183 3.846 3.978 5.57.928 1.723 1.459 3.182 1.857 4.243.397.795.53 1.326.53 1.458zm-1.459 15.515c-.132.132-.53-2.387-3.049-5.304-1.194-1.459-3.05-2.918-5.172-4.111-2.254-1.193-4.906-1.856-7.823-2.122-5.835-.53-11.139 1.061-14.719 2.255-1.856.663-3.315 1.193-4.243 1.591-1.061.398-1.591.53-1.591.53s.53-.265 1.458-.795c.929-.398 2.387-1.061 4.244-1.724 3.58-1.326 8.884-3.05 14.983-2.52 2.918.266 5.835 1.061 8.089 2.255 2.254 1.193 4.111 2.784 5.304 4.375 1.193 1.592 1.856 3.05 2.254 3.978.133.531.265.929.398 1.194-.133.265-.133.398-.133.398z" fill="#FAFAFA"/><path d="M625.754 335.278s-.266-.266-.796-.663c-.53-.398-1.193-1.194-2.254-1.857-2.254-1.193-5.967-1.724-10.476-1.724h.133c-3.315 1.724-7.028 3.846-11.138 6.233a870.77 870.77 0 00-13.26 7.425c-9.415 5.304-18.034 9.68-24.664 12.995-4.376 1.061-7.956 1.856-10.608 2.387-1.193.265-2.122.53-2.917.663-.663.132-1.061.132-1.061.132s.398-.132.928-.265a25.675 25.675 0 002.917-.795c2.52-.663 6.1-1.592 10.476-2.652 6.497-3.448 15.249-7.956 24.531-13.128a870.77 870.77 0 0113.26-7.425c4.11-2.255 7.956-4.376 11.138-6.1 4.509.133 8.354.663 10.608 1.989 1.061.663 1.724 1.459 2.254 1.989.663.53.929.796.929.796z" fill="#EB996E"/><path d="M383.891 629.252c3.05.53 5.702 2.387 7.426 4.906 1.724 2.519 2.652 5.569 3.05 8.486.795 5.835-.929 12.465-3.183 17.901-5.834-2.917-8.884-9.945-10.21-13.525-1.989-5.702-2.254-17.37 2.917-17.768zm15.249 39.249c-1.591-3.049-1.193-6.895.663-9.679 1.857-2.785 5.039-4.641 8.487-5.304 1.591-.266 3.315-.266 4.508.795 1.061.928 1.459 2.652 1.061 4.111-.265 1.458-1.194 2.652-2.254 3.713-3.315 3.58-7.426 6.497-12.465 6.364z" fill="#698842"/><path d="M397.549 687.463s-.133-.398-.133-1.193c0-.796-.132-1.989-.265-3.315-.132-2.785-.53-6.763.663-10.873 1.061-4.244 3.183-7.559 5.172-9.548 1.06-.928 1.989-1.723 2.652-2.121.265-.265.663-.398.795-.398.133-.133.265-.133.265-.133 0 .133-1.591.796-3.447 2.785-1.989 1.989-3.978 5.304-5.039 9.415-1.061 4.11-.796 7.956-.796 10.74 0 1.459.133 2.52.133 3.315.133.928.133 1.326 0 1.326z" fill="#0E151D"/><path d="M384.819 638.136s.133.133.133.53c.133.398.265.796.53 1.459.398 1.193.929 3.05 1.592 5.304 1.326 4.508 3.049 10.741 4.906 17.768 1.724 6.896 3.315 13.26 4.243 17.901.53 2.255.928 4.111 1.193 5.437.133.663.266 1.061.266 1.459 0 .397.132.53.132.53s-.132-.133-.132-.53a21.274 21.274 0 01-.398-1.459c-.265-1.326-.796-3.182-1.326-5.437-1.061-4.508-2.652-10.873-4.376-17.768-1.724-6.895-3.448-13.26-4.774-17.768-.663-2.255-1.06-3.978-1.458-5.304a10.77 10.77 0 00-.398-1.459c0-.53-.133-.663-.133-.663z" fill="#0E151D"/><path d="M391.847 674.071c-2.917-6.63-9.149-11.537-16.177-12.995-1.856-.398-3.978-.265-5.039 1.193-1.061 1.591-.132 3.58.928 5.039 4.509 6.232 12.995 9.149 20.288 7.16" fill="#698842"/><path d="M377.792 666.38s.397 0 1.193.132c.398.133.796.133 1.326.266.53.132 1.061.265 1.724.53l1.989.796c.663.265 1.458.663 2.254 1.193 1.459.928 3.05 1.989 4.508 3.448 1.459 1.458 2.652 2.917 3.581 4.508.397.796.795 1.459 1.193 2.122.398.663.663 1.326.796 1.989.265.663.397 1.193.53 1.723.133.531.265.929.265 1.326.133.663.133 1.061.133 1.194-.133 0-.398-1.591-1.326-3.978-.265-.663-.531-1.326-.928-1.989-.266-.663-.796-1.459-1.194-2.122-.928-1.458-2.121-2.917-3.447-4.376-1.459-1.326-2.918-2.519-4.376-3.447-.796-.398-1.459-.796-2.122-1.194-.663-.397-1.326-.663-1.989-.795-2.519-.928-4.11-1.326-4.11-1.326z" fill="#0E151D"/><defs><linearGradient id="paint0_linear" x1="989" y1="760" x2="466.5" y2="236.5" gradientUnits="userSpaceOnUse"><stop stop-color="#fff" stop-opacity=".64"/><stop offset=".305" stop-color="#fff" stop-opacity=".79"/><stop offset="1" stop-color="#fff"/></linearGradient></defs></svg>