<svg width="639" height="884" fill="none" xmlns="http://www.w3.org/2000/svg"><path d="M416.952 401.344c12.734-54.409 36.548-237.844 53.5-278.943C523.51-6.238 598.94-62.325 639.862-4.5c26.819 37.897-2.258 465.382 0 511.754 4.91 100.836 44.881 154.6 39.814 255.428-1.649 32.816-29.503 86.937-39.814 91.416-71.001 30.842-229.417 0-323.345 0-71.661 0-268.565 48.746-304.565 19.746-36-29 13.666-93.244 91-136 77.333-42.757 195.983-76.549 259.5-161.5 47.168-63.086 43.5-128 54.5-175z" fill="url(#paint0_linear)"/><path d="M508.283-47.53c24.961-19.227 54.307 9.18 83.983-3.202 19.355-8.076 21.847-26.242 42.444-31.256 19.897-4.843 34.426-2.776 52.717 6.693 40.254 20.84-22.469 83.21 15.37 107.728 29.461 19.09 67.663-25.928 90.831-.411 28.295 31.163-27.602 58.18-57.202 86.819-41.769 40.412-76.006 81.756-135.908 68.824-62.656-13.526-68.933-71.847-92.93-127.459-11.894-27.563-30.298-44.773-22.186-73.01 4.436-15.438 9.717-24.587 22.881-34.727z" fill="#B39E9E" fill-opacity=".15"/><g clip-path="url(#clip0)"><path d="M451.374 403.903c.758-5.427-6.814-9.844-12.62-10.349-2.776-.252-5.552.253-8.203-.757-5.552-1.893-7.824-9.212-13.251-11.484-4.038-1.767-8.834-.126-12.746 1.767-3.912 2.019-7.824 4.543-12.367 4.795-3.913.253-8.077-1.135-11.358.758-2.524 1.388-3.786 4.29-6.184 6.057-2.272 1.641-5.174 2.019-8.077 2.146-2.776.126-5.679.126-8.329 1.388-2.524 1.136-4.67 3.912-4.165 6.688l97.3-1.009zm9-154c.758-5.427-6.814-9.844-12.62-10.349-2.776-.252-5.552.253-8.203-.757-5.552-1.893-7.824-9.212-13.251-11.484-4.038-1.767-8.834-.126-12.746 1.767-3.912 2.019-7.824 4.543-12.367 4.795-3.913.253-8.077-1.135-11.358.758-2.524 1.388-3.786 4.29-6.184 6.057-2.272 1.641-5.174 2.019-8.077 2.146-2.776.126-5.679.126-8.329 1.388-2.524 1.136-4.67 3.912-4.165 6.688l97.3-1.009zm119.45 45.675c1.009-7.193-9.213-13.125-16.785-13.756-3.66-.252-7.446.253-10.853-.883-7.446-2.65-10.475-12.241-17.794-15.396-5.427-2.272-11.737-.253-17.037 2.397-5.301 2.651-10.475 6.058-16.406 6.437-5.175.378-10.727-1.515-15.271.883-3.407 1.893-5.048 5.679-8.203 7.951-3.028 2.271-6.941 2.65-10.727 2.902-3.786.253-7.572.253-11.105 1.767-3.408 1.514-6.184 5.174-5.553 8.834l129.734-1.136z" fill="#9CCECB"/><path d="M803.75 748.458c0 .127-126.073.379-281.426.379-155.478 0-281.426-.126-281.426-.379 0-.252 125.948-.378 281.426-.378 155.479 0 281.426.126 281.426.378zM344.256 438.385c-.126-.126 3.155-.379 7.194-3.029 2.019-1.262 4.038-3.281 5.805-5.805 1.641-2.524 2.903-5.679 3.155-9.213v-.252l.378.379c-3.533.504-6.562 2.524-8.581 4.795-2.145 2.146-3.66 4.543-4.796 6.436-1.135 2.02-2.019 3.66-2.524 4.796-.504 1.136-.883 1.767-.883 1.767s.126-.631.631-1.893c.505-1.136 1.262-2.903 2.271-4.922 1.136-2.019 2.525-4.417 4.796-6.689 2.146-2.271 5.174-4.417 8.96-5.048l.505-.126v.757c-.252 3.534-1.514 6.815-3.281 9.465-1.767 2.651-3.912 4.544-6.058 5.806-2.019 1.262-4.038 1.893-5.3 2.271-.631.126-1.262.253-1.514.253-.505.252-.758.252-.758.252z" fill="#E0E0E0"/><path d="M344.256 438.385c-.126-.126 2.019-2.903 4.922-6.058 2.903-3.281 5.3-5.805 5.427-5.679.126.127-2.02 2.903-4.922 6.058-2.777 3.281-5.174 5.805-5.427 5.679z" fill="#E0E0E0"/><path d="M654.582 573.04c-21.959-5.805-41.267-20.192-51.868-39.122-10.727-18.803-12.746-41.898-5.427-62.09 5.679-15.775 16.659-29.657 21.328-45.811 5.301-18.299 2.146-37.607-1.136-56.285-3.281-18.677-6.688-37.986-1.64-56.285s20.697-35.462 40.889-36.85c18.677-1.262 35.967 11.736 43.791 27.637 7.824 15.902 7.824 34.201 6.058 51.616-1.767 17.416-5.427 34.831-4.291 52.373 2.271 35.462 23.473 68.779 20.949 104.241-1.262 18.426-8.96 30.288-21.959 44.17-11.358 12.242-30.162 20.192-46.694 16.406z" fill="#698842"/><path d="M720.711 734.072h-117.24v14.26h117.24v-14.26z" fill="#E0E0E0"/><path d="M805.391 824.809c0 .127-128.471.379-286.979.379-158.507 0-286.979-.126-286.979-.379 0-.252 128.472-.378 286.979-.378 158.508.126 286.979.252 286.979.378z" fill="#0E151D"/><path d="M480.047 747.701l6.31 26.881s-25.113 15.396-24.482 20.444l52.499-10.348-8.077-42.151-26.25 5.174z" fill="#455A64"/><path opacity=".6" d="M502.132 769.029c1.01.126 2.02 1.136 2.02 2.145 0 1.01-1.01 2.02-2.146 2.02-1.009 0-2.271-1.262-2.019-2.272.126-1.01 1.388-2.145 2.398-1.767m11.989 15.523l-.757-4.165-50.102 11.484s-2.145 1.515-1.514 3.029l52.373-10.348z" fill="#fff"/><path d="M485.474 774.329c0 .253 1.388.127 2.776.758 1.389.504 2.272 1.514 2.524 1.388.253-.126-.504-1.515-2.145-2.272-1.767-.631-3.281 0-3.155.126zm-5.048 3.408c0 .252 1.136.505 2.272 1.388 1.135.883 1.514 2.019 1.766 1.893.253 0 .127-1.514-1.262-2.65-1.261-1.01-2.776-.884-2.776-.631zm-1.893 7.193c.252 0 .379-1.388-.631-2.65-.883-1.262-2.272-1.641-2.272-1.388-.126.252.884.883 1.515 1.893.883 1.136 1.136 2.145 1.388 2.145zm6.184-16.784c.126.252 1.262-.379 2.776-.505 1.515-.253 2.65 0 2.777-.253.126-.252-1.136-1.009-2.903-.757-1.767.253-2.776 1.262-2.65 1.515zm-1.136-5.427c0 .126 1.01.126 2.65-.505.758-.252 1.641-.757 2.524-1.388.505-.379.884-.631 1.389-1.136.252-.252.504-.378.63-.757.253-.379.253-1.01-.126-1.388-.378-.379-.883-.379-1.262-.379-.378.126-.631.253-1.009.379-.505.252-1.01.505-1.515.883a11.159 11.159 0 00-2.145 2.019c-1.01 1.389-1.262 2.398-1.136 2.398.126 0 .505-.883 1.641-2.019.505-.631 1.262-1.262 2.145-1.767.379-.252.884-.505 1.388-.757.505-.252 1.01-.379 1.136-.126.126.126.126.126 0 .252s-.252.379-.505.505c-.378.379-.757.757-1.262 1.01-.883.631-1.64 1.135-2.397 1.514-1.262.883-2.272 1.136-2.146 1.262z" fill="#0E151D"/><path d="M483.96 762.971c.126 0 .378-1.009.252-2.65a8.787 8.787 0 00-.883-2.776c-.253-.505-.631-1.01-1.01-1.515-.378-.504-.883-1.135-1.893-1.009-.505.126-.883.631-1.01 1.009-.126.379-.126.758-.126 1.01 0 .631.126 1.262.379 1.767.378 1.136 1.009 1.893 1.64 2.524 1.263 1.136 2.398 1.262 2.398 1.136 0-.127-.883-.505-2.019-1.641-.505-.505-1.01-1.388-1.262-2.272-.126-.504-.252-1.009-.252-1.514 0-.631.126-1.01.252-1.01.252 0 .757.253 1.136.631.378.379.631.884.883 1.262.505.884.884 1.767 1.01 2.524.379 1.515.379 2.524.505 2.524z" fill="#0E151D"/><path d="M620.508 693.435l25.114 11.358s-3.155 29.279 1.388 31.929l23.725-47.956-38.364-19.309-11.863 23.978z" fill="#455A64"/><path d="M634.516 699.745c.126 0 .757-.757 1.136-2.398.252-.757.379-1.766.505-2.902v-1.767c0-.252 0-.631-.253-1.01-.126-.378-.631-.883-1.135-.757-.505 0-.884.379-1.01.757-.126.379-.252.631-.379 1.01-.126.631-.252 1.136-.252 1.767 0 1.136.126 2.145.379 2.902.504 1.641 1.135 2.398 1.262 2.398.126-.126-.379-1.009-.631-2.524-.127-.757-.253-1.767-.127-2.776 0-.505.127-1.01.253-1.641s.378-1.009.631-1.009c.126 0 .126 0 .252.126s.126.505.126.757c.127.505.127 1.136.127 1.641 0 1.009-.127 2.019-.253 2.776-.378 1.641-.757 2.65-.631 2.65z" fill="#0E151D"/><path d="M635.021 699.619c.126-.126-.505-.883-2.019-1.767a11.713 11.713 0 00-2.777-1.009c-.504-.127-1.135-.127-1.766-.127s-1.389.127-2.02.884c-.252.505-.126 1.009.127 1.388.252.379.504.505.757.631.505.379 1.009.631 1.64.757 1.136.379 2.146.379 3.029.253 1.767-.379 2.524-1.136 2.398-1.262-.126-.127-.883.504-2.524.631-.757 0-1.641 0-2.65-.379-.505-.126-.884-.379-1.388-.757-.505-.379-.758-.757-.631-.884.126-.252.757-.504 1.262-.504h1.64c1.01.126 1.893.378 2.65.757 1.389.883 2.146 1.514 2.272 1.388z" fill="#0E151D"/><path d="M495.949 555.499l37.986 92.252c4.543 10.979 13.125 19.687 24.104 24.23l68.905 29.152 18.678-29.404-68.022-36.598-27.007-81.273c4.291-15.901-1.767-22.842-5.048-38.112l-49.596 39.753z" fill="#0E151D"/><path d="M497.968 516.755l33.19-12.746s33.065 13.756 15.018 51.49L497.968 661.38l15.018 87.583c.126 1.01-.631 2.019-1.641 2.146l-34.831 2.902c-.884.126-1.641-.505-1.893-1.262L450.39 666.05c-1.009-5.174-.757-10.475.884-15.397l37.103-121.783 9.591-12.115z" fill="#0E151D"/><path d="M539.361 509.183s.127 0 .379.253c.252.126.505.378 1.01.757.883.757 2.019 1.893 3.407 3.407 1.388 1.641 2.776 3.66 4.165 6.31 1.388 2.65 2.776 5.805 3.281 9.591.505 3.786.252 7.951-.505 12.242-.379 2.145-1.01 4.417-1.641 6.562-.631 2.272-1.766 4.417-2.776 6.689-4.038 8.96-8.582 18.93-13.251 29.278-9.465 20.697-18.047 39.501-24.23 53.004-3.155 6.689-5.679 12.242-7.446 16.028-.884 1.893-1.515 3.281-2.019 4.29-.253.505-.379.884-.505 1.136-.126.253-.253.379-.253.379s0-.126.127-.379c.126-.252.252-.631.504-1.136.505-1.009 1.136-2.524 1.893-4.417 1.767-3.786 4.165-9.338 7.194-16.153 6.184-13.63 14.639-32.434 24.104-53.13a2857.54 2857.54 0 0113.377-29.153c1.01-2.271 2.146-4.417 2.777-6.562.757-2.272 1.262-4.417 1.766-6.562.758-4.291 1.136-8.33.631-12.116-.378-3.659-1.766-6.814-3.028-9.465a42.536 42.536 0 00-4.039-6.31c-1.262-1.64-2.398-2.776-3.281-3.533-.379-.379-.757-.631-.883-.884-.758 0-.884-.126-.758-.126zm-41.393 154.09s-.379.127-1.01.253-1.64.252-2.776.378a23.086 23.086 0 01-9.087-1.388 23.799 23.799 0 01-7.824-4.795 12.886 12.886 0 01-1.893-2.02c-.379-.504-.631-.883-.505-.883.126-.126 1.01 1.01 2.777 2.524 1.766 1.514 4.417 3.281 7.698 4.543a24.925 24.925 0 008.834 1.641c2.398 0 3.786-.379 3.786-.253zm-.505-1.766c0 .126-3.407-.758-7.446-2.272-4.038-1.514-7.067-3.155-7.067-3.281.126-.126 3.281 1.136 7.32 2.65 4.038 1.514 7.319 2.776 7.193 2.903zm80.894-25.871s-.378.883-1.514 2.145c-1.136 1.136-2.903 2.65-5.174 3.534-2.272.883-4.544 1.135-6.184 1.135-1.641-.126-2.524-.378-2.524-.504 0-.127 1.009 0 2.524 0 1.514 0 3.786-.379 5.931-1.262 2.146-.884 3.912-2.146 5.048-3.282 1.262-1.009 1.767-1.766 1.893-1.766z" fill="#455A64"/><path d="M534.692 541.238s-.505.252-1.262.757c-.883.379-2.145.884-3.912 1.388-3.281 1.01-8.203 1.641-13.504.505-5.3-1.009-9.591-3.533-12.241-5.679-1.388-1.136-2.398-2.019-3.029-2.776-.631-.757-1.009-1.136-.883-1.136.126-.126 1.514 1.514 4.291 3.66 2.776 2.019 6.941 4.417 12.115 5.426 5.174 1.01 9.97.505 13.251-.378 3.155-.884 5.174-1.893 5.174-1.767zm42.025 94.524s-.253.126-.884.378c-.631.253-1.388.505-2.524.758-2.145.504-5.3.883-8.708.631-3.407-.379-6.436-1.262-8.329-2.272-1.009-.505-1.767-.883-2.271-1.262-.505-.379-.758-.505-.758-.631s1.262.631 3.282 1.388c2.019.757 4.921 1.641 8.329 2.019 3.281.253 6.31 0 8.455-.378 2.146-.379 3.408-.757 3.408-.631zm-94.019 17.92v-.252c0-.253.126-.505.252-.884.252-.757.505-1.893.883-3.155.757-2.776 1.893-6.688 3.282-11.61 2.776-9.844 6.814-23.347 11.484-38.239 4.669-14.891 9.086-28.268 12.493-37.986a650.826 650.826 0 014.039-11.484c.505-1.262.883-2.272 1.136-3.155.126-.379.252-.631.252-.757.126-.126.126-.253.126-.253v.253c-.126.252-.126.505-.252.757-.253.757-.631 1.767-1.01 3.155a545.59 545.59 0 01-3.786 11.484c-3.155 9.718-7.572 23.095-12.241 37.986a2340.193 2340.193 0 00-11.61 38.239c-1.389 4.796-2.651 8.834-3.408 11.61-.378 1.262-.757 2.398-1.009 3.155-.127.379-.253.631-.253.758-.252.378-.378.378-.378.378zm16.784 97.3s-.126-.252-.252-.883-.379-1.514-.505-2.65c-.505-2.398-1.136-5.679-1.893-9.718-1.514-8.329-3.66-19.561-6.058-32.054-2.271-12.494-4.29-23.852-5.805-32.181-.757-4.039-1.262-7.32-1.64-9.718-.127-1.136-.379-2.019-.379-2.65-.126-.631-.126-.883-.126-.883s.126.252.252.883.379 1.514.505 2.65c.505 2.398 1.136 5.679 1.893 9.718 1.514 8.329 3.66 19.561 6.058 32.054 2.271 12.494 4.29 23.852 5.805 32.181.757 4.039 1.262 7.32 1.64 9.718.127 1.136.379 2.019.379 2.65.126.505.126.757.126.883zm52.247-121.152s-.379-.631-1.136-1.766c-.631-1.136-1.514-2.903-2.65-5.048-2.145-4.291-4.796-10.475-6.941-17.542-2.272-7.067-3.66-13.63-4.417-18.299-.379-2.398-.631-4.291-.757-5.679s-.253-2.146-.126-2.146c0 0 .126.758.378 2.02.253 1.388.505 3.281 1.01 5.679.883 4.795 2.398 11.231 4.669 18.172 2.272 6.941 4.796 13.125 6.815 17.542 1.01 2.146 1.893 3.912 2.398 5.174.505 1.136.757 1.893.757 1.893zm81.525 57.043s-.252-.126-.757-.253c-.505-.252-1.136-.631-2.019-1.135a991.93 991.93 0 01-7.194-4.165 3107.998 3107.998 0 01-23.599-14.387 1792.896 1792.896 0 01-23.347-14.639c-2.903-1.893-5.3-3.407-7.067-4.543-.757-.505-1.388-.884-1.893-1.262a4.569 4.569 0 01-.631-.505l.757.379c.505.252 1.136.631 2.019 1.135 1.767 1.01 4.165 2.524 7.194 4.291 6.057 3.786 14.386 8.834 23.473 14.387 17.668 11.106 30.162 18.93 33.064 20.697zm-32.559-214.919l-71.682-47.703-3.786-11.863 77.992 53.382-2.524 6.184z" fill="#455A64"/><path d="M457.71 465.644l-4.922 23.473-29.404 27.007 2.271 18.804 39.375-22.716c9.086-5.3 12.746-17.289 16.279-27.133l3.786-17.416" fill="#FFBE9D"/><path d="M568.009 394.467c.378-.631 1.136-.883 1.893-1.009.757-.126 1.388-.126 2.145-.253 2.398-.378 4.543-2.397 5.174-4.795a6.01 6.01 0 011.767 4.291c0 1.64-.883 3.155-2.019 4.164.883.253 1.893 0 2.524-.757-.505 2.65-2.65 4.796-5.3 5.3-2.651.505-5.427-.757-6.689-3.028" fill="#1E2150"/><path d="M568.766 397.749c0-.631 0-1.389-.126-2.02-.126-.504-.126-1.009-.379-1.388-.252-.378-.505-.757-1.009-1.009-.505-.127-1.01-.127-1.388.252a.971.971 0 00-.127 1.262l-.126 1.01c.126.631-.252 1.514 0 2.145s.505 1.01 1.136 1.262a1.343 1.343 0 001.514-.252c.379-.253.379-.758.505-1.262z" fill="#DF2C2C"/><path d="M450.769 347.395c.884 3.029-.631 6.184-2.271 8.834-1.641 2.65-3.408 5.553-3.282 8.708.253 5.552 6.563 9.591 6.437 15.144 0 3.028-1.893 5.805-1.767 8.707.126 2.903 2.145 5.301 4.417 7.068 2.271 1.766 4.669 3.281 8.707 3.281l-12.241-51.742z" fill="#1E2150"/><path d="M499.861 346.007c-1.01-4.67-4.291-7.572-7.067-8.077-2.777-.505-5.806-.379-8.33-1.515-2.271-1.009-4.164-2.902-6.183-4.29-5.048-3.534-12.116-4.039-17.668-1.262-5.553 2.776-9.465 8.581-9.718 14.765-.252 4.165 1.388 8.708 5.048 10.727 4.291 2.398 9.465.631 14.008-1.262 4.544-1.893 9.592-3.786 14.009-1.893 2.65 1.136 4.543 3.66 6.436 5.805 1.893 2.272 4.291 5.427 7.067 4.796 8.455-1.893 4.165-11.358 3.407-14.387l-1.009-3.407z" fill="#1E2150"/><path d="M488.124 345.628c2.524-.252 4.67 1.514 5.048 3.912l9.465 63.731c1.389 7.446-9.338 10.096-17.289 11.484l-.126-.757c-8.077 1.388-8.456 1.893-9.844-5.174-2.524-11.863-3.281-16.28-3.281-16.154 0 0-10.475.253-15.144-12.62-2.272-6.436-4.038-17.289-5.174-26.249-1.01-8.077 2.398-18.93 10.474-19.561l25.871 1.388z" fill="#FFBE9D"/><path d="M455.565 370.742c.126.883 1.009 1.514 2.019 1.388 1.01-.126 1.641-1.01 1.514-1.893-.126-.883-1.009-1.514-2.019-1.388-1.009.126-1.64 1.009-1.514 1.893zm-.505-1.893c.252.126 1.388-1.01 3.155-1.388 1.767-.379 3.407.252 3.534 0 .126-.127-.253-.505-.884-.758-.631-.252-1.767-.504-2.902-.378a5.29 5.29 0 00-2.524 1.388c-.379.631-.505 1.01-.379 1.136zm18.551-.631c.127.883 1.01 1.514 2.02 1.388 1.009-.126 1.64-1.01 1.514-1.893-.126-.883-1.01-1.514-2.019-1.388-1.01.126-1.767 1.009-1.515 1.893zm-.504-2.524c.252.126 1.388-1.01 3.155-1.388 1.766-.379 3.407.252 3.533 0 .126-.127-.252-.505-.883-.758-.631-.252-1.767-.504-2.903-.378a5.295 5.295 0 00-2.524 1.388c-.378.631-.505 1.01-.378 1.136zm-4.039 14.891c0-.126-1.136-.126-3.029 0-.504 0-.883 0-1.135-.252-.127-.379-.127-.883 0-1.388l.757-3.786c1.009-5.427 1.514-9.844 1.388-9.97-.252 0-1.136 4.291-2.145 9.844-.253 1.388-.379 2.65-.631 3.786-.127.504-.253 1.262.126 1.893.252.378.631.504.883.504h.757c1.893-.252 3.029-.504 3.029-.631z" fill="#0E151D"/><path d="M471.971 402.544s9.086-1.136 16.911-8.203c0 0-2.524 9.97-16.154 11.232l-.757-3.029zm-1.262-17.668c.505-1.009 1.514-1.64 2.776-1.767.757-.126 1.641.127 2.272.758.631.504.883 1.514.504 2.145-.378.757-1.388 1.136-2.271 1.01-.884-.127-1.767-.505-2.65-1.01-.253-.126-.505-.252-.631-.505-.126-.126-.253-.378 0-.631z" fill="#EB996E"/><path d="M474.747 380.838c-.252 0 .126 2.019-1.388 3.786-1.388 1.767-3.66 1.893-3.534 2.145 0 .126.505.253 1.389.126.883-.126 2.145-.631 3.028-1.766.884-1.01 1.136-2.272 1.01-3.155-.126-.758-.379-1.136-.505-1.136zm-3.029-18.173c.253.505 2.02-.126 4.291-.252 2.146-.253 4.039.126 4.291-.379.126-.252-.252-.631-1.136-1.01-.757-.378-2.019-.631-3.281-.504-1.262.126-2.524.504-3.155 1.009-.883.379-1.136.884-1.01 1.136zm-17.037.757c.379.379 1.641-.378 3.155-.631 1.515-.378 2.903-.252 3.029-.757.126-.252-.252-.631-.883-.883-.631-.253-1.641-.379-2.65-.253-1.01.253-1.893.757-2.272 1.262-.505.631-.505 1.01-.379 1.262z" fill="#0E151D"/><path d="M501.88 353.579c.126-3.155 2.398-9.844-6.057-14.261-3.155-1.641-7.446 1.514-9.844 1.136-10.096-1.641-17.037.378-27.133 1.136-.757 2.271.883 4.795 3.029 5.931 2.145 1.136 4.669 1.136 7.067 1.514 2.398.379 4.922 1.136 6.31 3.155 1.388 2.146 1.136 5.048 2.524 7.194 2.272 3.786 8.329 3.912 10.601 7.698 1.767 2.903.631 6.562.883 9.844.253 3.786 1.893 8.455 5.679 9.465 4.039 1.009 4.67 6.183 4.67 6.183l2.271-1.64c3.534-2.524 6.31-6.058 7.825-10.096 6.688-17.29-8.203-16.28-7.825-27.259zm76.477 10.727c.127-.758.758-1.262 1.389-1.641s1.262-.631 2.019-1.01c2.145-1.135 3.533-3.786 3.281-6.183 1.388.631 2.65 1.893 3.029 3.407.505 1.514.252 3.281-.631 4.543.883 0 1.767-.631 2.145-1.514.379 2.65-.883 5.426-3.155 6.688-2.271 1.262-5.426 1.01-7.446-.631" fill="#1E2150"/><path d="M580.124 367.082l-.757-1.893c-.252-.379-.505-.883-.883-1.136-.379-.378-.758-.631-1.262-.631-.505 0-1.01.253-1.262.631-.253.379-.127 1.01.252 1.262l.252 1.01c.379.505.253 1.514.758 2.019.378.505.757.757 1.514.757.505 0 1.136-.252 1.388-.757.253-.252.126-.757 0-1.262z" fill="#DF2C2C"/><path d="M577.6 366.577c-.631-1.514-2.65-1.767-4.164-1.767-2.272.127-4.67.631-6.563 2.02-1.136.757-2.145 1.893-2.776 3.028-.757-1.009-2.146-1.388-3.534-1.514-2.271-.252-4.795 0-6.815 1.01-1.388.631-2.65 1.64-3.407 3.028-.757-1.009-2.272-1.388-3.534-1.514-2.271-.252-4.795 0-6.814 1.01-1.515.757-2.777 1.766-3.534 3.155-.505-1.262-1.893-2.02-3.155-2.524-2.272-.758-4.669-1.01-6.941-.505a9.618 9.618 0 00-4.038 2.145c-.127-.757-.505-1.514-1.01-2.145-1.01-1.136-2.398-1.767-3.786-2.146-3.534-1.009-7.698-.757-10.222 1.767v.757c2.019 3.913 6.562 6.31 10.979 5.806 1.515-.127 3.029-.758 3.786-2.146 2.777 3.281 7.698 4.543 11.611 3.029 1.262-.505 2.397-1.388 2.776-2.524 3.407 2.776 8.582 3.029 12.241.631.884-.631 1.767-1.641 2.02-2.65 3.407 2.398 8.329 2.524 11.736.252.884-.631 1.641-1.514 2.019-2.398 3.786 1.893 8.708 1.389 11.863-1.388.884-1.262 1.893-3.029 1.262-4.417zm-14.134 27.007c-2.146-.505-4.544-.631-6.563.126-1.136.379-2.145 1.01-3.029 1.767-.252-1.262-1.64-2.145-2.902-2.65a12.873 12.873 0 00-6.563-1.01c-1.388.253-2.65.757-3.786 1.641-.378-1.01-1.388-1.893-2.397-2.398-1.893-1.136-4.165-1.893-6.31-1.767-1.515 0-3.029.505-4.291 1.388-.126-1.135-.884-2.145-1.641-3.028-1.514-1.641-3.407-2.903-5.679-3.408-1.514-.378-3.155-.378-4.669.126 0-1.135-.757-2.397-1.641-3.281-1.514-1.64-3.407-2.902-5.679-3.407-2.145-.505-4.543-.253-6.436 1.009l.757-.252c.631 4.291 4.417 8.077 8.708 8.455 1.262.127 2.65-.126 3.407-.883 1.01 3.912 4.544 7.067 8.456 7.446 1.262.126 2.776-.126 3.66-1.136 2.019 3.534 6.31 5.679 10.348 4.922 1.136-.253 2.272-.757 2.903-1.515 2.524 3.029 6.814 4.544 10.6 3.282.758-.253 1.641-.631 2.146-1.262 2.902 2.902 7.698 3.786 11.358 1.893 1.388-.631 2.65-2.02 2.398-3.534 0-1.262-1.641-2.145-3.155-2.524z" fill="#1E2150"/><path d="M461.875 341.463c3.624 0 6.562-.056 6.562-.126s-2.938-.126-6.562-.126c-3.625 0-6.563.056-6.563.126s2.938.126 6.563.126z" fill="#0E151D"/><path d="M520.431 356.734s0 .252-.126.757-.378 1.136-.883 1.893c-.505.757-1.262 1.514-2.398 2.145-1.136.631-2.65.884-4.291.757-1.64-.252-3.281-1.135-4.543-2.524-1.388-1.262-2.65-2.902-4.543-3.659-1.893-.758-4.039-.631-6.31-.127-2.146.505-4.543 1.262-7.067 1.136a6.786 6.786 0 01-3.534-1.009c-1.01-.758-1.767-1.767-2.272-2.777-1.009-2.145-1.514-4.291-2.776-5.805-1.262-1.641-3.155-2.398-4.922-2.776-1.767-.379-3.533-.379-5.048-.631-1.64-.127-3.029-.505-4.164-1.01-1.136-.505-2.02-1.136-2.651-1.893a3.678 3.678 0 01-1.009-1.767c-.126-.505-.126-.757-.126-.757.126 0 .126 1.01 1.388 2.272.631.631 1.514 1.262 2.65 1.766 1.136.505 2.524.758 4.165.884 1.514.126 3.281.126 5.174.505 1.767.378 3.912 1.135 5.3 2.902 1.388 1.767 1.893 3.912 2.903 5.932.505 1.009 1.136 1.893 2.145 2.524.884.631 2.019.883 3.281 1.009 2.398.126 4.67-.631 6.815-1.136 2.272-.504 4.543-.757 6.689.127 2.019.883 3.281 2.524 4.669 3.786 1.262 1.262 2.777 2.271 4.291 2.397 1.514.253 2.903 0 4.038-.631a5.542 5.542 0 002.398-2.019c.505-1.262.631-2.271.757-2.271zm-76.224 25.113c0-.126.378.758 1.64 1.136.631.253 1.388.253 2.272 0 .883-.252 1.64-1.009 2.145-2.019.505-1.01.757-2.272.379-3.66-.253-1.388-1.01-2.65-1.893-3.912-.884-1.262-2.019-2.398-3.155-3.786-1.136-1.388-2.146-2.903-2.65-4.669-.505-1.893-.253-3.786.504-5.427.631-1.641 1.641-3.029 2.651-4.291 2.019-2.398 3.912-4.543 5.679-6.184a90.004 90.004 0 014.164-3.912c1.01-.883 1.641-1.262 1.641-1.262l-1.515 1.515c-1.009.883-2.397 2.271-4.038 4.038-1.641 1.767-3.534 3.786-5.553 6.31-1.009 1.262-1.893 2.524-2.524 4.165-.631 1.514-.883 3.281-.505 4.921.505 1.641 1.515 3.155 2.524 4.417 1.136 1.262 2.272 2.524 3.155 3.786.884 1.262 1.641 2.777 1.893 4.165.253 1.388 0 2.903-.504 3.912-.631 1.136-1.515 1.893-2.524 2.146-1.01.252-1.893.126-2.524-.127-.631-.252-1.01-.631-1.262-.883v-.379zm81.02 22.212c0 .126-1.262-.758-3.281-2.146-.505-.378-1.01-.757-1.641-1.136-.631-.378-1.262-.883-2.019-1.009-1.514-.379-3.281-.253-5.048.505-.883.252-1.893.252-2.903.252-2.397-.126-4.543-1.01-6.057-2.272-1.641-1.262-2.524-2.902-3.029-4.29a10.444 10.444 0 01-.631-3.534c0-.883.126-1.262.126-1.262.126 0-.252 1.893.884 4.669.504 1.389 1.514 2.777 3.028 4.039 1.515 1.136 3.534 2.019 5.679 2.145.884 0 1.767 0 2.651-.252 1.893-.757 3.786-1.01 5.426-.505.884.252 1.515.757 2.019 1.136.631.378 1.136.757 1.641 1.136 1.01.757 1.767 1.388 2.272 1.766.631.505.883.758.883.758z" fill="#1E2150"/><path d="M519.674 396.234s-.378.253-1.262.379c-.883.126-2.019.252-3.533.252-1.515-.126-3.282-.378-5.175-1.136-.883-.378-1.893-1.009-2.397-2.145-.253-.505-.379-1.136-.253-1.767s.505-1.262 1.01-1.64c1.009-.758 2.398-.758 3.533-.253.505.253 1.01.884 1.01 1.515 0 .378-.126.757-.505.883-.252.252-.631.252-.883.252-2.019.127-3.912-.504-5.174-1.262-1.262-.757-2.146-1.766-2.651-2.397-.504-.758-.631-1.136-.631-1.136.127-.126.884 1.767 3.408 3.155 1.262.757 3.029 1.262 4.922 1.136.504 0 .757-.253.757-.631a.95.95 0 00-.631-.884c-.884-.378-2.019-.378-2.777.253-.883.631-1.009 1.766-.504 2.524.378.883 1.262 1.514 2.145 1.893a16.673 16.673 0 004.922 1.262c2.776.126 4.543-.379 4.669-.253z" fill="#1E2150"/><path d="M526.741 392.07c-.126 0-.378-1.136-1.135-2.524-.758-1.262-1.641-2.146-1.515-2.272 0-.126 1.136.631 1.893 2.019.757 1.515.884 2.777.757 2.777z" fill="#455A64"/><path d="M526.615 391.186c0 .126-1.514-.631-3.407-1.009-1.893-.379-3.534-.127-3.534-.253s1.641-.505 3.534-.126c2.019.379 3.407 1.262 3.407 1.388zm11.737 5.174c-.126 0 .126-1.514-.884-3.028-.883-1.515-2.397-2.02-2.397-2.146 0 0 .378 0 .883.253.505.252 1.262.757 1.767 1.64.505.757.631 1.641.631 2.272.126.631 0 1.009 0 1.009z" fill="#455A64"/><path d="M538.352 394.72c0 .126-.757-.253-1.893-.379-1.01-.126-1.893.126-1.893 0s.757-.505 1.893-.378c1.262.126 1.893.631 1.893.757zm12.998 2.145c-.126 0-.504-1.136-1.64-2.145-1.136-1.01-2.272-1.388-2.272-1.515 0-.126 1.388.127 2.524 1.136 1.262 1.262 1.515 2.524 1.388 2.524z" fill="#455A64"/><path d="M550.593 395.982c0 .126-.757.126-1.514.252-.884.253-1.515.505-1.515.505-.126-.126.505-.631 1.389-.883 1.009-.127 1.766.126 1.64.126zm13.63-.126c0 .126-.757-.379-1.767-.379-1.01-.126-1.893.126-1.893 0s.757-.505 1.893-.505c1.01.126 1.767.757 1.767.884zm-15.144-22.085c0 .126-1.136-.505-2.776-.758-1.515-.252-2.777-.126-2.777-.252s1.262-.505 2.903-.126c1.64.252 2.776 1.009 2.65 1.136z" fill="#455A64"/><path d="M547.817 373.518c0 .126-.757.379-1.514 1.01-.758.631-1.136 1.388-1.262 1.262-.127 0 .252-.884 1.009-1.641.884-.631 1.767-.757 1.767-.631zm14.513-1.262s-.126-.505-.631-1.009c-.505-.505-1.388-.884-2.398-1.01-2.145-.126-3.786.757-3.786.631-.126 0 1.515-1.136 3.912-1.01 1.136 0 2.146.505 2.651 1.136.378.757.378 1.262.252 1.262z" fill="#455A64"/><path d="M561.951 371.12c0 .127-.505.379-1.136.631-.631.379-1.135.631-1.135.505-.127-.126.378-.505 1.009-.883.631-.253 1.262-.253 1.262-.253zm14.387-2.65s-.252-.252-.883-.505c-.505-.252-1.262-.504-2.272-.631-.883-.126-1.767-.126-2.398-.126-.631 0-1.009-.126-1.009-.252 0 0 .378 0 1.009-.126.631 0 1.515-.127 2.398 0 1.01.126 1.767.378 2.398.757.631.505.883.883.757.883z" fill="#455A64"/><path d="M574.374 368.467c.281-.399.416-.788.302-.868-.114-.08-.434.178-.715.577-.28.399-.416.788-.302.868.114.08.434-.178.715-.577zm-40.565 7.449s-.379-.379-1.01-.757c-.631-.505-1.641-.884-2.776-1.01-1.136-.126-2.272-.126-3.029 0-.757 0-1.262.126-1.262 0 0 0 .505-.126 1.262-.252s1.893-.253 3.155-.126c1.262.126 2.271.631 2.902 1.262.631.504.758.883.758.883z" fill="#455A64"/><path d="M533.682 375.159c0 .126-.757.126-1.766.505-.884.378-1.515.883-1.641.757-.126-.126.505-.757 1.514-1.136 1.01-.505 1.893-.252 1.893-.126zm-13.251.631c-.126.126-.757-1.641-2.65-2.903-1.767-1.262-3.66-1.388-3.66-1.514 0-.126 1.893-.253 3.786 1.136 2.146 1.388 2.651 3.281 2.524 3.281z" fill="#455A64"/><path d="M521.82 375.159c0 .126-1.01 0-2.272 0-1.262 0-2.272.252-2.272.126s1.01-.505 2.272-.631c1.262.126 2.272.379 2.272.505zm-62.596-30.414c0-.127.758.757 2.524 1.135 1.767.505 4.418.379 7.699 0 1.64-.126 3.407-.378 5.3-.378 1.01 0 2.019.126 3.029.505 1.01.378 1.893 1.009 2.524 1.893.252.504.505 1.009.631 1.64.126.505.126 1.01.379 1.641a11.927 11.927 0 001.64 3.029c1.388 1.766 3.534 3.155 5.932 3.533 2.397.379 4.921-.252 7.193.884 1.136.504 2.019 1.514 2.398 2.524.505 1.009.631 2.145.757 3.281.252 2.145.379 4.291 1.514 5.805.505.757 1.389 1.262 2.146 1.514.883.253 1.64.379 2.524.505.757.126 1.64.379 2.271.631.631.379 1.262.757 1.641 1.388.757 1.136.757 2.398.631 3.282-.126.883-.379 1.64-.505 2.019-.126.505-.252.631-.252.631s.378-.884.631-2.777c.126-.883 0-2.019-.631-3.155-.379-.504-.884-1.009-1.515-1.262-.631-.252-1.388-.504-2.145-.631-.757-.126-1.641-.252-2.524-.504-.883-.253-1.767-.758-2.272-1.641-1.262-1.641-1.388-3.786-1.64-5.931a14.35 14.35 0 00-.757-3.155 4.22 4.22 0 00-2.272-2.398c-2.145-1.01-4.669-.505-7.067-.884-2.524-.378-4.796-1.893-6.184-3.786-.757-.883-1.262-2.019-1.641-3.155-.126-.504-.252-1.135-.378-1.64-.126-.505-.253-1.01-.505-1.388-.505-.884-1.388-1.515-2.398-1.767-.883-.379-1.893-.505-2.902-.505-1.893 0-3.66.126-5.301.252-3.281.253-5.931.379-7.698-.252a6.657 6.657 0 01-1.893-.883c-.631.252-.884 0-.884 0z" fill="#455A64"/><path d="M504.909 365.694s0-.253-.126-.631c-.127-.379-.253-.884-.379-1.641-.505-1.388-1.388-3.281-3.281-5.048-1.893-1.767-4.922-3.155-8.329-3.029-.884 0-1.767.127-2.651-.126-.883-.126-1.766-.757-2.397-1.514-1.262-1.515-1.641-3.534-2.398-5.301-.757-1.893-2.146-3.281-3.912-4.038-1.641-.757-3.534-1.01-5.175-1.01-3.407.127-6.436 1.136-9.086 1.515-2.65.505-4.796.378-6.184 0-1.388-.253-2.145-.757-2.145-.757s.252 0 .505.126c.378.126.883.252 1.64.378 1.388.253 3.534.253 6.184-.126 2.524-.378 5.553-1.388 9.086-1.64 1.767 0 3.66.126 5.427 1.009 1.767.757 3.281 2.272 4.038 4.165.758 1.893 1.136 3.786 2.398 5.174.631.757 1.388 1.262 2.146 1.388.883.253 1.766.126 2.65.126 3.533-.126 6.562 1.389 8.455 3.282 1.893 1.766 2.903 3.912 3.281 5.3.253 1.514.253 2.398.253 2.398z" fill="#455A64"/><path d="M542.264 498.33l-13.503-27.638s5.3-43.034.631-55.402c-4.67-12.367-27.764-10.096-27.764-10.096l-24.862 9.844s-5.553 12.368-9.086 16.658c-3.66 4.291-7.067 23.6-2.903 40.511 1.515 5.931 7.32 11.61 11.863 15.396 3.786 3.029 5.805 7.824 5.553 12.62l-1.01 21.58c-.505 2.65-1.009 8.708 6.31 10.727 8.834 2.524 28.395-4.417 36.093-11.736 12.494-12.116 14.64-12.116 14.64-12.116 10.979-2.776 4.038-10.348 4.038-10.348z" fill="#DF2C2C"/><path d="M475.504 416.174s-10.601 8.203-13.125 16.027c-1.64 5.174-10.474 34.831-10.474 34.831l16.532 2.146 7.067-53.004z" fill="#DF2C2C"/><path d="M467.049 476.624s-.379-.505-.884-1.389c-.504-.883-1.135-2.271-1.766-4.038-1.262-3.534-2.02-8.834-1.641-14.639s1.641-10.853 2.524-14.513c.505-1.767.883-3.281 1.262-4.291.252-1.01.505-1.514.505-1.514s-.126.631-.253 1.64c-.252 1.136-.631 2.65-1.009 4.291-.884 3.66-2.019 8.708-2.398 14.387s.379 10.853 1.514 14.387c1.01 3.533 2.272 5.552 2.146 5.679zm15.144-5.427c0 .126-.884-.252-2.272-.883-.631-.379-1.514-.758-2.271-1.515-.757-.631-1.388-1.64-2.019-2.65-1.01-2.145-1.262-4.291-1.389-5.679-.126-1.514-.252-2.398-.126-2.398s.379.884.631 2.398c.253 1.514.505 3.534 1.515 5.553.504 1.009 1.135 1.893 1.766 2.524.758.631 1.388 1.136 2.019 1.514 1.389.631 2.272 1.136 2.146 1.136zm54.013 29.026c.127 0 .505.505.758 1.388.378 1.01.631 2.398.505 3.912-.127 1.515-.632 2.903-1.136 3.786-.505.884-1.01 1.389-1.01 1.262-.126-.126 1.262-2.145 1.514-5.174.379-2.776-.757-5.048-.631-5.174zm-9.717-2.145c0-.127 1.01.252 2.272 1.135 1.262.884 2.902 2.524 4.038 4.67 1.136 2.145 1.388 4.417 1.262 6.057-.126 1.641-.379 2.524-.505 2.524s.126-1.009 0-2.524c0-1.514-.378-3.659-1.388-5.679-1.01-2.019-2.524-3.659-3.66-4.543-1.262-1.136-2.145-1.514-2.019-1.64z" fill="#0E151D"/><path d="M496.201 423.367s-.252.379-.883 1.136c-.631.631-1.515 1.641-2.777 2.65-2.524 2.019-6.562 4.417-11.61 5.427-4.922 1.009-9.591.378-12.746-.505-1.641-.505-2.777-1.01-3.66-1.388-.884-.379-1.262-.631-1.262-.757 0-.127 1.893.757 5.048 1.64 3.155.757 7.698 1.262 12.494.379 4.795-1.01 8.834-3.155 11.358-5.048 2.65-2.146 3.912-3.66 4.038-3.534zm-33.317 29.783c0 .127-1.64.379-3.533 0-1.893-.504-3.155-1.514-3.155-1.64.126-.126 1.514.505 3.281 1.009 1.893.505 3.407.505 3.407.631zm11.358 6.563c-.126.126-2.271-1.01-5.3-1.515-3.029-.504-5.427-.126-5.553-.378 0-.126 2.524-.757 5.679-.253 3.029.631 5.174 2.02 5.174 2.146zm12.62 4.038c0 .126-2.65 1.01-5.931.505-3.408-.505-5.679-2.145-5.553-2.272.126-.126 2.398 1.136 5.679 1.641 3.155.379 5.679-.126 5.805.126zm-6.31 19.814c0 .126-1.893.757-4.417.504-2.398-.252-4.291-1.009-4.164-1.135 0-.127 1.893.378 4.29.504 2.398.253 4.291 0 4.291.127zm49.849-19.688c.126.127-2.271 2.524-6.184 3.913-3.912 1.388-7.319 1.135-7.193 1.009 0-.252 3.281-.252 6.941-1.64 3.786-1.389 6.31-3.534 6.436-3.282zm-1.893 38.618l-1.388 1.388c-1.01.883-2.398 2.019-4.291 3.407-3.66 2.777-9.212 6.058-16.027 8.203-3.408 1.01-6.689 1.641-9.718 1.767-3.028.126-5.805 0-8.076-.379-2.272-.378-4.039-.883-5.301-1.388-1.262-.378-1.893-.631-1.893-.757 0 0 .757.126 1.893.505 1.262.378 3.029.757 5.301 1.136 4.543.757 10.979.504 17.668-1.515 6.688-2.019 12.115-5.3 15.901-7.95 1.893-1.262 3.407-2.398 4.417-3.282.883-.757 1.514-1.135 1.514-1.135zm4.86-.75c1.032-.169 1.841-.474 1.807-.68-.034-.206-.898-.236-1.929-.067-1.032.169-1.841.474-1.807.68.034.207.898.237 1.929.067zm9.906-.008c-.127.127-1.262-.504-2.903-.378-1.514 0-2.776.631-2.776.505-.127-.127 1.009-1.136 2.776-1.136 1.893-.126 3.029.883 2.903 1.009zm-23.347-12.998c.126.126-2.146 1.767-5.427 2.776-3.281 1.01-6.058 1.01-6.058.884 0-.253 2.651-.505 5.806-1.515 3.281-.883 5.679-2.271 5.679-2.145z" fill="#FAFAFA"/><path d="M431.334 537.578l-43.665 169.739 11.484 3.66 44.296-182.485-12.115 9.086zm146.392-31.55s11.737 3.912 20.823-6.941c9.087-10.853 2.272-27.259 2.272-27.259l2.524-6.184s46.568 16.785 52.12 21.328c1.389 1.136 2.02 3.786.758 7.193-4.291 11.485-18.299 50.228-25.367 50.228-8.581 0-58.052-30.162-58.052-30.162l4.922-8.203z" fill="#DF2C2C"/><path d="M476.64 414.028c-.379.253-1.136.884-1.893 2.02-2.272 3.155-3.786 9.843-3.912 19.939-.379 28.269 101.843 78.497 101.843 78.497l4.922-8.33s-75.341-41.772-96.291-64.235c-4.921-5.301-7.572-12.242-7.067-19.435 0-.379 0-.631.126-1.01.505-4.291 2.398-6.562 2.398-6.562l-.126-.884z" fill="#455A64"/><path d="M602.461 467.916h.253c.252 0 .505.126.883.252.757.253 1.893.505 3.281 1.01a297.22 297.22 0 0111.989 3.912c2.524.883 5.301 1.767 8.203 2.903.758.252 1.515.504 2.272.883.757.379 1.388 1.01 1.893 1.641.505.631 1.01 1.514 1.136 2.397.126.884.126 1.893-.126 2.777-.505 1.767-1.262 3.407-1.893 5.048-.631 1.767-1.389 3.407-2.146 5.3-1.388 3.534-2.902 7.194-4.417 10.98-1.514 3.786-2.776 7.572-4.922 10.853-1.009 1.64-2.397 3.155-4.038 4.164-1.641 1.01-3.66 1.389-5.427 1.136-1.766-.126-3.533-.757-5.048-1.262-1.514-.505-3.155-1.136-4.543-1.64-2.902-1.01-5.679-2.02-8.203-2.903-4.922-1.767-8.96-3.281-11.863-4.291-1.388-.505-2.397-.883-3.155-1.262a6.16 6.16 0 01-.883-.378c-.126-.127-.252-.127-.252-.127s.126 0 .252.127c.252.126.505.126.883.252.758.252 1.893.631 3.282 1.136 2.902 1.009 6.941 2.398 11.989 4.164 2.524.884 5.3 1.893 8.203 2.903 1.514.505 3.028 1.01 4.543 1.641 1.514.504 3.155 1.135 4.922 1.262 1.766.252 3.533-.127 5.048-1.01 1.514-.883 2.776-2.272 3.786-3.912 2.019-3.155 3.281-7.067 4.795-10.727 1.515-3.786 3.029-7.446 4.417-10.98.757-1.766 1.388-3.533 2.146-5.3.631-1.767 1.388-3.407 1.893-5.048.252-.757.378-1.641.126-2.398-.126-.757-.505-1.514-1.01-2.145a6.655 6.655 0 00-1.767-1.515c-.631-.378-1.388-.631-2.145-.883-2.903-1.136-5.679-2.019-8.203-2.903-5.048-1.766-9.086-3.155-11.989-4.038-1.388-.505-2.524-.757-3.281-1.136-.505-.757-1.01-.883-.884-.883z" fill="#0E151D"/><path d="M655.339 487.224s0 .127-.126.253a6.267 6.267 0 00-.379.883 44.911 44.911 0 00-1.388 3.155 282.087 282.087 0 00-5.048 11.863c-2.019 5.048-4.543 10.979-7.193 17.668-1.388 3.281-2.777 6.815-4.417 10.348-.884 1.767-1.641 3.534-2.777 5.301a8.906 8.906 0 01-1.009 1.262c-.505.378-1.01.505-1.641.631-1.136.126-2.145-.126-3.155-.379-4.038-1.136-7.698-2.902-11.358-4.417-3.533-1.514-7.067-3.155-10.348-4.669-6.563-3.029-12.242-6.058-17.037-8.582-4.796-2.524-8.582-4.795-11.232-6.31-1.262-.757-2.272-1.388-3.029-1.767-.252-.252-.505-.378-.757-.504-.126-.127-.252-.127-.252-.127s.126 0 .252.127l.757.378c.757.379 1.767 1.01 3.029 1.767 2.65 1.514 6.562 3.66 11.358 6.184a370.868 370.868 0 0017.163 8.455c3.281 1.515 6.689 3.029 10.349 4.67 3.659 1.514 7.319 3.281 11.231 4.417 1.01.252 2.02.378 2.903.378.505 0 .883-.126 1.262-.505.379-.378.631-.631.883-1.135 1.136-1.641 2.02-3.408 2.777-5.175 1.64-3.533 3.029-7.067 4.417-10.348 2.776-6.689 5.174-12.62 7.319-17.668 2.146-5.048 3.913-8.96 5.301-11.737.631-1.388 1.136-2.397 1.514-3.155.126-.378.253-.631.379-.757l.252-.505z" fill="#0E151D"/><path d="M474.621 414.533s.252 13.882 5.426 11.358c5.175-2.524 21.707-20.697 21.707-20.697l-17.794 2.524-9.339 6.815z" fill="#FFBE9D"/><path d="M387.5 809.543c.132-.162-2.682-2.699-6.286-5.667-3.605-2.969-6.635-5.245-6.768-5.083-.133.161 2.682 2.699 6.286 5.667 3.605 2.969 6.635 5.244 6.768 5.083zm4.87-10.303c.042-.205-3.633-1.129-8.208-2.065-4.575-.935-8.318-1.527-8.36-1.322-.041.204 3.633 1.129 8.208 2.064s8.318 1.528 8.36 1.323zm-9.78-9.107c4.492-1.279 8.086-2.479 8.029-2.68-.057-.201-3.745.673-8.236 1.952-4.492 1.279-8.086 2.479-8.029 2.68.057.201 3.745-.673 8.236-1.952zm-20.616 4.249c.027-.207-3.702-.878-8.331-1.497-4.629-.62-8.404-.955-8.431-.747-.028.207 3.702.877 8.33 1.497 4.629.62 8.404.954 8.432.747zm15.073-10.953c2.298-4.065 4.014-7.444 3.832-7.546-.182-.103-2.193 3.109-4.491 7.174-2.299 4.065-4.015 7.443-3.833 7.546.182.103 2.193-3.109 4.492-7.174zm-12.907 7.225c.139-.156-2.574-2.801-6.06-5.909-3.485-3.108-6.424-5.501-6.563-5.345-.139.156 2.574 2.802 6.06 5.91 3.485 3.108 6.423 5.5 6.563 5.344zm-6.742 13.038c4.209-2.023 7.547-3.816 7.457-4.004-.091-.189-3.576 1.298-7.785 3.321s-7.547 3.816-7.457 4.005c.091.188 3.576-1.299 7.785-3.322zm5.949 5.105c2.801-3.736 4.937-6.866 4.77-6.992-.167-.125-2.574 2.802-5.376 6.537-2.802 3.736-4.938 6.866-4.771 6.992.168.125 2.575-2.801 5.377-6.537zm9.462 9.764c.208-.028-.135-3.802-.764-8.429-.63-4.628-1.308-8.356-1.515-8.328-.207.028.135 3.802.764 8.43.63 4.627 1.308 8.355 1.515 8.327zm-4.918-29.537c.207-.028-.135-3.802-.764-8.429-.63-4.627-1.308-8.356-1.515-8.328-.208.029.135 3.803.764 8.43.63 4.627 1.308 8.356 1.515 8.327z" fill="#E0E0E0"/><path d="M368.739 804.996a9.339 9.339 0 009.339-9.339 9.339 9.339 0 00-9.339-9.339 9.339 9.339 0 00-9.339 9.339 9.339 9.339 0 009.339 9.339z" fill="#455A64"/><path d="M368.739 767.767c-15.775 0-28.521 12.746-28.521 28.521s12.746 28.522 28.521 28.522 28.521-12.747 28.521-28.522c0-15.649-12.746-28.521-28.521-28.521zm0 49.218c-11.737 0-21.328-9.465-21.328-21.328s9.465-21.328 21.328-21.328c11.737 0 21.328 9.465 21.328 21.328s-9.591 21.328-21.328 21.328z" fill="#0E151D"/><path d="M368.36 779.251l-3.786 13.756c-.631 2.398.758 4.795 3.155 5.553 2.398.631 4.796-.757 5.553-3.029l4.039-13.756-8.961-2.524zm73.323-243.818l1.766-7.446s-39.122-10.096-50.353 11.61l1.388 1.262s5.174-6.31 19.939-6.057c14.766.126 18.173 3.533 18.173 3.533l9.087-2.902z" fill="#0E151D"/><path opacity=".4" d="M431.334 537.578l-43.665 169.739 11.484 3.66 44.296-182.485-12.115 9.086z" fill="#000"/><path d="M606.772 809.577c.133-.162-2.681-2.699-6.286-5.668-3.604-2.968-6.634-5.244-6.767-5.083-.133.162 2.681 2.699 6.286 5.668 3.605 2.968 6.635 5.244 6.767 5.083zm4.858-10.266c.042-.205-3.633-1.129-8.208-2.065-4.575-.935-8.318-1.527-8.36-1.322-.042.205 3.633 1.129 8.208 2.064 4.575.936 8.318 1.528 8.36 1.323zm-9.722-9.101c4.491-1.279 8.085-2.479 8.027-2.68-.057-.201-3.744.673-8.235 1.952s-8.085 2.479-8.028 2.68c.058.201 3.745-.673 8.236-1.952zm-20.667 4.227c.028-.207-3.702-.878-8.331-1.497-4.628-.62-8.403-.954-8.431-.747-.028.207 3.702.878 8.331 1.497 4.628.62 8.403.954 8.431.747zm15.076-10.975c2.298-4.065 4.014-7.444 3.832-7.547-.182-.103-2.193 3.109-4.491 7.174-2.299 4.065-4.014 7.444-3.832 7.547.182.103 2.192-3.109 4.491-7.174zm-12.906 7.213c.139-.156-2.573-2.802-6.059-5.91-3.485-3.108-6.424-5.5-6.563-5.344-.139.156 2.574 2.802 6.059 5.909 3.486 3.108 6.424 5.501 6.563 5.345zm-6.65 13.003c4.209-2.024 7.548-3.817 7.457-4.005-.091-.189-3.576 1.299-7.785 3.322-4.209 2.024-7.547 3.817-7.457 4.005.091.189 3.576-1.299 7.785-3.322zm5.957 5.224c2.802-3.736 4.938-6.866 4.771-6.991-.167-.126-2.574 2.801-5.376 6.537-2.802 3.736-4.938 6.866-4.771 6.991.168.126 2.575-2.801 5.376-6.537zm9.438 9.776c.207-.029-.136-3.803-.765-8.43-.63-4.627-1.308-8.356-1.515-8.327-.207.028.135 3.802.765 8.429.629 4.627 1.307 8.356 1.515 8.328zm-4.934-29.663c.207-.028-.135-3.802-.765-8.43-.629-4.627-1.308-8.355-1.515-8.327-.207.028.135 3.802.765 8.43.629 4.627 1.307 8.355 1.515 8.327z" fill="#E0E0E0"/><path d="M588.075 805.122a9.339 9.339 0 009.338-9.339 9.34 9.34 0 10-9.338 9.339z" fill="#455A64"/><path d="M588.075 767.893c-15.775 0-28.522 12.746-28.522 28.521s12.747 28.522 28.522 28.522c15.775 0 28.521-12.747 28.521-28.522 0-15.775-12.746-28.521-28.521-28.521zm0 49.092c-11.737 0-21.328-9.465-21.328-21.328s9.465-21.328 21.328-21.328c11.736 0 21.327 9.465 21.327 21.328s-9.591 21.328-21.327 21.328z" fill="#0E151D"/><path d="M408.113 789.978c0 2.146 1.767 3.913 3.913 3.913h145.887s5.679-25.745 30.162-25.998c16.91-.126 24.735 10.98 28.016 17.668 1.136 2.272 4.038 2.903 6.058 1.262 1.388-1.136 1.766-3.155.883-4.795-3.281-6.184-13.377-21.581-34.957-21.581-28.522.127-36.598 26.502-36.598 26.502l-139.451-.883c-2.146 0-3.913 1.767-3.913 3.912z" fill="#DF2C2C"/><path d="M434.615 805.753h152.071a5.924 5.924 0 005.932-5.931 5.924 5.924 0 00-5.932-5.931H413.161l3.786 4.038c4.544 5.048 10.98 7.824 17.668 7.824z" fill="#0E151D"/><path d="M353.974 767.515c-1.01-1.515-.505-3.534 1.135-4.417 5.048-2.651 16.028-6.689 29.531-1.136 14.513 5.931 21.328 21.328 20.823 34.2-.126 1.767-1.514 3.029-3.281 3.029-1.641 0-3.029-1.262-3.155-2.903-.631-6.688-3.534-23.094-18.425-28.269-10.98-3.786-19.183-1.388-22.842.379-1.262.883-2.903.379-3.786-.883z" fill="#DF2C2C"/><path opacity=".4" d="M353.974 767.515c-1.01-1.515-.505-3.534 1.135-4.417 5.048-2.651 16.028-6.689 29.531-1.136 14.513 5.931 21.328 21.328 20.823 34.2-.126 1.767-1.514 3.029-3.281 3.029-1.641 0-3.029-1.262-3.155-2.903-.631-6.688-3.534-23.094-18.425-28.269-10.98-3.786-19.183-1.388-22.842.379-1.262.883-2.903.379-3.786-.883z" fill="#000"/><path d="M364.827 782.911l14.134 3.912 9.213-31.424c.378-1.262 1.893-1.514 2.65-.504l27.512 33.569h19.813l-43.413-54.14 6.058-26.25-13.756-3.407-22.211 78.244z" fill="#DF2C2C"/><path d="M551.477 786.949c0 .127-31.298.127-70.041-.126-38.618-.252-70.041-.631-70.041-.757s31.297-.126 70.041.126c38.743.253 70.041.631 70.041.757z" fill="#0E151D"/><path d="M434.868 526.094l55.654-15.396c9.086-5.301 16.027-13.63 19.561-23.474l16.154-44.927c1.262-2.902 2.397-5.679 2.65-7.193 1.136-5.174 1.262-15.649-1.893-20.192-1.641-2.398-3.912-5.427-8.456-6.31-7.445-1.515-15.775.378-20.696 13.125l-17.037 63.1-47.83 25.618 1.893 15.649z" fill="#FFBE9D"/><path d="M489.26 446.083c-.631-.378 5.426-5.679 9.97-7.319 2.776-1.01 16.279-3.534 21.327 2.397 6.058 7.32 1.767 14.513 1.767 14.513s1.136-.631 2.777-3.659c2.524-4.67 5.3-15.397 5.3-15.397s4.291-25.24-8.077-28.647c-12.367-3.408-19.687.378-21.328 3.407-1.64 3.029-11.736 34.705-11.736 34.705z" fill="#DF2C2C"/><path d="M520.053 460.091s.252-.757.883-1.893c.631-1.262 1.515-3.028 2.146-5.426.631-2.272 1.009-5.427-.379-8.329-1.388-2.903-4.417-5.048-7.951-6.184-1.766-.505-3.533-.631-5.3-.631-1.767-.126-3.407 0-5.048.126a28.677 28.677 0 00-8.203 2.272c-2.272 1.009-3.786 2.271-4.669 3.281-.884 1.009-1.136 1.767-1.262 1.767 0 0 0-.127.252-.505.126-.379.379-.757.883-1.388.758-1.136 2.398-2.524 4.67-3.534 2.271-1.01 5.048-2.019 8.329-2.524 1.641-.252 3.407-.252 5.174-.252 1.767.126 3.66.126 5.553.757 3.66 1.136 6.815 3.407 8.329 6.562 1.388 3.155 1.01 6.31.253 8.708-.758 2.398-1.767 4.165-2.398 5.3-.379.631-.631 1.01-.757 1.389l-.505.504zm-26.448-28.148c1.913-5.827 3.303-10.604 3.104-10.669-.198-.065-1.91 4.606-3.823 10.433s-3.303 10.604-3.104 10.67c.198.065 1.91-4.606 3.823-10.434zm23.04-24.603c0 .126-1.135-.379-3.028-.631-1.893-.253-4.544-.253-7.32.883-2.776 1.01-4.796 2.777-6.058 4.291-1.262 1.388-1.766 2.524-1.893 2.524 0 0 .379-1.136 1.515-2.776 1.136-1.515 3.281-3.534 6.184-4.544 2.902-1.135 5.679-1.009 7.572-.631 2.019.253 3.028.884 3.028.884zm12.703 30.452c1.071-8.155 1.772-14.788 1.565-14.815-.208-.027-1.245 6.561-2.316 14.716-1.072 8.154-1.772 14.787-1.565 14.814.207.028 1.244-6.561 2.316-14.715z" fill="#0E151D"/><path d="M410.133 519.658c-1.767 1.009-2.524 3.155-1.767 5.048l5.048 12.998c.883 1.389 2.65 1.893 4.164 1.262 3.786-1.64 8.203-2.902 9.465-5.3.884-1.893-1.388-2.776-1.388-2.776l-8.455.883-1.01-7.951 7.446-2.65s1.01 5.427 3.66 7.067c3.66 2.272 11.989-3.155 11.989-3.155l-5.048-14.891-13.756 3.281-10.348 6.184z" fill="#FFBE9D"/><path d="M426.286 522.308s-2.145 11.106-1.388 12.872c.505 1.389 4.796 1.893 5.048-1.514.631-7.067 2.272-5.3 4.796-5.679 2.524-.379 5.174-3.66 3.407-6.31-2.776-4.038-11.863.631-11.863.631z" fill="#FFBE9D"/><path d="M417.326 531.773c0-.126.883-.252 2.272-.505.757-.126 1.64-.252 2.524-.378 1.009-.127 2.019-.253 3.155-.127.252 0 .631.127.883.379s.505.505.631.757c.252.631.252 1.136.126 1.641-.126.505-.252 1.009-.631 1.388-.252.379-.757.631-1.009.757-1.262.757-2.146 1.01-2.146.884 0-.127.757-.505 1.893-1.262.253-.253.631-.379.757-.758.253-.252.379-.757.379-1.135.126-.884-.126-1.893-1.136-2.02-1.009-.126-2.019 0-3.029.127-.883.126-1.766.126-2.524.126-1.262.126-2.145.126-2.145.126zm-.252.252c-.253 0-.379-1.893-1.01-3.912-.631-2.145-1.641-3.66-1.514-3.786.126-.126 1.388 1.388 2.145 3.66.757 2.145.505 4.038.379 4.038z" fill="#EB996E"/><path d="M422.67 531.664a5.3 5.3 0 10-4.348-9.667 5.3 5.3 0 104.348 9.667z" fill="#455A64"/><path d="M529.644 425.008c-.126 0-.884-2.146-2.65-5.427-.884-1.64-2.02-3.533-3.786-5.048-1.767-1.64-4.291-2.776-6.941-3.029-2.777-.378-5.427 0-7.699.758-2.271.631-4.29 1.64-5.931 2.524-1.641.883-2.903 1.64-3.786 2.271-.883.505-1.388.884-1.388.757 0 0 .378-.378 1.262-1.009.883-.631 2.019-1.515 3.66-2.398 1.64-.883 3.533-1.893 5.931-2.65 2.398-.757 5.174-1.136 7.951-.757 2.902.378 5.426 1.514 7.319 3.281 1.893 1.64 3.029 3.66 3.786 5.3.884 1.641 1.388 3.029 1.767 4.039.379.757.505 1.262.505 1.388zm-1.388 14.765c-.126.126-.505-2.271-2.903-5.048-1.136-1.388-2.902-2.776-4.922-3.912-2.145-1.136-4.669-1.767-7.445-2.019-5.553-.505-10.601 1.009-14.009 2.145-1.766.631-3.155 1.136-4.038 1.515-1.01.378-1.514.504-1.514.504s.504-.252 1.388-.757c.883-.378 2.271-1.009 4.038-1.64 3.408-1.262 8.456-2.903 14.261-2.398 2.776.252 5.553 1.009 7.698 2.145 2.145 1.136 3.912 2.65 5.048 4.165 1.136 1.514 1.767 2.902 2.145 3.786.127.505.253.883.379 1.136-.126.252-.126.378-.126.378z" fill="#FAFAFA"/><path d="M493.803 488.991s-.252-.252-.757-.631c-.505-.378-1.136-1.136-2.145-1.767-2.146-1.135-5.679-1.64-9.97-1.64h.126c-3.155 1.64-6.689 3.66-10.601 5.931a838.612 838.612 0 00-12.62 7.067c-8.96 5.048-17.163 9.213-23.473 12.368-4.165 1.01-7.572 1.767-10.096 2.272-1.136.252-2.019.504-2.776.631-.631.126-1.01.126-1.01.126s.379-.126.883-.253a24.322 24.322 0 002.777-.757 523.02 523.02 0 019.97-2.524c6.183-3.281 14.513-7.572 23.347-12.494a833.711 833.711 0 0112.62-7.067c3.912-2.145 7.572-4.164 10.6-5.805 4.291.126 7.951.631 10.096 1.893 1.01.631 1.641 1.388 2.146 1.893.631.505.883.757.883.757z" fill="#EB996E"/><path d="M263.614 768.777c2.903.504 5.427 2.271 7.068 4.669 1.64 2.398 2.524 5.3 2.902 8.077.757 5.553-.883 11.863-3.029 17.037-5.552-2.777-8.455-9.465-9.717-12.873-1.893-5.426-2.145-16.532 2.776-16.91zm14.513 37.355c-1.514-2.903-1.135-6.563.631-9.213 1.767-2.65 4.796-4.417 8.077-5.048 1.515-.252 3.155-.252 4.291.757 1.01.884 1.388 2.524 1.01 3.913-.253 1.388-1.136 2.524-2.146 3.533-3.155 3.408-7.067 6.184-11.863 6.058z" fill="#698842"/><path d="M276.613 824.178s-.126-.378-.126-1.135c0-.758-.126-1.893-.253-3.155-.126-2.651-.504-6.437.631-10.349 1.01-4.038 3.029-7.193 4.922-9.086 1.01-.884 1.893-1.641 2.524-2.019.253-.253.631-.379.757-.379.127-.126.253-.126.253-.126 0 .126-1.515.757-3.281 2.65-1.893 1.893-3.786 5.048-4.796 8.96-1.01 3.912-.757 7.572-.757 10.222 0 1.389.126 2.398.126 3.155.126.884.126 1.262 0 1.262z" fill="#0E151D"/><path d="M264.498 777.232s.126.126.126.505c.126.379.252.757.505 1.388.378 1.136.883 2.903 1.514 5.048 1.262 4.291 2.903 10.222 4.67 16.911 1.64 6.562 3.155 12.62 4.038 17.037a161.98 161.98 0 011.136 5.174c.126.631.252 1.01.252 1.388 0 .379.126.505.126.505s-.126-.126-.126-.505c-.126-.378-.252-.883-.378-1.388-.253-1.262-.758-3.029-1.262-5.174-1.01-4.291-2.524-10.349-4.165-16.911-1.641-6.562-3.281-12.62-4.543-16.911-.631-2.145-1.01-3.786-1.388-5.048-.127-.631-.253-1.009-.379-1.388 0-.505-.126-.631-.126-.631z" fill="#0E151D"/><path d="M271.186 811.432c-2.776-6.31-8.707-10.979-15.396-12.367-1.767-.379-3.786-.253-4.796 1.135-1.009 1.515-.126 3.408.884 4.796 4.291 5.931 12.367 8.708 19.308 6.815" fill="#698842"/><path d="M257.809 804.113s.379 0 1.136.126c.379.126.757.126 1.262.252s1.01.253 1.641.505l1.893.757c.631.253 1.388.631 2.145 1.136 1.388.883 2.903 1.893 4.291 3.281 1.388 1.388 2.524 2.777 3.407 4.291a28.93 28.93 0 001.136 2.019c.379.631.631 1.262.757 1.893.253.631.379 1.136.505 1.641.126.505.252.883.252 1.262.127.631.127 1.009.127 1.136-.127 0-.379-1.515-1.262-3.786-.253-.631-.505-1.262-.884-1.893-.252-.631-.757-1.389-1.136-2.02-.883-1.388-2.019-2.776-3.281-4.164-1.388-1.262-2.776-2.398-4.164-3.281-.758-.379-1.389-.758-2.02-1.136a5.935 5.935 0 00-1.893-.757c-2.397-.884-3.912-1.262-3.912-1.262z" fill="#0E151D"/></g><defs><linearGradient id="paint0_linear" x1="609.237" y1="866.435" x2="316.237" y2="572.874" gradientUnits="userSpaceOnUse"><stop stop-color="#fff" stop-opacity=".64"/><stop offset=".305" stop-color="#fff" stop-opacity=".79"/><stop offset="1" stop-color="#fff"/></linearGradient><clipPath id="clip0"><path fill="#fff" transform="translate(199 227)" d="M0 0h631v631H0z"/></clipPath></defs></svg>