<svg width="739" height="801" fill="none" xmlns="http://www.w3.org/2000/svg"><circle cx="28" cy="742" r="3" fill="#5F5F5F" fill-opacity=".1"/><circle cx="36" cy="742" r="3" fill="#5F5F5F" fill-opacity=".1"/><circle cx="44" cy="742" r="3" fill="#5F5F5F" fill-opacity=".1"/><circle cx="52" cy="742" r="3" fill="#5F5F5F" fill-opacity=".1"/><circle cx="60" cy="742" r="3" fill="#5F5F5F" fill-opacity=".1"/><circle cx="68" cy="742" r="3" fill="#5F5F5F" fill-opacity=".1"/><circle cx="28" cy="750" r="3" fill="#5F5F5F" fill-opacity=".1"/><circle cx="36" cy="750" r="3" fill="#5F5F5F" fill-opacity=".1"/><circle cx="44" cy="750" r="3" fill="#5F5F5F" fill-opacity=".1"/><circle cx="52" cy="750" r="3" fill="#5F5F5F" fill-opacity=".1"/><circle cx="60" cy="750" r="3" fill="#5F5F5F" fill-opacity=".1"/><circle cx="68" cy="750" r="3" fill="#5F5F5F" fill-opacity=".1"/><circle cx="28" cy="758" r="3" fill="#5F5F5F" fill-opacity=".1"/><circle cx="36" cy="758" r="3" fill="#5F5F5F" fill-opacity=".1"/><circle cx="44" cy="758" r="3" fill="#5F5F5F" fill-opacity=".1"/><circle cx="52" cy="758" r="3" fill="#5F5F5F" fill-opacity=".1"/><circle cx="60" cy="758" r="3" fill="#5F5F5F" fill-opacity=".1"/><circle cx="68" cy="758" r="3" fill="#5F5F5F" fill-opacity=".1"/><circle cx="28" cy="766" r="3" fill="#5F5F5F" fill-opacity=".1"/><circle cx="36" cy="766" r="3" fill="#5F5F5F" fill-opacity=".1"/><circle cx="44" cy="766" r="3" fill="#5F5F5F" fill-opacity=".1"/><circle cx="52" cy="766" r="3" fill="#5F5F5F" fill-opacity=".1"/><circle cx="60" cy="766" r="3" fill="#5F5F5F" fill-opacity=".1"/><circle cx="68" cy="766" r="3" fill="#5F5F5F" fill-opacity=".1"/><circle cx="28" cy="774" r="3" fill="#5F5F5F" fill-opacity=".1"/><circle cx="36" cy="774" r="3" fill="#5F5F5F" fill-opacity=".1"/><circle cx="44" cy="774" r="3" fill="#5F5F5F" fill-opacity=".1"/><circle cx="52" cy="774" r="3" fill="#5F5F5F" fill-opacity=".1"/><circle cx="60" cy="774" r="3" fill="#5F5F5F" fill-opacity=".1"/><circle cx="68" cy="774" r="3" fill="#5F5F5F" fill-opacity=".1"/><circle cx="28" cy="782" r="3" fill="#5F5F5F" fill-opacity=".1"/><circle cx="36" cy="782" r="3" fill="#5F5F5F" fill-opacity=".1"/><circle cx="44" cy="782" r="3" fill="#5F5F5F" fill-opacity=".1"/><circle cx="52" cy="782" r="3" fill="#5F5F5F" fill-opacity=".1"/><circle cx="60" cy="782" r="3" fill="#5F5F5F" fill-opacity=".1"/><circle cx="68" cy="782" r="3" fill="#5F5F5F" fill-opacity=".1"/><circle cx="28" cy="790" r="3" fill="#5F5F5F" fill-opacity=".1"/><circle cx="36" cy="790" r="3" fill="#5F5F5F" fill-opacity=".1"/><circle cx="44" cy="790" r="3" fill="#5F5F5F" fill-opacity=".1"/><circle cx="52" cy="790" r="3" fill="#5F5F5F" fill-opacity=".1"/><circle cx="60" cy="790" r="3" fill="#5F5F5F" fill-opacity=".1"/><circle cx="68" cy="790" r="3" fill="#5F5F5F" fill-opacity=".1"/><circle cx="28" cy="798" r="3" fill="#5F5F5F" fill-opacity=".1"/><circle cx="36" cy="798" r="3" fill="#5F5F5F" fill-opacity=".1"/><circle cx="44" cy="798" r="3" fill="#5F5F5F" fill-opacity=".1"/><circle cx="52" cy="798" r="3" fill="#5F5F5F" fill-opacity=".1"/><circle cx="60" cy="798" r="3" fill="#5F5F5F" fill-opacity=".1"/><circle cx="68" cy="798" r="3" fill="#5F5F5F" fill-opacity=".1"/><circle cx="76" cy="718" r="3" fill="#5F5F5F" fill-opacity=".1"/><circle cx="84" cy="718" r="3" fill="#5F5F5F" fill-opacity=".1"/><circle cx="92" cy="718" r="3" fill="#5F5F5F" fill-opacity=".1"/><circle cx="100" cy="718" r="3" fill="#5F5F5F" fill-opacity=".1"/><circle cx="108" cy="718" r="3" fill="#5F5F5F" fill-opacity=".1"/><circle cx="116" cy="718" r="3" fill="#5F5F5F" fill-opacity=".1"/><circle cx="76" cy="726" r="3" fill="#5F5F5F" fill-opacity=".1"/><circle cx="84" cy="726" r="3" fill="#5F5F5F" fill-opacity=".1"/><circle cx="92" cy="726" r="3" fill="#5F5F5F" fill-opacity=".1"/><circle cx="100" cy="726" r="3" fill="#5F5F5F" fill-opacity=".1"/><circle cx="108" cy="726" r="3" fill="#5F5F5F" fill-opacity=".1"/><circle cx="116" cy="726" r="3" fill="#5F5F5F" fill-opacity=".1"/><circle cx="76" cy="734" r="3" fill="#5F5F5F" fill-opacity=".1"/><circle cx="84" cy="734" r="3" fill="#5F5F5F" fill-opacity=".1"/><circle cx="92" cy="734" r="3" fill="#5F5F5F" fill-opacity=".1"/><circle cx="100" cy="734" r="3" fill="#5F5F5F" fill-opacity=".1"/><circle cx="108" cy="734" r="3" fill="#5F5F5F" fill-opacity=".1"/><circle cx="116" cy="734" r="3" fill="#5F5F5F" fill-opacity=".1"/><circle cx="76" cy="742" r="3" fill="#5F5F5F" fill-opacity=".1"/><circle cx="84" cy="742" r="3" fill="#5F5F5F" fill-opacity=".1"/><circle cx="92" cy="742" r="3" fill="#5F5F5F" fill-opacity=".1"/><circle cx="100" cy="742" r="3" fill="#5F5F5F" fill-opacity=".1"/><circle cx="108" cy="742" r="3" fill="#5F5F5F" fill-opacity=".1"/><circle cx="116" cy="742" r="3" fill="#5F5F5F" fill-opacity=".1"/><circle cx="76" cy="750" r="3" fill="#5F5F5F" fill-opacity=".1"/><circle cx="84" cy="750" r="3" fill="#5F5F5F" fill-opacity=".1"/><circle cx="92" cy="750" r="3" fill="#5F5F5F" fill-opacity=".1"/><circle cx="100" cy="750" r="3" fill="#5F5F5F" fill-opacity=".1"/><circle cx="108" cy="750" r="3" fill="#5F5F5F" fill-opacity=".1"/><circle cx="116" cy="750" r="3" fill="#5F5F5F" fill-opacity=".1"/><circle cx="76" cy="758" r="3" fill="#5F5F5F" fill-opacity=".1"/><circle cx="84" cy="758" r="3" fill="#5F5F5F" fill-opacity=".1"/><circle cx="92" cy="758" r="3" fill="#5F5F5F" fill-opacity=".1"/><circle cx="100" cy="758" r="3" fill="#5F5F5F" fill-opacity=".1"/><circle cx="108" cy="758" r="3" fill="#5F5F5F" fill-opacity=".1"/><circle cx="116" cy="758" r="3" fill="#5F5F5F" fill-opacity=".1"/><circle cx="76" cy="766" r="3" fill="#5F5F5F" fill-opacity=".1"/><circle cx="84" cy="766" r="3" fill="#5F5F5F" fill-opacity=".1"/><circle cx="92" cy="766" r="3" fill="#5F5F5F" fill-opacity=".1"/><circle cx="100" cy="766" r="3" fill="#5F5F5F" fill-opacity=".1"/><circle cx="108" cy="766" r="3" fill="#5F5F5F" fill-opacity=".1"/><circle cx="116" cy="766" r="3" fill="#5F5F5F" fill-opacity=".1"/><circle cx="76" cy="774" r="3" fill="#5F5F5F" fill-opacity=".1"/><circle cx="84" cy="774" r="3" fill="#5F5F5F" fill-opacity=".1"/><circle cx="92" cy="774" r="3" fill="#5F5F5F" fill-opacity=".1"/><circle cx="100" cy="774" r="3" fill="#5F5F5F" fill-opacity=".1"/><circle cx="108" cy="774" r="3" fill="#5F5F5F" fill-opacity=".1"/><circle cx="116" cy="774" r="3" fill="#5F5F5F" fill-opacity=".1"/><circle cx="28" cy="678" r="3" fill="#5F5F5F" fill-opacity=".1"/><circle cx="36" cy="678" r="3" fill="#5F5F5F" fill-opacity=".1"/><circle cx="44" cy="678" r="3" fill="#5F5F5F" fill-opacity=".1"/><circle cx="52" cy="678" r="3" fill="#5F5F5F" fill-opacity=".1"/><circle cx="60" cy="678" r="3" fill="#5F5F5F" fill-opacity=".1"/><circle cx="68" cy="678" r="3" fill="#5F5F5F" fill-opacity=".1"/><circle cx="28" cy="686" r="3" fill="#5F5F5F" fill-opacity=".1"/><circle cx="36" cy="686" r="3" fill="#5F5F5F" fill-opacity=".1"/><circle cx="44" cy="686" r="3" fill="#5F5F5F" fill-opacity=".1"/><circle cx="52" cy="686" r="3" fill="#5F5F5F" fill-opacity=".1"/><circle cx="60" cy="686" r="3" fill="#5F5F5F" fill-opacity=".1"/><circle cx="68" cy="686" r="3" fill="#5F5F5F" fill-opacity=".1"/><circle cx="28" cy="694" r="3" fill="#5F5F5F" fill-opacity=".1"/><circle cx="36" cy="694" r="3" fill="#5F5F5F" fill-opacity=".1"/><circle cx="44" cy="694" r="3" fill="#5F5F5F" fill-opacity=".1"/><circle cx="52" cy="694" r="3" fill="#5F5F5F" fill-opacity=".1"/><circle cx="60" cy="694" r="3" fill="#5F5F5F" fill-opacity=".1"/><circle cx="68" cy="694" r="3" fill="#5F5F5F" fill-opacity=".1"/><circle cx="28" cy="702" r="3" fill="#5F5F5F" fill-opacity=".1"/><circle cx="36" cy="702" r="3" fill="#5F5F5F" fill-opacity=".1"/><circle cx="44" cy="702" r="3" fill="#5F5F5F" fill-opacity=".1"/><circle cx="52" cy="702" r="3" fill="#5F5F5F" fill-opacity=".1"/><circle cx="60" cy="702" r="3" fill="#5F5F5F" fill-opacity=".1"/><circle cx="68" cy="702" r="3" fill="#5F5F5F" fill-opacity=".1"/><circle cx="28" cy="710" r="3" fill="#5F5F5F" fill-opacity=".1"/><circle cx="36" cy="710" r="3" fill="#5F5F5F" fill-opacity=".1"/><circle cx="44" cy="710" r="3" fill="#5F5F5F" fill-opacity=".1"/><circle cx="52" cy="710" r="3" fill="#5F5F5F" fill-opacity=".1"/><circle cx="60" cy="710" r="3" fill="#5F5F5F" fill-opacity=".1"/><circle cx="68" cy="710" r="3" fill="#5F5F5F" fill-opacity=".1"/><circle cx="28" cy="718" r="3" fill="#5F5F5F" fill-opacity=".1"/><circle cx="36" cy="718" r="3" fill="#5F5F5F" fill-opacity=".1"/><circle cx="44" cy="718" r="3" fill="#5F5F5F" fill-opacity=".1"/><circle cx="52" cy="718" r="3" fill="#5F5F5F" fill-opacity=".1"/><circle cx="60" cy="718" r="3" fill="#5F5F5F" fill-opacity=".1"/><circle cx="68" cy="718" r="3" fill="#5F5F5F" fill-opacity=".1"/><circle cx="28" cy="726" r="3" fill="#5F5F5F" fill-opacity=".1"/><circle cx="36" cy="726" r="3" fill="#5F5F5F" fill-opacity=".1"/><circle cx="44" cy="726" r="3" fill="#5F5F5F" fill-opacity=".1"/><circle cx="52" cy="726" r="3" fill="#5F5F5F" fill-opacity=".1"/><circle cx="60" cy="726" r="3" fill="#5F5F5F" fill-opacity=".1"/><circle cx="68" cy="726" r="3" fill="#5F5F5F" fill-opacity=".1"/><circle cx="28" cy="734" r="3" fill="#5F5F5F" fill-opacity=".1"/><circle cx="36" cy="734" r="3" fill="#5F5F5F" fill-opacity=".1"/><circle cx="44" cy="734" r="3" fill="#5F5F5F" fill-opacity=".1"/><circle cx="52" cy="734" r="3" fill="#5F5F5F" fill-opacity=".1"/><circle cx="60" cy="734" r="3" fill="#5F5F5F" fill-opacity=".1"/><circle cx="68" cy="734" r="3" fill="#5F5F5F" fill-opacity=".1"/><circle cx="124" cy="718" r="3" fill="#5F5F5F" fill-opacity=".1"/><circle cx="132" cy="718" r="3" fill="#5F5F5F" fill-opacity=".1"/><circle cx="140" cy="718" r="3" fill="#5F5F5F" fill-opacity=".1"/><circle cx="148" cy="718" r="3" fill="#5F5F5F" fill-opacity=".1"/><circle cx="156" cy="718" r="3" fill="#5F5F5F" fill-opacity=".1"/><circle cx="164" cy="718" r="3" fill="#5F5F5F" fill-opacity=".1"/><circle cx="124" cy="726" r="3" fill="#5F5F5F" fill-opacity=".1"/><circle cx="132" cy="726" r="3" fill="#5F5F5F" fill-opacity=".1"/><circle cx="140" cy="726" r="3" fill="#5F5F5F" fill-opacity=".1"/><circle cx="148" cy="726" r="3" fill="#5F5F5F" fill-opacity=".1"/><circle cx="156" cy="726" r="3" fill="#5F5F5F" fill-opacity=".1"/><circle cx="164" cy="726" r="3" fill="#5F5F5F" fill-opacity=".1"/><circle cx="124" cy="734" r="3" fill="#5F5F5F" fill-opacity=".1"/><circle cx="132" cy="734" r="3" fill="#5F5F5F" fill-opacity=".1"/><circle cx="140" cy="734" r="3" fill="#5F5F5F" fill-opacity=".1"/><circle cx="148" cy="734" r="3" fill="#5F5F5F" fill-opacity=".1"/><circle cx="156" cy="734" r="3" fill="#5F5F5F" fill-opacity=".1"/><circle cx="164" cy="734" r="3" fill="#5F5F5F" fill-opacity=".1"/><circle cx="124" cy="742" r="3" fill="#5F5F5F" fill-opacity=".1"/><circle cx="132" cy="742" r="3" fill="#5F5F5F" fill-opacity=".1"/><circle cx="140" cy="742" r="3" fill="#5F5F5F" fill-opacity=".1"/><circle cx="148" cy="742" r="3" fill="#5F5F5F" fill-opacity=".1"/><circle cx="156" cy="742" r="3" fill="#5F5F5F" fill-opacity=".1"/><circle cx="164" cy="742" r="3" fill="#5F5F5F" fill-opacity=".1"/><circle cx="124" cy="750" r="3" fill="#5F5F5F" fill-opacity=".1"/><circle cx="132" cy="750" r="3" fill="#5F5F5F" fill-opacity=".1"/><circle cx="140" cy="750" r="3" fill="#5F5F5F" fill-opacity=".1"/><circle cx="148" cy="750" r="3" fill="#5F5F5F" fill-opacity=".1"/><circle cx="156" cy="750" r="3" fill="#5F5F5F" fill-opacity=".1"/><circle cx="164" cy="750" r="3" fill="#5F5F5F" fill-opacity=".1"/><circle cx="124" cy="758" r="3" fill="#5F5F5F" fill-opacity=".1"/><circle cx="132" cy="758" r="3" fill="#5F5F5F" fill-opacity=".1"/><circle cx="140" cy="758" r="3" fill="#5F5F5F" fill-opacity=".1"/><circle cx="148" cy="758" r="3" fill="#5F5F5F" fill-opacity=".1"/><circle cx="156" cy="758" r="3" fill="#5F5F5F" fill-opacity=".1"/><circle cx="164" cy="758" r="3" fill="#5F5F5F" fill-opacity=".1"/><circle cx="124" cy="766" r="3" fill="#5F5F5F" fill-opacity=".1"/><circle cx="132" cy="766" r="3" fill="#5F5F5F" fill-opacity=".1"/><circle cx="140" cy="766" r="3" fill="#5F5F5F" fill-opacity=".1"/><circle cx="148" cy="766" r="3" fill="#5F5F5F" fill-opacity=".1"/><circle cx="156" cy="766" r="3" fill="#5F5F5F" fill-opacity=".1"/><circle cx="164" cy="766" r="3" fill="#5F5F5F" fill-opacity=".1"/><circle cx="124" cy="774" r="3" fill="#5F5F5F" fill-opacity=".1"/><circle cx="132" cy="774" r="3" fill="#5F5F5F" fill-opacity=".1"/><circle cx="140" cy="774" r="3" fill="#5F5F5F" fill-opacity=".1"/><circle cx="148" cy="774" r="3" fill="#5F5F5F" fill-opacity=".1"/><circle cx="156" cy="774" r="3" fill="#5F5F5F" fill-opacity=".1"/><circle cx="164" cy="774" r="3" fill="#5F5F5F" fill-opacity=".1"/><circle cx="34.751" cy="141" r="3" fill="#5F5F5F" fill-opacity=".1"/><circle cx="42.751" cy="141" r="3" fill="#5F5F5F" fill-opacity=".1"/><circle cx="50.751" cy="141" r="3" fill="#5F5F5F" fill-opacity=".1"/><circle cx="58.751" cy="141" r="3" fill="#5F5F5F" fill-opacity=".1"/><circle cx="66.751" cy="141" r="3" fill="#5F5F5F" fill-opacity=".1"/><circle cx="74.751" cy="141" r="3" fill="#5F5F5F" fill-opacity=".1"/><circle cx="34.751" cy="149" r="3" fill="#5F5F5F" fill-opacity=".1"/><circle cx="42.751" cy="149" r="3" fill="#5F5F5F" fill-opacity=".1"/><circle cx="50.751" cy="149" r="3" fill="#5F5F5F" fill-opacity=".1"/><circle cx="58.751" cy="149" r="3" fill="#5F5F5F" fill-opacity=".1"/><circle cx="66.751" cy="149" r="3" fill="#5F5F5F" fill-opacity=".1"/><circle cx="74.751" cy="149" r="3" fill="#5F5F5F" fill-opacity=".1"/><circle cx="34.751" cy="157" r="3" fill="#5F5F5F" fill-opacity=".1"/><circle cx="42.751" cy="157" r="3" fill="#5F5F5F" fill-opacity=".1"/><circle cx="50.751" cy="157" r="3" fill="#5F5F5F" fill-opacity=".1"/><circle cx="58.751" cy="157" r="3" fill="#5F5F5F" fill-opacity=".1"/><circle cx="66.751" cy="157" r="3" fill="#5F5F5F" fill-opacity=".1"/><circle cx="74.751" cy="157" r="3" fill="#5F5F5F" fill-opacity=".1"/><circle cx="34.751" cy="165" r="3" fill="#5F5F5F" fill-opacity=".1"/><circle cx="42.751" cy="165" r="3" fill="#5F5F5F" fill-opacity=".1"/><circle cx="50.751" cy="165" r="3" fill="#5F5F5F" fill-opacity=".1"/><circle cx="58.751" cy="165" r="3" fill="#5F5F5F" fill-opacity=".1"/><circle cx="66.751" cy="165" r="3" fill="#5F5F5F" fill-opacity=".1"/><circle cx="74.751" cy="165" r="3" fill="#5F5F5F" fill-opacity=".1"/><circle cx="34.751" cy="173" r="3" fill="#5F5F5F" fill-opacity=".1"/><circle cx="42.751" cy="173" r="3" fill="#5F5F5F" fill-opacity=".1"/><circle cx="50.751" cy="173" r="3" fill="#5F5F5F" fill-opacity=".1"/><circle cx="58.751" cy="173" r="3" fill="#5F5F5F" fill-opacity=".1"/><circle cx="66.751" cy="173" r="3" fill="#5F5F5F" fill-opacity=".1"/><circle cx="74.751" cy="173" r="3" fill="#5F5F5F" fill-opacity=".1"/><circle cx="34.751" cy="181" r="3" fill="#5F5F5F" fill-opacity=".1"/><circle cx="42.751" cy="181" r="3" fill="#5F5F5F" fill-opacity=".1"/><circle cx="50.751" cy="181" r="3" fill="#5F5F5F" fill-opacity=".1"/><circle cx="58.751" cy="181" r="3" fill="#5F5F5F" fill-opacity=".1"/><circle cx="66.751" cy="181" r="3" fill="#5F5F5F" fill-opacity=".1"/><circle cx="74.751" cy="181" r="3" fill="#5F5F5F" fill-opacity=".1"/><circle cx="34.751" cy="189" r="3" fill="#5F5F5F" fill-opacity=".1"/><circle cx="42.751" cy="189" r="3" fill="#5F5F5F" fill-opacity=".1"/><circle cx="50.751" cy="189" r="3" fill="#5F5F5F" fill-opacity=".1"/><circle cx="58.751" cy="189" r="3" fill="#5F5F5F" fill-opacity=".1"/><circle cx="66.751" cy="189" r="3" fill="#5F5F5F" fill-opacity=".1"/><circle cx="74.751" cy="189" r="3" fill="#5F5F5F" fill-opacity=".1"/><circle cx="34.751" cy="197" r="3" fill="#5F5F5F" fill-opacity=".1"/><circle cx="42.751" cy="197" r="3" fill="#5F5F5F" fill-opacity=".1"/><circle cx="50.751" cy="197" r="3" fill="#5F5F5F" fill-opacity=".1"/><circle cx="58.751" cy="197" r="3" fill="#5F5F5F" fill-opacity=".1"/><circle cx="66.751" cy="197" r="3" fill="#5F5F5F" fill-opacity=".1"/><circle cx="74.751" cy="197" r="3" fill="#5F5F5F" fill-opacity=".1"/><circle cx="82.751" cy="117" r="3" fill="#5F5F5F" fill-opacity=".1"/><circle cx="90.751" cy="117" r="3" fill="#5F5F5F" fill-opacity=".1"/><circle cx="98.751" cy="117" r="3" fill="#5F5F5F" fill-opacity=".1"/><circle cx="106.751" cy="117" r="3" fill="#5F5F5F" fill-opacity=".1"/><circle cx="114.751" cy="117" r="3" fill="#5F5F5F" fill-opacity=".1"/><circle cx="122.751" cy="117" r="3" fill="#5F5F5F" fill-opacity=".1"/><circle cx="82.751" cy="125" r="3" fill="#5F5F5F" fill-opacity=".1"/><circle cx="90.751" cy="125" r="3" fill="#5F5F5F" fill-opacity=".1"/><circle cx="98.751" cy="125" r="3" fill="#5F5F5F" fill-opacity=".1"/><circle cx="106.751" cy="125" r="3" fill="#5F5F5F" fill-opacity=".1"/><circle cx="114.751" cy="125" r="3" fill="#5F5F5F" fill-opacity=".1"/><circle cx="122.751" cy="125" r="3" fill="#5F5F5F" fill-opacity=".1"/><circle cx="82.751" cy="133" r="3" fill="#5F5F5F" fill-opacity=".1"/><circle cx="90.751" cy="133" r="3" fill="#5F5F5F" fill-opacity=".1"/><circle cx="98.751" cy="133" r="3" fill="#5F5F5F" fill-opacity=".1"/><circle cx="106.751" cy="133" r="3" fill="#5F5F5F" fill-opacity=".1"/><circle cx="114.751" cy="133" r="3" fill="#5F5F5F" fill-opacity=".1"/><circle cx="122.751" cy="133" r="3" fill="#5F5F5F" fill-opacity=".1"/><circle cx="82.751" cy="141" r="3" fill="#5F5F5F" fill-opacity=".1"/><circle cx="90.751" cy="141" r="3" fill="#5F5F5F" fill-opacity=".1"/><circle cx="98.751" cy="141" r="3" fill="#5F5F5F" fill-opacity=".1"/><circle cx="106.751" cy="141" r="3" fill="#5F5F5F" fill-opacity=".1"/><circle cx="114.751" cy="141" r="3" fill="#5F5F5F" fill-opacity=".1"/><circle cx="122.751" cy="141" r="3" fill="#5F5F5F" fill-opacity=".1"/><circle cx="82.751" cy="149" r="3" fill="#5F5F5F" fill-opacity=".1"/><circle cx="90.751" cy="149" r="3" fill="#5F5F5F" fill-opacity=".1"/><circle cx="98.751" cy="149" r="3" fill="#5F5F5F" fill-opacity=".1"/><circle cx="106.751" cy="149" r="3" fill="#5F5F5F" fill-opacity=".1"/><circle cx="114.751" cy="149" r="3" fill="#5F5F5F" fill-opacity=".1"/><circle cx="122.751" cy="149" r="3" fill="#5F5F5F" fill-opacity=".1"/><circle cx="82.751" cy="157" r="3" fill="#5F5F5F" fill-opacity=".1"/><circle cx="90.751" cy="157" r="3" fill="#5F5F5F" fill-opacity=".1"/><circle cx="98.751" cy="157" r="3" fill="#5F5F5F" fill-opacity=".1"/><circle cx="106.751" cy="157" r="3" fill="#5F5F5F" fill-opacity=".1"/><circle cx="114.751" cy="157" r="3" fill="#5F5F5F" fill-opacity=".1"/><circle cx="122.751" cy="157" r="3" fill="#5F5F5F" fill-opacity=".1"/><circle cx="82.751" cy="165" r="3" fill="#5F5F5F" fill-opacity=".1"/><circle cx="90.751" cy="165" r="3" fill="#5F5F5F" fill-opacity=".1"/><circle cx="98.751" cy="165" r="3" fill="#5F5F5F" fill-opacity=".1"/><circle cx="106.751" cy="165" r="3" fill="#5F5F5F" fill-opacity=".1"/><circle cx="114.751" cy="165" r="3" fill="#5F5F5F" fill-opacity=".1"/><circle cx="122.751" cy="165" r="3" fill="#5F5F5F" fill-opacity=".1"/><circle cx="82.751" cy="173" r="3" fill="#5F5F5F" fill-opacity=".1"/><circle cx="90.751" cy="173" r="3" fill="#5F5F5F" fill-opacity=".1"/><circle cx="98.751" cy="173" r="3" fill="#5F5F5F" fill-opacity=".1"/><circle cx="106.751" cy="173" r="3" fill="#5F5F5F" fill-opacity=".1"/><circle cx="114.751" cy="173" r="3" fill="#5F5F5F" fill-opacity=".1"/><circle cx="122.751" cy="173" r="3" fill="#5F5F5F" fill-opacity=".1"/><circle cx="647.751" cy="432" r="3" fill="#5F5F5F" fill-opacity=".1"/><circle cx="655.751" cy="432" r="3" fill="#5F5F5F" fill-opacity=".1"/><circle cx="663.751" cy="432" r="3" fill="#5F5F5F" fill-opacity=".1"/><circle cx="671.751" cy="432" r="3" fill="#5F5F5F" fill-opacity=".1"/><circle cx="679.751" cy="432" r="3" fill="#5F5F5F" fill-opacity=".1"/><circle cx="687.751" cy="432" r="3" fill="#5F5F5F" fill-opacity=".1"/><circle cx="647.751" cy="440" r="3" fill="#5F5F5F" fill-opacity=".1"/><circle cx="655.751" cy="440" r="3" fill="#5F5F5F" fill-opacity=".1"/><circle cx="663.751" cy="440" r="3" fill="#5F5F5F" fill-opacity=".1"/><circle cx="671.751" cy="440" r="3" fill="#5F5F5F" fill-opacity=".1"/><circle cx="679.751" cy="440" r="3" fill="#5F5F5F" fill-opacity=".1"/><circle cx="687.751" cy="440" r="3" fill="#5F5F5F" fill-opacity=".1"/><circle cx="647.751" cy="448" r="3" fill="#5F5F5F" fill-opacity=".1"/><circle cx="655.751" cy="448" r="3" fill="#5F5F5F" fill-opacity=".1"/><circle cx="663.751" cy="448" r="3" fill="#5F5F5F" fill-opacity=".1"/><circle cx="671.751" cy="448" r="3" fill="#5F5F5F" fill-opacity=".1"/><circle cx="679.751" cy="448" r="3" fill="#5F5F5F" fill-opacity=".1"/><circle cx="687.751" cy="448" r="3" fill="#5F5F5F" fill-opacity=".1"/><circle cx="647.751" cy="456" r="3" fill="#5F5F5F" fill-opacity=".1"/><circle cx="655.751" cy="456" r="3" fill="#5F5F5F" fill-opacity=".1"/><circle cx="663.751" cy="456" r="3" fill="#5F5F5F" fill-opacity=".1"/><circle cx="671.751" cy="456" r="3" fill="#5F5F5F" fill-opacity=".1"/><circle cx="679.751" cy="456" r="3" fill="#5F5F5F" fill-opacity=".1"/><circle cx="687.751" cy="456" r="3" fill="#5F5F5F" fill-opacity=".1"/><circle cx="647.751" cy="464" r="3" fill="#5F5F5F" fill-opacity=".1"/><circle cx="655.751" cy="464" r="3" fill="#5F5F5F" fill-opacity=".1"/><circle cx="663.751" cy="464" r="3" fill="#5F5F5F" fill-opacity=".1"/><circle cx="671.751" cy="464" r="3" fill="#5F5F5F" fill-opacity=".1"/><circle cx="679.751" cy="464" r="3" fill="#5F5F5F" fill-opacity=".1"/><circle cx="687.751" cy="464" r="3" fill="#5F5F5F" fill-opacity=".1"/><circle cx="647.751" cy="472" r="3" fill="#5F5F5F" fill-opacity=".1"/><circle cx="655.751" cy="472" r="3" fill="#5F5F5F" fill-opacity=".1"/><circle cx="663.751" cy="472" r="3" fill="#5F5F5F" fill-opacity=".1"/><circle cx="671.751" cy="472" r="3" fill="#5F5F5F" fill-opacity=".1"/><circle cx="679.751" cy="472" r="3" fill="#5F5F5F" fill-opacity=".1"/><circle cx="687.751" cy="472" r="3" fill="#5F5F5F" fill-opacity=".1"/><circle cx="647.751" cy="480" r="3" fill="#5F5F5F" fill-opacity=".1"/><circle cx="655.751" cy="480" r="3" fill="#5F5F5F" fill-opacity=".1"/><circle cx="663.751" cy="480" r="3" fill="#5F5F5F" fill-opacity=".1"/><circle cx="671.751" cy="480" r="3" fill="#5F5F5F" fill-opacity=".1"/><circle cx="679.751" cy="480" r="3" fill="#5F5F5F" fill-opacity=".1"/><circle cx="687.751" cy="480" r="3" fill="#5F5F5F" fill-opacity=".1"/><circle cx="647.751" cy="488" r="3" fill="#5F5F5F" fill-opacity=".1"/><circle cx="655.751" cy="488" r="3" fill="#5F5F5F" fill-opacity=".1"/><circle cx="663.751" cy="488" r="3" fill="#5F5F5F" fill-opacity=".1"/><circle cx="671.751" cy="488" r="3" fill="#5F5F5F" fill-opacity=".1"/><circle cx="679.751" cy="488" r="3" fill="#5F5F5F" fill-opacity=".1"/><circle cx="687.751" cy="488" r="3" fill="#5F5F5F" fill-opacity=".1"/><circle cx="695.751" cy="408" r="3" fill="#5F5F5F" fill-opacity=".1"/><circle cx="703.751" cy="408" r="3" fill="#5F5F5F" fill-opacity=".1"/><circle cx="711.751" cy="408" r="3" fill="#5F5F5F" fill-opacity=".1"/><circle cx="719.751" cy="408" r="3" fill="#5F5F5F" fill-opacity=".1"/><circle cx="727.751" cy="408" r="3" fill="#5F5F5F" fill-opacity=".1"/><circle cx="735.751" cy="408" r="3" fill="#5F5F5F" fill-opacity=".1"/><circle cx="695.751" cy="416" r="3" fill="#5F5F5F" fill-opacity=".1"/><circle cx="703.751" cy="416" r="3" fill="#5F5F5F" fill-opacity=".1"/><circle cx="711.751" cy="416" r="3" fill="#5F5F5F" fill-opacity=".1"/><circle cx="719.751" cy="416" r="3" fill="#5F5F5F" fill-opacity=".1"/><circle cx="727.751" cy="416" r="3" fill="#5F5F5F" fill-opacity=".1"/><circle cx="735.751" cy="416" r="3" fill="#5F5F5F" fill-opacity=".1"/><circle cx="695.751" cy="424" r="3" fill="#5F5F5F" fill-opacity=".1"/><circle cx="703.751" cy="424" r="3" fill="#5F5F5F" fill-opacity=".1"/><circle cx="711.751" cy="424" r="3" fill="#5F5F5F" fill-opacity=".1"/><circle cx="719.751" cy="424" r="3" fill="#5F5F5F" fill-opacity=".1"/><circle cx="727.751" cy="424" r="3" fill="#5F5F5F" fill-opacity=".1"/><circle cx="735.751" cy="424" r="3" fill="#5F5F5F" fill-opacity=".1"/><circle cx="695.751" cy="432" r="3" fill="#5F5F5F" fill-opacity=".1"/><circle cx="703.751" cy="432" r="3" fill="#5F5F5F" fill-opacity=".1"/><circle cx="711.751" cy="432" r="3" fill="#5F5F5F" fill-opacity=".1"/><circle cx="719.751" cy="432" r="3" fill="#5F5F5F" fill-opacity=".1"/><circle cx="727.751" cy="432" r="3" fill="#5F5F5F" fill-opacity=".1"/><circle cx="735.751" cy="432" r="3" fill="#5F5F5F" fill-opacity=".1"/><circle cx="695.751" cy="440" r="3" fill="#5F5F5F" fill-opacity=".1"/><circle cx="703.751" cy="440" r="3" fill="#5F5F5F" fill-opacity=".1"/><circle cx="711.751" cy="440" r="3" fill="#5F5F5F" fill-opacity=".1"/><circle cx="719.751" cy="440" r="3" fill="#5F5F5F" fill-opacity=".1"/><circle cx="727.751" cy="440" r="3" fill="#5F5F5F" fill-opacity=".1"/><circle cx="735.751" cy="440" r="3" fill="#5F5F5F" fill-opacity=".1"/><circle cx="695.751" cy="448" r="3" fill="#5F5F5F" fill-opacity=".1"/><circle cx="703.751" cy="448" r="3" fill="#5F5F5F" fill-opacity=".1"/><circle cx="711.751" cy="448" r="3" fill="#5F5F5F" fill-opacity=".1"/><circle cx="719.751" cy="448" r="3" fill="#5F5F5F" fill-opacity=".1"/><circle cx="727.751" cy="448" r="3" fill="#5F5F5F" fill-opacity=".1"/><circle cx="735.751" cy="448" r="3" fill="#5F5F5F" fill-opacity=".1"/><circle cx="695.751" cy="456" r="3" fill="#5F5F5F" fill-opacity=".1"/><circle cx="703.751" cy="456" r="3" fill="#5F5F5F" fill-opacity=".1"/><circle cx="711.751" cy="456" r="3" fill="#5F5F5F" fill-opacity=".1"/><circle cx="719.751" cy="456" r="3" fill="#5F5F5F" fill-opacity=".1"/><circle cx="727.751" cy="456" r="3" fill="#5F5F5F" fill-opacity=".1"/><circle cx="735.751" cy="456" r="3" fill="#5F5F5F" fill-opacity=".1"/><circle cx="695.751" cy="464" r="3" fill="#5F5F5F" fill-opacity=".1"/><circle cx="703.751" cy="464" r="3" fill="#5F5F5F" fill-opacity=".1"/><circle cx="711.751" cy="464" r="3" fill="#5F5F5F" fill-opacity=".1"/><circle cx="719.751" cy="464" r="3" fill="#5F5F5F" fill-opacity=".1"/><circle cx="727.751" cy="464" r="3" fill="#5F5F5F" fill-opacity=".1"/><circle cx="735.751" cy="464" r="3" fill="#5F5F5F" fill-opacity=".1"/><circle cx="647.751" cy="368" r="3" fill="#5F5F5F" fill-opacity=".1"/><circle cx="655.751" cy="368" r="3" fill="#5F5F5F" fill-opacity=".1"/><circle cx="663.751" cy="368" r="3" fill="#5F5F5F" fill-opacity=".1"/><circle cx="671.751" cy="368" r="3" fill="#5F5F5F" fill-opacity=".1"/><circle cx="679.751" cy="368" r="3" fill="#5F5F5F" fill-opacity=".1"/><circle cx="687.751" cy="368" r="3" fill="#5F5F5F" fill-opacity=".1"/><circle cx="647.751" cy="376" r="3" fill="#5F5F5F" fill-opacity=".1"/><circle cx="655.751" cy="376" r="3" fill="#5F5F5F" fill-opacity=".1"/><circle cx="663.751" cy="376" r="3" fill="#5F5F5F" fill-opacity=".1"/><circle cx="671.751" cy="376" r="3" fill="#5F5F5F" fill-opacity=".1"/><circle cx="679.751" cy="376" r="3" fill="#5F5F5F" fill-opacity=".1"/><circle cx="687.751" cy="376" r="3" fill="#5F5F5F" fill-opacity=".1"/><circle cx="647.751" cy="384" r="3" fill="#5F5F5F" fill-opacity=".1"/><circle cx="655.751" cy="384" r="3" fill="#5F5F5F" fill-opacity=".1"/><circle cx="663.751" cy="384" r="3" fill="#5F5F5F" fill-opacity=".1"/><circle cx="671.751" cy="384" r="3" fill="#5F5F5F" fill-opacity=".1"/><circle cx="679.751" cy="384" r="3" fill="#5F5F5F" fill-opacity=".1"/><circle cx="687.751" cy="384" r="3" fill="#5F5F5F" fill-opacity=".1"/><circle cx="647.751" cy="392" r="3" fill="#5F5F5F" fill-opacity=".1"/><circle cx="655.751" cy="392" r="3" fill="#5F5F5F" fill-opacity=".1"/><circle cx="663.751" cy="392" r="3" fill="#5F5F5F" fill-opacity=".1"/><circle cx="671.751" cy="392" r="3" fill="#5F5F5F" fill-opacity=".1"/><circle cx="679.751" cy="392" r="3" fill="#5F5F5F" fill-opacity=".1"/><circle cx="687.751" cy="392" r="3" fill="#5F5F5F" fill-opacity=".1"/><circle cx="647.751" cy="400" r="3" fill="#5F5F5F" fill-opacity=".1"/><circle cx="655.751" cy="400" r="3" fill="#5F5F5F" fill-opacity=".1"/><circle cx="663.751" cy="400" r="3" fill="#5F5F5F" fill-opacity=".1"/><circle cx="671.751" cy="400" r="3" fill="#5F5F5F" fill-opacity=".1"/><circle cx="679.751" cy="400" r="3" fill="#5F5F5F" fill-opacity=".1"/><circle cx="687.751" cy="400" r="3" fill="#5F5F5F" fill-opacity=".1"/><circle cx="647.751" cy="408" r="3" fill="#5F5F5F" fill-opacity=".1"/><circle cx="655.751" cy="408" r="3" fill="#5F5F5F" fill-opacity=".1"/><circle cx="663.751" cy="408" r="3" fill="#5F5F5F" fill-opacity=".1"/><circle cx="671.751" cy="408" r="3" fill="#5F5F5F" fill-opacity=".1"/><circle cx="679.751" cy="408" r="3" fill="#5F5F5F" fill-opacity=".1"/><circle cx="687.751" cy="408" r="3" fill="#5F5F5F" fill-opacity=".1"/><circle cx="647.751" cy="416" r="3" fill="#5F5F5F" fill-opacity=".1"/><circle cx="655.751" cy="416" r="3" fill="#5F5F5F" fill-opacity=".1"/><circle cx="663.751" cy="416" r="3" fill="#5F5F5F" fill-opacity=".1"/><circle cx="671.751" cy="416" r="3" fill="#5F5F5F" fill-opacity=".1"/><circle cx="679.751" cy="416" r="3" fill="#5F5F5F" fill-opacity=".1"/><circle cx="687.751" cy="416" r="3" fill="#5F5F5F" fill-opacity=".1"/><circle cx="647.751" cy="424" r="3" fill="#5F5F5F" fill-opacity=".1"/><circle cx="655.751" cy="424" r="3" fill="#5F5F5F" fill-opacity=".1"/><circle cx="663.751" cy="424" r="3" fill="#5F5F5F" fill-opacity=".1"/><circle cx="671.751" cy="424" r="3" fill="#5F5F5F" fill-opacity=".1"/><circle cx="679.751" cy="424" r="3" fill="#5F5F5F" fill-opacity=".1"/><circle cx="687.751" cy="424" r="3" fill="#5F5F5F" fill-opacity=".1"/><circle cx="695.751" cy="472" r="3" fill="#5F5F5F" fill-opacity=".1"/><circle cx="703.751" cy="472" r="3" fill="#5F5F5F" fill-opacity=".1"/><circle cx="711.751" cy="472" r="3" fill="#5F5F5F" fill-opacity=".1"/><circle cx="719.751" cy="472" r="3" fill="#5F5F5F" fill-opacity=".1"/><circle cx="727.751" cy="472" r="3" fill="#5F5F5F" fill-opacity=".1"/><circle cx="735.751" cy="472" r="3" fill="#5F5F5F" fill-opacity=".1"/><circle cx="695.751" cy="480" r="3" fill="#5F5F5F" fill-opacity=".1"/><circle cx="703.751" cy="480" r="3" fill="#5F5F5F" fill-opacity=".1"/><circle cx="711.751" cy="480" r="3" fill="#5F5F5F" fill-opacity=".1"/><circle cx="719.751" cy="480" r="3" fill="#5F5F5F" fill-opacity=".1"/><circle cx="727.751" cy="480" r="3" fill="#5F5F5F" fill-opacity=".1"/><circle cx="735.751" cy="480" r="3" fill="#5F5F5F" fill-opacity=".1"/><circle cx="695.751" cy="488" r="3" fill="#5F5F5F" fill-opacity=".1"/><circle cx="703.751" cy="488" r="3" fill="#5F5F5F" fill-opacity=".1"/><circle cx="711.751" cy="488" r="3" fill="#5F5F5F" fill-opacity=".1"/><circle cx="719.751" cy="488" r="3" fill="#5F5F5F" fill-opacity=".1"/><circle cx="727.751" cy="488" r="3" fill="#5F5F5F" fill-opacity=".1"/><circle cx="735.751" cy="488" r="3" fill="#5F5F5F" fill-opacity=".1"/><circle cx="695.751" cy="496" r="3" fill="#5F5F5F" fill-opacity=".1"/><circle cx="703.751" cy="496" r="3" fill="#5F5F5F" fill-opacity=".1"/><circle cx="711.751" cy="496" r="3" fill="#5F5F5F" fill-opacity=".1"/><circle cx="719.751" cy="496" r="3" fill="#5F5F5F" fill-opacity=".1"/><circle cx="727.751" cy="496" r="3" fill="#5F5F5F" fill-opacity=".1"/><circle cx="735.751" cy="496" r="3" fill="#5F5F5F" fill-opacity=".1"/><circle cx="695.751" cy="504" r="3" fill="#5F5F5F" fill-opacity=".1"/><circle cx="703.751" cy="504" r="3" fill="#5F5F5F" fill-opacity=".1"/><circle cx="711.751" cy="504" r="3" fill="#5F5F5F" fill-opacity=".1"/><circle cx="719.751" cy="504" r="3" fill="#5F5F5F" fill-opacity=".1"/><circle cx="727.751" cy="504" r="3" fill="#5F5F5F" fill-opacity=".1"/><circle cx="735.751" cy="504" r="3" fill="#5F5F5F" fill-opacity=".1"/><circle cx="695.751" cy="512" r="3" fill="#5F5F5F" fill-opacity=".1"/><circle cx="703.751" cy="512" r="3" fill="#5F5F5F" fill-opacity=".1"/><circle cx="711.751" cy="512" r="3" fill="#5F5F5F" fill-opacity=".1"/><circle cx="719.751" cy="512" r="3" fill="#5F5F5F" fill-opacity=".1"/><circle cx="727.751" cy="512" r="3" fill="#5F5F5F" fill-opacity=".1"/><circle cx="735.751" cy="512" r="3" fill="#5F5F5F" fill-opacity=".1"/><circle cx="695.751" cy="520" r="3" fill="#5F5F5F" fill-opacity=".1"/><circle cx="703.751" cy="520" r="3" fill="#5F5F5F" fill-opacity=".1"/><circle cx="711.751" cy="520" r="3" fill="#5F5F5F" fill-opacity=".1"/><circle cx="719.751" cy="520" r="3" fill="#5F5F5F" fill-opacity=".1"/><circle cx="727.751" cy="520" r="3" fill="#5F5F5F" fill-opacity=".1"/><circle cx="735.751" cy="520" r="3" fill="#5F5F5F" fill-opacity=".1"/><circle cx="695.751" cy="528" r="3" fill="#5F5F5F" fill-opacity=".1"/><circle cx="703.751" cy="528" r="3" fill="#5F5F5F" fill-opacity=".1"/><circle cx="711.751" cy="528" r="3" fill="#5F5F5F" fill-opacity=".1"/><circle cx="719.751" cy="528" r="3" fill="#5F5F5F" fill-opacity=".1"/><circle cx="727.751" cy="528" r="3" fill="#5F5F5F" fill-opacity=".1"/><circle cx="735.751" cy="528" r="3" fill="#5F5F5F" fill-opacity=".1"/><path d="M185.967 63.019c24.195-29.036 15.018-57.81 14.996-95.599-.027-47.907 21.62-106.423-24.256-120.248-30.066-9.06-46.026 17.019-76.255 25.528-65.733 18.505-108.8 4.418-172.387 29.319-59.898 23.457-113.333 29.371-139.03 88.334-34.664 79.54 45.099 129.973 95.544 200.558 28.177 39.428 34.728 145.25 82.94 140.238 19.975-2.076 66.013-14.901 88.859-67.338 22.845-52.438-1.32-78.033 39.534-137.006 30.339-43.795 70.42-40.222 90.055-63.786z" fill="url(#paint0_linear)"/><defs><linearGradient id="paint0_linear" x1="5" y1=".5" x2="187.464" y2="143.046" gradientUnits="userSpaceOnUse"><stop stop-color="#fff" stop-opacity=".21"/><stop offset="1" stop-color="#fff" stop-opacity="0"/></linearGradient></defs></svg>