<svg width="1283" height="958" fill="none" xmlns="http://www.w3.org/2000/svg"><circle cx="1191.75" cy="754" r="3" fill="#5F5F5F" fill-opacity=".1"/><circle cx="1199.75" cy="754" r="3" fill="#5F5F5F" fill-opacity=".1"/><circle cx="1207.75" cy="754" r="3" fill="#5F5F5F" fill-opacity=".1"/><circle cx="1215.75" cy="754" r="3" fill="#5F5F5F" fill-opacity=".1"/><circle cx="1223.75" cy="754" r="3" fill="#5F5F5F" fill-opacity=".1"/><circle cx="1231.75" cy="754" r="3" fill="#5F5F5F" fill-opacity=".1"/><circle cx="1191.75" cy="762" r="3" fill="#5F5F5F" fill-opacity=".1"/><circle cx="1199.75" cy="762" r="3" fill="#5F5F5F" fill-opacity=".1"/><circle cx="1207.75" cy="762" r="3" fill="#5F5F5F" fill-opacity=".1"/><circle cx="1215.75" cy="762" r="3" fill="#5F5F5F" fill-opacity=".1"/><circle cx="1223.75" cy="762" r="3" fill="#5F5F5F" fill-opacity=".1"/><circle cx="1231.75" cy="762" r="3" fill="#5F5F5F" fill-opacity=".1"/><circle cx="1191.75" cy="770" r="3" fill="#5F5F5F" fill-opacity=".1"/><circle cx="1199.75" cy="770" r="3" fill="#5F5F5F" fill-opacity=".1"/><circle cx="1207.75" cy="770" r="3" fill="#5F5F5F" fill-opacity=".1"/><circle cx="1215.75" cy="770" r="3" fill="#5F5F5F" fill-opacity=".1"/><circle cx="1223.75" cy="770" r="3" fill="#5F5F5F" fill-opacity=".1"/><circle cx="1231.75" cy="770" r="3" fill="#5F5F5F" fill-opacity=".1"/><circle cx="1191.75" cy="778" r="3" fill="#5F5F5F" fill-opacity=".1"/><circle cx="1199.75" cy="778" r="3" fill="#5F5F5F" fill-opacity=".1"/><circle cx="1207.75" cy="778" r="3" fill="#5F5F5F" fill-opacity=".1"/><circle cx="1215.75" cy="778" r="3" fill="#5F5F5F" fill-opacity=".1"/><circle cx="1223.75" cy="778" r="3" fill="#5F5F5F" fill-opacity=".1"/><circle cx="1231.75" cy="778" r="3" fill="#5F5F5F" fill-opacity=".1"/><circle cx="1191.75" cy="786" r="3" fill="#5F5F5F" fill-opacity=".1"/><circle cx="1199.75" cy="786" r="3" fill="#5F5F5F" fill-opacity=".1"/><circle cx="1207.75" cy="786" r="3" fill="#5F5F5F" fill-opacity=".1"/><circle cx="1215.75" cy="786" r="3" fill="#5F5F5F" fill-opacity=".1"/><circle cx="1223.75" cy="786" r="3" fill="#5F5F5F" fill-opacity=".1"/><circle cx="1231.75" cy="786" r="3" fill="#5F5F5F" fill-opacity=".1"/><circle cx="1191.75" cy="794" r="3" fill="#5F5F5F" fill-opacity=".1"/><circle cx="1199.75" cy="794" r="3" fill="#5F5F5F" fill-opacity=".1"/><circle cx="1207.75" cy="794" r="3" fill="#5F5F5F" fill-opacity=".1"/><circle cx="1215.75" cy="794" r="3" fill="#5F5F5F" fill-opacity=".1"/><circle cx="1223.75" cy="794" r="3" fill="#5F5F5F" fill-opacity=".1"/><circle cx="1231.75" cy="794" r="3" fill="#5F5F5F" fill-opacity=".1"/><circle cx="1191.75" cy="802" r="3" fill="#5F5F5F" fill-opacity=".1"/><circle cx="1199.75" cy="802" r="3" fill="#5F5F5F" fill-opacity=".1"/><circle cx="1207.75" cy="802" r="3" fill="#5F5F5F" fill-opacity=".1"/><circle cx="1215.75" cy="802" r="3" fill="#5F5F5F" fill-opacity=".1"/><circle cx="1223.75" cy="802" r="3" fill="#5F5F5F" fill-opacity=".1"/><circle cx="1231.75" cy="802" r="3" fill="#5F5F5F" fill-opacity=".1"/><circle cx="1191.75" cy="810" r="3" fill="#5F5F5F" fill-opacity=".1"/><circle cx="1199.75" cy="810" r="3" fill="#5F5F5F" fill-opacity=".1"/><circle cx="1207.75" cy="810" r="3" fill="#5F5F5F" fill-opacity=".1"/><circle cx="1215.75" cy="810" r="3" fill="#5F5F5F" fill-opacity=".1"/><circle cx="1223.75" cy="810" r="3" fill="#5F5F5F" fill-opacity=".1"/><circle cx="1231.75" cy="810" r="3" fill="#5F5F5F" fill-opacity=".1"/><circle cx="1239.75" cy="730" r="3" fill="#5F5F5F" fill-opacity=".1"/><circle cx="1247.75" cy="730" r="3" fill="#5F5F5F" fill-opacity=".1"/><circle cx="1255.75" cy="730" r="3" fill="#5F5F5F" fill-opacity=".1"/><circle cx="1263.75" cy="730" r="3" fill="#5F5F5F" fill-opacity=".1"/><circle cx="1271.75" cy="730" r="3" fill="#5F5F5F" fill-opacity=".1"/><circle cx="1279.75" cy="730" r="3" fill="#5F5F5F" fill-opacity=".1"/><circle cx="1239.75" cy="738" r="3" fill="#5F5F5F" fill-opacity=".1"/><circle cx="1247.75" cy="738" r="3" fill="#5F5F5F" fill-opacity=".1"/><circle cx="1255.75" cy="738" r="3" fill="#5F5F5F" fill-opacity=".1"/><circle cx="1263.75" cy="738" r="3" fill="#5F5F5F" fill-opacity=".1"/><circle cx="1271.75" cy="738" r="3" fill="#5F5F5F" fill-opacity=".1"/><circle cx="1279.75" cy="738" r="3" fill="#5F5F5F" fill-opacity=".1"/><circle cx="1239.75" cy="746" r="3" fill="#5F5F5F" fill-opacity=".1"/><circle cx="1247.75" cy="746" r="3" fill="#5F5F5F" fill-opacity=".1"/><circle cx="1255.75" cy="746" r="3" fill="#5F5F5F" fill-opacity=".1"/><circle cx="1263.75" cy="746" r="3" fill="#5F5F5F" fill-opacity=".1"/><circle cx="1271.75" cy="746" r="3" fill="#5F5F5F" fill-opacity=".1"/><circle cx="1279.75" cy="746" r="3" fill="#5F5F5F" fill-opacity=".1"/><circle cx="1239.75" cy="754" r="3" fill="#5F5F5F" fill-opacity=".1"/><circle cx="1247.75" cy="754" r="3" fill="#5F5F5F" fill-opacity=".1"/><circle cx="1255.75" cy="754" r="3" fill="#5F5F5F" fill-opacity=".1"/><circle cx="1263.75" cy="754" r="3" fill="#5F5F5F" fill-opacity=".1"/><circle cx="1271.75" cy="754" r="3" fill="#5F5F5F" fill-opacity=".1"/><circle cx="1279.75" cy="754" r="3" fill="#5F5F5F" fill-opacity=".1"/><circle cx="1239.75" cy="762" r="3" fill="#5F5F5F" fill-opacity=".1"/><circle cx="1247.75" cy="762" r="3" fill="#5F5F5F" fill-opacity=".1"/><circle cx="1255.75" cy="762" r="3" fill="#5F5F5F" fill-opacity=".1"/><circle cx="1263.75" cy="762" r="3" fill="#5F5F5F" fill-opacity=".1"/><circle cx="1271.75" cy="762" r="3" fill="#5F5F5F" fill-opacity=".1"/><circle cx="1279.75" cy="762" r="3" fill="#5F5F5F" fill-opacity=".1"/><circle cx="1239.75" cy="770" r="3" fill="#5F5F5F" fill-opacity=".1"/><circle cx="1247.75" cy="770" r="3" fill="#5F5F5F" fill-opacity=".1"/><circle cx="1255.75" cy="770" r="3" fill="#5F5F5F" fill-opacity=".1"/><circle cx="1263.75" cy="770" r="3" fill="#5F5F5F" fill-opacity=".1"/><circle cx="1271.75" cy="770" r="3" fill="#5F5F5F" fill-opacity=".1"/><circle cx="1279.75" cy="770" r="3" fill="#5F5F5F" fill-opacity=".1"/><circle cx="1239.75" cy="778" r="3" fill="#5F5F5F" fill-opacity=".1"/><circle cx="1247.75" cy="778" r="3" fill="#5F5F5F" fill-opacity=".1"/><circle cx="1255.75" cy="778" r="3" fill="#5F5F5F" fill-opacity=".1"/><circle cx="1263.75" cy="778" r="3" fill="#5F5F5F" fill-opacity=".1"/><circle cx="1271.75" cy="778" r="3" fill="#5F5F5F" fill-opacity=".1"/><circle cx="1279.75" cy="778" r="3" fill="#5F5F5F" fill-opacity=".1"/><circle cx="1239.75" cy="786" r="3" fill="#5F5F5F" fill-opacity=".1"/><circle cx="1247.75" cy="786" r="3" fill="#5F5F5F" fill-opacity=".1"/><circle cx="1255.75" cy="786" r="3" fill="#5F5F5F" fill-opacity=".1"/><circle cx="1263.75" cy="786" r="3" fill="#5F5F5F" fill-opacity=".1"/><circle cx="1271.75" cy="786" r="3" fill="#5F5F5F" fill-opacity=".1"/><circle cx="1279.75" cy="786" r="3" fill="#5F5F5F" fill-opacity=".1"/><circle cx="1191.75" cy="690" r="3" fill="#5F5F5F" fill-opacity=".1"/><circle cx="1199.75" cy="690" r="3" fill="#5F5F5F" fill-opacity=".1"/><circle cx="1207.75" cy="690" r="3" fill="#5F5F5F" fill-opacity=".1"/><circle cx="1215.75" cy="690" r="3" fill="#5F5F5F" fill-opacity=".1"/><circle cx="1223.75" cy="690" r="3" fill="#5F5F5F" fill-opacity=".1"/><circle cx="1231.75" cy="690" r="3" fill="#5F5F5F" fill-opacity=".1"/><circle cx="1191.75" cy="698" r="3" fill="#5F5F5F" fill-opacity=".1"/><circle cx="1199.75" cy="698" r="3" fill="#5F5F5F" fill-opacity=".1"/><circle cx="1207.75" cy="698" r="3" fill="#5F5F5F" fill-opacity=".1"/><circle cx="1215.75" cy="698" r="3" fill="#5F5F5F" fill-opacity=".1"/><circle cx="1223.75" cy="698" r="3" fill="#5F5F5F" fill-opacity=".1"/><circle cx="1231.75" cy="698" r="3" fill="#5F5F5F" fill-opacity=".1"/><circle cx="1191.75" cy="706" r="3" fill="#5F5F5F" fill-opacity=".1"/><circle cx="1199.75" cy="706" r="3" fill="#5F5F5F" fill-opacity=".1"/><circle cx="1207.75" cy="706" r="3" fill="#5F5F5F" fill-opacity=".1"/><circle cx="1215.75" cy="706" r="3" fill="#5F5F5F" fill-opacity=".1"/><circle cx="1223.75" cy="706" r="3" fill="#5F5F5F" fill-opacity=".1"/><circle cx="1231.75" cy="706" r="3" fill="#5F5F5F" fill-opacity=".1"/><circle cx="1191.75" cy="714" r="3" fill="#5F5F5F" fill-opacity=".1"/><circle cx="1199.75" cy="714" r="3" fill="#5F5F5F" fill-opacity=".1"/><circle cx="1207.75" cy="714" r="3" fill="#5F5F5F" fill-opacity=".1"/><circle cx="1215.75" cy="714" r="3" fill="#5F5F5F" fill-opacity=".1"/><circle cx="1223.75" cy="714" r="3" fill="#5F5F5F" fill-opacity=".1"/><circle cx="1231.75" cy="714" r="3" fill="#5F5F5F" fill-opacity=".1"/><circle cx="1191.75" cy="722" r="3" fill="#5F5F5F" fill-opacity=".1"/><circle cx="1199.75" cy="722" r="3" fill="#5F5F5F" fill-opacity=".1"/><circle cx="1207.75" cy="722" r="3" fill="#5F5F5F" fill-opacity=".1"/><circle cx="1215.75" cy="722" r="3" fill="#5F5F5F" fill-opacity=".1"/><circle cx="1223.75" cy="722" r="3" fill="#5F5F5F" fill-opacity=".1"/><circle cx="1231.75" cy="722" r="3" fill="#5F5F5F" fill-opacity=".1"/><circle cx="1191.75" cy="730" r="3" fill="#5F5F5F" fill-opacity=".1"/><circle cx="1199.75" cy="730" r="3" fill="#5F5F5F" fill-opacity=".1"/><circle cx="1207.75" cy="730" r="3" fill="#5F5F5F" fill-opacity=".1"/><circle cx="1215.75" cy="730" r="3" fill="#5F5F5F" fill-opacity=".1"/><circle cx="1223.75" cy="730" r="3" fill="#5F5F5F" fill-opacity=".1"/><circle cx="1231.75" cy="730" r="3" fill="#5F5F5F" fill-opacity=".1"/><circle cx="1191.75" cy="738" r="3" fill="#5F5F5F" fill-opacity=".1"/><circle cx="1199.75" cy="738" r="3" fill="#5F5F5F" fill-opacity=".1"/><circle cx="1207.75" cy="738" r="3" fill="#5F5F5F" fill-opacity=".1"/><circle cx="1215.75" cy="738" r="3" fill="#5F5F5F" fill-opacity=".1"/><circle cx="1223.75" cy="738" r="3" fill="#5F5F5F" fill-opacity=".1"/><circle cx="1231.75" cy="738" r="3" fill="#5F5F5F" fill-opacity=".1"/><circle cx="1191.75" cy="746" r="3" fill="#5F5F5F" fill-opacity=".1"/><circle cx="1199.75" cy="746" r="3" fill="#5F5F5F" fill-opacity=".1"/><circle cx="1207.75" cy="746" r="3" fill="#5F5F5F" fill-opacity=".1"/><circle cx="1215.75" cy="746" r="3" fill="#5F5F5F" fill-opacity=".1"/><circle cx="1223.75" cy="746" r="3" fill="#5F5F5F" fill-opacity=".1"/><circle cx="1231.75" cy="746" r="3" fill="#5F5F5F" fill-opacity=".1"/><circle cx="1239.75" cy="794" r="3" fill="#5F5F5F" fill-opacity=".1"/><circle cx="1247.75" cy="794" r="3" fill="#5F5F5F" fill-opacity=".1"/><circle cx="1255.75" cy="794" r="3" fill="#5F5F5F" fill-opacity=".1"/><circle cx="1263.75" cy="794" r="3" fill="#5F5F5F" fill-opacity=".1"/><circle cx="1271.75" cy="794" r="3" fill="#5F5F5F" fill-opacity=".1"/><circle cx="1279.75" cy="794" r="3" fill="#5F5F5F" fill-opacity=".1"/><circle cx="1239.75" cy="802" r="3" fill="#5F5F5F" fill-opacity=".1"/><circle cx="1247.75" cy="802" r="3" fill="#5F5F5F" fill-opacity=".1"/><circle cx="1255.75" cy="802" r="3" fill="#5F5F5F" fill-opacity=".1"/><circle cx="1263.75" cy="802" r="3" fill="#5F5F5F" fill-opacity=".1"/><circle cx="1271.75" cy="802" r="3" fill="#5F5F5F" fill-opacity=".1"/><circle cx="1279.75" cy="802" r="3" fill="#5F5F5F" fill-opacity=".1"/><circle cx="1239.75" cy="810" r="3" fill="#5F5F5F" fill-opacity=".1"/><circle cx="1247.75" cy="810" r="3" fill="#5F5F5F" fill-opacity=".1"/><circle cx="1255.75" cy="810" r="3" fill="#5F5F5F" fill-opacity=".1"/><circle cx="1263.75" cy="810" r="3" fill="#5F5F5F" fill-opacity=".1"/><circle cx="1271.75" cy="810" r="3" fill="#5F5F5F" fill-opacity=".1"/><circle cx="1279.75" cy="810" r="3" fill="#5F5F5F" fill-opacity=".1"/><circle cx="1239.75" cy="818" r="3" fill="#5F5F5F" fill-opacity=".1"/><circle cx="1247.75" cy="818" r="3" fill="#5F5F5F" fill-opacity=".1"/><circle cx="1255.75" cy="818" r="3" fill="#5F5F5F" fill-opacity=".1"/><circle cx="1263.75" cy="818" r="3" fill="#5F5F5F" fill-opacity=".1"/><circle cx="1271.75" cy="818" r="3" fill="#5F5F5F" fill-opacity=".1"/><circle cx="1279.75" cy="818" r="3" fill="#5F5F5F" fill-opacity=".1"/><circle cx="1239.75" cy="826" r="3" fill="#5F5F5F" fill-opacity=".1"/><circle cx="1247.75" cy="826" r="3" fill="#5F5F5F" fill-opacity=".1"/><circle cx="1255.75" cy="826" r="3" fill="#5F5F5F" fill-opacity=".1"/><circle cx="1263.75" cy="826" r="3" fill="#5F5F5F" fill-opacity=".1"/><circle cx="1271.75" cy="826" r="3" fill="#5F5F5F" fill-opacity=".1"/><circle cx="1279.75" cy="826" r="3" fill="#5F5F5F" fill-opacity=".1"/><circle cx="1239.75" cy="834" r="3" fill="#5F5F5F" fill-opacity=".1"/><circle cx="1247.75" cy="834" r="3" fill="#5F5F5F" fill-opacity=".1"/><circle cx="1255.75" cy="834" r="3" fill="#5F5F5F" fill-opacity=".1"/><circle cx="1263.75" cy="834" r="3" fill="#5F5F5F" fill-opacity=".1"/><circle cx="1271.75" cy="834" r="3" fill="#5F5F5F" fill-opacity=".1"/><circle cx="1279.75" cy="834" r="3" fill="#5F5F5F" fill-opacity=".1"/><circle cx="1239.75" cy="842" r="3" fill="#5F5F5F" fill-opacity=".1"/><circle cx="1247.75" cy="842" r="3" fill="#5F5F5F" fill-opacity=".1"/><circle cx="1255.75" cy="842" r="3" fill="#5F5F5F" fill-opacity=".1"/><circle cx="1263.75" cy="842" r="3" fill="#5F5F5F" fill-opacity=".1"/><circle cx="1271.75" cy="842" r="3" fill="#5F5F5F" fill-opacity=".1"/><circle cx="1279.75" cy="842" r="3" fill="#5F5F5F" fill-opacity=".1"/><circle cx="1239.75" cy="850" r="3" fill="#5F5F5F" fill-opacity=".1"/><circle cx="1247.75" cy="850" r="3" fill="#5F5F5F" fill-opacity=".1"/><circle cx="1255.75" cy="850" r="3" fill="#5F5F5F" fill-opacity=".1"/><circle cx="1263.75" cy="850" r="3" fill="#5F5F5F" fill-opacity=".1"/><circle cx="1271.75" cy="850" r="3" fill="#5F5F5F" fill-opacity=".1"/><circle cx="1279.75" cy="850" r="3" fill="#5F5F5F" fill-opacity=".1"/><circle cx="3.751" cy="859" r="3" fill="#5F5F5F" fill-opacity=".1"/><circle cx="11.751" cy="859" r="3" fill="#5F5F5F" fill-opacity=".1"/><circle cx="19.751" cy="859" r="3" fill="#5F5F5F" fill-opacity=".1"/><circle cx="27.751" cy="859" r="3" fill="#5F5F5F" fill-opacity=".1"/><circle cx="35.751" cy="859" r="3" fill="#5F5F5F" fill-opacity=".1"/><circle cx="43.751" cy="859" r="3" fill="#5F5F5F" fill-opacity=".1"/><circle cx="3.751" cy="867" r="3" fill="#5F5F5F" fill-opacity=".1"/><circle cx="11.751" cy="867" r="3" fill="#5F5F5F" fill-opacity=".1"/><circle cx="19.751" cy="867" r="3" fill="#5F5F5F" fill-opacity=".1"/><circle cx="27.751" cy="867" r="3" fill="#5F5F5F" fill-opacity=".1"/><circle cx="35.751" cy="867" r="3" fill="#5F5F5F" fill-opacity=".1"/><circle cx="43.751" cy="867" r="3" fill="#5F5F5F" fill-opacity=".1"/><circle cx="3.751" cy="875" r="3" fill="#5F5F5F" fill-opacity=".1"/><circle cx="11.751" cy="875" r="3" fill="#5F5F5F" fill-opacity=".1"/><circle cx="19.751" cy="875" r="3" fill="#5F5F5F" fill-opacity=".1"/><circle cx="27.751" cy="875" r="3" fill="#5F5F5F" fill-opacity=".1"/><circle cx="35.751" cy="875" r="3" fill="#5F5F5F" fill-opacity=".1"/><circle cx="43.751" cy="875" r="3" fill="#5F5F5F" fill-opacity=".1"/><circle cx="3.751" cy="883" r="3" fill="#5F5F5F" fill-opacity=".1"/><circle cx="11.751" cy="883" r="3" fill="#5F5F5F" fill-opacity=".1"/><circle cx="19.751" cy="883" r="3" fill="#5F5F5F" fill-opacity=".1"/><circle cx="27.751" cy="883" r="3" fill="#5F5F5F" fill-opacity=".1"/><circle cx="35.751" cy="883" r="3" fill="#5F5F5F" fill-opacity=".1"/><circle cx="43.751" cy="883" r="3" fill="#5F5F5F" fill-opacity=".1"/><circle cx="3.751" cy="891" r="3" fill="#5F5F5F" fill-opacity=".1"/><circle cx="11.751" cy="891" r="3" fill="#5F5F5F" fill-opacity=".1"/><circle cx="19.751" cy="891" r="3" fill="#5F5F5F" fill-opacity=".1"/><circle cx="27.751" cy="891" r="3" fill="#5F5F5F" fill-opacity=".1"/><circle cx="35.751" cy="891" r="3" fill="#5F5F5F" fill-opacity=".1"/><circle cx="43.751" cy="891" r="3" fill="#5F5F5F" fill-opacity=".1"/><circle cx="3.751" cy="899" r="3" fill="#5F5F5F" fill-opacity=".1"/><circle cx="11.751" cy="899" r="3" fill="#5F5F5F" fill-opacity=".1"/><circle cx="19.751" cy="899" r="3" fill="#5F5F5F" fill-opacity=".1"/><circle cx="27.751" cy="899" r="3" fill="#5F5F5F" fill-opacity=".1"/><circle cx="35.751" cy="899" r="3" fill="#5F5F5F" fill-opacity=".1"/><circle cx="43.751" cy="899" r="3" fill="#5F5F5F" fill-opacity=".1"/><circle cx="3.751" cy="907" r="3" fill="#5F5F5F" fill-opacity=".1"/><circle cx="11.751" cy="907" r="3" fill="#5F5F5F" fill-opacity=".1"/><circle cx="19.751" cy="907" r="3" fill="#5F5F5F" fill-opacity=".1"/><circle cx="27.751" cy="907" r="3" fill="#5F5F5F" fill-opacity=".1"/><circle cx="35.751" cy="907" r="3" fill="#5F5F5F" fill-opacity=".1"/><circle cx="43.751" cy="907" r="3" fill="#5F5F5F" fill-opacity=".1"/><circle cx="3.751" cy="915" r="3" fill="#5F5F5F" fill-opacity=".1"/><circle cx="11.751" cy="915" r="3" fill="#5F5F5F" fill-opacity=".1"/><circle cx="19.751" cy="915" r="3" fill="#5F5F5F" fill-opacity=".1"/><circle cx="27.751" cy="915" r="3" fill="#5F5F5F" fill-opacity=".1"/><circle cx="35.751" cy="915" r="3" fill="#5F5F5F" fill-opacity=".1"/><circle cx="43.751" cy="915" r="3" fill="#5F5F5F" fill-opacity=".1"/><circle cx="51.751" cy="835" r="3" fill="#5F5F5F" fill-opacity=".1"/><circle cx="59.751" cy="835" r="3" fill="#5F5F5F" fill-opacity=".1"/><circle cx="67.751" cy="835" r="3" fill="#5F5F5F" fill-opacity=".1"/><circle cx="75.751" cy="835" r="3" fill="#5F5F5F" fill-opacity=".1"/><circle cx="83.751" cy="835" r="3" fill="#5F5F5F" fill-opacity=".1"/><circle cx="91.751" cy="835" r="3" fill="#5F5F5F" fill-opacity=".1"/><circle cx="51.751" cy="843" r="3" fill="#5F5F5F" fill-opacity=".1"/><circle cx="59.751" cy="843" r="3" fill="#5F5F5F" fill-opacity=".1"/><circle cx="67.751" cy="843" r="3" fill="#5F5F5F" fill-opacity=".1"/><circle cx="75.751" cy="843" r="3" fill="#5F5F5F" fill-opacity=".1"/><circle cx="83.751" cy="843" r="3" fill="#5F5F5F" fill-opacity=".1"/><circle cx="91.751" cy="843" r="3" fill="#5F5F5F" fill-opacity=".1"/><circle cx="51.751" cy="851" r="3" fill="#5F5F5F" fill-opacity=".1"/><circle cx="59.751" cy="851" r="3" fill="#5F5F5F" fill-opacity=".1"/><circle cx="67.751" cy="851" r="3" fill="#5F5F5F" fill-opacity=".1"/><circle cx="75.751" cy="851" r="3" fill="#5F5F5F" fill-opacity=".1"/><circle cx="83.751" cy="851" r="3" fill="#5F5F5F" fill-opacity=".1"/><circle cx="91.751" cy="851" r="3" fill="#5F5F5F" fill-opacity=".1"/><circle cx="51.751" cy="859" r="3" fill="#5F5F5F" fill-opacity=".1"/><circle cx="59.751" cy="859" r="3" fill="#5F5F5F" fill-opacity=".1"/><circle cx="67.751" cy="859" r="3" fill="#5F5F5F" fill-opacity=".1"/><circle cx="75.751" cy="859" r="3" fill="#5F5F5F" fill-opacity=".1"/><circle cx="83.751" cy="859" r="3" fill="#5F5F5F" fill-opacity=".1"/><circle cx="91.751" cy="859" r="3" fill="#5F5F5F" fill-opacity=".1"/><circle cx="51.751" cy="867" r="3" fill="#5F5F5F" fill-opacity=".1"/><circle cx="59.751" cy="867" r="3" fill="#5F5F5F" fill-opacity=".1"/><circle cx="67.751" cy="867" r="3" fill="#5F5F5F" fill-opacity=".1"/><circle cx="75.751" cy="867" r="3" fill="#5F5F5F" fill-opacity=".1"/><circle cx="83.751" cy="867" r="3" fill="#5F5F5F" fill-opacity=".1"/><circle cx="91.751" cy="867" r="3" fill="#5F5F5F" fill-opacity=".1"/><circle cx="51.751" cy="875" r="3" fill="#5F5F5F" fill-opacity=".1"/><circle cx="59.751" cy="875" r="3" fill="#5F5F5F" fill-opacity=".1"/><circle cx="67.751" cy="875" r="3" fill="#5F5F5F" fill-opacity=".1"/><circle cx="75.751" cy="875" r="3" fill="#5F5F5F" fill-opacity=".1"/><circle cx="83.751" cy="875" r="3" fill="#5F5F5F" fill-opacity=".1"/><circle cx="91.751" cy="875" r="3" fill="#5F5F5F" fill-opacity=".1"/><circle cx="51.751" cy="883" r="3" fill="#5F5F5F" fill-opacity=".1"/><circle cx="59.751" cy="883" r="3" fill="#5F5F5F" fill-opacity=".1"/><circle cx="67.751" cy="883" r="3" fill="#5F5F5F" fill-opacity=".1"/><circle cx="75.751" cy="883" r="3" fill="#5F5F5F" fill-opacity=".1"/><circle cx="83.751" cy="883" r="3" fill="#5F5F5F" fill-opacity=".1"/><circle cx="91.751" cy="883" r="3" fill="#5F5F5F" fill-opacity=".1"/><circle cx="51.751" cy="891" r="3" fill="#5F5F5F" fill-opacity=".1"/><circle cx="59.751" cy="891" r="3" fill="#5F5F5F" fill-opacity=".1"/><circle cx="67.751" cy="891" r="3" fill="#5F5F5F" fill-opacity=".1"/><circle cx="75.751" cy="891" r="3" fill="#5F5F5F" fill-opacity=".1"/><circle cx="83.751" cy="891" r="3" fill="#5F5F5F" fill-opacity=".1"/><circle cx="91.751" cy="891" r="3" fill="#5F5F5F" fill-opacity=".1"/><circle cx="3.751" cy="795" r="3" fill="#5F5F5F" fill-opacity=".1"/><circle cx="11.751" cy="795" r="3" fill="#5F5F5F" fill-opacity=".1"/><circle cx="19.751" cy="795" r="3" fill="#5F5F5F" fill-opacity=".1"/><circle cx="27.751" cy="795" r="3" fill="#5F5F5F" fill-opacity=".1"/><circle cx="35.751" cy="795" r="3" fill="#5F5F5F" fill-opacity=".1"/><circle cx="43.751" cy="795" r="3" fill="#5F5F5F" fill-opacity=".1"/><circle cx="3.751" cy="803" r="3" fill="#5F5F5F" fill-opacity=".1"/><circle cx="11.751" cy="803" r="3" fill="#5F5F5F" fill-opacity=".1"/><circle cx="19.751" cy="803" r="3" fill="#5F5F5F" fill-opacity=".1"/><circle cx="27.751" cy="803" r="3" fill="#5F5F5F" fill-opacity=".1"/><circle cx="35.751" cy="803" r="3" fill="#5F5F5F" fill-opacity=".1"/><circle cx="43.751" cy="803" r="3" fill="#5F5F5F" fill-opacity=".1"/><circle cx="3.751" cy="811" r="3" fill="#5F5F5F" fill-opacity=".1"/><circle cx="11.751" cy="811" r="3" fill="#5F5F5F" fill-opacity=".1"/><circle cx="19.751" cy="811" r="3" fill="#5F5F5F" fill-opacity=".1"/><circle cx="27.751" cy="811" r="3" fill="#5F5F5F" fill-opacity=".1"/><circle cx="35.751" cy="811" r="3" fill="#5F5F5F" fill-opacity=".1"/><circle cx="43.751" cy="811" r="3" fill="#5F5F5F" fill-opacity=".1"/><circle cx="3.751" cy="819" r="3" fill="#5F5F5F" fill-opacity=".1"/><circle cx="11.751" cy="819" r="3" fill="#5F5F5F" fill-opacity=".1"/><circle cx="19.751" cy="819" r="3" fill="#5F5F5F" fill-opacity=".1"/><circle cx="27.751" cy="819" r="3" fill="#5F5F5F" fill-opacity=".1"/><circle cx="35.751" cy="819" r="3" fill="#5F5F5F" fill-opacity=".1"/><circle cx="43.751" cy="819" r="3" fill="#5F5F5F" fill-opacity=".1"/><circle cx="3.751" cy="827" r="3" fill="#5F5F5F" fill-opacity=".1"/><circle cx="11.751" cy="827" r="3" fill="#5F5F5F" fill-opacity=".1"/><circle cx="19.751" cy="827" r="3" fill="#5F5F5F" fill-opacity=".1"/><circle cx="27.751" cy="827" r="3" fill="#5F5F5F" fill-opacity=".1"/><circle cx="35.751" cy="827" r="3" fill="#5F5F5F" fill-opacity=".1"/><circle cx="43.751" cy="827" r="3" fill="#5F5F5F" fill-opacity=".1"/><circle cx="3.751" cy="835" r="3" fill="#5F5F5F" fill-opacity=".1"/><circle cx="11.751" cy="835" r="3" fill="#5F5F5F" fill-opacity=".1"/><circle cx="19.751" cy="835" r="3" fill="#5F5F5F" fill-opacity=".1"/><circle cx="27.751" cy="835" r="3" fill="#5F5F5F" fill-opacity=".1"/><circle cx="35.751" cy="835" r="3" fill="#5F5F5F" fill-opacity=".1"/><circle cx="43.751" cy="835" r="3" fill="#5F5F5F" fill-opacity=".1"/><circle cx="3.751" cy="843" r="3" fill="#5F5F5F" fill-opacity=".1"/><circle cx="11.751" cy="843" r="3" fill="#5F5F5F" fill-opacity=".1"/><circle cx="19.751" cy="843" r="3" fill="#5F5F5F" fill-opacity=".1"/><circle cx="27.751" cy="843" r="3" fill="#5F5F5F" fill-opacity=".1"/><circle cx="35.751" cy="843" r="3" fill="#5F5F5F" fill-opacity=".1"/><circle cx="43.751" cy="843" r="3" fill="#5F5F5F" fill-opacity=".1"/><circle cx="3.751" cy="851" r="3" fill="#5F5F5F" fill-opacity=".1"/><circle cx="11.751" cy="851" r="3" fill="#5F5F5F" fill-opacity=".1"/><circle cx="19.751" cy="851" r="3" fill="#5F5F5F" fill-opacity=".1"/><circle cx="27.751" cy="851" r="3" fill="#5F5F5F" fill-opacity=".1"/><circle cx="35.751" cy="851" r="3" fill="#5F5F5F" fill-opacity=".1"/><circle cx="43.751" cy="851" r="3" fill="#5F5F5F" fill-opacity=".1"/><circle cx="51.751" cy="899" r="3" fill="#5F5F5F" fill-opacity=".1"/><circle cx="59.751" cy="899" r="3" fill="#5F5F5F" fill-opacity=".1"/><circle cx="67.751" cy="899" r="3" fill="#5F5F5F" fill-opacity=".1"/><circle cx="75.751" cy="899" r="3" fill="#5F5F5F" fill-opacity=".1"/><circle cx="83.751" cy="899" r="3" fill="#5F5F5F" fill-opacity=".1"/><circle cx="91.751" cy="899" r="3" fill="#5F5F5F" fill-opacity=".1"/><circle cx="51.751" cy="907" r="3" fill="#5F5F5F" fill-opacity=".1"/><circle cx="59.751" cy="907" r="3" fill="#5F5F5F" fill-opacity=".1"/><circle cx="67.751" cy="907" r="3" fill="#5F5F5F" fill-opacity=".1"/><circle cx="75.751" cy="907" r="3" fill="#5F5F5F" fill-opacity=".1"/><circle cx="83.751" cy="907" r="3" fill="#5F5F5F" fill-opacity=".1"/><circle cx="91.751" cy="907" r="3" fill="#5F5F5F" fill-opacity=".1"/><circle cx="51.751" cy="915" r="3" fill="#5F5F5F" fill-opacity=".1"/><circle cx="59.751" cy="915" r="3" fill="#5F5F5F" fill-opacity=".1"/><circle cx="67.751" cy="915" r="3" fill="#5F5F5F" fill-opacity=".1"/><circle cx="75.751" cy="915" r="3" fill="#5F5F5F" fill-opacity=".1"/><circle cx="83.751" cy="915" r="3" fill="#5F5F5F" fill-opacity=".1"/><circle cx="91.751" cy="915" r="3" fill="#5F5F5F" fill-opacity=".1"/><circle cx="51.751" cy="923" r="3" fill="#5F5F5F" fill-opacity=".1"/><circle cx="59.751" cy="923" r="3" fill="#5F5F5F" fill-opacity=".1"/><circle cx="67.751" cy="923" r="3" fill="#5F5F5F" fill-opacity=".1"/><circle cx="75.751" cy="923" r="3" fill="#5F5F5F" fill-opacity=".1"/><circle cx="83.751" cy="923" r="3" fill="#5F5F5F" fill-opacity=".1"/><circle cx="91.751" cy="923" r="3" fill="#5F5F5F" fill-opacity=".1"/><circle cx="51.751" cy="931" r="3" fill="#5F5F5F" fill-opacity=".1"/><circle cx="59.751" cy="931" r="3" fill="#5F5F5F" fill-opacity=".1"/><circle cx="67.751" cy="931" r="3" fill="#5F5F5F" fill-opacity=".1"/><circle cx="75.751" cy="931" r="3" fill="#5F5F5F" fill-opacity=".1"/><circle cx="83.751" cy="931" r="3" fill="#5F5F5F" fill-opacity=".1"/><circle cx="91.751" cy="931" r="3" fill="#5F5F5F" fill-opacity=".1"/><circle cx="51.751" cy="939" r="3" fill="#5F5F5F" fill-opacity=".1"/><circle cx="59.751" cy="939" r="3" fill="#5F5F5F" fill-opacity=".1"/><circle cx="67.751" cy="939" r="3" fill="#5F5F5F" fill-opacity=".1"/><circle cx="75.751" cy="939" r="3" fill="#5F5F5F" fill-opacity=".1"/><circle cx="83.751" cy="939" r="3" fill="#5F5F5F" fill-opacity=".1"/><circle cx="91.751" cy="939" r="3" fill="#5F5F5F" fill-opacity=".1"/><circle cx="51.751" cy="947" r="3" fill="#5F5F5F" fill-opacity=".1"/><circle cx="59.751" cy="947" r="3" fill="#5F5F5F" fill-opacity=".1"/><circle cx="67.751" cy="947" r="3" fill="#5F5F5F" fill-opacity=".1"/><circle cx="75.751" cy="947" r="3" fill="#5F5F5F" fill-opacity=".1"/><circle cx="83.751" cy="947" r="3" fill="#5F5F5F" fill-opacity=".1"/><circle cx="91.751" cy="947" r="3" fill="#5F5F5F" fill-opacity=".1"/><circle cx="51.751" cy="955" r="3" fill="#5F5F5F" fill-opacity=".1"/><circle cx="59.751" cy="955" r="3" fill="#5F5F5F" fill-opacity=".1"/><circle cx="67.751" cy="955" r="3" fill="#5F5F5F" fill-opacity=".1"/><circle cx="75.751" cy="955" r="3" fill="#5F5F5F" fill-opacity=".1"/><circle cx="83.751" cy="955" r="3" fill="#5F5F5F" fill-opacity=".1"/><circle cx="91.751" cy="955" r="3" fill="#5F5F5F" fill-opacity=".1"/><circle cx="311.751" cy="43" r="3" fill="#5F5F5F" fill-opacity=".1"/><circle cx="319.751" cy="43" r="3" fill="#5F5F5F" fill-opacity=".1"/><circle cx="327.751" cy="43" r="3" fill="#5F5F5F" fill-opacity=".1"/><circle cx="335.751" cy="43" r="3" fill="#5F5F5F" fill-opacity=".1"/><circle cx="343.751" cy="43" r="3" fill="#5F5F5F" fill-opacity=".1"/><circle cx="351.751" cy="43" r="3" fill="#5F5F5F" fill-opacity=".1"/><circle cx="311.751" cy="51" r="3" fill="#5F5F5F" fill-opacity=".1"/><circle cx="319.751" cy="51" r="3" fill="#5F5F5F" fill-opacity=".1"/><circle cx="327.751" cy="51" r="3" fill="#5F5F5F" fill-opacity=".1"/><circle cx="335.751" cy="51" r="3" fill="#5F5F5F" fill-opacity=".1"/><circle cx="343.751" cy="51" r="3" fill="#5F5F5F" fill-opacity=".1"/><circle cx="351.751" cy="51" r="3" fill="#5F5F5F" fill-opacity=".1"/><circle cx="311.751" cy="59" r="3" fill="#5F5F5F" fill-opacity=".1"/><circle cx="319.751" cy="59" r="3" fill="#5F5F5F" fill-opacity=".1"/><circle cx="327.751" cy="59" r="3" fill="#5F5F5F" fill-opacity=".1"/><circle cx="335.751" cy="59" r="3" fill="#5F5F5F" fill-opacity=".1"/><circle cx="343.751" cy="59" r="3" fill="#5F5F5F" fill-opacity=".1"/><circle cx="351.751" cy="59" r="3" fill="#5F5F5F" fill-opacity=".1"/><circle cx="311.751" cy="67" r="3" fill="#5F5F5F" fill-opacity=".1"/><circle cx="319.751" cy="67" r="3" fill="#5F5F5F" fill-opacity=".1"/><circle cx="327.751" cy="67" r="3" fill="#5F5F5F" fill-opacity=".1"/><circle cx="335.751" cy="67" r="3" fill="#5F5F5F" fill-opacity=".1"/><circle cx="343.751" cy="67" r="3" fill="#5F5F5F" fill-opacity=".1"/><circle cx="351.751" cy="67" r="3" fill="#5F5F5F" fill-opacity=".1"/><circle cx="311.751" cy="75" r="3" fill="#5F5F5F" fill-opacity=".1"/><circle cx="319.751" cy="75" r="3" fill="#5F5F5F" fill-opacity=".1"/><circle cx="327.751" cy="75" r="3" fill="#5F5F5F" fill-opacity=".1"/><circle cx="335.751" cy="75" r="3" fill="#5F5F5F" fill-opacity=".1"/><circle cx="343.751" cy="75" r="3" fill="#5F5F5F" fill-opacity=".1"/><circle cx="351.751" cy="75" r="3" fill="#5F5F5F" fill-opacity=".1"/><circle cx="311.751" cy="83" r="3" fill="#5F5F5F" fill-opacity=".1"/><circle cx="319.751" cy="83" r="3" fill="#5F5F5F" fill-opacity=".1"/><circle cx="327.751" cy="83" r="3" fill="#5F5F5F" fill-opacity=".1"/><circle cx="335.751" cy="83" r="3" fill="#5F5F5F" fill-opacity=".1"/><circle cx="343.751" cy="83" r="3" fill="#5F5F5F" fill-opacity=".1"/><circle cx="351.751" cy="83" r="3" fill="#5F5F5F" fill-opacity=".1"/><circle cx="311.751" cy="91" r="3" fill="#5F5F5F" fill-opacity=".1"/><circle cx="319.751" cy="91" r="3" fill="#5F5F5F" fill-opacity=".1"/><circle cx="327.751" cy="91" r="3" fill="#5F5F5F" fill-opacity=".1"/><circle cx="335.751" cy="91" r="3" fill="#5F5F5F" fill-opacity=".1"/><circle cx="343.751" cy="91" r="3" fill="#5F5F5F" fill-opacity=".1"/><circle cx="351.751" cy="91" r="3" fill="#5F5F5F" fill-opacity=".1"/><circle cx="311.751" cy="99" r="3" fill="#5F5F5F" fill-opacity=".1"/><circle cx="319.751" cy="99" r="3" fill="#5F5F5F" fill-opacity=".1"/><circle cx="327.751" cy="99" r="3" fill="#5F5F5F" fill-opacity=".1"/><circle cx="335.751" cy="99" r="3" fill="#5F5F5F" fill-opacity=".1"/><circle cx="343.751" cy="99" r="3" fill="#5F5F5F" fill-opacity=".1"/><circle cx="351.751" cy="99" r="3" fill="#5F5F5F" fill-opacity=".1"/><circle cx="263.751" cy="3" r="3" fill="#5F5F5F" fill-opacity=".1"/><circle cx="271.751" cy="3" r="3" fill="#5F5F5F" fill-opacity=".1"/><circle cx="279.751" cy="3" r="3" fill="#5F5F5F" fill-opacity=".1"/><circle cx="287.751" cy="3" r="3" fill="#5F5F5F" fill-opacity=".1"/><circle cx="295.751" cy="3" r="3" fill="#5F5F5F" fill-opacity=".1"/><circle cx="303.751" cy="3" r="3" fill="#5F5F5F" fill-opacity=".1"/><circle cx="263.751" cy="11" r="3" fill="#5F5F5F" fill-opacity=".1"/><circle cx="271.751" cy="11" r="3" fill="#5F5F5F" fill-opacity=".1"/><circle cx="279.751" cy="11" r="3" fill="#5F5F5F" fill-opacity=".1"/><circle cx="287.751" cy="11" r="3" fill="#5F5F5F" fill-opacity=".1"/><circle cx="295.751" cy="11" r="3" fill="#5F5F5F" fill-opacity=".1"/><circle cx="303.751" cy="11" r="3" fill="#5F5F5F" fill-opacity=".1"/><circle cx="263.751" cy="19" r="3" fill="#5F5F5F" fill-opacity=".1"/><circle cx="271.751" cy="19" r="3" fill="#5F5F5F" fill-opacity=".1"/><circle cx="279.751" cy="19" r="3" fill="#5F5F5F" fill-opacity=".1"/><circle cx="287.751" cy="19" r="3" fill="#5F5F5F" fill-opacity=".1"/><circle cx="295.751" cy="19" r="3" fill="#5F5F5F" fill-opacity=".1"/><circle cx="303.751" cy="19" r="3" fill="#5F5F5F" fill-opacity=".1"/><circle cx="263.751" cy="27" r="3" fill="#5F5F5F" fill-opacity=".1"/><circle cx="271.751" cy="27" r="3" fill="#5F5F5F" fill-opacity=".1"/><circle cx="279.751" cy="27" r="3" fill="#5F5F5F" fill-opacity=".1"/><circle cx="287.751" cy="27" r="3" fill="#5F5F5F" fill-opacity=".1"/><circle cx="295.751" cy="27" r="3" fill="#5F5F5F" fill-opacity=".1"/><circle cx="303.751" cy="27" r="3" fill="#5F5F5F" fill-opacity=".1"/><circle cx="263.751" cy="35" r="3" fill="#5F5F5F" fill-opacity=".1"/><circle cx="271.751" cy="35" r="3" fill="#5F5F5F" fill-opacity=".1"/><circle cx="279.751" cy="35" r="3" fill="#5F5F5F" fill-opacity=".1"/><circle cx="287.751" cy="35" r="3" fill="#5F5F5F" fill-opacity=".1"/><circle cx="295.751" cy="35" r="3" fill="#5F5F5F" fill-opacity=".1"/><circle cx="303.751" cy="35" r="3" fill="#5F5F5F" fill-opacity=".1"/><circle cx="263.751" cy="43" r="3" fill="#5F5F5F" fill-opacity=".1"/><circle cx="271.751" cy="43" r="3" fill="#5F5F5F" fill-opacity=".1"/><circle cx="279.751" cy="43" r="3" fill="#5F5F5F" fill-opacity=".1"/><circle cx="287.751" cy="43" r="3" fill="#5F5F5F" fill-opacity=".1"/><circle cx="295.751" cy="43" r="3" fill="#5F5F5F" fill-opacity=".1"/><circle cx="303.751" cy="43" r="3" fill="#5F5F5F" fill-opacity=".1"/><circle cx="263.751" cy="51" r="3" fill="#5F5F5F" fill-opacity=".1"/><circle cx="271.751" cy="51" r="3" fill="#5F5F5F" fill-opacity=".1"/><circle cx="279.751" cy="51" r="3" fill="#5F5F5F" fill-opacity=".1"/><circle cx="287.751" cy="51" r="3" fill="#5F5F5F" fill-opacity=".1"/><circle cx="295.751" cy="51" r="3" fill="#5F5F5F" fill-opacity=".1"/><circle cx="303.751" cy="51" r="3" fill="#5F5F5F" fill-opacity=".1"/><circle cx="263.751" cy="59" r="3" fill="#5F5F5F" fill-opacity=".1"/><circle cx="271.751" cy="59" r="3" fill="#5F5F5F" fill-opacity=".1"/><circle cx="279.751" cy="59" r="3" fill="#5F5F5F" fill-opacity=".1"/><circle cx="287.751" cy="59" r="3" fill="#5F5F5F" fill-opacity=".1"/><circle cx="295.751" cy="59" r="3" fill="#5F5F5F" fill-opacity=".1"/><circle cx="303.751" cy="59" r="3" fill="#5F5F5F" fill-opacity=".1"/><circle cx="359.751" cy="43" r="3" fill="#5F5F5F" fill-opacity=".1"/><circle cx="367.751" cy="43" r="3" fill="#5F5F5F" fill-opacity=".1"/><circle cx="375.751" cy="43" r="3" fill="#5F5F5F" fill-opacity=".1"/><circle cx="383.751" cy="43" r="3" fill="#5F5F5F" fill-opacity=".1"/><circle cx="391.751" cy="43" r="3" fill="#5F5F5F" fill-opacity=".1"/><circle cx="399.751" cy="43" r="3" fill="#5F5F5F" fill-opacity=".1"/><circle cx="359.751" cy="51" r="3" fill="#5F5F5F" fill-opacity=".1"/><circle cx="367.751" cy="51" r="3" fill="#5F5F5F" fill-opacity=".1"/><circle cx="375.751" cy="51" r="3" fill="#5F5F5F" fill-opacity=".1"/><circle cx="383.751" cy="51" r="3" fill="#5F5F5F" fill-opacity=".1"/><circle cx="391.751" cy="51" r="3" fill="#5F5F5F" fill-opacity=".1"/><circle cx="399.751" cy="51" r="3" fill="#5F5F5F" fill-opacity=".1"/><circle cx="359.751" cy="59" r="3" fill="#5F5F5F" fill-opacity=".1"/><circle cx="367.751" cy="59" r="3" fill="#5F5F5F" fill-opacity=".1"/><circle cx="375.751" cy="59" r="3" fill="#5F5F5F" fill-opacity=".1"/><circle cx="383.751" cy="59" r="3" fill="#5F5F5F" fill-opacity=".1"/><circle cx="391.751" cy="59" r="3" fill="#5F5F5F" fill-opacity=".1"/><circle cx="399.751" cy="59" r="3" fill="#5F5F5F" fill-opacity=".1"/><circle cx="359.751" cy="67" r="3" fill="#5F5F5F" fill-opacity=".1"/><circle cx="367.751" cy="67" r="3" fill="#5F5F5F" fill-opacity=".1"/><circle cx="375.751" cy="67" r="3" fill="#5F5F5F" fill-opacity=".1"/><circle cx="383.751" cy="67" r="3" fill="#5F5F5F" fill-opacity=".1"/><circle cx="391.751" cy="67" r="3" fill="#5F5F5F" fill-opacity=".1"/><circle cx="399.751" cy="67" r="3" fill="#5F5F5F" fill-opacity=".1"/><circle cx="359.751" cy="75" r="3" fill="#5F5F5F" fill-opacity=".1"/><circle cx="367.751" cy="75" r="3" fill="#5F5F5F" fill-opacity=".1"/><circle cx="375.751" cy="75" r="3" fill="#5F5F5F" fill-opacity=".1"/><circle cx="383.751" cy="75" r="3" fill="#5F5F5F" fill-opacity=".1"/><circle cx="391.751" cy="75" r="3" fill="#5F5F5F" fill-opacity=".1"/><circle cx="399.751" cy="75" r="3" fill="#5F5F5F" fill-opacity=".1"/><circle cx="359.751" cy="83" r="3" fill="#5F5F5F" fill-opacity=".1"/><circle cx="367.751" cy="83" r="3" fill="#5F5F5F" fill-opacity=".1"/><circle cx="375.751" cy="83" r="3" fill="#5F5F5F" fill-opacity=".1"/><circle cx="383.751" cy="83" r="3" fill="#5F5F5F" fill-opacity=".1"/><circle cx="391.751" cy="83" r="3" fill="#5F5F5F" fill-opacity=".1"/><circle cx="399.751" cy="83" r="3" fill="#5F5F5F" fill-opacity=".1"/><circle cx="359.751" cy="91" r="3" fill="#5F5F5F" fill-opacity=".1"/><circle cx="367.751" cy="91" r="3" fill="#5F5F5F" fill-opacity=".1"/><circle cx="375.751" cy="91" r="3" fill="#5F5F5F" fill-opacity=".1"/><circle cx="383.751" cy="91" r="3" fill="#5F5F5F" fill-opacity=".1"/><circle cx="391.751" cy="91" r="3" fill="#5F5F5F" fill-opacity=".1"/><circle cx="399.751" cy="91" r="3" fill="#5F5F5F" fill-opacity=".1"/><circle cx="359.751" cy="99" r="3" fill="#5F5F5F" fill-opacity=".1"/><circle cx="367.751" cy="99" r="3" fill="#5F5F5F" fill-opacity=".1"/><circle cx="375.751" cy="99" r="3" fill="#5F5F5F" fill-opacity=".1"/><circle cx="383.751" cy="99" r="3" fill="#5F5F5F" fill-opacity=".1"/><circle cx="391.751" cy="99" r="3" fill="#5F5F5F" fill-opacity=".1"/><circle cx="399.751" cy="99" r="3" fill="#5F5F5F" fill-opacity=".1"/></svg>