<svg width="116" height="165" fill="none" xmlns="http://www.w3.org/2000/svg"><path d="M115.168 160.471a.5.5 0 00.303-.639l-1.508-4.239a.5.5 0 10-.942.335l1.34 3.769-3.768 1.34a.5.5 0 10.335.942l4.24-1.508zM.503 1.051l.105 1.013.995-.105-.106-1.01-.994.102zm.321 3.023c.073.667.147 1.331.222 1.992l.993-.113c-.074-.66-.148-1.322-.22-1.988l-.995.11zm.45 3.965c.078.668.158 1.333.239 1.994l.992-.121c-.08-.66-.16-1.323-.238-1.99l-.993.117zm.488 4c.084.664.17 1.326.256 1.985l.992-.13a424.99 424.99 0 01-.256-1.982l-.992.126zm.52 3.952c.09.67.183 1.335.277 1.998l.99-.14c-.093-.661-.186-1.326-.277-1.994l-.99.136zm.565 3.994c.098.662.196 1.32.296 1.976l.989-.151c-.1-.654-.198-1.31-.295-1.97l-.99.145zm.601 3.937c.107.67.215 1.338.324 2.002l.987-.162a278.01 278.01 0 01-.323-1.997l-.988.157zm.657 3.984c.112.657.226 1.311.342 1.962l.984-.175c-.115-.649-.229-1.3-.34-1.956l-.986.169zm.7 3.936c.122.665.246 1.327.372 1.985l.983-.189c-.126-.655-.25-1.315-.373-1.977l-.983.181zm.756 3.948c.13.653.262 1.302.396 1.948l.979-.203c-.133-.643-.264-1.29-.394-1.94l-.98.195zm.814 3.931c.142.658.285 1.312.43 1.962l.976-.218c-.144-.648-.287-1.3-.428-1.954l-.978.21zm.873 3.903c.152.657.307 1.311.464 1.962l.972-.235c-.156-.648-.31-1.299-.462-1.954l-.974.227zm.946 3.917c.162.649.327 1.294.495 1.935l.967-.253c-.166-.638-.33-1.28-.492-1.925l-.97.243zm1.01 3.874c.177.652.356 1.3.538 1.945l.962-.271a235.1 235.1 0 01-.535-1.936l-.965.262zm1.09 3.868c.189.643.38 1.282.573 1.918l.957-.291c-.193-.633-.383-1.269-.57-1.908l-.96.28zm1.172 3.846c.202.64.407 1.275.615 1.907l.95-.312c-.207-.629-.41-1.26-.612-1.896l-.953.301zm1.251 3.804c.219.64.44 1.275.665 1.907l.942-.335c-.223-.628-.443-1.26-.66-1.896l-.947.324zm1.348 3.792c.232.628.467 1.253.705 1.874l.934-.359c-.237-.617-.47-1.237-.7-1.861l-.939.346zm1.44 3.753c.25.623.5 1.243.756 1.858l.924-.383a150.82 150.82 0 01-.75-1.845l-.93.37zm1.536 3.705c.267.62.537 1.235.81 1.847l.913-.409a138.79 138.79 0 01-.805-1.833l-.918.395zm1.642 3.671c.282.61.569 1.214.859 1.816l.9-.434c-.288-.598-.572-1.198-.852-1.803l-.907.421zm1.747 3.624a130 130 0 00.911 1.786l.887-.46c-.305-.588-.606-1.18-.904-1.774l-.894.448zm1.852 3.564c.318.591.641 1.179.968 1.763l.873-.488c-.324-.58-.645-1.163-.961-1.75l-.88.475zm1.961 3.507c.337.58.678 1.158 1.024 1.732l.857-.515c-.343-.57-.681-1.143-1.016-1.719l-.865.502zm2.074 3.447a125.4 125.4 0 001.075 1.696l.84-.542c-.36-.558-.715-1.119-1.067-1.683l-.848.53zm2.18 3.377c.373.557.75 1.111 1.131 1.662l.823-.57c-.379-.546-.753-1.096-1.123-1.648l-.83.556zm2.29 3.305c.39.545.784 1.086 1.183 1.624l.803-.596c-.396-.534-.787-1.07-1.174-1.61l-.813.582zm2.394 3.23c.407.532.819 1.06 1.235 1.586l.784-.621c-.413-.522-.822-1.046-1.226-1.573l-.793.608zm2.494 3.15c.425.519.854 1.035 1.288 1.548l.764-.645c-.43-.51-.857-1.022-1.278-1.536l-.774.633zm2.595 3.072c.44.503.883 1.005 1.331 1.503l.744-.668a126.92 126.92 0 01-1.32-1.492l-.755.657zm2.69 2.992c.454.489.912.976 1.374 1.46l.723-.69c-.459-.481-.913-.964-1.363-1.449l-.733.679zm2.771 2.902c.471.479.946.955 1.427 1.43l.703-.711c-.477-.472-.95-.945-1.416-1.42l-.714.701zm2.859 2.826c.481.462.967.922 1.458 1.381l.682-.73c-.487-.456-.97-.913-1.447-1.372l-.693.721zm2.944 2.752c.49.446.985.891 1.485 1.333l.663-.748c-.496-.44-.988-.881-1.475-1.325l-.673.74zm2.997 2.656a161.6 161.6 0 001.54 1.313l.643-.765c-.514-.433-1.024-.868-1.53-1.305l-.653.757zm3.072 2.588c.514.423 1.034.845 1.558 1.265l.626-.78c-.521-.418-1.038-.837-1.55-1.258l-.634.773zm3.144 2.522c.52.409 1.046.815 1.576 1.221l.608-.794a166.19 166.19 0 01-1.567-1.214l-.617.787zm3.174 2.432c.537.402 1.08.803 1.625 1.203l.591-.806c-.543-.398-1.082-.798-1.616-1.198l-.6.801zm3.243 2.376c.54.387 1.083.773 1.63 1.158l.576-.818c-.546-.383-1.087-.767-1.623-1.152l-.583.812zm3.288 2.311c.549.378 1.102.755 1.659 1.131l.56-.829c-.555-.374-1.106-.749-1.652-1.125l-.567.823zm3.316 2.24c.557.369 1.118.737 1.683 1.104l.545-.838c-.563-.366-1.121-.733-1.675-1.1l-.553.834zm3.383 2.2c.556.355 1.115.709 1.678 1.062l.532-.847c-.561-.352-1.118-.705-1.672-1.058l-.538.843zm3.381 2.121c.572.353 1.147.705 1.727 1.057l.518-.855c-.577-.351-1.15-.701-1.72-1.053l-.525.851zm3.438 2.086c.568.339 1.14.678 1.716 1.017l.507-.862c-.575-.338-1.145-.675-1.71-1.013l-.514.858zm3.456 2.031c.581.337 1.166.673 1.755 1.009l.496-.869c-.588-.335-1.171-.67-1.75-1.005l-.501.865zm3.48 1.985c.58.326 1.162.651 1.749.976l.484-.875c-.584-.324-1.165-.648-1.742-.972l-.49.871zm3.519 1.95c.585.32 1.173.639 1.765.959l.475-.881c-.59-.318-1.178-.637-1.76-.956l-.48.878zm3.517 1.897c.587.313 1.178.626 1.772.938l.466-.885c-.593-.311-1.183-.623-1.768-.935l-.47.882zm3.566 1.876c.589.306 1.181.612 1.777.918l.457-.889c-.595-.306-1.186-.611-1.773-.916l-.461.887zm3.548 1.823c.594.301 1.191.603 1.792.904l.448-.893c-.599-.301-1.195-.602-1.787-.903l-.453.892zm3.603 1.809c.594.295 1.191.59 1.792.886l.441-.898c-.599-.294-1.195-.589-1.788-.883l-.445.895zm3.578 1.759c.598.292 1.2.583 1.805.875l.434-.901c-.604-.291-1.204-.582-1.802-.873l-.437.899zm3.629 1.75l.919.438.43-.904c-.307-.145-.613-.291-.918-.437l-.431.903zm1.469.928a1 1 0 00.607-1.277l-3.017-8.48a1 1 0 10-1.884.671l2.682 7.537-7.538 2.682a.999.999 0 10.671 1.884l8.479-3.017zM.005 1.102l.106 1.014 1.99-.21L1.994.898l-1.99.206zm.322 3.026C.4 4.796.474 5.461.55 6.122l1.987-.225c-.074-.659-.148-1.32-.22-1.986l-1.989.217zm.45 3.97c.079.668.158 1.334.24 1.996l1.985-.243c-.08-.659-.16-1.321-.239-1.987l-1.986.234zm.489 4.003c.084.666.17 1.329.256 1.988l1.983-.26c-.086-.657-.171-1.317-.255-1.98l-1.984.252zm.52 3.957c.091.67.184 1.338.278 2.001l1.98-.28a457.73 457.73 0 01-.276-1.991l-1.982.27zm.567 4c.097.662.196 1.322.296 1.978l1.977-.302c-.1-.652-.198-1.308-.295-1.967l-1.978.29zM2.955 24c.106.672.214 1.34.324 2.005l1.973-.325c-.109-.66-.216-1.325-.322-1.993L2.955 24zm.657 3.99c.112.659.227 1.314.342 1.965l1.97-.35c-.116-.647-.229-1.298-.34-1.952l-1.972.337zm.7 3.943c.123.666.248 1.329.374 1.988l1.965-.377c-.126-.654-.25-1.313-.372-1.974l-1.967.363zm.759 3.955c.13.654.262 1.304.396 1.95l1.959-.404c-.133-.642-.264-1.288-.394-1.937l-1.961.391zm.815 3.938c.142.659.286 1.314.431 1.966l1.952-.436a247.71 247.71 0 01-.427-1.95l-1.956.42zm.875 3.91c.153.66.308 1.315.465 1.967l1.944-.47a192.73 192.73 0 01-.461-1.949l-1.948.453zm.948 3.927c.163.65.328 1.296.496 1.939l1.935-.505a199.01 199.01 0 01-.491-1.92l-1.94.486zm1.013 3.883c.177.653.357 1.303.539 1.95l1.925-.543c-.18-.64-.358-1.283-.534-1.93l-1.93.523zm1.093 3.877c.188.645.38 1.286.574 1.923l1.913-.582a185.71 185.71 0 01-.568-1.903l-1.92.562zm1.174 3.857c.203.641.409 1.279.617 1.912l1.9-.625c-.206-.626-.41-1.256-.61-1.89l-1.907.603zm1.255 3.815c.22.641.442 1.279.667 1.912l1.885-.67c-.223-.626-.443-1.256-.66-1.89l-1.892.648zm1.352 3.803c.233.63.469 1.257.708 1.88l1.867-.717a156.53 156.53 0 01-.699-1.856l-1.876.693zm1.445 3.766c.25.624.502 1.246.758 1.863l1.848-.765c-.253-.61-.502-1.222-.748-1.84l-1.858.742zm1.54 3.717c.268.621.54 1.239.814 1.853l1.826-.817c-.271-.605-.538-1.214-.802-1.827l-1.837.79zm1.648 3.684c.284.611.571 1.218.862 1.822l1.802-.869a134.64 134.64 0 01-.85-1.795l-1.814.842zm1.754 3.636c.3.602.605 1.2.914 1.794l1.775-.922a132.93 132.93 0 01-.9-1.767l-1.79.895zm1.858 3.578c.32.594.645 1.184.973 1.77l1.745-.976c-.323-.577-.642-1.159-.957-1.743l-1.76.949zm1.97 3.52c.338.584.68 1.163 1.027 1.74l1.714-1.03c-.341-.568-.678-1.139-1.011-1.713L23.81 88.8zm2.081 3.462c.356.57.716 1.138 1.08 1.702l1.68-1.085c-.358-.555-.712-1.114-1.063-1.675l-1.697 1.058zm2.19 3.39c.374.56.752 1.115 1.135 1.669l1.645-1.139a122.56 122.56 0 01-1.118-1.642l-1.663 1.112zm2.298 3.319c.391.546.787 1.089 1.188 1.63l1.607-1.191a122.6 122.6 0 01-1.17-1.604L30.38 98.97zm2.404 3.243c.409.533.822 1.064 1.24 1.591l1.568-1.241c-.412-.52-.819-1.042-1.22-1.567l-1.588 1.217zm2.504 3.162c.426.52.857 1.038 1.293 1.554l1.527-1.291a132.13 132.13 0 01-1.272-1.53l-1.548 1.267zm2.606 3.084c.44.505.885 1.008 1.336 1.509l1.487-1.338c-.444-.493-.882-.988-1.316-1.486l-1.508 1.315zm2.7 3.003c.455.491.914.979 1.378 1.465l1.447-1.381c-.457-.479-.91-.96-1.358-1.443l-1.467 1.359zm2.781 2.913c.472.48.95.958 1.431 1.435l1.406-1.423c-.475-.47-.945-.941-1.41-1.414l-1.427 1.402zm2.868 2.835c.483.464.97.926 1.463 1.386l1.366-1.461c-.486-.454-.967-.909-1.443-1.367l-1.386 1.442zm2.954 2.762c.492.447.99.893 1.49 1.338l1.327-1.497c-.495-.439-.985-.879-1.47-1.321l-1.346 1.48zm3.007 2.664c.51.441 1.025.88 1.544 1.318l1.288-1.53c-.513-.433-1.021-.866-1.525-1.301l-1.307 1.513zm3.081 2.596c.517.424 1.038.847 1.563 1.269l1.252-1.56a179.48 179.48 0 01-1.545-1.254l-1.27 1.545zm3.154 2.53c.522.409 1.049.817 1.58 1.224l1.216-1.588c-.525-.402-1.046-.806-1.563-1.21l-1.233 1.574zm3.182 2.438c.54.403 1.082.806 1.63 1.207l1.182-1.613c-.542-.398-1.08-.796-1.613-1.195l-1.199 1.601zm3.251 2.382c.541.388 1.086.775 1.635 1.161l1.15-1.636a197.19 197.19 0 01-1.619-1.15l-1.166 1.625zm3.297 2.317c.55.379 1.103.756 1.662 1.133l1.119-1.657c-.553-.374-1.102-.748-1.647-1.123l-1.134 1.647zm3.323 2.245c.558.369 1.12.738 1.687 1.107l1.09-1.677a186.25 186.25 0 01-1.672-1.098l-1.105 1.668zm3.39 2.204c.557.356 1.117.711 1.682 1.065l1.063-1.694c-.56-.352-1.116-.704-1.668-1.056l-1.077 1.685zm3.387 2.126c.573.353 1.15.706 1.73 1.058l1.038-1.71c-.577-.349-1.15-.7-1.718-1.05l-1.05 1.702zm3.444 2.09c.57.339 1.143.679 1.72 1.018l1.013-1.724c-.573-.337-1.142-.674-1.708-1.012l-1.025 1.718zm3.462 2.034c.583.337 1.169.674 1.759 1.01l.99-1.737c-.586-.335-1.169-.669-1.747-1.004l-1.002 1.731zm3.487 1.988c.58.326 1.163.652 1.75.977l.97-1.749c-.584-.324-1.164-.648-1.74-.971l-.98 1.743zm3.523 1.952c.585.321 1.175.641 1.768.961l.95-1.761a383.26 383.26 0 01-1.759-.954l-.96 1.754zm3.522 1.901c.588.313 1.18.626 1.774.939l.931-1.77c-.592-.312-1.18-.623-1.765-.935l-.94 1.766zm3.57 1.878c.59.306 1.183.613 1.78.919l.913-1.779c-.593-.305-1.184-.61-1.77-.915l-.923 1.775zm3.553 1.824c.594.302 1.192.604 1.793.906l.898-1.787c-.599-.301-1.194-.601-1.786-.902l-.905 1.783zm3.607 1.812c.594.295 1.192.591 1.793.886l.883-1.795a426.7 426.7 0 01-1.786-.882l-.89 1.791zm3.581 1.761c.599.291 1.201.583 1.807.875l.868-1.802c-.603-.29-1.203-.581-1.8-.871l-.875 1.798zm3.633 1.751l.92.438.858-1.806-.917-.437-.861 1.805z" fill="#fff"/></svg>