<svg width="518" height="489" fill="none" xmlns="http://www.w3.org/2000/svg"><g clip-path="url(#clip0)"><path d="M501.245 402.228c0 2.362 0 4.725-.081 7.088v1.222c0 1.223-.082 2.445-.082 3.748a470.186 470.186 0 01-1.956 30.229c-.163 1.874-.408 3.748-.571 5.622-.081.57-.081 1.059-.163 1.548-.896 7.741-1.956 15.318-3.26 22.896h-483.3a239.247 239.247 0 01-5.299-22.896c-.081-.57-.163-1.059-.326-1.548-.326-1.874-.652-3.748-.896-5.622-.327-2.118-.571-4.155-.816-6.192-.081-1.06-.244-2.119-.326-3.097-.081-1.059-.163-2.118-.326-3.096v-.326a952.34 952.34 0 00-.244-3.829c-.082-1.222-.163-2.526-.163-3.83-.163-3.177-.163-6.355-.082-9.533 0-.733 0-1.385.082-2.118 0-.57.081-1.222.081-1.793 0-.407.082-.814.082-1.222.326-6.029 1.141-11.977 2.282-18.007l.978-4.399c.897-3.667 1.875-7.252 3.016-10.837.734-2.363 1.55-4.644 2.364-7.007 5.625-15.644 12.88-30.473 18.423-46.199a143.734 143.734 0 003.668-11.896c.407-1.629.896-3.259 1.223-4.888 4.075-16.948 5.869-34.71 7.01-52.228 2.934-45.384.081-91.989 11.412-136.151C68.565 61.239 108.997 5.671 161.493.701c34.562-3.26 67.005 17.518 100.589 27.703 18.34 5.54 37.252 7.903 55.348 14.014a121.088 121.088 0 0111.33 4.481c14.021 6.437 27.063 16.051 35.785 30.392 4.158 6.844 7.174 14.422 9.701 22.243 3.831 11.978 6.602 24.77 10.76 36.666 4.238 12.303 9.944 23.547 16.466 34.139 6.521 10.593 13.857 20.533 21.356 30.147 7.174 9.208 14.51 18.17 21.52 27.214 20.297 26.073 36.193 53.858 45.648 86.612 1.957 6.6 3.587 13.363 4.973 20.451 2.201 11.407 3.831 22.977 4.809 34.547.163 2.2.408 4.482.489 6.681.734 8.8.978 17.518.978 26.237z" fill="#E5E5E5"/><path d="M92.531 180.932c.245-4.645 2.772-9.126 6.603-11.733 3.831-2.608 8.885-3.422 13.287-2.037.081-5.785 3.505-11.407 8.722-14.015 5.135-2.607 11.738-2.118 16.466 1.223 1.793-6.03 6.195-11.407 11.982-13.933 5.788-2.526 12.961-2.037 18.015 1.711s7.581 10.836 5.625 16.784c4.32-1.466 9.048-2.933 13.449-1.711 3.669 1.06 6.685 3.993 8.07 7.578 1.305 3.585.979 7.74-.733 11.081l-101.486 5.052zm220.253-52.961c.244-2.934 2.445-5.785 5.869-7.497 3.423-1.711 7.907-2.199 11.901-1.303.081-3.667 3.179-7.252 7.744-8.963 4.646-1.629 10.515-1.385 14.754.815 1.63-3.83 5.543-7.252 10.678-8.881 5.136-1.63 11.575-1.304 16.059 1.14 4.564 2.363 6.765 6.845 5.054 10.674 3.912-.896 8.069-1.874 11.982-1.059 3.261.652 6.032 2.526 7.173 4.807 1.223 2.282.897 4.889-.652 7.089l-90.562 3.178zM29.846 75.987c.245-4.644 2.772-9.125 6.603-11.733 3.831-2.607 8.885-3.422 13.287-2.037.082-5.785 3.505-11.407 8.722-14.014 5.136-2.607 11.738-2.119 16.466 1.222 1.793-6.03 6.195-11.407 11.983-13.933 5.787-2.526 12.96-2.037 18.014 1.711 5.054 3.748 7.581 10.837 5.625 16.785 4.32-1.467 9.048-2.933 13.45-1.711 3.668 1.06 6.684 3.992 8.07 7.577 1.304 3.585.978 7.74-.734 11.081L29.846 75.987z" fill="#fff"/><path d="M435.463 307.224s34.236 92.967 49.398 138.187" stroke="#1E2150" stroke-width=".446" stroke-miterlimit="10" stroke-linecap="round" stroke-linejoin="round"/><path d="M433.914 320.179c-3.994-9.533-6.032-20.044-4.401-30.229.081-.407.163-.896.489-1.222.978-1.059 2.69.244 3.505 1.466 5.217 8.067 9.211 16.948 11.982 26.155 2.609 8.8 5.299 19.474 4.321 28.599-3.261-1.222-6.685-8.311-8.641-11.325-2.771-4.237-5.298-8.719-7.255-13.444zm30.405 14.177c2.12-8.8 6.114-17.355 12.553-23.792.245-.244.571-.57.979-.652 1.304-.244 1.793 1.548 1.711 2.852a88.698 88.698 0 01-5.053 24.77c-2.69 7.577-6.359 16.54-11.82 22.569-1.63-2.607-.408-9.37-.245-12.466.326-4.4.897-8.881 1.875-13.281zm-40.105 25.258c-8.07-4.237-15.243-10.266-19.889-18.088-.164-.326-.408-.733-.408-1.141.081-1.303 1.956-1.385 3.179-.977a90.51 90.51 0 0122.743 11.081c6.684 4.481 14.428 10.266 18.911 17.11-2.935.978-9.211-1.955-12.146-2.852a86.302 86.302 0 01-12.39-5.133zm63.337 3.667c3.668-8.311 9.293-15.889 16.792-21.022a2.537 2.537 0 011.06-.489c1.304 0 1.467 1.874 1.141 3.097-2.12 8.229-5.299 16.132-9.619 23.384-4.076 6.926-9.374 15.074-15.814 19.962-1.141-2.852 1.305-9.288 2.12-12.303 1.059-4.318 2.445-8.555 4.32-12.629zm-53.637 33.895c-8.477-3.341-16.303-8.555-21.764-15.807-.245-.326-.489-.652-.489-1.059-.082-1.304 1.793-1.548 3.097-1.304 8.315 1.711 16.303 4.644 23.803 8.555 7.173 3.748 15.487 8.637 20.704 14.911-2.771 1.304-9.374-.896-12.39-1.548-4.402-.896-8.803-2.119-12.961-3.748z" fill="#1E2150"/><path d="M469.129 339.245l-10.271 32.347-33.747-14.341m3.831 33.488l42.551 16.051 15.895-32.021" stroke="#1E2150" stroke-width=".446" stroke-miterlimit="10" stroke-linecap="round" stroke-linejoin="round"/><path d="M392.668 426.182c.897-.244 1.793-.407 2.527-1.059.896-.815 1.06-2.2 1.304-3.341 1.223-7.333 5.217-14.34 11.249-18.74 6.032-4.399 14.021-6.111 21.275-4.074 4.158-7.17 8.478-14.503 15.162-19.391 6.684-4.889 16.303-6.682 23.15-2.037 4.239 2.933 6.766 7.821 7.744 12.873.978 5.052.652 10.266.245 15.4 6.521-.245 12.879 3.585 16.221 9.207 3.342 5.622 3.831 12.629 1.956 18.903-.244.815-.489 1.874 0 2.526.408.57 1.223.651 1.875.814 7.663 1.548 11.412 10.593 11.657 18.415.244 6.273-1.793 12.14-4.239 17.925H376.202c.081-15.155-2.853-42.369 16.466-47.421z" fill="#DF2C2C"/><path d="M356.72 459.018c6.032-10.429 21.275-14.259 31.465-7.822 5.543-8.474 17.118-12.466 26.655-9.125 3.505-7.252 9.048-13.526 15.814-18.007 4.972-3.259 10.76-5.622 16.792-5.704 5.95-.081 12.145 2.282 15.895 6.926 5.054 6.274 4.809 15.074 4.402 23.14 5.217-2.852 12.064-2.607 17.036.733 4.973 3.341 7.826 9.452 7.255 15.4 3.098-2.445 7.826-2.608 11.086-.326 3.179 2.281 4.81 6.926 3.424 10.674H352.318c.163-5.297 1.712-11.245 4.402-15.889z" fill="#861A1A"/><path d="M440.762 440.278l11.412 30.066" stroke="#1E2150" stroke-width=".204" stroke-miterlimit="10" stroke-linecap="round" stroke-linejoin="round"/><path d="M442.051 443.177c5.5-3.993 9.015-8.529 7.851-10.131-1.164-1.602-6.567.336-12.067 4.33-5.5 3.993-9.015 8.529-7.851 10.131 1.164 1.602 6.567-.337 12.067-4.33z" fill="#fff"/><path d="M440.762 439.526c1.493-1.084 2.446-2.317 2.129-2.754-.318-.437-1.786.088-3.279 1.172-1.493 1.084-2.447 2.317-2.129 2.754.317.437 1.785-.088 3.279-1.172z" fill="#0E151D"/><path d="M482.986 440.278l-11.493 30.066" stroke="#1E2150" stroke-width=".204" stroke-miterlimit="10" stroke-linecap="round" stroke-linejoin="round"/><path d="M493.75 447.483c1.164-1.602-2.351-6.137-7.851-10.131-5.5-3.993-10.903-5.932-12.067-4.33-1.164 1.602 2.351 6.138 7.851 10.132 5.5 3.993 10.903 5.931 12.067 4.329z" fill="#fff"/><path d="M486.25 440.664c.318-.437-.635-1.67-2.129-2.754-1.493-1.084-2.961-1.609-3.279-1.172-.317.437.636 1.67 2.129 2.754 1.494 1.084 2.962 1.609 3.279 1.172z" fill="#0E151D"/><path d="M457.472 470.914l4.483-29.006" stroke="#1E2150" stroke-width=".204" stroke-miterlimit="10" stroke-linecap="round" stroke-linejoin="round"/><path d="M461.955 451.767c5.268 0 9.538-4.268 9.538-9.533s-4.27-9.533-9.538-9.533c-5.267 0-9.537 4.268-9.537 9.533s4.27 9.533 9.537 9.533z" fill="#fff"/><path d="M461.955 444.922a2.688 2.688 0 100-5.377 2.69 2.69 0 100 5.377z" fill="#0E151D"/><path d="M93.51 320.016s-33.422 90.767-48.257 134.928" stroke="#1E2150" stroke-width=".436" stroke-miterlimit="10" stroke-linecap="round" stroke-linejoin="round"/><path d="M95.058 332.645c3.913-9.289 5.869-19.555 4.32-29.495-.081-.408-.163-.897-.407-1.223-.978-1.059-2.609.245-3.424 1.385-5.054 7.904-9.048 16.541-11.738 25.503-2.608 8.556-5.135 18.985-4.157 27.947 3.179-1.222 6.521-8.147 8.396-10.999 2.608-4.156 5.054-8.474 7.01-13.118zm-29.753 13.933c-2.038-8.637-5.95-16.948-12.227-23.222-.244-.244-.57-.57-.978-.652-1.223-.244-1.793 1.549-1.712 2.771.49 8.229 2.201 16.458 4.891 24.199 2.608 7.414 6.195 16.133 11.575 22.081 1.63-2.526.408-9.207.245-12.222-.163-4.319-.734-8.718-1.794-12.955zm39.209 24.606c7.825-4.155 14.917-10.022 19.4-17.681.163-.326.408-.651.408-1.059-.082-1.222-1.875-1.304-3.098-.896a86.643 86.643 0 00-22.253 10.837c-6.521 4.399-14.102 10.021-18.504 16.703 2.853.977 8.967-1.874 11.901-2.852 4.157-1.385 8.233-3.015 12.146-5.052zm-61.788 3.585c-3.587-8.066-9.048-15.562-16.385-20.532-.326-.245-.652-.408-1.06-.408-1.222 0-1.467 1.793-1.14 3.015 2.037 7.985 5.216 15.725 9.374 22.895 3.994 6.763 9.13 14.748 15.487 19.474 1.142-2.77-1.304-9.126-2.038-12.059-1.14-4.237-2.445-8.392-4.238-12.385zm52.332 33.081c8.233-3.26 15.977-8.311 21.275-15.481.245-.326.49-.652.49-1.06.081-1.222-1.794-1.548-3.016-1.222-8.07 1.63-15.977 4.482-23.314 8.311-7.01 3.667-15.161 8.474-20.215 14.585 2.69 1.222 9.13-.896 12.145-1.467a68.039 68.039 0 0012.635-3.666z" fill="#1E2150"/><path d="M60.659 351.303l10.026 31.614 32.932-14.014m-3.749 32.754l-41.491 15.644-15.57-31.288" stroke="#1E2150" stroke-width=".436" stroke-miterlimit="10" stroke-linecap="round" stroke-linejoin="round"/><path d="M115.6 426.182c-.897-.244-1.794-.407-2.527-1.059-.897-.815-1.06-2.2-1.304-3.341-1.223-7.333-5.217-14.34-11.249-18.74-6.032-4.399-14.02-6.111-21.276-4.074-4.157-7.17-8.477-14.503-15.162-19.391-6.684-4.889-16.302-6.682-23.15-2.037-4.238 2.933-6.765 7.821-7.744 12.873-.978 5.052-.652 10.266-.244 15.4-6.521-.245-12.88 3.585-16.221 9.207-3.342 5.622-3.832 12.629-1.957 18.903.245.815.49 1.874 0 2.526-.407.57-1.223.651-1.875.814-7.662 1.548-11.412 10.593-11.656 18.415-.245 6.273 1.793 12.14 4.239 17.925h126.51c0-15.155 2.935-42.369-16.384-47.421z" fill="#DF2C2C"/><path d="M151.466 459.018c-6.032-10.429-21.275-14.259-31.464-7.822-5.543-8.474-17.119-12.466-26.656-9.125-3.505-7.252-9.048-13.526-15.814-18.007-4.972-3.259-10.76-5.622-16.791-5.704-5.951-.081-12.146 2.282-15.896 6.926-5.054 6.274-4.81 15.074-4.402 23.14-5.217-2.852-12.064-2.607-17.036.733-4.973 3.341-7.826 9.452-7.255 15.4-3.098-2.445-7.825-2.608-11.086-.326-3.18 2.281-4.81 6.926-3.424 10.674h154.226c-.163-5.297-1.712-11.245-4.402-15.889z" fill="#861A1A"/><path d="M26.26 440.278l11.493 30.066" stroke="#1E2150" stroke-width=".204" stroke-miterlimit="10" stroke-linecap="round" stroke-linejoin="round"/><path d="M27.553 443.214c5.5-3.993 9.015-8.529 7.85-10.131-1.163-1.602-6.566.337-12.066 4.33-5.5 3.993-9.015 8.529-7.851 10.131 1.164 1.602 6.566-.336 12.067-4.33z" fill="#fff"/><path d="M26.261 439.56c1.494-1.084 2.447-2.317 2.13-2.754-.318-.437-1.786.088-3.28 1.172-1.493 1.085-2.446 2.318-2.129 2.755.318.437 1.786-.088 3.28-1.173z" fill="#0E151D"/><path d="M68.566 440.278l-11.494 30.066" stroke="#1E2150" stroke-width=".204" stroke-miterlimit="10" stroke-linecap="round" stroke-linejoin="round"/><path d="M79.323 447.482c1.164-1.602-2.35-6.138-7.851-10.132-5.5-3.993-10.903-5.932-12.067-4.33-1.164 1.602 2.35 6.138 7.851 10.132 5.5 3.993 10.903 5.932 12.067 4.33z" fill="#fff"/><path d="M71.826 440.661c.317-.437-.636-1.67-2.13-2.755-1.493-1.084-2.961-1.609-3.278-1.172-.318.437.635 1.67 2.129 2.754 1.493 1.085 2.961 1.61 3.279 1.173z" fill="#0E151D"/><path d="M43.052 470.914l4.483-29.006" stroke="#1E2150" stroke-width=".204" stroke-miterlimit="10" stroke-linecap="round" stroke-linejoin="round"/><path d="M47.535 451.767c5.267 0 9.537-4.268 9.537-9.533s-4.27-9.533-9.537-9.533c-5.267 0-9.537 4.268-9.537 9.533s4.27 9.533 9.537 9.533z" fill="#fff"/><path d="M47.535 444.922a2.689 2.689 0 100-5.377 2.69 2.69 0 100 5.377z" fill="#0E151D"/><path d="M258.25 489.41c143.207 0 259.298-5.399 259.298-12.059 0-6.66-116.091-12.059-259.298-12.059-143.206 0-259.298 5.399-259.298 12.059 0 6.66 116.092 12.059 259.298 12.059z" fill="#C2B7D9"/><path d="M420.138 468.796c-.163-.245-.489-.082-.489.163-.163 1.548-.57 5.459.734 7.659 1.304 2.199 4.402 3.748 5.624 4.236.245.082.489-.081.408-.407-.245-1.141-.815-3.911-1.956-5.785-1.223-1.955-3.424-4.726-4.321-5.866zm19.645-.408c.245-.244.734-.081.734.326 0 1.711-.163 5.296-1.549 7.17-1.467 1.874-4.402 3.015-5.787 3.422-.326.082-.652-.244-.571-.651.408-1.223 1.223-3.586 2.527-5.215 1.223-1.63 3.505-3.911 4.646-5.052zm-9.781-3.422c-.082-.163-.245-.244-.326-.081-.734.977-2.772 4.074-2.283 7.659.408 3.34 1.386 5.703 1.793 6.599.082.163.327.163.408 0 .489-1.222 1.875-4.807 1.467-8.473-.407-3.26-.815-4.971-1.059-5.704zM66.854 466.84c-.163-.244-.489-.081-.489.163-.163 1.548-.57 5.459.734 7.659 1.304 2.2 4.401 3.748 5.624 4.237.245.081.49-.082.408-.407-.245-1.141-.816-3.911-1.957-5.785-1.222-1.956-3.423-4.726-4.32-5.867zm19.646-.407c.244-.245.733-.082.733.326 0 1.711-.163 5.296-1.55 7.17-1.466 1.874-4.4 3.015-5.787 3.422-.326.081-.652-.245-.57-.652.407-1.222 1.223-3.585 2.527-5.215 1.223-1.629 3.505-3.911 4.646-5.051zm-9.783-3.422c-.081-.163-.244-.245-.326-.082-.733.978-2.771 4.074-2.282 7.659.407 3.341 1.386 5.704 1.793 6.6a.231.231 0 00.408 0c.489-1.222 1.875-4.807 1.467-8.474-.408-3.259-.815-4.97-1.06-5.703z" fill="#fff"/><path d="M35.879 474.988c-.245.081-.49.244-.571.407-.163.163-.245.489-.082.734.163.326.571.326.979.326 1.956 0 3.994-.245 5.869-.652.326-.082.733-.163.978-.408 1.549-1.222-1.141-1.792-1.957-1.711-1.793.163-3.668.489-5.216 1.304zm4.483 3.015c-.245.081-.408.244-.57.407-.164.163-.245.407-.082.652.163.326.57.326.896.326 1.794 0 3.587-.163 5.299-.571.326-.081.652-.162.896-.407 1.386-1.141-.978-1.629-1.793-1.548-1.549.163-3.179.489-4.646 1.141zm6.113-3.83c-.244.082-.407.245-.57.408-.163.163-.245.407-.082.651.163.326.57.326.897.326 1.793 0 3.587-.163 5.298-.57.326-.081.652-.163.897-.407 1.386-1.141-.978-1.63-1.793-1.548-1.549.081-3.18.407-4.647 1.14zm185.935.815c-.244.081-.489.244-.57.407-.163.163-.245.489-.082.734.163.326.571.326.978.326 1.957 0 3.994-.245 5.869-.652.326-.082.734-.163.978-.408 1.549-1.222-1.141-1.792-1.956-1.711-1.793.163-3.668.489-5.217 1.304zm4.483 3.015c-.244.081-.407.244-.57.407-.163.163-.245.407-.082.652.163.326.571.326.897.326 1.793 0 3.587-.163 5.298-.571.327-.081.653-.162.897-.407 1.386-1.141-.978-1.629-1.793-1.548-1.549.163-3.179.489-4.647 1.141zm6.114-3.83c-.244.082-.408.245-.571.408-.163.163-.244.407-.081.651.163.326.571.326.897.326 1.793 0 3.586-.163 5.298-.57.326-.081.652-.163.897-.407 1.385-1.141-.978-1.63-1.794-1.548-1.548.081-3.179.407-4.646 1.14zm144.199.815c-.244.081-.489.244-.57.407-.163.163-.245.489-.082.734.163.326.571.326.978.326 1.957 0 3.995-.245 5.87-.652.326-.082.733-.163.978-.408 1.549-1.222-1.142-1.792-1.957-1.711-1.793.163-3.586.489-5.217 1.304zm4.565 3.015c-.244.081-.407.244-.57.407-.163.163-.245.407-.082.652.163.326.571.326.897.326 1.793 0 3.586-.163 5.298-.571.326-.081.652-.162.897-.407 1.386-1.141-.978-1.629-1.793-1.548-1.549.163-3.261.489-4.647 1.141zm6.032-3.83c-.244.082-.407.245-.57.408-.163.163-.245.407-.082.651.163.326.571.326.897.326 1.793 0 3.586-.163 5.298-.57.326-.081.652-.163.897-.407 1.386-1.141-.978-1.63-1.793-1.548-1.549.081-3.179.407-4.647 1.14z" fill="#0E151D"/><path d="M291.753 149.236s16.466-6.599 19.156-3.992c2.771 2.607 9.455 14.829 8.64 16.622-.815 1.792-6.439 3.34-9.129 3.096 0 0 .244 3.911-3.668 4.97-3.913 1.059-16.466-8.066-16.466-8.066l1.467-12.63z" fill="#FFBE9D"/><path d="M259.473 133.348s29.997 11 33.013 13.851l-1.385 9.859-31.628-.733v-22.977z" fill="#DF2C2C"/><path d="M302.92 178.732s19.89-4.237 20.46-8.882c.571-4.725-4.401-17.436-9.211-18.821-4.809-1.385-29.916 10.592-29.916 10.592l4.565 20.288 14.102-3.177z" fill="#1E2150"/><path d="M286.128 169.199l55.512 260.813 15.406-3.259-55.511-259.754-15.407 2.2z" fill="#1E2150"/><path d="M333.026 390.084l15.398-3.221-4.19-20.017-15.399 3.22 4.191 20.018z" fill="#861A1A"/><path d="M124.974 432.945l3.342 5.052 7.989-5.215-3.343-5.052c-.326-.489-1.059-.651-1.548-.326l-6.114 3.993c-.571.326-.734 1.059-.326 1.548z" fill="#DF2C2C"/><path d="M174.209 447.856c-.163 0-3.016-5.459-3.261-5.785-9.7-14.992-31.709-20.94-44.751-6.356-3.995 4.482-6.277 10.43-6.358 16.459 0 2.933.081 3.259 2.526 2.933 5.462-.896 10.923-1.548 16.303-2.281 11.738-1.63 23.395-3.259 35.133-4.889.163-.081.326-.081.408-.081z" fill="#0E151D"/><g fill="#1E2150"><path d="M336.586 406.383l-23.15 43.347h-12.798l32.85-59.154 3.098 15.807z"/><path d="M152.118 459.996h154.797c4.401 0 7.988-3.585 7.988-7.985v-6.926H151.14a6.922 6.922 0 00-6.929 6.926c0 4.4 3.587 7.985 7.907 7.985z"/></g><path d="M147.064 481.995c13.191 0 23.884-10.688 23.884-23.873s-10.693-23.873-23.884-23.873c-13.19 0-23.883 10.688-23.883 23.873s10.693 23.873 23.883 23.873z" fill="#1E2150"/><path d="M147.064 472.951c8.194 0 14.836-6.639 14.836-14.829 0-8.19-6.642-14.829-14.836-14.829-8.193 0-14.835 6.639-14.835 14.829 0 8.19 6.642 14.829 14.835 14.829z" stroke="#fff" stroke-width=".226" stroke-miterlimit="10"/><path d="M147.064 463.744a5.623 5.623 0 100-11.244 5.623 5.623 0 100 11.244z" fill="#fff"/><path d="M330.88 462.522c.163 0 .489-.163.978-.326-.245-1.304-.326-2.689-.326-4.074 0-13.2 10.678-23.873 23.884-23.873 7.01 0 13.205 3.014 17.607 7.74 0 0-.326-1.792-.489-2.037-.652-1.385-1.631-2.607-2.69-3.748-6.766-7.822-18.096-8.148-26.9-3.666-8.396 4.318-14.999 12.873-14.754 22.569 0 1.63 0 7.415 2.69 7.415z" fill="#0E151D"/><path d="M355.334 481.995c13.191 0 23.884-10.688 23.884-23.873s-10.693-23.873-23.884-23.873c-13.19 0-23.884 10.688-23.884 23.873s10.694 23.873 23.884 23.873z" fill="#1E2150"/><path d="M355.334 472.951c8.194 0 14.836-6.639 14.836-14.829 0-8.19-6.642-14.829-14.836-14.829-8.193 0-14.835 6.639-14.835 14.829 0 8.19 6.642 14.829 14.835 14.829z" stroke="#fff" stroke-width=".226" stroke-miterlimit="10"/><path d="M355.334 463.744a5.623 5.623 0 100-11.244 5.623 5.623 0 100 11.244z" fill="#fff"/><path d="M357.046 426.753l-.897 17.11c-.163 3.015-4.075 3.911-5.624 1.385l-8.885-15.236 15.406-3.259z" fill="#861A1A"/><path d="M318.734 430.745a2.852 2.852 0 10.001-5.705 2.852 2.852 0 00-.001 5.705z" fill="#DF2C2C"/><path d="M343.025 432.293c-1.304-3.34-2.608-6.844-5.298-9.288-2.608-2.445-6.847-3.585-9.863-1.63-1.304.896-2.283 2.281-3.424 3.422s-2.853 1.956-4.402 1.467" stroke="#DF2C2C" stroke-width=".226" stroke-miterlimit="10"/><path d="M214.069 406.872h-25.025m70.103-.652l-22.743.652" stroke="#C2B7D9" stroke-width=".129" stroke-miterlimit="10" stroke-linecap="round" stroke-linejoin="round"/><path d="M254.012 7.79c9.292 3.014 17.036 11.325 17.281 21.347.326 13.118-.163 26.48-4.647 38.865-.57 1.548-1.222 3.096-2.364 4.156-2.364 2.2-6.113 1.874-9.374 1.14-12.227-2.689-29.671-10.266-35.051-22.57-2.609-6.029-2.935-13.036-1.304-19.391 4.075-15.726 18.34-29.088 35.459-23.548z" fill="#FFBE9D"/><path d="M252.218 66.373c5.403 0 9.782-4.378 9.782-9.778s-4.379-9.777-9.782-9.777c-5.402 0-9.782 4.377-9.782 9.777 0 5.4 4.38 9.778 9.782 9.778z" fill="url(#paint0_linear)"/><path d="M271.293 40.218s5.38 12.466 5.217 14.91c-.163 2.445-7.337 3.993-7.337 3.993l2.12-18.903z" fill="#FFC0B3"/><path d="M271.293 40.218s5.38 12.466 5.217 14.91c-.163 2.445-7.337 3.993-7.337 3.993l2.12-18.903z" fill="url(#paint1_linear)"/><path d="M263.549 45.433c.855 0 1.549-.84 1.549-1.874 0-1.035-.694-1.874-1.549-1.874-.856 0-1.549.839-1.549 1.874 0 1.035.693 1.874 1.549 1.874zm-6.114-6.6c1.63-.896 2.935-1.385 4.402-1.63.734-.081 1.467-.163 2.282-.163h2.609c.163 0 .326-.163.326-.407 0-.082-.082-.163-.082-.245-.652-.733-1.548-1.303-2.527-1.63-.978-.325-2.037-.407-3.097-.325-2.12.326-4.076 1.792-4.565 3.91-.081.164.082.408.326.408.082.163.163.163.326.082zm11.086 21.917c-.081.245-.081.49-.163.734-.326.081-.734.081-1.06.081-2.853 0-5.461-2.688-5.624-2.851-.163-.163-.163-.326 0-.49.163-.162.326-.08.489 0 0 .082 3.342 3.586 6.358 2.527zm-97.247 33.488l6.603.082c.489-5.867 1.549-13.607 3.424-17.763 0 0-.327 9.86.163 17.926l58.527 2.037h15.243s3.668-11.57-1.059-24.851c-4.81-13.363-14.918-18.007-14.918-18.007l-5.217-29.577 7.337-22.488c-22.743 2.607-27.634 20.614-33.829 33.243-6.195 12.63-12.064 10.593-26.003 23.059-14.102 12.385-10.271 36.34-10.271 36.34z" fill="#1E2150"/><path d="M222.302 12.597s9.212-15.644 30.976-10.918c24.862 5.377 24.047 30.636 24.047 30.636l-11.412 1.792s-5.788-13.851-9.864-16.866l3.261 16.866-10.515 2.118-4.321-14.829s4.402 13.933 3.261 17.844c-1.06 3.911-13.45 11.081-13.45 11.081s-12.472-11-14.917-14.421c-2.364-3.422-3.505-9.86 2.934-23.303z" fill="#1E2150"/><path d="M249.202 46.492s-1.63-13.2-11.819-10.022c-10.19 3.178-7.174 15.236 0 18.251 7.173 3.015 11.819-8.23 11.819-8.23z" fill="#FFBE9D"/><path d="M244.393 43.966s-1.875-6.11-7.01-5.052c-5.136 1.06-5.543 14.26 4.972 13.689m-.245-12.385s3.179 6.763-.978 12.303" stroke="#1E2150" stroke-width=".226" stroke-miterlimit="10" stroke-linecap="round" stroke-linejoin="round"/><path d="M249.936 47.958c-.082.49-.408 1.141-.815.978a.837.837 0 01-.408-.489c-2.119-3.748-2.771-8.474-5.38-11.896a23.082 23.082 0 01-1.467-2.363c-1.875-3.666 2.771-4.562 4.565-2.118.733.896.896 2.2 1.222 3.34.49 1.793 1.142 3.586 1.631 5.378.57 2.363.896 4.808.652 7.17z" fill="#1E2150"/><path d="M182.116 437.671c.896 5.051 2.771 6.029 10.434 9.777 7.743 3.667 10.27 6.844 21.438 9.859 8.151 2.2 14.754-.57 17.77-2.2 1.141-.652 1.875-1.711 2.038-3.014 1.141-8.719-6.44-13.933-12.472-18.333-1.223-.896-2.445-2.037-3.586-3.178-.163-.163-.326-.326-.408-.489-.978-.977-1.793-1.955-2.69-2.933-.163-.163-.245-.326-.408-.489-.815-.978-1.548-1.874-2.282-2.77a1.695 1.695 0 01-.326-.489c-1.06-1.385-2.038-2.689-2.609-3.585-.652-.978-1.222-2.118-2.363-2.281l-12.961-.815c-1.631-.163-3.261.652-4.076 2.118-2.608 4.726-8.07 15.4-7.499 18.822z" fill="#0E151D"/><path d="M209.015 410.701l-1.059 7.578s-4.647 5.051-11.168 3.177c-6.439-1.955-5.787-4.399-5.787-4.399l.652-6.437 17.362.081z" fill="#FFBE9D"/><path d="M224.992 436.367s-12.879 1.874-15.977 19.392" stroke="#fff" stroke-width=".226" stroke-miterlimit="10"/><path d="M202.82 432.619a.259.259 0 00.163.082c.082 0 .163-.001.163-.082 4.076-3.667 9.049-5.052 11.494-5.541-.163-.163-.245-.325-.408-.488-2.608.57-7.417 2.037-11.412 5.622-.081.163-.081.326 0 .407zm-3.016-3.178a.253.253 0 00.163.082s.163 0 .163-.082c4.239-3.829 9.538-5.133 11.82-5.54a1.695 1.695 0 01-.326-.489c-2.446.489-7.581 1.874-11.82 5.622-.081.082-.081.244 0 .407zm6.522 6.437a.25.25 0 00.163.082c.081 0 .163 0 .163-.082 3.912-3.503 8.64-4.888 11.086-5.459-.163-.163-.327-.326-.408-.489-2.608.652-7.255 2.119-11.086 5.541 0 .163 0 .326.082.407z" fill="#fff"/><path d="M186.844 424.064s6.521 12.466 4.238 22.569" stroke="#fff" stroke-width=".226" stroke-miterlimit="10"/><path d="M256.783 402.553v11.57s-2.201 3.83-9.211 3.83-9.048-1.548-9.048-1.548l-.408-12.629 18.667-1.223z" fill="#FFBE9D"/><path d="M234.204 441.582c.163 1.303 1.222 2.363 2.526 2.444 10.597.57 56.327 3.015 58.691 2.2 2.608-.978 3.994-9.452-.978-13.77-2.853-2.444-14.999-8.718-24.699-13.525l-.489-.245a137.51 137.51 0 01-3.505-1.711c-.163-.081-.326-.163-.571-.244-1.467-.734-2.771-1.385-3.913-1.874a3.985 3.985 0 00-.57-.245c-2.446-1.14-3.913-1.874-3.913-1.874s-6.847 8.067-18.667 3.748c.082-.081-5.217 14.015-3.912 25.096z" fill="#0E151D"/><path d="M281.808 425.042s-7.825 8.555-8.477 20.777m-37.416-21.755s9.701 7.007 10.516 21.021" stroke="#fff" stroke-width=".226" stroke-miterlimit="10"/><path d="M263.63 426.345c-.081.163 0 .326.163.326h.082c.081 0 .244-.081.244-.163 1.549-3.992 4.076-6.437 5.625-7.577l-.489-.245a18.114 18.114 0 00-5.625 7.659zm-3.342-2.037h.082c.081 0 .244-.081.244-.163 1.386-3.666 3.587-5.948 5.136-7.17-.163-.081-.326-.163-.571-.244-1.63 1.303-3.75 3.666-5.135 7.251 0 .163.081.326.244.326zm-4.728-1.874h.082c.081 0 .244-.081.244-.163 1.468-3.911 3.913-6.274 5.462-7.414a3.953 3.953 0 00-.571-.245c-1.63 1.304-3.912 3.667-5.38 7.496-.081.082 0 .245.163.326z" fill="#fff"/><path d="M257.68 329.304c-1.468-18.251-7.907-146.173-7.907-146.173h-60.892s-7.825 52.065-4.157 90.36 6.277 68.605 6.277 68.605-10.842 36.666-.897 68.687l23.639.163 4.973-68.768 4.646-29.007c4.646 14.422 8.967 21.837 8.967 21.837s-4.321 54.101 5.706 76.59l21.03-.734c.082-.163-.081-67.301-1.385-81.56z" fill="#0E151D"/><g stroke="#C2B7D9" stroke-miterlimit="10" stroke-linecap="round" stroke-linejoin="round"><path d="M219.612 340.059l17.281-123.521 4.239-7.007" stroke-width=".216"/><path d="M202.331 207.982s-.815 116.678-1.548 129.959c-.734 13.281-.082 72.76-.082 72.76m26.411-122.055s13.776 34.303 14.02 38.866c.245 4.562 0 66.242 3.668 83.76" stroke-width=".129"/></g><path d="M187.903 82.668c.489 3.178 2.201 8.556 6.195 6.193.082-.082.163-.082.245-.163.652-.49 1.304-1.467 2.038-2.852 3.097-5.867 7.662-17.6 22.579-15.155l1.468.244c.896.163 1.711.408 2.69.734 11.249 3.422 19.4 9.777 24.617 15.236 4.728 4.889 7.092 9.044 7.418 9.533 0-.081-.082-.326-.082-.57-.733-3.911-5.461-24.851-21.194-35.932-5.298-3.667-10.596-7.252-16.629-9.696-1.63-.652-3.423-1.06-5.135-.652h-.081c-.163.081-.408.163-.571.244-2.038.734-3.75 2.608-5.38 3.911-1.467 1.304-3.994 3.178-3.424 5.46.734 3.014.734 3.177.734 3.177 0 .082 0 .163-.082.245 0 .081-.081.081-.081.163-.571.651-2.201 1.71-3.913 2.688-2.038 1.222-4.157 2.363-4.646 2.608-4.728 2.77-7.581 9.207-6.766 14.584z" fill="#DF2C2C"/><path d="M255.234 96.52s4.81 27.621 4.81 53.776c0 26.073 7.581 48.316-4.81 60.457l-71.325-3.83c-.489 0-.897-.326-1.06-.733-1.875-4.4-11.819-29.251-6.602-58.665 5.787-32.428 18.096-58.827 18.096-58.827s1.467-17.437 19.319-18.251c17.77-.897 38.067 15.725 41.572 26.073z" fill="#DF2C2C"/><path d="M183.257 205.62l2.119 8.229c.245.081.652.244 1.223.326.163 0 .326.081.489.081.652.163 1.467.245 2.364.326.163 0 .326.082.571.082.733.081 1.467.163 2.364.244.163 0 .326 0 .57.082.734.081 1.549.081 2.364.163.163 0 .326 0 .571.081.733.082 1.548.082 2.364.163.163 0 .326 0 .489.082.815.081 1.548.081 2.364.162h.489c.815.082 1.548.082 2.364.163h.57c.734.082 1.549.082 2.364.082h.571c.815.081 1.548.081 2.364.081h.57c.815.082 1.549.082 2.364.082h.571c.815 0 1.549.081 2.364.081h.57c.815 0 1.549.082 2.364.082h.489c.815 0 1.549.081 2.364.081h.571c.815 0 1.549.082 2.364.082h.57c.816 0 1.549.081 2.364.081h.571c.815 0 1.549.082 2.364.082h.57c.816 0 1.549.081 2.364.081h.571c.815 0 1.63.082 2.364.082h.57c.816 0 1.631.081 2.364.081h.571c.815 0 1.63 0 2.364.082h.571c.815 0 1.63.081 2.363.081h.571c.897 0 1.63 0 2.364.082h.571c.978 0 1.711.081 2.363.081h1.305c2.527-1.792 2.853-6.355 2.853-6.355l-71.733-5.133z" fill="#DF2C2C"/><path opacity=".35" d="M199.234 65.395c.407.407.896.57 1.467.652 2.201.651 4.565 1.14 6.847.815 2.283-.245 4.565-1.386 5.788-3.341 0-.082-.082-.082-.082-.082-.163-.163-.489-.163-.733-.163-1.549.082-3.098.082-4.647-.081h-.326c-1.059-.082-2.038-.163-3.097-.326a5.546 5.546 0 00-1.223-.163c-.652.652-2.364 1.711-3.994 2.689z" fill="#DF2C2C"/><path d="M259.718 143.451s-1.875-36.991-4.565-46.85" stroke="#0E151D" stroke-width=".226" stroke-miterlimit="10" stroke-linecap="round" stroke-linejoin="round"/><path d="M292.486 158.606s17.689-7.088 20.624-4.318c2.853 2.77 9.863 15.481 9.048 17.436-.815 1.956-6.766 3.504-9.619 3.26 0 0 .245 4.155-3.831 5.214-4.157 1.059-16.222-8.229-16.222-8.229v-13.363z" fill="#FFBE9D"/><path d="M292.486 157.955s-13.531-9.615-46.789-16.459c0 0 9.782-54.102-14.836-62.576-24.617-8.474-30.975 35.688-25.432 57.932 5.461 22.243 12.879 37.643 20.868 40.902 7.988 3.259 53.066.815 66.189-5.785v-14.014z" fill="#DF2C2C"/><path opacity=".35" d="M206.652 153.718c-2.038-5.867-2.201-12.222-2.772-18.414-.652-8.148-1.793-16.867 2.038-24.118-.326 8.637-.734 17.355.408 25.91 1.63 11.814 6.195 22.977 12.96 32.754-5.869-3.096-10.515-10.021-12.634-16.132z" fill="#DF2C2C"/><g fill="#0E151D"><path d="M250.099 217.027h.57c.816-3.015 1.549-6.193 1.549-6.274l-.489-.163c0 .081-.815 3.34-1.63 6.437zm-2.853-.082h.57c.734-3.015 1.468-6.274 1.468-6.355l-.571-.082c0 .082-.734 3.341-1.467 6.437zm-2.935-.081h.571c.652-3.015 1.386-6.356 1.386-6.437l-.571-.082c0 .082-.652 3.422-1.386 6.519zm-2.853 0h.571c.489-2.282.978-4.726 1.223-5.867.081-.244.081-.407.081-.57h-.57c-.082.163-.082.326-.082.57-.326 1.222-.815 3.585-1.223 5.867zm-2.934-.082h.57c.408-2.2.897-4.644 1.06-5.785.082-.244.082-.407.082-.57h-.571c0 .163-.082.326-.082.57-.163 1.222-.652 3.585-1.059 5.785zm-2.853-.081h.57c.408-2.2.816-4.482.979-5.704 0-.244.081-.407.081-.57h-.571c0 .163-.081.326-.081.57a190.685 190.685 0 00-.978 5.704zm-2.935-.082h.571c.326-2.118.652-4.4.897-5.622.081-.244.081-.407.081-.57h-.571c0 .163-.081.326-.081.57-.163 1.304-.571 3.585-.897 5.622zm-2.853-.081h.571c.326-2.119.57-4.319.815-5.622.082-.163.082-.408.082-.571h-.571c0 .163-.082.326-.082.571-.244 1.385-.57 3.585-.815 5.622zm-2.934-.082h.57c.245-2.037.489-4.237.652-5.54 0-.163.082-.408.082-.571h-.571c0 .163 0 .326-.081.571-.082 1.303-.326 3.503-.652 5.54zm-2.853-.081h.57c.245-2.037.489-4.156.652-5.541 0-.244.082-.407.082-.57h-.571c0 .163-.081.326-.081.57-.163 1.385-.408 3.585-.652 5.541zm-2.853-.082h.57c.163-2.037.326-4.155.489-5.459 0-.163.082-.407.082-.57h-.571c0 .163 0 .326-.081.57-.163 1.385-.326 3.504-.489 5.459zm-2.853-.081h.489c.163-1.956.326-4.074.407-5.459 0-.163.082-.408.082-.571h-.571v.571c-.163 1.385-.326 3.503-.407 5.459zm-2.935-.082h.571c.081-1.955.244-4.074.326-5.459 0-.244.081-.407.081-.57h-.57c0 .163 0 .326-.082.57-.081 1.385-.244 3.504-.326 5.459zm-2.853-.081h.571c.081-1.956.163-4.074.244-5.459v-.571h-.57v.571c-.082 1.385-.163 3.503-.245 5.459zm-2.934-.163h.57c.082-1.956.163-3.993.163-5.378v-.57h-.57v.57c0 1.385-.082 3.422-.163 5.378zm-2.853-.082h.57c0-1.955.082-4.074.082-5.459v-.57h-.571v.57c0 1.385 0 3.504-.081 5.459zm-2.853-6.192v6.029h.57v-5.947c-.244 0-.407 0-.57-.082zm-3.016-.163v.489c0 1.385.081 3.504.081 5.541h.489c-.081-2.037-.081-4.156-.081-5.46v-.488c-.082 0-.245 0-.489-.082zm-2.935-.163v.57c0 1.304.082 3.504.163 5.541.163 0 .326 0 .489.082-.081-2.037-.163-4.156-.163-5.541v-.489c-.163-.163-.326-.163-.489-.163zm-3.016-.326c0 .163 0 .326.082.571 0 1.303.163 3.503.244 5.622.163 0 .326 0 .571.081-.082-2.118-.163-4.318-.245-5.622v-.57c-.244 0-.489-.082-.652-.082zm-2.935-.244v.57c.082 1.222.163 3.504.327 5.704.163 0 .326 0 .57.081-.163-2.118-.244-4.4-.326-5.703v-.571c-.244-.081-.408-.081-.571-.081zm-3.016-.408v.571c.082 1.14.245 3.503.489 5.785.164 0 .327.081.571.081-.163-2.281-.326-4.563-.407-5.785 0-.244-.082-.407-.082-.57-.245-.082-.408-.082-.571-.082zm-3.016-.326c0 .082.245 3.097.571 6.193.163 0 .326.081.489.081a215.884 215.884 0 01-.571-6.355l-.489.081zm106.458-49.783c.082 0 .163 0 .163-.081.082-.082.082-.245 0-.408-12.227-12.711-43.365-16.214-46.626-16.54.163-1.467.897-9.289 1.386-33.325.57-27.214-18.748-28.517-18.912-28.517-.163 0-.244.081-.244.244 0 .163.081.245.244.245.164 0 18.912 1.303 18.423 27.947-.489 26.969-1.386 33.406-1.386 33.487 0 .082 0 .163.082.245.081.081.081.081.163.081.326 0 33.91 3.178 46.544 16.378 0 .244.082.244.163.244zm-44.017 21.347c7.499 0 13.286-1.059 13.449-1.059.163 0 .245-.163.245-.326s-.163-.244-.326-.244c-.326.081-32.035 5.622-42.551-9.615-11.004-15.969-13.205-27.947-13.205-42.124 0-14.829 1.467-22.244 1.467-22.244 0-.163-.081-.326-.244-.326-.163 0-.326.082-.326.245 0 .081-1.468 7.496-1.468 22.406 0 14.259 2.201 26.318 13.369 42.451 6.113 8.881 19.4 10.836 29.59 10.836z"/><path d="M205.755 126.504h.081c.163-.082.163-.245.163-.326 0-.082-3.342-7.333-3.423-11.081 0-.163-.082-.245-.245-.245-.163 0-.244.163-.244.245 0 3.829 3.342 10.999 3.505 11.244-.082.081.081.163.163.163zm37.823-35.932c.244-.082.326-.163.244-.326-.081-.245-1.467-5.785-5.461-8.963-.082-.081-.326-.081-.408.082-.081.081-.081.326.082.407 3.831 3.096 5.298 8.555 5.298 8.637 0 .081.082.163.245.163zm2.771 115.699c7.173 0 13.042-1.222 13.206-1.222.163 0 .244-.163.244-.326s-.163-.244-.326-.244-16.303 3.341-27.633-1.059c.652-2.037 4.727-16.378-4.484-28.355-.081-.081-.244-.163-.407-.081-.082.081-.163.244-.082.407 9.7 12.629 4.402 27.947 4.32 28.029-.081.163 0 .326.164.326 4.646 1.955 10.107 2.525 14.998 2.525zm-62.685 1.141c-.081.163.082.326.163.326.653.163 1.386.407 2.201.57.163.082.326.082.571.082.734.163 1.549.326 2.445.407.163.082.326.082.571.082.815.081 1.549.244 2.445.326.163 0 .327.081.571.081l2.446.245c.163 0 .326 0 .489.081l2.445.245h.571c.815.081 1.63.081 2.445.162.163 0 .326.082.571.082.815.081 1.63.081 2.445.163.163 0 .326 0 .571.081.815.082 1.63.082 2.445.163h.571c.815.082 1.63.082 2.445.082h.571c.815.081 1.63.081 2.445.081h.571c.815.082 1.63.082 2.445.082h.571l2.445.081h.489c.816 0 1.631.082 2.446.082h.57c.816 0 1.631.081 2.446.081h29.671c.163 0 .245-.163.245-.244 0-.163-.163-.245-.245-.245-.163 0-3.26.082-8.233.082h-21.438l-2.446-.082h-.57c-.815 0-1.63-.081-2.446-.081h-.57c-.815 0-1.63-.082-2.446-.082h-.57c-.815 0-1.631-.081-2.446-.081h-.57c-.815 0-1.631-.082-2.446-.082h-.57c-.815-.081-1.631-.081-2.446-.081h-.57c-.816-.082-1.631-.082-2.446-.163-.163 0-.326 0-.57-.081-.816-.082-1.631-.082-2.446-.163-.163 0-.326 0-.57-.082-.816-.081-1.631-.081-2.446-.163-.163 0-.326-.081-.57-.081l-2.446-.245c-.163 0-.326-.081-.571-.081l-2.445-.245c-.163 0-.326-.081-.571-.081-.896-.082-1.711-.245-2.445-.326-.163 0-.326-.082-.571-.082-2.037-.326-3.749-.651-5.054-1.059 0-.081-.163 0-.163.163zm10.434-117.818c.082 0 .163-.081.245-.081.081-.163 9.211-13.77 22.579-17.763 13.287-3.992 26.411 5.622 26.574 5.704.082.081.326.081.408-.082.081-.081.081-.326-.082-.407-.163-.082-13.45-9.94-27.063-5.785-13.531 4.074-22.742 17.844-22.824 18.007-.081.163-.081.326.082.407h.081z"/><path d="M242.192 78.839c.081 0 .163 0 .163-.082.082-.081.082-.244 0-.407-.082-.081-6.032-5.54-11.412-7.252-.163-.081-.326 0-.326.163-.082.163 0 .326.163.326 5.298 1.63 11.167 7.089 11.249 7.17 0 .082.081.082.163.082zm-38.964-16.214c.897.244 1.875.325 2.771.488.49.082.979.163 1.468.163h.326a59.39 59.39 0 005.38.245h.489c.163 0 .244-.163.244-.245 0-.163-.163-.244-.244-.244-3.424.163-6.929 0-10.271-.652 0 0-.082.082-.163.245zm35.377 3.585c.082 0 .163 0 .163-.082.082-.081.082-.244 0-.407-.081-.163-12.39-12.71-27.063-16.377-.163-.082-.326.081-.326.163 0 .163.082.325.163.325 14.51 3.667 26.656 16.052 26.819 16.215.081.163.163.163.244.163zm.978 112.848c.082 0 .082 0 0 0 .163 0 .327-.163.245-.326-.082-.245-4.891-21.185-26.248-19.148-.163 0-.244.163-.244.326s.163.245.326.245c20.786-2.037 25.595 18.495 25.677 18.658.081.082.163.245.244.245zm15.651-82.294c.082 0 .082 0 .163-.081.163-.082.163-.245.082-.408-.082-.081-4.239-6.355-7.663-9.451-.081-.082-.244-.082-.407 0-.082.081-.082.244 0 .407 3.342 3.096 7.499 9.289 7.581 9.37 0 .163.081.163.244.163z"/></g><path d="M228.171 79.735c-1.304-.163-2.69 0-3.994.245-1.304.244-2.608.651-3.831 1.059-1.223.489-2.445.977-3.668 1.63l-1.793.896-1.712 1.059c-4.484 2.933-8.478 6.518-12.146 10.43-.489.488-.897.977-1.304 1.466l-1.304 1.548-1.305 1.548c-.407.489-.896.978-1.304 1.548l-2.445 3.178c-.815 1.059-1.631 2.118-2.364 3.259l-2.283 3.34c-.733 1.141-1.548 2.2-2.201 3.341l-4.157 6.926-.652-.326 4.076-7.007c1.386-2.363 2.934-4.563 4.402-6.845.733-1.14 1.548-2.199 2.364-3.259l2.445-3.259a47.8 47.8 0 012.608-3.096l1.305-1.548c.407-.489.896-1.06 1.385-1.467l2.853-2.933.734-.733.734-.652 1.548-1.304 1.549-1.303 1.631-1.223 1.63-1.222c.57-.407 1.141-.733 1.712-1.059l1.711-1.06 1.794-.896c1.223-.651 2.527-1.059 3.749-1.548 1.305-.407 2.609-.733 3.995-.896 1.385-.163 2.69-.244 4.075 0l.163.163z" fill="#861A1A"/><path d="M213.662 160.073s-18.585 1.793-34.562-9.94" stroke="#861A1A" stroke-width="1.085" stroke-miterlimit="10"/><path d="M170.785 96.764s12.309 5.867 13.287 21.103c.978 15.237-3.261 46.035-6.603 49.865-3.423 3.829-22.253 13.933-30.16 9.696s-1.304-57.28 3.097-67.22c4.402-9.859 9.13-16.051 20.379-13.444z" fill="#861A1A"/><path d="M171.845 100.431s-.326-16.133-5.136-16.54c-4.727-.326-3.831 16.54-3.831 16.54" stroke="#861A1A" stroke-width=".452" stroke-miterlimit="10"/><path d="M173.231 98.312s-9.945 3.341-12.146 20.533c-2.201 17.273-1.304 29.006-2.364 31.369-1.06 2.363-14.673-.978-14.673-.978" stroke="#0E151D" stroke-width=".226" stroke-miterlimit="10"/><path d="M170.785 99.616s4.728 3.911 4.891 15.155c.163 11.244-4.891 57.605-4.891 57.605" stroke="#DF2C2C" stroke-width=".226" stroke-miterlimit="10"/><path d="M150.406 153.636c.734 0 1.305-.57 1.305-1.303v-4.319c0-.733-.571-1.303-1.305-1.303-.733 0-1.304.57-1.304 1.303v4.319c0 .733.571 1.303 1.304 1.303z" fill="#0E151D"/><path d="M182.849 143.451s-13.205 4.4-24.21 6.763c0 0-.081 27.377-1.222 27.621" stroke="#0E151D" stroke-width=".226" stroke-miterlimit="10"/><path d="M308.952 176.124a7.253 7.253 0 100-14.503 7.252 7.252 0 100 14.503z" fill="#1E2150"/></g><defs><linearGradient id="paint0_linear" x1="235.838" y1="65.794" x2="273.814" y2="44.359" gradientUnits="userSpaceOnUse"><stop offset=".007" stop-color="#FFC0B3" stop-opacity="0"/><stop offset=".177" stop-color="#FFB0AA" stop-opacity=".085"/><stop offset=".442" stop-color="#FF9CA0" stop-opacity=".219"/><stop offset=".714" stop-color="#FF919A" stop-opacity=".356"/><stop offset="1" stop-color="#FF8D98" stop-opacity=".5"/></linearGradient><linearGradient id="paint1_linear" x1="270.632" y1="34.248" x2="273.743" y2="66.837" gradientUnits="userSpaceOnUse"><stop offset=".007" stop-color="#FFC0B3" stop-opacity="0"/><stop offset=".177" stop-color="#FFB0AA" stop-opacity=".171"/><stop offset=".442" stop-color="#FF9CA0" stop-opacity=".438"/><stop offset=".714" stop-color="#FF919A" stop-opacity=".712"/><stop offset="1" stop-color="#FF8D98"/></linearGradient><clipPath id="clip0"><path fill="#fff" d="M0 0h518v489H0z"/></clipPath></defs></svg>