<svg width="58" height="58" fill="none" xmlns="http://www.w3.org/2000/svg"><path d="M53.824 31.397c-.354 0-.69.073-1 .198a2.686 2.686 0 00-2.588-1.992c-.354 0-.69.073-1.001.198a2.686 2.686 0 00-2.587-1.992 2.66 2.66 0 00-.897.165V26.59a11.611 11.611 0 008.97-11.34c0-2.63-.885-5.051-2.36-7.004l2.116-2.25-1.307-1.23-1.997 2.124a11.615 11.615 0 00-8.114-3.302c-6.43 0-11.661 5.232-11.661 11.662a11.61 11.61 0 008.97 11.34v16.092a1.255 1.255 0 01-.335-.65l-1.182-6.496a2.851 2.851 0 00-2.806-2.345 2.857 2.857 0 00-2.853 2.853v.573c0 .157.013.314.038.47l1.615 9.683a4.51 4.51 0 00.92 2.064l2.219 2.773c.381.477.59 1.073.59 1.682v3.226h14.353V53.29a2.7 2.7 0 01.59-1.682l2.015-2.52a4.502 4.502 0 00.984-2.801V34.089a2.695 2.695 0 00-2.692-2.692zM33.192 15.25c0-5.44 4.427-9.868 9.867-9.868a9.829 9.829 0 016.886 2.813l-10.493 11.15-2.037-2.038-1.268 1.269 3.345 3.345L51.115 9.57a9.803 9.803 0 011.812 5.68 9.827 9.827 0 01-7.176 9.491v-1.417a2.695 2.695 0 00-2.692-2.692 2.694 2.694 0 00-2.69 2.692v1.417a9.827 9.827 0 01-7.177-9.49zm21.53 31.036a2.7 2.7 0 01-.59 1.682l-2.016 2.52a4.502 4.502 0 00-.983 2.8v1.433H40.368V53.29a4.51 4.51 0 00-.983-2.803l-2.22-2.773a2.695 2.695 0 01-.551-1.239l-1.615-9.68a1.139 1.139 0 01-.013-.177v-.573a1.06 1.06 0 012.1-.188l1.181 6.495a3.046 3.046 0 002.998 2.502h.897v-21.53a.898.898 0 011.794 0v14.354h1.795V30.5a.898.898 0 011.794 0v7.177h1.794v-5.383a.898.898 0 011.794 0v5.383h1.794v-3.588a.898.898 0 011.794 0v12.197zM23.324.897H7.177a6.287 6.287 0 00-6.28 6.28v43.059a6.287 6.287 0 006.28 6.28h16.147a6.287 6.287 0 006.28-6.28V7.176a6.287 6.287 0 00-6.28-6.279zm4.485 49.339a4.49 4.49 0 01-4.485 4.485H7.177a4.49 4.49 0 01-4.486-4.485V7.176a4.49 4.49 0 014.486-4.485h16.147a4.49 4.49 0 014.485 4.485v43.06z" fill="#DF2C2C"/><path d="M15.25 20.422l-2.81 5.612-6.314.905 4.57 4.39-1.075 6.183 5.63-2.918 5.629 2.918-1.076-6.182 4.57-4.391-6.314-.905-2.81-5.612zm2.623 10.275l.618 3.556-3.24-1.68-3.242 1.68.618-3.556-2.606-2.504 3.605-.517 1.624-3.245 1.626 3.246 3.604.517-2.607 2.503z" fill="#DF2C2C"/><path d="M15.25 37.482l-2.53 5.005-5.71.81 4.133 3.935-.97 5.523 5.077-2.606 5.077 2.606-.97-5.523 4.133-3.935-5.71-.81-2.53-5.005zm2.173 9.113l.512 2.915-2.685-1.378-2.685 1.38.513-2.916-2.147-2.042 2.968-.42 1.351-2.674 1.351 2.672 2.969.421-2.147 2.042zm-7.249-27.032l5.076-2.606 5.077 2.606-.97-5.523 4.133-3.934-5.71-.81-2.53-5.005-2.53 5.005-5.71.81 4.133 3.934-.97 5.523zm.758-8.2l2.968-.421 1.35-2.674 1.351 2.673 2.969.42-2.147 2.042.512 2.916-2.685-1.378-2.685 1.379.513-2.916-2.146-2.042z" fill="#DF2C2C"/></svg>