<svg width="56" height="56" fill="none" xmlns="http://www.w3.org/2000/svg"><g clip-path="url(#clip0)" fill="#DF2C2C"><path d="M.932 28.755a.927.927 0 00.928-.928c0-14.32 11.651-25.972 25.972-25.972a25.823 25.823 0 0116.049 5.566h-4.918a.927.927 0 100 1.855h7.342a.89.89 0 00.179 0h.826V.928a.927.927 0 10-1.855 0v5.389A27.658 27.658 0 0027.832 0C12.488 0 .005 12.483.005 27.827c0 .513.415.928.927.928z"/><path d="M27.832 7.42c-11.253 0-20.407 9.155-20.407 20.407 0 11.253 9.154 20.407 20.407 20.407 11.252 0 20.407-9.154 20.407-20.407 0-11.252-9.155-20.406-20.407-20.406zm0 38.959c-10.23 0-18.552-8.322-18.552-18.552 0-10.229 8.323-18.551 18.552-18.551 10.23 0 18.551 8.322 18.551 18.551 0 10.23-8.322 18.552-18.551 18.552z"/><path d="M27.832 13.914a.927.927 0 00.927-.928v-1.855a.927.927 0 10-1.855 0v1.855c0 .513.416.928.928.928zm0 27.826a.927.927 0 00-.928.928v1.855a.927.927 0 101.855 0v-1.855a.927.927 0 00-.927-.927zm14.841-12.985h1.855a.927.927 0 100-1.855h-1.855a.927.927 0 100 1.855zM12.99 26.9h-1.854a.927.927 0 100 1.855h1.855a.927.927 0 100-1.855zm15.77-3.58v-4.769a.927.927 0 10-1.856 0v4.77c-1.595.415-2.782 1.854-2.782 3.578 0 .687.199 1.321.526 1.873l-7.675 7.675a.927.927 0 101.311 1.312l7.675-7.675a3.661 3.661 0 001.873.526 3.714 3.714 0 003.71-3.71c0-1.725-1.187-3.164-2.783-3.58zm-.928 5.435a1.857 1.857 0 01-1.855-1.855c0-1.024.832-1.856 1.855-1.856 1.023 0 1.855.832 1.855 1.855a1.857 1.857 0 01-1.855 1.856zM11.033 48.846a.923.923 0 00.742 1.474c.287 0 .566-.12.751-.371a.94.94 0 00-.195-1.298.924.924 0 00-1.298.195zm-4.322-5.927a.941.941 0 00-1.299-.213.933.933 0 00.548 1.688.935.935 0 00.751-1.475zm.361 2.022a.924.924 0 00-.074 1.307.894.894 0 00.695.316.919.919 0 00.613-.231.925.925 0 00.074-1.308.925.925 0 00-1.308-.084zm3.192 1.994a.932.932 0 00-1.308.057.928.928 0 101.363 1.261.924.924 0 00-.056-1.308v-.01zm-5-6.27h-.01a.916.916 0 00-1.26-.343.925.925 0 00.464 1.725.927.927 0 00.807-1.382zm49.412-10.871h.037c.5 0 .909-.4.927-.89a.924.924 0 00-.89-.966.93.93 0 00-.965.89.93.93 0 00.89.966zM1.173 31.528a.929.929 0 00-.195-1.847.919.919 0 00-.825 1.011.925.925 0 00.918.835l.102.001zm.52 2.727a.916.916 0 00.714-1.094.917.917 0 00-1.094-.716.917.917 0 00-.715 1.096.913.913 0 00.9.733c.064 0 .13 0 .195-.019zm2.356 4.007a.933.933 0 00-1.225-.473.932.932 0 00-.473 1.224.943.943 0 00.854.557c.12 0 .25-.028.37-.084a.933.933 0 00.474-1.224zm-.956-2.504a.917.917 0 00-1.16-.603.927.927 0 00-.603 1.17c.13.39.492.639.881.639.093 0 .195-.01.288-.037a.932.932 0 00.594-1.169zM27.33 53.79a.93.93 0 00-.945.908c-.01.52.399.937.909.947h.018c.51 0 .919-.4.928-.909a.931.931 0 00-.91-.946zm21.029-10.064a.928.928 0 00.158 1.299c.176.13.37.194.575.194.269 0 .547-.12.733-.362a.92.92 0 00-.167-1.298.92.92 0 00-1.299.167zm-5.845 5.51a.924.924 0 00-.232 1.289c.177.26.464.399.761.399a.927.927 0 00.529-.158.924.924 0 00.232-1.29.924.924 0 00-1.29-.24zm2.135-1.634a.927.927 0 00.603 1.634.927.927 0 00.705-1.53.928.928 0 00-1.308-.104zm6.52-6.382a.939.939 0 00-1.28.297.93.93 0 00.788 1.42.928.928 0 00.492-1.716zm-4.563 4.537a.916.916 0 00.028 1.308.9.9 0 00.64.259.9.9 0 00.668-.288.924.924 0 10-1.336-1.279zm7.985-15.046a.936.936 0 00-1.048.79.923.923 0 00.918 1.057.927.927 0 00.13-1.847zm-.435 2.745a.944.944 0 00-1.131.678.944.944 0 00.677 1.131.93.93 0 001.122-.677c.13-.5-.177-1-.668-1.132zm-39.59 16.688a.924.924 0 00-1.27.326.923.923 0 101.586.946.925.925 0 00-.316-1.272zm38.866-13.997a.923.923 0 00-1.187.557.92.92 0 00.862 1.244c.38 0 .742-.232.872-.612a.92.92 0 00-.547-1.189zm-1.001 2.598a.931.931 0 00-1.243.427.935.935 0 00.427 1.242.932.932 0 001.243-.427.927.927 0 00-.427-1.242zM24.65 53.605a.92.92 0 00-1.03.806.914.914 0 00.808 1.03v.01h.11a.923.923 0 00.92-.818.92.92 0 00-.808-1.029zm-5.222-1.197a.92.92 0 00-1.178.575.929.929 0 00.575 1.178c.102.028.204.046.306.046a.925.925 0 00.297-1.8zm2.579.732a.932.932 0 00-1.114.696.935.935 0 00.696 1.114c.074.018.14.018.213.018a.921.921 0 00.9-.714.921.921 0 00-.695-1.113zm-5.065-1.734a.919.919 0 00-1.234.444.93.93 0 00.446 1.234c.13.056.26.083.39.083a.922.922 0 00.843-.537.919.919 0 00-.445-1.224zm15.732 1.939a.935.935 0 00-.742 1.085.934.934 0 00.918.752c.056 0 .111 0 .167-.01a.94.94 0 00.742-1.085.928.928 0 00-1.085-.742zm2.606-.631a.916.916 0 00-.621 1.15.932.932 0 001.16.622.93.93 0 00.62-1.16.933.933 0 00-1.159-.612zm2.533-.909a.932.932 0 00-.501 1.216.925.925 0 00.853.565c.12 0 .241-.018.362-.064a.936.936 0 00.5-1.216.935.935 0 00-1.214-.5zm-7.803 1.901a.93.93 0 00.084 1.855h.074v-.01a.912.912 0 00.844-.992.934.934 0 00-1.001-.853zm10.223-3.061a.913.913 0 00-.371 1.254c.166.315.482.49.816.49a.837.837 0 00.436-.12.912.912 0 00.37-1.252.912.912 0 00-1.252-.372z"/></g><defs><clipPath id="clip0"><path fill="#fff" d="M0 0h55.645v55.645H0z"/></clipPath></defs></svg>