<svg width="604" height="613" fill="none" xmlns="http://www.w3.org/2000/svg"><path d="M198.104 418.124c-1.456 37.767 23.37 54.967 46.441 84.895 29.249 37.942 47.797 97.513 92.581 80.479 29.349-11.164 26.085-41.564 44.845-66.749 40.793-54.764 83.511-69.877 118.701-128.4 33.149-55.129 71.879-92.415 56.268-154.81-21.06-84.172-115.028-75.468-198.06-100.621-46.38-14.05-116.131-93.9-151.274-60.515-14.56 13.831-43.213 52.08-29.323 107.566 13.89 55.486 48.652 61.022 52.26 132.674 2.679 53.209-31.258 74.832-32.439 105.481z" fill="url(#paint0_linear)"/><defs><linearGradient id="paint0_linear" x1="379.632" y1="357.255" x2="148.094" y2="355.628" gradientUnits="userSpaceOnUse"><stop stop-color="#fff" stop-opacity=".09"/><stop offset="1" stop-color="#fff" stop-opacity="0"/></linearGradient></defs></svg>