<svg width="160" height="214" fill="none" xmlns="http://www.w3.org/2000/svg"><path d="M.226 211.279a.5.5 0 00.228.67l4.037 1.986a.5.5 0 10.442-.897l-3.59-1.766 1.766-3.589a.5.5 0 00-.897-.442l-1.986 4.038zm157.45-210.24l.079 1.01.997-.077-.079-1.012-.997.08zm.229 3.019c.048.667.095 1.333.139 1.996l.998-.067c-.045-.665-.091-1.332-.14-2.001l-.997.072zm.268 3.98c.041.66.081 1.317.118 1.973l.998-.058c-.037-.657-.077-1.316-.118-1.977l-.998.063zm.226 3.951c.035.674.069 1.345.1 2.014l.999-.046c-.032-.671-.065-1.344-.1-2.02l-.999.052zm.188 4.015c.027.665.053 1.328.076 1.989l.999-.036a348.67 348.67 0 00-.076-1.994l-.999.042zm.141 3.964c.019.662.037 1.321.053 1.979l1-.024a337.91 337.91 0 00-.054-1.985l-.999.03zm.095 3.994c.012.67.022 1.337.029 2.003l1-.012a272.43 272.43 0 00-.029-2.008l-1 .017zm.046 3.991c.004.66.005 1.32.004 1.976h1c.001-.658 0-1.318-.004-1.981l-1 .005zm-.005 3.961c-.006.673-.013 1.344-.023 2.013l1 .015c.01-.671.017-1.345.023-2.02l-1-.008zm-.06 4.012c-.015.664-.031 1.325-.051 1.985l1 .029c.019-.662.036-1.326.051-1.992l-1-.022zm-.115 3.956c-.025.668-.052 1.334-.081 1.997l.999.044c.03-.666.056-1.334.081-2.005l-.999-.036zm-.177 4.003c-.035.666-.072 1.33-.112 1.99l.999.06c.039-.664.077-1.33.111-1.999l-.998-.051zm-.238 3.967c-.045.658-.092 1.313-.142 1.966l.997.076c.05-.656.097-1.314.142-1.974l-.997-.068zm-.304 3.973c-.057.667-.117 1.33-.179 1.992l.996.094c.062-.665.122-1.331.179-2.001l-.996-.085zm-.374 3.97c-.068.657-.138 1.31-.211 1.962l.993.112c.074-.655.145-1.312.213-1.972l-.995-.102zm-.443 3.945c-.082.666-.166 1.328-.253 1.989l.992.13c.087-.663.172-1.33.253-1.998l-.992-.12zm-.522 3.962c-.093.655-.189 1.308-.288 1.958l.989.15c.099-.654.195-1.31.289-1.968l-.99-.14zm-.596 3.916c-.108.662-.219 1.322-.333 1.979l.986.17c.114-.66.226-1.323.334-1.988l-.987-.16zm-.684 3.942c-.12.651-.244 1.3-.37 1.947l.981.192c.127-.65.251-1.303.372-1.958l-.983-.181zm-.761 3.883c-.136.657-.276 1.311-.419 1.963l.977.214c.143-.655.284-1.313.421-1.973l-.979-.204zm-.858 3.909c-.15.645-.303 1.289-.46 1.93l.971.237c.158-.645.312-1.292.463-1.942l-.974-.225zm-.94 3.844a161.36 161.36 0 01-.512 1.938l.965.261c.176-.647.347-1.297.515-1.95l-.968-.249zm-1.045 3.86c-.181.638-.366 1.273-.554 1.906l.958.286c.19-.637.376-1.276.558-1.919l-.962-.273zm-1.131 3.796a143.59 143.59 0 01-.609 1.906l.951.31c.208-.636.412-1.276.613-1.918l-.955-.298zm-1.24 3.796a157.26 157.26 0 01-.655 1.875l.942.336c.224-.626.443-1.255.659-1.887l-.946-.323zm-1.332 3.734c-.233.625-.47 1.248-.71 1.867l.932.362c.242-.624.48-1.25.715-1.88l-.937-.349zm-1.444 3.719a141.24 141.24 0 01-.758 1.835l.922.388c.258-.613.512-1.23.763-1.848l-.927-.375zm-1.541 3.657c-.267.609-.538 1.216-.813 1.82l.91.415c.277-.609.55-1.22.819-1.834l-.916-.401zm-1.651 3.625c-.284.598-.572 1.195-.863 1.789l.897.441c.294-.599.584-1.199.869-1.803l-.903-.427zm-1.752 3.564c-.302.592-.608 1.18-.918 1.767l.884.467c.313-.591.621-1.184.924-1.779l-.89-.455zm-1.86 3.518a147.46 147.46 0 01-.969 1.736l.87.493c.329-.58.655-1.163.976-1.749l-.877-.48zm-1.963 3.457a134.62 134.62 0 01-1.019 1.706l.854.519c.347-.571.689-1.143 1.028-1.719l-.863-.506zm-2.065 3.397c-.353.561-.71 1.12-1.071 1.677l.838.545c.365-.561.724-1.124 1.08-1.69l-.847-.532zm-2.166 3.335a128.16 128.16 0 01-1.119 1.64l.822.57c.38-.549.756-1.1 1.127-1.653l-.83-.557zm-2.263 3.267c-.386.54-.776 1.078-1.171 1.613l.805.593c.397-.539.791-1.08 1.179-1.624l-.813-.582zm-2.361 3.202c-.399.526-.803 1.05-1.212 1.571l.788.617c.411-.526.818-1.053 1.221-1.583l-.797-.605zm-2.45 3.129c-.417.518-.838 1.033-1.264 1.546l.769.638c.429-.516.853-1.035 1.274-1.556l-.779-.628zm-2.541 3.061a151.45 151.45 0 01-1.299 1.5l.751.66c.441-.501.877-1.005 1.308-1.51l-.76-.65zm-2.624 2.987c-.446.493-.896.985-1.35 1.475l.732.68c.458-.493.911-.988 1.36-1.485l-.742-.67zm-2.707 2.917c-.455.477-.914.952-1.377 1.426l.714.699c.467-.476.929-.955 1.387-1.435l-.724-.69zm-2.78 2.841c-.472.469-.949.937-1.429 1.403l.696.718c.484-.469.963-.94 1.438-1.413l-.705-.708zm-2.858 2.773c-.478.452-.961.903-1.448 1.352l.679.735c.489-.452.975-.906 1.456-1.361l-.687-.726zm-2.92 2.695c-.495.446-.994.89-1.497 1.333l.66.75c.506-.445 1.008-.891 1.506-1.34l-.669-.743zm-2.994 2.633c-.499.428-1.001.855-1.508 1.281l.643.766c.509-.428 1.015-.857 1.517-1.288l-.652-.759zm-3.041 2.552c-.514.422-1.033.843-1.556 1.262l.626.781c.525-.422 1.047-.845 1.565-1.27l-.635-.773zm-3.117 2.5c-.516.405-1.036.808-1.56 1.211l.609.793c.527-.404 1.049-.81 1.568-1.217l-.617-.787zm-3.143 2.413c-.532.399-1.067.797-1.606 1.194l.592.805c.542-.398 1.08-.798 1.614-1.2l-.6-.799zm-3.23 2.375c-.531.383-1.066.764-1.604 1.143l.577.817c.54-.381 1.078-.764 1.61-1.148l-.584-.812zm-3.23 2.279c-.544.377-1.094.753-1.647 1.128l.562.828c.555-.377 1.107-.755 1.655-1.134l-.57-.822zm-3.316 2.249c-.549.365-1.101.728-1.657 1.091l.546.837a228.17 228.17 0 001.665-1.096l-.554-.832zm-3.316 2.163c-.557.356-1.117.711-1.68 1.065l.531.847c.566-.356 1.129-.712 1.688-1.07l-.54-.842zm-3.382 2.124c-.57.351-1.143.702-1.72 1.051l.517.856c.58-.351 1.156-.703 1.728-1.056l-.525-.851zm-3.406 2.063c-.565.336-1.134.671-1.706 1.005l.505.864c.574-.336 1.145-.672 1.712-1.01l-.511-.859zm-3.43 2.005c-.58.333-1.16.664-1.746.995l.492.87c.587-.331 1.17-.664 1.751-.998l-.498-.867zm-3.497 1.975c-.571.318-1.146.634-1.724.95l.48.877c.58-.316 1.156-.634 1.73-.953l-.486-.874zm-3.466 1.894c-.584.314-1.171.627-1.762.94l.468.884c.592-.314 1.181-.628 1.767-.943l-.473-.881zm-3.542 1.874c-.59.308-1.185.614-1.781.92l.456.89a297.64 297.64 0 001.787-.923l-.462-.887zm-3.536 1.813c-.587.297-1.178.593-1.772.888l.446.895c.595-.296 1.188-.593 1.777-.89l-.45-.893zm-3.562 1.772c-.6.294-1.202.587-1.807.879l.434.901a442.47 442.47 0 001.813-.882l-.44-.898zm-3.623 1.749c-.59.281-1.182.561-1.777.84l.424.906a398.1 398.1 0 001.783-.843l-.43-.903zm-3.572 1.676c-.6.279-1.204.556-1.811.833l.415.91c.608-.278 1.214-.556 1.816-.835l-.42-.908zm-3.64 1.662c-.611.275-1.226.55-1.844.825l.406.914c.62-.276 1.236-.551 1.85-.828l-.411-.911zm-3.65 1.621c-.6.264-1.204.526-1.81.789l.397.918a436.33 436.33 0 001.815-.791l-.401-.916zm-3.636 1.574c-.612.261-1.226.522-1.843.782l.389.922c.618-.261 1.233-.522 1.846-.784l-.392-.92zm-3.701 1.561c-.615.256-1.232.512-1.852.767l.38.925c.622-.256 1.24-.512 1.856-.769l-.384-.923zm-3.674 1.512c-.61.248-1.221.495-1.836.742l.373.928c.616-.247 1.229-.495 1.84-.744l-.377-.926zm-3.687 1.481c-.62.246-1.242.492-1.867.737l.366.931 1.87-.738-.37-.93zm-3.748 1.471c-.616.239-1.234.478-1.855.716l.358.933c.622-.238 1.242-.477 1.859-.717l-.362-.932zm-3.697 1.418c-.616.234-1.235.467-1.855.7l.35.937c.623-.234 1.243-.468 1.86-.702l-.355-.935zm-3.725 1.398c-.626.233-1.254.464-1.884.696l.345.939 1.887-.697-.348-.938zm-3.782 1.389c-.62.226-1.243.45-1.867.675l.338.941c.626-.225 1.25-.45 1.87-.676l-.341-.94zm-3.723 1.339l-1.87.663.332.943c.627-.221 1.251-.442 1.873-.664l-.335-.942zm-3.753 1.323c-.63.22-1.262.439-1.896.658l.326.946 1.9-.66-.33-.944zm-3.806 1.315l-.96.328.322.946.962-.328-.324-.946z" fill="#fff"/></svg>