<svg width="470" height="499" fill="none" xmlns="http://www.w3.org/2000/svg"><path d="M227.508 401.438c23.26 29.79 53.324 26.908 90.262 34.882 46.829 10.108 99.441 43.645 122.658 1.732 15.216-27.468-6.896-48.585-8.818-79.929-4.179-68.161 18.701-107.273 7.815-174.688-10.254-63.505-4.73-116.982-56.921-154.57-70.406-50.709-136.572 16.58-216.232 50.95-44.497 19.198-149.31 3.213-154.61 51.395-2.197 19.961.598 67.67 47.015 101.092 46.417 33.423 76.545 15.219 125.541 67.625 36.384 38.917 24.413 77.336 43.29 101.511z" fill="url(#paint0_linear)"/><defs><linearGradient id="paint0_linear" x1="326.897" y1="237.794" x2="148.975" y2="385.971" gradientUnits="userSpaceOnUse"><stop stop-color="#fff" stop-opacity=".09"/><stop offset="1" stop-color="#fff" stop-opacity="0"/></linearGradient></defs></svg>