<svg width="213" height="375" fill="none" xmlns="http://www.w3.org/2000/svg"><path d="M48.016 136.128s9.693-3.885 11.277-2.35c1.632 1.535 5.567 8.73 5.087 9.785-.48 1.055-3.791 1.967-5.375 1.823 0 0 .144 2.302-2.16 2.926-2.303.623-9.693-4.749-9.693-4.749l.864-7.435z" fill="#FFBE9D"/><path d="M29.012 126.775s17.66 6.475 19.435 8.154l-.815 5.804-18.62-.432v-13.526z" fill="#DF2C2C"/><path d="M54.59 153.492s11.71-2.494 12.045-5.228c.336-2.782-2.591-10.265-5.422-11.081-2.832-.815-17.612 6.236-17.612 6.236l2.687 11.944 8.302-1.871z" fill="#1E2150"/><path d="M62.844 189.371l10.893-2.351c1.392-.287 2.304-1.678 2.016-3.117l-5.71-26.622c-.289-1.391-1.68-2.302-3.12-2.014l-10.893 2.35 6.814 31.754z" fill="#861A1A"/><path d="M44.705 147.88l32.68 153.54 9.07-1.919-32.68-152.916-9.07 1.295z" fill="#1E2150"/><path d="M72.314 277.914l9.065-1.896-2.467-11.784-9.065 1.896 2.467 11.784z" fill="#861A1A"/><path d="M74.41 287.51l-13.63 25.518h-7.533l19.339-34.824 1.823 9.306z" fill="#1E2150"/><path d="M-34.188 319.071h91.13a4.709 4.709 0 004.703-4.7v-4.078h-96.41a4.075 4.075 0 00-4.078 4.078c0 2.59 2.111 4.7 4.655 4.7z" fill="#1E2150"/><path d="M71.05 320.558c.096 0 .288-.096.576-.192-.144-.767-.192-1.582-.192-2.398 0-7.77 6.287-14.054 14.06-14.054 4.128 0 7.775 1.775 10.366 4.557 0 0-.192-1.055-.288-1.199-.384-.816-.96-1.535-1.583-2.207-3.983-4.605-10.654-4.796-15.837-2.158-4.942 2.542-8.83 7.578-8.686 13.286 0 .96 0 4.365 1.584 4.365z" fill="#0E151D"/><path d="M85.447 332.022c7.765 0 14.06-6.292 14.06-14.054 0-7.762-6.295-14.054-14.06-14.054-7.766 0-14.061 6.292-14.061 14.054 0 7.762 6.295 14.054 14.06 14.054z" fill="#1E2150"/><path d="M85.447 326.698c4.823 0 8.734-3.909 8.734-8.73 0-4.821-3.91-8.73-8.734-8.73s-8.734 3.909-8.734 8.73c0 4.821 3.91 8.73 8.734 8.73z" stroke="#fff" stroke-width=".226" stroke-miterlimit="10"/><path d="M85.447 321.278a3.31 3.31 0 100-6.621 3.31 3.31 0 000 6.621z" fill="#fff"/><path d="M86.454 299.501l-.527 10.073c-.097 1.775-2.4 2.302-3.312.815l-5.23-8.969 9.07-1.919z" fill="#861A1A"/><path d="M63.9 301.851a1.679 1.679 0 10.002-3.357 1.679 1.679 0 00-.002 3.357z" fill="#DF2C2C"/><path d="M78.2 302.763c-.767-1.967-1.535-4.029-3.119-5.468-1.535-1.439-4.03-2.111-5.806-.96-.768.528-1.344 1.343-2.016 2.015-.672.671-1.68 1.151-2.591.863" stroke="#DF2C2C" stroke-width=".226" stroke-miterlimit="10"/><path d="M2.283 287.797H-12.45m41.27-.383l-13.388.383" stroke="#C2B7D9" stroke-width=".129" stroke-miterlimit="10" stroke-linecap="round" stroke-linejoin="round"/><path d="M25.797 52.859c5.47 1.774 10.03 6.667 10.174 12.567.192 7.722-.096 15.589-2.736 22.88-.336.911-.72 1.823-1.391 2.446-1.392 1.295-3.6 1.103-5.52.672C19.128 89.84 8.858 85.38 5.69 78.137c-1.536-3.55-1.728-7.675-.768-11.416 2.4-9.258 10.797-17.124 20.875-13.862z" fill="#FFBE9D"/><path d="M24.741 87.347a5.757 5.757 0 005.76-5.756 5.757 5.757 0 00-5.76-5.756 5.757 5.757 0 00-5.758 5.756 5.757 5.757 0 005.758 5.756z" fill="url(#paint0_linear)"/><path d="M35.97 71.95s3.168 7.338 3.072 8.777c-.096 1.44-4.319 2.35-4.319 2.35l1.248-11.128z" fill="#FFC0B3"/><path d="M35.97 71.95s3.168 7.338 3.072 8.777c-.096 1.44-4.319 2.35-4.319 2.35l1.248-11.128z" fill="url(#paint1_linear)"/><path d="M31.412 75.02c.503 0 .912-.495.912-1.104 0-.61-.409-1.103-.912-1.103-.504 0-.912.494-.912 1.103 0 .61.408 1.103.912 1.103zm-3.599-3.886c.96-.528 1.727-.816 2.591-.96.432-.047.864-.095 1.344-.095h1.535c.096 0 .192-.096.192-.24 0-.048-.048-.096-.048-.144a3.475 3.475 0 00-1.487-.96c-.576-.191-1.2-.24-1.824-.191-1.248.192-2.4 1.055-2.687 2.302-.048.096.048.24.192.24.048.096.096.096.192.048zm6.527 12.903c-.049.144-.049.288-.097.431-.192.048-.432.048-.624.048-1.68 0-3.215-1.582-3.31-1.678-.097-.096-.097-.192 0-.288.095-.096.191-.048.287 0 0 .048 1.967 2.11 3.743 1.487zm-57.251 19.714l3.887.048c.288-3.454.912-8.01 2.015-10.457 0 0-.192 5.804.096 10.553l34.456 1.199h8.974s2.16-6.811-.624-14.63c-2.831-7.866-8.782-10.6-8.782-10.6L14.04 62.452l4.319-13.239C4.97 50.748 2.09 61.35-1.556 68.783c-3.647 7.435-7.103 6.236-15.309 13.575-8.302 7.29-6.046 21.393-6.046 21.393z" fill="#1E2150"/><path d="M7.13 55.689s5.422-9.21 18.235-6.428c14.637 3.166 14.157 18.036 14.157 18.036l-6.718 1.055s-3.408-8.154-5.807-9.93l1.92 9.93-6.191 1.247-2.543-8.73s2.591 8.202 1.92 10.505c-.625 2.302-7.919 6.523-7.919 6.523s-7.342-6.475-8.782-8.49C4.011 67.393 3.34 63.603 7.13 55.69z" fill="#1E2150"/><path d="M22.966 75.643s-.96-7.77-6.958-5.9c-5.999 1.87-4.223 8.97 0 10.744 4.223 1.775 6.958-4.844 6.958-4.844z" fill="#FFBE9D"/><path d="M20.135 74.156s-1.104-3.598-4.127-2.974c-3.024.623-3.264 8.394 2.927 8.058m-.145-7.29s1.872 3.98-.575 7.242" stroke="#1E2150" stroke-width=".226" stroke-miterlimit="10" stroke-linecap="round" stroke-linejoin="round"/><path d="M23.398 76.506c-.048.288-.24.672-.48.576a.491.491 0 01-.24-.288c-1.248-2.206-1.632-4.989-3.167-7.003a13.55 13.55 0 01-.864-1.391c-1.104-2.159 1.632-2.686 2.687-1.247.432.527.528 1.295.72 1.966.288 1.056.672 2.11.96 3.166.336 1.391.528 2.83.384 4.221z" fill="#1E2150"/><path d="M-16.529 305.929c.528 2.973 1.632 3.549 6.143 5.756 4.559 2.158 6.046 4.029 12.62 5.803 4.8 1.296 8.687-.335 10.462-1.295.672-.383 1.104-1.007 1.2-1.774.672-5.133-3.791-8.203-7.342-10.793-.72-.527-1.44-1.199-2.112-1.871a1.248 1.248 0 01-.24-.287c-.576-.576-1.056-1.151-1.583-1.727-.096-.096-.144-.192-.24-.288-.48-.575-.912-1.103-1.344-1.631-.096-.096-.144-.192-.192-.288-.624-.815-1.2-1.582-1.536-2.11-.384-.576-.72-1.247-1.391-1.343l-7.63-.48a2.474 2.474 0 00-2.4 1.247c-1.535 2.782-4.75 9.066-4.415 11.081z" fill="#0E151D"/><path d="M8.713 305.161s-7.582 1.103-9.405 11.416" stroke="#fff" stroke-width=".226" stroke-miterlimit="10"/><path d="M-4.34 302.955a.149.149 0 00.096.048c.048 0 .096 0 .096-.048 2.4-2.159 5.327-2.974 6.767-3.262-.096-.096-.144-.192-.24-.288-1.536.336-4.367 1.199-6.719 3.31-.048.096-.048.192 0 .24zm-1.775-1.871a.149.149 0 00.096.048s.096 0 .096-.048c2.495-2.254 5.614-3.022 6.958-3.262-.096-.096-.144-.192-.192-.287-1.44.287-4.463 1.103-6.958 3.309-.048.048-.048.144 0 .24zm3.839 3.789a.149.149 0 00.096.048c.048 0 .096 0 .096-.048 2.303-2.062 5.087-2.878 6.526-3.213a1.273 1.273 0 01-.24-.288c-1.535.384-4.27 1.247-6.526 3.262 0 .095 0 .191.048.239z" fill="#fff"/><path d="M27.429 285.255v6.811s-1.296 2.255-5.423 2.255-5.327-.912-5.327-.912l-.24-7.434 10.99-.72z" fill="#FFBE9D"/><path d="M14.136 308.231c.096.767.72 1.391 1.488 1.439 6.238.336 33.16 1.775 34.551 1.295 1.536-.576 2.352-5.564-.576-8.106-1.68-1.439-8.83-5.133-14.54-7.963a38.48 38.48 0 00-.288-.143c-.72-.336-1.392-.672-2.064-1.008a2.333 2.333 0 00-.336-.144c-.863-.431-1.631-.815-2.303-1.103a2.343 2.343 0 00-.336-.144c-1.44-.671-2.303-1.103-2.303-1.103s-4.031 4.749-10.99 2.206c.048-.048-3.071 8.251-2.303 14.774z" fill="#0E151D"/><path d="M42.161 298.494s-4.607 5.036-4.99 12.231m-22.027-12.807s5.71 4.125 6.19 12.376" stroke="#fff" stroke-width=".226" stroke-miterlimit="10"/><path d="M31.46 299.261c-.049.096 0 .192.095.192h.049c.047 0 .143-.048.143-.096.912-2.35 2.4-3.789 3.312-4.461l-.288-.143c-.912.719-2.4 2.158-3.312 4.508zm-1.968-1.199h.048c.048 0 .144-.048.144-.096.816-2.158 2.112-3.501 3.023-4.221a2.333 2.333 0 00-.336-.144c-.96.768-2.207 2.159-3.023 4.269 0 .096.048.192.144.192zm-2.783-1.103h.048c.048 0 .144-.048.144-.096.864-2.302 2.303-3.693 3.215-4.365a2.34 2.34 0 00-.336-.144c-.96.768-2.303 2.159-3.167 4.413-.048.048 0 .144.096.192z" fill="#fff"/><path d="M27.956 242.134c-.863-10.745-4.654-86.052-4.654-86.052h-35.848s-4.607 30.651-2.447 53.195a4685.156 4685.156 0 013.695 40.387s-6.383 21.585-.528 40.436l13.917.096 2.927-40.484 2.735-17.076c2.736 8.49 5.279 12.855 5.279 12.855s-2.543 31.85 3.36 45.088l12.38-.431c.048-.096-.048-39.62-.816-48.014z" fill="#0E151D"/><path d="M5.546 248.465l10.173-72.717 2.496-4.125" stroke="#C2B7D9" stroke-width=".216" stroke-miterlimit="10" stroke-linecap="round" stroke-linejoin="round"/><path d="M9.96 218.198s8.111 20.194 8.255 22.88c.144 2.686 0 38.997 2.16 49.31" stroke="#C2B7D9" stroke-width=".129" stroke-miterlimit="10" stroke-linecap="round" stroke-linejoin="round"/><path d="M-13.122 96.94c.288 1.87 1.296 5.036 3.647 3.645.048-.048.096-.048.144-.096.384-.288.768-.863 1.2-1.679 1.824-3.453 4.511-10.36 13.293-8.921l.864.144c.528.096 1.008.24 1.583.431 6.623 2.015 11.422 5.756 14.493 8.97 2.783 2.878 4.175 5.324 4.367 5.612 0-.048-.048-.192-.048-.336-.432-2.302-3.215-14.63-12.477-21.153-3.12-2.158-6.239-4.269-9.79-5.708-.96-.384-2.015-.623-3.023-.384h-.048c-.096.048-.24.096-.336.144-1.2.432-2.207 1.535-3.167 2.303-.864.767-2.352 1.87-2.016 3.213.432 1.775.432 1.871.432 1.871 0 .048 0 .096-.048.144 0 .048-.048.048-.048.096-.336.384-1.296 1.007-2.303 1.583-1.2.72-2.448 1.39-2.736 1.535-2.783 1.63-4.463 5.42-3.983 8.586z" fill="#DF2C2C"/><path d="M26.517 105.094s2.831 16.261 2.831 31.658c0 15.349 4.463 28.444-2.831 35.591l-41.99-2.255a.684.684 0 01-.624-.431c-1.104-2.591-6.958-17.22-3.887-34.536 3.407-19.091 10.654-34.632 10.654-34.632s.863-10.264 11.373-10.744c10.461-.528 22.41 9.257 24.474 15.349z" fill="#DF2C2C"/><path d="M-15.857 169.321l1.248 4.844c.144.048.384.144.72.192.096 0 .191.048.287.048.384.096.864.144 1.392.192.096 0 .192.048.336.048.432.048.864.096 1.392.144.096 0 .192 0 .336.048.432.048.911.048 1.391.096.096 0 .192 0 .336.048.432.048.912.048 1.392.096.096 0 .192 0 .288.048.48.048.912.048 1.392.096h.287c.48.048.912.048 1.392.096h.336c.432.048.912.048 1.392.048h.336c.48.048.911.048 1.391.048h.336c.48.047.912.047 1.392.047h.336c.48 0 .912.048 1.391.048h.336c.48 0 .912.048 1.392.048h.288c.48 0 .912.048 1.392.048h.336c.48 0 .911.048 1.391.048h.336c.48 0 .912.048 1.392.048h.336c.48 0 .911.048 1.391.048h.336c.48 0 .912.048 1.392.048h.336c.48 0 .96.048 1.392.048h.335c.48 0 .96.048 1.392.048h.336c.48 0 .96 0 1.392.048h.336c.48 0 .96.048 1.391.048h.336c.528 0 .96 0 1.392.048h.336c.576 0 1.008.048 1.392.048h.767c1.488-1.055 1.68-3.741 1.68-3.741l-42.23-3.022z" fill="#DF2C2C"/><path opacity=".35" d="M-6.451 86.77c.24.24.528.337.864.385 1.295.383 2.687.671 4.03.48 1.344-.145 2.688-.816 3.408-1.967 0-.048-.048-.048-.048-.048-.096-.096-.288-.096-.432-.096-.912.048-1.824.048-2.735-.048h-.192c-.624-.048-1.2-.096-1.824-.192a3.27 3.27 0 00-.72-.096c-.384.384-1.391 1.007-2.351 1.583z" fill="#DF2C2C"/><path d="M29.156 132.723s-1.103-21.777-2.687-27.581" stroke="#0E151D" stroke-width=".226" stroke-miterlimit="10" stroke-linecap="round" stroke-linejoin="round"/><path d="M48.448 141.644s10.413-4.173 12.14-2.542c1.68 1.631 5.807 9.114 5.327 10.265-.48 1.151-3.983 2.062-5.662 1.918 0 0 .144 2.447-2.256 3.07-2.447.624-9.55-4.844-9.55-4.844v-7.867z" fill="#FFBE9D"/><path d="M48.448 141.261s-7.966-5.66-27.546-9.69c0 0 5.76-31.85-8.734-36.838-14.492-4.988-18.235 21.01-14.972 34.104 3.215 13.095 7.582 22.161 12.285 24.079 4.703 1.919 31.24.48 38.967-3.405v-8.25z" fill="#DF2C2C"/><path opacity=".35" d="M-2.084 138.766c-1.2-3.453-1.296-7.195-1.632-10.84-.384-4.797-1.055-9.929 1.2-14.198-.192 5.084-.432 10.217.24 15.253.96 6.955 3.647 13.527 7.63 19.283-3.455-1.823-6.19-5.9-7.438-9.498z" fill="#DF2C2C"/><path d="M23.494 176.036h.336c.48-1.775.912-3.645.912-3.693l-.288-.096c0 .048-.48 1.966-.96 3.789zm-1.68-.048h.336c.432-1.775.864-3.693.864-3.741l-.336-.048c0 .048-.432 1.966-.864 3.789zm-1.727-.048h.336c.384-1.775.815-3.741.815-3.789l-.335-.048c0 .048-.384 2.014-.816 3.837zm-1.68 0h.336c.288-1.343.576-2.782.72-3.453a.937.937 0 00.048-.336h-.336c-.048.096-.048.192-.048.336-.192.719-.48 2.11-.72 3.453zm-1.727-.048h.335c.24-1.295.528-2.734.624-3.405.048-.144.048-.24.048-.336h-.336c0 .096-.048.192-.048.336-.096.719-.384 2.11-.624 3.405zm-1.68-.048h.336c.24-1.295.48-2.638.576-3.357 0-.144.048-.24.048-.336h-.336c0 .096-.048.192-.048.336-.144.767-.384 2.11-.576 3.357zm-1.728-.048h.336c.192-1.247.384-2.59.528-3.309a.937.937 0 00.048-.336h-.336c0 .096-.048.192-.048.336-.096.767-.336 2.11-.528 3.309zm-1.679-.048h.336c.192-1.247.336-2.542.48-3.309.048-.096.048-.24.048-.336h-.336c0 .096-.048.192-.048.336-.144.815-.336 2.11-.48 3.309zm-1.728-.048h.336c.144-1.199.288-2.494.384-3.261 0-.096.048-.24.048-.336h-.336c0 .096 0 .192-.048.336a38.503 38.503 0 01-.384 3.261zm-1.679-.048h.335c.144-1.199.288-2.446.384-3.261 0-.144.048-.24.048-.336h-.336c0 .096-.048.192-.048.336-.096.815-.24 2.11-.383 3.261zm-1.68-.048h.336c.096-1.199.192-2.446.288-3.213 0-.096.048-.24.048-.336h-.336c0 .096 0 .192-.048.336-.096.815-.192 2.062-.288 3.213zm-1.68-.048h.288c.096-1.151.192-2.398.24-3.213 0-.096.048-.24.048-.336h-.336v.336a47.21 47.21 0 00-.24 3.213zm-1.727-.048h.336c.048-1.151.143-2.398.191-3.213 0-.144.048-.24.048-.336H3.34c0 .096 0 .192-.048.336-.048.815-.144 2.062-.192 3.213zm-1.679-.048h.335c.048-1.151.096-2.398.144-3.213v-.336h-.336v.336c-.048.815-.096 2.062-.144 3.213zm-1.728-.095h.336c.048-1.152.096-2.351.096-3.166v-.336h-.336v.336c0 .815-.048 2.014-.096 3.166zm48.756-33.961c.048 0 .096 0 .096-.048.048-.047.048-.143 0-.239-7.199-7.483-25.53-9.546-27.45-9.738.096-.863.528-5.468.816-19.618.336-16.02-11.037-16.788-11.133-16.788-.096 0-.144.048-.144.144 0 .096.048.144.144.144.096 0 11.133.767 10.845 16.452-.288 15.877-.816 19.666-.816 19.714 0 .048 0 .096.048.144.048.048.048.048.096.048.192 0 19.963 1.871 27.402 9.642 0 .143.048.143.096.143zm-25.914 12.568c4.415 0 7.822-.624 7.918-.624.096 0 .144-.096.144-.192s-.096-.144-.192-.144c-.192.048-18.86 3.31-25.05-5.66-6.478-9.401-7.774-16.452-7.774-24.798 0-8.73.864-13.095.864-13.095 0-.096-.048-.192-.144-.192-.096 0-.192.048-.192.144 0 .048-.864 4.413-.864 13.191 0 8.394 1.296 15.493 7.87 24.99 3.6 5.228 11.421 6.38 17.42 6.38z" fill="#0E151D"/><path d="M19.655 101.592c.144-.048.192-.095.144-.191-.048-.144-.864-3.406-3.215-5.277-.049-.048-.192-.048-.24.048-.049.048-.049.192.047.24 2.256 1.823 3.12 5.037 3.12 5.085 0 .047.048.095.144.095zm1.631 68.112c4.223 0 7.678-.719 7.774-.719.096 0 .144-.096.144-.192s-.096-.144-.192-.144-9.597 1.967-16.268-.623c.384-1.199 2.784-9.642-2.64-16.693-.047-.048-.143-.096-.239-.048-.048.048-.096.144-.048.24 5.71 7.435 2.591 16.453 2.543 16.501-.048.096 0 .192.096.192 2.736 1.151 5.95 1.486 8.83 1.486zm-36.903.672c-.048.096.048.192.096.192.384.096.816.24 1.296.336.096.048.192.048.336.048.432.096.912.191 1.44.239.095.048.191.048.335.048.48.048.912.144 1.44.192.096 0 .192.048.336.048l1.44.144c.096 0 .192 0 .287.048l1.44.144h.336c.48.048.96.048 1.44.096.096 0 .192.048.336.048.48.048.96.048 1.44.096.095 0 .191 0 .335.048.48.048.96.048 1.44.096h.336c.48.048.96.048 1.44.048h.335c.48.048.96.048 1.44.048h.336c.48.048.96.048 1.44.048h.336l1.44.048h.287c.48 0 .96.048 1.44.048h.336c.48 0 .96.048 1.44.048h17.467c.096 0 .144-.096.144-.144 0-.096-.096-.144-.144-.144-.096 0-1.92.048-4.847.048H8.761l-1.44-.048h-.335c-.48 0-.96-.048-1.44-.048H5.21c-.48 0-.96-.048-1.44-.048h-.335c-.48 0-.96-.048-1.44-.048h-.336c-.48 0-.96-.048-1.44-.048h-.336c-.48-.048-.96-.048-1.44-.048h-.335c-.48-.048-.96-.048-1.44-.096-.096 0-.192 0-.336-.048-.48-.048-.96-.048-1.44-.096-.095 0-.191 0-.335-.048-.48-.048-.96-.048-1.44-.096-.096 0-.192-.048-.336-.048l-1.44-.144c-.095 0-.191-.048-.335-.048l-1.44-.144c-.096 0-.192-.048-.336-.048-.528-.047-1.008-.143-1.44-.191-.096 0-.192-.048-.335-.048-1.2-.192-2.208-.384-2.976-.624 0-.048-.096 0-.096.096zm6.143-69.359c.048 0 .096-.048.144-.048.048-.096 5.422-8.106 13.292-10.457 7.823-2.35 15.549 3.31 15.645 3.358.048.048.192.048.24-.048.048-.048.048-.192-.048-.24-.096-.048-7.918-5.852-15.933-3.405-7.966 2.398-13.388 10.504-13.436 10.6-.048.096-.048.192.048.24h.048z" fill="#0E151D"/><path d="M18.839 94.685c.048 0 .096 0 .096-.048.048-.048.048-.144 0-.24-.048-.047-3.551-3.261-6.719-4.269-.096-.047-.192 0-.192.097-.047.095 0 .191.096.191 3.12.96 6.575 4.173 6.623 4.221 0 .048.048.048.096.048zM-4.1 85.14c.528.144 1.104.192 1.632.288.288.048.576.096.864.096h.192c1.055.096 2.111.144 3.167.144h.288c.096 0 .144-.096.144-.144 0-.096-.096-.144-.144-.144-2.016.096-4.08 0-6.047-.384 0 0-.048.048-.096.144zm20.827 2.11c.048 0 .096 0 .096-.047.048-.048.048-.144 0-.24S9.53 79.48.891 77.322c-.096-.048-.192.047-.192.096 0 .095.048.191.096.191 8.542 2.159 15.692 9.45 15.788 9.546.048.096.096.096.144.096zm.576 66.434c.048 0 .048 0 0 0 .096 0 .192-.096.144-.192-.048-.144-2.879-12.471-15.452-11.272-.096 0-.144.096-.144.192s.096.144.192.144c12.237-1.2 15.068 10.888 15.116 10.984.048.048.096.144.144.144zm9.214-48.446c.048 0 .048 0 .096-.048.096-.048.096-.144.048-.24-.048-.048-2.495-3.741-4.511-5.564-.048-.048-.144-.048-.24 0-.048.048-.048.144 0 .24 1.968 1.823 4.415 5.468 4.463 5.516 0 .096.048.096.144.096z" fill="#0E151D"/><path d="M10.585 95.213c-.768-.096-1.584 0-2.352.144-.767.144-1.535.384-2.255.623-.72.288-1.44.576-2.16.96l-1.055.527-1.008.624c-2.64 1.727-4.99 3.837-7.15 6.14-.288.287-.528.575-.768.863l-.768.911-.768.912c-.24.287-.528.575-.768.911l-1.44 1.871c-.48.623-.959 1.247-1.39 1.918l-1.345 1.967c-.431.672-.911 1.295-1.295 1.967l-2.448 4.077-.384-.192 2.4-4.125c.816-1.391 1.727-2.686 2.591-4.029.432-.672.912-1.295 1.392-1.919l1.44-1.919a27.998 27.998 0 011.535-1.822l.768-.912c.24-.288.528-.623.816-.863l1.68-1.727.431-.432.432-.383.912-.768.912-.767.96-.72.96-.72c.335-.24.671-.431 1.007-.623l1.008-.623 1.056-.528c.72-.384 1.487-.624 2.207-.911.768-.24 1.536-.432 2.351-.528.816-.096 1.584-.144 2.4 0l.096.096z" fill="#861A1A"/><path d="M2.043 142.508s-10.942 1.055-20.347-5.852" stroke="#861A1A" stroke-width="1.085" stroke-miterlimit="10"/><path d="M58.141 151.957a4.27 4.27 0 100-8.538 4.27 4.27 0 100 8.538z" fill="#1E2150"/><defs><linearGradient id="paint0_linear" x1="15.099" y1="87.006" x2="37.455" y2="74.387" gradientUnits="userSpaceOnUse"><stop offset=".007" stop-color="#FFC0B3" stop-opacity="0"/><stop offset=".177" stop-color="#FFB0AA" stop-opacity=".085"/><stop offset=".442" stop-color="#FF9CA0" stop-opacity=".219"/><stop offset=".714" stop-color="#FF919A" stop-opacity=".356"/><stop offset="1" stop-color="#FF8D98" stop-opacity=".5"/></linearGradient><linearGradient id="paint1_linear" x1="35.582" y1="68.435" x2="37.413" y2="87.62" gradientUnits="userSpaceOnUse"><stop offset=".007" stop-color="#FFC0B3" stop-opacity="0"/><stop offset=".177" stop-color="#FFB0AA" stop-opacity=".171"/><stop offset=".442" stop-color="#FF9CA0" stop-opacity=".438"/><stop offset=".714" stop-color="#FF919A" stop-opacity=".712"/><stop offset="1" stop-color="#FF8D98"/></linearGradient></defs></svg>