<svg width="135" height="231" fill="none" xmlns="http://www.w3.org/2000/svg"><path d="M134.633 229.482a.5.5 0 00.349-.615l-1.199-4.338a.499.499 0 10-.963.267l1.065 3.855-3.856 1.066a.499.499 0 10.267.963l4.337-1.198zM.5.991a464.6 464.6 0 00-.018 1.014l1 .017.018-1.013-1-.018zM.453 4.027C.445 4.7.438 5.371.433 6.04l1 .008c.005-.668.012-1.338.02-2.009l-1-.012zm-.03 4.016C.42 8.709.42 9.373.42 10.037l1-.002c-.001-.661 0-1.324.001-1.989l-1-.003zm.006 4.01c.004.674.01 1.347.017 2.02l1-.012a447.41 447.41 0 01-.017-2.015l-1 .006zm.045 4.03c.01.668.023 1.335.037 2l1-.02a396.75 396.75 0 01-.037-1.996l-1 .016zm.084 3.992c.018.676.038 1.351.06 2.024l.999-.031a333.17 333.17 0 01-.059-2.02l-1 .027zm.128 4.04c.025.67.052 1.34.08 2.006l1-.042c-.029-.666-.055-1.332-.08-2l-1 .036zm.17 4.002c.033.67.067 1.337.103 2.003l.998-.054c-.035-.664-.07-1.33-.101-1.997l-1 .048zm.217 4.022c.04.671.082 1.341.126 2.009l.998-.066a337.78 337.78 0 01-.126-2.003l-.998.06zm.263 4.008c.048.665.097 1.328.149 1.99l.997-.078c-.052-.66-.1-1.32-.148-1.983l-.998.071zm.312 4.004c.056.671.115 1.341.175 2.01l.996-.09c-.06-.667-.118-1.335-.175-2.004l-.996.084zm.363 4.009c.064.665.131 1.328.2 1.99l.994-.104c-.068-.66-.134-1.32-.199-1.983l-.995.097zm.414 3.986c.074.671.15 1.34.229 2.008l.993-.117a292.61 292.61 0 01-.228-2l-.994.11zm.47 4.005c.083.664.168 1.326.255 1.987l.992-.13a282.57 282.57 0 01-.254-1.98l-.993.123zm.524 3.968c.093.67.188 1.337.286 2.003l.989-.145c-.097-.664-.192-1.329-.285-1.995l-.99.137zm.585 3.995c.103.662.207 1.322.314 1.981l.987-.16c-.106-.656-.21-1.314-.312-1.974l-.989.153zm.641 3.952c.113.665.229 1.328.346 1.99l.985-.175c-.117-.66-.232-1.32-.345-1.982l-.986.167zm.708 3.973c.123.66.248 1.317.376 1.973l.981-.191c-.127-.653-.252-1.308-.374-1.965l-.983.183zm.766 3.936c.134.659.27 1.317.41 1.972l.978-.207c-.138-.653-.274-1.308-.408-1.964l-.98.199zm.836 3.944c.145.655.292 1.308.442 1.96l.975-.224c-.15-.649-.296-1.3-.44-1.952l-.977.215zm.9 3.91c.155.654.314 1.306.475 1.955l.971-.24c-.16-.648-.319-1.296-.474-1.947l-.973.233zm.97 3.91c.168.65.338 1.299.511 1.945l.966-.258c-.172-.644-.342-1.29-.508-1.936l-.969.25zm1.038 3.88c.18.647.362 1.291.546 1.935l.962-.276a214.79 214.79 0 01-.544-1.927l-.964.268zm1.112 3.87c.192.643.386 1.285.583 1.925l.956-.294c-.196-.637-.39-1.276-.58-1.916l-.959.285zm1.183 3.84c.203.64.41 1.277.619 1.913l.95-.313c-.209-.633-.414-1.267-.617-1.904l-.952.304zm1.258 3.824c.216.635.435 1.269.657 1.901l.944-.331c-.221-.629-.44-1.26-.654-1.892l-.947.322zm1.331 3.792c.229.631.46 1.26.694 1.888l.937-.35c-.233-.625-.463-1.25-.69-1.878l-.94.34zm1.409 3.771c.24.626.485 1.251.732 1.873l.93-.368c-.246-.62-.49-1.241-.729-1.864l-.933.359zm1.483 3.737c.253.621.51 1.24.77 1.858l.922-.388c-.259-.614-.514-1.231-.767-1.848l-.925.378zm1.56 3.709c.267.616.536 1.23.81 1.842l.913-.407c-.272-.609-.54-1.22-.805-1.832l-.918.397zm1.637 3.674c.279.61.561 1.218.847 1.825l.905-.426c-.284-.604-.565-1.209-.843-1.815l-.91.416zm1.713 3.64c.292.604.587 1.206.886 1.807l.895-.445c-.297-.597-.59-1.196-.88-1.797l-.9.435zm1.79 3.604c.304.597.612 1.193.923 1.787l.886-.464a188.8 188.8 0 01-.918-1.777l-.891.454zm1.865 3.563c.317.591.637 1.18.96 1.768l.877-.482c-.322-.585-.64-1.171-.956-1.759l-.881.473zm1.941 3.527c.33.583.662 1.164.997 1.745l.866-.501c-.334-.577-.665-1.156-.992-1.736l-.87.492zm2.013 3.479c.341.577.686 1.152 1.035 1.726l.855-.519c-.347-.571-.69-1.143-1.03-1.717l-.86.51zm2.09 3.443c.352.568.709 1.135 1.069 1.701l.843-.537c-.357-.563-.712-1.127-1.063-1.692l-.85.528zm2.155 3.39c.366.562.735 1.122 1.107 1.681l.832-.554c-.37-.556-.737-1.114-1.1-1.673l-.839.546zm2.233 3.354c.376.553.755 1.104 1.138 1.654l.82-.571a202.31 202.31 0 01-1.131-1.645l-.827.562zm2.293 3.296c.388.546.78 1.091 1.175 1.635l.809-.588c-.393-.541-.783-1.083-1.169-1.626l-.815.579zm2.37 3.261c.397.537.798 1.072 1.203 1.606l.797-.604c-.402-.531-.802-1.064-1.198-1.597l-.803.595zm2.422 3.199c.41.53.823 1.059 1.24 1.586l.784-.619c-.414-.525-.825-1.051-1.232-1.578l-.792.611zm2.498 3.165c.419.521.841 1.04 1.266 1.558l.773-.635c-.423-.515-.843-1.032-1.26-1.55l-.78.627zm2.546 3.101c.43.513.862 1.025 1.299 1.537l.76-.65a183.4 183.4 0 01-1.292-1.529l-.767.642zm2.617 3.066c.439.505.88 1.008 1.326 1.511l.748-.663c-.443-.5-.883-1.002-1.32-1.504l-.754.656zm2.66 3.003c.449.497.9.992 1.355 1.486l.736-.676c-.453-.492-.902-.986-1.348-1.48l-.742.67zm2.727 2.967c.459.489.92.977 1.384 1.465l.724-.69a202.14 202.14 0 01-1.378-1.459l-.73.684zm2.77 2.906c.464.48.932.958 1.403 1.436l.712-.702c-.469-.476-.935-.952-1.398-1.43l-.718.696zm2.825 2.866c.477.475.957.95 1.44 1.424l.7-.715c-.48-.471-.959-.944-1.434-1.417l-.706.708zm2.87 2.814c.48.463.963.924 1.449 1.385l.688-.725a234.64 234.64 0 01-1.442-1.38l-.695.72zm2.916 2.766c.491.459.986.917 1.484 1.375l.677-.736c-.496-.456-.99-.913-1.48-1.37l-.681.731zm2.965 2.725c.493.446.99.891 1.488 1.336l.666-.747c-.498-.443-.992-.886-1.483-1.33l-.67.741zm2.994 2.667c.505.443 1.013.885 1.523 1.327l.654-.757c-.509-.44-1.015-.88-1.517-1.322l-.66.752zm3.057 2.642c.505.43 1.012.859 1.522 1.287l.643-.766a295.93 295.93 0 01-1.517-1.282l-.648.761zm3.062 2.57c.516.427 1.035.853 1.557 1.278l.632-.775c-.52-.424-1.037-.848-1.552-1.274l-.637.771zm3.13 2.553c.52.417 1.042.834 1.567 1.251l.621-.784a306.51 306.51 0 01-1.56-1.246l-.627.779zm3.135 2.486c.526.411 1.054.822 1.585 1.232l.611-.792a287.21 287.21 0 01-1.58-1.228l-.616.788zm3.187 2.46c.537.409 1.076.817 1.619 1.225l.6-.8c-.54-.406-1.078-.813-1.613-1.22l-.606.795zm3.214 2.416c.533.396 1.07.791 1.608 1.186l.592-.806a330.2 330.2 0 01-1.604-1.183l-.596.803zm3.233 2.369c.545.394 1.092.788 1.641 1.18l.582-.813a313.72 313.72 0 01-1.636-1.177l-.587.81zm3.292 2.353c.54.381 1.083.762 1.629 1.142l.572-.82c-.544-.379-1.085-.759-1.624-1.139l-.577.817zm3.272 2.282c.551.379 1.104.758 1.659 1.136l.563-.826c-.554-.378-1.105-.756-1.654-1.134l-.568.824zm3.334 2.27c.558.375 1.118.75 1.681 1.125l.554-.833c-.562-.373-1.12-.747-1.677-1.122l-.558.83zm3.339 2.222c.556.366 1.113.731 1.674 1.095l.545-.838a484.38 484.38 0 01-1.669-1.092l-.55.835zm3.362 2.188c.565.363 1.133.727 1.703 1.09l.537-.844c-.569-.362-1.135-.724-1.699-1.087l-.541.841zm3.415 2.174c.559.352 1.12.703 1.684 1.054l.529-.848c-.563-.351-1.122-.701-1.68-1.052l-.533.846zm3.382 2.107c.568.351 1.139.701 1.712 1.051l.521-.854c-.572-.349-1.141-.698-1.708-1.048l-.525.851zm3.439 2.099c.578.349 1.158.698 1.741 1.046l.513-.858c-.582-.348-1.161-.696-1.737-1.044l-.517.856zm3.451 2.064c.571.338 1.143.675 1.719 1.012l.505-.862c-.573-.337-1.145-.673-1.714-1.011l-.51.861zm3.45 2.023c.58.337 1.162.673 1.746 1.009l.499-.867c-.583-.335-1.164-.671-1.742-1.007l-.503.865zm3.505 2.016l.885.503.494-.87-.884-.502-.495.869z" fill="#fff"/></svg>