<svg width="516" height="644" fill="none" xmlns="http://www.w3.org/2000/svg"><path d="M54 298.502C95.23 143.591 14 121.5 124 30.001c48.376-40.24 212.038 21.91 262.5 59.5 74.5 55.499 24 67 74.5 119 69.948 72.026-2.953 113.337 28.5 236.001 20 77.999 50.5 137.499-10.5 187.999-48.865 40.454-117.679-38.142-212-52.501-100.631-15.32-215.924 48.787-253-29.999-36-76.499 6.834-126.886 40-251.499z" fill="#E5E5E5"/><path d="M81.728 479c3.05.53 5.702 2.387 7.426 4.906 1.724 2.52 2.652 5.569 3.05 8.487.796 5.834-.928 12.464-3.182 17.901-5.835-2.918-8.885-9.945-10.21-13.526-1.99-5.701-2.255-17.37 2.916-17.768zm15.249 39.25c-1.59-3.05-1.193-6.895.663-9.68 1.857-2.785 5.039-4.641 8.487-5.304 1.591-.265 3.315-.265 4.508.796 1.061.928 1.459 2.652 1.061 4.11-.265 1.459-1.193 2.652-2.254 3.713-3.315 3.58-7.426 6.497-12.465 6.365z" fill="#698842"/><path d="M95.386 537.211s-.132-.398-.132-1.193c0-.796-.133-1.989-.266-3.315-.132-2.785-.53-6.763.663-10.873 1.061-4.244 3.183-7.559 5.172-9.548 1.061-.928 1.989-1.723 2.652-2.121.265-.265.663-.398.795-.398.133-.133.266-.133.266-.133 0 .133-1.592.796-3.448 2.785-1.989 1.989-3.978 5.304-5.039 9.415-1.06 4.11-.795 7.956-.795 10.74 0 1.459.132 2.52.132 3.315.133.928.133 1.326 0 1.326z" fill="#0E151D"/><path d="M82.657 487.884s.132.133.132.531c.133.397.265.795.53 1.458.398 1.194.929 3.05 1.592 5.304 1.326 4.509 3.05 10.741 4.906 17.769 1.724 6.895 3.315 13.26 4.243 17.901.53 2.254.928 4.11 1.194 5.436.132.663.265 1.061.265 1.459 0 .398.132.53.132.53s-.132-.132-.132-.53a21.708 21.708 0 01-.398-1.459c-.265-1.326-.796-3.182-1.326-5.436-1.06-4.509-2.652-10.874-4.376-17.769-1.724-6.895-3.447-13.26-4.773-17.768-.663-2.254-1.061-3.978-1.459-5.304a10.773 10.773 0 00-.398-1.459c0-.53-.132-.663-.132-.663z" fill="#0E151D"/><path d="M89.684 523.819c-2.917-6.63-9.149-11.537-16.177-12.995-1.856-.398-3.978-.265-5.039 1.193-1.06 1.591-.132 3.58.929 5.039 4.508 6.232 12.994 9.149 20.287 7.16" fill="#698842"/><path d="M75.629 516.128s.398 0 1.193.133c.398.132.796.132 1.326.265.53.132 1.061.265 1.724.53l1.989.796a12.56 12.56 0 012.254 1.193c1.459.928 3.05 1.989 4.509 3.448 1.458 1.458 2.652 2.917 3.58 4.508a30.28 30.28 0 001.193 2.122c.398.663.663 1.326.796 1.989.265.663.398 1.193.53 1.724.133.53.265.928.265 1.326.133.663.133 1.06.133 1.193-.133 0-.398-1.591-1.326-3.978-.265-.663-.53-1.326-.928-1.989-.265-.663-.796-1.459-1.194-2.122-.928-1.458-2.121-2.917-3.447-4.375-1.459-1.326-2.917-2.52-4.376-3.448-.796-.398-1.459-.796-2.122-1.193a6.257 6.257 0 00-1.989-.796c-2.519-.928-4.11-1.326-4.11-1.326z" fill="#0E151D"/><path d="M29 89c.364-4.372 3.643-8.623 8.743-11.173 5.101-2.55 11.78-3.28 17.73-1.943.122-5.466 4.737-10.81 11.537-13.36 6.922-2.429 15.666-2.064 21.98 1.215 2.43-5.708 8.258-10.81 15.909-13.238 7.651-2.429 17.244-1.943 23.923 1.7 6.801 3.522 10.08 10.202 7.53 15.91 5.829-1.336 12.022-2.793 17.851-1.579 4.857.972 8.986 3.765 10.687 7.166 1.821 3.4 1.335 7.286-.972 10.566L29 89zm129-62.164c.245-2.933 2.445-5.785 5.869-7.496 3.424-1.711 7.907-2.2 11.901-1.304.082-3.667 3.179-7.252 7.744-8.963 4.646-1.63 10.515-1.385 14.754.815 1.631-3.83 5.543-7.251 10.679-8.881 5.135-1.63 11.575-1.304 16.058 1.14 4.565 2.364 6.766 6.845 5.054 10.674 3.913-.896 8.07-1.874 11.983-1.059 3.26.652 6.032 2.526 7.173 4.807 1.223 2.282.897 4.89-.652 7.09L158 26.835zm218 134c.245-2.933 2.445-5.785 5.869-7.496 3.424-1.711 7.907-2.2 11.901-1.304.082-3.667 3.179-7.252 7.744-8.963 4.646-1.629 10.515-1.385 14.754.815 1.631-3.829 5.543-7.251 10.679-8.881 5.135-1.63 11.575-1.304 16.058 1.141 4.565 2.363 6.766 6.844 5.054 10.673 3.913-.896 8.07-1.874 11.983-1.059 3.26.652 6.032 2.526 7.173 4.807 1.223 2.282.897 4.889-.652 7.089L376 160.836zm-210-21c.245-2.933 2.445-5.785 5.869-7.496 3.424-1.711 7.907-2.2 11.901-1.304.082-3.667 3.179-7.252 7.744-8.963 4.646-1.629 10.515-1.385 14.754.815 1.631-3.829 5.543-7.251 10.679-8.881 5.135-1.63 11.575-1.304 16.058 1.141 4.565 2.363 6.766 6.844 5.054 10.673 3.913-.896 8.07-1.874 11.983-1.059 3.26.652 6.032 2.526 7.173 4.807 1.223 2.282.897 4.889-.652 7.089L166 139.836z" fill="#9CCECB"/><path d="M415.056 391.629c-18.189-4.809-34.183-16.726-42.965-32.406-8.885-15.577-10.558-34.707-4.495-51.433 4.704-13.067 13.799-24.566 17.667-37.947 4.391-15.158 1.777-31.152-.941-46.624-2.718-15.472-5.54-31.466-1.359-46.624 4.182-15.158 17.145-29.375 33.871-30.525 15.471-1.045 29.793 9.722 36.274 22.894 6.481 13.172 6.481 28.33 5.018 42.756-1.464 14.426-4.495 28.852-3.554 43.383 1.881 29.375 19.444 56.973 17.353 86.348-1.045 15.263-7.422 25.089-18.19 36.588-9.408 10.14-24.984 16.726-38.679 13.59z" fill="#405328"/><path d="M420.492 537.145c-.209 0-.313-65.022-.313-145.202 0-80.181.104-145.203.313-145.203.209 0 .314 65.022.314 145.203 0 80.18-.105 145.202-.314 145.202zm-.836-196.217c-.105 0-1.045-.836-2.718-2.404-1.568-1.463-3.763-3.659-6.063-6.063s-4.391-4.6-5.959-6.168c-1.568-1.568-2.404-2.613-2.404-2.613.104 0 1.045.836 2.718 2.404 1.568 1.464 3.763 3.659 6.063 6.063 2.3 2.405 4.391 4.6 5.959 6.168 1.568 1.568 2.509 2.613 2.404 2.613z" fill="#0E151D"/><path d="M470 527h-97v11h97v-11zm-48.567-246.913c-.104-.104 2.614-.313 5.959-2.509 1.672-1.045 3.345-2.718 4.809-4.808 1.359-2.091 2.404-4.704 2.613-7.632v-.209l.314.314c-2.927.418-5.436 2.091-7.109 3.972-1.777 1.778-3.032 3.764-3.972 5.332-.941 1.672-1.673 3.031-2.091 3.972-.418.941-.732 1.464-.732 1.464s.105-.523.523-1.568c.418-.941 1.045-2.405 1.882-4.077.94-1.673 2.09-3.659 3.972-5.541 1.777-1.881 4.286-3.659 7.422-4.181l.418-.105v.627c-.209 2.928-1.254 5.645-2.718 7.841-1.463 2.195-3.24 3.763-5.018 4.809-1.672 1.045-3.345 1.568-4.39 1.881-.523.105-1.045.209-1.255.209-.522.209-.627.209-.627.209z" fill="#0E151D"/><path d="M421.433 280.088c-.104-.105 1.673-2.405 4.077-5.018 2.405-2.718 4.391-4.809 4.495-4.704.105.104-1.672 2.404-4.077 5.017-2.404 2.718-4.39 4.809-4.495 4.705z" fill="#0E151D"/><path d="M177.056 323.629c-18.189-4.809-34.183-16.726-42.965-32.406-8.885-15.577-10.558-34.707-4.495-51.433 4.704-13.067 13.799-24.566 17.667-37.947 4.391-15.158 1.777-31.152-.941-46.624-2.718-15.472-5.54-31.466-1.359-46.624 4.182-15.158 17.145-29.375 33.871-30.525 15.471-1.045 29.793 9.722 36.274 22.894 6.481 13.172 6.481 28.33 5.018 42.756-1.464 14.426-4.495 28.852-3.554 43.383 1.881 29.375 19.444 56.973 17.353 86.348-1.045 15.263-7.422 25.089-18.19 36.588-9.408 10.14-24.984 16.726-38.679 13.59z" fill="#698842"/><path d="M182.5 532c-.333 0-.5-79.037-.5-176.5s.167-176.5.5-176.5c.333 0 .5 79.037.5 176.5s-.167 176.5-.5 176.5zm-.844-259.072c-.104 0-1.045-.836-2.718-2.404-1.568-1.463-3.763-3.659-6.063-6.063s-4.391-4.6-5.959-6.168c-1.568-1.568-2.404-2.613-2.404-2.613.104 0 1.045.836 2.718 2.404 1.568 1.464 3.763 3.659 6.063 6.063 2.3 2.405 4.391 4.6 5.959 6.168 1.568 1.568 2.509 2.613 2.404 2.613z" fill="#0E151D"/><path d="M232 530h-97v8h97v-8zm-48.567-317.913c-.104-.104 2.614-.313 5.959-2.509 1.672-1.045 3.345-2.718 4.809-4.808 1.359-2.091 2.404-4.704 2.613-7.632v-.209l.314.314c-2.927.418-5.436 2.091-7.109 3.972-1.777 1.778-3.032 3.764-3.972 5.332-.941 1.672-1.673 3.031-2.091 3.972a14.807 14.807 0 01-.732 1.464s.105-.523.523-1.568c.418-.941 1.045-2.405 1.882-4.077.94-1.673 2.09-3.659 3.972-5.541 1.777-1.881 4.286-3.659 7.422-4.181l.418-.105v.627c-.209 2.928-1.254 5.645-2.718 7.841-1.463 2.195-3.24 3.763-5.018 4.809-1.672 1.045-3.345 1.568-4.39 1.881-.523.105-1.045.209-1.255.209-.522.209-.627.209-.627.209z" fill="#0E151D"/><path d="M183.433 212.088c-.104-.105 1.673-2.405 4.077-5.018 2.405-2.718 4.391-4.809 4.495-4.704.105.104-1.672 2.404-4.077 5.017-2.404 2.718-4.39 4.809-4.495 4.705z" fill="#0E151D"/><path stroke="#1E2150" d="M96 537.5h335"/><path d="M287.933 179.002s-12.628 28.038-27.75 35.204c0 0-33.675 8.723-62.204-.935 0 0-6.704-3.427-4.677-8.1 0 0 17.617-6.075 52.85-11.371 0 0 11.536-10.904 19.331-26.481l22.45 11.683z" fill="#FCA88D"/><path opacity=".5" d="M287.933 179.002s-12.628 28.038-27.75 35.204c0 0-33.675 8.723-62.204-.935 0 0-6.704-3.427-4.677-8.1 0 0 17.617-6.075 52.85-11.371 0 0 11.536-10.904 19.331-26.481l22.45 11.683z" fill="#FCA88D"/><path d="M293.545 132.116s-19.176 9.657-32.271 31.932c0 0 1.715 5.92 17.461 13.241 0 0 16.057-30.531 14.81-45.173z" fill="#861A1A"/><path d="M200.785 208.287c-4.053.311-8.574 0-12.628.934-2.494.623-4.833 1.402-6.703 3.271-3.586 3.583-4.521 8.723-2.027 13.241.779 1.558 2.027 2.959 3.897 3.582.624.156 1.403-.311 1.403-.311s1.715 1.713 3.43 1.713 1.871-1.557 1.871-1.557 2.806 0 3.274-.468c1.247-1.09.312-3.271.156-4.517-.468-1.869-.624-4.517.312-6.231 1.559-2.492 6.703-5.14 5.768-8.567" fill="#FCA88D"/><path opacity=".5" d="M189.093 228.225c.156 0 .467-.156.623-.312.312-.311.312-.778 0-1.246-.779-.779-1.403-1.713-1.871-2.959-.311-.468-.311-1.091-.467-1.714 0-.311-.156-.779-.312-1.09-.156-.467-.624-.779-1.091-.623-.468.156-.78.623-.624 1.09.156.312.156.623.156.935.156.779.312 1.402.624 2.181a11.09 11.09 0 002.338 3.426c.156.156.468.312.624.312zm-5.301-.935c.156 0 .312 0 .468-.155.312-.312.468-.779.156-1.247-1.247-1.557-1.871-3.115-2.027-5.451 0-.468-.468-.779-.935-.779-.468 0-.78.467-.78.934.156 2.804.936 4.673 2.495 6.543.155 0 .467.155.623.155z" fill="#FCA88D"/><path d="M339.675 513.801c-.291-13.59 10.5-24.842 24.101-25.132 13.601-.291 24.862 10.491 25.153 24.081.29 13.59-10.5 24.842-24.102 25.132-13.601.29-24.862-10.492-25.152-24.081z" fill="#0E151D"/><path opacity=".5" d="M363.855 526.056c-6.802 0-12.316-5.51-12.316-12.306 0-6.796 5.514-12.306 12.316-12.306 6.802 0 12.316 5.51 12.316 12.306 0 6.796-5.514 12.306-12.316 12.306z" fill="#0E151D"/><path d="M386.928 490.696s.78-4.828-8.418-7.477c0 0-20.891-6.698-35.233 6.699 0 0-11.849 10.903-7.639 26.169 0 0 1.559 5.452 5.144 4.361 0 0 7.016.156 5.301-7.165 0 0-2.65-9.814 6.236-16.512 0 0 9.821-7.788 23.696-2.648-.155.156 10.913 4.206 10.913-3.427z" fill="#861A1A"/><path d="M153.167 537.904c-13.601-.29-24.391-11.542-24.101-25.132.291-13.59 11.552-24.371 25.153-24.081 13.601.29 24.392 11.542 24.101 25.132-.29 13.59-11.551 24.371-25.153 24.081z" fill="#0E151D"/><path opacity=".5" d="M154.015 525.9c-6.801 0-12.316-5.509-12.316-12.306 0-6.796 5.515-12.305 12.316-12.305 6.802 0 12.316 5.509 12.316 12.305 0 6.797-5.514 12.306-12.316 12.306z" fill="#0E151D"/><path d="M130.942 490.54s-.779-4.828 8.419-7.476c0 0 20.89-6.543 35.233 6.698 0 0 11.848 10.903 7.639 26.169 0 0-1.559 5.452-5.145 4.361 0 0-7.015.156-5.3-7.165 0 0 2.65-9.813-6.236-16.512 0 0-9.822-7.788-23.697-2.648.156.156-10.757 4.206-10.913-3.427z" fill="#861A1A"/><path d="M199.538 211.402c-3.742-.623-7.327 2.025-7.795 5.764l-44.431 292.846c-.624 3.738 2.026 7.321 5.768 7.788 3.742.623 7.327-2.025 7.795-5.763l44.431-292.847c.624-3.738-2.027-7.165-5.768-7.788z" fill="#DF2C2C"/><path d="M165.396 441.317c2.65 0 3.43.156 4.989 2.648l37.571 62.931h151.378c3.898 0 7.172 3.271 7.172 7.166a7.15 7.15 0 01-7.172 7.165H201.253c-.312 0-2.183-.156-3.898-1.09-1.715-.935-2.338-2.181-2.806-2.96l-30.244-50.625c-2.339-4.05-3.586-10.904-2.65-16.823.467-2.025 1.714-7.321 3.741-8.412z" fill="#DF2C2C"/><path d="M257.221 505.338l.623-5.607-52.382-.312.468 5.14s16.993 5.297 30.712 2.96c0 0 4.365-1.09 7.951-.623-.156.156 5.768 1.713 12.628-1.558z" fill="#861A1A"/><path d="M257.688 501.756s2.65-15.577-3.585-28.35l-15.434-.156s2.182 13.085-16.993 15.265c0 0-16.993-.934-15.902 11.839 0 0 11.848 5.452 31.024 3.738 0 0 6.548-.623 8.418-.155 0-.156 5.769.467 12.472-2.181z" fill="#1E2150"/><path d="M241.163 470.446c.312.312.623.467.935.779.624.934 1.247 1.869 1.559 2.959.936 2.96-.312 6.699-1.715 9.347-2.806 5.607-8.574 10.592-15.122 9.969-2.65-.312-6.548-.935-8.418-2.96-.624-.779-1.559-1.869-1.248-2.959.156-.935 1.404-1.247 2.183-1.402 1.871-.623 3.742-1.247 5.456-2.025 3.742-1.402 6.236-3.895 8.419-7.166 1.247-1.713 3.742-6.23 6.236-6.542.624-.156 1.403-.312 1.715 0z" fill="#861A1A"/><path d="M239.136 491.475h.156c.468-.156.78-.623.624-1.091-1.092-3.894-3.274-6.698-6.392-9.813-1.091-1.091-2.027-1.558-3.118-2.181l-.156-.156c-.468-.311-.935-.155-1.091.312-.312.467-.156.934.312 1.09l.155.156c1.092.623 1.871 1.09 2.651 2.025 2.962 2.96 4.988 5.452 5.924 9.035.156.467.468.623.935.623zm-6.08 3.895c.468 0 .78-.312.78-.779v-.779l-.156-.468a32.717 32.717 0 00-2.339-4.673c-1.247-2.025-2.494-3.894-3.897-5.607-.624-.779-1.247-1.558-2.183-2.025-.467-.156-.935 0-1.091.311-.156.468 0 .935.312 1.091.623.311 1.091.934 1.403 1.557 1.403 1.87 2.65 3.583 3.897 5.608.78 1.402 1.559 2.96 2.183 4.517l.156.312v.311c.156.156.468.624.935.624zm-6.548 1.09c.468 0 .78-.468.78-.935v-.312c0-.311 0-.623-.156-.934l-.312-.935c-.623-2.025-1.247-4.05-2.182-6.075-.624-1.402-1.559-2.492-2.339-3.738-.312-.468-.623-.779-.935-1.246-.312-.312-.78-.468-1.092-.156-.311.311-.467.779-.155 1.09.311.467.623.779.935 1.246.779 1.091 1.559 2.181 2.183 3.427.935 1.869 1.559 3.895 2.182 5.92l.312.934v.779c0 .623.312.935.779.935zm30.089-17.291s8.262-37.073 7.171-74.302c0 0-.623-16.2 4.677-30.219 0 0 31.024-62.931 32.895-109.194l-31.648-5.452s-27.75 32.711-41.157 87.231c0 0-7.639 25.079-2.027 52.805 0 0 7.328 65.891 6.86 78.664 0 .156 7.015 4.206 23.229.467z" fill="#0E151D"/><path opacity=".5" d="M256.597 479.169s8.262-37.073 7.171-74.302c0 0-.623-16.2 4.677-30.219 0 0 31.024-62.931 32.895-109.194l-31.648-5.452s-27.75 32.711-41.157 87.231c0 0-7.639 25.079-2.027 52.805 0 0 7.328 65.891 6.86 78.664 0 .156 7.015 4.206 23.229.467z" fill="#0E151D"/><path d="M316.306 508.765l.624-5.607-52.382-.312.468 5.141s16.992 5.296 30.712 2.959c0 0 4.365-1.09 7.95-.623-.155 0 5.769 1.558 12.628-1.558z" fill="#861A1A"/><path d="M316.774 505.027s2.65-15.577-3.586-28.35l-15.434-.156s2.183 13.085-16.993 15.266c0 0-16.993-.935-15.901 11.838 0 0 11.848 5.452 31.023 3.739 0 0 6.548-.623 8.419-.156 0 0 5.768.467 12.472-2.181z" fill="#1E2150"/><path d="M300.249 473.873c.311.312.623.467.935.779.624.935 1.247 1.869 1.559 2.96.935 2.959-.312 6.698-1.715 9.346-2.806 5.607-8.574 10.592-15.122 9.969-2.65-.312-6.548-.935-8.419-2.96-.623-.779-1.559-1.869-1.247-2.959.156-.935 1.403-1.246 2.183-1.402 1.871-.623 3.741-1.246 5.456-2.025 3.742-1.402 6.236-3.894 8.419-7.166 1.247-1.713 3.741-6.23 6.236-6.542.623-.311 1.403-.467 1.715 0z" fill="#861A1A"/><path d="M298.222 494.902h.156c.468-.156.779-.623.623-1.09-1.091-3.895-3.273-6.698-6.391-9.814-1.092-1.09-2.027-1.558-3.118-2.181l-.156-.155c-.468-.312-.936-.156-1.092.311-.311.467-.156.935.312 1.091l.156.155c1.091.623 1.871 1.091 2.65 2.025 2.962 2.96 4.989 5.452 5.925 9.035.155.311.467.623.935.623zm-5.924 3.738c.467 0 .779-.311.779-.778v-.779l-.156-.468a32.709 32.709 0 00-2.338-4.673c-1.247-2.025-2.494-3.894-3.898-5.607-.623-.779-1.247-1.558-2.182-2.025-.468-.156-.936 0-1.091.311-.156.467 0 .935.311 1.091.624.311 1.092.934 1.403 1.557 1.404 1.869 2.651 3.583 3.898 5.608.779 1.402 1.559 2.96 2.182 4.517l.156.312v.311c0 .312.468.623.936.623zm-6.704 1.247c.468 0 .78-.467.78-.935v-.311c0-.312 0-.623-.156-.935l-.312-.935c-.624-2.025-1.247-4.05-2.183-6.075-.623-1.401-1.559-2.492-2.338-3.738-.312-.467-.624-.779-.936-1.246-.311-.312-.779-.467-1.091-.156-.312.312-.468.779-.156 1.09.312.468.624.779.936 1.247.779 1.09 1.559 2.18 2.182 3.427.936 1.869 1.559 3.894 2.183 5.919l.312.934v.779c0 .623.311.935.779.935zm45.367-241.754s6.703 30.531-7.484 77.884c0 0-8.886 26.325-3.897 50.937 0 0 7.951 45.485-3.43 92.839l-20.111 1.713s-10.601-74.146-16.681-93.462c0 0-7.951-30.219.156-66.513 0 0 6.548-44.239 5.612-59.66l45.835-3.738z" fill="#0E151D"/><path d="M323.789 119.187s-10.445-14.643-14.498-25.08c0 0 3.118-28.194-10.134-37.072 0 0-31.179-28.973-30.244 22.586 0 0-2.65 7.789-8.575 10.593 0 0 5.613 4.517 7.484 4.673 0 0-1.248 16.2 16.369 17.913 0 0 4.989 2.96 7.795 13.864.156 0 22.138-1.091 31.803-7.477z" fill="#FCA88D"/><path d="M300.404 94.42s9.978 12.305 14.967 4.984c0 0 2.962-3.894-2.183-7.477 0 0 17.928 3.271 19.487-2.337 0 0 1.248-3.582-2.962-5.451 0 0 11.069-.468 10.757-7.166 0 0-.155-5.919-6.859-7.01 0 0 15.434-3.27 12.939-12.617 0 0-1.714-9.813-24.008-7.632 0 0 2.339-4.362-1.715-8.724 0 0-4.209-4.673-12.784-2.96 0 0-3.741-6.541-17.46-2.647 0 0-7.795 2.96-14.187 7.01 0 0-7.483 4.517-6.236 11.215 0 0 1.871 11.994 12.316 10.904 0 0 1.403 7.632 9.198 7.165 0 0-1.871 11.371 5.612 9.19 0 0 6.08-1.09 6.392 5.14.156-.155.312 4.986-3.274 8.412z" fill="#1E2150"/><path opacity=".5" d="M294.726 91.76c-1.208-.662-1.381-2.666-.386-4.476.994-1.81 2.779-2.74 3.987-2.078 1.207.663 1.38 2.667.386 4.477-.994 1.81-2.779 2.74-3.987 2.078z" fill="#FCA88D"/><path d="M283.567 71.833c0-1.558-3.118-1.714-5.456-1.714-2.339 0-4.365.156-4.365 1.558 0 1.557 1.871 1.557 4.365 1.557 2.338.156 5.3.935 5.456-1.401z" fill="#1E2150"/><path d="M278.111 81.958c-2.583 0-4.677-1.186-4.677-2.648 0-1.463 2.094-2.648 4.677-2.648 2.583 0 4.677 1.185 4.677 2.648 0 1.462-2.094 2.648-4.677 2.648z" fill="#fff"/><path d="M273.902 82.737a2.805 2.805 0 110-5.608 2.805 2.805 0 110 5.608z" fill="#0E151D"/><path opacity=".5" d="M284.035 88.812c-1.98 0-3.586-.907-3.586-2.025 0-1.119 1.606-2.025 3.586-2.025 1.98 0 3.586.906 3.586 2.025 0 1.118-1.606 2.025-3.586 2.025zm10.601 8.878c2.65 0 4.521-1.557 4.677-1.713.312-.312.468-.779.156-1.09-.312-.312-.779-.468-1.247-.156-.156.156-3.274 2.492-6.236.467-.312-.311-.935-.156-1.091.312-.312.311-.156.934.311 1.09a5.946 5.946 0 003.43 1.09z" fill="#FCA88D"/><path d="M274.369 98.314c3.274 0 5.769-1.714 5.769-1.714.311-.311.467-.779.156-1.09-.312-.312-.78-.468-1.092-.156 0 0-2.494 1.87-5.924 1.402-.468 0-.935.311-.935.779 0 .467.312.934.779.934.468-.311.936-.155 1.247-.155zm68.596 166.049s-9.51-24.3-5.457-70.407c0 0 12.784-57.946-14.966-73.368 0 0-35.389-21.184-51.758 53.741 0 0-9.666 53.896-6.548 89.1.156 0 39.754 11.371 78.729.934z" fill="#DF2C2C"/><path d="M310.694 173.394s-14.499 30.687-30.868 38.008c0 0-36.325 8.411-66.257-3.271 0 0-7.016-4.05-4.833-9.191 0 0 19.02-6.075 56.747-10.592 0 0 12.628-11.683 21.514-28.661l23.697 13.707z" fill="#FCA88D"/><path d="M319.424 179.781s27.438-53.273-.624-65.735c0 0-26.346-10.125-38.974 44.706 0 .156 12.783 16.979 39.598 21.029zm-108.038 34.892a5.298 5.298 0 01-5.3-5.296 5.298 5.298 0 015.3-5.296 5.298 5.298 0 015.301 5.296 5.298 5.298 0 01-5.301 5.296z" fill="#861A1A"/><path d="M216.063 196.916c-4.521.311-9.198 0-13.563.934-2.65.623-5.301 1.402-7.171 3.427-3.898 3.894-4.833 9.346-2.183 14.175.935 1.714 2.183 3.271 4.209 3.894.78.156 1.403-.311 1.403-.311s1.715 1.869 3.586 1.869c1.871 0 2.027-1.714 2.027-1.714s3.118.001 3.585-.623c1.248-1.246.468-3.582.156-4.984-.467-2.025-.779-4.829.468-6.698 1.715-2.648 7.327-5.452 6.236-9.346" fill="#FCA88D"/><path opacity=".5" d="M203.435 218.412c.156 0 .468-.156.624-.312.312-.312.312-.779 0-1.246-.78-.779-1.559-1.869-2.183-3.116-.311-.623-.467-1.246-.623-2.025-.156-.311-.156-.778-.312-1.09-.156-.467-.624-.779-1.091-.623-.468.156-.78.623-.624 1.09.156.312.156.623.312 1.091.156.779.312 1.557.623 2.336.78 1.558 1.559 2.648 2.495 3.583.312.156.468.312.779.312zm-5.612-1.091c.156 0 .312 0 .468-.156.312-.311.467-.778.156-1.246-1.403-1.713-2.027-3.427-2.183-5.919 0-.467-.468-.779-.935-.779-.468 0-.78.468-.78.935.156 2.959.936 4.984 2.65 7.009 0 0 .312.156.624.156z" fill="#FCA88D"/></svg>