<svg xmlns="http://www.w3.org/2000/svg" width="516" height="644"><path fill="#e5e5e5" d="M54.001 298.502c41.23-154.911-40-177.002 70-268.501 48.376-40.24 212.038 21.91 262.5 59.5 74.5 55.499 24 67 74.5 119 69.948 72.026-2.952 113.337 28.5 236.001 20 77.999 50.5 137.499-10.5 187.999-48.865 40.454-117.679-38.142-212-52.501-100.631-15.32-215.924 48.787-253-29.999-36-76.499 6.835-126.886 40-251.499z"/><path fill="#df2c2c" d="M81.729 479c3.05.53 5.702 2.387 7.426 4.906 1.723 2.52 2.652 5.57 3.05 8.487.795 5.834-.929 12.464-3.183 17.9-5.834-2.917-8.884-9.944-10.21-13.524-1.99-5.702-2.254-17.371 2.917-17.769zm15.253 39.251c-1.591-3.05-1.194-6.895.663-9.68 1.856-2.784 5.039-4.64 8.486-5.304 1.591-.265 3.315-.265 4.509.796 1.06.928 1.458 2.652 1.06 4.11-.265 1.46-1.193 2.653-2.254 3.713-3.315 3.58-7.425 6.498-12.464 6.365z"/><path fill="#0e151d" d="M95.389 537.21s-.133-.397-.133-1.193c0-.795-.132-1.989-.265-3.315-.133-2.784-.53-6.762.663-10.873 1.06-4.243 3.182-7.558 5.171-9.547 1.061-.928 1.99-1.724 2.652-2.122.266-.265.663-.397.796-.397.133-.133.265-.133.265-.133 0 .133-1.591.796-3.447 2.785-1.99 1.989-3.978 5.304-5.04 9.414-1.06 4.11-.795 7.956-.795 10.74 0 1.46.133 2.52.133 3.316.132.928.132 1.326 0 1.326z"/><path fill="#0e151d" d="M82.66 487.88s.133.133.133.53c.132.398.265.796.53 1.459.398 1.193.928 3.05 1.591 5.304 1.326 4.508 3.05 10.74 4.906 17.768 1.724 6.896 3.315 13.26 4.244 17.901.53 2.255.928 4.11 1.193 5.437.133.663.265 1.06.265 1.459 0 .397.133.53.133.53s-.133-.133-.133-.53c-.132-.398-.265-.929-.398-1.46-.265-1.325-.795-3.181-1.326-5.436-1.06-4.508-2.652-10.873-4.375-17.768-1.724-6.895-3.448-13.26-4.774-17.768-.663-2.255-1.06-3.978-1.459-5.304a10.757 10.757 0 00-.397-1.459c0-.53-.133-.663-.133-.663z"/><path fill="#df2c2c" d="M89.684 523.818c-2.917-6.63-9.149-11.536-16.177-12.995-1.856-.397-3.978-.265-5.039 1.194-1.06 1.591-.132 3.58.929 5.039 4.508 6.232 12.994 9.149 20.287 7.16"/><path fill="#0e151d" d="M75.63 516.13s.398 0 1.193.133c.398.132.796.132 1.326.265.53.132 1.061.265 1.724.53l1.99.796c.662.265 1.458.663 2.253 1.193 1.459.928 3.05 1.99 4.509 3.448 1.458 1.458 2.652 2.917 3.58 4.508.398.796.796 1.459 1.193 2.122.398.663.663 1.326.796 1.989.265.663.398 1.193.53 1.724.133.53.266.928.266 1.326a5.83 5.83 0 01.132 1.193c-.132 0-.398-1.591-1.326-3.978-.265-.663-.53-1.326-.928-1.989-.265-.663-.796-1.459-1.193-2.122-.929-1.458-2.122-2.917-3.448-4.375-1.459-1.326-2.917-2.52-4.376-3.448-.795-.398-1.458-.796-2.121-1.193a6.253 6.253 0 00-1.99-.796c-2.519-.928-4.11-1.326-4.11-1.326z"/><path fill="#fff" d="M29 89c.364-4.372 3.643-8.623 8.744-11.173 5.1-2.55 11.78-3.28 17.73-1.943.121-5.466 4.736-10.81 11.536-13.36 6.922-2.429 15.666-2.064 21.98 1.215 2.43-5.708 8.258-10.81 15.909-13.238 7.65-2.429 17.244-1.943 23.923 1.7 6.801 3.522 10.08 10.202 7.53 15.91 5.829-1.336 12.022-2.793 17.851-1.579 4.857.972 8.986 3.765 10.687 7.166 1.821 3.4 1.335 7.286-.972 10.566zm129-62.164c.245-2.933 2.445-5.785 5.869-7.496 3.424-1.711 7.907-2.2 11.901-1.304.082-3.667 3.18-7.252 7.744-8.963 4.646-1.63 10.515-1.385 14.754.815 1.63-3.83 5.543-7.251 10.679-8.881 5.135-1.63 11.575-1.304 16.058 1.14 4.565 2.364 6.766 6.845 5.054 10.674 3.913-.896 8.07-1.874 11.983-1.059 3.26.652 6.032 2.526 7.173 4.807 1.223 2.282.897 4.89-.652 7.09zm218 134c.245-2.934 2.445-5.785 5.869-7.496 3.424-1.711 7.907-2.2 11.901-1.304.082-3.667 3.18-7.252 7.744-8.963 4.646-1.63 10.515-1.385 14.754.815 1.63-3.83 5.543-7.251 10.679-8.881 5.135-1.63 11.575-1.304 16.058 1.14 4.565 2.364 6.766 6.845 5.054 10.674 3.913-.896 8.07-1.874 11.983-1.059 3.26.652 6.032 2.526 7.173 4.807 1.223 2.282.897 4.89-.652 7.09zm-210-21c.245-2.934 2.445-5.785 5.869-7.496 3.424-1.711 7.907-2.2 11.901-1.304.082-3.667 3.18-7.252 7.744-8.963 4.646-1.63 10.515-1.385 14.754.815 1.63-3.83 5.543-7.251 10.679-8.881 5.135-1.63 11.575-1.304 16.058 1.14 4.565 2.364 6.766 6.845 5.054 10.674 3.913-.896 8.07-1.874 11.983-1.059 3.26.652 6.032 2.526 7.173 4.807 1.223 2.282.897 4.89-.652 7.09z"/><path fill="#f5f5f5" d="M415.056 391.629c-18.19-4.809-34.183-16.726-42.965-32.406-8.885-15.577-10.558-34.707-4.495-51.433 4.704-13.067 13.8-24.566 17.667-37.947 4.39-15.158 1.777-31.152-.94-46.624-2.719-15.471-5.541-31.466-1.36-46.624 4.182-15.158 17.144-29.375 33.87-30.525 15.472-1.045 29.794 9.722 36.275 22.894 6.481 13.172 6.481 28.33 5.018 42.756-1.464 14.426-4.495 28.852-3.554 43.383 1.881 29.375 19.444 56.973 17.353 86.348-1.045 15.263-7.422 25.089-18.19 36.588-9.408 10.14-24.984 16.726-38.679 13.59z"/><path fill="#e0e0e0" d="M420.494 537.146c-.21 0-.314-65.023-.314-145.203s.105-145.203.314-145.203c.209 0 .313 65.022.313 145.203 0 80.18-.104 145.203-.313 145.203zm-.84-196.217c-.104 0-1.045-.837-2.718-2.405-1.568-1.463-3.763-3.658-6.063-6.063-2.3-2.404-4.39-4.6-5.959-6.168-1.568-1.568-2.404-2.613-2.404-2.613.105 0 1.045.836 2.718 2.404 1.568 1.464 3.763 3.66 6.063 6.064s4.39 4.6 5.959 6.167c1.568 1.568 2.509 2.614 2.404 2.614z"/><path fill="#e0e0e0" d="M469.836 525.02H372.72v11.813h97.116z"/><g fill="#e0e0e0"><path d="M421.43 280.086c-.105-.104 2.613-.314 5.958-2.509 1.672-1.045 3.345-2.718 4.808-4.809 1.36-2.09 2.405-4.704 2.614-7.63v-.21l.313.314c-2.927.418-5.435 2.09-7.108 3.972-1.777 1.777-3.032 3.764-3.972 5.332-.941 1.672-1.673 3.031-2.091 3.972-.418.94-.732 1.464-.732 1.464s.105-.523.523-1.568c.418-.941 1.045-2.405 1.881-4.077.941-1.673 2.091-3.66 3.973-5.54 1.777-1.883 4.286-3.66 7.422-4.182l.418-.105v.627c-.209 2.927-1.254 5.645-2.718 7.84-1.463 2.196-3.24 3.764-5.018 4.81-1.672 1.045-3.345 1.567-4.39 1.881-.523.105-1.046.21-1.255.21-.522.208-.627.208-.627.208z"/><path d="M421.434 280.086c-.104-.105 1.673-2.405 4.077-5.018 2.405-2.718 4.39-4.809 4.495-4.704.105.104-1.672 2.404-4.077 5.018-2.404 2.718-4.39 4.808-4.495 4.704z"/></g><path fill="#f5f5f5" d="M177.056 323.629c-18.19-4.809-34.183-16.726-42.965-32.406-8.885-15.577-10.558-34.707-4.495-51.433 4.704-13.067 13.8-24.566 17.667-37.947 4.39-15.158 1.777-31.152-.94-46.624-2.719-15.471-5.541-31.466-1.36-46.624 4.182-15.158 17.144-29.375 33.87-30.525 15.472-1.045 29.794 9.722 36.275 22.894 6.481 13.172 6.481 28.33 5.018 42.756-1.464 14.426-4.495 28.852-3.554 43.383 1.881 29.375 19.444 56.973 17.353 86.348-1.045 15.263-7.422 25.089-18.19 36.588-9.408 10.14-24.984 16.726-38.679 13.59z"/><path fill="#e0e0e0" d="M182.494 469.146c-.21 0-.314-65.023-.314-145.203s.105-145.203.314-145.203c.209 0 .313 65.022.313 145.203 0 80.18-.104 145.203-.313 145.203zm-.84-196.217c-.104 0-1.045-.837-2.718-2.405-1.568-1.463-3.763-3.658-6.063-6.063-2.3-2.404-4.39-4.6-5.959-6.168-1.568-1.568-2.404-2.613-2.404-2.613.105 0 1.045.836 2.718 2.404 1.568 1.464 3.763 3.66 6.063 6.064s4.39 4.6 5.959 6.167c1.568 1.568 2.509 2.614 2.404 2.614z"/><path fill="#e0e0e0" d="M231.836 457.02H134.72v11.813h97.116z"/><g fill="#e0e0e0"><path d="M183.43 212.086c-.105-.104 2.613-.314 5.958-2.509 1.672-1.045 3.345-2.718 4.808-4.809 1.36-2.09 2.405-4.704 2.614-7.63v-.21l.313.314c-2.926.418-5.435 2.09-7.108 3.972-1.777 1.777-3.032 3.764-3.972 5.332-.941 1.672-1.673 3.031-2.091 3.972-.418.94-.732 1.464-.732 1.464s.105-.523.523-1.568c.418-.941 1.045-2.405 1.881-4.077.941-1.673 2.091-3.66 3.973-5.54 1.777-1.883 4.286-3.66 7.422-4.182l.418-.105v.627c-.209 2.927-1.254 5.645-2.718 7.84-1.463 2.196-3.24 3.764-5.018 4.81-1.672 1.045-3.345 1.567-4.39 1.881-.523.105-1.046.21-1.255.21-.522.208-.627.208-.627.208z"/><path d="M183.434 212.086c-.104-.105 1.673-2.405 4.077-5.018 2.405-2.718 4.39-4.809 4.495-4.704.105.104-1.672 2.404-4.077 5.018-2.404 2.718-4.39 4.808-4.495 4.704z"/></g><path fill="#fca88d" d="M287.933 179.002s-12.628 28.038-27.75 35.204c0 0-33.675 8.723-62.204-.935 0 0-6.704-3.427-4.677-8.1 0 0 17.617-6.075 52.85-11.37 0 0 11.536-10.905 19.331-26.482z"/><path fill="#fca88d" d="M287.933 179.002s-12.628 28.038-27.75 35.204c0 0-33.675 8.723-62.204-.935 0 0-6.704-3.427-4.677-8.1 0 0 17.617-6.075 52.85-11.37 0 0 11.536-10.905 19.331-26.482z" opacity=".5"/><path fill="#861a1a" d="M293.545 132.116s-19.176 9.657-32.271 31.932c0 0 1.715 5.92 17.46 13.24 0 0 16.058-30.53 14.811-45.172z"/><path fill="#fca88d" d="M200.785 208.287c-4.053.311-8.574 0-12.628.934-2.494.623-4.833 1.402-6.703 3.271-3.586 3.583-4.521 8.724-2.027 13.24.78 1.559 2.027 2.96 3.897 3.584.624.155 1.404-.312 1.404-.312s1.714 1.713 3.43 1.713c1.714 0 1.87-1.557 1.87-1.557s2.806 0 3.274-.468c1.247-1.09.312-3.27.156-4.517-.468-1.87-.624-4.517.312-6.23 1.559-2.493 6.703-5.141 5.768-8.568"/><g opacity=".5"><path fill="#fca88d" d="M189.093 228.225c.156 0 .467-.156.623-.312.312-.311.312-.778 0-1.246-.78-.779-1.403-1.713-1.87-2.96-.312-.467-.312-1.09-.468-1.713 0-.311-.156-.779-.312-1.09-.156-.467-.624-.779-1.091-.623-.468.156-.78.623-.624 1.09.156.312.156.623.156.935.156.779.312 1.402.624 2.18a11.096 11.096 0 002.338 3.427c.156.156.468.312.624.312z" opacity=".25"/></g><g opacity=".5"><path fill="#fca88d" d="M183.792 227.29c.156 0 .312 0 .468-.155.312-.312.468-.78.156-1.247-1.247-1.557-1.871-3.115-2.027-5.451 0-.468-.468-.78-.935-.78-.468 0-.78.468-.78.935.156 2.804.936 4.673 2.495 6.543.155 0 .467.155.623.155z" opacity=".25"/></g><path fill="#1e2150" d="M339.675 513.8c-.29-13.59 10.5-24.841 24.1-25.131 13.602-.29 24.863 10.49 25.154 24.08.29 13.59-10.5 24.843-24.101 25.133-13.602.29-24.863-10.492-25.153-24.081z"/><path fill="#1e2150" d="M363.855 526.056c-6.802 0-12.316-5.51-12.316-12.306 0-6.796 5.514-12.306 12.316-12.306 6.802 0 12.316 5.51 12.316 12.306 0 6.796-5.514 12.306-12.316 12.306z" opacity=".5"/><path fill="#861a1a" d="M386.928 490.696s.78-4.829-8.418-7.477c0 0-20.89-6.698-35.233 6.699 0 0-11.849 10.903-7.64 26.169 0 0 1.56 5.452 5.145 4.361 0 0 7.016.156 5.3-7.165 0 0-2.65-9.814 6.237-16.512 0 0 9.821-7.788 23.696-2.648-.155.156 10.913 4.206 10.913-3.427z"/><path fill="#1e2150" d="M153.167 537.904c-13.6-.29-24.391-11.542-24.1-25.132.29-13.59 11.551-24.371 25.152-24.081 13.601.29 24.392 11.542 24.101 25.132-.29 13.59-11.551 24.371-25.153 24.081z"/><path fill="#1e2150" d="M154.015 525.9c-6.802 0-12.316-5.51-12.316-12.306 0-6.796 5.514-12.305 12.316-12.305 6.802 0 12.316 5.51 12.316 12.305 0 6.797-5.514 12.306-12.316 12.306z" opacity=".5"/><path fill="#861a1a" d="M130.942 490.54s-.78-4.828 8.419-7.476c0 0 20.89-6.543 35.233 6.698 0 0 11.848 10.903 7.64 26.169 0 0-1.56 5.452-5.146 4.361 0 0-7.015.156-5.3-7.165 0 0 2.65-9.813-6.236-16.512 0 0-9.822-7.788-23.697-2.648.156.156-10.757 4.206-10.913-3.427z"/><g fill="#df2c2c"><path d="M199.538 211.402c-3.742-.623-7.327 2.025-7.795 5.764l-44.431 292.846c-.624 3.738 2.026 7.321 5.768 7.788 3.742.623 7.327-2.025 7.795-5.763l44.431-292.847c.624-3.738-2.027-7.165-5.768-7.788z"/><path d="M165.396 441.317c2.65 0 3.43.156 4.989 2.648l37.572 62.931h151.377c3.898 0 7.172 3.271 7.172 7.166a7.15 7.15 0 01-7.172 7.165H201.253c-.312 0-2.182-.156-3.897-1.09-1.715-.935-2.34-2.181-2.806-2.96l-30.245-50.625c-2.338-4.05-3.585-10.904-2.65-16.823.468-2.025 1.715-7.321 3.74-8.412z"/></g><path fill="#861a1a" d="M257.22 505.338l.624-5.607-52.382-.312.468 5.14s16.993 5.297 30.712 2.96c0 0 4.365-1.09 7.95-.623-.155.156 5.769 1.713 12.629-1.558z"/><path fill="#1e2150" d="M257.688 501.756s2.65-15.577-3.585-28.35l-15.434-.156s2.182 13.085-16.993 15.265c0 0-16.993-.934-15.902 11.839 0 0 11.848 5.452 31.024 3.738 0 0 6.547-.623 8.418-.155 0-.156 5.769.467 12.472-2.181z"/><path fill="#861a1a" d="M241.163 470.446c.312.312.623.467.935.779.624.934 1.247 1.869 1.56 2.96.935 2.959-.313 6.698-1.716 9.346-2.806 5.607-8.574 10.592-15.122 9.969-2.65-.312-6.548-.935-8.418-2.96-.624-.779-1.56-1.869-1.248-2.96.156-.934 1.403-1.246 2.183-1.401 1.87-.623 3.742-1.246 5.456-2.025 3.742-1.402 6.236-3.895 8.419-7.166 1.247-1.713 3.742-6.23 6.236-6.542.624-.156 1.403-.312 1.715 0z"/><path fill="#0e151d" d="M239.136 491.475h.156c.468-.156.78-.623.624-1.09-1.092-3.895-3.274-6.699-6.392-9.814-1.091-1.09-2.027-1.558-3.118-2.18l-.156-.157c-.468-.311-.935-.155-1.091.312-.312.467-.156.934.312 1.09l.155.156c1.092.623 1.871 1.09 2.65 2.025 2.963 2.96 4.99 5.452 5.925 9.035.156.467.468.623.935.623zm-6.08 3.895c.468 0 .78-.312.78-.78v-.778l-.156-.468a32.683 32.683 0 00-2.339-4.673c-1.247-2.025-2.494-3.894-3.897-5.607-.624-.78-1.247-1.558-2.183-2.025-.467-.156-.935 0-1.091.311-.156.468 0 .935.312 1.09.623.312 1.091.935 1.403 1.558 1.403 1.87 2.65 3.583 3.897 5.608.78 1.402 1.56 2.96 2.183 4.517l.156.312v.311c.156.156.467.624.935.624zm-6.548 1.09c.468 0 .78-.468.78-.935v-.312c0-.311 0-.623-.156-.934l-.312-.935c-.623-2.025-1.247-4.05-2.182-6.075-.624-1.402-1.56-2.492-2.339-3.738-.312-.468-.623-.78-.935-1.246-.312-.312-.78-.468-1.092-.156-.311.311-.467.779-.155 1.09.311.467.623.779.935 1.246.78 1.09 1.559 2.181 2.183 3.427.935 1.87 1.559 3.895 2.182 5.92l.312.934v.779c0 .623.312.935.78.935z"/><g fill="#0e151d"><path d="M256.597 479.169s8.263-37.073 7.171-74.302c0 0-.623-16.2 4.677-30.22 0 0 31.024-62.93 32.895-109.193l-31.648-5.452s-27.75 32.711-41.157 87.23c0 0-7.64 25.08-2.027 52.807 0 0 7.328 65.89 6.86 78.663 0 .156 7.015 4.206 23.229.467z"/><path d="M256.597 479.169s8.263-37.073 7.171-74.302c0 0-.623-16.2 4.677-30.22 0 0 31.024-62.93 32.895-109.193l-31.648-5.452s-27.75 32.711-41.157 87.23c0 0-7.64 25.08-2.027 52.807 0 0 7.328 65.89 6.86 78.663 0 .156 7.015 4.206 23.229.467z" opacity=".5"/></g><path fill="#861a1a" d="M316.306 508.765l.624-5.607-52.382-.312.468 5.14s16.993 5.297 30.712 2.96c0 0 4.365-1.09 7.95-.623-.155 0 5.769 1.558 12.628-1.558z"/><path fill="#1e2150" d="M316.774 505.027s2.65-15.577-3.586-28.35l-15.434-.156s2.183 13.085-16.993 15.266c0 0-16.993-.935-15.901 11.838 0 0 11.848 5.452 31.023 3.739 0 0 6.548-.623 8.419-.156 0 0 5.768.467 12.472-2.18z"/><path fill="#861a1a" d="M300.249 473.873c.311.312.623.467.935.779.624.935 1.247 1.87 1.559 2.96.935 2.96-.312 6.698-1.715 9.346-2.806 5.607-8.574 10.592-15.122 9.969-2.65-.312-6.548-.935-8.419-2.96-.623-.779-1.559-1.869-1.247-2.96.156-.934 1.403-1.245 2.183-1.401 1.87-.623 3.741-1.246 5.456-2.025 3.742-1.402 6.236-3.894 8.419-7.166 1.247-1.713 3.741-6.23 6.236-6.542.623-.311 1.403-.467 1.715 0z"/><path fill="#0e151d" d="M298.222 494.902h.156c.468-.156.78-.623.623-1.09-1.09-3.895-3.273-6.698-6.391-9.814-1.092-1.09-2.027-1.558-3.118-2.18l-.156-.156c-.468-.312-.936-.156-1.092.311-.311.467-.156.935.312 1.09l.156.156c1.091.623 1.87 1.09 2.65 2.025 2.962 2.96 4.99 5.452 5.925 9.035.155.311.467.623.935.623zm-5.924 3.738c.467 0 .78-.311.78-.778v-.78l-.157-.467a32.683 32.683 0 00-2.338-4.673c-1.247-2.025-2.495-3.894-3.898-5.607-.623-.78-1.247-1.558-2.182-2.025-.468-.156-.936 0-1.091.311-.156.467 0 .935.311 1.09.624.312 1.092.935 1.403 1.558 1.404 1.87 2.65 3.583 3.898 5.608.78 1.402 1.559 2.96 2.182 4.517l.156.312v.311c0 .312.468.623.936.623zm-6.704 1.247c.468 0 .78-.467.78-.935v-.311c0-.312 0-.623-.156-.935l-.312-.935c-.624-2.025-1.247-4.05-2.183-6.075-.623-1.401-1.559-2.492-2.338-3.738-.312-.467-.624-.779-.936-1.246-.311-.312-.78-.468-1.09-.156-.313.312-.469.779-.157 1.09.312.468.624.78.936 1.247.78 1.09 1.559 2.18 2.182 3.427.936 1.869 1.56 3.894 2.183 5.919l.312.934v.779c0 .623.311.935.779.935zm45.366-241.754s6.704 30.53-7.483 77.884c0 0-8.886 26.326-3.897 50.937 0 0 7.95 45.485-3.43 92.839l-20.11 1.713s-10.602-74.146-16.682-93.461c0 0-7.95-30.22.156-66.514 0 0 6.548-44.239 5.612-59.66z"/><path fill="#fca88d" d="M323.79 119.187s-10.446-14.643-14.5-25.08c0 0 3.119-28.194-10.133-37.072 0 0-31.18-28.973-30.244 22.586 0 0-2.65 7.789-8.574 10.592 0 0 5.612 4.518 7.483 4.674 0 0-1.248 16.2 16.369 17.913 0 0 4.989 2.96 7.795 13.863.156 0 22.138-1.09 31.803-7.476z"/><path fill="#1e2150" d="M300.404 94.42s9.978 12.305 14.967 4.984c0 0 2.962-3.894-2.183-7.477 0 0 17.928 3.271 19.487-2.336 0 0 1.248-3.583-2.962-5.452 0 0 11.07-.468 10.757-7.166 0 0-.155-5.919-6.86-7.01 0 0 15.435-3.27 12.94-12.617 0 0-1.714-9.813-24.008-7.632 0 0 2.339-4.362-1.715-8.723 0 0-4.21-4.674-12.784-2.96 0 0-3.741-6.542-17.46-2.648 0 0-7.795 2.96-14.187 7.01 0 0-7.483 4.517-6.236 11.215 0 0 1.87 11.994 12.316 10.904 0 0 1.403 7.632 9.198 7.165 0 0-1.87 11.371 5.612 9.19 0 0 6.08-1.09 6.392 5.14.156-.155.312 4.986-3.274 8.412z"/><path fill="#fca88d" d="M294.726 91.76c-1.208-.662-1.38-2.666-.386-4.476.994-1.81 2.779-2.74 3.987-2.078 1.207.663 1.38 2.667.386 4.477-.995 1.81-2.78 2.74-3.987 2.078z" opacity=".5"/><path fill="#1e2150" d="M283.567 71.833c0-1.558-3.118-1.714-5.456-1.714-2.339 0-4.365.156-4.365 1.558 0 1.558 1.87 1.558 4.365 1.558 2.338.155 5.3.934 5.456-1.402z"/><path fill="#fff" d="M278.111 81.958c-2.583 0-4.677-1.186-4.677-2.648 0-1.463 2.094-2.648 4.677-2.648 2.583 0 4.677 1.185 4.677 2.648 0 1.462-2.094 2.648-4.677 2.648z"/><path fill="#0e151d" d="M273.902 82.737a2.805 2.805 0 112.806-2.804 2.805 2.805 0 01-2.806 2.804z"/><path fill="#fca88d" d="M284.035 88.812c-1.98 0-3.586-.907-3.586-2.025 0-1.119 1.606-2.025 3.586-2.025 1.98 0 3.586.906 3.586 2.025 0 1.118-1.606 2.025-3.586 2.025z" opacity=".5"/><g opacity=".5"><path fill="#fca88d" d="M294.636 97.69c2.65 0 4.521-1.557 4.677-1.713.312-.312.468-.779.156-1.09-.312-.312-.78-.468-1.247-.156-.156.156-3.274 2.492-6.236.467-.312-.311-.935-.156-1.091.312-.312.311-.156.934.311 1.09a5.943 5.943 0 003.43 1.09z" opacity=".25"/></g><path fill="#df2c2c" d="M274.37 98.314c3.273 0 5.768-1.714 5.768-1.714.311-.312.467-.779.156-1.09-.312-.312-.78-.468-1.092-.156 0 0-2.494 1.87-5.924 1.402-.468 0-.935.311-.935.779 0 .467.312.934.78.934.467-.311.935-.155 1.246-.155zm68.595 166.049s-9.51-24.3-5.457-70.407c0 0 12.784-57.946-14.966-73.368 0 0-35.389-21.184-51.758 53.74 0 0-9.666 53.897-6.548 89.101.156 0 39.754 11.371 78.729.934z"/><path fill="#fca88d" d="M310.694 173.394s-14.499 30.687-30.868 38.008c0 0-36.325 8.411-66.257-3.271 0 0-7.015-4.05-4.833-9.19 0 0 19.02-6.076 56.747-10.593 0 0 12.628-11.683 21.514-28.661z"/><path fill="#861a1a" d="M319.424 179.78s27.438-53.272-.624-65.734c0 0-26.346-10.125-38.974 44.706 0 .156 12.783 16.979 39.598 21.029z"/><path fill="#1e2150" d="M211.386 214.673a5.298 5.298 0 01-5.3-5.296 5.298 5.298 0 015.3-5.296c2.928 0 5.3 2.371 5.3 5.296a5.298 5.298 0 01-5.3 5.296z"/><path fill="#fca88d" d="M216.063 196.916c-4.521.311-9.198 0-13.563.934-2.65.623-5.3 1.402-7.171 3.427-3.898 3.894-4.833 9.346-2.183 14.175.935 1.714 2.183 3.271 4.21 3.894.779.156 1.402-.311 1.402-.311s1.715 1.869 3.586 1.869c1.87 0 2.027-1.713 2.027-1.713s3.118 0 3.585-.624c1.248-1.246.468-3.582.156-4.984-.467-2.025-.78-4.83.468-6.698 1.715-2.648 7.327-5.452 6.236-9.346"/><g opacity=".5"><path fill="#fca88d" d="M203.435 218.412c.156 0 .468-.156.624-.312.312-.312.312-.779 0-1.246-.78-.779-1.559-1.87-2.183-3.116-.311-.623-.467-1.246-.623-2.025-.156-.311-.156-.778-.312-1.09-.156-.467-.624-.779-1.091-.623-.468.156-.78.623-.624 1.09.156.312.156.623.312 1.09.156.78.312 1.558.623 2.337.78 1.558 1.56 2.648 2.495 3.583.312.156.468.312.78.312z" opacity=".25"/></g><g opacity=".5"><path fill="#fca88d" d="M197.823 217.321c.156 0 .312 0 .468-.156.312-.311.467-.778.156-1.246-1.403-1.713-2.027-3.427-2.183-5.919 0-.467-.468-.779-.935-.779-.468 0-.78.468-.78.935.156 2.96.936 4.984 2.65 7.01 0 0 .312.155.624.155z" opacity=".25"/></g></svg>