<svg width="154" height="218" fill="none" xmlns="http://www.w3.org/2000/svg"><path d="M148.653 217.723a.5.5 0 00.704.066l3.464-2.872a.5.5 0 10-.638-.77l-3.08 2.553-2.552-3.08a.5.5 0 10-.77.638l2.872 3.465zM.901 1.885l.98.279.275-.962-.982-.28-.273.963zm2.93.84c.648.188 1.293.377 1.936.567l.283-.96c-.644-.19-1.29-.379-1.94-.567l-.278.96zM7.69 3.863c.638.19 1.274.383 1.907.576l.291-.957a456.84 456.84 0 00-1.911-.577l-.287.958zm3.8 1.156c.648.2 1.292.401 1.935.603l.3-.954c-.644-.202-1.29-.404-1.94-.604l-.295.955zm3.864 1.215c.641.204 1.28.41 1.915.616l.309-.95a421.42 421.42 0 00-1.92-.619l-.304.953zm3.815 1.239c.63.208 1.258.417 1.884.627l.318-.948c-.627-.21-1.257-.42-1.889-.629l-.314.95zm3.777 1.268c.643.22 1.282.44 1.92.661l.327-.944c-.638-.222-1.28-.443-1.924-.663l-.323.946zm3.822 1.328c.632.223 1.26.448 1.887.673l.338-.941c-.628-.226-1.258-.45-1.892-.675l-.333.943zm3.758 1.352c.622.228 1.242.457 1.86.687l.349-.938c-.62-.23-1.241-.46-1.866-.688l-.343.939zm3.762 1.402c.632.239 1.26.48 1.886.721l.36-.933c-.627-.242-1.258-.483-1.891-.723l-.355.935zm3.754 1.45c.62.243 1.238.488 1.852.734l.372-.928c-.617-.247-1.236-.493-1.858-.737l-.366.93zm3.687 1.476c.629.257 1.255.514 1.878.774l.383-.924c-.624-.26-1.253-.518-1.883-.776l-.378.926zm3.74 1.555c.617.262 1.231.524 1.843.789l.397-.918c-.614-.265-1.23-.53-1.85-.792l-.39.92zm3.669 1.585c.606.267 1.21.535 1.81.804l.41-.912c-.603-.27-1.209-.54-1.817-.807l-.403.915zm3.66 1.643c.613.28 1.223.563 1.83.846l.423-.906c-.61-.284-1.222-.568-1.837-.85l-.417.91zm3.641 1.701c.601.286 1.199.574 1.793.863l.437-.9c-.596-.29-1.196-.578-1.8-.866l-.43.903zm3.581 1.741c.607.301 1.21.604 1.811.908l.452-.892a256.7 256.7 0 00-1.818-.912l-.445.896zm3.602 1.825c.594.308 1.185.616 1.772.926l.467-.884c-.59-.311-1.183-.621-1.779-.93l-.46.888zm3.523 1.862c.591.319 1.18.64 1.764.962l.483-.876a226.87 226.87 0 00-1.772-.966l-.475.88zm3.528 1.945c.584.33 1.165.66 1.743.994l.499-.867c-.58-.334-1.164-.667-1.751-.998l-.491.871zm3.464 1.997c.573.337 1.142.676 1.707 1.017l.516-.857a215.66 215.66 0 00-1.715-1.022l-.508.862zm3.435 2.07c.573.353 1.142.707 1.707 1.064l.533-.846c-.568-.358-1.14-.715-1.715-1.07l-.525.852zm3.391 2.138c.558.36 1.112.722 1.663 1.086l.55-.834c-.553-.366-1.11-.73-1.67-1.092l-.543.84zm3.336 2.205c.558.378 1.111.757 1.662 1.138l.57-.822c-.554-.383-1.11-.765-1.671-1.144l-.56.828zm3.3 2.288c.542.385 1.081.772 1.616 1.161l.588-.808c-.538-.392-1.08-.781-1.625-1.169l-.579.816zm3.228 2.349c.54.403 1.075.807 1.607 1.214l.608-.794c-.535-.41-1.074-.816-1.617-1.222l-.598.802zm3.191 2.441c.524.411 1.044.825 1.56 1.24l.627-.779c-.52-.418-1.042-.834-1.57-1.247l-.617.786zm3.108 2.502c.519.429 1.033.86 1.544 1.293l.647-.763a155.77 155.77 0 00-1.554-1.3l-.637.77zm3.064 2.6a135.5 135.5 0 011.496 1.32l.666-.746c-.498-.446-.999-.888-1.505-1.329l-.657.754zm2.974 2.66c.495.454.985.911 1.472 1.37l.686-.726c-.489-.463-.983-.923-1.482-1.38l-.676.736zm2.918 2.757c.479.464.953.931 1.423 1.4l.706-.707c-.473-.472-.95-.943-1.432-1.41l-.697.717zm2.825 2.821c.468.481.931.964 1.391 1.45l.726-.687c-.463-.49-.929-.976-1.4-1.46l-.717.697zm2.756 2.915c.451.491.898.985 1.34 1.481l.746-.666c-.445-.5-.895-.997-1.35-1.491l-.736.676zm2.659 2.982c.438.506.872 1.014 1.302 1.526l.765-.643c-.432-.516-.87-1.028-1.311-1.538l-.756.655zm2.578 3.068c.421.517.838 1.037 1.251 1.559l.785-.62a129.24 129.24 0 00-1.261-1.57l-.775.631zm2.479 3.137c.406.53.808 1.063 1.206 1.599l.803-.596c-.401-.54-.806-1.077-1.215-1.612l-.794.609zm2.387 3.215c.389.541.775 1.085 1.156 1.632l.82-.571c-.384-.551-.772-1.1-1.164-1.645l-.812.584zm2.286 3.282c.373.553.741 1.109 1.106 1.667l.837-.546c-.367-.563-.738-1.123-1.114-1.68l-.829.56zm2.186 3.352c.356.564.708 1.132 1.056 1.702l.854-.52a126.2 126.2 0 00-1.064-1.716l-.846.534zm2.084 3.417c.339.573.673 1.15 1.002 1.729l.869-.495a125.14 125.14 0 00-1.009-1.742l-.862.508zm1.98 3.476c.322.585.64 1.173.953 1.765l.884-.469c-.316-.596-.636-1.188-.961-1.778l-.876.482zm1.877 3.536c.303.592.602 1.187.897 1.785l.897-.443c-.298-.602-.599-1.201-.904-1.797l-.89.455zm1.77 3.587c.288.604.571 1.21.85 1.82l.91-.416c-.282-.614-.567-1.225-.857-1.834l-.903.43zm1.669 3.64c.268.608.533 1.22.793 1.833l.921-.391c-.263-.618-.529-1.233-.799-1.845l-.915.404zm1.563 3.683c.253.619.503 1.242.748 1.867l.931-.365c-.247-.63-.498-1.257-.753-1.881l-.926.379zm1.464 3.729c.234.621.465 1.245.692 1.872l.94-.341c-.228-.631-.46-1.258-.696-1.884l-.936.353zm1.361 3.761c.22.632.436 1.268.648 1.907l.949-.316c-.214-.643-.431-1.282-.652-1.919l-.945.328zm1.266 3.805c.201.631.399 1.265.593 1.903l.957-.292c-.196-.641-.395-1.279-.597-1.915l-.953.304zm1.166 3.823c.187.643.372 1.289.552 1.937l.964-.268a168.98 168.98 0 00-.556-1.949l-.96.28zm1.078 3.869c.17.639.336 1.281.5 1.926l.969-.245c-.164-.649-.332-1.295-.503-1.938l-.966.257zm.98 3.869c.157.651.311 1.305.462 1.961l.974-.224c-.151-.66-.306-1.317-.464-1.971l-.972.234zm.901 3.925c.141.645.278 1.292.412 1.942l.98-.202c-.135-.654-.274-1.305-.415-1.953l-.977.213zm.807 3.901c.128.656.254 1.315.376 1.976l.983-.182c-.123-.665-.249-1.327-.378-1.986l-.981.192zm.734 3.968c.114.65.224 1.303.332 1.958l.987-.162c-.108-.659-.22-1.315-.334-1.968l-.985.172zm.646 3.926a201 201 0 01.297 1.984l.99-.143c-.097-.667-.196-1.332-.299-1.994l-.988.153zm.578 3.984c.089.661.176 1.325.26 1.992l.992-.125c-.084-.67-.172-1.337-.262-2.001l-.99.134zm.5 3.963c.077.659.152 1.322.224 1.986l.994-.108c-.072-.667-.147-1.332-.225-1.995l-.993.117zm.433 3.988c.067.67.131 1.342.193 2.017l.996-.091a248.57 248.57 0 00-.194-2.025l-.995.099zm.366 4.001c.055.658.108 1.32.158 1.983l.997-.075c-.05-.666-.103-1.33-.158-1.991l-.997.083zm.301 3.981c.045.669.088 1.34.128 2.013l.998-.06c-.04-.676-.083-1.349-.129-2.02l-.997.067zm.242 4.041c.035.657.067 1.316.097 1.978l.999-.046c-.03-.664-.063-1.325-.097-1.984l-.999.052zm.18 3.968c.026.666.049 1.334.07 2.004l1-.031c-.021-.673-.045-1.343-.07-2.011l-1 .038zm.127 4.023c.016.674.031 1.351.043 2.029l1-.017c-.012-.682-.027-1.36-.044-2.037l-.999.025zm.072 4.008c.008.662.013 1.326.017 1.993l1-.006c-.004-.668-.009-1.334-.017-1.998l-1 .011zm.021 3.998c0 .671-.003 1.344-.007 2.019l1 .007c.004-.677.007-1.352.007-2.025l-1-.001zm-.028 4.052c-.008.658-.018 1.319-.031 1.982l1 .018c.012-.664.023-1.327.031-1.988l-1-.012zm-.073 3.971c-.016.666-.034 1.333-.054 2.003l.999.03c.02-.672.038-1.341.054-2.008l-.999-.025zm-.119 4.018c-.024.674-.049 1.35-.077 2.029l.999.04c.028-.68.053-1.358.077-2.034l-.999-.035zm-.163 4.025c-.03.66-.061 1.321-.095 1.984l.999.051c.033-.665.065-1.328.095-1.989l-.999-.046zm-.201 3.98c-.037.668-.075 1.337-.116 2.009l.998.06c.041-.673.08-1.344.117-2.013l-.999-.056zm-.242 4.029c-.044.672-.09 1.345-.137 2.021l.998.07c.047-.678.093-1.353.136-2.026l-.997-.065zm-.279 3.996a359.4 359.4 0 01-.152 1.987l.997.078c.053-.665.103-1.329.152-1.991l-.997-.074zm-.313 3.985c-.055.668-.112 1.338-.171 2.01l.996.087c.059-.674.116-1.345.172-2.014l-.997-.083zm-.351 4.031l-.094 1.015.995.093.094-1.017-.995-.091z" fill="#fff"/></svg>