<svg width="597" height="650" fill="none" xmlns="http://www.w3.org/2000/svg"><ellipse cx="125.751" cy="82.854" rx="3" ry="3.06" fill="#5F5F5F" fill-opacity=".1"/><ellipse cx="133.751" cy="82.854" rx="3" ry="3.06" fill="#5F5F5F" fill-opacity=".1"/><ellipse cx="141.751" cy="82.854" rx="3" ry="3.06" fill="#5F5F5F" fill-opacity=".1"/><ellipse cx="149.751" cy="82.854" rx="3" ry="3.06" fill="#5F5F5F" fill-opacity=".1"/><ellipse cx="157.751" cy="82.854" rx="3" ry="3.06" fill="#5F5F5F" fill-opacity=".1"/><ellipse cx="165.751" cy="82.854" rx="3" ry="3.06" fill="#5F5F5F" fill-opacity=".1"/><ellipse cx="125.751" cy="91.013" rx="3" ry="3.06" fill="#5F5F5F" fill-opacity=".1"/><ellipse cx="133.751" cy="91.013" rx="3" ry="3.06" fill="#5F5F5F" fill-opacity=".1"/><ellipse cx="141.751" cy="91.013" rx="3" ry="3.06" fill="#5F5F5F" fill-opacity=".1"/><ellipse cx="149.751" cy="91.013" rx="3" ry="3.06" fill="#5F5F5F" fill-opacity=".1"/><ellipse cx="157.751" cy="91.013" rx="3" ry="3.06" fill="#5F5F5F" fill-opacity=".1"/><ellipse cx="165.751" cy="91.013" rx="3" ry="3.06" fill="#5F5F5F" fill-opacity=".1"/><ellipse cx="125.751" cy="99.166" rx="3" ry="3.06" fill="#5F5F5F" fill-opacity=".1"/><ellipse cx="133.751" cy="99.166" rx="3" ry="3.06" fill="#5F5F5F" fill-opacity=".1"/><ellipse cx="141.751" cy="99.166" rx="3" ry="3.06" fill="#5F5F5F" fill-opacity=".1"/><ellipse cx="149.751" cy="99.166" rx="3" ry="3.06" fill="#5F5F5F" fill-opacity=".1"/><ellipse cx="157.751" cy="99.166" rx="3" ry="3.06" fill="#5F5F5F" fill-opacity=".1"/><ellipse cx="165.751" cy="99.166" rx="3" ry="3.06" fill="#5F5F5F" fill-opacity=".1"/><ellipse cx="125.751" cy="107.321" rx="3" ry="3.059" fill="#5F5F5F" fill-opacity=".1"/><ellipse cx="133.751" cy="107.321" rx="3" ry="3.059" fill="#5F5F5F" fill-opacity=".1"/><ellipse cx="141.751" cy="107.321" rx="3" ry="3.059" fill="#5F5F5F" fill-opacity=".1"/><ellipse cx="149.751" cy="107.321" rx="3" ry="3.059" fill="#5F5F5F" fill-opacity=".1"/><ellipse cx="157.751" cy="107.321" rx="3" ry="3.059" fill="#5F5F5F" fill-opacity=".1"/><ellipse cx="165.751" cy="107.321" rx="3" ry="3.059" fill="#5F5F5F" fill-opacity=".1"/><ellipse cx="125.751" cy="115.477" rx="3" ry="3.059" fill="#5F5F5F" fill-opacity=".1"/><ellipse cx="133.751" cy="115.477" rx="3" ry="3.059" fill="#5F5F5F" fill-opacity=".1"/><ellipse cx="141.751" cy="115.477" rx="3" ry="3.059" fill="#5F5F5F" fill-opacity=".1"/><ellipse cx="149.751" cy="115.477" rx="3" ry="3.059" fill="#5F5F5F" fill-opacity=".1"/><ellipse cx="157.751" cy="115.477" rx="3" ry="3.059" fill="#5F5F5F" fill-opacity=".1"/><ellipse cx="165.751" cy="115.477" rx="3" ry="3.059" fill="#5F5F5F" fill-opacity=".1"/><ellipse cx="125.751" cy="123.633" rx="3" ry="3.059" fill="#5F5F5F" fill-opacity=".1"/><ellipse cx="133.751" cy="123.633" rx="3" ry="3.059" fill="#5F5F5F" fill-opacity=".1"/><ellipse cx="141.751" cy="123.633" rx="3" ry="3.059" fill="#5F5F5F" fill-opacity=".1"/><ellipse cx="149.751" cy="123.633" rx="3" ry="3.059" fill="#5F5F5F" fill-opacity=".1"/><ellipse cx="157.751" cy="123.633" rx="3" ry="3.059" fill="#5F5F5F" fill-opacity=".1"/><ellipse cx="165.751" cy="123.633" rx="3" ry="3.059" fill="#5F5F5F" fill-opacity=".1"/><ellipse cx="125.751" cy="131.79" rx="3" ry="3.06" fill="#5F5F5F" fill-opacity=".1"/><ellipse cx="133.751" cy="131.79" rx="3" ry="3.06" fill="#5F5F5F" fill-opacity=".1"/><ellipse cx="141.751" cy="131.79" rx="3" ry="3.06" fill="#5F5F5F" fill-opacity=".1"/><ellipse cx="149.751" cy="131.79" rx="3" ry="3.06" fill="#5F5F5F" fill-opacity=".1"/><ellipse cx="157.751" cy="131.79" rx="3" ry="3.06" fill="#5F5F5F" fill-opacity=".1"/><ellipse cx="165.751" cy="131.79" rx="3" ry="3.06" fill="#5F5F5F" fill-opacity=".1"/><ellipse cx="125.751" cy="139.946" rx="3" ry="3.06" fill="#5F5F5F" fill-opacity=".1"/><ellipse cx="133.751" cy="139.946" rx="3" ry="3.06" fill="#5F5F5F" fill-opacity=".1"/><ellipse cx="141.751" cy="139.946" rx="3" ry="3.06" fill="#5F5F5F" fill-opacity=".1"/><ellipse cx="149.751" cy="139.946" rx="3" ry="3.06" fill="#5F5F5F" fill-opacity=".1"/><ellipse cx="157.751" cy="139.946" rx="3" ry="3.06" fill="#5F5F5F" fill-opacity=".1"/><ellipse cx="165.751" cy="139.946" rx="3" ry="3.06" fill="#5F5F5F" fill-opacity=".1"/><ellipse cx="173.751" cy="58.386" rx="3" ry="3.06" fill="#5F5F5F" fill-opacity=".1"/><ellipse cx="181.751" cy="58.386" rx="3" ry="3.06" fill="#5F5F5F" fill-opacity=".1"/><ellipse cx="189.751" cy="58.386" rx="3" ry="3.06" fill="#5F5F5F" fill-opacity=".1"/><ellipse cx="197.751" cy="58.386" rx="3" ry="3.06" fill="#5F5F5F" fill-opacity=".1"/><ellipse cx="205.751" cy="58.386" rx="3" ry="3.06" fill="#5F5F5F" fill-opacity=".1"/><ellipse cx="213.751" cy="58.386" rx="3" ry="3.06" fill="#5F5F5F" fill-opacity=".1"/><ellipse cx="173.751" cy="66.543" rx="3" ry="3.06" fill="#5F5F5F" fill-opacity=".1"/><ellipse cx="181.751" cy="66.543" rx="3" ry="3.06" fill="#5F5F5F" fill-opacity=".1"/><ellipse cx="189.751" cy="66.543" rx="3" ry="3.06" fill="#5F5F5F" fill-opacity=".1"/><ellipse cx="197.751" cy="66.543" rx="3" ry="3.06" fill="#5F5F5F" fill-opacity=".1"/><ellipse cx="205.751" cy="66.543" rx="3" ry="3.06" fill="#5F5F5F" fill-opacity=".1"/><ellipse cx="213.751" cy="66.543" rx="3" ry="3.06" fill="#5F5F5F" fill-opacity=".1"/><ellipse cx="173.751" cy="74.697" rx="3" ry="3.059" fill="#5F5F5F" fill-opacity=".1"/><ellipse cx="181.751" cy="74.697" rx="3" ry="3.059" fill="#5F5F5F" fill-opacity=".1"/><ellipse cx="189.751" cy="74.697" rx="3" ry="3.059" fill="#5F5F5F" fill-opacity=".1"/><ellipse cx="197.751" cy="74.697" rx="3" ry="3.059" fill="#5F5F5F" fill-opacity=".1"/><ellipse cx="205.751" cy="74.697" rx="3" ry="3.059" fill="#5F5F5F" fill-opacity=".1"/><ellipse cx="213.751" cy="74.697" rx="3" ry="3.059" fill="#5F5F5F" fill-opacity=".1"/><ellipse cx="173.751" cy="82.854" rx="3" ry="3.06" fill="#5F5F5F" fill-opacity=".1"/><ellipse cx="181.751" cy="82.854" rx="3" ry="3.06" fill="#5F5F5F" fill-opacity=".1"/><ellipse cx="189.751" cy="82.854" rx="3" ry="3.06" fill="#5F5F5F" fill-opacity=".1"/><ellipse cx="197.751" cy="82.854" rx="3" ry="3.06" fill="#5F5F5F" fill-opacity=".1"/><ellipse cx="205.751" cy="82.854" rx="3" ry="3.06" fill="#5F5F5F" fill-opacity=".1"/><ellipse cx="213.751" cy="82.854" rx="3" ry="3.06" fill="#5F5F5F" fill-opacity=".1"/><ellipse cx="173.751" cy="91.01" rx="3" ry="3.06" fill="#5F5F5F" fill-opacity=".1"/><ellipse cx="181.751" cy="91.01" rx="3" ry="3.06" fill="#5F5F5F" fill-opacity=".1"/><ellipse cx="189.751" cy="91.01" rx="3" ry="3.06" fill="#5F5F5F" fill-opacity=".1"/><ellipse cx="197.751" cy="91.01" rx="3" ry="3.06" fill="#5F5F5F" fill-opacity=".1"/><ellipse cx="205.751" cy="91.01" rx="3" ry="3.06" fill="#5F5F5F" fill-opacity=".1"/><ellipse cx="213.751" cy="91.01" rx="3" ry="3.06" fill="#5F5F5F" fill-opacity=".1"/><ellipse cx="173.751" cy="99.166" rx="3" ry="3.06" fill="#5F5F5F" fill-opacity=".1"/><ellipse cx="181.751" cy="99.166" rx="3" ry="3.06" fill="#5F5F5F" fill-opacity=".1"/><ellipse cx="189.751" cy="99.166" rx="3" ry="3.06" fill="#5F5F5F" fill-opacity=".1"/><ellipse cx="197.751" cy="99.166" rx="3" ry="3.06" fill="#5F5F5F" fill-opacity=".1"/><ellipse cx="205.751" cy="99.166" rx="3" ry="3.06" fill="#5F5F5F" fill-opacity=".1"/><ellipse cx="213.751" cy="99.166" rx="3" ry="3.06" fill="#5F5F5F" fill-opacity=".1"/><ellipse cx="173.751" cy="107.321" rx="3" ry="3.059" fill="#5F5F5F" fill-opacity=".1"/><ellipse cx="181.751" cy="107.321" rx="3" ry="3.059" fill="#5F5F5F" fill-opacity=".1"/><ellipse cx="189.751" cy="107.321" rx="3" ry="3.059" fill="#5F5F5F" fill-opacity=".1"/><ellipse cx="197.751" cy="107.321" rx="3" ry="3.059" fill="#5F5F5F" fill-opacity=".1"/><ellipse cx="205.751" cy="107.321" rx="3" ry="3.059" fill="#5F5F5F" fill-opacity=".1"/><ellipse cx="213.751" cy="107.321" rx="3" ry="3.059" fill="#5F5F5F" fill-opacity=".1"/><ellipse cx="173.751" cy="115.477" rx="3" ry="3.059" fill="#5F5F5F" fill-opacity=".1"/><ellipse cx="181.751" cy="115.477" rx="3" ry="3.059" fill="#5F5F5F" fill-opacity=".1"/><ellipse cx="189.751" cy="115.477" rx="3" ry="3.059" fill="#5F5F5F" fill-opacity=".1"/><ellipse cx="197.751" cy="115.477" rx="3" ry="3.059" fill="#5F5F5F" fill-opacity=".1"/><ellipse cx="205.751" cy="115.477" rx="3" ry="3.059" fill="#5F5F5F" fill-opacity=".1"/><ellipse cx="213.751" cy="115.477" rx="3" ry="3.059" fill="#5F5F5F" fill-opacity=".1"/><path d="M306.162 522.416c30.27 38.767 69.393 35.017 117.463 45.393 60.941 13.155 129.409 56.798 159.623 2.255 19.801-35.747-8.975-63.226-11.476-104.017-5.438-88.702 24.336-139.601 10.17-227.332-13.344-82.643-6.155-152.236-74.075-201.153-91.624-65.988-177.729 21.579-281.395 66.306-57.907 24.983-156.358 0-201.205 66.883C10.713 192.457 5.789 273.006 86.45 302.309c80.663 29.304 155.95-8.395 219.711 59.804 47.349 50.645-56.846 87.5 0 160.303z" fill="url(#paint0_linear)"/><defs><linearGradient id="paint0_linear" x1="347.114" y1="629.113" x2="597.782" y2="-32.823" gradientUnits="userSpaceOnUse"><stop stop-color="#fff" stop-opacity=".04"/><stop offset="1" stop-color="#fff" stop-opacity="0"/></linearGradient></defs></svg>