<svg width="247" height="254" fill="none" xmlns="http://www.w3.org/2000/svg"><path opacity=".18" d="M134.438 24.301c55.415 7.374 110.894 26.718 97.365 80.959-5.873 23.545-30.44 71.041-48.288 87.483-27.697 25.513-53.487 41.613-90.32 33.774-47.52-10.113-71.913-54.516-69.703-103.052 2.645-58.051 53.343-106.829 110.946-99.164z" fill="#DF2C2C"/><path d="M133.219 174.065l-34.838-40.646-11.613 1.936 32.903 38.71h13.548z" fill="#DF2C2C"/><path d="M126.136 127.613h-9.059a9.684 9.684 0 01-6.851-2.826l-7.549-7.548a21.162 21.162 0 01-6.232-15.058V90.839h3.871v11.342a17.307 17.307 0 005.11 12.309l7.548 7.549a5.806 5.806 0 004.103 1.703h9.078a5.806 5.806 0 004.103-1.703l7.548-7.549a17.287 17.287 0 005.11-12.309V90.839h3.871v11.342a21.145 21.145 0 01-6.174 15.058l-7.548 7.548a9.67 9.67 0 01-6.929 2.826zm8.032 21.58l-11.536-13.839h-2.051l-11.536 13.839-4.8-19.18 3.755-.93 2.942 11.788 7.819-9.388h5.691l7.819 9.388 2.942-11.788 3.755.93-4.8 19.18z" fill="#fff"/><path d="M174.213 176H69l4.258-25.607a21.292 21.292 0 0114.265-16.703l16.645-5.555v-2.458h3.871v5.265l-19.278 6.348a17.422 17.422 0 00-11.613 13.665l-3.58 21.174h96.077l-3.522-21.097a17.427 17.427 0 00-11.613-13.664l-19.355-6.426v-5.265h3.871v2.478l16.645 5.555a21.283 21.283 0 0114.265 16.703L174.213 176z" fill="#fff"/><path d="M154.491 154.519l-3.851.385 1.935 19.355 3.852-.385-1.936-19.355zm-65.225-.119l-1.945 19.452 3.871.387 1.945-19.452-3.87-.387zm55.566-46.142v-3.871a5.807 5.807 0 000-11.613v-3.87a9.677 9.677 0 110 19.354zm-46.452 0a9.677 9.677 0 110-19.355v3.871a5.807 5.807 0 000 11.613v3.871z" fill="#fff"/><path d="M149.419 86.271l-1.413-3.6c6.6-2.594 10.394-5.961 10.394-9.252 0-6.406-15.097-13.548-36.774-13.548-21.678 0-36.774 7.142-36.774 13.548 0 3.29 3.87 6.658 10.393 9.252l-1.413 3.6c-8.303-3.174-12.87-7.82-12.87-12.852C80.961 63.742 98.805 56 121.605 56s40.646 7.742 40.646 17.42c0 5.032-4.568 9.677-12.833 12.851z" fill="#DF2C2C"/><path d="M121.606 81.161a7.742 7.742 0 100-15.484 7.742 7.742 0 000 15.484z" fill="#DF2C2C"/><path d="M121.606 83.097a9.675 9.675 0 01-8.94-5.974 9.676 9.676 0 1118.618-3.704 9.665 9.665 0 01-2.835 6.843 9.67 9.67 0 01-6.843 2.835zm0-15.484a5.803 5.803 0 00-5.364 3.584 5.81 5.81 0 001.259 6.328 5.803 5.803 0 006.328 1.259 5.81 5.81 0 001.883-9.47 5.807 5.807 0 00-4.106-1.701z" fill="#fff"/><path d="M92.574 93.529V81.703l1.316-.445a85.778 85.778 0 0113.82-3l.542 3.87a90.482 90.482 0 00-11.884 2.44v3.716a99.771 99.771 0 0150.322 0v-3.755a90.931 90.931 0 00-11.884-2.439l.542-3.87a85.745 85.745 0 0113.897 3l1.316.444V93.49l-2.555-.851a94.836 94.836 0 00-52.974 0l-2.458.89z" fill="#DF2C2C"/><path d="M123.542 148.903h-3.871v3.871h3.871v-3.871zm0-7.742h-3.871v3.871h3.871v-3.871zm-35.294-7.05l-2.95 2.507 32.902 38.714 2.949-2.507-32.901-38.714zm11.608-1.958l-2.939 2.519 34.84 40.648 2.939-2.519-34.84-40.648z" fill="#fff"/></svg>