<svg width="248" height="253" fill="none" xmlns="http://www.w3.org/2000/svg"><path opacity=".18" d="M77.708 36.601c24.17-46.61 73.964-7.055 111.812 29.336 50.877 48.918 25.619 108.524-36.725 141.61-62.685 33.267-140.153-34.678-136.087-65.291 3.72-28.005 22.213-23.482 35.934-40.386 13.721-16.904 6-28.5 25.066-65.269z" fill="#DF2C2C"/><path d="M132.81 155.562l-11.536-13.838h-2.051l-11.536 13.838-4.8-19.18 3.755-.929 2.942 11.787 7.819-9.387h5.691l7.819 9.387 2.942-11.787 3.755.929-4.8 19.18z" fill="#DF2C2C"/><path d="M122.184 145.595h-3.871v34.838h3.871v-34.838z" fill="#DF2C2C"/><path d="M129.926 157.208h-3.871v3.871h3.871v-3.871zm0 13.548h-3.871v3.871h3.871v-3.871z" fill="#E56565"/><path d="M124.778 133.982h-9.058a9.676 9.676 0 01-6.852-2.826l-7.548-7.548a21.146 21.146 0 01-6.233-15.058V97.208h3.871v11.342a17.302 17.302 0 005.11 12.31l7.548 7.548a5.807 5.807 0 004.104 1.703h9.077a5.806 5.806 0 004.103-1.703l7.549-7.548a17.315 17.315 0 005.109-12.31V97.208h3.871v11.342a21.145 21.145 0 01-6.174 15.058l-7.548 7.548a9.67 9.67 0 01-6.929 2.826z" fill="#fff"/><path d="M143.474 99.143a15.68 15.68 0 01-13.374-7.567l-.522-1.007a34.724 34.724 0 01-23.013 8.574h-9.542v-3.87h9.542a30.965 30.965 0 0021.987-9.117l1.761-1.761 3.136 5.187a11.789 11.789 0 0010.025 5.69v3.871zm29.381 83.226H67.642l4.258-25.606a21.29 21.29 0 0114.265-16.704l16.645-5.555v-2.458h3.871v5.265l-19.278 6.348a17.422 17.422 0 00-11.613 13.665l-3.58 21.174h96.077l-3.522-21.097a17.427 17.427 0 00-11.613-13.664l-19.355-6.426v-5.265h3.871v2.478l16.645 5.555a21.291 21.291 0 0114.265 16.703l4.277 25.587z" fill="#fff"/><path d="M153.133 160.888l-3.851.385 1.935 19.356 3.852-.386-1.936-19.355zm-65.224-.119l-1.946 19.452 3.871.387 1.946-19.452-3.871-.387z" fill="#fff"/><path d="M89.28 89.466h7.743v23.226H89.28a7.742 7.742 0 01-7.742-7.742v-7.742a7.742 7.742 0 017.742-7.742zm61.936 23.226h-7.742V89.466h7.742a7.742 7.742 0 017.742 7.742v7.742a7.74 7.74 0 01-7.742 7.742z" fill="#DF2C2C"/><path d="M98.958 114.627h-9.677a9.68 9.68 0 01-9.678-9.677v-7.742a9.677 9.677 0 019.678-9.678h9.677v27.097zm-9.677-23.226a5.806 5.806 0 00-5.807 5.807v7.742a5.804 5.804 0 005.807 5.806h5.806V91.401h-5.806z" fill="#fff"/><path d="M91.216 89.466h-3.87v23.226h3.87V89.466zm60 25.161h-9.677V87.53h9.677a9.677 9.677 0 019.678 9.678v7.742a9.679 9.679 0 01-9.678 9.677zm-5.806-3.871h5.806a5.807 5.807 0 005.807-5.806v-7.742a5.806 5.806 0 00-5.807-5.807h-5.806v19.355z" fill="#fff"/><path d="M153.152 89.466h-3.871v23.226h3.871V89.466zm-7.839.136a25.158 25.158 0 00-25.064-22.957 25.163 25.163 0 00-25.065 22.957l-3.87-.271a29.032 29.032 0 0157.851 0l-3.852.27zm-5.71 36.638h-25.161v-3.871h25.161a5.806 5.806 0 005.807-5.806v-3.871h3.871v3.871a9.679 9.679 0 01-9.678 9.677z" fill="#fff"/></svg>