<svg width="209" height="199" fill="none" xmlns="http://www.w3.org/2000/svg"><path opacity=".18" d="M2.664 115.012c-7.22-55.434-2.894-114.03 53-115 24.263-.422 76.5 11.015 97 24 31.813 20.15 54.038 40.894 56 78.5 2.531 48.52-34.046 83.573-81.5 94-56.757 12.471-116.995-23.875-124.5-81.5z" fill="#DF2C2C"/><path d="M92.971 154.336l-3.848-.542 3.79-26.361-3.479-5.207 3.226-2.129 4.314 6.407-4.003 27.832zm11.699 0l-3.984-27.832 4.295-6.407 3.226 2.129-3.459 5.207 3.77 26.361-3.848.542z" fill="#E56565"/><path d="M103.368 107.613h-9.095a9.724 9.724 0 01-6.88-2.826l-7.579-7.548a21.15 21.15 0 01-4.643-6.905 21.081 21.081 0 01-1.614-8.153V70.839h3.887V82.18a17.243 17.243 0 001.327 6.666 17.302 17.302 0 003.803 5.644l7.58 7.548a5.842 5.842 0 004.12 1.703h9.113a5.84 5.84 0 004.12-1.703l7.579-7.549a17.286 17.286 0 005.131-12.31V70.84h3.887v11.34a21.081 21.081 0 01-1.588 8.146 21.139 21.139 0 01-4.612 6.912l-7.579 7.548a9.747 9.747 0 01-6.957 2.826z" fill="#fff"/><path d="M122.141 70.839a13.766 13.766 0 01-6.768-1.773 13.699 13.699 0 01-5.009-4.866l-1.827-3.039a33.242 33.242 0 01-23.456 9.678H71.613v-5.807a27.041 27.041 0 017.97-19.16 27.263 27.263 0 0119.237-7.937h1.4c4.076 0 8.041 1.322 11.295 3.767a18.675 18.675 0 016.739 9.782 7.79 7.79 0 015.497 2.267 7.725 7.725 0 012.277 5.475v11.613h-3.887z" fill="#DF2C2C"/><path d="M127.971 70.839h-3.887V59.226c0-1.54-.614-3.017-1.707-4.106a5.845 5.845 0 00-4.123-1.7h-1.457l-.409-1.413a16.816 16.816 0 00-6.056-8.749 16.928 16.928 0 00-10.112-3.387h-1.4c-6.7 0-13.126 2.65-17.864 7.37a25.11 25.11 0 00-7.4 17.791v5.807H69.67v-5.807c0-7.7 3.071-15.084 8.538-20.529A29.21 29.21 0 0198.82 36h1.4a20.852 20.852 0 0111.872 3.791 20.72 20.72 0 017.561 9.873 9.728 9.728 0 015.945 3.24 9.656 9.656 0 012.373 6.322v11.613z" fill="#fff"/><path d="M122.141 72.774a15.79 15.79 0 01-7.709-2.033 15.714 15.714 0 01-5.72-5.534l-.525-1.007a34.946 34.946 0 01-23.106 8.574H75.5v-3.87h9.58a31.202 31.202 0 0011.953-2.362 31.107 31.107 0 0010.124-6.755l1.768-1.761 3.148 5.187a11.822 11.822 0 004.287 4.154 11.874 11.874 0 005.78 1.536v3.871zm-10.708 56.419L99.85 115.354h-2.06l-11.582 13.839-4.82-19.18 3.77-.93 2.955 11.788 7.85-9.388h5.714l7.851 9.388 2.954-11.788 3.77.93-4.819 19.18z" fill="#fff"/><path d="M151.641 156H46l4.275-25.607a21.254 21.254 0 014.832-10.333 21.383 21.383 0 019.49-6.37l16.714-5.555v-2.458h3.887v5.265l-19.356 6.348a17.495 17.495 0 00-7.731 5.223 17.389 17.389 0 00-3.93 8.442l-3.595 21.174h96.469l-3.537-21.097a17.389 17.389 0 00-3.929-8.441 17.486 17.486 0 00-7.731-5.223l-19.434-6.426v-5.265h3.887v2.478l16.713 5.555a21.37 21.37 0 019.491 6.37 21.25 21.25 0 014.831 10.333L151.641 156z" fill="#fff"/><path d="M131.839 134.519l-3.867.385 1.943 19.355 3.867-.385-1.943-19.355zm-66.032-.003l-1.947 19.355 3.867.385 1.947-19.354-3.867-.386zm56.334-46.258v-3.87a5.84 5.84 0 004.122-1.702 5.792 5.792 0 000-8.211 5.84 5.84 0 00-4.122-1.7v-3.872a9.739 9.739 0 016.871 2.835 9.658 9.658 0 012.846 6.843 9.659 9.659 0 01-2.846 6.843 9.739 9.739 0 01-6.871 2.834zm-46.641 0a9.737 9.737 0 01-6.87-2.834 9.657 9.657 0 01-2.847-6.843 9.657 9.657 0 012.846-6.843 9.737 9.737 0 016.871-2.835v3.871a5.84 5.84 0 00-4.122 1.701 5.794 5.794 0 00-1.708 4.106c0 1.54.614 3.017 1.708 4.105a5.842 5.842 0 004.122 1.701v3.871z" fill="#fff"/></svg>