<svg width="226" height="237" fill="none" xmlns="http://www.w3.org/2000/svg"><path opacity=".18" d="M189.302 193.712c-8.843 55.36-72.596 31.992-123.178 7.819C-1.871 169.037 3.71 100.141 55.788 45.669 108.148-9.1 209.483 33.747 215.644 66.14c5.635 29.634-14.627 31.26-22.857 53.002-8.23 21.741 3.49 30.901-3.486 74.57z" fill="#DF2C2C"/><path d="M69.467 155.41l-.48 3.841 15.479 1.937.48-3.841-15.48-1.937zm96.276.003l-15.48 1.933.48 3.841 15.48-1.933-.48-3.841z" fill="#fff"/><path d="M86.639 165.258l-3.852-.387 1.936-19.355-.02-19.161h3.871v19.355l-1.935 19.548zm61.955 0l-1.936-19.355-.019-19.548h3.871v19.355l1.935 19.161-3.851.387zm-9.871-13.742H96.49l-2.09-23.051 3.852-.349 1.761 19.529H135.2l1.781-19.529 3.851.349-2.109 23.051z" fill="#DF2C2C"/><path d="M122.136 118.613h-9.059a9.684 9.684 0 01-6.851-2.826l-7.549-7.548a21.15 21.15 0 01-6.232-15.058v-9.407h3.871v9.407a17.303 17.303 0 005.11 12.31l7.548 7.548a5.806 5.806 0 004.103 1.703h9.078a5.806 5.806 0 004.103-1.703l7.548-7.548a17.305 17.305 0 005.11-12.31v-9.407h3.871v9.407a21.145 21.145 0 01-6.174 15.058l-7.548 7.548a9.67 9.67 0 01-6.929 2.826z" fill="#fff"/><path d="M170.213 167H65l4.258-25.607a21.292 21.292 0 0114.265-16.703l16.645-5.555v-2.458h3.871v5.265l-19.278 6.348a17.422 17.422 0 00-11.613 13.665l-3.58 21.174h96.077l-3.522-21.097a17.427 17.427 0 00-11.613-13.664l-19.355-6.426v-5.265h3.871v2.478l16.645 5.555a21.283 21.283 0 0114.265 16.703L170.213 167zM94.38 99.258A9.677 9.677 0 0189.543 81.2l1.935 3.348a5.807 5.807 0 002.904 10.839v3.87z" fill="#fff"/><path d="M117.606 48.935h11.013a16.08 16.08 0 0111.373 4.711 16.073 16.073 0 014.711 11.373v16.82a14.806 14.806 0 01-9.677 3.87c-5.807 0-7.742-3.87-17.42-3.87-9.677 0-11.612 3.87-17.419 3.87a14.806 14.806 0 01-9.677-3.87v-16.82a16.084 16.084 0 0116.084-16.084h11.012z" fill="#DF2C2C"/><path d="M135.026 87.645a17.227 17.227 0 01-7.084-1.722 23.693 23.693 0 00-10.336-2.149 23.692 23.692 0 00-10.335 2.149 17.227 17.227 0 01-7.084 1.722 16.742 16.742 0 01-11.052-4.432l-.56-.561V65.019A18.039 18.039 0 01106.593 47h22.025a18.037 18.037 0 0118.02 18.02v17.612l-.562.562a16.74 16.74 0 01-11.051 4.451zm-17.42-7.742a27.682 27.682 0 0111.807 2.439 13.74 13.74 0 005.613 1.432 12.737 12.737 0 007.742-2.806V65.019a14.168 14.168 0 00-14.149-14.148h-22.025a14.168 14.168 0 00-14.149 14.148v15.93a12.87 12.87 0 007.742 2.825 13.74 13.74 0 005.613-1.432 27.68 27.68 0 0111.806-2.439z" fill="#fff"/><path d="M140.832 99.258v-3.871a5.804 5.804 0 005.615-4.304 5.803 5.803 0 00-2.711-6.535l1.935-3.348a9.676 9.676 0 01-4.839 18.058z" fill="#fff"/><path d="M92.232 82.71l-3.464-1.742c.251-.523 6.6-12.678 28.819-12.678s28.568 12.175 28.819 12.678l-3.464 1.722c-.194-.406-5.652-10.528-25.336-10.528-19.683 0-25.141 10.122-25.374 10.548zm25.374 45.58c-12.503 0-16.916-6.387-17.09-6.677l3.194-2.149c.135.194 3.6 4.955 13.877 4.955 10.278 0 13.742-4.761 13.878-4.955l3.212 2.149c-.154.29-4.567 6.677-17.071 6.677z" fill="#fff"/></svg>