<svg width="209" height="223" fill="none" xmlns="http://www.w3.org/2000/svg"><path opacity=".18" d="M1.5 122.5c5.71-53.914 28.657-73.631 54.236-85.668C71.39 29.465 90.727 0 119.272 0c28.546 0 31.898 50.019 49.724 74.584 20.021 27.589 33.357 30.861 39.135 64.456 9.35 54.365-58.627 86.585-113.72 83.792C34.588 219.799-4.81 182.064 1.5 122.5z" fill="#DF2C2C"/><path d="M97.78 178.336l-3.832-.542 3.775-26.361-3.465-5.207 3.213-2.129 4.297 6.407-3.987 27.832zm11.652 0l-3.967-27.832 4.277-6.407 3.213 2.129-3.445 5.207 3.755 26.361-3.833.542zm23.207-91.239h-1.936a27.093 27.093 0 00-21.29-24.523v-.639H97.8v.64a27.097 27.097 0 00-21.213 24.522h-1.935a3.871 3.871 0 000 7.742h58.064a3.87 3.87 0 100-7.742h-.077z" fill="#DF2C2C"/><path d="M108.135 131.613h-9.058a9.68 9.68 0 01-6.851-2.826l-7.549-7.548a21.15 21.15 0 01-6.232-15.058V94.839h3.871v11.342a17.3 17.3 0 005.11 12.309l7.548 7.549a5.806 5.806 0 004.103 1.703h9.078a5.806 5.806 0 004.103-1.703l7.548-7.549a17.287 17.287 0 005.11-12.309V94.839h3.871v11.342a21.145 21.145 0 01-6.174 15.058l-7.548 7.548a9.67 9.67 0 01-6.93 2.826zM103.606 180H51l4.258-25.607a21.292 21.292 0 0114.265-16.703l16.645-5.555v-2.458h3.87v5.265l-19.277 6.348a17.422 17.422 0 00-11.613 13.665l-3.58 21.174h48.038V180zm25.104-92.768a25.257 25.257 0 00-19.645-22.76l.832-3.872a29.147 29.147 0 0122.664 26.361l-3.851.271zm-50.207 0l-3.87-.27a29.148 29.148 0 0122.819-26.265l.832 3.87a25.259 25.259 0 00-19.78 22.665z" fill="#fff"/><path d="M116.168 153.193l-11.536-13.839h-2.051l-11.536 13.839-4.8-19.18 3.755-.93 2.942 11.788 7.819-9.388h5.691l7.819 9.388 2.942-11.788 3.755.93-4.8 19.18z" fill="#fff"/><path d="M156.213 180h-52.607v-3.871h48.039l-3.522-21.097a17.427 17.427 0 00-11.613-13.664l-19.355-6.426v-5.265h3.871v2.478l16.645 5.555a21.283 21.283 0 0114.264 16.703L156.213 180z" fill="#fff"/><path d="M136.491 158.519l-3.852.385 1.936 19.355 3.852-.385-1.936-19.355zm-65.225-.119l-1.945 19.452 3.871.387 1.945-19.452-3.87-.387zm55.566-46.142v-3.871a5.807 5.807 0 000-11.613v-3.87a9.677 9.677 0 110 19.354zm-46.452 0a9.676 9.676 0 110-19.355v3.871a5.806 5.806 0 100 11.613v3.871z" fill="#fff"/><path d="M132.639 96.774H74.574a5.806 5.806 0 110-11.613h58.065a5.803 5.803 0 015.806 5.807 5.807 5.807 0 01-5.806 5.806zm-58.065-7.742a1.935 1.935 0 000 3.871h58.065a1.935 1.935 0 000-3.87H74.574zm36.774-7.742h-3.871V63.871h-7.742v17.42h-3.87V60h15.483v21.29zm7.742-3.87h-3.871v3.87h3.871v-3.87zm-27.097 0h-3.87v3.87h3.87v-3.87zm59.75 90.993l-15.48 1.933.48 3.841 15.48-1.933-.48-3.841zm-96.276-.003l-.48 3.841 15.478 1.937.48-3.841-15.478-1.937z" fill="#fff"/></svg>